<?xml version="1.0" encoding="utf-8" standalone="no"?>
<!DOCTYPE svg PUBLIC "-//W3C//DTD SVG 1.1//EN"
  "http://www.w3.org/Graphics/SVG/1.1/DTD/svg11.dtd">
<!-- Created with matplotlib (https://matplotlib.org/) -->
<svg height="302.4pt" version="1.1" viewBox="0 0 1072.8 302.4" width="1072.8pt" xmlns="http://www.w3.org/2000/svg" xmlns:xlink="http://www.w3.org/1999/xlink">
 <metadata>
  <rdf:RDF xmlns:cc="http://creativecommons.org/ns#" xmlns:dc="http://purl.org/dc/elements/1.1/" xmlns:rdf="http://www.w3.org/1999/02/22-rdf-syntax-ns#">
   <cc:Work>
    <dc:type rdf:resource="http://purl.org/dc/dcmitype/StillImage"/>
    <dc:date>2021-12-19T17:41:55.594436</dc:date>
    <dc:format>image/svg+xml</dc:format>
    <dc:creator>
     <cc:Agent>
      <dc:title>Matplotlib v3.3.4, https://matplotlib.org/</dc:title>
     </cc:Agent>
    </dc:creator>
   </cc:Work>
  </rdf:RDF>
 </metadata>
 <defs>
  <style type="text/css">*{stroke-linecap:butt;stroke-linejoin:round;}</style>
 </defs>
 <g id="figure_1">
  <g id="patch_1">
   <path d="M 0 302.4 
L 1072.8 302.4 
L 1072.8 0 
L 0 0 
z
" style="fill:#ffffff;"/>
  </g>
  <g id="axes_1">
   <g id="patch_2">
    <path d="M 72 241.92 
L 1000.8 241.92 
L 1000.8 30.24 
L 72 30.24 
z
" style="fill:#ffffff;"/>
   </g>
   <g id="matplotlib.axis_1">
    <g id="xtick_1">
     <g id="text_1">
      <!-- D00 -->
      <g transform="translate(81.412335 278.247044)rotate(-45)scale(0.18 -0.18)">
       <defs>
        <path d="M 8.90625 69 
L 8.90625 0 
L 33.5 0 
C 49.90625 0 62.5 15.3125 62.5 33.90625 
C 62.5 53.09375 49.90625 69 33.5 69 
z
M 17.09375 5.578125 
L 17.09375 63.421875 
L 31.296875 63.421875 
C 44.703125 63.421875 54.296875 51.203125 54.296875 33.90625 
C 54.296875 17.296875 44.796875 5.578125 31.296875 5.578125 
z
" id="CMSS17-68"/>
        <path d="M 43.09375 31.9375 
C 43.09375 37.578125 43 48.078125 38.90625 56.1875 
C 34.796875 64 28.203125 66.078125 23.5 66.078125 
C 16.703125 66.078125 10.90625 62.109375 7.90625 55.78125 
C 4.703125 49.15625 3.796875 42.328125 3.796875 31.9375 
C 3.796875 24.828125 4.09375 16.109375 7.703125 8.484375 
C 11.796875 0.078125 18.703125 -2 23.40625 -2 
C 29.59375 -2 35.59375 1.265625 39 8.09375 
C 42.5 15.21875 43.09375 23.03125 43.09375 31.9375 
z
M 23.40625 4.078125 
C 15.796875 4.078125 13.5 12.671875 12.796875 15.546875 
C 11.59375 20.46875 11.40625 25.21875 11.40625 33.03125 
C 11.40625 39.15625 11.40625 46.0625 13.296875 51.515625 
C 15.59375 57.828125 19.59375 60 23.40625 60 
C 30.796875 60 33.203125 52.6875 34 50.125 
C 35.5 44.890625 35.5 38.765625 35.5 33.03125 
C 35.5 23.84375 35.5 4.078125 23.40625 4.078125 
z
" id="CMSS17-48"/>
       </defs>
       <use transform="scale(0.996264)" xlink:href="#CMSS17-68"/>
       <use transform="translate(67.542842 0)scale(0.996264)" xlink:href="#CMSS17-48"/>
       <use transform="translate(114.386465 0)scale(0.996264)" xlink:href="#CMSS17-48"/>
      </g>
     </g>
    </g>
    <g id="xtick_2">
     <g id="text_2">
      <!-- D01 -->
      <g transform="translate(124.612335 278.247044)rotate(-45)scale(0.18 -0.18)">
       <defs>
        <path d="M 28.40625 67 
L 26.5 67 
C 21.09375 61.5625 14.796875 60.78125 8.40625 60.78125 
L 8.40625 55 
C 11.296875 55 16 55 20.703125 57.296875 
L 20.703125 5.765625 
L 8.90625 5.765625 
L 8.90625 0 
L 40.203125 0 
L 40.203125 5.765625 
L 28.40625 5.765625 
z
" id="CMSS17-49"/>
       </defs>
       <use transform="scale(0.996264)" xlink:href="#CMSS17-68"/>
       <use transform="translate(67.542842 0)scale(0.996264)" xlink:href="#CMSS17-48"/>
       <use transform="translate(114.386465 0)scale(0.996264)" xlink:href="#CMSS17-49"/>
      </g>
     </g>
    </g>
    <g id="xtick_3">
     <g id="text_3">
      <!-- D02 -->
      <g transform="translate(167.812335 278.247044)rotate(-45)scale(0.18 -0.18)">
       <defs>
        <path d="M 25.796875 21.203125 
C 28.59375 24.078125 32.796875 27.5625 35.703125 31.046875 
C 38.5 34.4375 42.203125 39.234375 42.203125 46.203125 
C 42.203125 57.140625 34.796875 67 22.203125 67 
C 12.296875 67 6.59375 60.828125 3.90625 51.15625 
C 4.90625 49.765625 6.40625 47.765625 7.796875 45.765625 
C 10 54.84375 13.09375 60.625 20.90625 60.625 
C 29.5 60.625 34.296875 53.640625 34.296875 45.96875 
C 34.296875 36.796875 27.296875 29.703125 22 24.421875 
C 16.09375 18.546875 10.296875 12.5625 4.703125 6.375 
L 4.703125 0 
L 42.203125 0 
L 42.203125 6.765625 
L 25.203125 6.765625 
C 24 6.765625 22.796875 6.765625 21.59375 6.765625 
L 11.59375 6.765625 
L 11.59375 6.859375 
z
" id="CMSS17-50"/>
       </defs>
       <use transform="scale(0.996264)" xlink:href="#CMSS17-68"/>
       <use transform="translate(67.542842 0)scale(0.996264)" xlink:href="#CMSS17-48"/>
       <use transform="translate(114.386465 0)scale(0.996264)" xlink:href="#CMSS17-50"/>
      </g>
     </g>
    </g>
    <g id="xtick_4">
     <g id="text_4">
      <!-- D03 -->
      <g transform="translate(211.012335 278.247044)rotate(-45)scale(0.18 -0.18)">
       <defs>
        <path d="M 15.703125 31.640625 
L 22.5 31.640625 
C 31.90625 31.640625 34.59375 23.546875 34.59375 17.90625 
C 34.59375 10.203125 30.203125 4.171875 23 4.171875 
C 17.40625 4.171875 9.5 6.9375 5 14.25 
C 4.296875 10.796875 4.296875 10.59375 3.90625 8.21875 
C 8.59375 1.375 16.203125 -2 23.203125 -2 
C 34.59375 -2 43 7.390625 43 17.78125 
C 43 25.59375 37.5 32.140625 30 34.609375 
C 36 37.875 40.40625 44 40.40625 51.140625 
C 40.40625 59.453125 32.703125 66.078125 23.296875 66.078125 
C 14.703125 66.078125 8 60.8125 5.203125 55.15625 
C 5.90625 54.1875 7.703125 51.3125 8.59375 49.828125 
C 10.796875 55.65625 16.5 60 23.203125 60 
C 28.796875 60 32.5 56.359375 32.5 51.109375 
C 32.5 45.671875 29 39.734375 23.09375 38.359375 
C 22.703125 38.359375 16.5 37.765625 15.703125 37.671875 
z
" id="CMSS17-51"/>
       </defs>
       <use transform="scale(0.996264)" xlink:href="#CMSS17-68"/>
       <use transform="translate(67.542842 0)scale(0.996264)" xlink:href="#CMSS17-48"/>
       <use transform="translate(114.386465 0)scale(0.996264)" xlink:href="#CMSS17-51"/>
      </g>
     </g>
    </g>
    <g id="xtick_5">
     <g id="text_5">
      <!-- D04 -->
      <g transform="translate(254.212335 278.247044)rotate(-45)scale(0.18 -0.18)">
       <defs>
        <path d="M 35.203125 17 
L 44.296875 17 
L 44.296875 23.078125 
L 35.203125 23.078125 
L 35.203125 65.5 
L 26.40625 65.5 
L 2.59375 23.078125 
L 2.59375 17 
L 27.296875 17 
L 27.296875 0 
L 35.203125 0 
z
M 10.296875 23.078125 
C 16.09375 33.234375 27.59375 53.734375 27.59375 60.703125 
L 27.59375 23.078125 
z
" id="CMSS17-52"/>
       </defs>
       <use transform="scale(0.996264)" xlink:href="#CMSS17-68"/>
       <use transform="translate(67.542842 0)scale(0.996264)" xlink:href="#CMSS17-48"/>
       <use transform="translate(114.386465 0)scale(0.996264)" xlink:href="#CMSS17-52"/>
      </g>
     </g>
    </g>
    <g id="xtick_6">
     <g id="text_6">
      <!-- D05 -->
      <g transform="translate(297.412335 278.247044)rotate(-45)scale(0.18 -0.18)">
       <defs>
        <path d="M 14.59375 58.625 
L 39.09375 58.625 
L 39.09375 65 
L 7.296875 65 
L 7.296875 27.828125 
L 14 27.828125 
C 15.796875 31.96875 19.5 35 24.296875 35 
C 28.796875 35 33.796875 31.078125 33.796875 19.78125 
C 33.796875 7.703125 26.703125 4.171875 21.5 4.171875 
C 15.09375 4.171875 9.203125 8 6.59375 13.296875 
L 3.40625 7.796875 
C 8 0.765625 15.5 -2 21.5 -2 
C 33.09375 -2 42.203125 7.765625 42.203125 19.578125 
C 42.203125 31.71875 34.09375 41.078125 24.40625 41.078125 
C 20.90625 41.078125 17.5 39.890625 14.59375 37.484375 
z
" id="CMSS17-53"/>
       </defs>
       <use transform="scale(0.996264)" xlink:href="#CMSS17-68"/>
       <use transform="translate(67.542842 0)scale(0.996264)" xlink:href="#CMSS17-48"/>
       <use transform="translate(114.386465 0)scale(0.996264)" xlink:href="#CMSS17-53"/>
      </g>
     </g>
    </g>
    <g id="xtick_7">
     <g id="text_7">
      <!-- D06 -->
      <g transform="translate(340.612335 278.247044)rotate(-45)scale(0.18 -0.18)">
       <defs>
        <path d="M 39 64.078125 
C 34.796875 65.78125 31.796875 66.078125 29 66.078125 
C 16 66.078125 3.90625 52.625 3.90625 31.34375 
C 3.90625 4.140625 15.40625 -2 23.59375 -2 
C 28.09375 -2 32.59375 -0.609375 36.90625 4.375 
C 41.296875 9.640625 43 14.03125 43 21.703125 
C 43 34.046875 36.90625 45 27.796875 45 
C 21.203125 45 15.5 41.515625 12 37.125 
C 13 50.90625 19.59375 60 29.09375 60 
C 31.703125 60 35.09375 59.625 39 57.96875 
z
M 12.09375 21.390625 
C 12.09375 22.1875 12.09375 22.6875 12.203125 24.1875 
C 12.203125 31.953125 16.703125 38.921875 24 38.921875 
C 28.703125 38.921875 31.09375 36.4375 32.90625 33.359375 
C 35 29.46875 35.09375 25.78125 35.09375 21.6875 
C 35.09375 17.8125 35.09375 13.921875 32.796875 9.953125 
C 30.90625 6.859375 28.40625 4.171875 23.59375 4.171875 
C 14.09375 4.171875 12.5 17.40625 12.09375 21.390625 
z
" id="CMSS17-54"/>
       </defs>
       <use transform="scale(0.996264)" xlink:href="#CMSS17-68"/>
       <use transform="translate(67.542842 0)scale(0.996264)" xlink:href="#CMSS17-48"/>
       <use transform="translate(114.386465 0)scale(0.996264)" xlink:href="#CMSS17-54"/>
      </g>
     </g>
    </g>
    <g id="xtick_8">
     <g id="text_8">
      <!-- D07 -->
      <g transform="translate(383.812335 278.247044)rotate(-45)scale(0.18 -0.18)">
       <defs>
        <path d="M 21.703125 59 
C 22.90625 59 24.09375 59 25.296875 59 
L 36.796875 59 
C 22.5 42.359375 14.296875 21.328125 14.296875 -0.5 
L 22.296875 -0.5 
C 22.296875 20.671875 29.296875 42.125 43 59.296875 
L 43 65.765625 
L 3.90625 65.765625 
L 3.90625 59 
z
" id="CMSS17-55"/>
       </defs>
       <use transform="scale(0.996264)" xlink:href="#CMSS17-68"/>
       <use transform="translate(67.542842 0)scale(0.996264)" xlink:href="#CMSS17-48"/>
       <use transform="translate(114.386465 0)scale(0.996264)" xlink:href="#CMSS17-55"/>
      </g>
     </g>
    </g>
    <g id="xtick_9">
     <g id="text_9">
      <!-- D08 -->
      <g transform="translate(427.012335 278.247044)rotate(-45)scale(0.18 -0.18)">
       <defs>
        <path d="M 30.203125 34.71875 
C 37.796875 37.1875 41.703125 43.125 41.703125 48.96875 
C 41.703125 58.15625 33.703125 66.078125 23.5 66.078125 
C 12.90625 66.078125 5.203125 57.9375 5.203125 49.125 
C 5.203125 43.4375 9 37.546875 16.703125 35.015625 
C 6.90625 31.203125 3.90625 23.625 3.90625 17.953125 
C 3.90625 6.96875 12.796875 -2 23.40625 -2 
C 34.40625 -2 43 7.109375 43 17.78125 
C 43 24.328125 39.09375 31.25 30.203125 34.71875 
z
M 23.5 38 
C 16.796875 38 12.296875 42.375 12.296875 49 
C 12.296875 55.71875 16.796875 60 23.5 60 
C 29.703125 60 34.59375 56.109375 34.59375 49 
C 34.59375 41.984375 29.796875 38 23.5 38 
z
M 23.5 4.171875 
C 17.796875 4.171875 11.703125 8.078125 11.703125 18.0625 
C 11.703125 28.328125 18.5 31.921875 23.40625 31.921875 
C 28.796875 31.921875 35.203125 28.125 35.203125 18.0625 
C 35.203125 7.671875 28.59375 4.171875 23.5 4.171875 
z
" id="CMSS17-56"/>
       </defs>
       <use transform="scale(0.996264)" xlink:href="#CMSS17-68"/>
       <use transform="translate(67.542842 0)scale(0.996264)" xlink:href="#CMSS17-48"/>
       <use transform="translate(114.386465 0)scale(0.996264)" xlink:href="#CMSS17-56"/>
      </g>
     </g>
    </g>
    <g id="xtick_10">
     <g id="text_10">
      <!-- D09 -->
      <g transform="translate(470.212335 278.247044)rotate(-45)scale(0.18 -0.18)">
       <defs>
        <path d="M 6.796875 2.71875 
C 9.59375 0.328125 13.203125 -2 19.296875 -2 
C 31.40625 -2 43 11.265625 43 32.734375 
C 43 61.4375 30.5 66.078125 23.796875 66.078125 
C 17.09375 66.078125 12.796875 63.140625 9.09375 58.453125 
C 4.703125 53.078125 3.90625 48.28125 3.90625 42.703125 
C 3.90625 36.046875 5.09375 31.953125 7.90625 27.265625 
C 11.703125 21.203125 15.203125 19.921875 19.09375 19.921875 
C 25 19.921875 30.90625 22.796875 34.90625 27.75 
C 34.203125 14.09375 28.09375 4.171875 19.296875 4.171875 
C 15.703125 4.171875 12.796875 5.296875 9.90625 8.0625 
z
M 34.59375 42.90625 
C 34.703125 42.234375 34.703125 40.96875 34.703125 40.5625 
C 34.703125 32.40625 29.90625 26 22.90625 26 
C 18.296875 26 15.90625 28.328125 14.09375 31.34375 
C 11.90625 35.140625 11.796875 38.828125 11.796875 42.703125 
C 11.796875 46.5 11.796875 50.6875 14.59375 54.859375 
C 16.703125 57.859375 19.296875 60 23.796875 60 
C 33 60 34.5 46.875 34.59375 42.90625 
z
" id="CMSS17-57"/>
       </defs>
       <use transform="scale(0.996264)" xlink:href="#CMSS17-68"/>
       <use transform="translate(67.542842 0)scale(0.996264)" xlink:href="#CMSS17-48"/>
       <use transform="translate(114.386465 0)scale(0.996264)" xlink:href="#CMSS17-57"/>
      </g>
     </g>
    </g>
    <g id="xtick_11">
     <g id="text_11">
      <!-- D10 -->
      <g transform="translate(513.412335 278.247044)rotate(-45)scale(0.18 -0.18)">
       <use transform="scale(0.996264)" xlink:href="#CMSS17-68"/>
       <use transform="translate(67.542842 0)scale(0.996264)" xlink:href="#CMSS17-49"/>
       <use transform="translate(114.386465 0)scale(0.996264)" xlink:href="#CMSS17-48"/>
      </g>
     </g>
    </g>
    <g id="xtick_12">
     <g id="text_12">
      <!-- D11 -->
      <g transform="translate(556.612335 278.247044)rotate(-45)scale(0.18 -0.18)">
       <use transform="scale(0.996264)" xlink:href="#CMSS17-68"/>
       <use transform="translate(67.542842 0)scale(0.996264)" xlink:href="#CMSS17-49"/>
       <use transform="translate(114.386465 0)scale(0.996264)" xlink:href="#CMSS17-49"/>
      </g>
     </g>
    </g>
    <g id="xtick_13">
     <g id="text_13">
      <!-- D12 -->
      <g transform="translate(599.812335 278.247044)rotate(-45)scale(0.18 -0.18)">
       <use transform="scale(0.996264)" xlink:href="#CMSS17-68"/>
       <use transform="translate(67.542842 0)scale(0.996264)" xlink:href="#CMSS17-49"/>
       <use transform="translate(114.386465 0)scale(0.996264)" xlink:href="#CMSS17-50"/>
      </g>
     </g>
    </g>
    <g id="xtick_14">
     <g id="text_14">
      <!-- D13 -->
      <g transform="translate(643.012335 278.247044)rotate(-45)scale(0.18 -0.18)">
       <use transform="scale(0.996264)" xlink:href="#CMSS17-68"/>
       <use transform="translate(67.542842 0)scale(0.996264)" xlink:href="#CMSS17-49"/>
       <use transform="translate(114.386465 0)scale(0.996264)" xlink:href="#CMSS17-51"/>
      </g>
     </g>
    </g>
    <g id="xtick_15">
     <g id="text_15">
      <!-- D14 -->
      <g transform="translate(686.212335 278.247044)rotate(-45)scale(0.18 -0.18)">
       <use transform="scale(0.996264)" xlink:href="#CMSS17-68"/>
       <use transform="translate(67.542842 0)scale(0.996264)" xlink:href="#CMSS17-49"/>
       <use transform="translate(114.386465 0)scale(0.996264)" xlink:href="#CMSS17-52"/>
      </g>
     </g>
    </g>
    <g id="xtick_16">
     <g id="text_16">
      <!-- D15 -->
      <g transform="translate(729.412335 278.247044)rotate(-45)scale(0.18 -0.18)">
       <use transform="scale(0.996264)" xlink:href="#CMSS17-68"/>
       <use transform="translate(67.542842 0)scale(0.996264)" xlink:href="#CMSS17-49"/>
       <use transform="translate(114.386465 0)scale(0.996264)" xlink:href="#CMSS17-53"/>
      </g>
     </g>
    </g>
    <g id="xtick_17">
     <g id="text_17">
      <!-- D16 -->
      <g transform="translate(772.612335 278.247044)rotate(-45)scale(0.18 -0.18)">
       <use transform="scale(0.996264)" xlink:href="#CMSS17-68"/>
       <use transform="translate(67.542842 0)scale(0.996264)" xlink:href="#CMSS17-49"/>
       <use transform="translate(114.386465 0)scale(0.996264)" xlink:href="#CMSS17-54"/>
      </g>
     </g>
    </g>
    <g id="xtick_18">
     <g id="text_18">
      <!-- D17 -->
      <g transform="translate(815.812335 278.247044)rotate(-45)scale(0.18 -0.18)">
       <use transform="scale(0.996264)" xlink:href="#CMSS17-68"/>
       <use transform="translate(67.542842 0)scale(0.996264)" xlink:href="#CMSS17-49"/>
       <use transform="translate(114.386465 0)scale(0.996264)" xlink:href="#CMSS17-55"/>
      </g>
     </g>
    </g>
    <g id="xtick_19">
     <g id="text_19">
      <!-- D18 -->
      <g transform="translate(859.012335 278.247044)rotate(-45)scale(0.18 -0.18)">
       <use transform="scale(0.996264)" xlink:href="#CMSS17-68"/>
       <use transform="translate(67.542842 0)scale(0.996264)" xlink:href="#CMSS17-49"/>
       <use transform="translate(114.386465 0)scale(0.996264)" xlink:href="#CMSS17-56"/>
      </g>
     </g>
    </g>
    <g id="xtick_20">
     <g id="text_20">
      <!-- D19 -->
      <g transform="translate(902.212335 278.247044)rotate(-45)scale(0.18 -0.18)">
       <use transform="scale(0.996264)" xlink:href="#CMSS17-68"/>
       <use transform="translate(67.542842 0)scale(0.996264)" xlink:href="#CMSS17-49"/>
       <use transform="translate(114.386465 0)scale(0.996264)" xlink:href="#CMSS17-57"/>
      </g>
     </g>
    </g>
    <g id="xtick_21">
     <g id="text_21">
      <!-- D20 -->
      <g transform="translate(945.412335 278.247044)rotate(-45)scale(0.18 -0.18)">
       <use transform="scale(0.996264)" xlink:href="#CMSS17-68"/>
       <use transform="translate(67.542842 0)scale(0.996264)" xlink:href="#CMSS17-50"/>
       <use transform="translate(114.386465 0)scale(0.996264)" xlink:href="#CMSS17-48"/>
      </g>
     </g>
    </g>
   </g>
   <g id="matplotlib.axis_2">
    <g id="ytick_1">
     <g id="line2d_1">
      <path clip-path="url(#p7a7c1e4a40)" d="M 72 241.92 
L 1000.8 241.92 
" style="fill:none;stroke:#b0b0b0;stroke-linecap:square;stroke-opacity:0.6;stroke-width:0.7;"/>
     </g>
     <g id="line2d_2">
      <defs>
       <path d="M 0 0 
L -3.5 0 
" id="m057468553b" style="stroke:#000000;stroke-width:0.8;"/>
      </defs>
      <g>
       <use style="stroke:#000000;stroke-width:0.8;" x="72" xlink:href="#m057468553b" y="241.92"/>
      </g>
     </g>
     <g id="text_22">
      <!-- 0 -->
      <g transform="translate(57.927644 246.935904)scale(0.145 -0.145)">
       <use transform="scale(0.996264)" xlink:href="#CMSS17-48"/>
      </g>
     </g>
    </g>
    <g id="ytick_2">
     <g id="line2d_3">
      <path clip-path="url(#p7a7c1e4a40)" d="M 72 171.36 
L 1000.8 171.36 
" style="fill:none;stroke:#b0b0b0;stroke-linecap:square;stroke-opacity:0.6;stroke-width:0.7;"/>
     </g>
     <g id="line2d_4">
      <g>
       <use style="stroke:#000000;stroke-width:0.8;" x="72" xlink:href="#m057468553b" y="171.36"/>
      </g>
     </g>
     <g id="text_23">
      <!-- 1500 -->
      <g transform="translate(36.710578 176.375904)scale(0.145 -0.145)">
       <use transform="scale(0.996264)" xlink:href="#CMSS17-49"/>
       <use transform="translate(46.843624 0)scale(0.996264)" xlink:href="#CMSS17-53"/>
       <use transform="translate(93.687247 0)scale(0.996264)" xlink:href="#CMSS17-48"/>
       <use transform="translate(140.530871 0)scale(0.996264)" xlink:href="#CMSS17-48"/>
      </g>
     </g>
    </g>
    <g id="ytick_3">
     <g id="line2d_5">
      <path clip-path="url(#p7a7c1e4a40)" d="M 72 100.8 
L 1000.8 100.8 
" style="fill:none;stroke:#b0b0b0;stroke-linecap:square;stroke-opacity:0.6;stroke-width:0.7;"/>
     </g>
     <g id="line2d_6">
      <g>
       <use style="stroke:#000000;stroke-width:0.8;" x="72" xlink:href="#m057468553b" y="100.8"/>
      </g>
     </g>
     <g id="text_24">
      <!-- 3000 -->
      <g transform="translate(36.710578 105.815904)scale(0.145 -0.145)">
       <use transform="scale(0.996264)" xlink:href="#CMSS17-51"/>
       <use transform="translate(46.843624 0)scale(0.996264)" xlink:href="#CMSS17-48"/>
       <use transform="translate(93.687247 0)scale(0.996264)" xlink:href="#CMSS17-48"/>
       <use transform="translate(140.530871 0)scale(0.996264)" xlink:href="#CMSS17-48"/>
      </g>
     </g>
    </g>
    <g id="text_25">
     <!-- Axon growth [$\frac{\mathrm{\upmu}\mathrm{m}}{\mathrm{day}}$] -->
     <g transform="translate(24.085831 199.655845)rotate(-90)scale(0.18 -0.18)">
      <defs>
       <path d="M 35.5 69 
L 26.90625 69 
L 2.59375 0 
L 10.203125 0 
L 17.203125 20 
L 44 20 
L 51.09375 0 
L 59.796875 0 
z
M 42.09375 25.578125 
L 19.09375 25.578125 
C 23.90625 39.5 29.90625 56.84375 30.59375 61.328125 
L 30.703125 61.328125 
C 31.40625 57.234375 33.40625 51.265625 35.09375 46.1875 
z
" id="CMSS17-65"/>
       <path d="M 24.796875 22.09375 
L 41.5 42.796875 
L 32.796875 42.796875 
L 21.296875 27.765625 
L 9.40625 42.796875 
L 0.5 42.796875 
L 17.796875 22.09375 
L 0 0 
L 8.796875 0 
L 21.296875 17.515625 
L 34.296875 0 
L 43.09375 0 
z
" id="CMSS17-120"/>
       <path d="M 44.203125 21.1875 
C 44.203125 34 34.703125 44 23.5 44 
C 12 44 2.703125 33.703125 2.703125 21.1875 
C 2.703125 8.5 12.296875 -1 23.40625 -1 
C 34.796875 -1 44.203125 8.796875 44.203125 21.1875 
z
M 23.5 5.265625 
C 16.40625 5.265625 10.296875 11.078125 10.296875 22 
C 10.296875 33.609375 17.40625 37.921875 23.40625 37.921875 
C 29.90625 37.921875 36.59375 33.21875 36.59375 22 
C 36.59375 10.671875 30.09375 5.265625 23.5 5.265625 
z
" id="CMSS17-111"/>
       <path d="M 40.90625 29.328125 
C 40.90625 35.671875 39.40625 44 28.09375 44 
C 21.703125 44 17.5 40.71875 14.703125 37.328125 
L 14.703125 43.09375 
L 7.40625 43.09375 
L 7.40625 0 
L 15 0 
L 15 24.359375 
C 15 30.6875 17.40625 37.9375 24.203125 37.9375 
C 33 37.9375 33.296875 32 33.296875 28.578125 
L 33.296875 0 
L 40.90625 0 
z
" id="CMSS17-110"/>
       <path d="M 44.5 43.875 
C 38.796875 43.875 33.90625 42.78125 29.90625 40.890625 
C 26.59375 43.390625 23.203125 43.875 20.90625 43.875 
C 12.203125 43.875 5.59375 36.703125 5.59375 28.34375 
C 5.59375 22.9375 8.59375 18.859375 8.796875 18.671875 
C 7 16.171875 6 13.484375 6 10.5 
C 6 7 7.40625 4.515625 8.5 3.125 
C 3.296875 -0.046875 2.59375 -4.90625 2.59375 -6.796875 
C 2.59375 -14.03125 11.703125 -20 23.40625 -20 
C 35.203125 -20 44.296875 -14.03125 44.296875 -6.6875 
C 44.296875 7 29 7 24.796875 7 
L 16.703125 7 
C 15.203125 7 11.203125 7 11.203125 12.359375 
C 11.203125 14.390625 12.09375 15.6875 12.203125 15.78125 
C 13.703125 14.6875 16.796875 13 20.90625 13 
C 29.203125 13 36.09375 19.96875 36.09375 28.546875 
C 36.09375 33.3125 33.90625 36.796875 33 38 
L 33.296875 38 
C 33.59375 38 37.796875 38 39.296875 38 
C 42.5 38 42.796875 37.953125 45.59375 37.796875 
z
M 20.90625 18.46875 
C 17.5 18.46875 12.703125 20.546875 12.703125 28.484375 
C 12.703125 37.109375 18.203125 38.5 20.796875 38.5 
C 24.203125 38.5 29 36.421875 29 28.484375 
C 29 19.859375 23.5 18.46875 20.90625 18.46875 
z
M 24.703125 -0.15625 
C 27.09375 -0.15625 37.203125 -0.15625 37.203125 -6.90625 
C 37.203125 -11.15625 31 -14.515625 23.5 -14.515625 
C 15.90625 -14.515625 9.703125 -11.25 9.703125 -6.796875 
C 9.703125 -6.296875 9.703125 -0.15625 16.59375 -0.15625 
z
" id="CMSS17-103"/>
       <path d="M 14.90625 21.296875 
C 14.90625 30.703125 21.796875 37 30.59375 37 
L 30.59375 43.578125 
C 24.203125 43.578125 18.203125 40.390625 14.59375 35.203125 
L 14.59375 43.09375 
L 7.5 43.09375 
L 7.5 0 
L 14.90625 0 
z
" id="CMSS17-114"/>
       <path d="M 62.703125 43 
L 55.09375 43 
L 49.796875 25.015625 
C 48.703125 21.21875 45.59375 10.703125 45.203125 5.796875 
L 45.09375 5.796875 
C 44.90625 8.8125 43.203125 16 40.40625 25.515625 
L 35.296875 43 
L 28.40625 43 
L 23.40625 25.90625 
C 20.90625 17.203125 19 9.796875 18.796875 5.796875 
L 18.703125 5.796875 
C 18.296875 11.703125 14.203125 25.515625 13.59375 27.703125 
L 9.09375 43 
L 1.296875 43 
L 14.296875 0 
L 21.90625 0 
C 27.09375 17.125 31.09375 30.359375 31.40625 37.03125 
C 31.59375 33.75 33.296875 26.671875 34.296875 23.1875 
L 40.90625 0 
L 49.703125 0 
z
" id="CMSS17-119"/>
       <path d="M 16.703125 37 
L 29.703125 37 
L 29.703125 42.765625 
L 16.703125 42.765625 
L 16.703125 55 
L 9.59375 55 
L 9.59375 42.765625 
L 1.703125 42.765625 
L 1.703125 37 
L 9.40625 37 
L 9.40625 11.703125 
C 9.40625 6 10.703125 -1 17.296875 -1 
C 22.296875 -1 26.90625 0.390625 31.296875 2.6875 
L 29.703125 8.5625 
C 27.296875 6.46875 24.40625 5.265625 21.296875 5.265625 
C 16.90625 5.265625 16.703125 10.875 16.703125 13.375 
z
" id="CMSS17-116"/>
       <path d="M 40.90625 29.546875 
C 40.90625 35.8125 39.40625 44.0625 28.09375 44.0625 
C 21.796875 44.0625 17.703125 40.984375 14.796875 37.609375 
L 14.796875 69.5 
L 7.40625 69.5 
L 7.40625 0.5 
L 15 0.5 
L 15 24.578125 
C 15 30.828125 17.40625 38 24.203125 38 
C 33 38 33.296875 32.125 33.296875 28.734375 
L 33.296875 0.5 
L 40.90625 0.5 
z
" id="CMSS17-104"/>
       <path d="M 25.203125 -25 
L 25.203125 -18.9375 
L 16.59375 -18.9375 
L 16.59375 68 
L 25.203125 68 
L 25.203125 74.078125 
L 9.296875 74.078125 
L 9.296875 -25 
z
" id="CMSS17-91"/>
       <path d="M 48.5 46.75 
L 40.796875 43.5625 
C 41 37.90625 41.203125 32.234375 41.203125 26.46875 
C 41.203125 24.390625 41 17.125 40.90625 12.359375 
C 38.796875 10.625 36.59375 9.0625 34.09375 7.90625 
C 32.296875 6.9375 30.203125 6.265625 28.09375 6.265625 
C 26.09375 6.265625 23.796875 6.265625 22.296875 7.75 
C 19.296875 10.71875 18.796875 14.96875 18.796875 19.03125 
C 18.796875 27.921875 18.796875 36.84375 18.796875 45.65625 
L 17.90625 46.34375 
L 9.59375 43.765625 
C 9.59375 43.671875 11 32.9375 11.59375 27.46875 
C 11.59375 21.21875 11.59375 15 11.59375 8.75 
C 11.59375 -0.359375 11.40625 -9.46875 11.203125 -18.578125 
L 12.40625 -19.1875 
L 17.40625 -17.1875 
C 16 -10.71875 16 -3.65625 16 3.125 
C 17.5 1.375 19.59375 0 22.09375 0 
C 26.59375 0 34.5 4.28125 40.296875 7.5 
C 40.5 7.59375 40.703125 7.390625 40.90625 7.28125 
C 41.203125 7.171875 41.296875 6.96875 41.5 6.75 
C 41.796875 4.75 42.203125 2.640625 43.5 1.265625 
C 44.703125 0 46.59375 0 48.296875 0 
C 50.796875 0 53.09375 1.03125 55.203125 2.28125 
C 58.296875 3.921875 61 6.3125 63.5 8.6875 
L 62.09375 10.578125 
C 59.5 8.984375 56.40625 7 53.90625 7 
C 52.90625 7 51.796875 7.390625 51.09375 8.09375 
C 50.09375 8.984375 49.703125 10.28125 49.296875 11.46875 
C 48.90625 13.25 48.703125 15.046875 48.703125 16.828125 
C 48.703125 22.296875 48.703125 27.859375 48.703125 33.421875 
C 48.703125 36.515625 49 41.578125 49.296875 45.65625 
z
" id="EURM10-22"/>
       <path d="M 67.59375 30.203125 
C 67.59375 35.1875 66.703125 43.59375 54.796875 43.59375 
C 48 43.59375 43.296875 39 41.5 33.609375 
L 41.40625 33.609375 
C 40.203125 41.8125 34.296875 43.59375 28.703125 43.59375 
C 20.796875 43.59375 16.703125 37.5 15.203125 33.5 
L 15.09375 33.5 
L 15.09375 43.59375 
L 3.296875 42.5 
L 3.296875 39.90625 
C 9.203125 39.90625 10.09375 39.296875 10.09375 34.5 
L 10.09375 6.6875 
C 10.09375 2.875 9.703125 2.390625 3.296875 2.390625 
L 3.296875 -0.203125 
C 5.703125 0 10.09375 0 12.703125 0 
C 15.296875 0 19.796875 0 22.203125 -0.203125 
L 22.203125 2.390625 
C 15.796875 2.390625 15.40625 2.78125 15.40625 6.6875 
L 15.40625 25.90625 
C 15.40625 35.109375 21 42 28 42 
C 35.40625 42 36.203125 35.40625 36.203125 30.59375 
L 36.203125 6.6875 
C 36.203125 2.875 35.796875 2.390625 29.40625 2.390625 
L 29.40625 -0.203125 
C 31.796875 0 36.203125 0 38.796875 0 
C 41.40625 0 45.90625 0 48.296875 -0.203125 
L 48.296875 2.390625 
C 41.90625 2.390625 41.5 2.78125 41.5 6.6875 
L 41.5 25.90625 
C 41.5 35.109375 47.09375 42 54.09375 42 
C 61.5 42 62.296875 35.40625 62.296875 30.59375 
L 62.296875 6.6875 
C 62.296875 2.875 61.90625 2.390625 55.5 2.390625 
L 55.5 -0.203125 
C 57.90625 0 62.296875 0 64.90625 0 
C 67.5 0 72 0 74.40625 -0.203125 
L 74.40625 2.390625 
C 68 2.390625 67.59375 2.78125 67.59375 6.6875 
z
" id="CMR17-109"/>
       <path d="M 29.203125 67.59375 
L 29.203125 65 
C 35.09375 65 36 64.40625 36 59.6875 
L 36 36.640625 
C 35.59375 37.140625 31.5 43.59375 23.40625 43.59375 
C 13.203125 43.59375 3.296875 34.5 3.296875 21.3125 
C 3.296875 8.203125 12.59375 -1 22.40625 -1 
C 30.90625 -1 35.296875 5.265625 35.796875 5.9375 
L 35.796875 -0.984375 
L 47.90625 -0.984375 
L 47.90625 2 
C 42 2 41.09375 2.59375 41.09375 7.390625 
L 41.09375 68.6875 
z
M 35.796875 11.796875 
C 35.796875 8.796875 34 6.09375 31.703125 4.09375 
C 28.296875 1.09375 24.90625 0.59375 23 0.59375 
C 20.09375 0.59375 9.703125 2.09375 9.703125 21.1875 
C 9.703125 40.8125 21.296875 42 23.90625 42 
C 28.5 42 32.203125 39.40625 34.5 35.796875 
C 35.796875 33.703125 35.796875 33.40625 35.796875 31.609375 
z
" id="CMR17-100"/>
       <path d="M 36 25.828125 
C 36 32.375 36 35.84375 31.796875 39.734375 
C 28.09375 43 23.796875 44 20.40625 44 
C 12.5 44 6.796875 37.609375 6.796875 30.796875 
C 6.796875 27 9.796875 27 10.40625 27 
C 11.703125 27 14 27.78125 14 30.53125 
C 14 33 12.09375 34.078125 10.40625 34.078125 
C 10 34.078125 9.5 33.96875 9.203125 33.875 
C 11.296875 40.5 16.703125 42.40625 20.203125 42.40625 
C 25.203125 42.40625 30.703125 37.953125 30.703125 29.453125 
L 30.703125 25 
C 24.796875 25 17.703125 24.203125 12.09375 21.203125 
C 5.796875 17.703125 4 12.703125 4 8.90625 
C 4 1.203125 13 -1 18.296875 -1 
C 23.796875 -1 28.90625 2.171875 31.09375 7.984375 
C 31.296875 3.640625 34.09375 -0.28125 38.5 -0.28125 
C 40.59375 -0.28125 45.90625 1.09375 45.90625 8.859375 
L 45.90625 14.375 
L 44.09375 14.375 
L 44.09375 8.78125 
C 44.09375 2.78125 41.40625 2 40.09375 2 
C 36 2 36 7.15625 36 11.53125 
z
M 30.703125 13.59375 
C 30.703125 4.953125 24.5 0.59375 19 0.59375 
C 14 0.59375 10.09375 4.296875 10.09375 8.90625 
C 10.09375 11.890625 11.40625 17.1875 17.203125 20.390625 
C 22 23.09375 27.5 23.5 30.703125 23.5 
z
" id="CMR17-97"/>
       <path d="M 39 34.328125 
C 41.5 40.40625 46 40.40625 47.40625 40.40625 
L 47.40625 43 
C 45.5 43 43 43 41.09375 43 
C 39 43 35.703125 43 33.703125 43.09375 
L 33.703125 40.5 
C 37.5 40.203125 37.59375 37.40625 37.59375 36.609375 
C 37.59375 35.625 37.40625 35.125 36.90625 33.921875 
L 26 7.015625 
L 14.09375 36.03125 
C 13.59375 37.21875 13.59375 37.90625 13.59375 38.015625 
C 13.59375 40.203125 15.90625 40.40625 18.296875 40.40625 
L 18.296875 43.09375 
C 15.90625 43 11.59375 43 9.09375 43 
C 6.40625 43 3.203125 43 1 43.09375 
L 1 40.40625 
C 6.40625 40.40625 7 39.90625 8.296875 36.71875 
L 23.203125 0.234375 
C 18.703125 -11.53125 16.09375 -18.40625 9.796875 -18.40625 
C 8.703125 -18.40625 6.203125 -18.109375 4.40625 -16.3125 
C 6.703125 -16.109375 7.703125 -14.71875 7.703125 -13.015625 
C 7.703125 -11.328125 6.5 -9.828125 4.5 -9.828125 
C 2.296875 -9.828125 1.203125 -11.328125 1.203125 -13.125 
C 1.203125 -17.109375 5.296875 -20 9.796875 -20 
C 15.59375 -20 19.203125 -14.40625 21.203125 -9.4375 
z
" id="CMR17-121"/>
       <path d="M 17.90625 74.078125 
L 2 74.078125 
L 2 68 
L 10.59375 68 
L 10.59375 -18.9375 
L 2 -18.9375 
L 2 -25 
L 17.90625 -25 
z
" id="CMSS17-93"/>
      </defs>
      <use transform="scale(0.996264)" xlink:href="#CMSS17-65"/>
      <use transform="translate(62.217855 0)scale(0.996264)" xlink:href="#CMSS17-120"/>
      <use transform="translate(105.217997 0)scale(0.996264)" xlink:href="#CMSS17-111"/>
      <use transform="translate(152.06162 0)scale(0.996264)" xlink:href="#CMSS17-110"/>
      <use transform="translate(231.495676 0)scale(0.996264)" xlink:href="#CMSS17-103"/>
      <use transform="translate(278.3393 0)scale(0.996264)" xlink:href="#CMSS17-114"/>
      <use transform="translate(310.249072 0)scale(0.996264)" xlink:href="#CMSS17-111"/>
      <use transform="translate(354.490242 0)scale(0.996264)" xlink:href="#CMSS17-119"/>
      <use transform="translate(418.309787 0)scale(0.996264)" xlink:href="#CMSS17-116"/>
      <use transform="translate(452.141353 0)scale(0.996264)" xlink:href="#CMSS17-104"/>
      <use transform="translate(531.575409 0)scale(0.996264)" xlink:href="#CMSS17-91"/>
      <use transform="translate(561.748804 39.57822)scale(0.697382)" xlink:href="#EURM10-22"/>
      <use transform="translate(604.82424 39.57822)scale(0.697382)" xlink:href="#CMR17-109"/>
      <use transform="translate(559.956362 -34.355253)scale(0.697382)" xlink:href="#CMR17-100"/>
      <use transform="translate(595.58297 -34.355253)scale(0.697382)" xlink:href="#CMR17-97"/>
      <use transform="translate(625.744431 -34.355253)scale(0.697382)" xlink:href="#CMR17-121"/>
      <use transform="translate(661.655647 0)scale(0.996264)" xlink:href="#CMSS17-93"/>
      <path d="M 559.956362 24.410885 
L 660.460134 24.410885 
L 660.460134 25.40233 
L 559.956362 25.40233 
L 559.956362 24.410885 
z
"/>
     </g>
    </g>
   </g>
   <g id="line2d_7">
    <path clip-path="url(#p7a7c1e4a40)" d="M 104.4 225.048424 
L 104.4 237.720269 
" style="fill:none;stroke:#000000;stroke-linecap:square;stroke-opacity:0.7;"/>
   </g>
   <g id="line2d_8">
    <path clip-path="url(#p7a7c1e4a40)" d="M 104.4 196.10555 
L 104.4 152.8632 
" style="fill:none;stroke:#000000;stroke-linecap:square;stroke-opacity:0.7;"/>
   </g>
   <g id="line2d_9">
    <path clip-path="url(#p7a7c1e4a40)" d="M 97.92 237.720269 
L 110.88 237.720269 
" style="fill:none;stroke:#000000;stroke-linecap:square;stroke-opacity:0.7;"/>
   </g>
   <g id="line2d_10">
    <path clip-path="url(#p7a7c1e4a40)" d="M 97.92 152.8632 
L 110.88 152.8632 
" style="fill:none;stroke:#000000;stroke-linecap:square;stroke-opacity:0.7;"/>
   </g>
   <g id="line2d_11">
    <path clip-path="url(#p7a7c1e4a40)" d="M 147.6 231.248808 
L 147.6 239.681173 
" style="fill:none;stroke:#000000;stroke-linecap:square;stroke-opacity:0.7;"/>
   </g>
   <g id="line2d_12">
    <path clip-path="url(#p7a7c1e4a40)" d="M 147.6 185.551733 
L 147.6 119.865312 
" style="fill:none;stroke:#000000;stroke-linecap:square;stroke-opacity:0.7;"/>
   </g>
   <g id="line2d_13">
    <path clip-path="url(#p7a7c1e4a40)" d="M 141.12 239.681173 
L 154.08 239.681173 
" style="fill:none;stroke:#000000;stroke-linecap:square;stroke-opacity:0.7;"/>
   </g>
   <g id="line2d_14">
    <path clip-path="url(#p7a7c1e4a40)" d="M 141.12 119.865312 
L 154.08 119.865312 
" style="fill:none;stroke:#000000;stroke-linecap:square;stroke-opacity:0.7;"/>
   </g>
   <g id="line2d_15">
    <path clip-path="url(#p7a7c1e4a40)" d="M 190.8 221.495993 
L 190.8 240.607584 
" style="fill:none;stroke:#000000;stroke-linecap:square;stroke-opacity:0.7;"/>
   </g>
   <g id="line2d_16">
    <path clip-path="url(#p7a7c1e4a40)" d="M 190.8 172.442775 
L 190.8 100.856448 
" style="fill:none;stroke:#000000;stroke-linecap:square;stroke-opacity:0.7;"/>
   </g>
   <g id="line2d_17">
    <path clip-path="url(#p7a7c1e4a40)" d="M 184.32 240.607584 
L 197.28 240.607584 
" style="fill:none;stroke:#000000;stroke-linecap:square;stroke-opacity:0.7;"/>
   </g>
   <g id="line2d_18">
    <path clip-path="url(#p7a7c1e4a40)" d="M 184.32 100.856448 
L 197.28 100.856448 
" style="fill:none;stroke:#000000;stroke-linecap:square;stroke-opacity:0.7;"/>
   </g>
   <g id="line2d_19">
    <path clip-path="url(#p7a7c1e4a40)" d="M 234 187.430722 
L 234 239.887872 
" style="fill:none;stroke:#000000;stroke-linecap:square;stroke-opacity:0.7;"/>
   </g>
   <g id="line2d_20">
    <path clip-path="url(#p7a7c1e4a40)" d="M 234 148.456224 
L 234 93.574656 
" style="fill:none;stroke:#000000;stroke-linecap:square;stroke-opacity:0.7;"/>
   </g>
   <g id="line2d_21">
    <path clip-path="url(#p7a7c1e4a40)" d="M 227.52 239.887872 
L 240.48 239.887872 
" style="fill:none;stroke:#000000;stroke-linecap:square;stroke-opacity:0.7;"/>
   </g>
   <g id="line2d_22">
    <path clip-path="url(#p7a7c1e4a40)" d="M 227.52 93.574656 
L 240.48 93.574656 
" style="fill:none;stroke:#000000;stroke-linecap:square;stroke-opacity:0.7;"/>
   </g>
   <g id="line2d_23">
    <path clip-path="url(#p7a7c1e4a40)" d="M 277.2 184.662374 
L 277.2 233.490432 
" style="fill:none;stroke:#000000;stroke-linecap:square;stroke-opacity:0.7;"/>
   </g>
   <g id="line2d_24">
    <path clip-path="url(#p7a7c1e4a40)" d="M 277.2 136.999296 
L 277.2 66.140928 
" style="fill:none;stroke:#000000;stroke-linecap:square;stroke-opacity:0.7;"/>
   </g>
   <g id="line2d_25">
    <path clip-path="url(#p7a7c1e4a40)" d="M 270.72 233.490432 
L 283.68 233.490432 
" style="fill:none;stroke:#000000;stroke-linecap:square;stroke-opacity:0.7;"/>
   </g>
   <g id="line2d_26">
    <path clip-path="url(#p7a7c1e4a40)" d="M 270.72 66.140928 
L 283.68 66.140928 
" style="fill:none;stroke:#000000;stroke-linecap:square;stroke-opacity:0.7;"/>
   </g>
   <g id="line2d_27">
    <path clip-path="url(#p7a7c1e4a40)" d="M 320.4 230.819826 
L 320.4 240.79104 
" style="fill:none;stroke:#000000;stroke-linecap:square;stroke-opacity:0.7;"/>
   </g>
   <g id="line2d_28">
    <path clip-path="url(#p7a7c1e4a40)" d="M 320.4 179.241552 
L 320.4 104.073984 
" style="fill:none;stroke:#000000;stroke-linecap:square;stroke-opacity:0.7;"/>
   </g>
   <g id="line2d_29">
    <path clip-path="url(#p7a7c1e4a40)" d="M 313.92 240.79104 
L 326.88 240.79104 
" style="fill:none;stroke:#000000;stroke-linecap:square;stroke-opacity:0.7;"/>
   </g>
   <g id="line2d_30">
    <path clip-path="url(#p7a7c1e4a40)" d="M 313.92 104.073984 
L 326.88 104.073984 
" style="fill:none;stroke:#000000;stroke-linecap:square;stroke-opacity:0.7;"/>
   </g>
   <g id="line2d_31">
    <path clip-path="url(#p7a7c1e4a40)" d="M 363.6 225.643572 
L 363.6 240.935688 
" style="fill:none;stroke:#000000;stroke-linecap:square;stroke-opacity:0.7;"/>
   </g>
   <g id="line2d_32">
    <path clip-path="url(#p7a7c1e4a40)" d="M 363.6 178.616861 
L 363.6 113.387904 
" style="fill:none;stroke:#000000;stroke-linecap:square;stroke-opacity:0.7;"/>
   </g>
   <g id="line2d_33">
    <path clip-path="url(#p7a7c1e4a40)" d="M 357.12 240.935688 
L 370.08 240.935688 
" style="fill:none;stroke:#000000;stroke-linecap:square;stroke-opacity:0.7;"/>
   </g>
   <g id="line2d_34">
    <path clip-path="url(#p7a7c1e4a40)" d="M 357.12 113.387904 
L 370.08 113.387904 
" style="fill:none;stroke:#000000;stroke-linecap:square;stroke-opacity:0.7;"/>
   </g>
   <g id="line2d_35">
    <path clip-path="url(#p7a7c1e4a40)" d="M 406.8 220.653569 
L 406.8 240.565248 
" style="fill:none;stroke:#000000;stroke-linecap:square;stroke-opacity:0.7;"/>
   </g>
   <g id="line2d_36">
    <path clip-path="url(#p7a7c1e4a40)" d="M 406.8 176.231897 
L 406.8 118.366618 
" style="fill:none;stroke:#000000;stroke-linecap:square;stroke-opacity:0.7;"/>
   </g>
   <g id="line2d_37">
    <path clip-path="url(#p7a7c1e4a40)" d="M 400.32 240.565248 
L 413.28 240.565248 
" style="fill:none;stroke:#000000;stroke-linecap:square;stroke-opacity:0.7;"/>
   </g>
   <g id="line2d_38">
    <path clip-path="url(#p7a7c1e4a40)" d="M 400.32 118.366618 
L 413.28 118.366618 
" style="fill:none;stroke:#000000;stroke-linecap:square;stroke-opacity:0.7;"/>
   </g>
   <g id="line2d_39">
    <path clip-path="url(#p7a7c1e4a40)" d="M 450 235.551267 
L 450 240.607584 
" style="fill:none;stroke:#000000;stroke-linecap:square;stroke-opacity:0.7;"/>
   </g>
   <g id="line2d_40">
    <path clip-path="url(#p7a7c1e4a40)" d="M 450 197.112925 
L 450 153.33192 
" style="fill:none;stroke:#000000;stroke-linecap:square;stroke-opacity:0.7;"/>
   </g>
   <g id="line2d_41">
    <path clip-path="url(#p7a7c1e4a40)" d="M 443.52 240.607584 
L 456.48 240.607584 
" style="fill:none;stroke:#000000;stroke-linecap:square;stroke-opacity:0.7;"/>
   </g>
   <g id="line2d_42">
    <path clip-path="url(#p7a7c1e4a40)" d="M 443.52 153.33192 
L 456.48 153.33192 
" style="fill:none;stroke:#000000;stroke-linecap:square;stroke-opacity:0.7;"/>
   </g>
   <g id="line2d_43">
    <path clip-path="url(#p7a7c1e4a40)" d="M 493.2 222.072095 
L 493.2 241.92 
" style="fill:none;stroke:#000000;stroke-linecap:square;stroke-opacity:0.7;"/>
   </g>
   <g id="line2d_44">
    <path clip-path="url(#p7a7c1e4a40)" d="M 493.2 174.454242 
L 493.2 107.528602 
" style="fill:none;stroke:#000000;stroke-linecap:square;stroke-opacity:0.7;"/>
   </g>
   <g id="line2d_45">
    <path clip-path="url(#p7a7c1e4a40)" d="M 486.72 241.92 
L 499.68 241.92 
" style="fill:none;stroke:#000000;stroke-linecap:square;stroke-opacity:0.7;"/>
   </g>
   <g id="line2d_46">
    <path clip-path="url(#p7a7c1e4a40)" d="M 486.72 107.528602 
L 499.68 107.528602 
" style="fill:none;stroke:#000000;stroke-linecap:square;stroke-opacity:0.7;"/>
   </g>
   <g id="line2d_47">
    <path clip-path="url(#p7a7c1e4a40)" d="M 536.4 221.952528 
L 536.4 239.951376 
" style="fill:none;stroke:#000000;stroke-linecap:square;stroke-opacity:0.7;"/>
   </g>
   <g id="line2d_48">
    <path clip-path="url(#p7a7c1e4a40)" d="M 536.4 180.755385 
L 536.4 119.865312 
" style="fill:none;stroke:#000000;stroke-linecap:square;stroke-opacity:0.7;"/>
   </g>
   <g id="line2d_49">
    <path clip-path="url(#p7a7c1e4a40)" d="M 529.92 239.951376 
L 542.88 239.951376 
" style="fill:none;stroke:#000000;stroke-linecap:square;stroke-opacity:0.7;"/>
   </g>
   <g id="line2d_50">
    <path clip-path="url(#p7a7c1e4a40)" d="M 529.92 119.865312 
L 542.88 119.865312 
" style="fill:none;stroke:#000000;stroke-linecap:square;stroke-opacity:0.7;"/>
   </g>
   <g id="line2d_51">
    <path clip-path="url(#p7a7c1e4a40)" d="M 579.6 215.713915 
L 579.6 239.791104 
" style="fill:none;stroke:#000000;stroke-linecap:square;stroke-opacity:0.7;"/>
   </g>
   <g id="line2d_52">
    <path clip-path="url(#p7a7c1e4a40)" d="M 579.6 164.604842 
L 579.6 94.522982 
" style="fill:none;stroke:#000000;stroke-linecap:square;stroke-opacity:0.7;"/>
   </g>
   <g id="line2d_53">
    <path clip-path="url(#p7a7c1e4a40)" d="M 573.12 239.791104 
L 586.08 239.791104 
" style="fill:none;stroke:#000000;stroke-linecap:square;stroke-opacity:0.7;"/>
   </g>
   <g id="line2d_54">
    <path clip-path="url(#p7a7c1e4a40)" d="M 573.12 94.522982 
L 586.08 94.522982 
" style="fill:none;stroke:#000000;stroke-linecap:square;stroke-opacity:0.7;"/>
   </g>
   <g id="line2d_55">
    <path clip-path="url(#p7a7c1e4a40)" d="M 622.8 225.019469 
L 622.8 239.645146 
" style="fill:none;stroke:#000000;stroke-linecap:square;stroke-opacity:0.7;"/>
   </g>
   <g id="line2d_56">
    <path clip-path="url(#p7a7c1e4a40)" d="M 622.8 178.787368 
L 622.8 118.00535 
" style="fill:none;stroke:#000000;stroke-linecap:square;stroke-opacity:0.7;"/>
   </g>
   <g id="line2d_57">
    <path clip-path="url(#p7a7c1e4a40)" d="M 616.32 239.645146 
L 629.28 239.645146 
" style="fill:none;stroke:#000000;stroke-linecap:square;stroke-opacity:0.7;"/>
   </g>
   <g id="line2d_58">
    <path clip-path="url(#p7a7c1e4a40)" d="M 616.32 118.00535 
L 629.28 118.00535 
" style="fill:none;stroke:#000000;stroke-linecap:square;stroke-opacity:0.7;"/>
   </g>
   <g id="line2d_59">
    <path clip-path="url(#p7a7c1e4a40)" d="M 666 220.780224 
L 666 240.607584 
" style="fill:none;stroke:#000000;stroke-linecap:square;stroke-opacity:0.7;"/>
   </g>
   <g id="line2d_60">
    <path clip-path="url(#p7a7c1e4a40)" d="M 666 179.235672 
L 666 127.6128 
" style="fill:none;stroke:#000000;stroke-linecap:square;stroke-opacity:0.7;"/>
   </g>
   <g id="line2d_61">
    <path clip-path="url(#p7a7c1e4a40)" d="M 659.52 240.607584 
L 672.48 240.607584 
" style="fill:none;stroke:#000000;stroke-linecap:square;stroke-opacity:0.7;"/>
   </g>
   <g id="line2d_62">
    <path clip-path="url(#p7a7c1e4a40)" d="M 659.52 127.6128 
L 672.48 127.6128 
" style="fill:none;stroke:#000000;stroke-linecap:square;stroke-opacity:0.7;"/>
   </g>
   <g id="line2d_63">
    <path clip-path="url(#p7a7c1e4a40)" d="M 709.2 218.227031 
L 709.2 240.771636 
" style="fill:none;stroke:#000000;stroke-linecap:square;stroke-opacity:0.7;"/>
   </g>
   <g id="line2d_64">
    <path clip-path="url(#p7a7c1e4a40)" d="M 709.2 175.87584 
L 709.2 115.250688 
" style="fill:none;stroke:#000000;stroke-linecap:square;stroke-opacity:0.7;"/>
   </g>
   <g id="line2d_65">
    <path clip-path="url(#p7a7c1e4a40)" d="M 702.72 240.771636 
L 715.68 240.771636 
" style="fill:none;stroke:#000000;stroke-linecap:square;stroke-opacity:0.7;"/>
   </g>
   <g id="line2d_66">
    <path clip-path="url(#p7a7c1e4a40)" d="M 702.72 115.250688 
L 715.68 115.250688 
" style="fill:none;stroke:#000000;stroke-linecap:square;stroke-opacity:0.7;"/>
   </g>
   <g id="line2d_67">
    <path clip-path="url(#p7a7c1e4a40)" d="M 752.4 220.000742 
L 752.4 240.232608 
" style="fill:none;stroke:#000000;stroke-linecap:square;stroke-opacity:0.7;"/>
   </g>
   <g id="line2d_68">
    <path clip-path="url(#p7a7c1e4a40)" d="M 752.4 177.751489 
L 752.4 115.928064 
" style="fill:none;stroke:#000000;stroke-linecap:square;stroke-opacity:0.7;"/>
   </g>
   <g id="line2d_69">
    <path clip-path="url(#p7a7c1e4a40)" d="M 745.92 240.232608 
L 758.88 240.232608 
" style="fill:none;stroke:#000000;stroke-linecap:square;stroke-opacity:0.7;"/>
   </g>
   <g id="line2d_70">
    <path clip-path="url(#p7a7c1e4a40)" d="M 745.92 115.928064 
L 758.88 115.928064 
" style="fill:none;stroke:#000000;stroke-linecap:square;stroke-opacity:0.7;"/>
   </g>
   <g id="line2d_71">
    <path clip-path="url(#p7a7c1e4a40)" d="M 795.6 224.842088 
L 795.6 241.263792 
" style="fill:none;stroke:#000000;stroke-linecap:square;stroke-opacity:0.7;"/>
   </g>
   <g id="line2d_72">
    <path clip-path="url(#p7a7c1e4a40)" d="M 795.6 179.187251 
L 795.6 113.21856 
" style="fill:none;stroke:#000000;stroke-linecap:square;stroke-opacity:0.7;"/>
   </g>
   <g id="line2d_73">
    <path clip-path="url(#p7a7c1e4a40)" d="M 789.12 241.263792 
L 802.08 241.263792 
" style="fill:none;stroke:#000000;stroke-linecap:square;stroke-opacity:0.7;"/>
   </g>
   <g id="line2d_74">
    <path clip-path="url(#p7a7c1e4a40)" d="M 789.12 113.21856 
L 802.08 113.21856 
" style="fill:none;stroke:#000000;stroke-linecap:square;stroke-opacity:0.7;"/>
   </g>
   <g id="line2d_75">
    <path clip-path="url(#p7a7c1e4a40)" d="M 838.8 224.871822 
L 838.8 241.263792 
" style="fill:none;stroke:#000000;stroke-linecap:square;stroke-opacity:0.7;"/>
   </g>
   <g id="line2d_76">
    <path clip-path="url(#p7a7c1e4a40)" d="M 838.8 173.039328 
L 838.8 105.767424 
" style="fill:none;stroke:#000000;stroke-linecap:square;stroke-opacity:0.7;"/>
   </g>
   <g id="line2d_77">
    <path clip-path="url(#p7a7c1e4a40)" d="M 832.32 241.263792 
L 845.28 241.263792 
" style="fill:none;stroke:#000000;stroke-linecap:square;stroke-opacity:0.7;"/>
   </g>
   <g id="line2d_78">
    <path clip-path="url(#p7a7c1e4a40)" d="M 832.32 105.767424 
L 845.28 105.767424 
" style="fill:none;stroke:#000000;stroke-linecap:square;stroke-opacity:0.7;"/>
   </g>
   <g id="line2d_79">
    <path clip-path="url(#p7a7c1e4a40)" d="M 882 228.650016 
L 882 239.951376 
" style="fill:none;stroke:#000000;stroke-linecap:square;stroke-opacity:0.7;"/>
   </g>
   <g id="line2d_80">
    <path clip-path="url(#p7a7c1e4a40)" d="M 882 173.812922 
L 882 102.380544 
" style="fill:none;stroke:#000000;stroke-linecap:square;stroke-opacity:0.7;"/>
   </g>
   <g id="line2d_81">
    <path clip-path="url(#p7a7c1e4a40)" d="M 875.52 239.951376 
L 888.48 239.951376 
" style="fill:none;stroke:#000000;stroke-linecap:square;stroke-opacity:0.7;"/>
   </g>
   <g id="line2d_82">
    <path clip-path="url(#p7a7c1e4a40)" d="M 875.52 102.380544 
L 888.48 102.380544 
" style="fill:none;stroke:#000000;stroke-linecap:square;stroke-opacity:0.7;"/>
   </g>
   <g id="line2d_83">
    <path clip-path="url(#p7a7c1e4a40)" d="M 925.2 228.573739 
L 925.2 241.468416 
" style="fill:none;stroke:#000000;stroke-linecap:square;stroke-opacity:0.7;"/>
   </g>
   <g id="line2d_84">
    <path clip-path="url(#p7a7c1e4a40)" d="M 925.2 184.611168 
L 925.2 122.701824 
" style="fill:none;stroke:#000000;stroke-linecap:square;stroke-opacity:0.7;"/>
   </g>
   <g id="line2d_85">
    <path clip-path="url(#p7a7c1e4a40)" d="M 918.72 241.468416 
L 931.68 241.468416 
" style="fill:none;stroke:#000000;stroke-linecap:square;stroke-opacity:0.7;"/>
   </g>
   <g id="line2d_86">
    <path clip-path="url(#p7a7c1e4a40)" d="M 918.72 122.701824 
L 931.68 122.701824 
" style="fill:none;stroke:#000000;stroke-linecap:square;stroke-opacity:0.7;"/>
   </g>
   <g id="line2d_87">
    <path clip-path="url(#p7a7c1e4a40)" d="M 968.4 228.212544 
L 968.4 240.734592 
" style="fill:none;stroke:#000000;stroke-linecap:square;stroke-opacity:0.7;"/>
   </g>
   <g id="line2d_88">
    <path clip-path="url(#p7a7c1e4a40)" d="M 968.4 192.923136 
L 968.4 145.063699 
" style="fill:none;stroke:#000000;stroke-linecap:square;stroke-opacity:0.7;"/>
   </g>
   <g id="line2d_89">
    <path clip-path="url(#p7a7c1e4a40)" d="M 961.92 240.734592 
L 974.88 240.734592 
" style="fill:none;stroke:#000000;stroke-linecap:square;stroke-opacity:0.7;"/>
   </g>
   <g id="line2d_90">
    <path clip-path="url(#p7a7c1e4a40)" d="M 961.92 145.063699 
L 974.88 145.063699 
" style="fill:none;stroke:#000000;stroke-linecap:square;stroke-opacity:0.7;"/>
   </g>
   <g id="patch_3">
    <path d="M 72 241.92 
L 72 30.24 
" style="fill:none;stroke:#000000;stroke-linecap:square;stroke-linejoin:miter;stroke-width:0.8;"/>
   </g>
   <g id="patch_4">
    <path d="M 1000.8 241.92 
L 1000.8 30.24 
" style="fill:none;stroke:#000000;stroke-linecap:square;stroke-linejoin:miter;stroke-width:0.8;"/>
   </g>
   <g id="patch_5">
    <path d="M 72 241.92 
L 1000.8 241.92 
" style="fill:none;stroke:#000000;stroke-linecap:square;stroke-linejoin:miter;stroke-width:0.8;"/>
   </g>
   <g id="patch_6">
    <path d="M 72 30.24 
L 1000.8 30.24 
" style="fill:none;stroke:#000000;stroke-linecap:square;stroke-linejoin:miter;stroke-width:0.8;"/>
   </g>
   <g id="text_26">
    <!-- design -->
    <g transform="translate(514.531218 24.24)scale(0.18 -0.18)">
     <defs>
      <path d="M 40.796875 69 
L 33.40625 69 
L 33.40625 38.09375 
C 30.296875 40.671875 25.203125 43.0625 19.59375 43.0625 
C 10.5 43.0625 3.296875 33.296875 3.296875 21.046875 
C 3.296875 8.78125 10.40625 -1 19.296875 -1 
C 26.203125 -1 30.796875 2.6875 33.203125 4.78125 
L 33.203125 -0.203125 
L 40.796875 -0.203125 
z
M 33.203125 13.0625 
C 33.203125 11.671875 33.203125 10.203125 30.09375 7.53125 
C 28.09375 5.859375 25.703125 5.078125 23.40625 5.078125 
C 18 5.078125 10.90625 9 10.90625 20.9375 
C 10.90625 33.34375 18.90625 37 24.40625 37 
C 28.09375 37 31.09375 35.21875 33.203125 32.265625 
z
" id="CMSS17-100"/>
      <path d="M 39.09375 21.515625 
C 39.09375 24.84375 38.90625 31.296875 35.703125 36.640625 
C 32.203125 42.390625 26.5 44 22.203125 44 
C 11.796875 44 3 34.1875 3 21.484375 
C 3 9.09375 12.09375 -1 23.59375 -1 
C 28.09375 -1 33.59375 0.296875 38.59375 3.875 
C 38.59375 4.28125 38.40625 6.46875 38.296875 6.5625 
C 38.296875 6.765625 38 9.84375 38 10.25 
C 33.203125 6.359375 27.703125 5.078125 23.703125 5.078125 
C 17.296875 5.078125 10.40625 10.421875 10.09375 21.515625 
z
M 10.90625 27 
C 12.203125 32.5625 16.59375 37.828125 22.203125 37.828125 
C 23.703125 37.828125 30.703125 37.828125 32.5 27 
z
" id="CMSS17-101"/>
      <path d="M 32.203125 41.046875 
C 26.296875 43.859375 21.703125 43.859375 18.703125 43.859375 
C 11.59375 43.859375 3.09375 41.375 3.09375 31.296875 
C 3.09375 21.234375 14.09375 19.03125 17.09375 18.421875 
C 21.703125 17.53125 26.796875 16.53125 26.796875 11.5625 
C 26.796875 5.265625 19.59375 5.265625 18.296875 5.265625 
C 14.296875 5.265625 8.796875 6.359375 3.796875 9.96875 
L 2.59375 3.28125 
C 8.296875 0 13.796875 -1 18.40625 -1 
C 30.703125 -1 33.796875 6.5 33.796875 12.203125 
C 33.796875 17.09375 31 20.390625 29.09375 21.890625 
C 25.796875 24.5 24.59375 24.796875 16.40625 26.5 
C 15 26.703125 10.09375 27.796875 10.09375 32.28125 
C 10.09375 38 16.40625 38 17.796875 38 
C 24.296875 38 28.296875 35.984375 31 34.5 
z
" id="CMSS17-115"/>
      <path d="M 15.296875 65.359375 
L 6.90625 65.359375 
L 6.90625 57 
L 15.296875 57 
z
M 14.796875 42.796875 
L 7.40625 42.796875 
L 7.40625 0 
L 14.796875 0 
z
" id="CMSS17-105"/>
     </defs>
     <use transform="scale(0.996264)" xlink:href="#CMSS17-100"/>
     <use transform="translate(48.204943 0)scale(0.996264)" xlink:href="#CMSS17-101"/>
     <use transform="translate(89.843765 0)scale(0.996264)" xlink:href="#CMSS17-115"/>
     <use transform="translate(125.757307 0)scale(0.996264)" xlink:href="#CMSS17-105"/>
     <use transform="translate(147.93803 0)scale(0.996264)" xlink:href="#CMSS17-103"/>
     <use transform="translate(194.781654 0)scale(0.996264)" xlink:href="#CMSS17-110"/>
    </g>
   </g>
   <g id="patch_7">
    <path clip-path="url(#p7a7c1e4a40)" d="M 91.44 225.048424 
L 117.36 225.048424 
L 117.36 196.10555 
L 91.44 196.10555 
L 91.44 225.048424 
z
" style="fill:#54aeb3;stroke:#54aeb3;stroke-linejoin:miter;"/>
   </g>
   <g id="patch_8">
    <path clip-path="url(#p7a7c1e4a40)" d="M 134.64 231.248808 
L 160.56 231.248808 
L 160.56 185.551733 
L 134.64 185.551733 
L 134.64 231.248808 
z
" style="fill:#393b79;stroke:#393b79;stroke-linejoin:miter;"/>
   </g>
   <g id="patch_9">
    <path clip-path="url(#p7a7c1e4a40)" d="M 177.84 221.495993 
L 203.76 221.495993 
L 203.76 172.442775 
L 177.84 172.442775 
L 177.84 221.495993 
z
" style="fill:#5254a3;stroke:#5254a3;stroke-linejoin:miter;"/>
   </g>
   <g id="patch_10">
    <path clip-path="url(#p7a7c1e4a40)" d="M 221.04 187.430722 
L 246.96 187.430722 
L 246.96 148.456224 
L 221.04 148.456224 
L 221.04 187.430722 
z
" style="fill:#6b6ecf;stroke:#6b6ecf;stroke-linejoin:miter;"/>
   </g>
   <g id="patch_11">
    <path clip-path="url(#p7a7c1e4a40)" d="M 264.24 184.662374 
L 290.16 184.662374 
L 290.16 136.999296 
L 264.24 136.999296 
L 264.24 184.662374 
z
" style="fill:#9c9ede;stroke:#9c9ede;stroke-linejoin:miter;"/>
   </g>
   <g id="patch_12">
    <path clip-path="url(#p7a7c1e4a40)" d="M 307.44 230.819826 
L 333.36 230.819826 
L 333.36 179.241552 
L 307.44 179.241552 
L 307.44 230.819826 
z
" style="fill:#637939;stroke:#637939;stroke-linejoin:miter;"/>
   </g>
   <g id="patch_13">
    <path clip-path="url(#p7a7c1e4a40)" d="M 350.64 225.643572 
L 376.56 225.643572 
L 376.56 178.616861 
L 350.64 178.616861 
L 350.64 225.643572 
z
" style="fill:#8ca252;stroke:#8ca252;stroke-linejoin:miter;"/>
   </g>
   <g id="patch_14">
    <path clip-path="url(#p7a7c1e4a40)" d="M 393.84 220.653569 
L 419.76 220.653569 
L 419.76 176.231897 
L 393.84 176.231897 
L 393.84 220.653569 
z
" style="fill:#b5cf6b;stroke:#b5cf6b;stroke-linejoin:miter;"/>
   </g>
   <g id="patch_15">
    <path clip-path="url(#p7a7c1e4a40)" d="M 437.04 235.551267 
L 462.96 235.551267 
L 462.96 197.112925 
L 437.04 197.112925 
L 437.04 235.551267 
z
" style="fill:#cedb9c;stroke:#cedb9c;stroke-linejoin:miter;"/>
   </g>
   <g id="patch_16">
    <path clip-path="url(#p7a7c1e4a40)" d="M 480.24 222.072095 
L 506.16 222.072095 
L 506.16 174.454242 
L 480.24 174.454242 
L 480.24 222.072095 
z
" style="fill:#8c6d31;stroke:#8c6d31;stroke-linejoin:miter;"/>
   </g>
   <g id="patch_17">
    <path clip-path="url(#p7a7c1e4a40)" d="M 523.44 221.952528 
L 549.36 221.952528 
L 549.36 180.755385 
L 523.44 180.755385 
L 523.44 221.952528 
z
" style="fill:#bd9e39;stroke:#bd9e39;stroke-linejoin:miter;"/>
   </g>
   <g id="patch_18">
    <path clip-path="url(#p7a7c1e4a40)" d="M 566.64 215.713915 
L 592.56 215.713915 
L 592.56 164.604842 
L 566.64 164.604842 
L 566.64 215.713915 
z
" style="fill:#e7ba52;stroke:#e7ba52;stroke-linejoin:miter;"/>
   </g>
   <g id="patch_19">
    <path clip-path="url(#p7a7c1e4a40)" d="M 609.84 225.019469 
L 635.76 225.019469 
L 635.76 178.787368 
L 609.84 178.787368 
L 609.84 225.019469 
z
" style="fill:#e7cb94;stroke:#e7cb94;stroke-linejoin:miter;"/>
   </g>
   <g id="patch_20">
    <path clip-path="url(#p7a7c1e4a40)" d="M 653.04 220.780224 
L 678.96 220.780224 
L 678.96 179.235672 
L 653.04 179.235672 
L 653.04 220.780224 
z
" style="fill:#843c39;stroke:#843c39;stroke-linejoin:miter;"/>
   </g>
   <g id="patch_21">
    <path clip-path="url(#p7a7c1e4a40)" d="M 696.24 218.227031 
L 722.16 218.227031 
L 722.16 175.87584 
L 696.24 175.87584 
L 696.24 218.227031 
z
" style="fill:#ad494a;stroke:#ad494a;stroke-linejoin:miter;"/>
   </g>
   <g id="patch_22">
    <path clip-path="url(#p7a7c1e4a40)" d="M 739.44 220.000742 
L 765.36 220.000742 
L 765.36 177.751489 
L 739.44 177.751489 
L 739.44 220.000742 
z
" style="fill:#d6616b;stroke:#d6616b;stroke-linejoin:miter;"/>
   </g>
   <g id="patch_23">
    <path clip-path="url(#p7a7c1e4a40)" d="M 782.64 224.842088 
L 808.56 224.842088 
L 808.56 179.187251 
L 782.64 179.187251 
L 782.64 224.842088 
z
" style="fill:#e7969c;stroke:#e7969c;stroke-linejoin:miter;"/>
   </g>
   <g id="patch_24">
    <path clip-path="url(#p7a7c1e4a40)" d="M 825.84 224.871822 
L 851.76 224.871822 
L 851.76 173.039328 
L 825.84 173.039328 
L 825.84 224.871822 
z
" style="fill:#7b4173;stroke:#7b4173;stroke-linejoin:miter;"/>
   </g>
   <g id="patch_25">
    <path clip-path="url(#p7a7c1e4a40)" d="M 869.04 228.650016 
L 894.96 228.650016 
L 894.96 173.812922 
L 869.04 173.812922 
L 869.04 228.650016 
z
" style="fill:#a55194;stroke:#a55194;stroke-linejoin:miter;"/>
   </g>
   <g id="patch_26">
    <path clip-path="url(#p7a7c1e4a40)" d="M 912.24 228.573739 
L 938.16 228.573739 
L 938.16 184.611168 
L 912.24 184.611168 
L 912.24 228.573739 
z
" style="fill:#ce6dbd;stroke:#ce6dbd;stroke-linejoin:miter;"/>
   </g>
   <g id="patch_27">
    <path clip-path="url(#p7a7c1e4a40)" d="M 955.44 228.212544 
L 981.36 228.212544 
L 981.36 192.923136 
L 955.44 192.923136 
L 955.44 228.212544 
z
" style="fill:#de9ed6;stroke:#de9ed6;stroke-linejoin:miter;"/>
   </g>
   <g id="line2d_91">
    <path clip-path="url(#p7a7c1e4a40)" d="M 91.44 213.634154 
L 117.36 213.634154 
" style="fill:none;stroke:#000000;stroke-linecap:square;"/>
   </g>
   <g id="line2d_92">
    <path clip-path="url(#p7a7c1e4a40)" d="M 134.64 212.226588 
L 160.56 212.226588 
" style="fill:none;stroke:#000000;stroke-linecap:square;"/>
   </g>
   <g id="line2d_93">
    <path clip-path="url(#p7a7c1e4a40)" d="M 177.84 200.241418 
L 203.76 200.241418 
" style="fill:none;stroke:#000000;stroke-linecap:square;"/>
   </g>
   <g id="line2d_94">
    <path clip-path="url(#p7a7c1e4a40)" d="M 221.04 169.349093 
L 246.96 169.349093 
" style="fill:none;stroke:#000000;stroke-linecap:square;"/>
   </g>
   <g id="line2d_95">
    <path clip-path="url(#p7a7c1e4a40)" d="M 264.24 162.667008 
L 290.16 162.667008 
" style="fill:none;stroke:#000000;stroke-linecap:square;"/>
   </g>
   <g id="line2d_96">
    <path clip-path="url(#p7a7c1e4a40)" d="M 307.44 206.255878 
L 333.36 206.255878 
" style="fill:none;stroke:#000000;stroke-linecap:square;"/>
   </g>
   <g id="line2d_97">
    <path clip-path="url(#p7a7c1e4a40)" d="M 350.64 202.607175 
L 376.56 202.607175 
" style="fill:none;stroke:#000000;stroke-linecap:square;"/>
   </g>
   <g id="line2d_98">
    <path clip-path="url(#p7a7c1e4a40)" d="M 393.84 201.267202 
L 419.76 201.267202 
" style="fill:none;stroke:#000000;stroke-linecap:square;"/>
   </g>
   <g id="line2d_99">
    <path clip-path="url(#p7a7c1e4a40)" d="M 437.04 225.913163 
L 462.96 225.913163 
" style="fill:none;stroke:#000000;stroke-linecap:square;"/>
   </g>
   <g id="line2d_100">
    <path clip-path="url(#p7a7c1e4a40)" d="M 480.24 199.572998 
L 506.16 199.572998 
" style="fill:none;stroke:#000000;stroke-linecap:square;"/>
   </g>
   <g id="line2d_101">
    <path clip-path="url(#p7a7c1e4a40)" d="M 523.44 204.31969 
L 549.36 204.31969 
" style="fill:none;stroke:#000000;stroke-linecap:square;"/>
   </g>
   <g id="line2d_102">
    <path clip-path="url(#p7a7c1e4a40)" d="M 566.64 187.387811 
L 592.56 187.387811 
" style="fill:none;stroke:#000000;stroke-linecap:square;"/>
   </g>
   <g id="line2d_103">
    <path clip-path="url(#p7a7c1e4a40)" d="M 609.84 204.779232 
L 635.76 204.779232 
" style="fill:none;stroke:#000000;stroke-linecap:square;"/>
   </g>
   <g id="line2d_104">
    <path clip-path="url(#p7a7c1e4a40)" d="M 653.04 202.037069 
L 678.96 202.037069 
" style="fill:none;stroke:#000000;stroke-linecap:square;"/>
   </g>
   <g id="line2d_105">
    <path clip-path="url(#p7a7c1e4a40)" d="M 696.24 198.144576 
L 722.16 198.144576 
" style="fill:none;stroke:#000000;stroke-linecap:square;"/>
   </g>
   <g id="line2d_106">
    <path clip-path="url(#p7a7c1e4a40)" d="M 739.44 197.96804 
L 765.36 197.96804 
" style="fill:none;stroke:#000000;stroke-linecap:square;"/>
   </g>
   <g id="line2d_107">
    <path clip-path="url(#p7a7c1e4a40)" d="M 782.64 202.252226 
L 808.56 202.252226 
" style="fill:none;stroke:#000000;stroke-linecap:square;"/>
   </g>
   <g id="line2d_108">
    <path clip-path="url(#p7a7c1e4a40)" d="M 825.84 197.80875 
L 851.76 197.80875 
" style="fill:none;stroke:#000000;stroke-linecap:square;"/>
   </g>
   <g id="line2d_109">
    <path clip-path="url(#p7a7c1e4a40)" d="M 869.04 200.797632 
L 894.96 200.797632 
" style="fill:none;stroke:#000000;stroke-linecap:square;"/>
   </g>
   <g id="line2d_110">
    <path clip-path="url(#p7a7c1e4a40)" d="M 912.24 210.321061 
L 938.16 210.321061 
" style="fill:none;stroke:#000000;stroke-linecap:square;"/>
   </g>
   <g id="line2d_111">
    <path clip-path="url(#p7a7c1e4a40)" d="M 955.44 211.340707 
L 981.36 211.340707 
" style="fill:none;stroke:#000000;stroke-linecap:square;"/>
   </g>
  </g>
 </g>
 <defs>
  <clipPath id="p7a7c1e4a40">
   <rect height="211.68" width="928.8" x="72" y="30.24"/>
  </clipPath>
 </defs>
</svg>
