<?xml version="1.0" encoding="utf-8" standalone="no"?>
<!DOCTYPE svg PUBLIC "-//W3C//DTD SVG 1.1//EN"
  "http://www.w3.org/Graphics/SVG/1.1/DTD/svg11.dtd">
<!-- Created with matplotlib (https://matplotlib.org/) -->
<svg height="302.4pt" version="1.1" viewBox="0 0 295.2 302.4" width="295.2pt" xmlns="http://www.w3.org/2000/svg" xmlns:xlink="http://www.w3.org/1999/xlink">
 <metadata>
  <rdf:RDF xmlns:cc="http://creativecommons.org/ns#" xmlns:dc="http://purl.org/dc/elements/1.1/" xmlns:rdf="http://www.w3.org/1999/02/22-rdf-syntax-ns#">
   <cc:Work>
    <dc:type rdf:resource="http://purl.org/dc/dcmitype/StillImage"/>
    <dc:date>2021-12-19T17:32:59.770414</dc:date>
    <dc:format>image/svg+xml</dc:format>
    <dc:creator>
     <cc:Agent>
      <dc:title>Matplotlib v3.3.4, https://matplotlib.org/</dc:title>
     </cc:Agent>
    </dc:creator>
   </cc:Work>
  </rdf:RDF>
 </metadata>
 <defs>
  <style type="text/css">*{stroke-linecap:butt;stroke-linejoin:round;}</style>
 </defs>
 <g id="figure_1">
  <g id="patch_1">
   <path d="M 0 302.4 
L 295.2 302.4 
L 295.2 0 
L 0 0 
z
" style="fill:#ffffff;"/>
  </g>
  <g id="axes_1">
   <g id="patch_2">
    <path d="M 72 241.92 
L 223.2 241.92 
L 223.2 30.24 
L 72 30.24 
z
" style="fill:#ffffff;"/>
   </g>
   <g id="matplotlib.axis_1">
    <g id="xtick_1">
     <g id="text_1">
      <!-- 0 -->
      <g transform="translate(95.971347 263.688032)rotate(-45)scale(0.18 -0.18)">
       <defs>
        <path d="M 43.09375 31.9375 
C 43.09375 37.578125 43 48.078125 38.90625 56.1875 
C 34.796875 64 28.203125 66.078125 23.5 66.078125 
C 16.703125 66.078125 10.90625 62.109375 7.90625 55.78125 
C 4.703125 49.15625 3.796875 42.328125 3.796875 31.9375 
C 3.796875 24.828125 4.09375 16.109375 7.703125 8.484375 
C 11.796875 0.078125 18.703125 -2 23.40625 -2 
C 29.59375 -2 35.59375 1.265625 39 8.09375 
C 42.5 15.21875 43.09375 23.03125 43.09375 31.9375 
z
M 23.40625 4.078125 
C 15.796875 4.078125 13.5 12.671875 12.796875 15.546875 
C 11.59375 20.46875 11.40625 25.21875 11.40625 33.03125 
C 11.40625 39.15625 11.40625 46.0625 13.296875 51.515625 
C 15.59375 57.828125 19.59375 60 23.40625 60 
C 30.796875 60 33.203125 52.6875 34 50.125 
C 35.5 44.890625 35.5 38.765625 35.5 33.03125 
C 35.5 23.84375 35.5 4.078125 23.40625 4.078125 
z
" id="CMSS17-48"/>
       </defs>
       <use transform="scale(0.996264)" xlink:href="#CMSS17-48"/>
      </g>
     </g>
    </g>
    <g id="xtick_2">
     <g id="text_2">
      <!-- 1 -->
      <g transform="translate(139.171347 263.688032)rotate(-45)scale(0.18 -0.18)">
       <defs>
        <path d="M 28.40625 67 
L 26.5 67 
C 21.09375 61.5625 14.796875 60.78125 8.40625 60.78125 
L 8.40625 55 
C 11.296875 55 16 55 20.703125 57.296875 
L 20.703125 5.765625 
L 8.90625 5.765625 
L 8.90625 0 
L 40.203125 0 
L 40.203125 5.765625 
L 28.40625 5.765625 
z
" id="CMSS17-49"/>
       </defs>
       <use transform="scale(0.996264)" xlink:href="#CMSS17-49"/>
      </g>
     </g>
    </g>
    <g id="xtick_3">
     <g id="text_3">
      <!-- 3 -->
      <g transform="translate(182.371347 263.688032)rotate(-45)scale(0.18 -0.18)">
       <defs>
        <path d="M 15.703125 31.640625 
L 22.5 31.640625 
C 31.90625 31.640625 34.59375 23.546875 34.59375 17.90625 
C 34.59375 10.203125 30.203125 4.171875 23 4.171875 
C 17.40625 4.171875 9.5 6.9375 5 14.25 
C 4.296875 10.796875 4.296875 10.59375 3.90625 8.21875 
C 8.59375 1.375 16.203125 -2 23.203125 -2 
C 34.59375 -2 43 7.390625 43 17.78125 
C 43 25.59375 37.5 32.140625 30 34.609375 
C 36 37.875 40.40625 44 40.40625 51.140625 
C 40.40625 59.453125 32.703125 66.078125 23.296875 66.078125 
C 14.703125 66.078125 8 60.8125 5.203125 55.15625 
C 5.90625 54.1875 7.703125 51.3125 8.59375 49.828125 
C 10.796875 55.65625 16.5 60 23.203125 60 
C 28.796875 60 32.5 56.359375 32.5 51.109375 
C 32.5 45.671875 29 39.734375 23.09375 38.359375 
C 22.703125 38.359375 16.5 37.765625 15.703125 37.671875 
z
" id="CMSS17-51"/>
       </defs>
       <use transform="scale(0.996264)" xlink:href="#CMSS17-51"/>
      </g>
     </g>
    </g>
   </g>
   <g id="matplotlib.axis_2">
    <g id="ytick_1">
     <g id="line2d_1">
      <path clip-path="url(#pd47db30da1)" d="M 72 241.92 
L 223.2 241.92 
" style="fill:none;stroke:#b0b0b0;stroke-linecap:square;stroke-opacity:0.6;stroke-width:0.7;"/>
     </g>
     <g id="line2d_2">
      <defs>
       <path d="M 0 0 
L -3.5 0 
" id="ma6de9ff36e" style="stroke:#000000;stroke-width:0.8;"/>
      </defs>
      <g>
       <use style="stroke:#000000;stroke-width:0.8;" x="72" xlink:href="#ma6de9ff36e" y="241.92"/>
      </g>
     </g>
     <g id="text_4">
      <!-- 0 -->
      <g transform="translate(57.927644 246.935904)scale(0.145 -0.145)">
       <use transform="scale(0.996264)" xlink:href="#CMSS17-48"/>
      </g>
     </g>
    </g>
    <g id="ytick_2">
     <g id="line2d_3">
      <path clip-path="url(#pd47db30da1)" d="M 72 204.12 
L 223.2 204.12 
" style="fill:none;stroke:#b0b0b0;stroke-linecap:square;stroke-opacity:0.6;stroke-width:0.7;"/>
     </g>
     <g id="line2d_4">
      <g>
       <use style="stroke:#000000;stroke-width:0.8;" x="72" xlink:href="#ma6de9ff36e" y="204.12"/>
      </g>
     </g>
     <g id="text_5">
      <!-- 25 -->
      <g transform="translate(50.855289 209.135904)scale(0.145 -0.145)">
       <defs>
        <path d="M 25.796875 21.203125 
C 28.59375 24.078125 32.796875 27.5625 35.703125 31.046875 
C 38.5 34.4375 42.203125 39.234375 42.203125 46.203125 
C 42.203125 57.140625 34.796875 67 22.203125 67 
C 12.296875 67 6.59375 60.828125 3.90625 51.15625 
C 4.90625 49.765625 6.40625 47.765625 7.796875 45.765625 
C 10 54.84375 13.09375 60.625 20.90625 60.625 
C 29.5 60.625 34.296875 53.640625 34.296875 45.96875 
C 34.296875 36.796875 27.296875 29.703125 22 24.421875 
C 16.09375 18.546875 10.296875 12.5625 4.703125 6.375 
L 4.703125 0 
L 42.203125 0 
L 42.203125 6.765625 
L 25.203125 6.765625 
C 24 6.765625 22.796875 6.765625 21.59375 6.765625 
L 11.59375 6.765625 
L 11.59375 6.859375 
z
" id="CMSS17-50"/>
        <path d="M 14.59375 58.625 
L 39.09375 58.625 
L 39.09375 65 
L 7.296875 65 
L 7.296875 27.828125 
L 14 27.828125 
C 15.796875 31.96875 19.5 35 24.296875 35 
C 28.796875 35 33.796875 31.078125 33.796875 19.78125 
C 33.796875 7.703125 26.703125 4.171875 21.5 4.171875 
C 15.09375 4.171875 9.203125 8 6.59375 13.296875 
L 3.40625 7.796875 
C 8 0.765625 15.5 -2 21.5 -2 
C 33.09375 -2 42.203125 7.765625 42.203125 19.578125 
C 42.203125 31.71875 34.09375 41.078125 24.40625 41.078125 
C 20.90625 41.078125 17.5 39.890625 14.59375 37.484375 
z
" id="CMSS17-53"/>
       </defs>
       <use transform="scale(0.996264)" xlink:href="#CMSS17-50"/>
       <use transform="translate(46.843624 0)scale(0.996264)" xlink:href="#CMSS17-53"/>
      </g>
     </g>
    </g>
    <g id="ytick_3">
     <g id="line2d_5">
      <path clip-path="url(#pd47db30da1)" d="M 72 166.32 
L 223.2 166.32 
" style="fill:none;stroke:#b0b0b0;stroke-linecap:square;stroke-opacity:0.6;stroke-width:0.7;"/>
     </g>
     <g id="line2d_6">
      <g>
       <use style="stroke:#000000;stroke-width:0.8;" x="72" xlink:href="#ma6de9ff36e" y="166.32"/>
      </g>
     </g>
     <g id="text_6">
      <!-- 50 -->
      <g transform="translate(50.855289 171.335904)scale(0.145 -0.145)">
       <use transform="scale(0.996264)" xlink:href="#CMSS17-53"/>
       <use transform="translate(46.843624 0)scale(0.996264)" xlink:href="#CMSS17-48"/>
      </g>
     </g>
    </g>
    <g id="ytick_4">
     <g id="line2d_7">
      <path clip-path="url(#pd47db30da1)" d="M 72 90.72 
L 223.2 90.72 
" style="fill:none;stroke:#b0b0b0;stroke-linecap:square;stroke-opacity:0.6;stroke-width:0.7;"/>
     </g>
     <g id="line2d_8">
      <g>
       <use style="stroke:#000000;stroke-width:0.8;" x="72" xlink:href="#ma6de9ff36e" y="90.72"/>
      </g>
     </g>
     <g id="text_7">
      <!-- 100 -->
      <g transform="translate(43.782933 95.735904)scale(0.145 -0.145)">
       <use transform="scale(0.996264)" xlink:href="#CMSS17-49"/>
       <use transform="translate(46.843624 0)scale(0.996264)" xlink:href="#CMSS17-48"/>
       <use transform="translate(93.687247 0)scale(0.996264)" xlink:href="#CMSS17-48"/>
      </g>
     </g>
    </g>
    <g id="text_8">
     <!-- n axons -->
     <g transform="translate(36.294869 162.928628)rotate(-90)scale(0.18 -0.18)">
      <defs>
       <path d="M 40.90625 29.328125 
C 40.90625 35.671875 39.40625 44 28.09375 44 
C 21.703125 44 17.5 40.71875 14.703125 37.328125 
L 14.703125 43.09375 
L 7.40625 43.09375 
L 7.40625 0 
L 15 0 
L 15 24.359375 
C 15 30.6875 17.40625 37.9375 24.203125 37.9375 
C 33 37.9375 33.296875 32 33.296875 28.578125 
L 33.296875 0 
L 40.90625 0 
z
" id="CMSS17-110"/>
       <path d="M 37.59375 27.984375 
C 37.59375 37.375 30.90625 43.875 21.90625 43.875 
C 17.5 43.875 12.703125 43.078125 7.203125 39.890625 
L 7.796875 33.359375 
C 10.296875 35.125 14.59375 38 21.796875 38 
C 26.90625 38 30 34.0625 30 27.84375 
L 30 24 
C 14 24 4 19.34375 4 11.34375 
C 4 7.203125 6.5 -1 14.796875 -1 
C 16.296875 -1 24.40625 -1 30.203125 3.390625 
L 30.203125 -0.296875 
L 37.59375 -0.296875 
z
M 30 12.75 
C 30 10.953125 30 8.5625 27 6.78125 
C 24.40625 5.078125 21.09375 5.078125 19.703125 5.078125 
C 14.703125 5.078125 11.296875 7.984375 11.296875 11.625 
C 11.296875 18.921875 26.90625 18.921875 30 18.921875 
z
" id="CMSS17-97"/>
       <path d="M 24.796875 22.09375 
L 41.5 42.796875 
L 32.796875 42.796875 
L 21.296875 27.765625 
L 9.40625 42.796875 
L 0.5 42.796875 
L 17.796875 22.09375 
L 0 0 
L 8.796875 0 
L 21.296875 17.515625 
L 34.296875 0 
L 43.09375 0 
z
" id="CMSS17-120"/>
       <path d="M 44.203125 21.1875 
C 44.203125 34 34.703125 44 23.5 44 
C 12 44 2.703125 33.703125 2.703125 21.1875 
C 2.703125 8.5 12.296875 -1 23.40625 -1 
C 34.796875 -1 44.203125 8.796875 44.203125 21.1875 
z
M 23.5 5.265625 
C 16.40625 5.265625 10.296875 11.078125 10.296875 22 
C 10.296875 33.609375 17.40625 37.921875 23.40625 37.921875 
C 29.90625 37.921875 36.59375 33.21875 36.59375 22 
C 36.59375 10.671875 30.09375 5.265625 23.5 5.265625 
z
" id="CMSS17-111"/>
       <path d="M 32.203125 41.046875 
C 26.296875 43.859375 21.703125 43.859375 18.703125 43.859375 
C 11.59375 43.859375 3.09375 41.375 3.09375 31.296875 
C 3.09375 21.234375 14.09375 19.03125 17.09375 18.421875 
C 21.703125 17.53125 26.796875 16.53125 26.796875 11.5625 
C 26.796875 5.265625 19.59375 5.265625 18.296875 5.265625 
C 14.296875 5.265625 8.796875 6.359375 3.796875 9.96875 
L 2.59375 3.28125 
C 8.296875 0 13.796875 -1 18.40625 -1 
C 30.703125 -1 33.796875 6.5 33.796875 12.203125 
C 33.796875 17.09375 31 20.390625 29.09375 21.890625 
C 25.796875 24.5 24.59375 24.796875 16.40625 26.5 
C 15 26.703125 10.09375 27.796875 10.09375 32.28125 
C 10.09375 38 16.40625 38 17.796875 38 
C 24.296875 38 28.296875 35.984375 31 34.5 
z
" id="CMSS17-115"/>
      </defs>
      <use transform="scale(0.996264)" xlink:href="#CMSS17-110"/>
      <use transform="translate(79.434056 0)scale(0.996264)" xlink:href="#CMSS17-97"/>
      <use transform="translate(124.355976 0)scale(0.996264)" xlink:href="#CMSS17-120"/>
      <use transform="translate(167.356118 0)scale(0.996264)" xlink:href="#CMSS17-111"/>
      <use transform="translate(214.199742 0)scale(0.996264)" xlink:href="#CMSS17-110"/>
      <use transform="translate(262.404685 0)scale(0.996264)" xlink:href="#CMSS17-115"/>
     </g>
    </g>
   </g>
   <g id="line2d_9">
    <path clip-path="url(#pd47db30da1)" d="M 104.4 182.952 
L 104.4 211.68 
" style="fill:none;stroke:#000000;stroke-linecap:square;stroke-opacity:0.7;"/>
   </g>
   <g id="line2d_10">
    <path clip-path="url(#pd47db30da1)" d="M 104.4 150.822 
L 104.4 119.448 
" style="fill:none;stroke:#000000;stroke-linecap:square;stroke-opacity:0.7;"/>
   </g>
   <g id="line2d_11">
    <path clip-path="url(#pd47db30da1)" d="M 97.92 211.68 
L 110.88 211.68 
" style="fill:none;stroke:#000000;stroke-linecap:square;stroke-opacity:0.7;"/>
   </g>
   <g id="line2d_12">
    <path clip-path="url(#pd47db30da1)" d="M 97.92 119.448 
L 110.88 119.448 
" style="fill:none;stroke:#000000;stroke-linecap:square;stroke-opacity:0.7;"/>
   </g>
   <g id="line2d_13">
    <path clip-path="url(#pd47db30da1)" d="M 147.6 175.392 
L 147.6 199.584 
" style="fill:none;stroke:#000000;stroke-linecap:square;stroke-opacity:0.7;"/>
   </g>
   <g id="line2d_14">
    <path clip-path="url(#pd47db30da1)" d="M 147.6 138.348 
L 147.6 99.792 
" style="fill:none;stroke:#000000;stroke-linecap:square;stroke-opacity:0.7;"/>
   </g>
   <g id="line2d_15">
    <path clip-path="url(#pd47db30da1)" d="M 141.12 199.584 
L 154.08 199.584 
" style="fill:none;stroke:#000000;stroke-linecap:square;stroke-opacity:0.7;"/>
   </g>
   <g id="line2d_16">
    <path clip-path="url(#pd47db30da1)" d="M 141.12 99.792 
L 154.08 99.792 
" style="fill:none;stroke:#000000;stroke-linecap:square;stroke-opacity:0.7;"/>
   </g>
   <g id="line2d_17">
    <path clip-path="url(#pd47db30da1)" d="M 190.8 181.44 
L 190.8 235.872 
" style="fill:none;stroke:#000000;stroke-linecap:square;stroke-opacity:0.7;"/>
   </g>
   <g id="line2d_18">
    <path clip-path="url(#pd47db30da1)" d="M 190.8 144.396 
L 190.8 99.792 
" style="fill:none;stroke:#000000;stroke-linecap:square;stroke-opacity:0.7;"/>
   </g>
   <g id="line2d_19">
    <path clip-path="url(#pd47db30da1)" d="M 184.32 235.872 
L 197.28 235.872 
" style="fill:none;stroke:#000000;stroke-linecap:square;stroke-opacity:0.7;"/>
   </g>
   <g id="line2d_20">
    <path clip-path="url(#pd47db30da1)" d="M 184.32 99.792 
L 197.28 99.792 
" style="fill:none;stroke:#000000;stroke-linecap:square;stroke-opacity:0.7;"/>
   </g>
   <g id="patch_3">
    <path d="M 72 241.92 
L 72 30.24 
" style="fill:none;stroke:#000000;stroke-linecap:square;stroke-linejoin:miter;stroke-width:0.8;"/>
   </g>
   <g id="patch_4">
    <path d="M 223.2 241.92 
L 223.2 30.24 
" style="fill:none;stroke:#000000;stroke-linecap:square;stroke-linejoin:miter;stroke-width:0.8;"/>
   </g>
   <g id="patch_5">
    <path d="M 72 241.92 
L 223.2 241.92 
" style="fill:none;stroke:#000000;stroke-linecap:square;stroke-linejoin:miter;stroke-width:0.8;"/>
   </g>
   <g id="patch_6">
    <path d="M 72 30.24 
L 223.2 30.24 
" style="fill:none;stroke:#000000;stroke-linecap:square;stroke-linejoin:miter;stroke-width:0.8;"/>
   </g>
   <g id="text_9">
    <!-- n rescue loops -->
    <g transform="translate(97.722321 24.24)scale(0.18 -0.18)">
     <defs>
      <path d="M 14.90625 21.296875 
C 14.90625 30.703125 21.796875 37 30.59375 37 
L 30.59375 43.578125 
C 24.203125 43.578125 18.203125 40.390625 14.59375 35.203125 
L 14.59375 43.09375 
L 7.5 43.09375 
L 7.5 0 
L 14.90625 0 
z
" id="CMSS17-114"/>
      <path d="M 39.09375 21.515625 
C 39.09375 24.84375 38.90625 31.296875 35.703125 36.640625 
C 32.203125 42.390625 26.5 44 22.203125 44 
C 11.796875 44 3 34.1875 3 21.484375 
C 3 9.09375 12.09375 -1 23.59375 -1 
C 28.09375 -1 33.59375 0.296875 38.59375 3.875 
C 38.59375 4.28125 38.40625 6.46875 38.296875 6.5625 
C 38.296875 6.765625 38 9.84375 38 10.25 
C 33.203125 6.359375 27.703125 5.078125 23.703125 5.078125 
C 17.296875 5.078125 10.40625 10.421875 10.09375 21.515625 
z
M 10.90625 27 
C 12.203125 32.5625 16.59375 37.828125 22.203125 37.828125 
C 23.703125 37.828125 30.703125 37.828125 32.5 27 
z
" id="CMSS17-101"/>
      <path d="M 38.5 39.703125 
C 38.5 40.390625 33.90625 42.40625 32.703125 42.796875 
C 29.40625 44 25.203125 44 24.09375 44 
C 11.09375 44 3.296875 32.703125 3.296875 21.296875 
C 3.296875 9.296875 12 -1 23.703125 -1 
C 30.40625 -1 35.203125 1.1875 39.09375 3.78125 
L 38.5 10.375 
C 34.203125 7.078125 29.203125 5.265625 23.796875 5.265625 
C 16 5.265625 10.90625 12.09375 10.90625 21.390625 
C 10.90625 28.609375 14.203125 37.71875 24.203125 37.71875 
C 29.703125 37.71875 32.796875 36.609375 37.40625 33.515625 
z
" id="CMSS17-99"/>
      <path d="M 40.90625 42.796875 
L 33.296875 42.796875 
L 33.296875 15.1875 
C 33.296875 7.78125 27.90625 4.78125 22.203125 4.78125 
C 15.59375 4.78125 15 6.984375 15 11.078125 
L 15 42.796875 
L 7.40625 42.796875 
L 7.40625 10.59375 
C 7.40625 2.796875 10.09375 -1 17 -1 
C 20.40625 -1 28.09375 -0.203125 33.5 4.78125 
L 33.5 0 
L 40.90625 0 
z
" id="CMSS17-117"/>
      <path d="M 14.796875 69 
L 7.40625 69 
L 7.40625 0 
L 14.796875 0 
z
" id="CMSS17-108"/>
      <path d="M 15.09375 5.203125 
C 18.40625 2.015625 22.90625 -0.078125 27.703125 -0.078125 
C 37 -0.078125 45 9.421875 45 22.0625 
C 45 33.734375 39 44 30.40625 44 
C 25.40625 44 19.40625 42.21875 14.90625 38.625 
L 14.90625 43.203125 
L 7.5 43.203125 
L 7.5 -19 
L 15.09375 -19 
z
M 15.09375 32.8125 
C 15.90625 34 19.296875 37.734375 24.796875 37.734375 
C 31.796875 37.734375 37.40625 30.625 37.40625 22.0625 
C 37.40625 12.296875 30.59375 6 23.90625 6 
C 21.90625 6 19.796875 6.484375 17.796875 8.171875 
C 15.09375 10.53125 15.09375 12 15.09375 13.390625 
z
" id="CMSS17-112"/>
     </defs>
     <use transform="scale(0.996264)" xlink:href="#CMSS17-110"/>
     <use transform="translate(79.434056 0)scale(0.996264)" xlink:href="#CMSS17-114"/>
     <use transform="translate(111.343828 0)scale(0.996264)" xlink:href="#CMSS17-101"/>
     <use transform="translate(152.982651 0)scale(0.996264)" xlink:href="#CMSS17-115"/>
     <use transform="translate(188.896193 0)scale(0.996264)" xlink:href="#CMSS17-99"/>
     <use transform="translate(230.535015 0)scale(0.996264)" xlink:href="#CMSS17-117"/>
     <use transform="translate(278.739958 0)scale(0.996264)" xlink:href="#CMSS17-101"/>
     <use transform="translate(351.607893 0)scale(0.996264)" xlink:href="#CMSS17-108"/>
     <use transform="translate(373.788616 0)scale(0.996264)" xlink:href="#CMSS17-111"/>
     <use transform="translate(423.234678 0)scale(0.996264)" xlink:href="#CMSS17-111"/>
     <use transform="translate(470.078301 0)scale(0.996264)" xlink:href="#CMSS17-112"/>
     <use transform="translate(518.283244 0)scale(0.996264)" xlink:href="#CMSS17-115"/>
    </g>
   </g>
   <g id="patch_7">
    <path clip-path="url(#pd47db30da1)" d="M 91.44 182.952 
L 117.36 182.952 
L 117.36 150.822 
L 91.44 150.822 
L 91.44 182.952 
z
" style="fill:#5254a3;stroke:#5254a3;stroke-linejoin:miter;"/>
   </g>
   <g id="patch_8">
    <path clip-path="url(#pd47db30da1)" d="M 134.64 175.392 
L 160.56 175.392 
L 160.56 138.348 
L 134.64 138.348 
L 134.64 175.392 
z
" style="fill:#8c6d31;stroke:#8c6d31;stroke-linejoin:miter;"/>
   </g>
   <g id="patch_9">
    <path clip-path="url(#pd47db30da1)" d="M 177.84 181.44 
L 203.76 181.44 
L 203.76 144.396 
L 177.84 144.396 
L 177.84 181.44 
z
" style="fill:#bd9e39;stroke:#bd9e39;stroke-linejoin:miter;"/>
   </g>
   <g id="patch_10">
    <path clip-path="url(#pd47db30da1)" d="M 177.84 181.44 
L 177.84 149.1588 
L 203.76 147.042 
L 203.76 181.44 
z
" style="fill:#de9ed6;stroke:#de9ed6;stroke-linejoin:miter;"/>
   </g>
   <g id="patch_11">
    <path clip-path="url(#pd47db30da1)" d="M 177.84 181.44 
L 177.84 152.8632 
L 203.76 150.7464 
L 203.76 181.44 
z
" style="fill:#ce6dbd;stroke:#ce6dbd;stroke-linejoin:miter;"/>
   </g>
   <g id="patch_12">
    <path clip-path="url(#pd47db30da1)" d="M 91.44 182.952 
L 91.44 155.89665 
L 117.36 153.77985 
L 117.36 182.952 
z
" style="fill:#cedb9c;stroke:#cedb9c;stroke-linejoin:miter;"/>
   </g>
   <g id="patch_13">
    <path clip-path="url(#pd47db30da1)" d="M 177.84 181.44 
L 177.84 156.5676 
L 203.76 154.4508 
L 203.76 181.44 
z
" style="fill:#a55194;stroke:#a55194;stroke-linejoin:miter;"/>
   </g>
   <g id="patch_14">
    <path clip-path="url(#pd47db30da1)" d="M 91.44 182.952 
L 91.44 159.9129 
L 117.36 157.7961 
L 117.36 182.952 
z
" style="fill:#393b79;stroke:#393b79;stroke-linejoin:miter;"/>
   </g>
   <g id="patch_15">
    <path clip-path="url(#pd47db30da1)" d="M 177.84 181.44 
L 177.84 160.272 
L 203.76 158.1552 
L 203.76 181.44 
z
" style="fill:#7b4173;stroke:#7b4173;stroke-linejoin:miter;"/>
   </g>
   <g id="patch_16">
    <path clip-path="url(#pd47db30da1)" d="M 91.44 182.952 
L 91.44 163.92915 
L 117.36 161.81235 
L 117.36 182.952 
z
" style="fill:#b5cf6b;stroke:#b5cf6b;stroke-linejoin:miter;"/>
   </g>
   <g id="patch_17">
    <path clip-path="url(#pd47db30da1)" d="M 177.84 181.44 
L 177.84 163.9764 
L 203.76 161.8596 
L 203.76 181.44 
z
" style="fill:#e7969c;stroke:#e7969c;stroke-linejoin:miter;"/>
   </g>
   <g id="patch_18">
    <path clip-path="url(#pd47db30da1)" d="M 91.44 182.952 
L 91.44 167.9454 
L 117.36 165.8286 
L 117.36 182.952 
z
" style="fill:#8ca252;stroke:#8ca252;stroke-linejoin:miter;"/>
   </g>
   <g id="patch_19">
    <path clip-path="url(#pd47db30da1)" d="M 177.84 181.44 
L 177.84 167.6808 
L 203.76 165.564 
L 203.76 181.44 
z
" style="fill:#d6616b;stroke:#d6616b;stroke-linejoin:miter;"/>
   </g>
   <g id="patch_20">
    <path clip-path="url(#pd47db30da1)" d="M 91.44 182.952 
L 91.44 171.96165 
L 117.36 169.84485 
L 117.36 182.952 
z
" style="fill:#637939;stroke:#637939;stroke-linejoin:miter;"/>
   </g>
   <g id="patch_21">
    <path clip-path="url(#pd47db30da1)" d="M 177.84 181.44 
L 177.84 171.3852 
L 203.76 169.2684 
L 203.76 181.44 
z
" style="fill:#ad494a;stroke:#ad494a;stroke-linejoin:miter;"/>
   </g>
   <g id="patch_22">
    <path clip-path="url(#pd47db30da1)" d="M 91.44 182.952 
L 91.44 175.9779 
L 117.36 173.8611 
L 117.36 182.952 
z
" style="fill:#9c9ede;stroke:#9c9ede;stroke-linejoin:miter;"/>
   </g>
   <g id="patch_23">
    <path clip-path="url(#pd47db30da1)" d="M 177.84 181.44 
L 177.84 175.0896 
L 203.76 172.9728 
L 203.76 181.44 
z
" style="fill:#843c39;stroke:#843c39;stroke-linejoin:miter;"/>
   </g>
   <g id="patch_24">
    <path clip-path="url(#pd47db30da1)" d="M 91.44 182.952 
L 91.44 179.99415 
L 117.36 177.87735 
L 117.36 182.952 
z
" style="fill:#6b6ecf;stroke:#6b6ecf;stroke-linejoin:miter;"/>
   </g>
   <g id="patch_25">
    <path clip-path="url(#pd47db30da1)" d="M 134.64 175.392 
L 134.64 157.9284 
L 160.56 155.8116 
L 160.56 175.392 
z
" style="fill:#e7ba52;stroke:#e7ba52;stroke-linejoin:miter;"/>
   </g>
   <g id="patch_26">
    <path clip-path="url(#pd47db30da1)" d="M 177.84 181.44 
L 177.84 178.794 
L 203.76 176.6772 
L 203.76 181.44 
z
" style="fill:#e7cb94;stroke:#e7cb94;stroke-linejoin:miter;"/>
   </g>
   <g id="PathCollection_1">
    <defs>
     <path d="M 0 1.369306 
C 0.363144 1.369306 0.711464 1.225028 0.968246 0.968246 
C 1.225028 0.711464 1.369306 0.363144 1.369306 0 
C 1.369306 -0.363144 1.225028 -0.711464 0.968246 -0.968246 
C 0.711464 -1.225028 0.363144 -1.369306 0 -1.369306 
C -0.363144 -1.369306 -0.711464 -1.225028 -0.968246 -0.968246 
C -1.225028 -0.711464 -1.369306 -0.363144 -1.369306 0 
C -1.369306 0.363144 -1.225028 0.711464 -0.968246 0.968246 
C -0.711464 1.225028 -0.363144 1.369306 0 1.369306 
z
" id="md641ef9777" style="stroke:#000000;stroke-opacity:0.4;stroke-width:1.4;"/>
    </defs>
    <g>
     <use style="fill-opacity:0.4;stroke:#000000;stroke-opacity:0.4;stroke-width:1.4;" x="104.360258" xlink:href="#md641ef9777" y="178.416"/>
     <use style="fill-opacity:0.4;stroke:#000000;stroke-opacity:0.4;stroke-width:1.4;" x="106.223828" xlink:href="#md641ef9777" y="193.536"/>
     <use style="fill-opacity:0.4;stroke:#000000;stroke-opacity:0.4;stroke-width:1.4;" x="105.245407" xlink:href="#md641ef9777" y="119.448"/>
     <use style="fill-opacity:0.4;stroke:#000000;stroke-opacity:0.4;stroke-width:1.4;" x="103.823621" xlink:href="#md641ef9777" y="119.448"/>
     <use style="fill-opacity:0.4;stroke:#000000;stroke-opacity:0.4;stroke-width:1.4;" x="105.600146" xlink:href="#md641ef9777" y="163.296"/>
     <use style="fill-opacity:0.4;stroke:#000000;stroke-opacity:0.4;stroke-width:1.4;" x="99.969947" xlink:href="#md641ef9777" y="133.056"/>
     <use style="fill-opacity:0.4;stroke:#000000;stroke-opacity:0.4;stroke-width:1.4;" x="106.18656" xlink:href="#md641ef9777" y="127.008"/>
     <use style="fill-opacity:0.4;stroke:#000000;stroke-opacity:0.4;stroke-width:1.4;" x="101.694397" xlink:href="#md641ef9777" y="166.32"/>
     <use style="fill-opacity:0.4;stroke:#000000;stroke-opacity:0.4;stroke-width:1.4;" x="103.836332" xlink:href="#md641ef9777" y="136.08"/>
     <use style="fill-opacity:0.4;stroke:#000000;stroke-opacity:0.4;stroke-width:1.4;" x="102.658689" xlink:href="#md641ef9777" y="146.664"/>
     <use style="fill-opacity:0.4;stroke:#000000;stroke-opacity:0.4;stroke-width:1.4;" x="102.386511" xlink:href="#md641ef9777" y="148.176"/>
     <use style="fill-opacity:0.4;stroke:#000000;stroke-opacity:0.4;stroke-width:1.4;" x="106.205318" xlink:href="#md641ef9777" y="179.928"/>
     <use style="fill-opacity:0.4;stroke:#000000;stroke-opacity:0.4;stroke-width:1.4;" x="103.672631" xlink:href="#md641ef9777" y="139.104"/>
     <use style="fill-opacity:0.4;stroke:#000000;stroke-opacity:0.4;stroke-width:1.4;" x="104.938883" xlink:href="#md641ef9777" y="173.88"/>
     <use style="fill-opacity:0.4;stroke:#000000;stroke-opacity:0.4;stroke-width:1.4;" x="104.327029" xlink:href="#md641ef9777" y="198.072"/>
     <use style="fill-opacity:0.4;stroke:#000000;stroke-opacity:0.4;stroke-width:1.4;" x="105.141894" xlink:href="#md641ef9777" y="149.688"/>
     <use style="fill-opacity:0.4;stroke:#000000;stroke-opacity:0.4;stroke-width:1.4;" x="104.519473" xlink:href="#md641ef9777" y="181.44"/>
     <use style="fill-opacity:0.4;stroke:#000000;stroke-opacity:0.4;stroke-width:1.4;" x="102.40469" xlink:href="#md641ef9777" y="152.712"/>
     <use style="fill-opacity:0.4;stroke:#000000;stroke-opacity:0.4;stroke-width:1.4;" x="105.949394" xlink:href="#md641ef9777" y="145.152"/>
     <use style="fill-opacity:0.4;stroke:#000000;stroke-opacity:0.4;stroke-width:1.4;" x="103.63211" xlink:href="#md641ef9777" y="192.024"/>
     <use style="fill-opacity:0.4;stroke:#000000;stroke-opacity:0.4;stroke-width:1.4;" x="101.979204" xlink:href="#md641ef9777" y="211.68"/>
     <use style="fill-opacity:0.4;stroke:#000000;stroke-opacity:0.4;stroke-width:1.4;" x="103.734195" xlink:href="#md641ef9777" y="160.272"/>
     <use style="fill-opacity:0.4;stroke:#000000;stroke-opacity:0.4;stroke-width:1.4;" x="106.733982" xlink:href="#md641ef9777" y="164.808"/>
     <use style="fill-opacity:0.4;stroke:#000000;stroke-opacity:0.4;stroke-width:1.4;" x="105.722265" xlink:href="#md641ef9777" y="172.368"/>
     <use style="fill-opacity:0.4;stroke:#000000;stroke-opacity:0.4;stroke-width:1.4;" x="103.857776" xlink:href="#md641ef9777" y="185.976"/>
     <use style="fill-opacity:0.4;stroke:#000000;stroke-opacity:0.4;stroke-width:1.4;" x="103.856834" xlink:href="#md641ef9777" y="164.808"/>
     <use style="fill-opacity:0.4;stroke:#000000;stroke-opacity:0.4;stroke-width:1.4;" x="103.899793" xlink:href="#md641ef9777" y="157.248"/>
     <use style="fill-opacity:0.4;stroke:#000000;stroke-opacity:0.4;stroke-width:1.4;" x="107.629758" xlink:href="#md641ef9777" y="182.952"/>
     <use style="fill-opacity:0.4;stroke:#000000;stroke-opacity:0.4;stroke-width:1.4;" x="104.993986" xlink:href="#md641ef9777" y="166.32"/>
     <use style="fill-opacity:0.4;stroke:#000000;stroke-opacity:0.4;stroke-width:1.4;" x="105.068801" xlink:href="#md641ef9777" y="161.784"/>
     <use style="fill-opacity:0.4;stroke:#000000;stroke-opacity:0.4;stroke-width:1.4;" x="106.002297" xlink:href="#md641ef9777" y="146.664"/>
     <use style="fill-opacity:0.4;stroke:#000000;stroke-opacity:0.4;stroke-width:1.4;" x="104.771365" xlink:href="#md641ef9777" y="182.952"/>
     <use style="fill-opacity:0.4;stroke:#000000;stroke-opacity:0.4;stroke-width:1.4;" x="103.997138" xlink:href="#md641ef9777" y="201.096"/>
     <use style="fill-opacity:0.4;stroke:#000000;stroke-opacity:0.4;stroke-width:1.4;" x="104.094637" xlink:href="#md641ef9777" y="208.656"/>
     <use style="fill-opacity:0.4;stroke:#000000;stroke-opacity:0.4;stroke-width:1.4;" x="104.288646" xlink:href="#md641ef9777" y="178.416"/>
     <use style="fill-opacity:0.4;stroke:#000000;stroke-opacity:0.4;stroke-width:1.4;" x="104.342112" xlink:href="#md641ef9777" y="151.2"/>
     <use style="fill-opacity:0.4;stroke:#000000;stroke-opacity:0.4;stroke-width:1.4;" x="105.531609" xlink:href="#md641ef9777" y="179.928"/>
     <use style="fill-opacity:0.4;stroke:#000000;stroke-opacity:0.4;stroke-width:1.4;" x="104.480786" xlink:href="#md641ef9777" y="155.736"/>
     <use style="fill-opacity:0.4;stroke:#000000;stroke-opacity:0.4;stroke-width:1.4;" x="105.539402" xlink:href="#md641ef9777" y="166.32"/>
     <use style="fill-opacity:0.4;stroke:#000000;stroke-opacity:0.4;stroke-width:1.4;" x="104.27447" xlink:href="#md641ef9777" y="170.856"/>
     <use style="fill-opacity:0.4;stroke:#000000;stroke-opacity:0.4;stroke-width:1.4;" x="104.522293" xlink:href="#md641ef9777" y="149.688"/>
     <use style="fill-opacity:0.4;stroke:#000000;stroke-opacity:0.4;stroke-width:1.4;" x="101.292398" xlink:href="#md641ef9777" y="195.048"/>
     <use style="fill-opacity:0.4;stroke:#000000;stroke-opacity:0.4;stroke-width:1.4;" x="105.825073" xlink:href="#md641ef9777" y="196.56"/>
     <use style="fill-opacity:0.4;stroke:#000000;stroke-opacity:0.4;stroke-width:1.4;" x="104.938859" xlink:href="#md641ef9777" y="179.928"/>
     <use style="fill-opacity:0.4;stroke:#000000;stroke-opacity:0.4;stroke-width:1.4;" x="105.952105" xlink:href="#md641ef9777" y="184.464"/>
     <use style="fill-opacity:0.4;stroke:#000000;stroke-opacity:0.4;stroke-width:1.4;" x="99.895744" xlink:href="#md641ef9777" y="173.88"/>
     <use style="fill-opacity:0.4;stroke:#000000;stroke-opacity:0.4;stroke-width:1.4;" x="107.64784" xlink:href="#md641ef9777" y="204.12"/>
     <use style="fill-opacity:0.4;stroke:#000000;stroke-opacity:0.4;stroke-width:1.4;" x="104.18291" xlink:href="#md641ef9777" y="175.392"/>
    </g>
   </g>
   <g id="PathCollection_2">
    <g>
     <use style="fill-opacity:0.4;stroke:#000000;stroke-opacity:0.4;stroke-width:1.4;" x="149.323446" xlink:href="#md641ef9777" y="108.864"/>
     <use style="fill-opacity:0.4;stroke:#000000;stroke-opacity:0.4;stroke-width:1.4;" x="145.982738" xlink:href="#md641ef9777" y="161.784"/>
     <use style="fill-opacity:0.4;stroke:#000000;stroke-opacity:0.4;stroke-width:1.4;" x="148.552986" xlink:href="#md641ef9777" y="157.248"/>
     <use style="fill-opacity:0.4;stroke:#000000;stroke-opacity:0.4;stroke-width:1.4;" x="145.961728" xlink:href="#md641ef9777" y="108.864"/>
     <use style="fill-opacity:0.4;stroke:#000000;stroke-opacity:0.4;stroke-width:1.4;" x="146.629915" xlink:href="#md641ef9777" y="140.616"/>
     <use style="fill-opacity:0.4;stroke:#000000;stroke-opacity:0.4;stroke-width:1.4;" x="150.576702" xlink:href="#md641ef9777" y="166.32"/>
     <use style="fill-opacity:0.4;stroke:#000000;stroke-opacity:0.4;stroke-width:1.4;" x="147.303451" xlink:href="#md641ef9777" y="137.592"/>
     <use style="fill-opacity:0.4;stroke:#000000;stroke-opacity:0.4;stroke-width:1.4;" x="147.938152" xlink:href="#md641ef9777" y="170.856"/>
     <use style="fill-opacity:0.4;stroke:#000000;stroke-opacity:0.4;stroke-width:1.4;" x="148.953129" xlink:href="#md641ef9777" y="193.536"/>
     <use style="fill-opacity:0.4;stroke:#000000;stroke-opacity:0.4;stroke-width:1.4;" x="148.370884" xlink:href="#md641ef9777" y="99.792"/>
     <use style="fill-opacity:0.4;stroke:#000000;stroke-opacity:0.4;stroke-width:1.4;" x="147.833931" xlink:href="#md641ef9777" y="179.928"/>
     <use style="fill-opacity:0.4;stroke:#000000;stroke-opacity:0.4;stroke-width:1.4;" x="148.167587" xlink:href="#md641ef9777" y="199.584"/>
     <use style="fill-opacity:0.4;stroke:#000000;stroke-opacity:0.4;stroke-width:1.4;" x="151.337792" xlink:href="#md641ef9777" y="142.128"/>
     <use style="fill-opacity:0.4;stroke:#000000;stroke-opacity:0.4;stroke-width:1.4;" x="147.510391" xlink:href="#md641ef9777" y="176.904"/>
    </g>
   </g>
   <g id="PathCollection_3">
    <g>
     <use style="fill-opacity:0.4;stroke:#000000;stroke-opacity:0.4;stroke-width:1.4;" x="191.112749" xlink:href="#md641ef9777" y="128.52"/>
     <use style="fill-opacity:0.4;stroke:#000000;stroke-opacity:0.4;stroke-width:1.4;" x="192.433978" xlink:href="#md641ef9777" y="137.592"/>
     <use style="fill-opacity:0.4;stroke:#000000;stroke-opacity:0.4;stroke-width:1.4;" x="192.519314" xlink:href="#md641ef9777" y="125.496"/>
     <use style="fill-opacity:0.4;stroke:#000000;stroke-opacity:0.4;stroke-width:1.4;" x="192.64607" xlink:href="#md641ef9777" y="169.344"/>
     <use style="fill-opacity:0.4;stroke:#000000;stroke-opacity:0.4;stroke-width:1.4;" x="191.793353" xlink:href="#md641ef9777" y="167.832"/>
     <use style="fill-opacity:0.4;stroke:#000000;stroke-opacity:0.4;stroke-width:1.4;" x="189.022399" xlink:href="#md641ef9777" y="131.544"/>
     <use style="fill-opacity:0.4;stroke:#000000;stroke-opacity:0.4;stroke-width:1.4;" x="193.340313" xlink:href="#md641ef9777" y="182.952"/>
     <use style="fill-opacity:0.4;stroke:#000000;stroke-opacity:0.4;stroke-width:1.4;" x="189.017204" xlink:href="#md641ef9777" y="184.464"/>
     <use style="fill-opacity:0.4;stroke:#000000;stroke-opacity:0.4;stroke-width:1.4;" x="191.270659" xlink:href="#md641ef9777" y="151.2"/>
     <use style="fill-opacity:0.4;stroke:#000000;stroke-opacity:0.4;stroke-width:1.4;" x="189.62695" xlink:href="#md641ef9777" y="160.272"/>
     <use style="fill-opacity:0.4;stroke:#000000;stroke-opacity:0.4;stroke-width:1.4;" x="190.700252" xlink:href="#md641ef9777" y="131.544"/>
     <use style="fill-opacity:0.4;stroke:#000000;stroke-opacity:0.4;stroke-width:1.4;" x="191.311291" xlink:href="#md641ef9777" y="164.808"/>
     <use style="fill-opacity:0.4;stroke:#000000;stroke-opacity:0.4;stroke-width:1.4;" x="191.299775" xlink:href="#md641ef9777" y="166.32"/>
     <use style="fill-opacity:0.4;stroke:#000000;stroke-opacity:0.4;stroke-width:1.4;" x="191.456171" xlink:href="#md641ef9777" y="104.328"/>
     <use style="fill-opacity:0.4;stroke:#000000;stroke-opacity:0.4;stroke-width:1.4;" x="193.309644" xlink:href="#md641ef9777" y="114.912"/>
     <use style="fill-opacity:0.4;stroke:#000000;stroke-opacity:0.4;stroke-width:1.4;" x="191.505337" xlink:href="#md641ef9777" y="87.696"/>
     <use style="fill-opacity:0.4;stroke:#000000;stroke-opacity:0.4;stroke-width:1.4;" x="190.420288" xlink:href="#md641ef9777" y="149.688"/>
     <use style="fill-opacity:0.4;stroke:#000000;stroke-opacity:0.4;stroke-width:1.4;" x="192.299348" xlink:href="#md641ef9777" y="172.368"/>
     <use style="fill-opacity:0.4;stroke:#000000;stroke-opacity:0.4;stroke-width:1.4;" x="192.649865" xlink:href="#md641ef9777" y="161.784"/>
     <use style="fill-opacity:0.4;stroke:#000000;stroke-opacity:0.4;stroke-width:1.4;" x="188.890824" xlink:href="#md641ef9777" y="139.104"/>
     <use style="fill-opacity:0.4;stroke:#000000;stroke-opacity:0.4;stroke-width:1.4;" x="191.729077" xlink:href="#md641ef9777" y="145.152"/>
     <use style="fill-opacity:0.4;stroke:#000000;stroke-opacity:0.4;stroke-width:1.4;" x="191.890464" xlink:href="#md641ef9777" y="142.128"/>
     <use style="fill-opacity:0.4;stroke:#000000;stroke-opacity:0.4;stroke-width:1.4;" x="190.337229" xlink:href="#md641ef9777" y="196.56"/>
     <use style="fill-opacity:0.4;stroke:#000000;stroke-opacity:0.4;stroke-width:1.4;" x="192.939499" xlink:href="#md641ef9777" y="158.76"/>
     <use style="fill-opacity:0.4;stroke:#000000;stroke-opacity:0.4;stroke-width:1.4;" x="190.566634" xlink:href="#md641ef9777" y="123.984"/>
     <use style="fill-opacity:0.4;stroke:#000000;stroke-opacity:0.4;stroke-width:1.4;" x="190.995297" xlink:href="#md641ef9777" y="99.792"/>
     <use style="fill-opacity:0.4;stroke:#000000;stroke-opacity:0.4;stroke-width:1.4;" x="190.530839" xlink:href="#md641ef9777" y="235.872"/>
     <use style="fill-opacity:0.4;stroke:#000000;stroke-opacity:0.4;stroke-width:1.4;" x="190.824229" xlink:href="#md641ef9777" y="123.984"/>
     <use style="fill-opacity:0.4;stroke:#000000;stroke-opacity:0.4;stroke-width:1.4;" x="189.095073" xlink:href="#md641ef9777" y="119.448"/>
     <use style="fill-opacity:0.4;stroke:#000000;stroke-opacity:0.4;stroke-width:1.4;" x="188.560433" xlink:href="#md641ef9777" y="213.192"/>
     <use style="fill-opacity:0.4;stroke:#000000;stroke-opacity:0.4;stroke-width:1.4;" x="193.279774" xlink:href="#md641ef9777" y="164.808"/>
     <use style="fill-opacity:0.4;stroke:#000000;stroke-opacity:0.4;stroke-width:1.4;" x="189.482806" xlink:href="#md641ef9777" y="170.856"/>
     <use style="fill-opacity:0.4;stroke:#000000;stroke-opacity:0.4;stroke-width:1.4;" x="189.258187" xlink:href="#md641ef9777" y="146.664"/>
     <use style="fill-opacity:0.4;stroke:#000000;stroke-opacity:0.4;stroke-width:1.4;" x="187.451048" xlink:href="#md641ef9777" y="145.152"/>
     <use style="fill-opacity:0.4;stroke:#000000;stroke-opacity:0.4;stroke-width:1.4;" x="189.806287" xlink:href="#md641ef9777" y="131.544"/>
     <use style="fill-opacity:0.4;stroke:#000000;stroke-opacity:0.4;stroke-width:1.4;" x="188.742331" xlink:href="#md641ef9777" y="170.856"/>
     <use style="fill-opacity:0.4;stroke:#000000;stroke-opacity:0.4;stroke-width:1.4;" x="193.353662" xlink:href="#md641ef9777" y="208.656"/>
     <use style="fill-opacity:0.4;stroke:#000000;stroke-opacity:0.4;stroke-width:1.4;" x="192.370468" xlink:href="#md641ef9777" y="161.784"/>
     <use style="fill-opacity:0.4;stroke:#000000;stroke-opacity:0.4;stroke-width:1.4;" x="189.729789" xlink:href="#md641ef9777" y="222.264"/>
     <use style="fill-opacity:0.4;stroke:#000000;stroke-opacity:0.4;stroke-width:1.4;" x="194.302988" xlink:href="#md641ef9777" y="181.44"/>
     <use style="fill-opacity:0.4;stroke:#000000;stroke-opacity:0.4;stroke-width:1.4;" x="192.326842" xlink:href="#md641ef9777" y="173.88"/>
     <use style="fill-opacity:0.4;stroke:#000000;stroke-opacity:0.4;stroke-width:1.4;" x="190.294822" xlink:href="#md641ef9777" y="179.928"/>
     <use style="fill-opacity:0.4;stroke:#000000;stroke-opacity:0.4;stroke-width:1.4;" x="186.912924" xlink:href="#md641ef9777" y="182.952"/>
     <use style="fill-opacity:0.4;stroke:#000000;stroke-opacity:0.4;stroke-width:1.4;" x="194.362874" xlink:href="#md641ef9777" y="108.864"/>
     <use style="fill-opacity:0.4;stroke:#000000;stroke-opacity:0.4;stroke-width:1.4;" x="188.638937" xlink:href="#md641ef9777" y="172.368"/>
     <use style="fill-opacity:0.4;stroke:#000000;stroke-opacity:0.4;stroke-width:1.4;" x="188.241076" xlink:href="#md641ef9777" y="196.56"/>
     <use style="fill-opacity:0.4;stroke:#000000;stroke-opacity:0.4;stroke-width:1.4;" x="192.390302" xlink:href="#md641ef9777" y="182.952"/>
     <use style="fill-opacity:0.4;stroke:#000000;stroke-opacity:0.4;stroke-width:1.4;" x="194.594303" xlink:href="#md641ef9777" y="163.296"/>
     <use style="fill-opacity:0.4;stroke:#000000;stroke-opacity:0.4;stroke-width:1.4;" x="192.952821" xlink:href="#md641ef9777" y="196.56"/>
     <use style="fill-opacity:0.4;stroke:#000000;stroke-opacity:0.4;stroke-width:1.4;" x="191.676991" xlink:href="#md641ef9777" y="181.44"/>
     <use style="fill-opacity:0.4;stroke:#000000;stroke-opacity:0.4;stroke-width:1.4;" x="191.724962" xlink:href="#md641ef9777" y="173.88"/>
     <use style="fill-opacity:0.4;stroke:#000000;stroke-opacity:0.4;stroke-width:1.4;" x="192.127232" xlink:href="#md641ef9777" y="146.664"/>
     <use style="fill-opacity:0.4;stroke:#000000;stroke-opacity:0.4;stroke-width:1.4;" x="191.980286" xlink:href="#md641ef9777" y="178.416"/>
     <use style="fill-opacity:0.4;stroke:#000000;stroke-opacity:0.4;stroke-width:1.4;" x="191.237309" xlink:href="#md641ef9777" y="185.976"/>
     <use style="fill-opacity:0.4;stroke:#000000;stroke-opacity:0.4;stroke-width:1.4;" x="190.962054" xlink:href="#md641ef9777" y="185.976"/>
     <use style="fill-opacity:0.4;stroke:#000000;stroke-opacity:0.4;stroke-width:1.4;" x="190.702655" xlink:href="#md641ef9777" y="148.176"/>
     <use style="fill-opacity:0.4;stroke:#000000;stroke-opacity:0.4;stroke-width:1.4;" x="189.627434" xlink:href="#md641ef9777" y="155.736"/>
     <use style="fill-opacity:0.4;stroke:#000000;stroke-opacity:0.4;stroke-width:1.4;" x="190.363494" xlink:href="#md641ef9777" y="179.928"/>
     <use style="fill-opacity:0.4;stroke:#000000;stroke-opacity:0.4;stroke-width:1.4;" x="188.167114" xlink:href="#md641ef9777" y="160.272"/>
     <use style="fill-opacity:0.4;stroke:#000000;stroke-opacity:0.4;stroke-width:1.4;" x="190.647062" xlink:href="#md641ef9777" y="172.368"/>
     <use style="fill-opacity:0.4;stroke:#000000;stroke-opacity:0.4;stroke-width:1.4;" x="189.262543" xlink:href="#md641ef9777" y="187.488"/>
     <use style="fill-opacity:0.4;stroke:#000000;stroke-opacity:0.4;stroke-width:1.4;" x="189.083698" xlink:href="#md641ef9777" y="181.44"/>
     <use style="fill-opacity:0.4;stroke:#000000;stroke-opacity:0.4;stroke-width:1.4;" x="191.079771" xlink:href="#md641ef9777" y="176.904"/>
     <use style="fill-opacity:0.4;stroke:#000000;stroke-opacity:0.4;stroke-width:1.4;" x="192.964842" xlink:href="#md641ef9777" y="160.272"/>
     <use style="fill-opacity:0.4;stroke:#000000;stroke-opacity:0.4;stroke-width:1.4;" x="192.228166" xlink:href="#md641ef9777" y="219.24"/>
     <use style="fill-opacity:0.4;stroke:#000000;stroke-opacity:0.4;stroke-width:1.4;" x="188.357557" xlink:href="#md641ef9777" y="170.856"/>
     <use style="fill-opacity:0.4;stroke:#000000;stroke-opacity:0.4;stroke-width:1.4;" x="189.26093" xlink:href="#md641ef9777" y="155.736"/>
     <use style="fill-opacity:0.4;stroke:#000000;stroke-opacity:0.4;stroke-width:1.4;" x="192.263087" xlink:href="#md641ef9777" y="137.592"/>
     <use style="fill-opacity:0.4;stroke:#000000;stroke-opacity:0.4;stroke-width:1.4;" x="189.272036" xlink:href="#md641ef9777" y="182.952"/>
     <use style="fill-opacity:0.4;stroke:#000000;stroke-opacity:0.4;stroke-width:1.4;" x="190.450651" xlink:href="#md641ef9777" y="152.712"/>
     <use style="fill-opacity:0.4;stroke:#000000;stroke-opacity:0.4;stroke-width:1.4;" x="191.655441" xlink:href="#md641ef9777" y="139.104"/>
     <use style="fill-opacity:0.4;stroke:#000000;stroke-opacity:0.4;stroke-width:1.4;" x="189.294031" xlink:href="#md641ef9777" y="161.784"/>
    </g>
   </g>
   <g id="PathCollection_4">
    <defs>
     <path d="M 0 3.535534 
C 0.937635 3.535534 1.836992 3.163008 2.5 2.5 
C 3.163008 1.836992 3.535534 0.937635 3.535534 0 
C 3.535534 -0.937635 3.163008 -1.836992 2.5 -2.5 
C 1.836992 -3.163008 0.937635 -3.535534 0 -3.535534 
C -0.937635 -3.535534 -1.836992 -3.163008 -2.5 -2.5 
C -3.163008 -1.836992 -3.535534 -0.937635 -3.535534 0 
C -3.535534 0.937635 -3.163008 1.836992 -2.5 2.5 
C -1.836992 3.163008 -0.937635 3.535534 0 3.535534 
z
" id="m83f5e85b79" style="stroke:#000000;"/>
    </defs>
    <g clip-path="url(#pd47db30da1)">
     <use style="stroke:#000000;" x="104.4" xlink:href="#m83f5e85b79" y="168.588"/>
    </g>
   </g>
   <g id="PathCollection_5">
    <g clip-path="url(#pd47db30da1)">
     <use style="stroke:#000000;" x="147.6" xlink:href="#m83f5e85b79" y="159.516"/>
    </g>
   </g>
   <g id="PathCollection_6">
    <g clip-path="url(#pd47db30da1)">
     <use style="stroke:#000000;" x="190.8" xlink:href="#m83f5e85b79" y="164.052"/>
    </g>
   </g>
   <g id="line2d_21">
    <path clip-path="url(#pd47db30da1)" d="M 91.44 168.588 
L 117.36 168.588 
" style="fill:none;stroke:#000000;stroke-linecap:square;"/>
   </g>
   <g id="line2d_22">
    <path clip-path="url(#pd47db30da1)" d="M 134.64 159.516 
L 160.56 159.516 
" style="fill:none;stroke:#000000;stroke-linecap:square;"/>
   </g>
   <g id="line2d_23">
    <path clip-path="url(#pd47db30da1)" d="M 177.84 164.052 
L 203.76 164.052 
" style="fill:none;stroke:#000000;stroke-linecap:square;"/>
   </g>
  </g>
 </g>
 <defs>
  <clipPath id="pd47db30da1">
   <rect height="211.68" width="151.2" x="72" y="30.24"/>
  </clipPath>
 </defs>
</svg>
