<?xml version="1.0" encoding="utf-8" standalone="no"?>
<!DOCTYPE svg PUBLIC "-//W3C//DTD SVG 1.1//EN"
  "http://www.w3.org/Graphics/SVG/1.1/DTD/svg11.dtd">
<!-- Created with matplotlib (https://matplotlib.org/) -->
<svg height="302.4pt" version="1.1" viewBox="0 0 295.2 302.4" width="295.2pt" xmlns="http://www.w3.org/2000/svg" xmlns:xlink="http://www.w3.org/1999/xlink">
 <metadata>
  <rdf:RDF xmlns:cc="http://creativecommons.org/ns#" xmlns:dc="http://purl.org/dc/elements/1.1/" xmlns:rdf="http://www.w3.org/1999/02/22-rdf-syntax-ns#">
   <cc:Work>
    <dc:type rdf:resource="http://purl.org/dc/dcmitype/StillImage"/>
    <dc:date>2021-12-19T14:24:07.245138</dc:date>
    <dc:format>image/svg+xml</dc:format>
    <dc:creator>
     <cc:Agent>
      <dc:title>Matplotlib v3.3.4, https://matplotlib.org/</dc:title>
     </cc:Agent>
    </dc:creator>
   </cc:Work>
  </rdf:RDF>
 </metadata>
 <defs>
  <style type="text/css">*{stroke-linecap:butt;stroke-linejoin:round;}</style>
 </defs>
 <g id="figure_1">
  <g id="patch_1">
   <path d="M 0 302.4 
L 295.2 302.4 
L 295.2 0 
L 0 0 
z
" style="fill:#ffffff;"/>
  </g>
  <g id="axes_1">
   <g id="patch_2">
    <path d="M 72 241.92 
L 223.2 241.92 
L 223.2 30.24 
L 72 30.24 
z
" style="fill:#ffffff;"/>
   </g>
   <g id="matplotlib.axis_1">
    <g id="xtick_1">
     <g id="text_1">
      <!-- 1.5 -->
      <g transform="translate(86.69679 272.962589)rotate(-45)scale(0.18 -0.18)">
       <defs>
        <path d="M 28.40625 67 
L 26.5 67 
C 21.09375 61.5625 14.796875 60.78125 8.40625 60.78125 
L 8.40625 55 
C 11.296875 55 16 55 20.703125 57.296875 
L 20.703125 5.765625 
L 8.90625 5.765625 
L 8.90625 0 
L 40.203125 0 
L 40.203125 5.765625 
L 28.40625 5.765625 
z
" id="CMSS17-49"/>
        <path d="M 17 7.96875 
L 9 7.96875 
L 9 0 
L 17 0 
z
" id="CMSS17-46"/>
        <path d="M 14.59375 58.625 
L 39.09375 58.625 
L 39.09375 65 
L 7.296875 65 
L 7.296875 27.828125 
L 14 27.828125 
C 15.796875 31.96875 19.5 35 24.296875 35 
C 28.796875 35 33.796875 31.078125 33.796875 19.78125 
C 33.796875 7.703125 26.703125 4.171875 21.5 4.171875 
C 15.09375 4.171875 9.203125 8 6.59375 13.296875 
L 3.40625 7.796875 
C 8 0.765625 15.5 -2 21.5 -2 
C 33.09375 -2 42.203125 7.765625 42.203125 19.578125 
C 42.203125 31.71875 34.09375 41.078125 24.40625 41.078125 
C 20.90625 41.078125 17.5 39.890625 14.59375 37.484375 
z
" id="CMSS17-53"/>
       </defs>
       <use transform="scale(0.996264)" xlink:href="#CMSS17-49"/>
       <use transform="translate(46.843624 0)scale(0.996264)" xlink:href="#CMSS17-46"/>
       <use transform="translate(72.867828 0)scale(0.996264)" xlink:href="#CMSS17-53"/>
      </g>
     </g>
    </g>
    <g id="xtick_2">
     <g id="text_2">
      <!-- 3.0 -->
      <g transform="translate(129.89679 272.962589)rotate(-45)scale(0.18 -0.18)">
       <defs>
        <path d="M 15.703125 31.640625 
L 22.5 31.640625 
C 31.90625 31.640625 34.59375 23.546875 34.59375 17.90625 
C 34.59375 10.203125 30.203125 4.171875 23 4.171875 
C 17.40625 4.171875 9.5 6.9375 5 14.25 
C 4.296875 10.796875 4.296875 10.59375 3.90625 8.21875 
C 8.59375 1.375 16.203125 -2 23.203125 -2 
C 34.59375 -2 43 7.390625 43 17.78125 
C 43 25.59375 37.5 32.140625 30 34.609375 
C 36 37.875 40.40625 44 40.40625 51.140625 
C 40.40625 59.453125 32.703125 66.078125 23.296875 66.078125 
C 14.703125 66.078125 8 60.8125 5.203125 55.15625 
C 5.90625 54.1875 7.703125 51.3125 8.59375 49.828125 
C 10.796875 55.65625 16.5 60 23.203125 60 
C 28.796875 60 32.5 56.359375 32.5 51.109375 
C 32.5 45.671875 29 39.734375 23.09375 38.359375 
C 22.703125 38.359375 16.5 37.765625 15.703125 37.671875 
z
" id="CMSS17-51"/>
        <path d="M 43.09375 31.9375 
C 43.09375 37.578125 43 48.078125 38.90625 56.1875 
C 34.796875 64 28.203125 66.078125 23.5 66.078125 
C 16.703125 66.078125 10.90625 62.109375 7.90625 55.78125 
C 4.703125 49.15625 3.796875 42.328125 3.796875 31.9375 
C 3.796875 24.828125 4.09375 16.109375 7.703125 8.484375 
C 11.796875 0.078125 18.703125 -2 23.40625 -2 
C 29.59375 -2 35.59375 1.265625 39 8.09375 
C 42.5 15.21875 43.09375 23.03125 43.09375 31.9375 
z
M 23.40625 4.078125 
C 15.796875 4.078125 13.5 12.671875 12.796875 15.546875 
C 11.59375 20.46875 11.40625 25.21875 11.40625 33.03125 
C 11.40625 39.15625 11.40625 46.0625 13.296875 51.515625 
C 15.59375 57.828125 19.59375 60 23.40625 60 
C 30.796875 60 33.203125 52.6875 34 50.125 
C 35.5 44.890625 35.5 38.765625 35.5 33.03125 
C 35.5 23.84375 35.5 4.078125 23.40625 4.078125 
z
" id="CMSS17-48"/>
       </defs>
       <use transform="scale(0.996264)" xlink:href="#CMSS17-51"/>
       <use transform="translate(46.843624 0)scale(0.996264)" xlink:href="#CMSS17-46"/>
       <use transform="translate(72.867828 0)scale(0.996264)" xlink:href="#CMSS17-48"/>
      </g>
     </g>
    </g>
    <g id="xtick_3">
     <g id="text_3">
      <!-- 8.0 -->
      <g transform="translate(173.09679 272.962589)rotate(-45)scale(0.18 -0.18)">
       <defs>
        <path d="M 30.203125 34.71875 
C 37.796875 37.1875 41.703125 43.125 41.703125 48.96875 
C 41.703125 58.15625 33.703125 66.078125 23.5 66.078125 
C 12.90625 66.078125 5.203125 57.9375 5.203125 49.125 
C 5.203125 43.4375 9 37.546875 16.703125 35.015625 
C 6.90625 31.203125 3.90625 23.625 3.90625 17.953125 
C 3.90625 6.96875 12.796875 -2 23.40625 -2 
C 34.40625 -2 43 7.109375 43 17.78125 
C 43 24.328125 39.09375 31.25 30.203125 34.71875 
z
M 23.5 38 
C 16.796875 38 12.296875 42.375 12.296875 49 
C 12.296875 55.71875 16.796875 60 23.5 60 
C 29.703125 60 34.59375 56.109375 34.59375 49 
C 34.59375 41.984375 29.796875 38 23.5 38 
z
M 23.5 4.171875 
C 17.796875 4.171875 11.703125 8.078125 11.703125 18.0625 
C 11.703125 28.328125 18.5 31.921875 23.40625 31.921875 
C 28.796875 31.921875 35.203125 28.125 35.203125 18.0625 
C 35.203125 7.671875 28.59375 4.171875 23.5 4.171875 
z
" id="CMSS17-56"/>
       </defs>
       <use transform="scale(0.996264)" xlink:href="#CMSS17-56"/>
       <use transform="translate(46.843624 0)scale(0.996264)" xlink:href="#CMSS17-46"/>
       <use transform="translate(72.867828 0)scale(0.996264)" xlink:href="#CMSS17-48"/>
      </g>
     </g>
    </g>
   </g>
   <g id="matplotlib.axis_2">
    <g id="ytick_1">
     <g id="line2d_1">
      <path clip-path="url(#p4554164d05)" d="M 72 241.92 
L 223.2 241.92 
" style="fill:none;stroke:#b0b0b0;stroke-linecap:square;stroke-opacity:0.6;stroke-width:0.7;"/>
     </g>
     <g id="line2d_2">
      <defs>
       <path d="M 0 0 
L -3.5 0 
" id="m27c0c166cd" style="stroke:#000000;stroke-width:0.8;"/>
      </defs>
      <g>
       <use style="stroke:#000000;stroke-width:0.8;" x="72" xlink:href="#m27c0c166cd" y="241.92"/>
      </g>
     </g>
     <g id="text_4">
      <!-- 0 -->
      <g transform="translate(57.927644 246.935904)scale(0.145 -0.145)">
       <use transform="scale(0.996264)" xlink:href="#CMSS17-48"/>
      </g>
     </g>
    </g>
    <g id="ytick_2">
     <g id="line2d_3">
      <path clip-path="url(#p4554164d05)" d="M 72 189 
L 223.2 189 
" style="fill:none;stroke:#b0b0b0;stroke-linecap:square;stroke-opacity:0.6;stroke-width:0.7;"/>
     </g>
     <g id="line2d_4">
      <g>
       <use style="stroke:#000000;stroke-width:0.8;" x="72" xlink:href="#m27c0c166cd" y="189"/>
      </g>
     </g>
     <g id="text_5">
      <!-- 10 -->
      <g transform="translate(50.855289 194.015904)scale(0.145 -0.145)">
       <use transform="scale(0.996264)" xlink:href="#CMSS17-49"/>
       <use transform="translate(46.843624 0)scale(0.996264)" xlink:href="#CMSS17-48"/>
      </g>
     </g>
    </g>
    <g id="ytick_3">
     <g id="line2d_5">
      <path clip-path="url(#p4554164d05)" d="M 72 136.08 
L 223.2 136.08 
" style="fill:none;stroke:#b0b0b0;stroke-linecap:square;stroke-opacity:0.6;stroke-width:0.7;"/>
     </g>
     <g id="line2d_6">
      <g>
       <use style="stroke:#000000;stroke-width:0.8;" x="72" xlink:href="#m27c0c166cd" y="136.08"/>
      </g>
     </g>
     <g id="text_6">
      <!-- 20 -->
      <g transform="translate(50.855289 141.095904)scale(0.145 -0.145)">
       <defs>
        <path d="M 25.796875 21.203125 
C 28.59375 24.078125 32.796875 27.5625 35.703125 31.046875 
C 38.5 34.4375 42.203125 39.234375 42.203125 46.203125 
C 42.203125 57.140625 34.796875 67 22.203125 67 
C 12.296875 67 6.59375 60.828125 3.90625 51.15625 
C 4.90625 49.765625 6.40625 47.765625 7.796875 45.765625 
C 10 54.84375 13.09375 60.625 20.90625 60.625 
C 29.5 60.625 34.296875 53.640625 34.296875 45.96875 
C 34.296875 36.796875 27.296875 29.703125 22 24.421875 
C 16.09375 18.546875 10.296875 12.5625 4.703125 6.375 
L 4.703125 0 
L 42.203125 0 
L 42.203125 6.765625 
L 25.203125 6.765625 
C 24 6.765625 22.796875 6.765625 21.59375 6.765625 
L 11.59375 6.765625 
L 11.59375 6.859375 
z
" id="CMSS17-50"/>
       </defs>
       <use transform="scale(0.996264)" xlink:href="#CMSS17-50"/>
       <use transform="translate(46.843624 0)scale(0.996264)" xlink:href="#CMSS17-48"/>
      </g>
     </g>
    </g>
    <g id="ytick_4">
     <g id="line2d_7">
      <path clip-path="url(#p4554164d05)" d="M 72 83.16 
L 223.2 83.16 
" style="fill:none;stroke:#b0b0b0;stroke-linecap:square;stroke-opacity:0.6;stroke-width:0.7;"/>
     </g>
     <g id="line2d_8">
      <g>
       <use style="stroke:#000000;stroke-width:0.8;" x="72" xlink:href="#m27c0c166cd" y="83.16"/>
      </g>
     </g>
     <g id="text_7">
      <!-- 30 -->
      <g transform="translate(50.855289 88.175904)scale(0.145 -0.145)">
       <use transform="scale(0.996264)" xlink:href="#CMSS17-51"/>
       <use transform="translate(46.843624 0)scale(0.996264)" xlink:href="#CMSS17-48"/>
      </g>
     </g>
    </g>
    <g id="text_8">
     <!-- n axons stagnating -->
     <g transform="translate(43.367225 202.252082)rotate(-90)scale(0.18 -0.18)">
      <defs>
       <path d="M 40.90625 29.328125 
C 40.90625 35.671875 39.40625 44 28.09375 44 
C 21.703125 44 17.5 40.71875 14.703125 37.328125 
L 14.703125 43.09375 
L 7.40625 43.09375 
L 7.40625 0 
L 15 0 
L 15 24.359375 
C 15 30.6875 17.40625 37.9375 24.203125 37.9375 
C 33 37.9375 33.296875 32 33.296875 28.578125 
L 33.296875 0 
L 40.90625 0 
z
" id="CMSS17-110"/>
       <path d="M 37.59375 27.984375 
C 37.59375 37.375 30.90625 43.875 21.90625 43.875 
C 17.5 43.875 12.703125 43.078125 7.203125 39.890625 
L 7.796875 33.359375 
C 10.296875 35.125 14.59375 38 21.796875 38 
C 26.90625 38 30 34.0625 30 27.84375 
L 30 24 
C 14 24 4 19.34375 4 11.34375 
C 4 7.203125 6.5 -1 14.796875 -1 
C 16.296875 -1 24.40625 -1 30.203125 3.390625 
L 30.203125 -0.296875 
L 37.59375 -0.296875 
z
M 30 12.75 
C 30 10.953125 30 8.5625 27 6.78125 
C 24.40625 5.078125 21.09375 5.078125 19.703125 5.078125 
C 14.703125 5.078125 11.296875 7.984375 11.296875 11.625 
C 11.296875 18.921875 26.90625 18.921875 30 18.921875 
z
" id="CMSS17-97"/>
       <path d="M 24.796875 22.09375 
L 41.5 42.796875 
L 32.796875 42.796875 
L 21.296875 27.765625 
L 9.40625 42.796875 
L 0.5 42.796875 
L 17.796875 22.09375 
L 0 0 
L 8.796875 0 
L 21.296875 17.515625 
L 34.296875 0 
L 43.09375 0 
z
" id="CMSS17-120"/>
       <path d="M 44.203125 21.1875 
C 44.203125 34 34.703125 44 23.5 44 
C 12 44 2.703125 33.703125 2.703125 21.1875 
C 2.703125 8.5 12.296875 -1 23.40625 -1 
C 34.796875 -1 44.203125 8.796875 44.203125 21.1875 
z
M 23.5 5.265625 
C 16.40625 5.265625 10.296875 11.078125 10.296875 22 
C 10.296875 33.609375 17.40625 37.921875 23.40625 37.921875 
C 29.90625 37.921875 36.59375 33.21875 36.59375 22 
C 36.59375 10.671875 30.09375 5.265625 23.5 5.265625 
z
" id="CMSS17-111"/>
       <path d="M 32.203125 41.046875 
C 26.296875 43.859375 21.703125 43.859375 18.703125 43.859375 
C 11.59375 43.859375 3.09375 41.375 3.09375 31.296875 
C 3.09375 21.234375 14.09375 19.03125 17.09375 18.421875 
C 21.703125 17.53125 26.796875 16.53125 26.796875 11.5625 
C 26.796875 5.265625 19.59375 5.265625 18.296875 5.265625 
C 14.296875 5.265625 8.796875 6.359375 3.796875 9.96875 
L 2.59375 3.28125 
C 8.296875 0 13.796875 -1 18.40625 -1 
C 30.703125 -1 33.796875 6.5 33.796875 12.203125 
C 33.796875 17.09375 31 20.390625 29.09375 21.890625 
C 25.796875 24.5 24.59375 24.796875 16.40625 26.5 
C 15 26.703125 10.09375 27.796875 10.09375 32.28125 
C 10.09375 38 16.40625 38 17.796875 38 
C 24.296875 38 28.296875 35.984375 31 34.5 
z
" id="CMSS17-115"/>
       <path d="M 16.703125 37 
L 29.703125 37 
L 29.703125 42.765625 
L 16.703125 42.765625 
L 16.703125 55 
L 9.59375 55 
L 9.59375 42.765625 
L 1.703125 42.765625 
L 1.703125 37 
L 9.40625 37 
L 9.40625 11.703125 
C 9.40625 6 10.703125 -1 17.296875 -1 
C 22.296875 -1 26.90625 0.390625 31.296875 2.6875 
L 29.703125 8.5625 
C 27.296875 6.46875 24.40625 5.265625 21.296875 5.265625 
C 16.90625 5.265625 16.703125 10.875 16.703125 13.375 
z
" id="CMSS17-116"/>
       <path d="M 44.5 43.875 
C 38.796875 43.875 33.90625 42.78125 29.90625 40.890625 
C 26.59375 43.390625 23.203125 43.875 20.90625 43.875 
C 12.203125 43.875 5.59375 36.703125 5.59375 28.34375 
C 5.59375 22.9375 8.59375 18.859375 8.796875 18.671875 
C 7 16.171875 6 13.484375 6 10.5 
C 6 7 7.40625 4.515625 8.5 3.125 
C 3.296875 -0.046875 2.59375 -4.90625 2.59375 -6.796875 
C 2.59375 -14.03125 11.703125 -20 23.40625 -20 
C 35.203125 -20 44.296875 -14.03125 44.296875 -6.6875 
C 44.296875 7 29 7 24.796875 7 
L 16.703125 7 
C 15.203125 7 11.203125 7 11.203125 12.359375 
C 11.203125 14.390625 12.09375 15.6875 12.203125 15.78125 
C 13.703125 14.6875 16.796875 13 20.90625 13 
C 29.203125 13 36.09375 19.96875 36.09375 28.546875 
C 36.09375 33.3125 33.90625 36.796875 33 38 
L 33.296875 38 
C 33.59375 38 37.796875 38 39.296875 38 
C 42.5 38 42.796875 37.953125 45.59375 37.796875 
z
M 20.90625 18.46875 
C 17.5 18.46875 12.703125 20.546875 12.703125 28.484375 
C 12.703125 37.109375 18.203125 38.5 20.796875 38.5 
C 24.203125 38.5 29 36.421875 29 28.484375 
C 29 19.859375 23.5 18.46875 20.90625 18.46875 
z
M 24.703125 -0.15625 
C 27.09375 -0.15625 37.203125 -0.15625 37.203125 -6.90625 
C 37.203125 -11.15625 31 -14.515625 23.5 -14.515625 
C 15.90625 -14.515625 9.703125 -11.25 9.703125 -6.796875 
C 9.703125 -6.296875 9.703125 -0.15625 16.59375 -0.15625 
z
" id="CMSS17-103"/>
       <path d="M 15.296875 65.359375 
L 6.90625 65.359375 
L 6.90625 57 
L 15.296875 57 
z
M 14.796875 42.796875 
L 7.40625 42.796875 
L 7.40625 0 
L 14.796875 0 
z
" id="CMSS17-105"/>
      </defs>
      <use transform="scale(0.996264)" xlink:href="#CMSS17-110"/>
      <use transform="translate(79.434056 0)scale(0.996264)" xlink:href="#CMSS17-97"/>
      <use transform="translate(124.355976 0)scale(0.996264)" xlink:href="#CMSS17-120"/>
      <use transform="translate(167.356118 0)scale(0.996264)" xlink:href="#CMSS17-111"/>
      <use transform="translate(214.199742 0)scale(0.996264)" xlink:href="#CMSS17-110"/>
      <use transform="translate(262.404685 0)scale(0.996264)" xlink:href="#CMSS17-115"/>
      <use transform="translate(329.54734 0)scale(0.996264)" xlink:href="#CMSS17-115"/>
      <use transform="translate(365.460882 0)scale(0.996264)" xlink:href="#CMSS17-116"/>
      <use transform="translate(399.292448 0)scale(0.996264)" xlink:href="#CMSS17-97"/>
      <use transform="translate(444.214369 0)scale(0.996264)" xlink:href="#CMSS17-103"/>
      <use transform="translate(491.057992 0)scale(0.996264)" xlink:href="#CMSS17-110"/>
      <use transform="translate(539.262936 0)scale(0.996264)" xlink:href="#CMSS17-97"/>
      <use transform="translate(584.184856 0)scale(0.996264)" xlink:href="#CMSS17-116"/>
      <use transform="translate(618.016423 0)scale(0.996264)" xlink:href="#CMSS17-105"/>
      <use transform="translate(640.197146 0)scale(0.996264)" xlink:href="#CMSS17-110"/>
      <use transform="translate(688.402089 0)scale(0.996264)" xlink:href="#CMSS17-103"/>
     </g>
    </g>
   </g>
   <g id="line2d_9">
    <path clip-path="url(#p4554164d05)" d="M 104.4 233.982 
L 104.4 233.982 
" style="fill:none;stroke:#000000;stroke-linecap:square;stroke-opacity:0.7;"/>
   </g>
   <g id="line2d_10">
    <path clip-path="url(#p4554164d05)" d="M 104.4 231.336 
L 104.4 231.336 
" style="fill:none;stroke:#000000;stroke-linecap:square;stroke-opacity:0.7;"/>
   </g>
   <g id="line2d_11">
    <path clip-path="url(#p4554164d05)" d="M 97.92 233.982 
L 110.88 233.982 
" style="fill:none;stroke:#000000;stroke-linecap:square;stroke-opacity:0.7;"/>
   </g>
   <g id="line2d_12">
    <path clip-path="url(#p4554164d05)" d="M 97.92 231.336 
L 110.88 231.336 
" style="fill:none;stroke:#000000;stroke-linecap:square;stroke-opacity:0.7;"/>
   </g>
   <g id="line2d_13">
    <path clip-path="url(#p4554164d05)" d="M 147.6 228.69 
L 147.6 228.69 
" style="fill:none;stroke:#000000;stroke-linecap:square;stroke-opacity:0.7;"/>
   </g>
   <g id="line2d_14">
    <path clip-path="url(#p4554164d05)" d="M 147.6 224.721 
L 147.6 220.752 
" style="fill:none;stroke:#000000;stroke-linecap:square;stroke-opacity:0.7;"/>
   </g>
   <g id="line2d_15">
    <path clip-path="url(#p4554164d05)" d="M 141.12 228.69 
L 154.08 228.69 
" style="fill:none;stroke:#000000;stroke-linecap:square;stroke-opacity:0.7;"/>
   </g>
   <g id="line2d_16">
    <path clip-path="url(#p4554164d05)" d="M 141.12 220.752 
L 154.08 220.752 
" style="fill:none;stroke:#000000;stroke-linecap:square;stroke-opacity:0.7;"/>
   </g>
   <g id="line2d_17">
    <path clip-path="url(#p4554164d05)" d="M 190.8 199.584 
L 190.8 241.92 
" style="fill:none;stroke:#000000;stroke-linecap:square;stroke-opacity:0.7;"/>
   </g>
   <g id="line2d_18">
    <path clip-path="url(#p4554164d05)" d="M 190.8 153.279 
L 190.8 93.744 
" style="fill:none;stroke:#000000;stroke-linecap:square;stroke-opacity:0.7;"/>
   </g>
   <g id="line2d_19">
    <path clip-path="url(#p4554164d05)" d="M 184.32 241.92 
L 197.28 241.92 
" style="fill:none;stroke:#000000;stroke-linecap:square;stroke-opacity:0.7;"/>
   </g>
   <g id="line2d_20">
    <path clip-path="url(#p4554164d05)" d="M 184.32 93.744 
L 197.28 93.744 
" style="fill:none;stroke:#000000;stroke-linecap:square;stroke-opacity:0.7;"/>
   </g>
   <g id="patch_3">
    <path d="M 72 241.92 
L 72 30.24 
" style="fill:none;stroke:#000000;stroke-linecap:square;stroke-linejoin:miter;stroke-width:0.8;"/>
   </g>
   <g id="patch_4">
    <path d="M 223.2 241.92 
L 223.2 30.24 
" style="fill:none;stroke:#000000;stroke-linecap:square;stroke-linejoin:miter;stroke-width:0.8;"/>
   </g>
   <g id="patch_5">
    <path d="M 72 241.92 
L 223.2 241.92 
" style="fill:none;stroke:#000000;stroke-linecap:square;stroke-linejoin:miter;stroke-width:0.8;"/>
   </g>
   <g id="patch_6">
    <path d="M 72 30.24 
L 223.2 30.24 
" style="fill:none;stroke:#000000;stroke-linecap:square;stroke-linejoin:miter;stroke-width:0.8;"/>
   </g>
   <g id="text_9">
    <!-- channel width [$\upmu$m] -->
    <g transform="translate(78.855176 24.24)scale(0.18 -0.18)">
     <defs>
      <path d="M 38.5 39.703125 
C 38.5 40.390625 33.90625 42.40625 32.703125 42.796875 
C 29.40625 44 25.203125 44 24.09375 44 
C 11.09375 44 3.296875 32.703125 3.296875 21.296875 
C 3.296875 9.296875 12 -1 23.703125 -1 
C 30.40625 -1 35.203125 1.1875 39.09375 3.78125 
L 38.5 10.375 
C 34.203125 7.078125 29.203125 5.265625 23.796875 5.265625 
C 16 5.265625 10.90625 12.09375 10.90625 21.390625 
C 10.90625 28.609375 14.203125 37.71875 24.203125 37.71875 
C 29.703125 37.71875 32.796875 36.609375 37.40625 33.515625 
z
" id="CMSS17-99"/>
      <path d="M 40.90625 29.546875 
C 40.90625 35.8125 39.40625 44.0625 28.09375 44.0625 
C 21.796875 44.0625 17.703125 40.984375 14.796875 37.609375 
L 14.796875 69.5 
L 7.40625 69.5 
L 7.40625 0.5 
L 15 0.5 
L 15 24.578125 
C 15 30.828125 17.40625 38 24.203125 38 
C 33 38 33.296875 32.125 33.296875 28.734375 
L 33.296875 0.5 
L 40.90625 0.5 
z
" id="CMSS17-104"/>
      <path d="M 39.09375 21.515625 
C 39.09375 24.84375 38.90625 31.296875 35.703125 36.640625 
C 32.203125 42.390625 26.5 44 22.203125 44 
C 11.796875 44 3 34.1875 3 21.484375 
C 3 9.09375 12.09375 -1 23.59375 -1 
C 28.09375 -1 33.59375 0.296875 38.59375 3.875 
C 38.59375 4.28125 38.40625 6.46875 38.296875 6.5625 
C 38.296875 6.765625 38 9.84375 38 10.25 
C 33.203125 6.359375 27.703125 5.078125 23.703125 5.078125 
C 17.296875 5.078125 10.40625 10.421875 10.09375 21.515625 
z
M 10.90625 27 
C 12.203125 32.5625 16.59375 37.828125 22.203125 37.828125 
C 23.703125 37.828125 30.703125 37.828125 32.5 27 
z
" id="CMSS17-101"/>
      <path d="M 14.796875 69 
L 7.40625 69 
L 7.40625 0 
L 14.796875 0 
z
" id="CMSS17-108"/>
      <path d="M 62.703125 43 
L 55.09375 43 
L 49.796875 25.015625 
C 48.703125 21.21875 45.59375 10.703125 45.203125 5.796875 
L 45.09375 5.796875 
C 44.90625 8.8125 43.203125 16 40.40625 25.515625 
L 35.296875 43 
L 28.40625 43 
L 23.40625 25.90625 
C 20.90625 17.203125 19 9.796875 18.796875 5.796875 
L 18.703125 5.796875 
C 18.296875 11.703125 14.203125 25.515625 13.59375 27.703125 
L 9.09375 43 
L 1.296875 43 
L 14.296875 0 
L 21.90625 0 
C 27.09375 17.125 31.09375 30.359375 31.40625 37.03125 
C 31.59375 33.75 33.296875 26.671875 34.296875 23.1875 
L 40.90625 0 
L 49.703125 0 
z
" id="CMSS17-119"/>
      <path d="M 40.796875 69 
L 33.40625 69 
L 33.40625 38.09375 
C 30.296875 40.671875 25.203125 43.0625 19.59375 43.0625 
C 10.5 43.0625 3.296875 33.296875 3.296875 21.046875 
C 3.296875 8.78125 10.40625 -1 19.296875 -1 
C 26.203125 -1 30.796875 2.6875 33.203125 4.78125 
L 33.203125 -0.203125 
L 40.796875 -0.203125 
z
M 33.203125 13.0625 
C 33.203125 11.671875 33.203125 10.203125 30.09375 7.53125 
C 28.09375 5.859375 25.703125 5.078125 23.40625 5.078125 
C 18 5.078125 10.90625 9 10.90625 20.9375 
C 10.90625 33.34375 18.90625 37 24.40625 37 
C 28.09375 37 31.09375 35.21875 33.203125 32.265625 
z
" id="CMSS17-100"/>
      <path d="M 25.203125 -25 
L 25.203125 -18.9375 
L 16.59375 -18.9375 
L 16.59375 68 
L 25.203125 68 
L 25.203125 74.078125 
L 9.296875 74.078125 
L 9.296875 -25 
z
" id="CMSS17-91"/>
      <path d="M 48.5 46.75 
L 40.796875 43.5625 
C 41 37.90625 41.203125 32.234375 41.203125 26.46875 
C 41.203125 24.390625 41 17.125 40.90625 12.359375 
C 38.796875 10.625 36.59375 9.0625 34.09375 7.90625 
C 32.296875 6.9375 30.203125 6.265625 28.09375 6.265625 
C 26.09375 6.265625 23.796875 6.265625 22.296875 7.75 
C 19.296875 10.71875 18.796875 14.96875 18.796875 19.03125 
C 18.796875 27.921875 18.796875 36.84375 18.796875 45.65625 
L 17.90625 46.34375 
L 9.59375 43.765625 
C 9.59375 43.671875 11 32.9375 11.59375 27.46875 
C 11.59375 21.21875 11.59375 15 11.59375 8.75 
C 11.59375 -0.359375 11.40625 -9.46875 11.203125 -18.578125 
L 12.40625 -19.1875 
L 17.40625 -17.1875 
C 16 -10.71875 16 -3.65625 16 3.125 
C 17.5 1.375 19.59375 0 22.09375 0 
C 26.59375 0 34.5 4.28125 40.296875 7.5 
C 40.5 7.59375 40.703125 7.390625 40.90625 7.28125 
C 41.203125 7.171875 41.296875 6.96875 41.5 6.75 
C 41.796875 4.75 42.203125 2.640625 43.5 1.265625 
C 44.703125 0 46.59375 0 48.296875 0 
C 50.796875 0 53.09375 1.03125 55.203125 2.28125 
C 58.296875 3.921875 61 6.3125 63.5 8.6875 
L 62.09375 10.578125 
C 59.5 8.984375 56.40625 7 53.90625 7 
C 52.90625 7 51.796875 7.390625 51.09375 8.09375 
C 50.09375 8.984375 49.703125 10.28125 49.296875 11.46875 
C 48.90625 13.25 48.703125 15.046875 48.703125 16.828125 
C 48.703125 22.296875 48.703125 27.859375 48.703125 33.421875 
C 48.703125 36.515625 49 41.578125 49.296875 45.65625 
z
" id="EURM10-22"/>
      <path d="M 67 29.328125 
C 67 36.0625 65.296875 44 54.09375 44 
C 46.59375 44 42.09375 39.3125 40.09375 36.421875 
C 38.296875 41.71875 34.09375 44 28.09375 44 
C 21.296875 44 17 40.125 14.703125 37.328125 
L 14.703125 43.09375 
L 7.40625 43.09375 
L 7.40625 0 
L 15 0 
L 15 24.359375 
C 15 30.296875 17.203125 37.9375 24.296875 37.9375 
C 33.40625 37.9375 33.40625 31.5 33.40625 28.578125 
L 33.40625 0 
L 41 0 
L 41 24.359375 
C 41 30.296875 43.203125 37.9375 50.296875 37.9375 
C 59.40625 37.9375 59.40625 31.5 59.40625 28.578125 
L 59.40625 0 
L 67 0 
z
" id="CMSS17-109"/>
      <path d="M 17.90625 74.078125 
L 2 74.078125 
L 2 68 
L 10.59375 68 
L 10.59375 -18.9375 
L 2 -18.9375 
L 2 -25 
L 17.90625 -25 
z
" id="CMSS17-93"/>
     </defs>
     <use transform="scale(0.996264)" xlink:href="#CMSS17-99"/>
     <use transform="translate(41.638822 0)scale(0.996264)" xlink:href="#CMSS17-104"/>
     <use transform="translate(89.843765 0)scale(0.996264)" xlink:href="#CMSS17-97"/>
     <use transform="translate(134.765686 0)scale(0.996264)" xlink:href="#CMSS17-110"/>
     <use transform="translate(182.970629 0)scale(0.996264)" xlink:href="#CMSS17-110"/>
     <use transform="translate(231.175572 0)scale(0.996264)" xlink:href="#CMSS17-101"/>
     <use transform="translate(272.814394 0)scale(0.996264)" xlink:href="#CMSS17-108"/>
     <use transform="translate(326.22423 0)scale(0.996264)" xlink:href="#CMSS17-119"/>
     <use transform="translate(390.043775 0)scale(0.996264)" xlink:href="#CMSS17-105"/>
     <use transform="translate(412.224498 0)scale(0.996264)" xlink:href="#CMSS17-100"/>
     <use transform="translate(460.429441 0)scale(0.996264)" xlink:href="#CMSS17-116"/>
     <use transform="translate(494.261008 0)scale(0.996264)" xlink:href="#CMSS17-104"/>
     <use transform="translate(573.695064 0)scale(0.996264)" xlink:href="#CMSS17-91"/>
     <use transform="translate(600.880502 0)scale(0.996264)" xlink:href="#EURM10-22"/>
     <use transform="translate(662.41712 0)scale(0.996264)" xlink:href="#CMSS17-109"/>
     <use transform="translate(736.646374 0)scale(0.996264)" xlink:href="#CMSS17-93"/>
    </g>
   </g>
   <g id="patch_7">
    <path clip-path="url(#p4554164d05)" d="M 91.44 233.982 
L 117.36 233.982 
L 117.36 231.336 
L 91.44 231.336 
L 91.44 233.982 
z
" style="fill:#9c9ede;stroke:#9c9ede;stroke-linejoin:miter;"/>
   </g>
   <g id="patch_8">
    <path clip-path="url(#p4554164d05)" d="M 134.64 228.69 
L 160.56 228.69 
L 160.56 224.721 
L 134.64 224.721 
L 134.64 228.69 
z
" style="fill:#6b6ecf;stroke:#6b6ecf;stroke-linejoin:miter;"/>
   </g>
   <g id="patch_9">
    <path clip-path="url(#p4554164d05)" d="M 177.84 199.584 
L 203.76 199.584 
L 203.76 153.279 
L 177.84 153.279 
L 177.84 199.584 
z
" style="fill:#5254a3;stroke:#5254a3;stroke-linejoin:miter;"/>
   </g>
   <g id="patch_10">
    <path clip-path="url(#p4554164d05)" d="M 177.84 199.584 
L 177.84 156.9099 
L 203.76 154.7931 
L 203.76 199.584 
z
" style="fill:#de9ed6;stroke:#de9ed6;stroke-linejoin:miter;"/>
   </g>
   <g id="patch_11">
    <path clip-path="url(#p4554164d05)" d="M 177.84 199.584 
L 177.84 159.4824 
L 203.76 157.3656 
L 203.76 199.584 
z
" style="fill:#cedb9c;stroke:#cedb9c;stroke-linejoin:miter;"/>
   </g>
   <g id="patch_12">
    <path clip-path="url(#p4554164d05)" d="M 177.84 199.584 
L 177.84 162.0549 
L 203.76 159.9381 
L 203.76 199.584 
z
" style="fill:#393b79;stroke:#393b79;stroke-linejoin:miter;"/>
   </g>
   <g id="patch_13">
    <path clip-path="url(#p4554164d05)" d="M 177.84 199.584 
L 177.84 164.6274 
L 203.76 162.5106 
L 203.76 199.584 
z
" style="fill:#ce6dbd;stroke:#ce6dbd;stroke-linejoin:miter;"/>
   </g>
   <g id="patch_14">
    <path clip-path="url(#p4554164d05)" d="M 177.84 199.584 
L 177.84 167.1999 
L 203.76 165.0831 
L 203.76 199.584 
z
" style="fill:#a55194;stroke:#a55194;stroke-linejoin:miter;"/>
   </g>
   <g id="patch_15">
    <path clip-path="url(#p4554164d05)" d="M 177.84 199.584 
L 177.84 169.7724 
L 203.76 167.6556 
L 203.76 199.584 
z
" style="fill:#7b4173;stroke:#7b4173;stroke-linejoin:miter;"/>
   </g>
   <g id="patch_16">
    <path clip-path="url(#p4554164d05)" d="M 177.84 199.584 
L 177.84 172.3449 
L 203.76 170.2281 
L 203.76 199.584 
z
" style="fill:#e7969c;stroke:#e7969c;stroke-linejoin:miter;"/>
   </g>
   <g id="patch_17">
    <path clip-path="url(#p4554164d05)" d="M 177.84 199.584 
L 177.84 174.9174 
L 203.76 172.8006 
L 203.76 199.584 
z
" style="fill:#d6616b;stroke:#d6616b;stroke-linejoin:miter;"/>
   </g>
   <g id="patch_18">
    <path clip-path="url(#p4554164d05)" d="M 177.84 199.584 
L 177.84 177.4899 
L 203.76 175.3731 
L 203.76 199.584 
z
" style="fill:#ad494a;stroke:#ad494a;stroke-linejoin:miter;"/>
   </g>
   <g id="patch_19">
    <path clip-path="url(#p4554164d05)" d="M 177.84 199.584 
L 177.84 180.0624 
L 203.76 177.9456 
L 203.76 199.584 
z
" style="fill:#843c39;stroke:#843c39;stroke-linejoin:miter;"/>
   </g>
   <g id="patch_20">
    <path clip-path="url(#p4554164d05)" d="M 177.84 199.584 
L 177.84 182.6349 
L 203.76 180.5181 
L 203.76 199.584 
z
" style="fill:#e7cb94;stroke:#e7cb94;stroke-linejoin:miter;"/>
   </g>
   <g id="patch_21">
    <path clip-path="url(#p4554164d05)" d="M 177.84 199.584 
L 177.84 185.2074 
L 203.76 183.0906 
L 203.76 199.584 
z
" style="fill:#e7ba52;stroke:#e7ba52;stroke-linejoin:miter;"/>
   </g>
   <g id="patch_22">
    <path clip-path="url(#p4554164d05)" d="M 177.84 199.584 
L 177.84 187.7799 
L 203.76 185.6631 
L 203.76 199.584 
z
" style="fill:#bd9e39;stroke:#bd9e39;stroke-linejoin:miter;"/>
   </g>
   <g id="patch_23">
    <path clip-path="url(#p4554164d05)" d="M 177.84 199.584 
L 177.84 190.3524 
L 203.76 188.2356 
L 203.76 199.584 
z
" style="fill:#8c6d31;stroke:#8c6d31;stroke-linejoin:miter;"/>
   </g>
   <g id="patch_24">
    <path clip-path="url(#p4554164d05)" d="M 177.84 199.584 
L 177.84 192.9249 
L 203.76 190.8081 
L 203.76 199.584 
z
" style="fill:#b5cf6b;stroke:#b5cf6b;stroke-linejoin:miter;"/>
   </g>
   <g id="patch_25">
    <path clip-path="url(#p4554164d05)" d="M 177.84 199.584 
L 177.84 195.4974 
L 203.76 193.3806 
L 203.76 199.584 
z
" style="fill:#8ca252;stroke:#8ca252;stroke-linejoin:miter;"/>
   </g>
   <g id="patch_26">
    <path clip-path="url(#p4554164d05)" d="M 177.84 199.584 
L 177.84 198.0699 
L 203.76 195.9531 
L 203.76 199.584 
z
" style="fill:#637939;stroke:#637939;stroke-linejoin:miter;"/>
   </g>
   <g id="PathCollection_1">
    <defs>
     <path d="M 0 1.369306 
C 0.363144 1.369306 0.711464 1.225028 0.968246 0.968246 
C 1.225028 0.711464 1.369306 0.363144 1.369306 0 
C 1.369306 -0.363144 1.225028 -0.711464 0.968246 -0.968246 
C 0.711464 -1.225028 0.363144 -1.369306 0 -1.369306 
C -0.363144 -1.369306 -0.711464 -1.225028 -0.968246 -0.968246 
C -1.225028 -0.711464 -1.369306 -0.363144 -1.369306 0 
C -1.369306 0.363144 -1.225028 0.711464 -0.968246 0.968246 
C -0.711464 1.225028 -0.363144 1.369306 0 1.369306 
z
" id="mb07a7f7202" style="stroke:#000000;stroke-opacity:0.4;stroke-width:1.4;"/>
    </defs>
    <g>
     <use style="fill-opacity:0.4;stroke:#000000;stroke-opacity:0.4;stroke-width:1.4;" x="104.766428" xlink:href="#mb07a7f7202" y="231.336"/>
     <use style="fill-opacity:0.4;stroke:#000000;stroke-opacity:0.4;stroke-width:1.4;" x="105.59885" xlink:href="#mb07a7f7202" y="231.336"/>
     <use style="fill-opacity:0.4;stroke:#000000;stroke-opacity:0.4;stroke-width:1.4;" x="102.100503" xlink:href="#mb07a7f7202" y="241.92"/>
     <use style="fill-opacity:0.4;stroke:#000000;stroke-opacity:0.4;stroke-width:1.4;" x="106.178766" xlink:href="#mb07a7f7202" y="231.336"/>
    </g>
   </g>
   <g id="PathCollection_2">
    <g>
     <use style="fill-opacity:0.4;stroke:#000000;stroke-opacity:0.4;stroke-width:1.4;" x="148.12643" xlink:href="#mb07a7f7202" y="220.752"/>
     <use style="fill-opacity:0.4;stroke:#000000;stroke-opacity:0.4;stroke-width:1.4;" x="146.954144" xlink:href="#mb07a7f7202" y="236.628"/>
     <use style="fill-opacity:0.4;stroke:#000000;stroke-opacity:0.4;stroke-width:1.4;" x="148.584102" xlink:href="#mb07a7f7202" y="226.044"/>
     <use style="fill-opacity:0.4;stroke:#000000;stroke-opacity:0.4;stroke-width:1.4;" x="151.131382" xlink:href="#mb07a7f7202" y="226.044"/>
    </g>
   </g>
   <g id="PathCollection_3">
    <g>
     <use style="fill-opacity:0.4;stroke:#000000;stroke-opacity:0.4;stroke-width:1.4;" x="191.082838" xlink:href="#mb07a7f7202" y="194.292"/>
     <use style="fill-opacity:0.4;stroke:#000000;stroke-opacity:0.4;stroke-width:1.4;" x="191.186033" xlink:href="#mb07a7f7202" y="194.292"/>
     <use style="fill-opacity:0.4;stroke:#000000;stroke-opacity:0.4;stroke-width:1.4;" x="190.085602" xlink:href="#mb07a7f7202" y="199.584"/>
     <use style="fill-opacity:0.4;stroke:#000000;stroke-opacity:0.4;stroke-width:1.4;" x="189.478322" xlink:href="#mb07a7f7202" y="194.292"/>
     <use style="fill-opacity:0.4;stroke:#000000;stroke-opacity:0.4;stroke-width:1.4;" x="192.091338" xlink:href="#mb07a7f7202" y="194.292"/>
     <use style="fill-opacity:0.4;stroke:#000000;stroke-opacity:0.4;stroke-width:1.4;" x="189.468618" xlink:href="#mb07a7f7202" y="173.124"/>
     <use style="fill-opacity:0.4;stroke:#000000;stroke-opacity:0.4;stroke-width:1.4;" x="190.9113" xlink:href="#mb07a7f7202" y="136.08"/>
     <use style="fill-opacity:0.4;stroke:#000000;stroke-opacity:0.4;stroke-width:1.4;" x="190.057147" xlink:href="#mb07a7f7202" y="215.46"/>
     <use style="fill-opacity:0.4;stroke:#000000;stroke-opacity:0.4;stroke-width:1.4;" x="191.544909" xlink:href="#mb07a7f7202" y="194.292"/>
     <use style="fill-opacity:0.4;stroke:#000000;stroke-opacity:0.4;stroke-width:1.4;" x="191.318911" xlink:href="#mb07a7f7202" y="210.168"/>
     <use style="fill-opacity:0.4;stroke:#000000;stroke-opacity:0.4;stroke-width:1.4;" x="192.413582" xlink:href="#mb07a7f7202" y="204.876"/>
     <use style="fill-opacity:0.4;stroke:#000000;stroke-opacity:0.4;stroke-width:1.4;" x="190.006822" xlink:href="#mb07a7f7202" y="199.584"/>
     <use style="fill-opacity:0.4;stroke:#000000;stroke-opacity:0.4;stroke-width:1.4;" x="190.380291" xlink:href="#mb07a7f7202" y="226.044"/>
     <use style="fill-opacity:0.4;stroke:#000000;stroke-opacity:0.4;stroke-width:1.4;" x="189.277827" xlink:href="#mb07a7f7202" y="199.584"/>
     <use style="fill-opacity:0.4;stroke:#000000;stroke-opacity:0.4;stroke-width:1.4;" x="190.109035" xlink:href="#mb07a7f7202" y="215.46"/>
     <use style="fill-opacity:0.4;stroke:#000000;stroke-opacity:0.4;stroke-width:1.4;" x="191.386778" xlink:href="#mb07a7f7202" y="236.628"/>
     <use style="fill-opacity:0.4;stroke:#000000;stroke-opacity:0.4;stroke-width:1.4;" x="191.977269" xlink:href="#mb07a7f7202" y="204.876"/>
     <use style="fill-opacity:0.4;stroke:#000000;stroke-opacity:0.4;stroke-width:1.4;" x="189.365848" xlink:href="#mb07a7f7202" y="220.752"/>
     <use style="fill-opacity:0.4;stroke:#000000;stroke-opacity:0.4;stroke-width:1.4;" x="192.152411" xlink:href="#mb07a7f7202" y="162.54"/>
     <use style="fill-opacity:0.4;stroke:#000000;stroke-opacity:0.4;stroke-width:1.4;" x="192.908288" xlink:href="#mb07a7f7202" y="220.752"/>
     <use style="fill-opacity:0.4;stroke:#000000;stroke-opacity:0.4;stroke-width:1.4;" x="191.442974" xlink:href="#mb07a7f7202" y="189"/>
     <use style="fill-opacity:0.4;stroke:#000000;stroke-opacity:0.4;stroke-width:1.4;" x="193.718793" xlink:href="#mb07a7f7202" y="183.708"/>
     <use style="fill-opacity:0.4;stroke:#000000;stroke-opacity:0.4;stroke-width:1.4;" x="189.596603" xlink:href="#mb07a7f7202" y="162.54"/>
     <use style="fill-opacity:0.4;stroke:#000000;stroke-opacity:0.4;stroke-width:1.4;" x="188.864313" xlink:href="#mb07a7f7202" y="231.336"/>
     <use style="fill-opacity:0.4;stroke:#000000;stroke-opacity:0.4;stroke-width:1.4;" x="188.033734" xlink:href="#mb07a7f7202" y="220.752"/>
     <use style="fill-opacity:0.4;stroke:#000000;stroke-opacity:0.4;stroke-width:1.4;" x="193.126648" xlink:href="#mb07a7f7202" y="210.168"/>
     <use style="fill-opacity:0.4;stroke:#000000;stroke-opacity:0.4;stroke-width:1.4;" x="191.817669" xlink:href="#mb07a7f7202" y="178.416"/>
     <use style="fill-opacity:0.4;stroke:#000000;stroke-opacity:0.4;stroke-width:1.4;" x="190.713555" xlink:href="#mb07a7f7202" y="183.708"/>
     <use style="fill-opacity:0.4;stroke:#000000;stroke-opacity:0.4;stroke-width:1.4;" x="191.235407" xlink:href="#mb07a7f7202" y="215.46"/>
     <use style="fill-opacity:0.4;stroke:#000000;stroke-opacity:0.4;stroke-width:1.4;" x="189.049639" xlink:href="#mb07a7f7202" y="215.46"/>
     <use style="fill-opacity:0.4;stroke:#000000;stroke-opacity:0.4;stroke-width:1.4;" x="194.603633" xlink:href="#mb07a7f7202" y="178.416"/>
     <use style="fill-opacity:0.4;stroke:#000000;stroke-opacity:0.4;stroke-width:1.4;" x="191.000965" xlink:href="#mb07a7f7202" y="189"/>
     <use style="fill-opacity:0.4;stroke:#000000;stroke-opacity:0.4;stroke-width:1.4;" x="190.970131" xlink:href="#mb07a7f7202" y="220.752"/>
     <use style="fill-opacity:0.4;stroke:#000000;stroke-opacity:0.4;stroke-width:1.4;" x="191.928712" xlink:href="#mb07a7f7202" y="220.752"/>
     <use style="fill-opacity:0.4;stroke:#000000;stroke-opacity:0.4;stroke-width:1.4;" x="191.548066" xlink:href="#mb07a7f7202" y="194.292"/>
     <use style="fill-opacity:0.4;stroke:#000000;stroke-opacity:0.4;stroke-width:1.4;" x="191.148184" xlink:href="#mb07a7f7202" y="194.292"/>
     <use style="fill-opacity:0.4;stroke:#000000;stroke-opacity:0.4;stroke-width:1.4;" x="189.570654" xlink:href="#mb07a7f7202" y="199.584"/>
     <use style="fill-opacity:0.4;stroke:#000000;stroke-opacity:0.4;stroke-width:1.4;" x="191.533228" xlink:href="#mb07a7f7202" y="189"/>
     <use style="fill-opacity:0.4;stroke:#000000;stroke-opacity:0.4;stroke-width:1.4;" x="193.726924" xlink:href="#mb07a7f7202" y="220.752"/>
     <use style="fill-opacity:0.4;stroke:#000000;stroke-opacity:0.4;stroke-width:1.4;" x="192.892397" xlink:href="#mb07a7f7202" y="236.628"/>
     <use style="fill-opacity:0.4;stroke:#000000;stroke-opacity:0.4;stroke-width:1.4;" x="193.277724" xlink:href="#mb07a7f7202" y="204.876"/>
     <use style="fill-opacity:0.4;stroke:#000000;stroke-opacity:0.4;stroke-width:1.4;" x="190.004957" xlink:href="#mb07a7f7202" y="215.46"/>
     <use style="fill-opacity:0.4;stroke:#000000;stroke-opacity:0.4;stroke-width:1.4;" x="189.260967" xlink:href="#mb07a7f7202" y="236.628"/>
     <use style="fill-opacity:0.4;stroke:#000000;stroke-opacity:0.4;stroke-width:1.4;" x="190.604376" xlink:href="#mb07a7f7202" y="199.584"/>
     <use style="fill-opacity:0.4;stroke:#000000;stroke-opacity:0.4;stroke-width:1.4;" x="190.886663" xlink:href="#mb07a7f7202" y="178.416"/>
     <use style="fill-opacity:0.4;stroke:#000000;stroke-opacity:0.4;stroke-width:1.4;" x="192.501687" xlink:href="#mb07a7f7202" y="167.832"/>
     <use style="fill-opacity:0.4;stroke:#000000;stroke-opacity:0.4;stroke-width:1.4;" x="188.167879" xlink:href="#mb07a7f7202" y="199.584"/>
     <use style="fill-opacity:0.4;stroke:#000000;stroke-opacity:0.4;stroke-width:1.4;" x="193.178757" xlink:href="#mb07a7f7202" y="210.168"/>
     <use style="fill-opacity:0.4;stroke:#000000;stroke-opacity:0.4;stroke-width:1.4;" x="190.554266" xlink:href="#mb07a7f7202" y="189"/>
     <use style="fill-opacity:0.4;stroke:#000000;stroke-opacity:0.4;stroke-width:1.4;" x="190.136115" xlink:href="#mb07a7f7202" y="241.92"/>
     <use style="fill-opacity:0.4;stroke:#000000;stroke-opacity:0.4;stroke-width:1.4;" x="189.225975" xlink:href="#mb07a7f7202" y="215.46"/>
     <use style="fill-opacity:0.4;stroke:#000000;stroke-opacity:0.4;stroke-width:1.4;" x="188.226367" xlink:href="#mb07a7f7202" y="173.124"/>
     <use style="fill-opacity:0.4;stroke:#000000;stroke-opacity:0.4;stroke-width:1.4;" x="192.080195" xlink:href="#mb07a7f7202" y="215.46"/>
     <use style="fill-opacity:0.4;stroke:#000000;stroke-opacity:0.4;stroke-width:1.4;" x="190.914024" xlink:href="#mb07a7f7202" y="215.46"/>
     <use style="fill-opacity:0.4;stroke:#000000;stroke-opacity:0.4;stroke-width:1.4;" x="188.793853" xlink:href="#mb07a7f7202" y="146.664"/>
     <use style="fill-opacity:0.4;stroke:#000000;stroke-opacity:0.4;stroke-width:1.4;" x="188.785893" xlink:href="#mb07a7f7202" y="189"/>
     <use style="fill-opacity:0.4;stroke:#000000;stroke-opacity:0.4;stroke-width:1.4;" x="190.277788" xlink:href="#mb07a7f7202" y="183.708"/>
     <use style="fill-opacity:0.4;stroke:#000000;stroke-opacity:0.4;stroke-width:1.4;" x="193.395662" xlink:href="#mb07a7f7202" y="130.788"/>
     <use style="fill-opacity:0.4;stroke:#000000;stroke-opacity:0.4;stroke-width:1.4;" x="190.396284" xlink:href="#mb07a7f7202" y="178.416"/>
     <use style="fill-opacity:0.4;stroke:#000000;stroke-opacity:0.4;stroke-width:1.4;" x="188.462312" xlink:href="#mb07a7f7202" y="199.584"/>
     <use style="fill-opacity:0.4;stroke:#000000;stroke-opacity:0.4;stroke-width:1.4;" x="190.41782" xlink:href="#mb07a7f7202" y="173.124"/>
     <use style="fill-opacity:0.4;stroke:#000000;stroke-opacity:0.4;stroke-width:1.4;" x="190.37586" xlink:href="#mb07a7f7202" y="178.416"/>
     <use style="fill-opacity:0.4;stroke:#000000;stroke-opacity:0.4;stroke-width:1.4;" x="186.605802" xlink:href="#mb07a7f7202" y="151.956"/>
     <use style="fill-opacity:0.4;stroke:#000000;stroke-opacity:0.4;stroke-width:1.4;" x="190.715561" xlink:href="#mb07a7f7202" y="178.416"/>
     <use style="fill-opacity:0.4;stroke:#000000;stroke-opacity:0.4;stroke-width:1.4;" x="190.440851" xlink:href="#mb07a7f7202" y="151.956"/>
     <use style="fill-opacity:0.4;stroke:#000000;stroke-opacity:0.4;stroke-width:1.4;" x="191.88274" xlink:href="#mb07a7f7202" y="93.744"/>
     <use style="fill-opacity:0.4;stroke:#000000;stroke-opacity:0.4;stroke-width:1.4;" x="193.675497" xlink:href="#mb07a7f7202" y="99.036"/>
     <use style="fill-opacity:0.4;stroke:#000000;stroke-opacity:0.4;stroke-width:1.4;" x="192.552034" xlink:href="#mb07a7f7202" y="173.124"/>
     <use style="fill-opacity:0.4;stroke:#000000;stroke-opacity:0.4;stroke-width:1.4;" x="190.381824" xlink:href="#mb07a7f7202" y="120.204"/>
     <use style="fill-opacity:0.4;stroke:#000000;stroke-opacity:0.4;stroke-width:1.4;" x="189.079131" xlink:href="#mb07a7f7202" y="141.372"/>
     <use style="fill-opacity:0.4;stroke:#000000;stroke-opacity:0.4;stroke-width:1.4;" x="194.802089" xlink:href="#mb07a7f7202" y="183.708"/>
     <use style="fill-opacity:0.4;stroke:#000000;stroke-opacity:0.4;stroke-width:1.4;" x="190.892097" xlink:href="#mb07a7f7202" y="178.416"/>
     <use style="fill-opacity:0.4;stroke:#000000;stroke-opacity:0.4;stroke-width:1.4;" x="190.821663" xlink:href="#mb07a7f7202" y="146.664"/>
     <use style="fill-opacity:0.4;stroke:#000000;stroke-opacity:0.4;stroke-width:1.4;" x="190.762481" xlink:href="#mb07a7f7202" y="178.416"/>
     <use style="fill-opacity:0.4;stroke:#000000;stroke-opacity:0.4;stroke-width:1.4;" x="191.108061" xlink:href="#mb07a7f7202" y="125.496"/>
     <use style="fill-opacity:0.4;stroke:#000000;stroke-opacity:0.4;stroke-width:1.4;" x="190.575491" xlink:href="#mb07a7f7202" y="120.204"/>
     <use style="fill-opacity:0.4;stroke:#000000;stroke-opacity:0.4;stroke-width:1.4;" x="189.907841" xlink:href="#mb07a7f7202" y="157.248"/>
     <use style="fill-opacity:0.4;stroke:#000000;stroke-opacity:0.4;stroke-width:1.4;" x="189.949525" xlink:href="#mb07a7f7202" y="183.708"/>
     <use style="fill-opacity:0.4;stroke:#000000;stroke-opacity:0.4;stroke-width:1.4;" x="190.749062" xlink:href="#mb07a7f7202" y="141.372"/>
     <use style="fill-opacity:0.4;stroke:#000000;stroke-opacity:0.4;stroke-width:1.4;" x="189.954866" xlink:href="#mb07a7f7202" y="167.832"/>
     <use style="fill-opacity:0.4;stroke:#000000;stroke-opacity:0.4;stroke-width:1.4;" x="189.691382" xlink:href="#mb07a7f7202" y="120.204"/>
     <use style="fill-opacity:0.4;stroke:#000000;stroke-opacity:0.4;stroke-width:1.4;" x="190.96552" xlink:href="#mb07a7f7202" y="204.876"/>
     <use style="fill-opacity:0.4;stroke:#000000;stroke-opacity:0.4;stroke-width:1.4;" x="190.403459" xlink:href="#mb07a7f7202" y="162.54"/>
     <use style="fill-opacity:0.4;stroke:#000000;stroke-opacity:0.4;stroke-width:1.4;" x="193.13901" xlink:href="#mb07a7f7202" y="109.62"/>
     <use style="fill-opacity:0.4;stroke:#000000;stroke-opacity:0.4;stroke-width:1.4;" x="186.677212" xlink:href="#mb07a7f7202" y="151.956"/>
     <use style="fill-opacity:0.4;stroke:#000000;stroke-opacity:0.4;stroke-width:1.4;" x="192.497511" xlink:href="#mb07a7f7202" y="104.328"/>
     <use style="fill-opacity:0.4;stroke:#000000;stroke-opacity:0.4;stroke-width:1.4;" x="192.737912" xlink:href="#mb07a7f7202" y="183.708"/>
     <use style="fill-opacity:0.4;stroke:#000000;stroke-opacity:0.4;stroke-width:1.4;" x="187.575464" xlink:href="#mb07a7f7202" y="189"/>
     <use style="fill-opacity:0.4;stroke:#000000;stroke-opacity:0.4;stroke-width:1.4;" x="190.267052" xlink:href="#mb07a7f7202" y="167.832"/>
     <use style="fill-opacity:0.4;stroke:#000000;stroke-opacity:0.4;stroke-width:1.4;" x="190.222335" xlink:href="#mb07a7f7202" y="167.832"/>
     <use style="fill-opacity:0.4;stroke:#000000;stroke-opacity:0.4;stroke-width:1.4;" x="188.611038" xlink:href="#mb07a7f7202" y="141.372"/>
     <use style="fill-opacity:0.4;stroke:#000000;stroke-opacity:0.4;stroke-width:1.4;" x="189.590339" xlink:href="#mb07a7f7202" y="167.832"/>
     <use style="fill-opacity:0.4;stroke:#000000;stroke-opacity:0.4;stroke-width:1.4;" x="189.072832" xlink:href="#mb07a7f7202" y="199.584"/>
     <use style="fill-opacity:0.4;stroke:#000000;stroke-opacity:0.4;stroke-width:1.4;" x="193.525131" xlink:href="#mb07a7f7202" y="215.46"/>
     <use style="fill-opacity:0.4;stroke:#000000;stroke-opacity:0.4;stroke-width:1.4;" x="192.255167" xlink:href="#mb07a7f7202" y="141.372"/>
     <use style="fill-opacity:0.4;stroke:#000000;stroke-opacity:0.4;stroke-width:1.4;" x="192.777522" xlink:href="#mb07a7f7202" y="167.832"/>
     <use style="fill-opacity:0.4;stroke:#000000;stroke-opacity:0.4;stroke-width:1.4;" x="191.922344" xlink:href="#mb07a7f7202" y="183.708"/>
     <use style="fill-opacity:0.4;stroke:#000000;stroke-opacity:0.4;stroke-width:1.4;" x="189.044099" xlink:href="#mb07a7f7202" y="136.08"/>
     <use style="fill-opacity:0.4;stroke:#000000;stroke-opacity:0.4;stroke-width:1.4;" x="189.984266" xlink:href="#mb07a7f7202" y="199.584"/>
     <use style="fill-opacity:0.4;stroke:#000000;stroke-opacity:0.4;stroke-width:1.4;" x="191.561075" xlink:href="#mb07a7f7202" y="194.292"/>
     <use style="fill-opacity:0.4;stroke:#000000;stroke-opacity:0.4;stroke-width:1.4;" x="188.899347" xlink:href="#mb07a7f7202" y="130.788"/>
     <use style="fill-opacity:0.4;stroke:#000000;stroke-opacity:0.4;stroke-width:1.4;" x="191.908855" xlink:href="#mb07a7f7202" y="189"/>
     <use style="fill-opacity:0.4;stroke:#000000;stroke-opacity:0.4;stroke-width:1.4;" x="190.426246" xlink:href="#mb07a7f7202" y="146.664"/>
     <use style="fill-opacity:0.4;stroke:#000000;stroke-opacity:0.4;stroke-width:1.4;" x="190.217079" xlink:href="#mb07a7f7202" y="173.124"/>
     <use style="fill-opacity:0.4;stroke:#000000;stroke-opacity:0.4;stroke-width:1.4;" x="191.905685" xlink:href="#mb07a7f7202" y="151.956"/>
     <use style="fill-opacity:0.4;stroke:#000000;stroke-opacity:0.4;stroke-width:1.4;" x="191.490918" xlink:href="#mb07a7f7202" y="151.956"/>
     <use style="fill-opacity:0.4;stroke:#000000;stroke-opacity:0.4;stroke-width:1.4;" x="190.238625" xlink:href="#mb07a7f7202" y="130.788"/>
     <use style="fill-opacity:0.4;stroke:#000000;stroke-opacity:0.4;stroke-width:1.4;" x="192.60299" xlink:href="#mb07a7f7202" y="162.54"/>
     <use style="fill-opacity:0.4;stroke:#000000;stroke-opacity:0.4;stroke-width:1.4;" x="189.11873" xlink:href="#mb07a7f7202" y="146.664"/>
     <use style="fill-opacity:0.4;stroke:#000000;stroke-opacity:0.4;stroke-width:1.4;" x="191.757903" xlink:href="#mb07a7f7202" y="189"/>
     <use style="fill-opacity:0.4;stroke:#000000;stroke-opacity:0.4;stroke-width:1.4;" x="191.722391" xlink:href="#mb07a7f7202" y="178.416"/>
     <use style="fill-opacity:0.4;stroke:#000000;stroke-opacity:0.4;stroke-width:1.4;" x="190.318593" xlink:href="#mb07a7f7202" y="120.204"/>
     <use style="fill-opacity:0.4;stroke:#000000;stroke-opacity:0.4;stroke-width:1.4;" x="191.307202" xlink:href="#mb07a7f7202" y="136.08"/>
     <use style="fill-opacity:0.4;stroke:#000000;stroke-opacity:0.4;stroke-width:1.4;" x="188.854268" xlink:href="#mb07a7f7202" y="178.416"/>
     <use style="fill-opacity:0.4;stroke:#000000;stroke-opacity:0.4;stroke-width:1.4;" x="192.237047" xlink:href="#mb07a7f7202" y="178.416"/>
     <use style="fill-opacity:0.4;stroke:#000000;stroke-opacity:0.4;stroke-width:1.4;" x="190.51244" xlink:href="#mb07a7f7202" y="146.664"/>
     <use style="fill-opacity:0.4;stroke:#000000;stroke-opacity:0.4;stroke-width:1.4;" x="189.987061" xlink:href="#mb07a7f7202" y="157.248"/>
     <use style="fill-opacity:0.4;stroke:#000000;stroke-opacity:0.4;stroke-width:1.4;" x="192.431419" xlink:href="#mb07a7f7202" y="136.08"/>
     <use style="fill-opacity:0.4;stroke:#000000;stroke-opacity:0.4;stroke-width:1.4;" x="189.704605" xlink:href="#mb07a7f7202" y="136.08"/>
     <use style="fill-opacity:0.4;stroke:#000000;stroke-opacity:0.4;stroke-width:1.4;" x="188.609561" xlink:href="#mb07a7f7202" y="194.292"/>
     <use style="fill-opacity:0.4;stroke:#000000;stroke-opacity:0.4;stroke-width:1.4;" x="188.37913" xlink:href="#mb07a7f7202" y="109.62"/>
     <use style="fill-opacity:0.4;stroke:#000000;stroke-opacity:0.4;stroke-width:1.4;" x="191.742467" xlink:href="#mb07a7f7202" y="189"/>
     <use style="fill-opacity:0.4;stroke:#000000;stroke-opacity:0.4;stroke-width:1.4;" x="188.808676" xlink:href="#mb07a7f7202" y="183.708"/>
     <use style="fill-opacity:0.4;stroke:#000000;stroke-opacity:0.4;stroke-width:1.4;" x="193.529056" xlink:href="#mb07a7f7202" y="167.832"/>
     <use style="fill-opacity:0.4;stroke:#000000;stroke-opacity:0.4;stroke-width:1.4;" x="187.562183" xlink:href="#mb07a7f7202" y="173.124"/>
     <use style="fill-opacity:0.4;stroke:#000000;stroke-opacity:0.4;stroke-width:1.4;" x="193.438329" xlink:href="#mb07a7f7202" y="157.248"/>
    </g>
   </g>
   <g id="PathCollection_4">
    <defs>
     <path d="M 0 3.535534 
C 0.937635 3.535534 1.836992 3.163008 2.5 2.5 
C 3.163008 1.836992 3.535534 0.937635 3.535534 0 
C 3.535534 -0.937635 3.163008 -1.836992 2.5 -2.5 
C 1.836992 -3.163008 0.937635 -3.535534 0 -3.535534 
C -0.937635 -3.535534 -1.836992 -3.163008 -2.5 -2.5 
C -3.163008 -1.836992 -3.535534 -0.937635 -3.535534 0 
C -3.535534 0.937635 -3.163008 1.836992 -2.5 2.5 
C -1.836992 3.163008 -0.937635 3.535534 0 3.535534 
z
" id="ma8e8511f9e" style="stroke:#000000;"/>
    </defs>
    <g clip-path="url(#p4554164d05)">
     <use style="stroke:#000000;" x="104.4" xlink:href="#ma8e8511f9e" y="231.336"/>
    </g>
   </g>
   <g id="PathCollection_5">
    <g clip-path="url(#p4554164d05)">
     <use style="stroke:#000000;" x="147.6" xlink:href="#ma8e8511f9e" y="226.044"/>
    </g>
   </g>
   <g id="PathCollection_6">
    <g clip-path="url(#p4554164d05)">
     <use style="stroke:#000000;" x="190.8" xlink:href="#ma8e8511f9e" y="181.062"/>
    </g>
   </g>
   <g id="line2d_21">
    <path clip-path="url(#p4554164d05)" d="M 91.44 231.336 
L 117.36 231.336 
" style="fill:none;stroke:#000000;stroke-linecap:square;"/>
   </g>
   <g id="line2d_22">
    <path clip-path="url(#p4554164d05)" d="M 134.64 226.044 
L 160.56 226.044 
" style="fill:none;stroke:#000000;stroke-linecap:square;"/>
   </g>
   <g id="line2d_23">
    <path clip-path="url(#p4554164d05)" d="M 177.84 181.062 
L 203.76 181.062 
" style="fill:none;stroke:#000000;stroke-linecap:square;"/>
   </g>
  </g>
 </g>
 <defs>
  <clipPath id="p4554164d05">
   <rect height="211.68" width="151.2" x="72" y="30.24"/>
  </clipPath>
 </defs>
</svg>
