<?xml version="1.0" encoding="utf-8" standalone="no"?>
<!DOCTYPE svg PUBLIC "-//W3C//DTD SVG 1.1//EN"
  "http://www.w3.org/Graphics/SVG/1.1/DTD/svg11.dtd">
<!-- Created with matplotlib (https://matplotlib.org/) -->
<svg height="302.4pt" version="1.1" viewBox="0 0 338.4 302.4" width="338.4pt" xmlns="http://www.w3.org/2000/svg" xmlns:xlink="http://www.w3.org/1999/xlink">
 <metadata>
  <rdf:RDF xmlns:cc="http://creativecommons.org/ns#" xmlns:dc="http://purl.org/dc/elements/1.1/" xmlns:rdf="http://www.w3.org/1999/02/22-rdf-syntax-ns#">
   <cc:Work>
    <dc:type rdf:resource="http://purl.org/dc/dcmitype/StillImage"/>
    <dc:date>2021-11-20T19:41:53.585545</dc:date>
    <dc:format>image/svg+xml</dc:format>
    <dc:creator>
     <cc:Agent>
      <dc:title>Matplotlib v3.3.4, https://matplotlib.org/</dc:title>
     </cc:Agent>
    </dc:creator>
   </cc:Work>
  </rdf:RDF>
 </metadata>
 <defs>
  <style type="text/css">*{stroke-linecap:butt;stroke-linejoin:round;}</style>
 </defs>
 <g id="figure_1">
  <g id="patch_1">
   <path d="M 0 302.4 
L 338.4 302.4 
L 338.4 0 
L 0 0 
z
" style="fill:#ffffff;"/>
  </g>
  <g id="axes_1">
   <g id="patch_2">
    <path d="M 72 241.92 
L 266.4 241.92 
L 266.4 30.24 
L 72 30.24 
z
" style="fill:#ffffff;"/>
   </g>
   <g id="patch_3">
    <path clip-path="url(#p9065e252ab)" d="M 61.2 224.28 
L 266.4 224.28 
L 266.4 12.6 
L 61.2 12.6 
z
" style="fill:#01ff6b;opacity:0.1;stroke:#01ff6b;stroke-linejoin:miter;"/>
   </g>
   <g id="patch_4">
    <path clip-path="url(#p9065e252ab)" d="M 61.2 224.28 
L 266.4 224.28 
L 266.4 241.92 
L 61.2 241.92 
z
" style="fill:#c22121;opacity:0.1;stroke:#c22121;stroke-linejoin:miter;"/>
   </g>
   <g id="matplotlib.axis_1">
    <g id="xtick_1">
     <g id="line2d_1">
      <defs>
       <path d="M 0 0 
L 0 3.5 
" id="m0292b7e00a" style="stroke:#000000;stroke-width:0.8;"/>
      </defs>
      <g>
       <use style="stroke:#000000;stroke-width:0.8;" x="104.4" xlink:href="#m0292b7e00a" y="241.92"/>
      </g>
     </g>
     <g id="text_1">
      <!-- 3, wide -->
      <g transform="translate(66.302916 293.356463)rotate(-45)scale(0.18 -0.18)">
       <defs>
        <path d="M 15.703125 32.1875 
L 22.5 32.1875 
C 31.90625 32.1875 34.59375 23.9375 34.59375 18.1875 
C 34.59375 10.34375 30.203125 4.1875 23 4.1875 
C 17.40625 4.1875 9.5 7.015625 5 14.46875 
C 4.296875 10.9375 4.296875 10.734375 3.90625 8.328125 
C 8.59375 1.390625 16.203125 -2 23.203125 -2 
C 34.59375 -2 43 7.515625 43 18.09375 
C 43 26.046875 37.5 32.6875 30 35.1875 
C 36 38.484375 40.40625 44.6875 40.40625 51.890625 
C 40.40625 60.296875 32.703125 67 23.296875 67 
C 14.703125 67 8 61.6875 5.203125 55.984375 
C 5.90625 54.984375 7.703125 52.09375 8.59375 50.59375 
C 10.796875 56.484375 16.5 60.890625 23.203125 60.890625 
C 28.796875 60.890625 32.5 57.1875 32.5 51.890625 
C 32.5 46.390625 29 40.390625 23.09375 39 
C 22.703125 39 16.5 38.390625 15.703125 38.296875 
z
" id="CMSS17-51"/>
        <path d="M 17 0.09375 
L 17 8 
L 9 8 
L 9 0 
L 11.5 0 
L 8.90625 -12.109375 
L 12.90625 -12.109375 
z
" id="CMSS17-44"/>
        <path d="M 62.703125 43 
L 55.09375 43 
L 49.796875 25 
C 48.703125 21.1875 45.59375 10.6875 45.203125 5.796875 
L 45.09375 5.796875 
C 44.90625 8.796875 43.203125 16 40.40625 25.5 
L 35.296875 43 
L 28.40625 43 
L 23.40625 25.890625 
C 20.90625 17.1875 19 9.796875 18.796875 5.796875 
L 18.703125 5.796875 
C 18.296875 11.6875 14.203125 25.5 13.59375 27.6875 
L 9.09375 43 
L 1.296875 43 
L 14.296875 0 
L 21.90625 0 
C 27.09375 17.1875 31.09375 30.5 31.40625 37.1875 
C 31.59375 33.890625 33.296875 26.796875 34.296875 23.296875 
L 40.90625 0 
L 49.703125 0 
z
" id="CMSS17-119"/>
        <path d="M 15.296875 66 
L 6.90625 66 
L 6.90625 57.59375 
L 15.296875 57.59375 
z
M 14.796875 43 
L 7.40625 43 
L 7.40625 0 
L 14.796875 0 
z
" id="CMSS17-105"/>
        <path d="M 40.796875 69 
L 33.40625 69 
L 33.40625 38.984375 
C 30.296875 41.59375 25.203125 44 19.59375 44 
C 10.5 44 3.296875 34.046875 3.296875 21.484375 
C 3.296875 8.9375 10.40625 -1 19.296875 -1 
C 26.203125 -1 30.796875 2.6875 33.203125 4.796875 
L 33.203125 -0.203125 
L 40.796875 -0.203125 
z
M 33.203125 13.296875 
C 33.203125 11.875 33.203125 10.359375 30.09375 7.625 
C 28.09375 5.90625 25.703125 5.09375 23.40625 5.09375 
C 18 5.09375 10.90625 9.140625 10.90625 21.390625 
C 10.90625 34.140625 18.90625 37.890625 24.40625 37.890625 
C 28.09375 37.890625 31.09375 36.0625 33.203125 33.03125 
z
" id="CMSS17-100"/>
        <path d="M 39.09375 21.484375 
C 39.09375 24.796875 38.90625 31.265625 35.703125 36.671875 
C 32.203125 42.390625 26.5 44 22.203125 44 
C 11.796875 44 3 34.125 3 21.296875 
C 3 9.046875 12.09375 -1 23.59375 -1 
C 28.09375 -1 33.59375 0.296875 38.59375 3.890625 
C 38.59375 4.296875 38.40625 6.46875 38.296875 6.578125 
C 38.296875 6.765625 38 9.828125 38 10.234375 
C 33.203125 6.375 27.703125 5.09375 23.703125 5.09375 
C 17.296875 5.09375 10.40625 10.421875 10.09375 21.484375 
z
M 10.90625 27 
C 12.203125 32.59375 16.59375 37.890625 22.203125 37.890625 
C 23.703125 37.890625 30.703125 37.6875 32.5 27 
z
" id="CMSS17-101"/>
       </defs>
       <use transform="scale(0.996264)" xlink:href="#CMSS17-51"/>
       <use transform="translate(46.843624 0)scale(0.996264)" xlink:href="#CMSS17-44"/>
       <use transform="translate(104.096941 0)scale(0.996264)" xlink:href="#CMSS17-119"/>
       <use transform="translate(167.916486 0)scale(0.996264)" xlink:href="#CMSS17-105"/>
       <use transform="translate(190.097209 0)scale(0.996264)" xlink:href="#CMSS17-100"/>
       <use transform="translate(238.302152 0)scale(0.996264)" xlink:href="#CMSS17-101"/>
      </g>
     </g>
    </g>
    <g id="xtick_2">
     <g id="line2d_2">
      <g>
       <use style="stroke:#000000;stroke-width:0.8;" x="147.6" xlink:href="#m0292b7e00a" y="241.92"/>
      </g>
     </g>
     <g id="text_2">
      <!-- 1.5, wide -->
      <g transform="translate(100.228359 302.63102)rotate(-45)scale(0.18 -0.18)">
       <defs>
        <path d="M 28.40625 67 
L 26.5 67 
C 21.09375 61.703125 14.796875 60.96875 8.40625 60.796875 
L 8.40625 55 
C 11.296875 55.09375 16 55.296875 20.703125 57.390625 
L 20.703125 5.796875 
L 8.90625 5.796875 
L 8.90625 0 
L 40.203125 0 
L 40.203125 5.796875 
L 28.40625 5.796875 
z
" id="CMSS17-49"/>
        <path d="M 17 8 
L 9 8 
L 9 0 
L 17 0 
z
" id="CMSS17-46"/>
        <path d="M 14.59375 59.59375 
L 39.09375 59.59375 
L 39.09375 66 
L 7.296875 66 
L 7.296875 28.59375 
L 14 28.59375 
C 15.796875 32.859375 19.5 36 24.296875 36 
C 28.796875 36 33.796875 31.9375 33.796875 20.296875 
C 33.796875 7.84375 26.703125 4.1875 21.5 4.1875 
C 15.09375 4.1875 9.203125 8.140625 6.59375 13.609375 
L 3.40625 7.9375 
C 8 0.796875 15.5 -2 21.5 -2 
C 33.09375 -2 42.203125 7.9375 42.203125 20.09375 
C 42.203125 32.546875 34.09375 42.09375 24.40625 42.09375 
C 20.90625 42.09375 17.5 40.890625 14.59375 38.5 
z
" id="CMSS17-53"/>
       </defs>
       <use transform="scale(0.996264)" xlink:href="#CMSS17-49"/>
       <use transform="translate(46.843624 0)scale(0.996264)" xlink:href="#CMSS17-46"/>
       <use transform="translate(72.867828 0)scale(0.996264)" xlink:href="#CMSS17-53"/>
       <use transform="translate(119.711452 0)scale(0.996264)" xlink:href="#CMSS17-44"/>
       <use transform="translate(176.96477 0)scale(0.996264)" xlink:href="#CMSS17-119"/>
       <use transform="translate(240.784315 0)scale(0.996264)" xlink:href="#CMSS17-105"/>
       <use transform="translate(262.965038 0)scale(0.996264)" xlink:href="#CMSS17-100"/>
       <use transform="translate(311.169981 0)scale(0.996264)" xlink:href="#CMSS17-101"/>
      </g>
     </g>
    </g>
    <g id="xtick_3">
     <g id="line2d_3">
      <g>
       <use style="stroke:#000000;stroke-width:0.8;" x="190.8" xlink:href="#m0292b7e00a" y="241.92"/>
      </g>
     </g>
     <g id="text_3">
      <!-- 3 -->
      <g transform="translate(182.371347 263.688032)rotate(-45)scale(0.18 -0.18)">
       <use transform="scale(0.996264)" xlink:href="#CMSS17-51"/>
      </g>
     </g>
    </g>
    <g id="xtick_4">
     <g id="line2d_4">
      <g>
       <use style="stroke:#000000;stroke-width:0.8;" x="234" xlink:href="#m0292b7e00a" y="241.92"/>
      </g>
     </g>
     <g id="text_4">
      <!-- neg.Ctrl -->
      <g transform="translate(192.014739 297.24464)rotate(-45)scale(0.18 -0.18)">
       <defs>
        <path d="M 40.90625 29.34375 
C 40.90625 35.671875 39.40625 44 28.09375 44 
C 21.703125 44 17.5 40.6875 14.703125 37.28125 
L 14.703125 43.484375 
L 7.40625 43.484375 
L 7.40625 0 
L 15 0 
L 15 24.3125 
C 15 30.65625 17.40625 37.890625 24.203125 37.890625 
C 33 37.890625 33.296875 31.953125 33.296875 28.53125 
L 33.296875 0 
L 40.90625 0 
z
" id="CMSS17-110"/>
        <path d="M 44.5 44 
C 38.796875 43.890625 33.90625 42.796875 29.90625 40.890625 
C 26.59375 43.484375 23.203125 44 20.90625 44 
C 12.203125 44 5.59375 36.8125 5.59375 28.5 
C 5.59375 23.140625 8.59375 19.09375 8.796875 18.890625 
C 7 16.390625 6 13.6875 6 10.6875 
C 6 7.1875 7.40625 4.6875 8.5 3.296875 
C 3.296875 0.09375 2.59375 -4.8125 2.59375 -6.703125 
C 2.59375 -14 11.703125 -20 23.40625 -20 
C 35.203125 -20 44.296875 -14 44.296875 -6.609375 
C 44.296875 7.1875 29 7.296875 24.796875 7.296875 
L 16.703125 7.296875 
C 15.203125 7.296875 11.203125 7.296875 11.203125 12.390625 
C 11.203125 14.390625 12.09375 15.6875 12.203125 15.796875 
C 13.703125 14.6875 16.796875 13 20.90625 13 
C 29.203125 13 36.09375 19.984375 36.09375 28.5 
C 36.09375 33.25 33.90625 36.703125 33 37.890625 
L 33.296875 37.890625 
C 33.59375 37.890625 37.796875 38.1875 39.296875 38.1875 
C 42.5 38.1875 42.796875 38.09375 45.59375 37.796875 
z
M 20.90625 18.5 
C 17.5 18.5 12.703125 20.578125 12.703125 28.5 
C 12.703125 37.109375 18.203125 38.484375 20.796875 38.484375 
C 24.203125 38.484375 29 36.40625 29 28.5 
C 29 19.875 23.5 18.5 20.90625 18.5 
z
M 24.703125 0 
C 27.09375 0 37.203125 0 37.203125 -6.8125 
C 37.203125 -11.109375 31 -14.5 23.5 -14.5 
C 15.90625 -14.5 9.703125 -11.203125 9.703125 -6.703125 
C 9.703125 -6.203125 9.703125 0 16.59375 0 
z
" id="CMSS17-103"/>
        <path d="M 54.703125 11.015625 
C 48 6.5 44.90625 5.1875 36.796875 5.1875 
C 22.796875 5.1875 14.59375 20.375 14.59375 34.234375 
C 14.59375 49.015625 23 63.59375 37.203125 63.59375 
C 43.59375 63.59375 47.796875 61.78125 52.90625 58.5625 
L 54.296875 66.484375 
C 49.5 68.890625 43.40625 70 37.296875 70 
C 18.09375 70 6.203125 52.234375 6.203125 34.234375 
C 6.203125 14.4375 20.296875 -1.203125 36.296875 -1.203125 
C 44.90625 -1.203125 47.90625 -0.5 55.296875 4.1875 
z
" id="CMSS17-67"/>
        <path d="M 16.703125 37.1875 
L 29.703125 37.1875 
L 29.703125 43 
L 16.703125 43 
L 16.703125 55 
L 9.59375 55 
L 9.59375 43 
L 1.703125 43 
L 1.703125 37.1875 
L 9.40625 37.1875 
L 9.40625 11.734375 
C 9.40625 6 10.703125 -1 17.296875 -1 
C 22.296875 -1 26.90625 0.390625 31.296875 2.6875 
L 29.703125 8.609375 
C 27.296875 6.5 24.40625 5.296875 21.296875 5.296875 
C 16.90625 5.296875 16.703125 10.921875 16.703125 13.4375 
z
" id="CMSS17-116"/>
        <path d="M 14.90625 21.390625 
C 14.90625 30.84375 21.796875 37.171875 30.59375 37.375 
L 30.59375 44 
C 24.203125 43.890625 18.203125 40.6875 14.59375 35.46875 
L 14.59375 43.484375 
L 7.5 43.484375 
L 7.5 0 
L 14.90625 0 
z
" id="CMSS17-114"/>
        <path d="M 14.796875 69 
L 7.40625 69 
L 7.40625 0 
L 14.796875 0 
z
" id="CMSS17-108"/>
       </defs>
       <use transform="scale(0.996264)" xlink:href="#CMSS17-110"/>
       <use transform="translate(48.204943 0)scale(0.996264)" xlink:href="#CMSS17-101"/>
       <use transform="translate(89.843765 0)scale(0.996264)" xlink:href="#CMSS17-103"/>
       <use transform="translate(136.687389 0)scale(0.996264)" xlink:href="#CMSS17-46"/>
       <use transform="translate(162.711594 0)scale(0.996264)" xlink:href="#CMSS17-67"/>
       <use transform="translate(222.567365 0)scale(0.996264)" xlink:href="#CMSS17-116"/>
       <use transform="translate(256.398932 0)scale(0.996264)" xlink:href="#CMSS17-114"/>
       <use transform="translate(288.308704 0)scale(0.996264)" xlink:href="#CMSS17-108"/>
      </g>
     </g>
    </g>
   </g>
   <g id="matplotlib.axis_2">
    <g id="ytick_1">
     <g id="line2d_5">
      <path clip-path="url(#p9065e252ab)" d="M 72 241.92 
L 266.4 241.92 
" style="fill:none;stroke:#b0b0b0;stroke-linecap:square;stroke-opacity:0.6;stroke-width:0.7;"/>
     </g>
     <g id="line2d_6">
      <defs>
       <path d="M 0 0 
L -3.5 0 
" id="md00cfaee91" style="stroke:#000000;stroke-width:0.8;"/>
      </defs>
      <g>
       <use style="stroke:#000000;stroke-width:0.8;" x="72" xlink:href="#md00cfaee91" y="241.92"/>
      </g>
     </g>
     <g id="text_5">
      <!-- $\mathdefault{0}$ -->
      <g transform="translate(57.927644 246.935904)scale(0.145 -0.145)">
       <defs>
        <path d="M 42 31.84375 
C 42 37.96875 41.90625 48.421875 37.703125 56.453125 
C 34 63.484375 28.09375 66 22.90625 66 
C 18.09375 66 12 63.78125 8.203125 56.5625 
C 4.203125 49.015625 3.796875 39.671875 3.796875 31.84375 
C 3.796875 26.109375 3.90625 17.375 7 9.734375 
C 11.296875 -0.609375 19 -2 22.90625 -2 
C 27.5 -2 34.5 -0.109375 38.59375 9.4375 
C 41.59375 16.375 42 24.5 42 31.84375 
z
M 22.90625 -0.40625 
C 16.5 -0.40625 12.703125 5.125 11.296875 12.75 
C 10.203125 18.6875 10.203125 27.328125 10.203125 32.953125 
C 10.203125 40.6875 10.203125 47.109375 11.5 53.234375 
C 13.40625 61.78125 19 64.390625 22.90625 64.390625 
C 27 64.390625 32.296875 61.671875 34.203125 53.4375 
C 35.5 47.71875 35.59375 40.984375 35.59375 32.953125 
C 35.59375 26.421875 35.59375 18.375 34.40625 12.453125 
C 32.296875 1.5 26.40625 -0.40625 22.90625 -0.40625 
z
" id="CMR17-48"/>
       </defs>
       <use transform="scale(0.996264)" xlink:href="#CMR17-48"/>
      </g>
     </g>
    </g>
    <g id="ytick_2">
     <g id="line2d_7">
      <path clip-path="url(#p9065e252ab)" d="M 72 224.28 
L 266.4 224.28 
" style="fill:none;stroke:#b0b0b0;stroke-linecap:square;stroke-opacity:0.6;stroke-width:0.7;"/>
     </g>
     <g id="line2d_8">
      <g>
       <use style="stroke:#000000;stroke-width:0.8;" x="72" xlink:href="#md00cfaee91" y="224.28"/>
      </g>
     </g>
     <g id="text_6">
      <!-- $\mathdefault{1}$ -->
      <g transform="translate(57.927644 229.295904)scale(0.145 -0.145)">
       <defs>
        <path d="M 26.59375 63.796875 
C 26.59375 65.890625 26.5 66 25.09375 66 
C 21.203125 61.359375 15.296875 59.890625 9.703125 59.6875 
C 9.40625 59.6875 8.90625 59.6875 8.796875 59.5 
C 8.703125 59.296875 8.703125 59.09375 8.703125 57 
C 11.796875 57 17 57.59375 21 59.984375 
L 21 7.296875 
C 21 3.796875 20.796875 2.59375 12.203125 2.59375 
L 9.203125 2.59375 
L 9.203125 0 
C 14 0.09375 19 0.1875 23.796875 0.1875 
C 28.59375 0.1875 33.59375 0.09375 38.40625 0 
L 38.40625 2.59375 
L 35.40625 2.59375 
C 26.796875 2.59375 26.59375 3.6875 26.59375 7.296875 
z
" id="CMR17-49"/>
       </defs>
       <use transform="scale(0.996264)" xlink:href="#CMR17-49"/>
      </g>
     </g>
    </g>
    <g id="ytick_3">
     <g id="line2d_9">
      <path clip-path="url(#p9065e252ab)" d="M 72 171.36 
L 266.4 171.36 
" style="fill:none;stroke:#b0b0b0;stroke-linecap:square;stroke-opacity:0.6;stroke-width:0.7;"/>
     </g>
     <g id="line2d_10">
      <g>
       <use style="stroke:#000000;stroke-width:0.8;" x="72" xlink:href="#md00cfaee91" y="171.36"/>
      </g>
     </g>
     <g id="text_7">
      <!-- $\mathdefault{4}$ -->
      <g transform="translate(57.927644 176.375904)scale(0.145 -0.145)">
       <defs>
        <path d="M 33.59375 64.796875 
C 33.59375 66.890625 33.5 67 31.703125 67 
L 2 19.59375 
L 2 17 
L 27.796875 17 
L 27.796875 7.1875 
C 27.796875 3.59375 27.59375 2.59375 20.59375 2.59375 
L 18.703125 2.59375 
L 18.703125 0 
C 21.90625 0.1875 27.296875 0.1875 30.703125 0.1875 
C 34.09375 0.1875 39.5 0.1875 42.703125 0 
L 42.703125 2.59375 
L 40.796875 2.59375 
C 33.796875 2.59375 33.59375 3.59375 33.59375 7.1875 
L 33.59375 17 
L 43.796875 17 
L 43.796875 19.59375 
L 33.59375 19.59375 
z
M 28.09375 58.171875 
L 28.09375 19.59375 
L 4 19.59375 
z
" id="CMR17-52"/>
       </defs>
       <use transform="scale(0.996264)" xlink:href="#CMR17-52"/>
      </g>
     </g>
    </g>
    <g id="ytick_4">
     <g id="line2d_11">
      <path clip-path="url(#p9065e252ab)" d="M 72 100.8 
L 266.4 100.8 
" style="fill:none;stroke:#b0b0b0;stroke-linecap:square;stroke-opacity:0.6;stroke-width:0.7;"/>
     </g>
     <g id="line2d_12">
      <g>
       <use style="stroke:#000000;stroke-width:0.8;" x="72" xlink:href="#md00cfaee91" y="100.8"/>
      </g>
     </g>
     <g id="text_8">
      <!-- $\mathdefault{8}$ -->
      <g transform="translate(57.927644 105.815904)scale(0.145 -0.145)">
       <defs>
        <path d="M 27.203125 35.765625 
C 33.5 38.96875 39.90625 43.796875 39.90625 51.53125 
C 39.90625 60.6875 31.09375 66 23 66 
C 13.90625 66 5.90625 59.375 5.90625 50.234375 
C 5.90625 47.71875 6.5 43.390625 10.40625 39.578125 
C 11.40625 38.578125 15.59375 35.5625 18.296875 33.65625 
C 13.796875 31.34375 3.296875 25.8125 3.296875 14.765625 
C 3.296875 4.40625 13.09375 -2 22.796875 -2 
C 33.5 -2 42.5 5.71875 42.5 15.96875 
C 42.5 25.109375 36.40625 29.328125 32.40625 32.046875 
z
M 14.09375 44.609375 
C 13.296875 45.109375 9.296875 48.21875 9.296875 52.9375 
C 9.296875 59.078125 15.59375 63.6875 22.796875 63.6875 
C 30.703125 63.6875 36.5 58.0625 36.5 51.53125 
C 36.5 42.1875 26.09375 36.859375 25.59375 36.859375 
C 25.5 36.859375 25.40625 36.859375 24.59375 37.46875 
z
M 32.5 24 
C 34 22.90625 38.796875 19.578125 38.796875 13.453125 
C 38.796875 6.015625 31.40625 0.390625 23 0.390625 
C 13.90625 0.390625 7 6.921875 7 14.859375 
C 7 22.796875 13.09375 29.4375 20 32.546875 
z
" id="CMR17-56"/>
       </defs>
       <use transform="scale(0.996264)" xlink:href="#CMR17-56"/>
      </g>
     </g>
    </g>
    <g id="text_9">
     <!-- directionality ratio -->
     <g transform="translate(50.43958 200.075635)rotate(-90)scale(0.18 -0.18)">
      <defs>
       <path d="M 38.5 39.6875 
C 38.5 40.390625 33.90625 42.390625 32.703125 42.796875 
C 29.40625 44 25.203125 44 24.09375 44 
C 11.09375 44 3.296875 32.6875 3.296875 21.296875 
C 3.296875 9.296875 12 -1 23.703125 -1 
C 30.40625 -1 35.203125 1.1875 39.09375 3.796875 
L 38.5 10.390625 
C 34.203125 7.09375 29.203125 5.296875 23.796875 5.296875 
C 16 5.296875 10.90625 12.09375 10.90625 21.390625 
C 10.90625 28.59375 14.203125 37.6875 24.203125 37.6875 
C 29.703125 37.6875 32.796875 36.59375 37.40625 33.484375 
z
" id="CMSS17-99"/>
       <path d="M 44.203125 21.1875 
C 44.203125 33.984375 34.703125 44 23.5 44 
C 12 44 2.703125 33.6875 2.703125 21.1875 
C 2.703125 8.5 12.296875 -1 23.40625 -1 
C 34.796875 -1 44.203125 8.796875 44.203125 21.1875 
z
M 23.5 5.296875 
C 16.40625 5.296875 10.296875 11.09375 10.296875 21.984375 
C 10.296875 33.59375 17.40625 37.890625 23.40625 37.890625 
C 29.90625 37.890625 36.59375 33.1875 36.59375 21.984375 
C 36.59375 10.6875 30.09375 5.296875 23.5 5.296875 
z
" id="CMSS17-111"/>
       <path d="M 37.59375 27.953125 
C 37.59375 37.484375 30.90625 44 21.90625 44 
C 17.5 44 12.703125 43.1875 7.203125 39.984375 
L 7.796875 33.328125 
C 10.296875 35.15625 14.59375 38.09375 21.796875 38.09375 
C 26.90625 38.09375 30 34.140625 30 27.84375 
L 30 24 
C 14 23.5 4 18.890625 4 11.109375 
C 4 7.0625 6.5 -1 14.796875 -1 
C 16.296875 -1 24.40625 -0.8125 30.203125 3.5 
L 30.203125 -0.203125 
L 37.59375 -0.203125 
z
M 30 12.875 
C 30 11.109375 30 8.734375 27 6.96875 
C 24.40625 5.296875 21.09375 5.09375 19.703125 5.09375 
C 14.703125 5.09375 11.296875 7.859375 11.296875 11.296875 
C 11.296875 18.203125 26.90625 18.890625 30 19 
z
" id="CMSS17-97"/>
       <path d="M 41.796875 43 
L 34 43 
C 25.5 20.203125 22.59375 10.953125 22.40625 5.984375 
L 22.296875 5.984375 
C 22 10.859375 17.59375 22.796875 14.09375 31.34375 
L 9.40625 43 
L 1.296875 43 
L 19 0.21875 
C 17.90625 -2.765625 16.296875 -7.25 15.796875 -8.234375 
C 13.59375 -13.8125 12.09375 -13.8125 10.5 -13.8125 
C 10.09375 -13.8125 6.90625 -13.703125 3.296875 -12.609375 
L 3.90625 -19.203125 
C 6.40625 -19.703125 8.90625 -20 10.703125 -20 
C 13.203125 -20 18.203125 -20 22.796875 -7.734375 
z
" id="CMSS17-121"/>
      </defs>
      <use transform="scale(0.996264)" xlink:href="#CMSS17-100"/>
      <use transform="translate(48.204943 0)scale(0.996264)" xlink:href="#CMSS17-105"/>
      <use transform="translate(70.385666 0)scale(0.996264)" xlink:href="#CMSS17-114"/>
      <use transform="translate(102.295439 0)scale(0.996264)" xlink:href="#CMSS17-101"/>
      <use transform="translate(143.934261 0)scale(0.996264)" xlink:href="#CMSS17-99"/>
      <use transform="translate(185.573083 0)scale(0.996264)" xlink:href="#CMSS17-116"/>
      <use transform="translate(219.40465 0)scale(0.996264)" xlink:href="#CMSS17-105"/>
      <use transform="translate(241.585373 0)scale(0.996264)" xlink:href="#CMSS17-111"/>
      <use transform="translate(288.428996 0)scale(0.996264)" xlink:href="#CMSS17-110"/>
      <use transform="translate(336.633939 0)scale(0.996264)" xlink:href="#CMSS17-97"/>
      <use transform="translate(381.55586 0)scale(0.996264)" xlink:href="#CMSS17-108"/>
      <use transform="translate(403.736583 0)scale(0.996264)" xlink:href="#CMSS17-105"/>
      <use transform="translate(425.917306 0)scale(0.996264)" xlink:href="#CMSS17-116"/>
      <use transform="translate(457.146419 0)scale(0.996264)" xlink:href="#CMSS17-121"/>
      <use transform="translate(531.375673 0)scale(0.996264)" xlink:href="#CMSS17-114"/>
      <use transform="translate(563.285446 0)scale(0.996264)" xlink:href="#CMSS17-97"/>
      <use transform="translate(608.207366 0)scale(0.996264)" xlink:href="#CMSS17-116"/>
      <use transform="translate(642.038933 0)scale(0.996264)" xlink:href="#CMSS17-105"/>
      <use transform="translate(664.219656 0)scale(0.996264)" xlink:href="#CMSS17-111"/>
     </g>
    </g>
   </g>
   <g id="patch_5">
    <path d="M 72 241.92 
L 72 30.24 
" style="fill:none;stroke:#000000;stroke-linecap:square;stroke-linejoin:miter;stroke-width:0.8;"/>
   </g>
   <g id="patch_6">
    <path d="M 266.4 241.92 
L 266.4 30.24 
" style="fill:none;stroke:#000000;stroke-linecap:square;stroke-linejoin:miter;stroke-width:0.8;"/>
   </g>
   <g id="patch_7">
    <path d="M 72 241.92 
L 266.4 241.92 
" style="fill:none;stroke:#000000;stroke-linecap:square;stroke-linejoin:miter;stroke-width:0.8;"/>
   </g>
   <g id="patch_8">
    <path d="M 72 30.24 
L 266.4 30.24 
" style="fill:none;stroke:#000000;stroke-linecap:square;stroke-linejoin:miter;stroke-width:0.8;"/>
   </g>
   <g id="LineCollection_1">
    <path clip-path="url(#p9065e252ab)" d="M 72 212.6376 
L 266.4 212.6376 
" style="fill:none;stroke:#729c27;stroke-opacity:0.5;stroke-width:0.5;"/>
    <path clip-path="url(#p9065e252ab)" d="M 72 218.4588 
L 266.4 218.4588 
" style="fill:none;stroke:#729c27;stroke-opacity:0.5;stroke-width:0.5;"/>
    <path clip-path="url(#p9065e252ab)" d="M 72 236.0988 
L 266.4 236.0988 
" style="fill:none;stroke:#729c27;stroke-opacity:0.5;stroke-width:0.5;"/>
    <path clip-path="url(#p9065e252ab)" d="M 72 230.2776 
L 266.4 230.2776 
" style="fill:none;stroke:#729c27;stroke-opacity:0.5;stroke-width:0.5;"/>
   </g>
   <g id="text_10">
    <!-- final lane design, opening diameter [$\upmu$m] -->
    <g transform="translate(26.914266 24.24)scale(0.18 -0.18)">
     <defs>
      <path d="M 43 70 
L 35 70 
L 35 61.984375 
L 43 61.984375 
z
M 42.703125 43 
L 35.296875 43 
L 35.296875 0 
L 42.703125 0 
z
M 16.796875 37.1875 
L 27.703125 37.1875 
L 27.703125 43 
L 16.59375 43 
L 16.59375 56.453125 
C 16.59375 61.890625 19 64.59375 22.203125 64.59375 
C 24.09375 64.59375 26 64.09375 27.703125 63.1875 
L 27.703125 69.890625 
C 26.90625 70.09375 24.59375 70.6875 22.203125 70.6875 
C 14.703125 70.6875 9.40625 63.09375 9.40625 53.15625 
L 9.40625 43 
L 2.5 43 
L 2.5 37.1875 
L 9.40625 37.1875 
L 9.40625 0 
L 16.796875 0 
z
" id="CMSS17-12"/>
      <path d="M 32.203125 40.984375 
C 26.296875 43.796875 21.703125 44 18.703125 44 
C 11.59375 44 3.09375 41.484375 3.09375 31.390625 
C 3.09375 21.296875 14.09375 19.09375 17.09375 18.484375 
C 21.703125 17.59375 26.796875 16.59375 26.796875 11.59375 
C 26.796875 5.296875 19.59375 5.296875 18.296875 5.296875 
C 14.296875 5.296875 8.796875 6.390625 3.796875 9.984375 
L 2.59375 3.296875 
C 8.296875 0 13.796875 -1 18.40625 -1 
C 30.703125 -1 33.796875 6.5 33.796875 12.1875 
C 33.796875 17.09375 31 20.390625 29.09375 21.890625 
C 25.796875 24.484375 24.59375 24.796875 16.40625 26.484375 
C 15 26.6875 10.09375 27.796875 10.09375 32.296875 
C 10.09375 37.984375 16.40625 37.984375 17.796875 37.984375 
C 24.296875 37.984375 28.296875 35.984375 31 34.484375 
z
" id="CMSS17-115"/>
      <path d="M 15.09375 4.296875 
C 18.40625 1.09375 22.90625 -1 27.703125 -1 
C 37 -1 45 8.640625 45 21.59375 
C 45 33.546875 39 44 30.40625 44 
C 25.40625 44 19.40625 42.1875 14.90625 38.59375 
L 14.90625 43.1875 
L 7.5 43.1875 
L 7.5 -20 
L 15.09375 -20 
z
M 15.09375 32.625 
C 15.90625 33.84375 19.296875 37.6875 24.796875 37.6875 
C 31.796875 37.6875 37.40625 30.40625 37.40625 21.59375 
C 37.40625 11.578125 30.59375 5.09375 23.90625 5.09375 
C 21.90625 5.09375 19.796875 5.59375 17.796875 7.3125 
C 15.09375 9.75 15.09375 11.265625 15.09375 12.6875 
z
" id="CMSS17-112"/>
      <path d="M 67 29.34375 
C 67 36.078125 65.296875 44 54.09375 44 
C 46.59375 44 42.09375 39.296875 40.09375 36.375 
C 38.296875 41.6875 34.09375 44 28.09375 44 
C 21.296875 44 17 40.09375 14.703125 37.28125 
L 14.703125 43.484375 
L 7.40625 43.484375 
L 7.40625 0 
L 15 0 
L 15 24.3125 
C 15 30.25 17.203125 37.890625 24.296875 37.890625 
C 33.40625 37.890625 33.40625 31.453125 33.40625 28.53125 
L 33.40625 0 
L 41 0 
L 41 24.3125 
C 41 30.25 43.203125 37.890625 50.296875 37.890625 
C 59.40625 37.890625 59.40625 31.453125 59.40625 28.53125 
L 59.40625 0 
L 67 0 
z
" id="CMSS17-109"/>
      <path d="M 25.203125 -25 
L 25.203125 -18.90625 
L 16.59375 -18.90625 
L 16.59375 68.890625 
L 25.203125 68.890625 
L 25.203125 75 
L 9.296875 75 
L 9.296875 -25 
z
" id="CMSS17-91"/>
      <path d="M 48.5 46.296875 
L 40.796875 43.09375 
C 41 37.375 41.203125 31.65625 41.203125 25.84375 
C 41.203125 23.734375 41 16.421875 40.90625 11.609375 
C 37.296875 7.703125 31.703125 5.296875 28.09375 5.296875 
C 19.59375 5.296875 18.796875 12.609375 18.796875 18.21875 
L 18.796875 45.1875 
L 17.90625 45.890625 
L 9.59375 43.28125 
C 10 40.875 11.296875 32.359375 11.296875 26.84375 
L 11.296875 7.90625 
C 11.296875 -1.296875 11.09375 -10.34375 10.90625 -19.40625 
L 12.09375 -20 
L 17.40625 -18 
C 16.09375 -11.8125 15.5 -4.453125 15.5 2.09375 
L 16.09375 2.296875 
C 17.796875 0.296875 19.09375 -0.703125 22.296875 -0.703125 
C 27.203125 -0.703125 34.796875 3.59375 40.59375 6.890625 
L 41.40625 6.390625 
C 42 2.296875 43.09375 -0.5 48.296875 -0.5 
C 53.796875 -0.5 59.40625 4.09375 63.5 7.90625 
L 62.703125 9.296875 
L 61.59375 9.5 
C 59.203125 8 56.203125 6.1875 53.90625 6.1875 
C 49.203125 6.1875 48.703125 12.71875 48.703125 16.125 
L 48.703125 32.859375 
C 48.703125 35.96875 49 41.078125 49.296875 45.1875 
z
" id="EURM10-22"/>
      <path d="M 17.90625 75 
L 2 75 
L 2 68.890625 
L 10.59375 68.890625 
L 10.59375 -18.90625 
L 2 -18.90625 
L 2 -25 
L 17.90625 -25 
z
" id="CMSS17-93"/>
     </defs>
     <use transform="scale(0.996264)" xlink:href="#CMSS17-12"/>
     <use transform="translate(50.126737 0)scale(0.996264)" xlink:href="#CMSS17-110"/>
     <use transform="translate(98.33168 0)scale(0.996264)" xlink:href="#CMSS17-97"/>
     <use transform="translate(143.253601 0)scale(0.996264)" xlink:href="#CMSS17-108"/>
     <use transform="translate(196.663437 0)scale(0.996264)" xlink:href="#CMSS17-108"/>
     <use transform="translate(218.84416 0)scale(0.996264)" xlink:href="#CMSS17-97"/>
     <use transform="translate(263.76608 0)scale(0.996264)" xlink:href="#CMSS17-110"/>
     <use transform="translate(311.971024 0)scale(0.996264)" xlink:href="#CMSS17-101"/>
     <use transform="translate(384.838958 0)scale(0.996264)" xlink:href="#CMSS17-100"/>
     <use transform="translate(433.043902 0)scale(0.996264)" xlink:href="#CMSS17-101"/>
     <use transform="translate(474.682724 0)scale(0.996264)" xlink:href="#CMSS17-115"/>
     <use transform="translate(510.596266 0)scale(0.996264)" xlink:href="#CMSS17-105"/>
     <use transform="translate(532.776989 0)scale(0.996264)" xlink:href="#CMSS17-103"/>
     <use transform="translate(579.620612 0)scale(0.996264)" xlink:href="#CMSS17-110"/>
     <use transform="translate(627.825555 0)scale(0.996264)" xlink:href="#CMSS17-44"/>
     <use transform="translate(685.078873 0)scale(0.996264)" xlink:href="#CMSS17-111"/>
     <use transform="translate(731.922496 0)scale(0.996264)" xlink:href="#CMSS17-112"/>
     <use transform="translate(782.729878 0)scale(0.996264)" xlink:href="#CMSS17-101"/>
     <use transform="translate(824.3687 0)scale(0.996264)" xlink:href="#CMSS17-110"/>
     <use transform="translate(872.573644 0)scale(0.996264)" xlink:href="#CMSS17-105"/>
     <use transform="translate(894.754367 0)scale(0.996264)" xlink:href="#CMSS17-110"/>
     <use transform="translate(942.95931 0)scale(0.996264)" xlink:href="#CMSS17-103"/>
     <use transform="translate(1021.032046 0)scale(0.996264)" xlink:href="#CMSS17-100"/>
     <use transform="translate(1069.236989 0)scale(0.996264)" xlink:href="#CMSS17-105"/>
     <use transform="translate(1091.417712 0)scale(0.996264)" xlink:href="#CMSS17-97"/>
     <use transform="translate(1136.339633 0)scale(0.996264)" xlink:href="#CMSS17-109"/>
     <use transform="translate(1210.568887 0)scale(0.996264)" xlink:href="#CMSS17-101"/>
     <use transform="translate(1252.207709 0)scale(0.996264)" xlink:href="#CMSS17-116"/>
     <use transform="translate(1286.039276 0)scale(0.996264)" xlink:href="#CMSS17-101"/>
     <use transform="translate(1327.678098 0)scale(0.996264)" xlink:href="#CMSS17-114"/>
     <use transform="translate(1390.816983 0)scale(0.996264)" xlink:href="#CMSS17-91"/>
     <use transform="translate(1418.002422 0)scale(0.996264)" xlink:href="#EURM10-22"/>
     <use transform="translate(1479.539039 0)scale(0.996264)" xlink:href="#CMSS17-109"/>
     <use transform="translate(1553.768294 0)scale(0.996264)" xlink:href="#CMSS17-93"/>
    </g>
   </g>
   <g id="patch_9">
    <path clip-path="url(#p9065e252ab)" d="M 91.44 241.92 
L 117.36 241.92 
L 117.36 200.76 
L 91.44 200.76 
z
" style="fill:#a55194;"/>
   </g>
   <g id="patch_10">
    <path clip-path="url(#p9065e252ab)" d="M 134.64 241.92 
L 160.56 241.92 
L 160.56 202.23 
L 134.64 202.23 
z
" style="fill:#ce6dbd;"/>
   </g>
   <g id="patch_11">
    <path clip-path="url(#p9065e252ab)" d="M 177.84 241.92 
L 203.76 241.92 
L 203.76 203.7 
L 177.84 203.7 
z
" style="fill:#e7cb94;"/>
   </g>
   <g id="patch_12">
    <path clip-path="url(#p9065e252ab)" d="M 221.04 241.92 
L 246.96 241.92 
L 246.96 227.22 
L 221.04 227.22 
z
" style="fill:#393b79;"/>
   </g>
   <g id="PathCollection_1">
    <defs>
     <path d="M 0 2.5 
C 0.663008 2.5 1.29895 2.236584 1.767767 1.767767 
C 2.236584 1.29895 2.5 0.663008 2.5 0 
C 2.5 -0.663008 2.236584 -1.29895 1.767767 -1.767767 
C 1.29895 -2.236584 0.663008 -2.5 0 -2.5 
C -0.663008 -2.5 -1.29895 -2.236584 -1.767767 -1.767767 
C -2.236584 -1.29895 -2.5 -0.663008 -2.5 0 
C -2.5 0.663008 -2.236584 1.29895 -1.767767 1.767767 
C -1.29895 2.236584 -0.663008 2.5 0 2.5 
z
" id="m978284c9fe" style="stroke:#000000;stroke-opacity:0.7;stroke-width:1.2;"/>
    </defs>
    <g>
     <use style="fill:#ffffff;fill-opacity:0.7;stroke:#000000;stroke-opacity:0.7;stroke-width:1.2;" x="96.405377" xlink:href="#m978284c9fe" y="206.64"/>
     <use style="fill:#ffffff;fill-opacity:0.7;stroke:#000000;stroke-opacity:0.7;stroke-width:1.2;" x="109.974538" xlink:href="#m978284c9fe" y="224.28"/>
     <use style="fill:#ffffff;fill-opacity:0.7;stroke:#000000;stroke-opacity:0.7;stroke-width:1.2;" x="101.984094" xlink:href="#m978284c9fe" y="171.36"/>
     <use style="fill:#ffffff;fill-opacity:0.7;stroke:#000000;stroke-opacity:0.7;stroke-width:1.2;" x="141.155606" xlink:href="#m978284c9fe" y="224.28"/>
     <use style="fill:#ffffff;fill-opacity:0.7;stroke:#000000;stroke-opacity:0.7;stroke-width:1.2;" x="147.984364" xlink:href="#m978284c9fe" y="180.18"/>
     <use style="fill:#ffffff;fill-opacity:0.7;stroke:#000000;stroke-opacity:0.7;stroke-width:1.2;" x="195.465489" xlink:href="#m978284c9fe" y="171.36"/>
     <use style="fill:#ffffff;fill-opacity:0.7;stroke:#000000;stroke-opacity:0.7;stroke-width:1.2;" x="185.889387" xlink:href="#m978284c9fe" y="171.36"/>
     <use style="fill:#ffffff;fill-opacity:0.7;stroke:#000000;stroke-opacity:0.7;stroke-width:1.2;" x="192.923547" xlink:href="#m978284c9fe" y="236.04"/>
     <use style="fill:#ffffff;fill-opacity:0.7;stroke:#000000;stroke-opacity:0.7;stroke-width:1.2;" x="183.634804" xlink:href="#m978284c9fe" y="236.04"/>
     <use style="fill:#ffffff;fill-opacity:0.7;stroke:#000000;stroke-opacity:0.7;stroke-width:1.2;" x="226.25306" xlink:href="#m978284c9fe" y="215.46"/>
     <use style="fill:#ffffff;fill-opacity:0.7;stroke:#000000;stroke-opacity:0.7;stroke-width:1.2;" x="234.541808" xlink:href="#m978284c9fe" y="238.98"/>
    </g>
   </g>
  </g>
 </g>
 <defs>
  <clipPath id="p9065e252ab">
   <rect height="211.68" width="194.4" x="72" y="30.24"/>
  </clipPath>
 </defs>
</svg>
