<?xml version="1.0" encoding="utf-8" standalone="no"?>
<!DOCTYPE svg PUBLIC "-//W3C//DTD SVG 1.1//EN"
  "http://www.w3.org/Graphics/SVG/1.1/DTD/svg11.dtd">
<!-- Created with matplotlib (https://matplotlib.org/) -->
<svg height="302.4pt" version="1.1" viewBox="0 0 381.6 302.4" width="381.6pt" xmlns="http://www.w3.org/2000/svg" xmlns:xlink="http://www.w3.org/1999/xlink">
 <metadata>
  <rdf:RDF xmlns:cc="http://creativecommons.org/ns#" xmlns:dc="http://purl.org/dc/elements/1.1/" xmlns:rdf="http://www.w3.org/1999/02/22-rdf-syntax-ns#">
   <cc:Work>
    <dc:type rdf:resource="http://purl.org/dc/dcmitype/StillImage"/>
    <dc:date>2021-12-23T23:53:41.655141</dc:date>
    <dc:format>image/svg+xml</dc:format>
    <dc:creator>
     <cc:Agent>
      <dc:title>Matplotlib v3.3.4, https://matplotlib.org/</dc:title>
     </cc:Agent>
    </dc:creator>
   </cc:Work>
  </rdf:RDF>
 </metadata>
 <defs>
  <style type="text/css">*{stroke-linecap:butt;stroke-linejoin:round;}</style>
 </defs>
 <g id="figure_1">
  <g id="patch_1">
   <path d="M 0 302.4 
L 381.6 302.4 
L 381.6 0 
L 0 0 
z
" style="fill:#ffffff;"/>
  </g>
  <g id="axes_1">
   <g id="patch_2">
    <path d="M 72 241.92 
L 309.6 241.92 
L 309.6 30.24 
L 72 30.24 
z
" style="fill:#ffffff;"/>
   </g>
   <g id="patch_3">
    <path clip-path="url(#padc2b5b7d1)" d="M 72 161.28 
L 320.4 161.28 
L 320.4 30.24 
L 72 30.24 
z
" style="fill:#01ff6b;opacity:0.12;stroke:#01ff6b;stroke-linejoin:miter;"/>
   </g>
   <g id="patch_4">
    <path clip-path="url(#padc2b5b7d1)" d="M 72 161.28 
L 320.4 161.28 
L 320.4 241.92 
L 72 241.92 
z
" style="fill:#c22121;opacity:0.12;stroke:#c22121;stroke-linejoin:miter;"/>
   </g>
   <g id="matplotlib.axis_1">
    <g id="xtick_1">
     <g id="text_1">
      <!-- 1.5 -->
      <g transform="translate(86.69679 272.962589)rotate(-45)scale(0.18 -0.18)">
       <defs>
        <path d="M 28.40625 67 
L 26.5 67 
C 21.09375 61.5625 14.796875 60.78125 8.40625 60.78125 
L 8.40625 55 
C 11.296875 55 16 55 20.703125 57.296875 
L 20.703125 5.765625 
L 8.90625 5.765625 
L 8.90625 0 
L 40.203125 0 
L 40.203125 5.765625 
L 28.40625 5.765625 
z
" id="CMSS17-49"/>
        <path d="M 17 7.96875 
L 9 7.96875 
L 9 0 
L 17 0 
z
" id="CMSS17-46"/>
        <path d="M 14.59375 58.625 
L 39.09375 58.625 
L 39.09375 65 
L 7.296875 65 
L 7.296875 27.828125 
L 14 27.828125 
C 15.796875 31.96875 19.5 35 24.296875 35 
C 28.796875 35 33.796875 31.078125 33.796875 19.78125 
C 33.796875 7.703125 26.703125 4.171875 21.5 4.171875 
C 15.09375 4.171875 9.203125 8 6.59375 13.296875 
L 3.40625 7.796875 
C 8 0.765625 15.5 -2 21.5 -2 
C 33.09375 -2 42.203125 7.765625 42.203125 19.578125 
C 42.203125 31.71875 34.09375 41.078125 24.40625 41.078125 
C 20.90625 41.078125 17.5 39.890625 14.59375 37.484375 
z
" id="CMSS17-53"/>
       </defs>
       <use transform="scale(0.996264)" xlink:href="#CMSS17-49"/>
       <use transform="translate(46.843624 0)scale(0.996264)" xlink:href="#CMSS17-46"/>
       <use transform="translate(72.867828 0)scale(0.996264)" xlink:href="#CMSS17-53"/>
      </g>
     </g>
    </g>
    <g id="xtick_2">
     <g id="text_2">
      <!-- 3 -->
      <g transform="translate(139.171347 263.688032)rotate(-45)scale(0.18 -0.18)">
       <defs>
        <path d="M 15.703125 31.640625 
L 22.5 31.640625 
C 31.90625 31.640625 34.59375 23.546875 34.59375 17.90625 
C 34.59375 10.203125 30.203125 4.171875 23 4.171875 
C 17.40625 4.171875 9.5 6.9375 5 14.25 
C 4.296875 10.796875 4.296875 10.59375 3.90625 8.21875 
C 8.59375 1.375 16.203125 -2 23.203125 -2 
C 34.59375 -2 43 7.390625 43 17.78125 
C 43 25.59375 37.5 32.140625 30 34.609375 
C 36 37.875 40.40625 44 40.40625 51.140625 
C 40.40625 59.453125 32.703125 66.078125 23.296875 66.078125 
C 14.703125 66.078125 8 60.8125 5.203125 55.15625 
C 5.90625 54.1875 7.703125 51.3125 8.59375 49.828125 
C 10.796875 55.65625 16.5 60 23.203125 60 
C 28.796875 60 32.5 56.359375 32.5 51.109375 
C 32.5 45.671875 29 39.734375 23.09375 38.359375 
C 22.703125 38.359375 16.5 37.765625 15.703125 37.671875 
z
" id="CMSS17-51"/>
       </defs>
       <use transform="scale(0.996264)" xlink:href="#CMSS17-51"/>
      </g>
     </g>
    </g>
    <g id="xtick_3">
     <g id="text_3">
      <!-- 3, inlay -->
      <g transform="translate(152.443031 293.616348)rotate(-45)scale(0.18 -0.18)">
       <defs>
        <path d="M 17 0.09375 
L 17 7.96875 
L 9 7.96875 
L 9 0 
L 11.5 0 
L 8.90625 -12.5 
L 12.90625 -12.5 
z
" id="CMSS17-44"/>
        <path d="M 15.296875 65.359375 
L 6.90625 65.359375 
L 6.90625 57 
L 15.296875 57 
z
M 14.796875 42.796875 
L 7.40625 42.796875 
L 7.40625 0 
L 14.796875 0 
z
" id="CMSS17-105"/>
        <path d="M 40.90625 29.328125 
C 40.90625 35.671875 39.40625 44 28.09375 44 
C 21.703125 44 17.5 40.71875 14.703125 37.328125 
L 14.703125 43.09375 
L 7.40625 43.09375 
L 7.40625 0 
L 15 0 
L 15 24.359375 
C 15 30.6875 17.40625 37.9375 24.203125 37.9375 
C 33 37.9375 33.296875 32 33.296875 28.578125 
L 33.296875 0 
L 40.90625 0 
z
" id="CMSS17-110"/>
        <path d="M 14.796875 69 
L 7.40625 69 
L 7.40625 0 
L 14.796875 0 
z
" id="CMSS17-108"/>
        <path d="M 37.59375 27.984375 
C 37.59375 37.375 30.90625 43.875 21.90625 43.875 
C 17.5 43.875 12.703125 43.078125 7.203125 39.890625 
L 7.796875 33.359375 
C 10.296875 35.125 14.59375 38 21.796875 38 
C 26.90625 38 30 34.0625 30 27.84375 
L 30 24 
C 14 24 4 19.34375 4 11.34375 
C 4 7.203125 6.5 -1 14.796875 -1 
C 16.296875 -1 24.40625 -1 30.203125 3.390625 
L 30.203125 -0.296875 
L 37.59375 -0.296875 
z
M 30 12.75 
C 30 10.953125 30 8.5625 27 6.78125 
C 24.40625 5.078125 21.09375 5.078125 19.703125 5.078125 
C 14.703125 5.078125 11.296875 7.984375 11.296875 11.625 
C 11.296875 18.921875 26.90625 18.921875 30 18.921875 
z
" id="CMSS17-97"/>
        <path d="M 41.796875 43 
L 34 43 
C 25.5 20.21875 22.59375 10.96875 22.40625 5.984375 
L 22.296875 5.984375 
C 22 10.875 17.59375 22.8125 14.09375 31.359375 
L 9.40625 43 
L 1.296875 43 
L 19 0.203125 
C 17.90625 -2.78125 16.296875 -7.265625 15.796875 -8.265625 
C 13.59375 -13.828125 12.09375 -13.828125 10.5 -13.828125 
C 10.09375 -13.828125 6.90625 -13.828125 3.296875 -12.640625 
L 3.90625 -19.203125 
C 6.40625 -19.703125 8.90625 -20 10.703125 -20 
C 13.203125 -20 18.203125 -20 22.796875 -7.765625 
z
" id="CMSS17-121"/>
       </defs>
       <use transform="scale(0.996264)" xlink:href="#CMSS17-51"/>
       <use transform="translate(46.843624 0)scale(0.996264)" xlink:href="#CMSS17-44"/>
       <use transform="translate(104.096941 0)scale(0.996264)" xlink:href="#CMSS17-105"/>
       <use transform="translate(126.277664 0)scale(0.996264)" xlink:href="#CMSS17-110"/>
       <use transform="translate(174.482607 0)scale(0.996264)" xlink:href="#CMSS17-108"/>
       <use transform="translate(196.66333 0)scale(0.996264)" xlink:href="#CMSS17-97"/>
       <use transform="translate(238.982797 0)scale(0.996264)" xlink:href="#CMSS17-121"/>
      </g>
     </g>
    </g>
    <g id="xtick_4">
     <g id="text_4">
      <!-- 3, tang. -->
      <g transform="translate(192.850475 296.408904)rotate(-45)scale(0.18 -0.18)">
       <defs>
        <path d="M 16.703125 37 
L 29.703125 37 
L 29.703125 42.765625 
L 16.703125 42.765625 
L 16.703125 55 
L 9.59375 55 
L 9.59375 42.765625 
L 1.703125 42.765625 
L 1.703125 37 
L 9.40625 37 
L 9.40625 11.703125 
C 9.40625 6 10.703125 -1 17.296875 -1 
C 22.296875 -1 26.90625 0.390625 31.296875 2.6875 
L 29.703125 8.5625 
C 27.296875 6.46875 24.40625 5.265625 21.296875 5.265625 
C 16.90625 5.265625 16.703125 10.875 16.703125 13.375 
z
" id="CMSS17-116"/>
        <path d="M 44.5 43.875 
C 38.796875 43.875 33.90625 42.78125 29.90625 40.890625 
C 26.59375 43.390625 23.203125 43.875 20.90625 43.875 
C 12.203125 43.875 5.59375 36.703125 5.59375 28.34375 
C 5.59375 22.9375 8.59375 18.859375 8.796875 18.671875 
C 7 16.171875 6 13.484375 6 10.5 
C 6 7 7.40625 4.515625 8.5 3.125 
C 3.296875 -0.046875 2.59375 -4.90625 2.59375 -6.796875 
C 2.59375 -14.03125 11.703125 -20 23.40625 -20 
C 35.203125 -20 44.296875 -14.03125 44.296875 -6.6875 
C 44.296875 7 29 7 24.796875 7 
L 16.703125 7 
C 15.203125 7 11.203125 7 11.203125 12.359375 
C 11.203125 14.390625 12.09375 15.6875 12.203125 15.78125 
C 13.703125 14.6875 16.796875 13 20.90625 13 
C 29.203125 13 36.09375 19.96875 36.09375 28.546875 
C 36.09375 33.3125 33.90625 36.796875 33 38 
L 33.296875 38 
C 33.59375 38 37.796875 38 39.296875 38 
C 42.5 38 42.796875 37.953125 45.59375 37.796875 
z
M 20.90625 18.46875 
C 17.5 18.46875 12.703125 20.546875 12.703125 28.484375 
C 12.703125 37.109375 18.203125 38.5 20.796875 38.5 
C 24.203125 38.5 29 36.421875 29 28.484375 
C 29 19.859375 23.5 18.46875 20.90625 18.46875 
z
M 24.703125 -0.15625 
C 27.09375 -0.15625 37.203125 -0.15625 37.203125 -6.90625 
C 37.203125 -11.15625 31 -14.515625 23.5 -14.515625 
C 15.90625 -14.515625 9.703125 -11.25 9.703125 -6.796875 
C 9.703125 -6.296875 9.703125 -0.15625 16.59375 -0.15625 
z
" id="CMSS17-103"/>
       </defs>
       <use transform="scale(0.996264)" xlink:href="#CMSS17-51"/>
       <use transform="translate(46.843624 0)scale(0.996264)" xlink:href="#CMSS17-44"/>
       <use transform="translate(104.096941 0)scale(0.996264)" xlink:href="#CMSS17-116"/>
       <use transform="translate(137.928508 0)scale(0.996264)" xlink:href="#CMSS17-97"/>
       <use transform="translate(182.850428 0)scale(0.996264)" xlink:href="#CMSS17-110"/>
       <use transform="translate(231.055372 0)scale(0.996264)" xlink:href="#CMSS17-103"/>
       <use transform="translate(277.898995 0)scale(0.996264)" xlink:href="#CMSS17-46"/>
      </g>
     </g>
    </g>
    <g id="xtick_5">
     <g id="text_5">
      <!-- 5 -->
      <g transform="translate(268.771347 263.688032)rotate(-45)scale(0.18 -0.18)">
       <use transform="scale(0.996264)" xlink:href="#CMSS17-53"/>
      </g>
     </g>
    </g>
   </g>
   <g id="matplotlib.axis_2">
    <g id="ytick_1">
     <g id="line2d_1">
      <path clip-path="url(#padc2b5b7d1)" d="M 72 221.76 
L 309.6 221.76 
" style="fill:none;stroke:#b0b0b0;stroke-linecap:square;stroke-opacity:0.6;stroke-width:0.7;"/>
     </g>
     <g id="line2d_2">
      <defs>
       <path d="M 0 0 
L -3.5 0 
" id="m02f87f7b62" style="stroke:#000000;stroke-width:0.8;"/>
      </defs>
      <g>
       <use style="stroke:#000000;stroke-width:0.8;" x="72" xlink:href="#m02f87f7b62" y="221.76"/>
      </g>
     </g>
     <g id="text_6">
      <!-- 0.6 -->
      <g transform="translate(46.926206 226.775904)scale(0.145 -0.145)">
       <defs>
        <path d="M 43.09375 31.9375 
C 43.09375 37.578125 43 48.078125 38.90625 56.1875 
C 34.796875 64 28.203125 66.078125 23.5 66.078125 
C 16.703125 66.078125 10.90625 62.109375 7.90625 55.78125 
C 4.703125 49.15625 3.796875 42.328125 3.796875 31.9375 
C 3.796875 24.828125 4.09375 16.109375 7.703125 8.484375 
C 11.796875 0.078125 18.703125 -2 23.40625 -2 
C 29.59375 -2 35.59375 1.265625 39 8.09375 
C 42.5 15.21875 43.09375 23.03125 43.09375 31.9375 
z
M 23.40625 4.078125 
C 15.796875 4.078125 13.5 12.671875 12.796875 15.546875 
C 11.59375 20.46875 11.40625 25.21875 11.40625 33.03125 
C 11.40625 39.15625 11.40625 46.0625 13.296875 51.515625 
C 15.59375 57.828125 19.59375 60 23.40625 60 
C 30.796875 60 33.203125 52.6875 34 50.125 
C 35.5 44.890625 35.5 38.765625 35.5 33.03125 
C 35.5 23.84375 35.5 4.078125 23.40625 4.078125 
z
" id="CMSS17-48"/>
        <path d="M 39 64.078125 
C 34.796875 65.78125 31.796875 66.078125 29 66.078125 
C 16 66.078125 3.90625 52.625 3.90625 31.34375 
C 3.90625 4.140625 15.40625 -2 23.59375 -2 
C 28.09375 -2 32.59375 -0.609375 36.90625 4.375 
C 41.296875 9.640625 43 14.03125 43 21.703125 
C 43 34.046875 36.90625 45 27.796875 45 
C 21.203125 45 15.5 41.515625 12 37.125 
C 13 50.90625 19.59375 60 29.09375 60 
C 31.703125 60 35.09375 59.625 39 57.96875 
z
M 12.09375 21.390625 
C 12.09375 22.1875 12.09375 22.6875 12.203125 24.1875 
C 12.203125 31.953125 16.703125 38.921875 24 38.921875 
C 28.703125 38.921875 31.09375 36.4375 32.90625 33.359375 
C 35 29.46875 35.09375 25.78125 35.09375 21.6875 
C 35.09375 17.8125 35.09375 13.921875 32.796875 9.953125 
C 30.90625 6.859375 28.40625 4.171875 23.59375 4.171875 
C 14.09375 4.171875 12.5 17.40625 12.09375 21.390625 
z
" id="CMSS17-54"/>
       </defs>
       <use transform="scale(0.996264)" xlink:href="#CMSS17-48"/>
       <use transform="translate(46.843624 0)scale(0.996264)" xlink:href="#CMSS17-46"/>
       <use transform="translate(72.867828 0)scale(0.996264)" xlink:href="#CMSS17-54"/>
      </g>
     </g>
    </g>
    <g id="ytick_2">
     <g id="line2d_3">
      <path clip-path="url(#padc2b5b7d1)" d="M 72 191.52 
L 309.6 191.52 
" style="fill:none;stroke:#b0b0b0;stroke-linecap:square;stroke-opacity:0.6;stroke-width:0.7;"/>
     </g>
     <g id="line2d_4">
      <g>
       <use style="stroke:#000000;stroke-width:0.8;" x="72" xlink:href="#m02f87f7b62" y="191.52"/>
      </g>
     </g>
     <g id="text_7">
      <!-- 0.3 -->
      <g transform="translate(46.926206 196.535904)scale(0.145 -0.145)">
       <use transform="scale(0.996264)" xlink:href="#CMSS17-48"/>
       <use transform="translate(46.843624 0)scale(0.996264)" xlink:href="#CMSS17-46"/>
       <use transform="translate(72.867828 0)scale(0.996264)" xlink:href="#CMSS17-51"/>
      </g>
     </g>
    </g>
    <g id="ytick_3">
     <g id="line2d_5">
      <path clip-path="url(#padc2b5b7d1)" d="M 72 161.28 
L 309.6 161.28 
" style="fill:none;stroke:#b0b0b0;stroke-linecap:square;stroke-opacity:0.6;stroke-width:0.7;"/>
     </g>
     <g id="line2d_6">
      <g>
       <use style="stroke:#000000;stroke-width:0.8;" x="72" xlink:href="#m02f87f7b62" y="161.28"/>
      </g>
     </g>
     <g id="text_8">
      <!-- 0.0 -->
      <g transform="translate(46.926206 166.295904)scale(0.145 -0.145)">
       <use transform="scale(0.996264)" xlink:href="#CMSS17-48"/>
       <use transform="translate(46.843624 0)scale(0.996264)" xlink:href="#CMSS17-46"/>
       <use transform="translate(72.867828 0)scale(0.996264)" xlink:href="#CMSS17-48"/>
      </g>
     </g>
    </g>
    <g id="ytick_4">
     <g id="line2d_7">
      <path clip-path="url(#padc2b5b7d1)" d="M 72 131.04 
L 309.6 131.04 
" style="fill:none;stroke:#b0b0b0;stroke-linecap:square;stroke-opacity:0.6;stroke-width:0.7;"/>
     </g>
     <g id="line2d_8">
      <g>
       <use style="stroke:#000000;stroke-width:0.8;" x="72" xlink:href="#m02f87f7b62" y="131.04"/>
      </g>
     </g>
     <g id="text_9">
      <!-- 0.3 -->
      <g transform="translate(46.926206 136.055904)scale(0.145 -0.145)">
       <use transform="scale(0.996264)" xlink:href="#CMSS17-48"/>
       <use transform="translate(46.843624 0)scale(0.996264)" xlink:href="#CMSS17-46"/>
       <use transform="translate(72.867828 0)scale(0.996264)" xlink:href="#CMSS17-51"/>
      </g>
     </g>
    </g>
    <g id="ytick_5">
     <g id="line2d_9">
      <path clip-path="url(#padc2b5b7d1)" d="M 72 100.8 
L 309.6 100.8 
" style="fill:none;stroke:#b0b0b0;stroke-linecap:square;stroke-opacity:0.6;stroke-width:0.7;"/>
     </g>
     <g id="line2d_10">
      <g>
       <use style="stroke:#000000;stroke-width:0.8;" x="72" xlink:href="#m02f87f7b62" y="100.8"/>
      </g>
     </g>
     <g id="text_10">
      <!-- 0.6 -->
      <g transform="translate(46.926206 105.815904)scale(0.145 -0.145)">
       <use transform="scale(0.996264)" xlink:href="#CMSS17-48"/>
       <use transform="translate(46.843624 0)scale(0.996264)" xlink:href="#CMSS17-46"/>
       <use transform="translate(72.867828 0)scale(0.996264)" xlink:href="#CMSS17-54"/>
      </g>
     </g>
    </g>
    <g id="ytick_6">
     <g id="line2d_11">
      <path clip-path="url(#padc2b5b7d1)" d="M 72 60.48 
L 309.6 60.48 
" style="fill:none;stroke:#b0b0b0;stroke-linecap:square;stroke-opacity:0.6;stroke-width:0.7;"/>
     </g>
     <g id="line2d_12">
      <g>
       <use style="stroke:#000000;stroke-width:0.8;" x="72" xlink:href="#m02f87f7b62" y="60.48"/>
      </g>
     </g>
     <g id="text_11">
      <!-- 1.0 -->
      <g transform="translate(46.926206 65.495904)scale(0.145 -0.145)">
       <use transform="scale(0.996264)" xlink:href="#CMSS17-49"/>
       <use transform="translate(46.843624 0)scale(0.996264)" xlink:href="#CMSS17-46"/>
       <use transform="translate(72.867828 0)scale(0.996264)" xlink:href="#CMSS17-48"/>
      </g>
     </g>
    </g>
    <g id="text_12">
     <!-- n axons -->
     <g transform="translate(39.438142 162.928628)rotate(-90)scale(0.18 -0.18)">
      <defs>
       <path d="M 24.796875 22.09375 
L 41.5 42.796875 
L 32.796875 42.796875 
L 21.296875 27.765625 
L 9.40625 42.796875 
L 0.5 42.796875 
L 17.796875 22.09375 
L 0 0 
L 8.796875 0 
L 21.296875 17.515625 
L 34.296875 0 
L 43.09375 0 
z
" id="CMSS17-120"/>
       <path d="M 44.203125 21.1875 
C 44.203125 34 34.703125 44 23.5 44 
C 12 44 2.703125 33.703125 2.703125 21.1875 
C 2.703125 8.5 12.296875 -1 23.40625 -1 
C 34.796875 -1 44.203125 8.796875 44.203125 21.1875 
z
M 23.5 5.265625 
C 16.40625 5.265625 10.296875 11.078125 10.296875 22 
C 10.296875 33.609375 17.40625 37.921875 23.40625 37.921875 
C 29.90625 37.921875 36.59375 33.21875 36.59375 22 
C 36.59375 10.671875 30.09375 5.265625 23.5 5.265625 
z
" id="CMSS17-111"/>
       <path d="M 32.203125 41.046875 
C 26.296875 43.859375 21.703125 43.859375 18.703125 43.859375 
C 11.59375 43.859375 3.09375 41.375 3.09375 31.296875 
C 3.09375 21.234375 14.09375 19.03125 17.09375 18.421875 
C 21.703125 17.53125 26.796875 16.53125 26.796875 11.5625 
C 26.796875 5.265625 19.59375 5.265625 18.296875 5.265625 
C 14.296875 5.265625 8.796875 6.359375 3.796875 9.96875 
L 2.59375 3.28125 
C 8.296875 0 13.796875 -1 18.40625 -1 
C 30.703125 -1 33.796875 6.5 33.796875 12.203125 
C 33.796875 17.09375 31 20.390625 29.09375 21.890625 
C 25.796875 24.5 24.59375 24.796875 16.40625 26.5 
C 15 26.703125 10.09375 27.796875 10.09375 32.28125 
C 10.09375 38 16.40625 38 17.796875 38 
C 24.296875 38 28.296875 35.984375 31 34.5 
z
" id="CMSS17-115"/>
      </defs>
      <use transform="scale(0.996264)" xlink:href="#CMSS17-110"/>
      <use transform="translate(79.434056 0)scale(0.996264)" xlink:href="#CMSS17-97"/>
      <use transform="translate(124.355976 0)scale(0.996264)" xlink:href="#CMSS17-120"/>
      <use transform="translate(167.356118 0)scale(0.996264)" xlink:href="#CMSS17-111"/>
      <use transform="translate(214.199742 0)scale(0.996264)" xlink:href="#CMSS17-110"/>
      <use transform="translate(262.404685 0)scale(0.996264)" xlink:href="#CMSS17-115"/>
     </g>
    </g>
   </g>
   <g id="line2d_13">
    <path clip-path="url(#padc2b5b7d1)" d="M 106.56 176.725161 
L 106.56 179.607273 
" style="fill:none;stroke:#000000;stroke-linecap:square;stroke-opacity:0.7;"/>
   </g>
   <g id="line2d_14">
    <path clip-path="url(#padc2b5b7d1)" d="M 106.56 164.03625 
L 106.56 161.28 
" style="fill:none;stroke:#000000;stroke-linecap:square;stroke-opacity:0.7;"/>
   </g>
   <g id="line2d_15">
    <path clip-path="url(#padc2b5b7d1)" d="M 101.376 179.607273 
L 111.744 179.607273 
" style="fill:none;stroke:#000000;stroke-linecap:square;stroke-opacity:0.7;"/>
   </g>
   <g id="line2d_16">
    <path clip-path="url(#padc2b5b7d1)" d="M 101.376 161.28 
L 111.744 161.28 
" style="fill:none;stroke:#000000;stroke-linecap:square;stroke-opacity:0.7;"/>
   </g>
   <g id="line2d_17">
    <path clip-path="url(#padc2b5b7d1)" d="M 149.76 183.267476 
L 149.76 195.764211 
" style="fill:none;stroke:#000000;stroke-linecap:square;stroke-opacity:0.7;"/>
   </g>
   <g id="line2d_18">
    <path clip-path="url(#padc2b5b7d1)" d="M 149.76 165.06 
L 149.76 161.28 
" style="fill:none;stroke:#000000;stroke-linecap:square;stroke-opacity:0.7;"/>
   </g>
   <g id="line2d_19">
    <path clip-path="url(#padc2b5b7d1)" d="M 144.576 195.764211 
L 154.944 195.764211 
" style="fill:none;stroke:#000000;stroke-linecap:square;stroke-opacity:0.7;"/>
   </g>
   <g id="line2d_20">
    <path clip-path="url(#padc2b5b7d1)" d="M 144.576 161.28 
L 154.944 161.28 
" style="fill:none;stroke:#000000;stroke-linecap:square;stroke-opacity:0.7;"/>
   </g>
   <g id="line2d_21">
    <path clip-path="url(#padc2b5b7d1)" d="M 192.96 173.064706 
L 192.96 179.230685 
" style="fill:none;stroke:#000000;stroke-linecap:square;stroke-opacity:0.7;"/>
   </g>
   <g id="line2d_22">
    <path clip-path="url(#padc2b5b7d1)" d="M 192.96 163.833096 
L 192.96 163.570909 
" style="fill:none;stroke:#000000;stroke-linecap:square;stroke-opacity:0.7;"/>
   </g>
   <g id="line2d_23">
    <path clip-path="url(#padc2b5b7d1)" d="M 187.776 179.230685 
L 198.144 179.230685 
" style="fill:none;stroke:#000000;stroke-linecap:square;stroke-opacity:0.7;"/>
   </g>
   <g id="line2d_24">
    <path clip-path="url(#padc2b5b7d1)" d="M 187.776 163.570909 
L 198.144 163.570909 
" style="fill:none;stroke:#000000;stroke-linecap:square;stroke-opacity:0.7;"/>
   </g>
   <g id="line2d_25">
    <path clip-path="url(#padc2b5b7d1)" d="M 236.16 175.742609 
L 236.16 179.068235 
" style="fill:none;stroke:#000000;stroke-linecap:square;stroke-opacity:0.7;"/>
   </g>
   <g id="line2d_26">
    <path clip-path="url(#padc2b5b7d1)" d="M 236.16 170.16 
L 236.16 163.8 
" style="fill:none;stroke:#000000;stroke-linecap:square;stroke-opacity:0.7;"/>
   </g>
   <g id="line2d_27">
    <path clip-path="url(#padc2b5b7d1)" d="M 230.976 179.068235 
L 241.344 179.068235 
" style="fill:none;stroke:#000000;stroke-linecap:square;stroke-opacity:0.7;"/>
   </g>
   <g id="line2d_28">
    <path clip-path="url(#padc2b5b7d1)" d="M 230.976 163.8 
L 241.344 163.8 
" style="fill:none;stroke:#000000;stroke-linecap:square;stroke-opacity:0.7;"/>
   </g>
   <g id="line2d_29">
    <path clip-path="url(#padc2b5b7d1)" d="M 279.36 172.245611 
L 279.36 179.424 
" style="fill:none;stroke:#000000;stroke-linecap:square;stroke-opacity:0.7;"/>
   </g>
   <g id="line2d_30">
    <path clip-path="url(#padc2b5b7d1)" d="M 279.36 164.256923 
L 279.36 161.28 
" style="fill:none;stroke:#000000;stroke-linecap:square;stroke-opacity:0.7;"/>
   </g>
   <g id="line2d_31">
    <path clip-path="url(#padc2b5b7d1)" d="M 274.176 179.424 
L 284.544 179.424 
" style="fill:none;stroke:#000000;stroke-linecap:square;stroke-opacity:0.7;"/>
   </g>
   <g id="line2d_32">
    <path clip-path="url(#padc2b5b7d1)" d="M 274.176 161.28 
L 284.544 161.28 
" style="fill:none;stroke:#000000;stroke-linecap:square;stroke-opacity:0.7;"/>
   </g>
   <g id="line2d_33">
    <path clip-path="url(#padc2b5b7d1)" d="M 106.56 102.634839 
L 106.56 120.415135 
" style="fill:none;stroke:#000000;stroke-linecap:square;stroke-opacity:0.7;"/>
   </g>
   <g id="line2d_34">
    <path clip-path="url(#padc2b5b7d1)" d="M 106.56 87.651007 
L 106.56 82.53 
" style="fill:none;stroke:#000000;stroke-linecap:square;stroke-opacity:0.7;"/>
   </g>
   <g id="line2d_35">
    <path clip-path="url(#padc2b5b7d1)" d="M 101.376 120.415135 
L 111.744 120.415135 
" style="fill:none;stroke:#000000;stroke-linecap:square;stroke-opacity:0.7;"/>
   </g>
   <g id="line2d_36">
    <path clip-path="url(#padc2b5b7d1)" d="M 101.376 82.53 
L 111.744 82.53 
" style="fill:none;stroke:#000000;stroke-linecap:square;stroke-opacity:0.7;"/>
   </g>
   <g id="line2d_37">
    <path clip-path="url(#padc2b5b7d1)" d="M 149.76 111.397808 
L 149.76 113.532632 
" style="fill:none;stroke:#000000;stroke-linecap:square;stroke-opacity:0.7;"/>
   </g>
   <g id="line2d_38">
    <path clip-path="url(#padc2b5b7d1)" d="M 149.76 94.555472 
L 149.76 91.495385 
" style="fill:none;stroke:#000000;stroke-linecap:square;stroke-opacity:0.7;"/>
   </g>
   <g id="line2d_39">
    <path clip-path="url(#padc2b5b7d1)" d="M 144.576 113.532632 
L 154.944 113.532632 
" style="fill:none;stroke:#000000;stroke-linecap:square;stroke-opacity:0.7;"/>
   </g>
   <g id="line2d_40">
    <path clip-path="url(#padc2b5b7d1)" d="M 144.576 91.495385 
L 154.944 91.495385 
" style="fill:none;stroke:#000000;stroke-linecap:square;stroke-opacity:0.7;"/>
   </g>
   <g id="line2d_41">
    <path clip-path="url(#padc2b5b7d1)" d="M 192.96 101.72878 
L 192.96 109.587692 
" style="fill:none;stroke:#000000;stroke-linecap:square;stroke-opacity:0.7;"/>
   </g>
   <g id="line2d_42">
    <path clip-path="url(#padc2b5b7d1)" d="M 192.96 92.139178 
L 192.96 91.84 
" style="fill:none;stroke:#000000;stroke-linecap:square;stroke-opacity:0.7;"/>
   </g>
   <g id="line2d_43">
    <path clip-path="url(#padc2b5b7d1)" d="M 187.776 109.587692 
L 198.144 109.587692 
" style="fill:none;stroke:#000000;stroke-linecap:square;stroke-opacity:0.7;"/>
   </g>
   <g id="line2d_44">
    <path clip-path="url(#padc2b5b7d1)" d="M 187.776 91.84 
L 198.144 91.84 
" style="fill:none;stroke:#000000;stroke-linecap:square;stroke-opacity:0.7;"/>
   </g>
   <g id="line2d_45">
    <path clip-path="url(#padc2b5b7d1)" d="M 236.16 97.94087 
L 236.16 99.923478 
" style="fill:none;stroke:#000000;stroke-linecap:square;stroke-opacity:0.7;"/>
   </g>
   <g id="line2d_46">
    <path clip-path="url(#padc2b5b7d1)" d="M 236.16 92.070899 
L 236.16 85.266885 
" style="fill:none;stroke:#000000;stroke-linecap:square;stroke-opacity:0.7;"/>
   </g>
   <g id="line2d_47">
    <path clip-path="url(#padc2b5b7d1)" d="M 230.976 99.923478 
L 241.344 99.923478 
" style="fill:none;stroke:#000000;stroke-linecap:square;stroke-opacity:0.7;"/>
   </g>
   <g id="line2d_48">
    <path clip-path="url(#padc2b5b7d1)" d="M 230.976 85.266885 
L 241.344 85.266885 
" style="fill:none;stroke:#000000;stroke-linecap:square;stroke-opacity:0.7;"/>
   </g>
   <g id="line2d_49">
    <path clip-path="url(#padc2b5b7d1)" d="M 279.36 95.256 
L 279.36 103.126154 
" style="fill:none;stroke:#000000;stroke-linecap:square;stroke-opacity:0.7;"/>
   </g>
   <g id="line2d_50">
    <path clip-path="url(#padc2b5b7d1)" d="M 279.36 84.858261 
L 279.36 81.526154 
" style="fill:none;stroke:#000000;stroke-linecap:square;stroke-opacity:0.7;"/>
   </g>
   <g id="line2d_51">
    <path clip-path="url(#padc2b5b7d1)" d="M 274.176 103.126154 
L 284.544 103.126154 
" style="fill:none;stroke:#000000;stroke-linecap:square;stroke-opacity:0.7;"/>
   </g>
   <g id="line2d_52">
    <path clip-path="url(#padc2b5b7d1)" d="M 274.176 81.526154 
L 284.544 81.526154 
" style="fill:none;stroke:#000000;stroke-linecap:square;stroke-opacity:0.7;"/>
   </g>
   <g id="patch_5">
    <path d="M 72 241.92 
L 72 30.24 
" style="fill:none;stroke:#000000;stroke-linecap:square;stroke-linejoin:miter;stroke-width:0.8;"/>
   </g>
   <g id="patch_6">
    <path d="M 309.6 241.92 
L 309.6 30.24 
" style="fill:none;stroke:#000000;stroke-linecap:square;stroke-linejoin:miter;stroke-width:0.8;"/>
   </g>
   <g id="patch_7">
    <path d="M 72 241.92 
L 309.6 241.92 
" style="fill:none;stroke:#000000;stroke-linecap:square;stroke-linejoin:miter;stroke-width:0.8;"/>
   </g>
   <g id="patch_8">
    <path d="M 72 30.24 
L 309.6 30.24 
" style="fill:none;stroke:#000000;stroke-linecap:square;stroke-linejoin:miter;stroke-width:0.8;"/>
   </g>
   <g id="text_13">
    <!-- 2-joint design, opening diameter [$\upmu$m] -->
    <g transform="translate(57.486632 24.24)scale(0.18 -0.18)">
     <defs>
      <path d="M 25.796875 21.203125 
C 28.59375 24.078125 32.796875 27.5625 35.703125 31.046875 
C 38.5 34.4375 42.203125 39.234375 42.203125 46.203125 
C 42.203125 57.140625 34.796875 67 22.203125 67 
C 12.296875 67 6.59375 60.828125 3.90625 51.15625 
C 4.90625 49.765625 6.40625 47.765625 7.796875 45.765625 
C 10 54.84375 13.09375 60.625 20.90625 60.625 
C 29.5 60.625 34.296875 53.640625 34.296875 45.96875 
C 34.296875 36.796875 27.296875 29.703125 22 24.421875 
C 16.09375 18.546875 10.296875 12.5625 4.703125 6.375 
L 4.703125 0 
L 42.203125 0 
L 42.203125 6.765625 
L 25.203125 6.765625 
C 24 6.765625 22.796875 6.765625 21.59375 6.765625 
L 11.59375 6.765625 
L 11.59375 6.859375 
z
" id="CMSS17-50"/>
      <path d="M 26 19 
L 26 24.765625 
L 1 24.765625 
L 1 19 
z
" id="CMSS17-45"/>
      <path d="M 17.40625 66 
L 9 66 
L 9 57.640625 
L 17.40625 57.640625 
z
M -5.796875 -16.625 
C -2.59375 -18.609375 1.296875 -20 5.5 -20 
C 11.796875 -20 17.40625 -14.609375 17.40625 -5.71875 
L 17.40625 43.234375 
L 10 43.234375 
L 10 -6.640625 
C 10 -12.734375 5.40625 -13.640625 2.796875 -13.640625 
C 0.59375 -13.640625 -2 -12.9375 -4.296875 -10.546875 
z
" id="CMSS17-106"/>
      <path d="M 40.796875 69 
L 33.40625 69 
L 33.40625 38.09375 
C 30.296875 40.671875 25.203125 43.0625 19.59375 43.0625 
C 10.5 43.0625 3.296875 33.296875 3.296875 21.046875 
C 3.296875 8.78125 10.40625 -1 19.296875 -1 
C 26.203125 -1 30.796875 2.6875 33.203125 4.78125 
L 33.203125 -0.203125 
L 40.796875 -0.203125 
z
M 33.203125 13.0625 
C 33.203125 11.671875 33.203125 10.203125 30.09375 7.53125 
C 28.09375 5.859375 25.703125 5.078125 23.40625 5.078125 
C 18 5.078125 10.90625 9 10.90625 20.9375 
C 10.90625 33.34375 18.90625 37 24.40625 37 
C 28.09375 37 31.09375 35.21875 33.203125 32.265625 
z
" id="CMSS17-100"/>
      <path d="M 39.09375 21.515625 
C 39.09375 24.84375 38.90625 31.296875 35.703125 36.640625 
C 32.203125 42.390625 26.5 44 22.203125 44 
C 11.796875 44 3 34.1875 3 21.484375 
C 3 9.09375 12.09375 -1 23.59375 -1 
C 28.09375 -1 33.59375 0.296875 38.59375 3.875 
C 38.59375 4.28125 38.40625 6.46875 38.296875 6.5625 
C 38.296875 6.765625 38 9.84375 38 10.25 
C 33.203125 6.359375 27.703125 5.078125 23.703125 5.078125 
C 17.296875 5.078125 10.40625 10.421875 10.09375 21.515625 
z
M 10.90625 27 
C 12.203125 32.5625 16.59375 37.828125 22.203125 37.828125 
C 23.703125 37.828125 30.703125 37.828125 32.5 27 
z
" id="CMSS17-101"/>
      <path d="M 15.09375 5.203125 
C 18.40625 2.015625 22.90625 -0.078125 27.703125 -0.078125 
C 37 -0.078125 45 9.421875 45 22.0625 
C 45 33.734375 39 44 30.40625 44 
C 25.40625 44 19.40625 42.21875 14.90625 38.625 
L 14.90625 43.203125 
L 7.5 43.203125 
L 7.5 -19 
L 15.09375 -19 
z
M 15.09375 32.8125 
C 15.90625 34 19.296875 37.734375 24.796875 37.734375 
C 31.796875 37.734375 37.40625 30.625 37.40625 22.0625 
C 37.40625 12.296875 30.59375 6 23.90625 6 
C 21.90625 6 19.796875 6.484375 17.796875 8.171875 
C 15.09375 10.53125 15.09375 12 15.09375 13.390625 
z
" id="CMSS17-112"/>
      <path d="M 67 29.328125 
C 67 36.0625 65.296875 44 54.09375 44 
C 46.59375 44 42.09375 39.3125 40.09375 36.421875 
C 38.296875 41.71875 34.09375 44 28.09375 44 
C 21.296875 44 17 40.125 14.703125 37.328125 
L 14.703125 43.09375 
L 7.40625 43.09375 
L 7.40625 0 
L 15 0 
L 15 24.359375 
C 15 30.296875 17.203125 37.9375 24.296875 37.9375 
C 33.40625 37.9375 33.40625 31.5 33.40625 28.578125 
L 33.40625 0 
L 41 0 
L 41 24.359375 
C 41 30.296875 43.203125 37.9375 50.296875 37.9375 
C 59.40625 37.9375 59.40625 31.5 59.40625 28.578125 
L 59.40625 0 
L 67 0 
z
" id="CMSS17-109"/>
      <path d="M 14.90625 21.296875 
C 14.90625 30.703125 21.796875 37 30.59375 37 
L 30.59375 43.578125 
C 24.203125 43.578125 18.203125 40.390625 14.59375 35.203125 
L 14.59375 43.09375 
L 7.5 43.09375 
L 7.5 0 
L 14.90625 0 
z
" id="CMSS17-114"/>
      <path d="M 25.203125 -25 
L 25.203125 -18.9375 
L 16.59375 -18.9375 
L 16.59375 68 
L 25.203125 68 
L 25.203125 74.078125 
L 9.296875 74.078125 
L 9.296875 -25 
z
" id="CMSS17-91"/>
      <path d="M 48.5 46.75 
L 40.796875 43.5625 
C 41 37.90625 41.203125 32.234375 41.203125 26.46875 
C 41.203125 24.390625 41 17.125 40.90625 12.359375 
C 38.796875 10.625 36.59375 9.0625 34.09375 7.90625 
C 32.296875 6.9375 30.203125 6.265625 28.09375 6.265625 
C 26.09375 6.265625 23.796875 6.265625 22.296875 7.75 
C 19.296875 10.71875 18.796875 14.96875 18.796875 19.03125 
C 18.796875 27.921875 18.796875 36.84375 18.796875 45.65625 
L 17.90625 46.34375 
L 9.59375 43.765625 
C 9.59375 43.671875 11 32.9375 11.59375 27.46875 
C 11.59375 21.21875 11.59375 15 11.59375 8.75 
C 11.59375 -0.359375 11.40625 -9.46875 11.203125 -18.578125 
L 12.40625 -19.1875 
L 17.40625 -17.1875 
C 16 -10.71875 16 -3.65625 16 3.125 
C 17.5 1.375 19.59375 0 22.09375 0 
C 26.59375 0 34.5 4.28125 40.296875 7.5 
C 40.5 7.59375 40.703125 7.390625 40.90625 7.28125 
C 41.203125 7.171875 41.296875 6.96875 41.5 6.75 
C 41.796875 4.75 42.203125 2.640625 43.5 1.265625 
C 44.703125 0 46.59375 0 48.296875 0 
C 50.796875 0 53.09375 1.03125 55.203125 2.28125 
C 58.296875 3.921875 61 6.3125 63.5 8.6875 
L 62.09375 10.578125 
C 59.5 8.984375 56.40625 7 53.90625 7 
C 52.90625 7 51.796875 7.390625 51.09375 8.09375 
C 50.09375 8.984375 49.703125 10.28125 49.296875 11.46875 
C 48.90625 13.25 48.703125 15.046875 48.703125 16.828125 
C 48.703125 22.296875 48.703125 27.859375 48.703125 33.421875 
C 48.703125 36.515625 49 41.578125 49.296875 45.65625 
z
" id="EURM10-22"/>
      <path d="M 17.90625 74.078125 
L 2 74.078125 
L 2 68 
L 10.59375 68 
L 10.59375 -18.9375 
L 2 -18.9375 
L 2 -25 
L 17.90625 -25 
z
" id="CMSS17-93"/>
     </defs>
     <use transform="scale(0.996264)" xlink:href="#CMSS17-50"/>
     <use transform="translate(46.843624 0)scale(0.996264)" xlink:href="#CMSS17-45"/>
     <use transform="translate(78.072736 0)scale(0.996264)" xlink:href="#CMSS17-106"/>
     <use transform="translate(102.855822 0)scale(0.996264)" xlink:href="#CMSS17-111"/>
     <use transform="translate(149.699446 0)scale(0.996264)" xlink:href="#CMSS17-105"/>
     <use transform="translate(171.880169 0)scale(0.996264)" xlink:href="#CMSS17-110"/>
     <use transform="translate(220.085112 0)scale(0.996264)" xlink:href="#CMSS17-116"/>
     <use transform="translate(285.145791 0)scale(0.996264)" xlink:href="#CMSS17-100"/>
     <use transform="translate(333.350734 0)scale(0.996264)" xlink:href="#CMSS17-101"/>
     <use transform="translate(374.989556 0)scale(0.996264)" xlink:href="#CMSS17-115"/>
     <use transform="translate(410.903098 0)scale(0.996264)" xlink:href="#CMSS17-105"/>
     <use transform="translate(433.083821 0)scale(0.996264)" xlink:href="#CMSS17-103"/>
     <use transform="translate(479.927445 0)scale(0.996264)" xlink:href="#CMSS17-110"/>
     <use transform="translate(528.132388 0)scale(0.996264)" xlink:href="#CMSS17-44"/>
     <use transform="translate(585.385706 0)scale(0.996264)" xlink:href="#CMSS17-111"/>
     <use transform="translate(632.229329 0)scale(0.996264)" xlink:href="#CMSS17-112"/>
     <use transform="translate(683.036711 0)scale(0.996264)" xlink:href="#CMSS17-101"/>
     <use transform="translate(724.675533 0)scale(0.996264)" xlink:href="#CMSS17-110"/>
     <use transform="translate(772.880476 0)scale(0.996264)" xlink:href="#CMSS17-105"/>
     <use transform="translate(795.061199 0)scale(0.996264)" xlink:href="#CMSS17-110"/>
     <use transform="translate(843.266142 0)scale(0.996264)" xlink:href="#CMSS17-103"/>
     <use transform="translate(921.338879 0)scale(0.996264)" xlink:href="#CMSS17-100"/>
     <use transform="translate(969.543822 0)scale(0.996264)" xlink:href="#CMSS17-105"/>
     <use transform="translate(991.724545 0)scale(0.996264)" xlink:href="#CMSS17-97"/>
     <use transform="translate(1036.646466 0)scale(0.996264)" xlink:href="#CMSS17-109"/>
     <use transform="translate(1110.87572 0)scale(0.996264)" xlink:href="#CMSS17-101"/>
     <use transform="translate(1152.514542 0)scale(0.996264)" xlink:href="#CMSS17-116"/>
     <use transform="translate(1186.346109 0)scale(0.996264)" xlink:href="#CMSS17-101"/>
     <use transform="translate(1227.984931 0)scale(0.996264)" xlink:href="#CMSS17-114"/>
     <use transform="translate(1291.123816 0)scale(0.996264)" xlink:href="#CMSS17-91"/>
     <use transform="translate(1318.309255 0)scale(0.996264)" xlink:href="#EURM10-22"/>
     <use transform="translate(1379.845872 0)scale(0.996264)" xlink:href="#CMSS17-109"/>
     <use transform="translate(1454.075127 0)scale(0.996264)" xlink:href="#CMSS17-93"/>
    </g>
   </g>
   <g id="patch_9">
    <path clip-path="url(#padc2b5b7d1)" d="M 96.192 176.725161 
L 116.928 176.725161 
L 116.928 164.03625 
L 96.192 164.03625 
L 96.192 176.725161 
z
" style="fill:#e7969c;stroke:#e7969c;stroke-linejoin:miter;"/>
   </g>
   <g id="patch_10">
    <path clip-path="url(#padc2b5b7d1)" d="M 139.392 183.267476 
L 160.128 183.267476 
L 160.128 165.06 
L 139.392 165.06 
L 139.392 183.267476 
z
" style="fill:#e7cb94;stroke:#e7cb94;stroke-linejoin:miter;"/>
   </g>
   <g id="patch_11">
    <path clip-path="url(#padc2b5b7d1)" d="M 182.592 173.064706 
L 203.328 173.064706 
L 203.328 163.833096 
L 182.592 163.833096 
L 182.592 173.064706 
z
" style="fill:#843c39;stroke:#843c39;stroke-linejoin:miter;"/>
   </g>
   <g id="patch_12">
    <path clip-path="url(#padc2b5b7d1)" d="M 225.792 175.742609 
L 246.528 175.742609 
L 246.528 170.16 
L 225.792 170.16 
L 225.792 175.742609 
z
" style="fill:#d6616b;stroke:#d6616b;stroke-linejoin:miter;"/>
   </g>
   <g id="patch_13">
    <path clip-path="url(#padc2b5b7d1)" d="M 268.992 172.245611 
L 289.728 172.245611 
L 289.728 164.256923 
L 268.992 164.256923 
L 268.992 172.245611 
z
" style="fill:#ad494a;stroke:#ad494a;stroke-linejoin:miter;"/>
   </g>
   <g id="patch_14">
    <path clip-path="url(#padc2b5b7d1)" d="M 96.192 102.634839 
L 116.928 102.634839 
L 116.928 87.651007 
L 96.192 87.651007 
L 96.192 102.634839 
z
" style="fill:#e7969c;stroke:#e7969c;stroke-linejoin:miter;"/>
   </g>
   <g id="patch_15">
    <path clip-path="url(#padc2b5b7d1)" d="M 139.392 111.397808 
L 160.128 111.397808 
L 160.128 94.555472 
L 139.392 94.555472 
L 139.392 111.397808 
z
" style="fill:#e7cb94;stroke:#e7cb94;stroke-linejoin:miter;"/>
   </g>
   <g id="patch_16">
    <path clip-path="url(#padc2b5b7d1)" d="M 182.592 101.72878 
L 203.328 101.72878 
L 203.328 92.139178 
L 182.592 92.139178 
L 182.592 101.72878 
z
" style="fill:#843c39;stroke:#843c39;stroke-linejoin:miter;"/>
   </g>
   <g id="patch_17">
    <path clip-path="url(#padc2b5b7d1)" d="M 225.792 97.94087 
L 246.528 97.94087 
L 246.528 92.070899 
L 225.792 92.070899 
L 225.792 97.94087 
z
" style="fill:#d6616b;stroke:#d6616b;stroke-linejoin:miter;"/>
   </g>
   <g id="patch_18">
    <path clip-path="url(#padc2b5b7d1)" d="M 268.992 95.256 
L 289.728 95.256 
L 289.728 84.858261 
L 268.992 84.858261 
L 268.992 95.256 
z
" style="fill:#ad494a;stroke:#ad494a;stroke-linejoin:miter;"/>
   </g>
   <g id="PathCollection_1">
    <defs>
     <path d="M 2.738613 0 
L -2.738613 -0 
" id="m67d6ba9c45" style="stroke:#000000;stroke-opacity:0.15;stroke-width:1.4;"/>
    </defs>
    <g>
     <use style="fill-opacity:0.15;stroke:#000000;stroke-opacity:0.15;stroke-width:1.4;" x="109.197188" xlink:href="#m67d6ba9c45" y="179.607273"/>
     <use style="fill-opacity:0.15;stroke:#000000;stroke-opacity:0.15;stroke-width:1.4;" x="109.510663" xlink:href="#m67d6ba9c45" y="172.305"/>
     <use style="fill-opacity:0.15;stroke:#000000;stroke-opacity:0.15;stroke-width:1.4;" x="106.80369" xlink:href="#m67d6ba9c45" y="161.28"/>
     <use style="fill-opacity:0.15;stroke:#000000;stroke-opacity:0.15;stroke-width:1.4;" x="108.151795" xlink:href="#m67d6ba9c45" y="178.08"/>
     <use style="fill-opacity:0.15;stroke:#000000;stroke-opacity:0.15;stroke-width:1.4;" x="106.832606" xlink:href="#m67d6ba9c45" y="172.660645"/>
     <use style="fill-opacity:0.15;stroke:#000000;stroke-opacity:0.15;stroke-width:1.4;" x="104.481125" xlink:href="#m67d6ba9c45" y="161.28"/>
    </g>
   </g>
   <g id="PathCollection_2">
    <g>
     <use style="fill-opacity:0.15;stroke:#000000;stroke-opacity:0.15;stroke-width:1.4;" x="149.119532" xlink:href="#m67d6ba9c45" y="187.515616"/>
     <use style="fill-opacity:0.15;stroke:#000000;stroke-opacity:0.15;stroke-width:1.4;" x="149.965174" xlink:href="#m67d6ba9c45" y="181.851429"/>
     <use style="fill-opacity:0.15;stroke:#000000;stroke-opacity:0.15;stroke-width:1.4;" x="149.053087" xlink:href="#m67d6ba9c45" y="195.764211"/>
     <use style="fill-opacity:0.15;stroke:#000000;stroke-opacity:0.15;stroke-width:1.4;" x="149.41995" xlink:href="#m67d6ba9c45" y="171.618462"/>
     <use style="fill-opacity:0.15;stroke:#000000;stroke-opacity:0.15;stroke-width:1.4;" x="149.617855" xlink:href="#m67d6ba9c45" y="170.789434"/>
     <use style="fill-opacity:0.15;stroke:#000000;stroke-opacity:0.15;stroke-width:1.4;" x="149.634218" xlink:href="#m67d6ba9c45" y="161.28"/>
     <use style="fill-opacity:0.15;stroke:#000000;stroke-opacity:0.15;stroke-width:1.4;" x="149.841272" xlink:href="#m67d6ba9c45" y="166.32"/>
     <use style="fill-opacity:0.15;stroke:#000000;stroke-opacity:0.15;stroke-width:1.4;" x="148.110547" xlink:href="#m67d6ba9c45" y="161.28"/>
    </g>
   </g>
   <g id="PathCollection_3">
    <g>
     <use style="fill-opacity:0.15;stroke:#000000;stroke-opacity:0.15;stroke-width:1.4;" x="191.844896" xlink:href="#m67d6ba9c45" y="168.746667"/>
     <use style="fill-opacity:0.15;stroke:#000000;stroke-opacity:0.15;stroke-width:1.4;" x="190.962215" xlink:href="#m67d6ba9c45" y="173.04"/>
     <use style="fill-opacity:0.15;stroke:#000000;stroke-opacity:0.15;stroke-width:1.4;" x="194.480699" xlink:href="#m67d6ba9c45" y="173.138824"/>
     <use style="fill-opacity:0.15;stroke:#000000;stroke-opacity:0.15;stroke-width:1.4;" x="189.685298" xlink:href="#m67d6ba9c45" y="179.230685"/>
     <use style="fill-opacity:0.15;stroke:#000000;stroke-opacity:0.15;stroke-width:1.4;" x="194.754064" xlink:href="#m67d6ba9c45" y="163.738537"/>
     <use style="fill-opacity:0.15;stroke:#000000;stroke-opacity:0.15;stroke-width:1.4;" x="195.116051" xlink:href="#m67d6ba9c45" y="165.76"/>
     <use style="fill-opacity:0.15;stroke:#000000;stroke-opacity:0.15;stroke-width:1.4;" x="192.490049" xlink:href="#m67d6ba9c45" y="163.570909"/>
     <use style="fill-opacity:0.15;stroke:#000000;stroke-opacity:0.15;stroke-width:1.4;" x="188.911601" xlink:href="#m67d6ba9c45" y="163.864615"/>
    </g>
   </g>
   <g id="PathCollection_4">
    <g>
     <use style="fill-opacity:0.15;stroke:#000000;stroke-opacity:0.15;stroke-width:1.4;" x="235.59809" xlink:href="#m67d6ba9c45" y="178.810435"/>
     <use style="fill-opacity:0.15;stroke:#000000;stroke-opacity:0.15;stroke-width:1.4;" x="236.060181" xlink:href="#m67d6ba9c45" y="174.499672"/>
     <use style="fill-opacity:0.15;stroke:#000000;stroke-opacity:0.15;stroke-width:1.4;" x="234.588318" xlink:href="#m67d6ba9c45" y="179.068235"/>
     <use style="fill-opacity:0.15;stroke:#000000;stroke-opacity:0.15;stroke-width:1.4;" x="235.358732" xlink:href="#m67d6ba9c45" y="174.593208"/>
     <use style="fill-opacity:0.15;stroke:#000000;stroke-opacity:0.15;stroke-width:1.4;" x="238.53976" xlink:href="#m67d6ba9c45" y="163.8"/>
     <use style="fill-opacity:0.15;stroke:#000000;stroke-opacity:0.15;stroke-width:1.4;" x="237.194095" xlink:href="#m67d6ba9c45" y="168"/>
     <use style="fill-opacity:0.15;stroke:#000000;stroke-opacity:0.15;stroke-width:1.4;" x="234.722118" xlink:href="#m67d6ba9c45" y="170.88"/>
     <use style="fill-opacity:0.15;stroke:#000000;stroke-opacity:0.15;stroke-width:1.4;" x="233.675414" xlink:href="#m67d6ba9c45" y="174.72"/>
    </g>
   </g>
   <g id="PathCollection_5">
    <g>
     <use style="fill-opacity:0.15;stroke:#000000;stroke-opacity:0.15;stroke-width:1.4;" x="278.851423" xlink:href="#m67d6ba9c45" y="164.603077"/>
     <use style="fill-opacity:0.15;stroke:#000000;stroke-opacity:0.15;stroke-width:1.4;" x="279.028032" xlink:href="#m67d6ba9c45" y="179.424"/>
     <use style="fill-opacity:0.15;stroke:#000000;stroke-opacity:0.15;stroke-width:1.4;" x="280.131689" xlink:href="#m67d6ba9c45" y="174.127059"/>
     <use style="fill-opacity:0.15;stroke:#000000;stroke-opacity:0.15;stroke-width:1.4;" x="278.527475" xlink:href="#m67d6ba9c45" y="167.28"/>
     <use style="fill-opacity:0.15;stroke:#000000;stroke-opacity:0.15;stroke-width:1.4;" x="280.155484" xlink:href="#m67d6ba9c45" y="161.28"/>
     <use style="fill-opacity:0.15;stroke:#000000;stroke-opacity:0.15;stroke-width:1.4;" x="282.369552" xlink:href="#m67d6ba9c45" y="170.045217"/>
     <use style="fill-opacity:0.15;stroke:#000000;stroke-opacity:0.15;stroke-width:1.4;" x="280.628267" xlink:href="#m67d6ba9c45" y="163.218462"/>
     <use style="fill-opacity:0.15;stroke:#000000;stroke-opacity:0.15;stroke-width:1.4;" x="279.285213" xlink:href="#m67d6ba9c45" y="171.618462"/>
    </g>
   </g>
   <g id="PathCollection_6">
    <defs>
     <path d="M -2.738613 0 
L 2.738613 0 
M 0 2.738613 
L 0 -2.738613 
" id="m339584432a" style="stroke:#000000;stroke-opacity:0.15;stroke-width:1.4;"/>
    </defs>
    <g>
     <use style="fill-opacity:0.15;stroke:#000000;stroke-opacity:0.15;stroke-width:1.4;" x="106.275164" xlink:href="#m339584432a" y="95.607273"/>
     <use style="fill-opacity:0.15;stroke:#000000;stroke-opacity:0.15;stroke-width:1.4;" x="106.005302" xlink:href="#m339584432a" y="82.53"/>
     <use style="fill-opacity:0.15;stroke:#000000;stroke-opacity:0.15;stroke-width:1.4;" x="108.396133" xlink:href="#m339584432a" y="120.415135"/>
     <use style="fill-opacity:0.15;stroke:#000000;stroke-opacity:0.15;stroke-width:1.4;" x="105.584402" xlink:href="#m339584432a" y="103.68"/>
     <use style="fill-opacity:0.15;stroke:#000000;stroke-opacity:0.15;stroke-width:1.4;" x="106.63033" xlink:href="#m339584432a" y="99.499355"/>
     <use style="fill-opacity:0.15;stroke:#000000;stroke-opacity:0.15;stroke-width:1.4;" x="106.639623" xlink:href="#m339584432a" y="84.998919"/>
    </g>
   </g>
   <g id="PathCollection_7">
    <g>
     <use style="fill-opacity:0.15;stroke:#000000;stroke-opacity:0.15;stroke-width:1.4;" x="148.979625" xlink:href="#m339584432a" y="112.951233"/>
     <use style="fill-opacity:0.15;stroke:#000000;stroke-opacity:0.15;stroke-width:1.4;" x="147.625542" xlink:href="#m339584432a" y="105.737143"/>
     <use style="fill-opacity:0.15;stroke:#000000;stroke-opacity:0.15;stroke-width:1.4;" x="150.26229" xlink:href="#m339584432a" y="113.532632"/>
     <use style="fill-opacity:0.15;stroke:#000000;stroke-opacity:0.15;stroke-width:1.4;" x="149.665127" xlink:href="#m339584432a" y="94.08"/>
     <use style="fill-opacity:0.15;stroke:#000000;stroke-opacity:0.15;stroke-width:1.4;" x="150.537974" xlink:href="#m339584432a" y="94.713962"/>
     <use style="fill-opacity:0.15;stroke:#000000;stroke-opacity:0.15;stroke-width:1.4;" x="148.930145" xlink:href="#m339584432a" y="110.88"/>
     <use style="fill-opacity:0.15;stroke:#000000;stroke-opacity:0.15;stroke-width:1.4;" x="151.658621" xlink:href="#m339584432a" y="95.76"/>
     <use style="fill-opacity:0.15;stroke:#000000;stroke-opacity:0.15;stroke-width:1.4;" x="148.396441" xlink:href="#m339584432a" y="91.495385"/>
    </g>
   </g>
   <g id="PathCollection_8">
    <g>
     <use style="fill-opacity:0.15;stroke:#000000;stroke-opacity:0.15;stroke-width:1.4;" x="195.622565" xlink:href="#m339584432a" y="101.546667"/>
     <use style="fill-opacity:0.15;stroke:#000000;stroke-opacity:0.15;stroke-width:1.4;" x="190.242076" xlink:href="#m339584432a" y="100.8"/>
     <use style="fill-opacity:0.15;stroke:#000000;stroke-opacity:0.15;stroke-width:1.4;" x="193.636154" xlink:href="#m339584432a" y="100.009412"/>
     <use style="fill-opacity:0.15;stroke:#000000;stroke-opacity:0.15;stroke-width:1.4;" x="193.69939" xlink:href="#m339584432a" y="92.238904"/>
     <use style="fill-opacity:0.15;stroke:#000000;stroke-opacity:0.15;stroke-width:1.4;" x="191.72275" xlink:href="#m339584432a" y="102.275122"/>
     <use style="fill-opacity:0.15;stroke:#000000;stroke-opacity:0.15;stroke-width:1.4;" x="193.620017" xlink:href="#m339584432a" y="91.84"/>
     <use style="fill-opacity:0.15;stroke:#000000;stroke-opacity:0.15;stroke-width:1.4;" x="194.949907" xlink:href="#m339584432a" y="76.516364"/>
     <use style="fill-opacity:0.15;stroke:#000000;stroke-opacity:0.15;stroke-width:1.4;" x="189.512403" xlink:href="#m339584432a" y="109.587692"/>
    </g>
   </g>
   <g id="PathCollection_9">
    <g>
     <use style="fill-opacity:0.15;stroke:#000000;stroke-opacity:0.15;stroke-width:1.4;" x="236.941869" xlink:href="#m339584432a" y="99.923478"/>
     <use style="fill-opacity:0.15;stroke:#000000;stroke-opacity:0.15;stroke-width:1.4;" x="232.282465" xlink:href="#m339584432a" y="85.266885"/>
     <use style="fill-opacity:0.15;stroke:#000000;stroke-opacity:0.15;stroke-width:1.4;" x="234.658198" xlink:href="#m339584432a" y="93.091765"/>
     <use style="fill-opacity:0.15;stroke:#000000;stroke-opacity:0.15;stroke-width:1.4;" x="238.69368" xlink:href="#m339584432a" y="89.008302"/>
     <use style="fill-opacity:0.15;stroke:#000000;stroke-opacity:0.15;stroke-width:1.4;" x="235.255213" xlink:href="#m339584432a" y="95.76"/>
     <use style="fill-opacity:0.15;stroke:#000000;stroke-opacity:0.15;stroke-width:1.4;" x="234.334382" xlink:href="#m339584432a" y="94.08"/>
     <use style="fill-opacity:0.15;stroke:#000000;stroke-opacity:0.15;stroke-width:1.4;" x="235.852167" xlink:href="#m339584432a" y="97.28"/>
     <use style="fill-opacity:0.15;stroke:#000000;stroke-opacity:0.15;stroke-width:1.4;" x="239.376008" xlink:href="#m339584432a" y="107.52"/>
    </g>
   </g>
   <g id="PathCollection_10">
    <g>
     <use style="fill-opacity:0.15;stroke:#000000;stroke-opacity:0.15;stroke-width:1.4;" x="276.511368" xlink:href="#m339584432a" y="81.526154"/>
     <use style="fill-opacity:0.15;stroke:#000000;stroke-opacity:0.15;stroke-width:1.4;" x="277.725003" xlink:href="#m339584432a" y="98.784"/>
     <use style="fill-opacity:0.15;stroke:#000000;stroke-opacity:0.15;stroke-width:1.4;" x="281.688806" xlink:href="#m339584432a" y="92.103529"/>
     <use style="fill-opacity:0.15;stroke:#000000;stroke-opacity:0.15;stroke-width:1.4;" x="282.249099" xlink:href="#m339584432a" y="85.68"/>
     <use style="fill-opacity:0.15;stroke:#000000;stroke-opacity:0.15;stroke-width:1.4;" x="279.199144" xlink:href="#m339584432a" y="87.36"/>
     <use style="fill-opacity:0.15;stroke:#000000;stroke-opacity:0.15;stroke-width:1.4;" x="277.433025" xlink:href="#m339584432a" y="82.393043"/>
     <use style="fill-opacity:0.15;stroke:#000000;stroke-opacity:0.15;stroke-width:1.4;" x="282.619456" xlink:href="#m339584432a" y="103.126154"/>
     <use style="fill-opacity:0.15;stroke:#000000;stroke-opacity:0.15;stroke-width:1.4;" x="281.839677" xlink:href="#m339584432a" y="94.08"/>
    </g>
   </g>
   <g id="line2d_53">
    <path clip-path="url(#padc2b5b7d1)" d="M 96.192 172.482823 
L 116.928 172.482823 
" style="fill:none;stroke:#000000;stroke-linecap:square;"/>
   </g>
   <g id="line2d_54">
    <path clip-path="url(#padc2b5b7d1)" d="M 139.392 171.203948 
L 160.128 171.203948 
" style="fill:none;stroke:#000000;stroke-linecap:square;"/>
   </g>
   <g id="line2d_55">
    <path clip-path="url(#padc2b5b7d1)" d="M 182.592 167.253333 
L 203.328 167.253333 
" style="fill:none;stroke:#000000;stroke-linecap:square;"/>
   </g>
   <g id="line2d_56">
    <path clip-path="url(#padc2b5b7d1)" d="M 225.792 174.54644 
L 246.528 174.54644 
" style="fill:none;stroke:#000000;stroke-linecap:square;"/>
   </g>
   <g id="line2d_57">
    <path clip-path="url(#padc2b5b7d1)" d="M 268.992 168.662609 
L 289.728 168.662609 
" style="fill:none;stroke:#000000;stroke-linecap:square;"/>
   </g>
   <g id="line2d_58">
    <path clip-path="url(#padc2b5b7d1)" d="M 96.192 97.553314 
L 116.928 97.553314 
" style="fill:none;stroke:#000000;stroke-linecap:square;"/>
   </g>
   <g id="line2d_59">
    <path clip-path="url(#padc2b5b7d1)" d="M 139.392 100.748571 
L 160.128 100.748571 
" style="fill:none;stroke:#000000;stroke-linecap:square;"/>
   </g>
   <g id="line2d_60">
    <path clip-path="url(#padc2b5b7d1)" d="M 182.592 100.404706 
L 203.328 100.404706 
" style="fill:none;stroke:#000000;stroke-linecap:square;"/>
   </g>
   <g id="line2d_61">
    <path clip-path="url(#padc2b5b7d1)" d="M 225.792 94.92 
L 246.528 94.92 
" style="fill:none;stroke:#000000;stroke-linecap:square;"/>
   </g>
   <g id="line2d_62">
    <path clip-path="url(#padc2b5b7d1)" d="M 268.992 89.731765 
L 289.728 89.731765 
" style="fill:none;stroke:#000000;stroke-linecap:square;"/>
   </g>
  </g>
 </g>
 <defs>
  <clipPath id="padc2b5b7d1">
   <rect height="211.68" width="237.6" x="72" y="30.24"/>
  </clipPath>
 </defs>
</svg>
