<?xml version="1.0" encoding="UTF-8" standalone="no"?>
<svg
   xmlns:dc="http://purl.org/dc/elements/1.1/"
   xmlns:cc="http://creativecommons.org/ns#"
   xmlns:rdf="http://www.w3.org/1999/02/22-rdf-syntax-ns#"
   xmlns:svg="http://www.w3.org/2000/svg"
   xmlns="http://www.w3.org/2000/svg"
   xmlns:sodipodi="http://sodipodi.sourceforge.net/DTD/sodipodi-0.dtd"
   xmlns:inkscape="http://www.inkscape.org/namespaces/inkscape"
   width="210mm"
   height="297mm"
   viewBox="0 0 210 297"
   version="1.1"
   id="svg40469"
   sodipodi:docname="LAYOUT.svg"
   inkscape:version="1.0.2 (e86c870879, 2021-01-15, custom)">
  <sodipodi:namedview
     pagecolor="#ffffff"
     bordercolor="#666666"
     borderopacity="1"
     objecttolerance="10"
     gridtolerance="10"
     guidetolerance="10"
     inkscape:pageopacity="0"
     inkscape:pageshadow="2"
     inkscape:window-width="1920"
     inkscape:window-height="1021"
     id="namedview39060"
     showgrid="false"
     showguides="true"
     inkscape:guide-bbox="true"
     inkscape:zoom="0.90079731"
     inkscape:cx="285.18032"
     inkscape:cy="212.65825"
     inkscape:window-x="0"
     inkscape:window-y="36"
     inkscape:window-maximized="1"
     inkscape:current-layer="layer1"
     inkscape:document-rotation="0">
    <sodipodi:guide
       position="105,322.92895"
       orientation="-1,0"
       id="guide39623"
       inkscape:label=""
       inkscape:locked="false"
       inkscape:color="rgb(0,0,255)" />
    <sodipodi:guide
       position="25,310.59279"
       orientation="-1,0"
       id="guide39625"
       inkscape:label=""
       inkscape:locked="false"
       inkscape:color="rgb(0,0,255)" />
    <sodipodi:guide
       position="185,328.15385"
       orientation="-1,0"
       id="guide40272"
       inkscape:label=""
       inkscape:locked="false"
       inkscape:color="rgb(0,0,255)" />
    <sodipodi:guide
       position="33,243.62308"
       orientation="-1,0"
       id="guide40274"
       inkscape:label=""
       inkscape:locked="false"
       inkscape:color="rgb(0,0,255)" />
    <sodipodi:guide
       position="113,275.81539"
       orientation="-1,0"
       id="guide40276"
       inkscape:label=""
       inkscape:locked="false"
       inkscape:color="rgb(0,0,255)" />
    <sodipodi:guide
       position="-52.33846,272"
       orientation="0,1"
       id="guide40278"
       inkscape:label=""
       inkscape:locked="false"
       inkscape:color="rgb(0,0,255)" />
    <sodipodi:guide
       position="-32.414,25"
       orientation="0,1"
       id="guide40280"
       inkscape:label=""
       inkscape:locked="false"
       inkscape:color="rgb(0,0,255)" />
  </sodipodi:namedview>
  <defs
     id="defs40463">
    <style
       type="text/css"
       id="style205375">*{stroke-linecap:butt;stroke-linejoin:round;}</style>
    <path
       d="M 8.90625 69  L 8.90625 0  L 33.5 0  C 49.90625 0 62.5 15.3125 62.5 33.90625  C 62.5 53.09375 49.90625 69 33.5 69  z M 17.09375 5.578125  L 17.09375 63.421875  L 31.296875 63.421875  C 44.703125 63.421875 54.296875 51.203125 54.296875 33.90625  C 54.296875 17.296875 44.796875 5.578125 31.296875 5.578125  z "
       id="CMSS17-68" />
    <path
       d="M 43.09375 31.9375  C 43.09375 37.578125 43 48.078125 38.90625 56.1875  C 34.796875 64 28.203125 66.078125 23.5 66.078125  C 16.703125 66.078125 10.90625 62.109375 7.90625 55.78125  C 4.703125 49.15625 3.796875 42.328125 3.796875 31.9375  C 3.796875 24.828125 4.09375 16.109375 7.703125 8.484375  C 11.796875 0.078125 18.703125 -2 23.40625 -2  C 29.59375 -2 35.59375 1.265625 39 8.09375  C 42.5 15.21875 43.09375 23.03125 43.09375 31.9375  z M 23.40625 4.078125  C 15.796875 4.078125 13.5 12.671875 12.796875 15.546875  C 11.59375 20.46875 11.40625 25.21875 11.40625 33.03125  C 11.40625 39.15625 11.40625 46.0625 13.296875 51.515625  C 15.59375 57.828125 19.59375 60 23.40625 60  C 30.796875 60 33.203125 52.6875 34 50.125  C 35.5 44.890625 35.5 38.765625 35.5 33.03125  C 35.5 23.84375 35.5 4.078125 23.40625 4.078125  z "
       id="CMSS17-48" />
    <path
       d="M 28.40625 67  L 26.5 67  C 21.09375 61.5625 14.796875 60.78125 8.40625 60.78125  L 8.40625 55  C 11.296875 55 16 55 20.703125 57.296875  L 20.703125 5.765625  L 8.90625 5.765625  L 8.90625 0  L 40.203125 0  L 40.203125 5.765625  L 28.40625 5.765625  z "
       id="CMSS17-49" />
    <path
       d="M 25.796875 21.203125  C 28.59375 24.078125 32.796875 27.5625 35.703125 31.046875  C 38.5 34.4375 42.203125 39.234375 42.203125 46.203125  C 42.203125 57.140625 34.796875 67 22.203125 67  C 12.296875 67 6.59375 60.828125 3.90625 51.15625  C 4.90625 49.765625 6.40625 47.765625 7.796875 45.765625  C 10 54.84375 13.09375 60.625 20.90625 60.625  C 29.5 60.625 34.296875 53.640625 34.296875 45.96875  C 34.296875 36.796875 27.296875 29.703125 22 24.421875  C 16.09375 18.546875 10.296875 12.5625 4.703125 6.375  L 4.703125 0  L 42.203125 0  L 42.203125 6.765625  L 25.203125 6.765625  C 24 6.765625 22.796875 6.765625 21.59375 6.765625  L 11.59375 6.765625  L 11.59375 6.859375  z "
       id="CMSS17-50" />
    <path
       d="M 15.703125 31.640625  L 22.5 31.640625  C 31.90625 31.640625 34.59375 23.546875 34.59375 17.90625  C 34.59375 10.203125 30.203125 4.171875 23 4.171875  C 17.40625 4.171875 9.5 6.9375 5 14.25  C 4.296875 10.796875 4.296875 10.59375 3.90625 8.21875  C 8.59375 1.375 16.203125 -2 23.203125 -2  C 34.59375 -2 43 7.390625 43 17.78125  C 43 25.59375 37.5 32.140625 30 34.609375  C 36 37.875 40.40625 44 40.40625 51.140625  C 40.40625 59.453125 32.703125 66.078125 23.296875 66.078125  C 14.703125 66.078125 8 60.8125 5.203125 55.15625  C 5.90625 54.1875 7.703125 51.3125 8.59375 49.828125  C 10.796875 55.65625 16.5 60 23.203125 60  C 28.796875 60 32.5 56.359375 32.5 51.109375  C 32.5 45.671875 29 39.734375 23.09375 38.359375  C 22.703125 38.359375 16.5 37.765625 15.703125 37.671875  z "
       id="CMSS17-51" />
    <path
       d="M 35.203125 17  L 44.296875 17  L 44.296875 23.078125  L 35.203125 23.078125  L 35.203125 65.5  L 26.40625 65.5  L 2.59375 23.078125  L 2.59375 17  L 27.296875 17  L 27.296875 0  L 35.203125 0  z M 10.296875 23.078125  C 16.09375 33.234375 27.59375 53.734375 27.59375 60.703125  L 27.59375 23.078125  z "
       id="CMSS17-52" />
    <path
       d="M 14.59375 58.625  L 39.09375 58.625  L 39.09375 65  L 7.296875 65  L 7.296875 27.828125  L 14 27.828125  C 15.796875 31.96875 19.5 35 24.296875 35  C 28.796875 35 33.796875 31.078125 33.796875 19.78125  C 33.796875 7.703125 26.703125 4.171875 21.5 4.171875  C 15.09375 4.171875 9.203125 8 6.59375 13.296875  L 3.40625 7.796875  C 8 0.765625 15.5 -2 21.5 -2  C 33.09375 -2 42.203125 7.765625 42.203125 19.578125  C 42.203125 31.71875 34.09375 41.078125 24.40625 41.078125  C 20.90625 41.078125 17.5 39.890625 14.59375 37.484375  z "
       id="CMSS17-53" />
    <path
       d="M 39 64.078125  C 34.796875 65.78125 31.796875 66.078125 29 66.078125  C 16 66.078125 3.90625 52.625 3.90625 31.34375  C 3.90625 4.140625 15.40625 -2 23.59375 -2  C 28.09375 -2 32.59375 -0.609375 36.90625 4.375  C 41.296875 9.640625 43 14.03125 43 21.703125  C 43 34.046875 36.90625 45 27.796875 45  C 21.203125 45 15.5 41.515625 12 37.125  C 13 50.90625 19.59375 60 29.09375 60  C 31.703125 60 35.09375 59.625 39 57.96875  z M 12.09375 21.390625  C 12.09375 22.1875 12.09375 22.6875 12.203125 24.1875  C 12.203125 31.953125 16.703125 38.921875 24 38.921875  C 28.703125 38.921875 31.09375 36.4375 32.90625 33.359375  C 35 29.46875 35.09375 25.78125 35.09375 21.6875  C 35.09375 17.8125 35.09375 13.921875 32.796875 9.953125  C 30.90625 6.859375 28.40625 4.171875 23.59375 4.171875  C 14.09375 4.171875 12.5 17.40625 12.09375 21.390625  z "
       id="CMSS17-54" />
    <path
       d="M 21.703125 59  C 22.90625 59 24.09375 59 25.296875 59  L 36.796875 59  C 22.5 42.359375 14.296875 21.328125 14.296875 -0.5  L 22.296875 -0.5  C 22.296875 20.671875 29.296875 42.125 43 59.296875  L 43 65.765625  L 3.90625 65.765625  L 3.90625 59  z "
       id="CMSS17-55" />
    <path
       d="M 30.203125 34.71875  C 37.796875 37.1875 41.703125 43.125 41.703125 48.96875  C 41.703125 58.15625 33.703125 66.078125 23.5 66.078125  C 12.90625 66.078125 5.203125 57.9375 5.203125 49.125  C 5.203125 43.4375 9 37.546875 16.703125 35.015625  C 6.90625 31.203125 3.90625 23.625 3.90625 17.953125  C 3.90625 6.96875 12.796875 -2 23.40625 -2  C 34.40625 -2 43 7.109375 43 17.78125  C 43 24.328125 39.09375 31.25 30.203125 34.71875  z M 23.5 38  C 16.796875 38 12.296875 42.375 12.296875 49  C 12.296875 55.71875 16.796875 60 23.5 60  C 29.703125 60 34.59375 56.109375 34.59375 49  C 34.59375 41.984375 29.796875 38 23.5 38  z M 23.5 4.171875  C 17.796875 4.171875 11.703125 8.078125 11.703125 18.0625  C 11.703125 28.328125 18.5 31.921875 23.40625 31.921875  C 28.796875 31.921875 35.203125 28.125 35.203125 18.0625  C 35.203125 7.671875 28.59375 4.171875 23.5 4.171875  z "
       id="CMSS17-56" />
    <path
       d="M 6.796875 2.71875  C 9.59375 0.328125 13.203125 -2 19.296875 -2  C 31.40625 -2 43 11.265625 43 32.734375  C 43 61.4375 30.5 66.078125 23.796875 66.078125  C 17.09375 66.078125 12.796875 63.140625 9.09375 58.453125  C 4.703125 53.078125 3.90625 48.28125 3.90625 42.703125  C 3.90625 36.046875 5.09375 31.953125 7.90625 27.265625  C 11.703125 21.203125 15.203125 19.921875 19.09375 19.921875  C 25 19.921875 30.90625 22.796875 34.90625 27.75  C 34.203125 14.09375 28.09375 4.171875 19.296875 4.171875  C 15.703125 4.171875 12.796875 5.296875 9.90625 8.0625  z M 34.59375 42.90625  C 34.703125 42.234375 34.703125 40.96875 34.703125 40.5625  C 34.703125 32.40625 29.90625 26 22.90625 26  C 18.296875 26 15.90625 28.328125 14.09375 31.34375  C 11.90625 35.140625 11.796875 38.828125 11.796875 42.703125  C 11.796875 46.5 11.796875 50.6875 14.59375 54.859375  C 16.703125 57.859375 19.296875 60 23.796875 60  C 33 60 34.5 46.875 34.59375 42.90625  z "
       id="CMSS17-57" />
    <path
       d="M 0 0  L -3.5 0  "
       id="m4b3285f0f0"
       style="stroke:#000000;stroke-width:0.8;" />
    <path
       d="M 40.90625 29.328125  C 40.90625 35.671875 39.40625 44 28.09375 44  C 21.703125 44 17.5 40.71875 14.703125 37.328125  L 14.703125 43.09375  L 7.40625 43.09375  L 7.40625 0  L 15 0  L 15 24.359375  C 15 30.6875 17.40625 37.9375 24.203125 37.9375  C 33 37.9375 33.296875 32 33.296875 28.578125  L 33.296875 0  L 40.90625 0  z "
       id="CMSS17-110" />
    <path
       d="M 37.59375 27.984375  C 37.59375 37.375 30.90625 43.875 21.90625 43.875  C 17.5 43.875 12.703125 43.078125 7.203125 39.890625  L 7.796875 33.359375  C 10.296875 35.125 14.59375 38 21.796875 38  C 26.90625 38 30 34.0625 30 27.84375  L 30 24  C 14 24 4 19.34375 4 11.34375  C 4 7.203125 6.5 -1 14.796875 -1  C 16.296875 -1 24.40625 -1 30.203125 3.390625  L 30.203125 -0.296875  L 37.59375 -0.296875  z M 30 12.75  C 30 10.953125 30 8.5625 27 6.78125  C 24.40625 5.078125 21.09375 5.078125 19.703125 5.078125  C 14.703125 5.078125 11.296875 7.984375 11.296875 11.625  C 11.296875 18.921875 26.90625 18.921875 30 18.921875  z "
       id="CMSS17-97" />
    <path
       d="M 24.796875 22.09375  L 41.5 42.796875  L 32.796875 42.796875  L 21.296875 27.765625  L 9.40625 42.796875  L 0.5 42.796875  L 17.796875 22.09375  L 0 0  L 8.796875 0  L 21.296875 17.515625  L 34.296875 0  L 43.09375 0  z "
       id="CMSS17-120" />
    <path
       d="M 44.203125 21.1875  C 44.203125 34 34.703125 44 23.5 44  C 12 44 2.703125 33.703125 2.703125 21.1875  C 2.703125 8.5 12.296875 -1 23.40625 -1  C 34.796875 -1 44.203125 8.796875 44.203125 21.1875  z M 23.5 5.265625  C 16.40625 5.265625 10.296875 11.078125 10.296875 22  C 10.296875 33.609375 17.40625 37.921875 23.40625 37.921875  C 29.90625 37.921875 36.59375 33.21875 36.59375 22  C 36.59375 10.671875 30.09375 5.265625 23.5 5.265625  z "
       id="CMSS17-111" />
    <path
       d="M 32.203125 41.046875  C 26.296875 43.859375 21.703125 43.859375 18.703125 43.859375  C 11.59375 43.859375 3.09375 41.375 3.09375 31.296875  C 3.09375 21.234375 14.09375 19.03125 17.09375 18.421875  C 21.703125 17.53125 26.796875 16.53125 26.796875 11.5625  C 26.796875 5.265625 19.59375 5.265625 18.296875 5.265625  C 14.296875 5.265625 8.796875 6.359375 3.796875 9.96875  L 2.59375 3.28125  C 8.296875 0 13.796875 -1 18.40625 -1  C 30.703125 -1 33.796875 6.5 33.796875 12.203125  C 33.796875 17.09375 31 20.390625 29.09375 21.890625  C 25.796875 24.5 24.59375 24.796875 16.40625 26.5  C 15 26.703125 10.09375 27.796875 10.09375 32.28125  C 10.09375 38 16.40625 38 17.796875 38  C 24.296875 38 28.296875 35.984375 31 34.5  z "
       id="CMSS17-115" />
    <path
       d="M 40.796875 69  L 33.40625 69  L 33.40625 38.09375  C 30.296875 40.671875 25.203125 43.0625 19.59375 43.0625  C 10.5 43.0625 3.296875 33.296875 3.296875 21.046875  C 3.296875 8.78125 10.40625 -1 19.296875 -1  C 26.203125 -1 30.796875 2.6875 33.203125 4.78125  L 33.203125 -0.203125  L 40.796875 -0.203125  z M 33.203125 13.0625  C 33.203125 11.671875 33.203125 10.203125 30.09375 7.53125  C 28.09375 5.859375 25.703125 5.078125 23.40625 5.078125  C 18 5.078125 10.90625 9 10.90625 20.9375  C 10.90625 33.34375 18.90625 37 24.40625 37  C 28.09375 37 31.09375 35.21875 33.203125 32.265625  z "
       id="CMSS17-100" />
    <path
       d="M 39.09375 21.515625  C 39.09375 24.84375 38.90625 31.296875 35.703125 36.640625  C 32.203125 42.390625 26.5 44 22.203125 44  C 11.796875 44 3 34.1875 3 21.484375  C 3 9.09375 12.09375 -1 23.59375 -1  C 28.09375 -1 33.59375 0.296875 38.59375 3.875  C 38.59375 4.28125 38.40625 6.46875 38.296875 6.5625  C 38.296875 6.765625 38 9.84375 38 10.25  C 33.203125 6.359375 27.703125 5.078125 23.703125 5.078125  C 17.296875 5.078125 10.40625 10.421875 10.09375 21.515625  z M 10.90625 27  C 12.203125 32.5625 16.59375 37.828125 22.203125 37.828125  C 23.703125 37.828125 30.703125 37.828125 32.5 27  z "
       id="CMSS17-101" />
    <path
       d="M 15.296875 65.359375  L 6.90625 65.359375  L 6.90625 57  L 15.296875 57  z M 14.796875 42.796875  L 7.40625 42.796875  L 7.40625 0  L 14.796875 0  z "
       id="CMSS17-105" />
    <path
       d="M 44.5 43.875  C 38.796875 43.875 33.90625 42.78125 29.90625 40.890625  C 26.59375 43.390625 23.203125 43.875 20.90625 43.875  C 12.203125 43.875 5.59375 36.703125 5.59375 28.34375  C 5.59375 22.9375 8.59375 18.859375 8.796875 18.671875  C 7 16.171875 6 13.484375 6 10.5  C 6 7 7.40625 4.515625 8.5 3.125  C 3.296875 -0.046875 2.59375 -4.90625 2.59375 -6.796875  C 2.59375 -14.03125 11.703125 -20 23.40625 -20  C 35.203125 -20 44.296875 -14.03125 44.296875 -6.6875  C 44.296875 7 29 7 24.796875 7  L 16.703125 7  C 15.203125 7 11.203125 7 11.203125 12.359375  C 11.203125 14.390625 12.09375 15.6875 12.203125 15.78125  C 13.703125 14.6875 16.796875 13 20.90625 13  C 29.203125 13 36.09375 19.96875 36.09375 28.546875  C 36.09375 33.3125 33.90625 36.796875 33 38  L 33.296875 38  C 33.59375 38 37.796875 38 39.296875 38  C 42.5 38 42.796875 37.953125 45.59375 37.796875  z M 20.90625 18.46875  C 17.5 18.46875 12.703125 20.546875 12.703125 28.484375  C 12.703125 37.109375 18.203125 38.5 20.796875 38.5  C 24.203125 38.5 29 36.421875 29 28.484375  C 29 19.859375 23.5 18.46875 20.90625 18.46875  z M 24.703125 -0.15625  C 27.09375 -0.15625 37.203125 -0.15625 37.203125 -6.90625  C 37.203125 -11.15625 31 -14.515625 23.5 -14.515625  C 15.90625 -14.515625 9.703125 -11.25 9.703125 -6.796875  C 9.703125 -6.296875 9.703125 -0.15625 16.59375 -0.15625  z "
       id="CMSS17-103" />
    <path
       d="M 2.738613 0  L -2.738613 -0  "
       id="md4382e90ef"
       style="stroke:#000000;stroke-opacity:0.15;stroke-width:1.4;" />
    <path
       d="M -2.738613 0  L 2.738613 0  M 0 2.738613  L 0 -2.738613  "
       id="m89dfcfb711"
       style="stroke:#000000;stroke-opacity:0.15;stroke-width:1.4;" />
    <clipPath
       id="p4939bbbac5">
      <rect
         height="211.68"
         width="928.8"
         x="72"
         y="30.24"
         id="rect207196" />
    </clipPath>
  </defs>
  <metadata
     id="metadata40466">
    <rdf:RDF>
      <cc:Work
         rdf:about="">
        <dc:format>image/svg+xml</dc:format>
        <dc:type
           rdf:resource="http://purl.org/dc/dcmitype/StillImage" />
        <dc:title />
      </cc:Work>
    </rdf:RDF>
  </metadata>
  <g
     id="layer1"
     transform="translate(-5.7111053)">
    <text
       xml:space="preserve"
       style="font-style:normal;font-weight:normal;font-size:6.35px;line-height:1.25;font-family:sans-serif;fill:#000000;fill-opacity:1;stroke:none;stroke-width:0.264583"
       x="30.187691"
       y="31.053154"
       id="text39729-0"><tspan
         id="tspan39727-5"
         x="30.187691"
         y="31.053154"
         style="font-style:italic;font-variant:normal;font-weight:500;font-stretch:normal;font-size:6.35px;font-family:'CMU Serif Upright Italic';-inkscape-font-specification:'CMU Serif Upright Italic, Medium Italic';font-variant-ligatures:normal;font-variant-caps:normal;font-variant-numeric:normal;font-variant-east-asian:normal;stroke-width:0.264583">A</tspan></text>
    <text
       xml:space="preserve"
       style="font-style:normal;font-weight:normal;font-size:6.35px;line-height:1.25;font-family:sans-serif;fill:#000000;fill-opacity:1;stroke:none;stroke-width:0.264583"
       x="30.169333"
       y="112.14776"
       id="text39729-0-4"><tspan
         id="tspan39727-5-7"
         x="30.169333"
         y="112.14776"
         style="font-style:italic;font-variant:normal;font-weight:500;font-stretch:normal;font-size:6.35px;font-family:'CMU Serif Upright Italic';-inkscape-font-specification:'CMU Serif Upright Italic, Medium Italic';font-variant-ligatures:normal;font-variant-caps:normal;font-variant-numeric:normal;font-variant-east-asian:normal;stroke-width:0.264583">B</tspan></text>
    <text
       xml:space="preserve"
       style="font-style:normal;font-weight:normal;font-size:6.35px;line-height:1.25;font-family:sans-serif;fill:#000000;fill-opacity:1;stroke:none;stroke-width:0.264583"
       x="30.169333"
       y="192.33365"
       id="text39729-0-48"><tspan
         id="tspan39727-5-5"
         x="30.169333"
         y="192.33365"
         style="font-style:italic;font-variant:normal;font-weight:500;font-stretch:normal;font-size:6.35px;font-family:'CMU Serif Upright Italic';-inkscape-font-specification:'CMU Serif Upright Italic, Medium Italic';font-variant-ligatures:normal;font-variant-caps:normal;font-variant-numeric:normal;font-variant-east-asian:normal;stroke-width:0.264583">C</tspan></text>
  </g>
</svg>
