<?xml version="1.0" encoding="utf-8" standalone="no"?>
<!DOCTYPE svg PUBLIC "-//W3C//DTD SVG 1.1//EN"
  "http://www.w3.org/Graphics/SVG/1.1/DTD/svg11.dtd">
<!-- Created with matplotlib (https://matplotlib.org/) -->
<svg height="302.4pt" version="1.1" viewBox="0 0 403.2 302.4" width="403.2pt" xmlns="http://www.w3.org/2000/svg" xmlns:xlink="http://www.w3.org/1999/xlink">
 <metadata>
  <rdf:RDF xmlns:cc="http://creativecommons.org/ns#" xmlns:dc="http://purl.org/dc/elements/1.1/" xmlns:rdf="http://www.w3.org/1999/02/22-rdf-syntax-ns#">
   <cc:Work>
    <dc:type rdf:resource="http://purl.org/dc/dcmitype/StillImage"/>
    <dc:date>2021-12-15T21:53:59.228201</dc:date>
    <dc:format>image/svg+xml</dc:format>
    <dc:creator>
     <cc:Agent>
      <dc:title>Matplotlib v3.3.4, https://matplotlib.org/</dc:title>
     </cc:Agent>
    </dc:creator>
   </cc:Work>
  </rdf:RDF>
 </metadata>
 <defs>
  <style type="text/css">*{stroke-linecap:butt;stroke-linejoin:round;}</style>
 </defs>
 <g id="figure_1">
  <g id="patch_1">
   <path d="M 0 302.4 
L 403.2 302.4 
L 403.2 0 
L 0 0 
z
" style="fill:#ffffff;"/>
  </g>
  <g id="axes_1">
   <g id="patch_2">
    <path d="M 72.576 241.92 
L 362.88 241.92 
L 362.88 30.24 
L 72.576 30.24 
z
" style="fill:#ffffff;"/>
   </g>
   <g id="patch_3">
    <path clip-path="url(#p87b9d61e57)" d="M 72.576 241.92 
L 362.88 241.92 
L 362.88 204.55848 
L 72.576 204.55848 
z
" style="fill:#6b6b6b;opacity:0.2;"/>
   </g>
   <g id="matplotlib.axis_1">
    <g id="xtick_1">
     <g id="line2d_1">
      <defs>
       <path d="M 0 0 
L 0 3.5 
" id="mbac1261df0" style="stroke:#000000;stroke-width:0.8;"/>
      </defs>
      <g>
       <use style="stroke:#000000;stroke-width:0.8;" x="72.576" xlink:href="#mbac1261df0" y="241.92"/>
      </g>
     </g>
     <g id="text_1">
      <!-- 1 -->
      <g transform="translate(69.039822 258.951808)scale(0.145 -0.145)">
       <defs>
        <path d="M 28.40625 67 
L 26.5 67 
C 21.09375 61.5625 14.796875 60.78125 8.40625 60.78125 
L 8.40625 55 
C 11.296875 55 16 55 20.703125 57.296875 
L 20.703125 5.765625 
L 8.90625 5.765625 
L 8.90625 0 
L 40.203125 0 
L 40.203125 5.765625 
L 28.40625 5.765625 
z
" id="CMSS17-49"/>
       </defs>
       <use transform="scale(0.996264)" xlink:href="#CMSS17-49"/>
      </g>
     </g>
    </g>
    <g id="xtick_2">
     <g id="line2d_2">
      <g>
       <use style="stroke:#000000;stroke-width:0.8;" x="109.323342" xlink:href="#mbac1261df0" y="241.92"/>
      </g>
     </g>
     <g id="text_2">
      <!-- 2 -->
      <g transform="translate(105.787164 258.951808)scale(0.145 -0.145)">
       <defs>
        <path d="M 25.796875 21.203125 
C 28.59375 24.078125 32.796875 27.5625 35.703125 31.046875 
C 38.5 34.4375 42.203125 39.234375 42.203125 46.203125 
C 42.203125 57.140625 34.796875 67 22.203125 67 
C 12.296875 67 6.59375 60.828125 3.90625 51.15625 
C 4.90625 49.765625 6.40625 47.765625 7.796875 45.765625 
C 10 54.84375 13.09375 60.625 20.90625 60.625 
C 29.5 60.625 34.296875 53.640625 34.296875 45.96875 
C 34.296875 36.796875 27.296875 29.703125 22 24.421875 
C 16.09375 18.546875 10.296875 12.5625 4.703125 6.375 
L 4.703125 0 
L 42.203125 0 
L 42.203125 6.765625 
L 25.203125 6.765625 
C 24 6.765625 22.796875 6.765625 21.59375 6.765625 
L 11.59375 6.765625 
L 11.59375 6.859375 
z
" id="CMSS17-50"/>
       </defs>
       <use transform="scale(0.996264)" xlink:href="#CMSS17-50"/>
      </g>
     </g>
    </g>
    <g id="xtick_3">
     <g id="line2d_3">
      <g>
       <use style="stroke:#000000;stroke-width:0.8;" x="164.444354" xlink:href="#mbac1261df0" y="241.92"/>
      </g>
     </g>
     <g id="text_3">
      <!-- 3 -->
      <g transform="translate(160.908177 258.951808)scale(0.145 -0.145)">
       <defs>
        <path d="M 15.703125 31.640625 
L 22.5 31.640625 
C 31.90625 31.640625 34.59375 23.546875 34.59375 17.90625 
C 34.59375 10.203125 30.203125 4.171875 23 4.171875 
C 17.40625 4.171875 9.5 6.9375 5 14.25 
C 4.296875 10.796875 4.296875 10.59375 3.90625 8.21875 
C 8.59375 1.375 16.203125 -2 23.203125 -2 
C 34.59375 -2 43 7.390625 43 17.78125 
C 43 25.59375 37.5 32.140625 30 34.609375 
C 36 37.875 40.40625 44 40.40625 51.140625 
C 40.40625 59.453125 32.703125 66.078125 23.296875 66.078125 
C 14.703125 66.078125 8 60.8125 5.203125 55.15625 
C 5.90625 54.1875 7.703125 51.3125 8.59375 49.828125 
C 10.796875 55.65625 16.5 60 23.203125 60 
C 28.796875 60 32.5 56.359375 32.5 51.109375 
C 32.5 45.671875 29 39.734375 23.09375 38.359375 
C 22.703125 38.359375 16.5 37.765625 15.703125 37.671875 
z
" id="CMSS17-51"/>
       </defs>
       <use transform="scale(0.996264)" xlink:href="#CMSS17-51"/>
      </g>
     </g>
    </g>
    <g id="xtick_4">
     <g id="line2d_4">
      <g>
       <use style="stroke:#000000;stroke-width:0.8;" x="219.565367" xlink:href="#mbac1261df0" y="241.92"/>
      </g>
     </g>
     <g id="text_4">
      <!-- 4 -->
      <g transform="translate(216.029189 258.951808)scale(0.145 -0.145)">
       <defs>
        <path d="M 35.203125 17 
L 44.296875 17 
L 44.296875 23.078125 
L 35.203125 23.078125 
L 35.203125 65.5 
L 26.40625 65.5 
L 2.59375 23.078125 
L 2.59375 17 
L 27.296875 17 
L 27.296875 0 
L 35.203125 0 
z
M 10.296875 23.078125 
C 16.09375 33.234375 27.59375 53.734375 27.59375 60.703125 
L 27.59375 23.078125 
z
" id="CMSS17-52"/>
       </defs>
       <use transform="scale(0.996264)" xlink:href="#CMSS17-52"/>
      </g>
     </g>
    </g>
    <g id="xtick_5">
     <g id="line2d_5">
      <g>
       <use style="stroke:#000000;stroke-width:0.8;" x="274.68638" xlink:href="#mbac1261df0" y="241.92"/>
      </g>
     </g>
     <g id="text_5">
      <!-- 5 -->
      <g transform="translate(271.150202 258.951808)scale(0.145 -0.145)">
       <defs>
        <path d="M 14.59375 58.625 
L 39.09375 58.625 
L 39.09375 65 
L 7.296875 65 
L 7.296875 27.828125 
L 14 27.828125 
C 15.796875 31.96875 19.5 35 24.296875 35 
C 28.796875 35 33.796875 31.078125 33.796875 19.78125 
C 33.796875 7.703125 26.703125 4.171875 21.5 4.171875 
C 15.09375 4.171875 9.203125 8 6.59375 13.296875 
L 3.40625 7.796875 
C 8 0.765625 15.5 -2 21.5 -2 
C 33.09375 -2 42.203125 7.765625 42.203125 19.578125 
C 42.203125 31.71875 34.09375 41.078125 24.40625 41.078125 
C 20.90625 41.078125 17.5 39.890625 14.59375 37.484375 
z
" id="CMSS17-53"/>
       </defs>
       <use transform="scale(0.996264)" xlink:href="#CMSS17-53"/>
      </g>
     </g>
    </g>
    <g id="xtick_6">
     <g id="line2d_6">
      <g>
       <use style="stroke:#000000;stroke-width:0.8;" x="329.807392" xlink:href="#mbac1261df0" y="241.92"/>
      </g>
     </g>
     <g id="text_6">
      <!-- 6 -->
      <g transform="translate(326.271215 258.951808)scale(0.145 -0.145)">
       <defs>
        <path d="M 39 64.078125 
C 34.796875 65.78125 31.796875 66.078125 29 66.078125 
C 16 66.078125 3.90625 52.625 3.90625 31.34375 
C 3.90625 4.140625 15.40625 -2 23.59375 -2 
C 28.09375 -2 32.59375 -0.609375 36.90625 4.375 
C 41.296875 9.640625 43 14.03125 43 21.703125 
C 43 34.046875 36.90625 45 27.796875 45 
C 21.203125 45 15.5 41.515625 12 37.125 
C 13 50.90625 19.59375 60 29.09375 60 
C 31.703125 60 35.09375 59.625 39 57.96875 
z
M 12.09375 21.390625 
C 12.09375 22.1875 12.09375 22.6875 12.203125 24.1875 
C 12.203125 31.953125 16.703125 38.921875 24 38.921875 
C 28.703125 38.921875 31.09375 36.4375 32.90625 33.359375 
C 35 29.46875 35.09375 25.78125 35.09375 21.6875 
C 35.09375 17.8125 35.09375 13.921875 32.796875 9.953125 
C 30.90625 6.859375 28.40625 4.171875 23.59375 4.171875 
C 14.09375 4.171875 12.5 17.40625 12.09375 21.390625 
z
" id="CMSS17-54"/>
       </defs>
       <use transform="scale(0.996264)" xlink:href="#CMSS17-54"/>
      </g>
     </g>
    </g>
    <g id="text_7">
     <!-- DIV -->
     <g transform="translate(203.72899 278.214002)scale(0.18 -0.18)">
      <defs>
       <path d="M 8.90625 69 
L 8.90625 0 
L 33.5 0 
C 49.90625 0 62.5 15.3125 62.5 33.90625 
C 62.5 53.09375 49.90625 69 33.5 69 
z
M 17.09375 5.578125 
L 17.09375 63.421875 
L 31.296875 63.421875 
C 44.703125 63.421875 54.296875 51.203125 54.296875 33.90625 
C 54.296875 17.296875 44.796875 5.578125 31.296875 5.578125 
z
" id="CMSS17-68"/>
       <path d="M 17.09375 69 
L 8.703125 69 
L 8.703125 0 
L 17.09375 0 
z
" id="CMSS17-73"/>
       <path d="M 61.09375 69 
L 53.296875 69 
L 36 21.28125 
C 35.5 19.890625 32.40625 10.75 31.796875 7.5625 
L 31.703125 7.5625 
C 30.90625 11.34375 27.703125 20.1875 26 25.0625 
L 14.40625 57.375 
L 10.09375 69 
L 1.296875 69 
L 26.796875 0 
L 35.59375 0 
z
" id="CMSS17-86"/>
      </defs>
      <use transform="scale(0.996264)" xlink:href="#CMSS17-68"/>
      <use transform="translate(67.542842 0)scale(0.996264)" xlink:href="#CMSS17-73"/>
      <use transform="translate(93.326767 0)scale(0.996264)" xlink:href="#CMSS17-86"/>
     </g>
    </g>
   </g>
   <g id="matplotlib.axis_2">
    <g id="ytick_1">
     <g id="line2d_7">
      <path clip-path="url(#p87b9d61e57)" d="M 72.576 241.92 
L 362.88 241.92 
" style="fill:none;stroke:#b0b0b0;stroke-linecap:square;stroke-opacity:0.4;stroke-width:0.8;"/>
     </g>
     <g id="line2d_8">
      <defs>
       <path d="M 0 0 
L -3.5 0 
" id="mb38047534f" style="stroke:#000000;stroke-width:0.8;"/>
      </defs>
      <g>
       <use style="stroke:#000000;stroke-width:0.8;" x="72.576" xlink:href="#mb38047534f" y="241.92"/>
      </g>
     </g>
     <g id="text_8">
      <!-- 0 -->
      <g transform="translate(58.503644 246.935904)scale(0.145 -0.145)">
       <defs>
        <path d="M 43.09375 31.9375 
C 43.09375 37.578125 43 48.078125 38.90625 56.1875 
C 34.796875 64 28.203125 66.078125 23.5 66.078125 
C 16.703125 66.078125 10.90625 62.109375 7.90625 55.78125 
C 4.703125 49.15625 3.796875 42.328125 3.796875 31.9375 
C 3.796875 24.828125 4.09375 16.109375 7.703125 8.484375 
C 11.796875 0.078125 18.703125 -2 23.40625 -2 
C 29.59375 -2 35.59375 1.265625 39 8.09375 
C 42.5 15.21875 43.09375 23.03125 43.09375 31.9375 
z
M 23.40625 4.078125 
C 15.796875 4.078125 13.5 12.671875 12.796875 15.546875 
C 11.59375 20.46875 11.40625 25.21875 11.40625 33.03125 
C 11.40625 39.15625 11.40625 46.0625 13.296875 51.515625 
C 15.59375 57.828125 19.59375 60 23.40625 60 
C 30.796875 60 33.203125 52.6875 34 50.125 
C 35.5 44.890625 35.5 38.765625 35.5 33.03125 
C 35.5 23.84375 35.5 4.078125 23.40625 4.078125 
z
" id="CMSS17-48"/>
       </defs>
       <use transform="scale(0.996264)" xlink:href="#CMSS17-48"/>
      </g>
     </g>
    </g>
    <g id="ytick_2">
     <g id="line2d_9">
      <path clip-path="url(#p87b9d61e57)" d="M 72.576 162.54 
L 362.88 162.54 
" style="fill:none;stroke:#b0b0b0;stroke-linecap:square;stroke-opacity:0.4;stroke-width:0.8;"/>
     </g>
     <g id="line2d_10">
      <g>
       <use style="stroke:#000000;stroke-width:0.8;" x="72.576" xlink:href="#mb38047534f" y="162.54"/>
      </g>
     </g>
     <g id="text_9">
      <!-- 1500 -->
      <g transform="translate(37.286578 167.555904)scale(0.145 -0.145)">
       <use transform="scale(0.996264)" xlink:href="#CMSS17-49"/>
       <use transform="translate(46.843624 0)scale(0.996264)" xlink:href="#CMSS17-53"/>
       <use transform="translate(93.687247 0)scale(0.996264)" xlink:href="#CMSS17-48"/>
       <use transform="translate(140.530871 0)scale(0.996264)" xlink:href="#CMSS17-48"/>
      </g>
     </g>
    </g>
    <g id="ytick_3">
     <g id="line2d_11">
      <path clip-path="url(#p87b9d61e57)" d="M 72.576 83.16 
L 362.88 83.16 
" style="fill:none;stroke:#b0b0b0;stroke-linecap:square;stroke-opacity:0.4;stroke-width:0.8;"/>
     </g>
     <g id="line2d_12">
      <g>
       <use style="stroke:#000000;stroke-width:0.8;" x="72.576" xlink:href="#mb38047534f" y="83.16"/>
      </g>
     </g>
     <g id="text_10">
      <!-- 3000 -->
      <g transform="translate(37.286578 88.175904)scale(0.145 -0.145)">
       <use transform="scale(0.996264)" xlink:href="#CMSS17-51"/>
       <use transform="translate(46.843624 0)scale(0.996264)" xlink:href="#CMSS17-48"/>
       <use transform="translate(93.687247 0)scale(0.996264)" xlink:href="#CMSS17-48"/>
       <use transform="translate(140.530871 0)scale(0.996264)" xlink:href="#CMSS17-48"/>
      </g>
     </g>
    </g>
    <g id="text_11">
     <!-- dist. to output ch. [$\upmu$m] -->
     <g transform="translate(28.818394 222.272274)rotate(-90)scale(0.18 -0.18)">
      <defs>
       <path d="M 40.796875 69 
L 33.40625 69 
L 33.40625 38.09375 
C 30.296875 40.671875 25.203125 43.0625 19.59375 43.0625 
C 10.5 43.0625 3.296875 33.296875 3.296875 21.046875 
C 3.296875 8.78125 10.40625 -1 19.296875 -1 
C 26.203125 -1 30.796875 2.6875 33.203125 4.78125 
L 33.203125 -0.203125 
L 40.796875 -0.203125 
z
M 33.203125 13.0625 
C 33.203125 11.671875 33.203125 10.203125 30.09375 7.53125 
C 28.09375 5.859375 25.703125 5.078125 23.40625 5.078125 
C 18 5.078125 10.90625 9 10.90625 20.9375 
C 10.90625 33.34375 18.90625 37 24.40625 37 
C 28.09375 37 31.09375 35.21875 33.203125 32.265625 
z
" id="CMSS17-100"/>
       <path d="M 15.296875 65.359375 
L 6.90625 65.359375 
L 6.90625 57 
L 15.296875 57 
z
M 14.796875 42.796875 
L 7.40625 42.796875 
L 7.40625 0 
L 14.796875 0 
z
" id="CMSS17-105"/>
       <path d="M 32.203125 41.046875 
C 26.296875 43.859375 21.703125 43.859375 18.703125 43.859375 
C 11.59375 43.859375 3.09375 41.375 3.09375 31.296875 
C 3.09375 21.234375 14.09375 19.03125 17.09375 18.421875 
C 21.703125 17.53125 26.796875 16.53125 26.796875 11.5625 
C 26.796875 5.265625 19.59375 5.265625 18.296875 5.265625 
C 14.296875 5.265625 8.796875 6.359375 3.796875 9.96875 
L 2.59375 3.28125 
C 8.296875 0 13.796875 -1 18.40625 -1 
C 30.703125 -1 33.796875 6.5 33.796875 12.203125 
C 33.796875 17.09375 31 20.390625 29.09375 21.890625 
C 25.796875 24.5 24.59375 24.796875 16.40625 26.5 
C 15 26.703125 10.09375 27.796875 10.09375 32.28125 
C 10.09375 38 16.40625 38 17.796875 38 
C 24.296875 38 28.296875 35.984375 31 34.5 
z
" id="CMSS17-115"/>
       <path d="M 16.703125 37 
L 29.703125 37 
L 29.703125 42.765625 
L 16.703125 42.765625 
L 16.703125 55 
L 9.59375 55 
L 9.59375 42.765625 
L 1.703125 42.765625 
L 1.703125 37 
L 9.40625 37 
L 9.40625 11.703125 
C 9.40625 6 10.703125 -1 17.296875 -1 
C 22.296875 -1 26.90625 0.390625 31.296875 2.6875 
L 29.703125 8.5625 
C 27.296875 6.46875 24.40625 5.265625 21.296875 5.265625 
C 16.90625 5.265625 16.703125 10.875 16.703125 13.375 
z
" id="CMSS17-116"/>
       <path d="M 17 7.96875 
L 9 7.96875 
L 9 0 
L 17 0 
z
" id="CMSS17-46"/>
       <path d="M 44.203125 21.1875 
C 44.203125 34 34.703125 44 23.5 44 
C 12 44 2.703125 33.703125 2.703125 21.1875 
C 2.703125 8.5 12.296875 -1 23.40625 -1 
C 34.796875 -1 44.203125 8.796875 44.203125 21.1875 
z
M 23.5 5.265625 
C 16.40625 5.265625 10.296875 11.078125 10.296875 22 
C 10.296875 33.609375 17.40625 37.921875 23.40625 37.921875 
C 29.90625 37.921875 36.59375 33.21875 36.59375 22 
C 36.59375 10.671875 30.09375 5.265625 23.5 5.265625 
z
" id="CMSS17-111"/>
       <path d="M 40.90625 42.796875 
L 33.296875 42.796875 
L 33.296875 15.1875 
C 33.296875 7.78125 27.90625 4.78125 22.203125 4.78125 
C 15.59375 4.78125 15 6.984375 15 11.078125 
L 15 42.796875 
L 7.40625 42.796875 
L 7.40625 10.59375 
C 7.40625 2.796875 10.09375 -1 17 -1 
C 20.40625 -1 28.09375 -0.203125 33.5 4.78125 
L 33.5 0 
L 40.90625 0 
z
" id="CMSS17-117"/>
       <path d="M 15.09375 5.203125 
C 18.40625 2.015625 22.90625 -0.078125 27.703125 -0.078125 
C 37 -0.078125 45 9.421875 45 22.0625 
C 45 33.734375 39 44 30.40625 44 
C 25.40625 44 19.40625 42.21875 14.90625 38.625 
L 14.90625 43.203125 
L 7.5 43.203125 
L 7.5 -19 
L 15.09375 -19 
z
M 15.09375 32.8125 
C 15.90625 34 19.296875 37.734375 24.796875 37.734375 
C 31.796875 37.734375 37.40625 30.625 37.40625 22.0625 
C 37.40625 12.296875 30.59375 6 23.90625 6 
C 21.90625 6 19.796875 6.484375 17.796875 8.171875 
C 15.09375 10.53125 15.09375 12 15.09375 13.390625 
z
" id="CMSS17-112"/>
       <path d="M 38.5 39.703125 
C 38.5 40.390625 33.90625 42.40625 32.703125 42.796875 
C 29.40625 44 25.203125 44 24.09375 44 
C 11.09375 44 3.296875 32.703125 3.296875 21.296875 
C 3.296875 9.296875 12 -1 23.703125 -1 
C 30.40625 -1 35.203125 1.1875 39.09375 3.78125 
L 38.5 10.375 
C 34.203125 7.078125 29.203125 5.265625 23.796875 5.265625 
C 16 5.265625 10.90625 12.09375 10.90625 21.390625 
C 10.90625 28.609375 14.203125 37.71875 24.203125 37.71875 
C 29.703125 37.71875 32.796875 36.609375 37.40625 33.515625 
z
" id="CMSS17-99"/>
       <path d="M 40.90625 29.546875 
C 40.90625 35.8125 39.40625 44.0625 28.09375 44.0625 
C 21.796875 44.0625 17.703125 40.984375 14.796875 37.609375 
L 14.796875 69.5 
L 7.40625 69.5 
L 7.40625 0.5 
L 15 0.5 
L 15 24.578125 
C 15 30.828125 17.40625 38 24.203125 38 
C 33 38 33.296875 32.125 33.296875 28.734375 
L 33.296875 0.5 
L 40.90625 0.5 
z
" id="CMSS17-104"/>
       <path d="M 25.203125 -25 
L 25.203125 -18.9375 
L 16.59375 -18.9375 
L 16.59375 68 
L 25.203125 68 
L 25.203125 74.078125 
L 9.296875 74.078125 
L 9.296875 -25 
z
" id="CMSS17-91"/>
       <path d="M 48.5 46.75 
L 40.796875 43.5625 
C 41 37.90625 41.203125 32.234375 41.203125 26.46875 
C 41.203125 24.390625 41 17.125 40.90625 12.359375 
C 38.796875 10.625 36.59375 9.0625 34.09375 7.90625 
C 32.296875 6.9375 30.203125 6.265625 28.09375 6.265625 
C 26.09375 6.265625 23.796875 6.265625 22.296875 7.75 
C 19.296875 10.71875 18.796875 14.96875 18.796875 19.03125 
C 18.796875 27.921875 18.796875 36.84375 18.796875 45.65625 
L 17.90625 46.34375 
L 9.59375 43.765625 
C 9.59375 43.671875 11 32.9375 11.59375 27.46875 
C 11.59375 21.21875 11.59375 15 11.59375 8.75 
C 11.59375 -0.359375 11.40625 -9.46875 11.203125 -18.578125 
L 12.40625 -19.1875 
L 17.40625 -17.1875 
C 16 -10.71875 16 -3.65625 16 3.125 
C 17.5 1.375 19.59375 0 22.09375 0 
C 26.59375 0 34.5 4.28125 40.296875 7.5 
C 40.5 7.59375 40.703125 7.390625 40.90625 7.28125 
C 41.203125 7.171875 41.296875 6.96875 41.5 6.75 
C 41.796875 4.75 42.203125 2.640625 43.5 1.265625 
C 44.703125 0 46.59375 0 48.296875 0 
C 50.796875 0 53.09375 1.03125 55.203125 2.28125 
C 58.296875 3.921875 61 6.3125 63.5 8.6875 
L 62.09375 10.578125 
C 59.5 8.984375 56.40625 7 53.90625 7 
C 52.90625 7 51.796875 7.390625 51.09375 8.09375 
C 50.09375 8.984375 49.703125 10.28125 49.296875 11.46875 
C 48.90625 13.25 48.703125 15.046875 48.703125 16.828125 
C 48.703125 22.296875 48.703125 27.859375 48.703125 33.421875 
C 48.703125 36.515625 49 41.578125 49.296875 45.65625 
z
" id="EURM10-22"/>
       <path d="M 67 29.328125 
C 67 36.0625 65.296875 44 54.09375 44 
C 46.59375 44 42.09375 39.3125 40.09375 36.421875 
C 38.296875 41.71875 34.09375 44 28.09375 44 
C 21.296875 44 17 40.125 14.703125 37.328125 
L 14.703125 43.09375 
L 7.40625 43.09375 
L 7.40625 0 
L 15 0 
L 15 24.359375 
C 15 30.296875 17.203125 37.9375 24.296875 37.9375 
C 33.40625 37.9375 33.40625 31.5 33.40625 28.578125 
L 33.40625 0 
L 41 0 
L 41 24.359375 
C 41 30.296875 43.203125 37.9375 50.296875 37.9375 
C 59.40625 37.9375 59.40625 31.5 59.40625 28.578125 
L 59.40625 0 
L 67 0 
z
" id="CMSS17-109"/>
       <path d="M 17.90625 74.078125 
L 2 74.078125 
L 2 68 
L 10.59375 68 
L 10.59375 -18.9375 
L 2 -18.9375 
L 2 -25 
L 17.90625 -25 
z
" id="CMSS17-93"/>
      </defs>
      <use transform="scale(0.996264)" xlink:href="#CMSS17-100"/>
      <use transform="translate(48.204943 0)scale(0.996264)" xlink:href="#CMSS17-105"/>
      <use transform="translate(70.385666 0)scale(0.996264)" xlink:href="#CMSS17-115"/>
      <use transform="translate(106.299208 0)scale(0.996264)" xlink:href="#CMSS17-116"/>
      <use transform="translate(140.130775 0)scale(0.996264)" xlink:href="#CMSS17-46"/>
      <use transform="translate(207.793787 0)scale(0.996264)" xlink:href="#CMSS17-116"/>
      <use transform="translate(241.625353 0)scale(0.996264)" xlink:href="#CMSS17-111"/>
      <use transform="translate(319.69809 0)scale(0.996264)" xlink:href="#CMSS17-111"/>
      <use transform="translate(366.541713 0)scale(0.996264)" xlink:href="#CMSS17-117"/>
      <use transform="translate(414.746656 0)scale(0.996264)" xlink:href="#CMSS17-116"/>
      <use transform="translate(448.578223 0)scale(0.996264)" xlink:href="#CMSS17-112"/>
      <use transform="translate(496.783166 0)scale(0.996264)" xlink:href="#CMSS17-117"/>
      <use transform="translate(544.988109 0)scale(0.996264)" xlink:href="#CMSS17-116"/>
      <use transform="translate(610.048789 0)scale(0.996264)" xlink:href="#CMSS17-99"/>
      <use transform="translate(651.687611 0)scale(0.996264)" xlink:href="#CMSS17-104"/>
      <use transform="translate(699.892554 0)scale(0.996264)" xlink:href="#CMSS17-46"/>
      <use transform="translate(767.555566 0)scale(0.996264)" xlink:href="#CMSS17-91"/>
      <use transform="translate(794.741004 0)scale(0.996264)" xlink:href="#EURM10-22"/>
      <use transform="translate(856.277622 0)scale(0.996264)" xlink:href="#CMSS17-109"/>
      <use transform="translate(930.506876 0)scale(0.996264)" xlink:href="#CMSS17-93"/>
     </g>
    </g>
   </g>
   <g id="line2d_13">
    <path clip-path="url(#p87b9d61e57)" d="M 72.576 241.92 
L 72.576 30.24 
" style="fill:none;stroke:#000000;stroke-linecap:square;stroke-width:1.3;"/>
   </g>
   <g id="line2d_14">
    <path clip-path="url(#p87b9d61e57)" d="M 72.576 241.92 
L 362.88 241.92 
" style="fill:none;stroke:#000000;stroke-linecap:square;stroke-width:1.3;"/>
   </g>
   <g id="line2d_15">
    <path clip-path="url(#p87b9d61e57)" d="M 72.576 145.358993 
L 73.800911 145.752718 
L 75.025823 145.91677 
L 76.250734 146.343305 
L 77.475646 146.638598 
L 79.925468 148.968137 
L 81.15038 149.460293 
L 82.375291 150.739898 
L 83.600203 151.199244 
L 84.825114 152.380418 
L 90.949671 153.922507 
L 92.174582 154.15218 
L 93.399494 154.513094 
L 94.624405 154.381853 
L 95.849316 154.381853 
L 97.074228 154.644336 
L 99.524051 155.595838 
L 103.198785 156.120804 
L 104.423696 156.252046 
L 105.648608 156.64577 
L 106.873519 156.809822 
L 111.773165 158.811257 
L 112.998076 159.204982 
L 114.222987 159.434654 
L 115.447899 159.467465 
L 116.67281 159.762758 
L 117.897722 159.894 
L 117.897722 159.894 
" style="fill:none;stroke:#6b6b6b;stroke-linecap:square;"/>
   </g>
   <g id="line2d_16">
    <path clip-path="url(#p87b9d61e57)" d="M 78.700557 141.913901 
L 79.925468 142.438867 
L 81.15038 143.718473 
L 82.375291 144.669974 
L 83.600203 145.424614 
L 86.050025 147.786962 
L 87.274937 148.640033 
L 88.499848 149.296241 
L 89.724759 150.543036 
L 92.174582 151.6914 
L 93.399494 152.216366 
L 93.399494 152.216366 
" style="fill:none;stroke:#6b6b6b;stroke-linecap:square;"/>
   </g>
   <g id="line2d_17">
    <path clip-path="url(#p87b9d61e57)" d="M 93.399494 105.428736 
L 95.849316 106.380238 
L 97.074228 105.920892 
L 98.299139 105.625598 
L 99.524051 106.938014 
L 100.748962 107.791085 
L 101.973873 107.692654 
L 103.198785 107.922326 
L 104.423696 107.758274 
L 105.648608 107.889516 
L 106.873519 108.151999 
L 108.09843 107.922326 
L 110.548253 108.086378 
L 111.773165 107.987947 
L 112.998076 108.151999 
L 117.897722 107.987947 
L 119.122633 108.086378 
L 120.347544 108.053568 
L 121.572456 108.25043 
L 122.797367 108.25043 
L 124.022278 109.07069 
L 125.24719 110.251865 
L 126.472101 112.450162 
L 127.697013 110.317486 
L 128.921924 112.811076 
L 130.146835 114.156302 
L 131.371747 114.681269 
L 132.596658 114.648458 
L 133.82157 115.140614 
L 135.046481 115.960874 
L 136.271392 116.321789 
L 137.496304 116.45303 
L 138.721215 115.59996 
L 138.721215 115.59996 
" style="fill:none;stroke:#6b6b6b;stroke-linecap:square;"/>
   </g>
   <g id="line2d_18">
    <path clip-path="url(#p87b9d61e57)" d="M 97.074228 136.368943 
L 98.299139 138.53443 
L 99.524051 136.828289 
L 100.748962 138.075084 
L 101.973873 138.665671 
L 103.198785 140.667106 
L 106.873519 147.918204 
L 108.09843 143.652852 
L 110.548253 142.865402 
L 111.773165 144.27625 
L 112.998076 146.080822 
L 114.222987 147.360427 
L 114.222987 147.360427 
" style="fill:none;stroke:#6b6b6b;stroke-linecap:square;"/>
   </g>
   <g id="line2d_19">
    <path clip-path="url(#p87b9d61e57)" d="M 99.524051 144.210629 
L 100.748962 146.244874 
L 101.973873 147.852583 
L 103.198785 149.19781 
L 105.648608 149.919638 
L 106.873519 149.624345 
L 108.09843 149.591534 
L 109.323342 149.919638 
L 110.548253 149.657155 
L 111.773165 150.116501 
L 115.447899 149.427482 
L 116.67281 149.755586 
L 117.897722 149.689966 
L 119.122633 149.854018 
L 121.572456 149.689966 
L 122.797367 149.427482 
L 124.022278 149.427482 
L 125.24719 149.722776 
L 126.472101 149.722776 
L 127.697013 149.854018 
L 128.921924 149.722776 
L 131.371747 150.641467 
L 132.596658 150.575846 
L 133.82157 150.739898 
L 135.046481 150.608657 
L 137.496304 151.166434 
L 138.721215 151.166434 
L 139.946127 151.428917 
L 142.395949 151.461727 
L 143.620861 151.592969 
L 144.845772 151.921073 
L 148.520506 151.72421 
L 153.420152 151.789831 
L 154.645063 151.888262 
L 155.869975 151.822642 
L 157.094886 151.921073 
L 160.76962 151.72421 
L 165.669266 151.560158 
L 166.894177 151.330486 
L 168.119089 151.494538 
L 169.344 151.396106 
L 170.568911 151.494538 
L 173.018734 151.363296 
L 174.243646 151.461727 
L 177.91838 151.133623 
L 180.368203 151.461727 
L 181.593114 151.527348 
L 185.267848 151.133623 
L 186.492759 151.100813 
L 186.492759 151.100813 
" style="fill:none;stroke:#6b6b6b;stroke-linecap:square;"/>
   </g>
   <g id="line2d_20">
    <path clip-path="url(#p87b9d61e57)" d="M 109.323342 99.916589 
L 110.548253 99.949399 
L 111.773165 99.555674 
L 112.998076 99.883778 
L 115.447899 99.522864 
L 116.67281 99.949399 
L 117.897722 99.916589 
L 119.122633 100.343124 
L 120.347544 100.244693 
L 121.572456 100.83528 
L 124.022278 100.408745 
L 125.24719 100.638418 
L 126.472101 100.704038 
L 127.697013 100.539986 
L 128.921924 100.638418 
L 130.146835 100.408745 
L 131.371747 100.343124 
L 133.82157 100.507176 
L 135.046481 100.408745 
L 136.271392 100.671228 
L 137.496304 100.408745 
L 139.946127 100.704038 
L 144.845772 100.408745 
L 147.295595 100.310314 
L 148.520506 100.605607 
L 149.745418 100.408745 
L 152.195241 100.441555 
L 159.544709 100.310314 
L 160.76962 100.507176 
L 161.994532 100.343124 
L 163.219443 100.507176 
L 164.444354 100.244693 
L 165.669266 100.474366 
L 168.119089 100.310314 
L 169.344 100.539986 
L 170.568911 100.343124 
L 171.793823 100.507176 
L 176.693468 100.277503 
L 177.91838 100.507176 
L 179.143291 100.310314 
L 182.818025 100.277503 
L 184.042937 99.555674 
L 186.492759 99.654106 
L 187.717671 100.01502 
L 188.942582 99.522864 
L 188.942582 99.522864 
" style="fill:none;stroke:#6b6b6b;stroke-linecap:square;"/>
   </g>
   <g id="line2d_21">
    <path clip-path="url(#p87b9d61e57)" d="M 115.447899 120.816814 
L 116.67281 121.079297 
L 120.347544 121.013676 
L 121.572456 120.948055 
L 122.797367 121.276159 
L 126.472101 121.243349 
L 127.697013 121.144918 
L 128.921924 121.243349 
L 130.146835 121.079297 
L 133.82157 121.079297 
L 139.946127 121.34178 
L 143.620861 121.210538 
L 144.845772 121.079297 
L 146.070684 121.243349 
L 153.420152 121.276159 
L 154.645063 121.112107 
L 157.094886 121.177728 
L 158.319797 121.177728 
L 160.76962 121.571453 
L 161.994532 121.177728 
L 163.219443 121.112107 
L 164.444354 121.177728 
L 165.669266 121.112107 
L 170.568911 121.243349 
L 174.243646 121.144918 
L 175.468557 121.702694 
L 176.693468 122.12923 
L 177.91838 121.932367 
L 180.368203 122.719817 
L 181.593114 122.752627 
L 182.818025 123.343214 
L 184.042937 123.408835 
L 185.267848 123.671318 
L 187.717671 123.277594 
L 188.942582 123.376025 
L 191.392405 123.76975 
L 192.617316 124.294716 
L 193.842228 124.196285 
L 195.067139 124.294716 
L 196.292051 124.885303 
L 197.516962 125.213407 
L 198.741873 126.033667 
L 199.966785 126.000857 
L 201.191696 126.591444 
L 203.641519 126.689875 
L 204.86643 127.05079 
L 207.316253 127.280462 
L 208.541165 127.214842 
L 209.766076 126.919548 
L 210.990987 127.90386 
L 212.215899 128.297585 
L 213.44081 129.216276 
L 214.665722 128.72412 
L 214.665722 128.72412 
" style="fill:none;stroke:#6b6b6b;stroke-linecap:square;"/>
   </g>
   <g id="line2d_22">
    <path clip-path="url(#p87b9d61e57)" d="M 121.572456 136.631426 
L 122.797367 138.895344 
L 124.022278 143.062265 
L 125.24719 143.849714 
L 126.472101 137.418876 
L 126.472101 137.418876 
" style="fill:none;stroke:#6b6b6b;stroke-linecap:square;"/>
   </g>
   <g id="line2d_23">
    <path clip-path="url(#p87b9d61e57)" d="M 121.572456 159.959621 
L 122.797367 160.418966 
L 124.022278 160.025242 
L 125.24719 160.254914 
L 126.472101 160.68145 
L 127.697013 160.550208 
L 128.921924 160.615829 
L 131.371747 161.173606 
L 133.82157 161.961055 
L 138.721215 162.715694 
L 139.946127 163.076609 
L 144.845772 163.700006 
L 147.295595 163.503144 
L 149.745418 163.700006 
L 150.970329 163.568765 
L 152.195241 163.831248 
L 153.420152 163.96249 
L 157.094886 164.913991 
L 158.319797 165.110854 
L 159.544709 165.438958 
L 163.219443 165.734251 
L 164.444354 166.226407 
L 165.669266 166.554511 
L 166.894177 166.554511 
L 168.119089 166.816994 
L 170.568911 166.259218 
L 171.793823 167.440392 
L 173.018734 167.801306 
L 174.243646 167.932548 
L 175.468557 168.654377 
L 176.693468 168.851239 
L 177.91838 169.409016 
L 179.143291 169.540258 
L 180.368203 169.441826 
L 181.593114 169.605878 
L 184.042937 170.130845 
L 186.492759 170.360518 
L 188.942582 170.426138 
L 190.167494 170.491759 
L 192.617316 170.918294 
L 193.842228 171.049536 
L 195.067139 171.37764 
L 196.292051 171.147967 
L 201.191696 171.902606 
L 202.416608 171.771365 
L 203.641519 171.935417 
L 204.86643 171.869796 
L 206.091342 171.672934 
L 207.316253 171.836986 
L 213.44081 171.705744 
L 214.665722 171.869796 
L 215.890633 171.771365 
L 219.565367 172.033848 
L 220.790278 171.902606 
L 223.240101 172.001038 
L 225.689924 171.968227 
L 228.139747 172.1979 
L 229.364658 172.263521 
L 230.58957 172.1979 
L 233.039392 172.427573 
L 234.264304 172.263521 
L 236.714127 172.263521 
L 237.939038 172.16509 
L 239.163949 172.23071 
L 240.388861 172.099469 
L 240.388861 172.099469 
" style="fill:none;stroke:#6b6b6b;stroke-linecap:square;"/>
   </g>
   <g id="line2d_24">
    <path clip-path="url(#p87b9d61e57)" d="M 142.395949 128.789741 
L 143.620861 129.019414 
L 144.845772 130.36464 
L 147.295595 131.348952 
L 148.520506 131.020848 
L 149.745418 131.775487 
L 150.970329 132.956662 
L 152.195241 132.989472 
L 153.420152 132.00516 
L 154.645063 133.186334 
L 157.094886 133.744111 
L 158.319797 133.67849 
L 159.544709 133.908163 
L 160.76962 134.301888 
L 160.76962 134.301888 
" style="fill:none;stroke:#6b6b6b;stroke-linecap:square;"/>
   </g>
   <g id="line2d_25">
    <path clip-path="url(#p87b9d61e57)" d="M 149.745418 148.968137 
L 150.970329 149.558724 
L 152.195241 150.543036 
L 153.420152 150.805519 
L 154.645063 151.855452 
L 155.869975 152.183556 
L 157.094886 153.167868 
L 158.319797 153.627214 
L 159.544709 153.824076 
L 160.76962 155.7927 
L 161.994532 157.46603 
L 163.219443 157.958186 
L 164.444354 158.942498 
L 168.119089 162.518832 
L 169.344 163.076609 
L 171.793823 164.585887 
L 173.018734 165.045233 
L 174.243646 166.48889 
L 175.468557 168.293462 
L 177.91838 171.312019 
L 179.143291 171.082346 
L 181.593114 171.541692 
L 182.818025 172.132279 
L 185.267848 175.052405 
L 186.492759 176.26639 
L 187.717671 177.874099 
L 188.942582 179.678671 
L 190.167494 180.662983 
L 192.617316 185.28925 
L 193.842228 189.193687 
L 195.067139 191.720088 
L 196.292051 193.459039 
L 199.966785 196.313544 
L 201.191696 196.608838 
L 202.416608 196.641648 
L 204.86643 197.199425 
L 204.86643 197.199425 
" style="fill:none;stroke:#6b6b6b;stroke-linecap:square;"/>
   </g>
   <g id="line2d_26">
    <path clip-path="url(#p87b9d61e57)" d="M 164.444354 106.248996 
L 165.669266 106.872394 
L 166.894177 107.200498 
L 168.119089 107.692654 
L 169.344 107.856706 
L 170.568911 109.169122 
L 171.793823 109.956571 
L 173.018734 109.82533 
L 174.243646 110.087813 
L 175.468557 110.776831 
L 177.91838 111.039314 
L 179.143291 110.875262 
L 181.593114 111.039314 
L 184.042937 110.6784 
L 185.267848 110.6784 
L 187.717671 111.990816 
L 188.942582 112.056437 
L 190.167494 112.35173 
L 191.392405 113.500094 
L 192.617316 114.057871 
L 193.842228 114.189113 
L 195.067139 115.206235 
L 196.292051 116.813945 
L 197.516962 117.437342 
L 198.741873 118.487275 
L 199.966785 119.930933 
L 201.191696 120.094985 
L 202.416608 120.718382 
L 204.86643 121.013676 
L 206.091342 121.210538 
L 206.091342 121.210538 
" style="fill:none;stroke:#6b6b6b;stroke-linecap:square;"/>
   </g>
   <g id="line2d_27">
    <path clip-path="url(#p87b9d61e57)" d="M 166.894177 156.383287 
L 168.119089 157.958186 
L 169.344 156.547339 
L 170.568911 162.38759 
L 171.793823 160.222104 
L 174.243646 157.43322 
L 175.468557 157.826945 
L 176.693468 153.856886 
L 177.91838 159.139361 
L 177.91838 159.139361 
" style="fill:none;stroke:#6b6b6b;stroke-linecap:square;"/>
   </g>
   <g id="line2d_28">
    <path clip-path="url(#p87b9d61e57)" d="M 168.119089 140.17495 
L 169.344 140.568674 
L 171.793823 141.84828 
L 173.018734 142.307626 
L 174.243646 141.979522 
L 175.468557 142.045142 
L 176.693468 141.946711 
L 177.91838 141.979522 
L 179.143291 141.84828 
L 187.717671 142.077953 
L 188.942582 142.373246 
L 190.167494 141.421745 
L 191.392405 140.109329 
L 192.617316 144.440302 
L 195.067139 146.080822 
L 196.292051 146.572978 
L 197.516962 149.460293 
L 198.741873 151.822642 
L 199.966785 152.314798 
L 201.191696 152.183556 
L 212.215899 152.380418 
L 213.44081 152.249177 
L 214.665722 152.51166 
L 215.890633 152.446039 
L 218.340456 152.610091 
L 219.565367 152.839764 
L 220.790278 153.233489 
L 222.01519 152.971006 
L 223.240101 153.266299 
L 225.689924 153.266299 
L 226.914835 152.839764 
L 228.139747 154.11937 
L 230.58957 154.381853 
L 231.814481 154.15218 
L 233.039392 154.513094 
L 234.264304 154.15218 
L 235.489215 153.955318 
L 236.714127 154.18499 
L 236.714127 154.18499 
" style="fill:none;stroke:#6b6b6b;stroke-linecap:square;"/>
   </g>
   <g id="line2d_29">
    <path clip-path="url(#p87b9d61e57)" d="M 169.344 135.056527 
L 170.568911 135.712735 
L 171.793823 135.647114 
L 173.018734 135.843977 
L 175.468557 136.008029 
L 176.693468 136.237702 
L 177.91838 136.204891 
L 179.143291 136.336133 
L 182.818025 137.77979 
L 184.042937 137.911032 
L 185.267848 138.271946 
L 187.717671 139.35469 
L 188.942582 139.748414 
L 190.167494 140.306191 
L 191.392405 140.568674 
L 192.617316 140.962399 
L 193.842228 141.02802 
L 197.516962 141.749849 
L 199.966785 141.717038 
L 199.966785 141.717038 
" style="fill:none;stroke:#6b6b6b;stroke-linecap:square;"/>
   </g>
   <g id="line2d_30">
    <path clip-path="url(#p87b9d61e57)" d="M 182.818025 134.826854 
L 184.042937 135.31901 
L 185.267848 135.548683 
L 186.492759 135.548683 
L 187.717671 135.2862 
L 188.942582 135.31901 
L 190.167494 135.220579 
L 193.842228 135.384631 
L 195.067139 136.07365 
L 196.292051 136.270512 
L 197.516962 136.664237 
L 198.741873 136.467374 
L 203.641519 136.729858 
L 204.86643 136.303322 
L 209.766076 136.565806 
L 212.215899 136.270512 
L 214.665722 136.204891 
L 215.890633 136.303322 
L 217.115544 136.270512 
L 218.340456 136.368943 
L 219.565367 136.303322 
L 223.240101 136.467374 
L 224.465013 136.368943 
L 226.914835 136.401754 
L 230.58957 136.204891 
L 231.814481 136.336133 
L 233.039392 135.975218 
L 234.264304 136.401754 
L 235.489215 136.204891 
L 236.714127 136.336133 
L 237.939038 136.237702 
L 241.613772 136.237702 
L 242.838684 136.07365 
L 244.063595 136.204891 
L 245.288506 136.10646 
L 247.738329 136.237702 
L 248.963241 136.13927 
L 250.188152 136.303322 
L 252.637975 136.270512 
L 256.312709 136.237702 
L 258.762532 136.303322 
L 259.987443 136.172081 
L 262.437266 136.270512 
L 263.662177 136.336133 
L 266.112 136.237702 
L 269.786734 136.336133 
L 273.461468 136.270512 
L 274.68638 136.336133 
L 277.136203 136.270512 
L 278.361114 136.368943 
L 279.586025 136.270512 
L 280.810937 136.368943 
L 282.035848 136.270512 
L 283.260759 136.336133 
L 285.710582 136.270512 
L 286.935494 136.401754 
L 289.385316 136.401754 
L 290.610228 136.237702 
L 291.835139 136.336133 
L 294.284962 136.204891 
L 294.284962 136.204891 
" style="fill:none;stroke:#6b6b6b;stroke-linecap:square;"/>
   </g>
   <g id="line2d_31">
    <path clip-path="url(#p87b9d61e57)" d="M 192.617316 150.05088 
L 193.842228 150.08369 
L 197.516962 155.300544 
L 198.741873 156.087994 
L 199.966785 151.297675 
L 201.191696 152.150746 
L 202.416608 153.725645 
L 204.86643 152.938195 
L 206.091342 151.72421 
L 207.316253 154.053749 
L 209.766076 155.891131 
L 210.990987 157.662893 
L 212.215899 163.273471 
L 213.44081 165.307716 
L 214.665722 167.801306 
L 215.890633 169.605878 
L 217.115544 170.951105 
L 218.340456 173.83842 
L 219.565367 175.642992 
L 222.01519 178.333445 
L 223.240101 180.138017 
L 223.240101 180.138017 
" style="fill:none;stroke:#6b6b6b;stroke-linecap:square;"/>
   </g>
   <g id="line2d_32">
    <path clip-path="url(#p87b9d61e57)" d="M 193.842228 162.38759 
L 195.067139 163.20785 
L 197.516962 165.60301 
L 198.741873 165.865493 
L 199.966785 166.849805 
L 201.191696 168.457514 
L 202.416608 168.490325 
L 203.641519 169.179343 
L 206.091342 171.016726 
L 207.316253 172.329142 
L 208.541165 172.624435 
L 209.766076 172.755677 
L 210.990987 173.280643 
L 212.215899 173.411885 
L 213.44081 173.80561 
L 214.665722 174.461818 
L 217.115544 175.314888 
L 218.340456 176.233579 
L 219.565367 176.955408 
L 220.790278 177.513185 
L 222.01519 177.742858 
L 223.240101 178.72717 
L 225.689924 179.809913 
L 226.914835 180.498931 
L 228.139747 180.761414 
L 229.364658 181.975399 
L 230.58957 182.533176 
L 231.814481 182.926901 
L 233.039392 183.484678 
L 234.264304 183.779971 
L 235.489215 183.944023 
L 236.714127 184.5018 
L 237.939038 184.731473 
L 239.163949 185.32206 
L 240.388861 185.256439 
L 241.613772 185.879837 
L 242.838684 186.371993 
L 244.063595 186.732907 
L 245.288506 186.798528 
L 246.513418 187.323494 
L 247.738329 187.389115 
L 251.413063 188.078134 
L 252.637975 188.406238 
L 255.087797 188.439048 
L 256.312709 188.668721 
L 259.987443 188.471858 
L 261.212354 190.440482 
L 262.437266 188.865583 
L 262.437266 188.865583 
" style="fill:none;stroke:#6b6b6b;stroke-linecap:square;"/>
   </g>
   <g id="line2d_33">
    <path clip-path="url(#p87b9d61e57)" d="M 199.966785 172.394762 
L 204.86643 177.93972 
L 206.091342 179.252136 
L 207.316253 181.089518 
L 207.316253 181.089518 
" style="fill:none;stroke:#6b6b6b;stroke-linecap:square;"/>
   </g>
   <g id="line2d_34">
    <path clip-path="url(#p87b9d61e57)" d="M 201.191696 179.317757 
L 203.641519 182.369124 
L 204.86643 183.845592 
L 207.316253 185.28925 
L 208.541165 187.061011 
L 209.766076 190.013947 
L 209.766076 190.013947 
" style="fill:none;stroke:#6b6b6b;stroke-linecap:square;"/>
   </g>
   <g id="line2d_35">
    <path clip-path="url(#p87b9d61e57)" d="M 204.86643 114.910942 
L 206.091342 116.45303 
L 207.316253 116.518651 
L 208.541165 117.27329 
L 209.766076 117.896688 
L 210.990987 117.863878 
L 210.990987 117.863878 
" style="fill:none;stroke:#6b6b6b;stroke-linecap:square;"/>
   </g>
   <g id="line2d_36">
    <path clip-path="url(#p87b9d61e57)" d="M 207.316253 198.282168 
L 208.541165 198.544651 
L 210.990987 198.41341 
L 212.215899 198.380599 
L 214.665722 199.003997 
L 215.890633 195.296422 
L 215.890633 195.296422 
" style="fill:none;stroke:#6b6b6b;stroke-linecap:square;"/>
   </g>
   <g id="line2d_37">
    <path clip-path="url(#p87b9d61e57)" d="M 208.541165 155.333354 
L 209.766076 150.83833 
L 210.990987 152.577281 
L 212.215899 159.500275 
L 213.44081 156.61296 
L 214.665722 159.467465 
L 215.890633 159.533086 
L 217.115544 160.090862 
L 219.565367 161.993866 
L 220.790278 163.9953 
L 222.01519 165.110854 
L 223.240101 166.882615 
L 224.465013 169.212154 
L 225.689924 170.885484 
L 226.914835 172.755677 
L 228.139747 175.118026 
L 229.364658 175.807044 
L 230.58957 177.513185 
L 233.039392 180.072396 
L 235.489215 182.565986 
L 236.714127 183.615919 
L 239.163949 187.192253 
L 240.388861 189.521791 
L 241.613772 191.129501 
L 242.838684 191.359174 
L 242.838684 191.359174 
" style="fill:none;stroke:#6b6b6b;stroke-linecap:square;"/>
   </g>
   <g id="line2d_38">
    <path clip-path="url(#p87b9d61e57)" d="M 218.340456 151.133623 
L 223.240101 151.068002 
L 224.465013 151.133623 
L 226.914835 151.002382 
L 228.139747 151.166434 
L 230.58957 150.936761 
L 231.814481 151.199244 
L 234.264304 150.969571 
L 236.714127 151.133623 
L 240.388861 150.969571 
L 241.613772 151.002382 
L 242.838684 150.87114 
L 244.063595 150.90395 
L 245.288506 151.068002 
L 246.513418 151.100813 
L 248.963241 151.002382 
L 248.963241 151.002382 
" style="fill:none;stroke:#6b6b6b;stroke-linecap:square;"/>
   </g>
   <g id="line2d_39">
    <path clip-path="url(#p87b9d61e57)" d="M 220.790278 129.216276 
L 225.689924 129.774053 
L 226.914835 130.266209 
L 228.139747 130.561502 
L 229.364658 131.119279 
L 230.58957 130.922417 
L 231.814481 131.086469 
L 233.039392 131.873918 
L 234.264304 132.366074 
L 235.489215 132.169212 
L 236.714127 132.169212 
L 239.163949 130.33183 
L 240.388861 128.264774 
L 241.613772 132.628558 
L 242.838684 132.82542 
L 244.063595 132.497316 
L 245.288506 132.923851 
L 247.738329 132.530126 
L 248.963241 132.661368 
L 250.188152 133.284766 
L 251.413063 132.79261 
L 252.637975 132.82542 
L 253.862886 133.580059 
L 255.087797 133.547249 
L 255.087797 133.547249 
" style="fill:none;stroke:#6b6b6b;stroke-linecap:square;"/>
   </g>
   <g id="line2d_40">
    <path clip-path="url(#p87b9d61e57)" d="M 224.465013 136.500185 
L 225.689924 136.992341 
L 226.914835 138.731292 
L 229.364658 139.485931 
L 230.58957 140.371812 
L 231.814481 141.618607 
L 233.039392 143.45599 
L 234.264304 144.505922 
L 235.489215 146.343305 
L 237.939038 148.279118 
L 240.388861 151.494538 
L 241.613772 153.102247 
L 242.838684 154.906819 
L 244.063595 157.498841 
L 245.288506 159.697138 
L 247.738329 162.453211 
L 250.188152 166.784184 
L 252.637975 169.573068 
L 253.862886 170.721432 
L 255.087797 172.919729 
L 256.312709 172.755677 
L 257.53762 173.80561 
L 258.762532 175.938286 
L 262.437266 182.89409 
L 263.662177 184.665852 
L 266.112 186.99539 
L 267.336911 187.585978 
L 269.786734 187.389115 
L 269.786734 187.389115 
" style="fill:none;stroke:#6b6b6b;stroke-linecap:square;"/>
   </g>
   <g id="line2d_41">
    <path clip-path="url(#p87b9d61e57)" d="M 224.465013 199.036807 
L 225.689924 198.971186 
L 235.489215 200.250792 
L 236.714127 200.05393 
L 237.939038 200.316413 
L 241.613772 200.513275 
L 242.838684 200.578896 
L 244.063595 199.430532 
L 245.288506 200.217982 
L 246.513418 200.283602 
L 247.738329 200.578896 
L 248.963241 200.546086 
L 250.188152 200.841379 
L 251.413063 200.513275 
L 255.087797 200.775758 
L 256.312709 201.038242 
L 257.53762 200.87419 
L 258.762532 200.93981 
L 259.987443 201.202294 
L 261.212354 201.005431 
L 263.662177 201.267914 
L 264.887089 201.136673 
L 267.336911 201.792881 
L 268.561823 201.464777 
L 268.561823 201.464777 
" style="fill:none;stroke:#6b6b6b;stroke-linecap:square;"/>
   </g>
   <g id="line2d_42">
    <path clip-path="url(#p87b9d61e57)" d="M 237.939038 118.356034 
L 239.163949 118.487275 
L 240.388861 118.257602 
L 241.613772 118.191982 
L 244.063595 118.290413 
L 245.288506 118.159171 
L 247.738329 118.356034 
L 248.963241 118.191982 
L 248.963241 118.191982 
" style="fill:none;stroke:#6b6b6b;stroke-linecap:square;"/>
   </g>
   <g id="line2d_43">
    <path clip-path="url(#p87b9d61e57)" d="M 240.388861 142.340436 
L 241.613772 142.438867 
L 242.838684 142.406057 
L 244.063595 142.66854 
L 246.513418 142.766971 
L 247.738329 142.70135 
L 250.188152 143.095075 
L 251.413063 143.193506 
L 253.862886 143.849714 
L 255.087797 144.046577 
L 264.887089 143.980956 
L 266.112 143.849714 
L 267.336911 146.966702 
L 268.561823 143.948146 
L 275.911291 144.27625 
L 277.136203 144.932458 
L 278.361114 144.669974 
L 279.586025 144.899647 
L 280.810937 144.571543 
L 282.035848 145.063699 
L 284.485671 145.09651 
L 285.710582 145.063699 
L 288.160405 145.293372 
L 289.385316 145.16213 
L 291.835139 145.326182 
L 295.509873 145.293372 
L 301.63443 145.523045 
L 305.309165 145.851149 
L 306.534076 146.835461 
L 307.758987 146.638598 
L 308.983899 146.605788 
L 311.433722 146.76984 
L 315.108456 146.901082 
L 316.333367 146.76984 
L 318.78319 146.901082 
L 321.233013 146.835461 
L 327.35757 147.229186 
L 328.582481 147.130754 
L 331.032304 147.261996 
L 332.257215 147.163565 
L 332.257215 147.163565 
" style="fill:none;stroke:#6b6b6b;stroke-linecap:square;"/>
   </g>
   <g id="line2d_44">
    <path clip-path="url(#p87b9d61e57)" d="M 244.063595 172.23071 
L 245.288506 172.066658 
L 246.513418 172.23071 
L 251.413063 172.263521 
L 252.637975 172.558814 
L 253.862886 172.361952 
L 255.087797 172.427573 
L 255.087797 172.427573 
" style="fill:none;stroke:#6b6b6b;stroke-linecap:square;"/>
   </g>
   <g id="line2d_45">
    <path clip-path="url(#p87b9d61e57)" d="M 245.288506 154.349042 
L 246.513418 154.217801 
L 247.738329 154.349042 
L 248.963241 154.283422 
L 250.188152 154.086559 
L 250.188152 154.086559 
" style="fill:none;stroke:#6b6b6b;stroke-linecap:square;"/>
   </g>
   <g id="line2d_46">
    <path clip-path="url(#p87b9d61e57)" d="M 245.288506 155.75989 
L 246.513418 157.269168 
L 247.738329 159.204982 
L 248.963241 160.484587 
L 250.188152 162.617263 
L 250.188152 162.617263 
" style="fill:none;stroke:#6b6b6b;stroke-linecap:square;"/>
   </g>
   <g id="line2d_47">
    <path clip-path="url(#p87b9d61e57)" d="M 251.413063 136.500185 
L 252.637975 136.795478 
L 255.087797 138.764102 
L 256.312709 139.584362 
L 258.762532 142.045142 
L 259.987443 142.70135 
L 261.212354 144.177818 
L 262.437266 145.293372 
L 262.437266 145.293372 
" style="fill:none;stroke:#6b6b6b;stroke-linecap:square;"/>
   </g>
   <g id="line2d_48">
    <path clip-path="url(#p87b9d61e57)" d="M 251.413063 141.224882 
L 252.637975 142.865402 
L 253.862886 140.371812 
L 255.087797 141.093641 
L 256.312709 141.224882 
L 257.53762 140.437433 
L 258.762532 140.339002 
L 258.762532 140.339002 
" style="fill:none;stroke:#6b6b6b;stroke-linecap:square;"/>
   </g>
   <g id="line2d_49">
    <path clip-path="url(#p87b9d61e57)" d="M 256.312709 164.093731 
L 259.987443 171.508882 
L 261.212354 173.543126 
L 262.437266 175.314888 
L 264.887089 177.97253 
L 266.112 180.269258 
L 267.336911 181.778537 
L 268.561823 185.158008 
L 269.786734 185.35487 
L 271.011646 187.717219 
L 272.236557 187.520357 
L 273.461468 187.81565 
L 274.68638 187.979702 
L 275.911291 188.767152 
L 277.136203 188.832773 
L 278.361114 188.734342 
L 284.485671 189.128066 
L 286.935494 189.39055 
L 288.160405 189.488981 
L 289.385316 190.013947 
L 291.835139 190.24362 
L 294.284962 190.604534 
L 296.734785 190.899828 
L 297.959696 190.965449 
L 301.63443 191.556036 
L 302.859342 191.588846 
L 305.309165 191.85133 
L 306.534076 191.752898 
L 308.983899 191.91695 
L 310.20881 192.868452 
L 311.433722 193.130935 
L 312.658633 193.065314 
L 313.883544 193.130935 
L 316.333367 193.426229 
L 317.558278 193.294987 
L 318.78319 193.885574 
L 320.008101 193.819954 
L 322.457924 195.13237 
L 323.682835 195.16518 
L 324.907747 194.902697 
L 326.132658 195.427663 
L 328.582481 195.329232 
L 329.807392 195.558905 
L 332.257215 195.657336 
L 333.482127 196.182302 
L 334.707038 196.510406 
L 338.381772 197.002562 
L 339.606684 196.936942 
L 340.831595 197.133804 
L 342.056506 197.494718 
L 343.281418 197.59315 
L 344.506329 197.822822 
L 345.731241 197.560339 
L 346.956152 197.921254 
L 348.181063 197.494718 
L 350.630886 197.757202 
L 351.855797 197.65877 
L 353.080709 197.954064 
L 354.30562 197.954064 
L 355.530532 197.757202 
L 356.755443 198.347789 
L 360.430177 198.314978 
L 361.655089 198.380599 
L 361.655089 198.380599 
" style="fill:none;stroke:#6b6b6b;stroke-linecap:square;"/>
   </g>
   <g id="line2d_50">
    <path clip-path="url(#p87b9d61e57)" d="M 258.762532 133.416007 
L 259.987443 133.580059 
L 261.212354 133.448818 
L 263.662177 134.137836 
L 266.112 134.072215 
L 267.336911 134.006594 
L 268.561823 134.695613 
L 269.786734 135.712735 
L 271.011646 135.843977 
L 274.68638 135.614304 
L 275.911291 136.401754 
L 279.586025 136.172081 
L 280.810937 135.975218 
L 282.035848 136.992341 
L 282.035848 136.992341 
" style="fill:none;stroke:#6b6b6b;stroke-linecap:square;"/>
   </g>
   <g id="line2d_51">
    <path clip-path="url(#p87b9d61e57)" d="M 259.987443 172.361952 
L 261.212354 172.296331 
L 263.662177 172.526004 
L 264.887089 172.394762 
L 268.561823 172.624435 
L 269.786734 172.526004 
L 273.461468 172.591625 
L 275.911291 172.427573 
L 277.136203 172.526004 
L 280.810937 172.493194 
L 282.035848 172.526004 
L 283.260759 172.394762 
L 286.935494 172.690056 
L 288.160405 172.460383 
L 289.385316 172.624435 
L 293.060051 172.558814 
L 294.284962 172.690056 
L 297.959696 172.591625 
L 300.409519 172.690056 
L 301.63443 172.493194 
L 304.084253 172.755677 
L 305.309165 172.624435 
L 306.534076 172.821298 
L 307.758987 172.755677 
L 308.983899 172.854108 
L 315.108456 172.788487 
L 316.333367 172.886918 
L 317.558278 172.657246 
L 318.78319 172.788487 
L 329.807392 172.690056 
L 331.032304 172.624435 
L 332.257215 172.722866 
L 333.482127 172.624435 
L 335.931949 172.886918 
L 337.156861 172.854108 
L 338.381772 173.083781 
L 339.606684 173.444695 
L 345.731241 173.543126 
L 346.956152 173.346264 
L 349.405975 173.477506 
L 351.855797 173.379074 
L 353.080709 173.379074 
L 354.30562 173.510316 
L 355.530532 173.444695 
L 359.205266 173.674368 
L 360.430177 173.575937 
L 361.655089 173.346264 
L 361.655089 173.346264 
" style="fill:none;stroke:#6b6b6b;stroke-linecap:square;"/>
   </g>
   <g id="line2d_52">
    <path clip-path="url(#p87b9d61e57)" d="M 263.662177 99.457243 
L 264.887089 99.654106 
L 266.112 100.244693 
L 269.786734 101.524298 
L 271.011646 101.557109 
L 272.236557 101.721161 
L 273.461468 101.65554 
L 274.68638 101.885213 
L 275.911291 99.358812 
L 277.136203 101.885213 
L 280.810937 101.65554 
L 282.035848 101.68835 
L 283.260759 101.885213 
L 284.485671 101.786782 
L 285.710582 101.819592 
L 289.385316 101.524298 
L 290.610228 101.65554 
L 293.060051 101.557109 
L 294.284962 101.491488 
L 295.509873 101.65554 
L 312.658633 101.65554 
L 313.883544 101.524298 
L 322.457924 101.721161 
L 323.682835 101.589919 
L 324.907747 101.68835 
L 326.132658 101.557109 
L 327.35757 101.65554 
L 328.582481 101.524298 
L 329.807392 101.68835 
L 332.257215 101.62273 
L 354.30562 101.62273 
L 355.530532 101.458678 
L 357.980354 101.557109 
L 361.655089 101.589919 
L 361.655089 101.589919 
" style="fill:none;stroke:#6b6b6b;stroke-linecap:square;"/>
   </g>
   <g id="line2d_53">
    <path clip-path="url(#p87b9d61e57)" d="M 263.662177 116.977997 
L 264.887089 117.831067 
L 266.112 118.257602 
L 267.336911 118.487275 
L 269.786734 118.388844 
L 271.011646 117.371722 
L 272.236557 117.831067 
L 275.911291 117.371722 
L 277.136203 117.863878 
L 277.136203 117.863878 
" style="fill:none;stroke:#6b6b6b;stroke-linecap:square;"/>
   </g>
   <g id="line2d_54">
    <path clip-path="url(#p87b9d61e57)" d="M 273.461468 201.858502 
L 274.68638 202.613141 
L 275.911291 202.810003 
L 277.136203 202.613141 
L 279.586025 202.875624 
L 280.810937 202.777193 
L 283.260759 203.105297 
L 284.485671 203.039676 
L 284.485671 203.039676 
" style="fill:none;stroke:#6b6b6b;stroke-linecap:square;"/>
   </g>
   <g id="line2d_55">
    <path clip-path="url(#p87b9d61e57)" d="M 275.911291 188.6031 
L 277.136203 188.701531 
L 278.361114 189.095256 
L 280.810937 189.488981 
L 282.035848 189.718654 
L 283.260759 189.653033 
L 283.260759 189.653033 
" style="fill:none;stroke:#6b6b6b;stroke-linecap:square;"/>
   </g>
   <g id="line2d_56">
    <path clip-path="url(#p87b9d61e57)" d="M 282.035848 134.794044 
L 283.260759 135.2862 
L 285.710582 135.548683 
L 286.935494 135.25339 
L 288.160405 136.92672 
L 289.385316 137.484497 
L 291.835139 137.517307 
L 293.060051 137.74698 
L 295.509873 137.451686 
L 296.734785 137.648549 
L 299.184608 137.484497 
L 300.409519 137.418876 
L 301.63443 137.812601 
L 306.534076 138.435998 
L 307.758987 138.337567 
L 310.20881 138.435998 
L 311.433722 138.56724 
L 324.907747 138.60005 
L 327.35757 138.796913 
L 332.257215 138.632861 
L 333.482127 139.059396 
L 334.707038 138.993775 
L 337.156861 139.157827 
L 338.381772 139.092206 
L 340.831595 139.35469 
L 346.956152 139.453121 
L 346.956152 139.453121 
" style="fill:none;stroke:#6b6b6b;stroke-linecap:square;"/>
   </g>
   <g id="line2d_57">
    <path clip-path="url(#p87b9d61e57)" d="M 285.710582 121.210538 
L 286.935494 122.621386 
L 288.160405 124.327526 
L 291.835139 126.755496 
L 296.734785 132.169212 
L 297.959696 132.759799 
L 299.184608 133.875353 
L 300.409519 135.712735 
L 301.63443 135.712735 
L 302.859342 136.762668 
L 304.084253 136.89391 
L 305.309165 137.254824 
L 306.534076 137.386066 
L 308.983899 137.812601 
L 308.983899 137.812601 
" style="fill:none;stroke:#6b6b6b;stroke-linecap:square;"/>
   </g>
   <g id="line2d_58">
    <path clip-path="url(#p87b9d61e57)" d="M 290.610228 122.621386 
L 291.835139 124.721251 
L 293.060051 126.394582 
L 294.284962 126.657065 
L 295.509873 126.427392 
L 296.734785 127.411704 
L 297.959696 127.838239 
L 299.184608 127.969481 
L 299.184608 127.969481 
" style="fill:none;stroke:#6b6b6b;stroke-linecap:square;"/>
   </g>
   <g id="line2d_59">
    <path clip-path="url(#p87b9d61e57)" d="M 297.959696 136.237702 
L 299.184608 136.204891 
L 301.63443 136.303322 
L 304.084253 136.303322 
L 308.983899 136.270512 
L 313.883544 136.303322 
L 328.582481 136.237702 
L 329.807392 136.10646 
L 338.381772 136.10646 
L 338.381772 136.10646 
" style="fill:none;stroke:#6b6b6b;stroke-linecap:square;"/>
   </g>
   <g id="line2d_60">
    <path clip-path="url(#p87b9d61e57)" d="M 302.859342 128.067912 
L 304.084253 127.969481 
L 305.309165 128.396016 
L 306.534076 128.986603 
L 307.758987 128.789741 
L 310.20881 129.938105 
L 311.433722 130.36464 
L 312.658633 123.441646 
L 313.883544 125.771184 
L 315.108456 130.495882 
L 316.333367 129.675622 
L 317.558278 130.167778 
L 318.78319 130.003726 
L 320.008101 130.528692 
L 320.008101 130.528692 
" style="fill:none;stroke:#6b6b6b;stroke-linecap:square;"/>
   </g>
   <g id="line2d_61">
    <path clip-path="url(#p87b9d61e57)" d="M 304.084253 116.157737 
L 305.309165 116.977997 
L 306.534076 117.995119 
L 307.758987 119.241914 
L 308.983899 120.094985 
L 310.20881 121.210538 
L 311.433722 121.112107 
L 312.658633 122.752627 
L 313.883544 123.671318 
L 315.108456 123.868181 
L 317.558278 124.59001 
L 318.78319 125.246218 
L 320.008101 125.47589 
L 322.457924 125.705563 
L 323.682835 126.26334 
L 327.35757 127.149221 
L 328.582481 127.11641 
L 329.807392 126.722686 
L 329.807392 126.722686 
" style="fill:none;stroke:#6b6b6b;stroke-linecap:square;"/>
   </g>
   <g id="line2d_62">
    <path clip-path="url(#p87b9d61e57)" d="M 304.084253 188.57029 
L 306.534076 188.734342 
L 307.758987 188.63591 
L 310.20881 188.799962 
L 311.433722 188.537479 
L 312.658633 189.587412 
L 315.108456 189.784274 
L 316.333367 188.865583 
L 317.558278 188.767152 
L 318.78319 190.013947 
L 321.233013 190.374862 
L 322.457924 189.42336 
L 323.682835 189.718654 
L 323.682835 189.718654 
" style="fill:none;stroke:#6b6b6b;stroke-linecap:square;"/>
   </g>
   <g id="line2d_63">
    <path clip-path="url(#p87b9d61e57)" d="M 307.758987 204.614575 
L 308.983899 205.04111 
L 310.20881 204.680196 
L 311.433722 205.598887 
L 312.658633 205.598887 
L 312.658633 205.598887 
" style="fill:none;stroke:#6b6b6b;stroke-linecap:square;"/>
   </g>
   <g id="line2d_64">
    <path clip-path="url(#p87b9d61e57)" d="M 312.658633 137.943842 
L 315.108456 137.976653 
L 316.333367 138.304757 
L 317.558278 137.845411 
L 318.78319 137.812601 
L 320.008101 138.042274 
L 324.907747 138.337567 
L 324.907747 138.337567 
" style="fill:none;stroke:#6b6b6b;stroke-linecap:square;"/>
   </g>
   <g id="line2d_65">
    <path clip-path="url(#p87b9d61e57)" d="M 315.108456 119.012242 
L 316.333367 118.684138 
L 317.558278 118.946621 
L 318.78319 119.635639 
L 321.233013 118.946621 
L 322.457924 118.979431 
L 323.682835 119.570018 
L 324.907747 119.307535 
L 326.132658 119.799691 
L 329.807392 119.70126 
L 331.032304 119.832502 
L 333.482127 119.73407 
L 340.831595 119.73407 
L 342.056506 119.635639 
L 344.506329 119.766881 
L 345.731241 119.602829 
L 348.181063 119.865312 
L 353.080709 119.832502 
L 356.755443 119.898122 
L 361.655089 119.73407 
L 361.655089 119.73407 
" style="fill:none;stroke:#6b6b6b;stroke-linecap:square;"/>
   </g>
   <g id="line2d_66">
    <path clip-path="url(#p87b9d61e57)" d="M 315.108456 206.287906 
L 316.333367 206.911303 
L 317.558278 207.042545 
L 320.008101 207.633132 
L 321.233013 207.698753 
L 322.457924 207.534701 
L 324.907747 207.567511 
L 327.35757 207.567511 
L 329.807392 207.305028 
L 329.807392 207.305028 
" style="fill:none;stroke:#6b6b6b;stroke-linecap:square;"/>
   </g>
   <g id="line2d_67">
    <path clip-path="url(#p87b9d61e57)" d="M 326.132658 130.430261 
L 327.35757 130.725554 
L 333.482127 133.580059 
L 334.707038 133.908163 
L 335.931949 135.089338 
L 338.381772 138.731292 
L 339.606684 139.453121 
L 340.831595 139.485931 
L 342.056506 140.17495 
L 343.281418 141.552986 
L 344.506329 142.66854 
L 345.731241 143.423179 
L 346.956152 144.604354 
L 348.181063 145.98239 
L 350.630886 148.213498 
L 353.080709 149.033758 
L 354.30562 150.247742 
L 355.530532 151.166434 
L 356.755443 151.6914 
L 357.980354 151.6914 
L 359.205266 151.921073 
L 360.430177 152.281987 
L 361.655089 152.216366 
L 361.655089 152.216366 
" style="fill:none;stroke:#6b6b6b;stroke-linecap:square;"/>
   </g>
   <g id="line2d_68">
    <path clip-path="url(#p87b9d61e57)" d="M 339.606684 147.491669 
L 342.056506 147.393238 
L 343.281418 147.688531 
L 345.731241 147.458858 
L 348.181063 147.721342 
L 349.405975 147.655721 
L 350.630886 147.852583 
L 353.080709 147.819773 
L 354.30562 148.016635 
L 357.980354 148.147877 
L 359.205266 148.44317 
L 360.430177 148.508791 
L 361.655089 148.771274 
L 361.655089 148.771274 
" style="fill:none;stroke:#6b6b6b;stroke-linecap:square;"/>
   </g>
   <g id="line2d_69">
    <path clip-path="url(#p87b9d61e57)" d="M 342.056506 136.040839 
L 343.281418 136.13927 
L 345.731241 136.13927 
L 350.630886 136.237702 
L 353.080709 136.13927 
L 357.980354 136.172081 
L 359.205266 136.040839 
L 361.655089 136.204891 
L 361.655089 136.204891 
" style="fill:none;stroke:#6b6b6b;stroke-linecap:square;"/>
   </g>
   <g id="line2d_70">
    <path clip-path="url(#p87b9d61e57)" d="M 345.731241 150.05088 
L 348.181063 151.855452 
L 349.405975 152.905385 
L 350.630886 153.660024 
L 351.855797 155.82551 
L 354.30562 157.203547 
L 357.980354 160.320535 
L 359.205266 161.600141 
L 360.430177 163.240661 
L 360.430177 163.240661 
" style="fill:none;stroke:#6b6b6b;stroke-linecap:square;"/>
   </g>
   <g id="line2d_71">
    <path clip-path="url(#p87b9d61e57)" d="M 351.855797 139.3875 
L 356.755443 139.617173 
L 359.205266 139.518742 
L 360.430177 139.846846 
L 361.655089 139.748414 
L 361.655089 139.748414 
" style="fill:none;stroke:#6b6b6b;stroke-linecap:square;"/>
   </g>
   <g id="line2d_72">
    <path clip-path="url(#p87b9d61e57)" d="M 351.855797 133.055093 
L 353.080709 134.367509 
L 354.30562 135.843977 
L 355.530532 137.77979 
L 356.755443 138.304757 
L 357.980354 140.535864 
L 359.205266 141.356124 
L 360.430177 142.70135 
L 361.655089 144.27625 
L 361.655089 144.27625 
" style="fill:none;stroke:#6b6b6b;stroke-linecap:square;"/>
   </g>
   <g id="text_12">
    <!-- outputchannel reached -->
    <g transform="translate(78.700557 234.947457)scale(0.145 -0.145)">
     <defs>
      <path d="M 37.59375 27.984375 
C 37.59375 37.375 30.90625 43.875 21.90625 43.875 
C 17.5 43.875 12.703125 43.078125 7.203125 39.890625 
L 7.796875 33.359375 
C 10.296875 35.125 14.59375 38 21.796875 38 
C 26.90625 38 30 34.0625 30 27.84375 
L 30 24 
C 14 24 4 19.34375 4 11.34375 
C 4 7.203125 6.5 -1 14.796875 -1 
C 16.296875 -1 24.40625 -1 30.203125 3.390625 
L 30.203125 -0.296875 
L 37.59375 -0.296875 
z
M 30 12.75 
C 30 10.953125 30 8.5625 27 6.78125 
C 24.40625 5.078125 21.09375 5.078125 19.703125 5.078125 
C 14.703125 5.078125 11.296875 7.984375 11.296875 11.625 
C 11.296875 18.921875 26.90625 18.921875 30 18.921875 
z
" id="CMSS17-97"/>
      <path d="M 40.90625 29.328125 
C 40.90625 35.671875 39.40625 44 28.09375 44 
C 21.703125 44 17.5 40.71875 14.703125 37.328125 
L 14.703125 43.09375 
L 7.40625 43.09375 
L 7.40625 0 
L 15 0 
L 15 24.359375 
C 15 30.6875 17.40625 37.9375 24.203125 37.9375 
C 33 37.9375 33.296875 32 33.296875 28.578125 
L 33.296875 0 
L 40.90625 0 
z
" id="CMSS17-110"/>
      <path d="M 39.09375 21.515625 
C 39.09375 24.84375 38.90625 31.296875 35.703125 36.640625 
C 32.203125 42.390625 26.5 44 22.203125 44 
C 11.796875 44 3 34.1875 3 21.484375 
C 3 9.09375 12.09375 -1 23.59375 -1 
C 28.09375 -1 33.59375 0.296875 38.59375 3.875 
C 38.59375 4.28125 38.40625 6.46875 38.296875 6.5625 
C 38.296875 6.765625 38 9.84375 38 10.25 
C 33.203125 6.359375 27.703125 5.078125 23.703125 5.078125 
C 17.296875 5.078125 10.40625 10.421875 10.09375 21.515625 
z
M 10.90625 27 
C 12.203125 32.5625 16.59375 37.828125 22.203125 37.828125 
C 23.703125 37.828125 30.703125 37.828125 32.5 27 
z
" id="CMSS17-101"/>
      <path d="M 14.796875 69 
L 7.40625 69 
L 7.40625 0 
L 14.796875 0 
z
" id="CMSS17-108"/>
      <path d="M 14.90625 21.296875 
C 14.90625 30.703125 21.796875 37 30.59375 37 
L 30.59375 43.578125 
C 24.203125 43.578125 18.203125 40.390625 14.59375 35.203125 
L 14.59375 43.09375 
L 7.5 43.09375 
L 7.5 0 
L 14.90625 0 
z
" id="CMSS17-114"/>
     </defs>
     <use transform="scale(0.996264)" xlink:href="#CMSS17-111"/>
     <use transform="translate(46.843624 0)scale(0.996264)" xlink:href="#CMSS17-117"/>
     <use transform="translate(95.048567 0)scale(0.996264)" xlink:href="#CMSS17-116"/>
     <use transform="translate(128.880133 0)scale(0.996264)" xlink:href="#CMSS17-112"/>
     <use transform="translate(177.085076 0)scale(0.996264)" xlink:href="#CMSS17-117"/>
     <use transform="translate(225.29002 0)scale(0.996264)" xlink:href="#CMSS17-116"/>
     <use transform="translate(259.121586 0)scale(0.996264)" xlink:href="#CMSS17-99"/>
     <use transform="translate(300.760408 0)scale(0.996264)" xlink:href="#CMSS17-104"/>
     <use transform="translate(348.965351 0)scale(0.996264)" xlink:href="#CMSS17-97"/>
     <use transform="translate(393.887272 0)scale(0.996264)" xlink:href="#CMSS17-110"/>
     <use transform="translate(442.092215 0)scale(0.996264)" xlink:href="#CMSS17-110"/>
     <use transform="translate(490.297158 0)scale(0.996264)" xlink:href="#CMSS17-101"/>
     <use transform="translate(531.93598 0)scale(0.996264)" xlink:href="#CMSS17-108"/>
     <use transform="translate(585.345816 0)scale(0.996264)" xlink:href="#CMSS17-114"/>
     <use transform="translate(617.255589 0)scale(0.996264)" xlink:href="#CMSS17-101"/>
     <use transform="translate(658.894411 0)scale(0.996264)" xlink:href="#CMSS17-97"/>
     <use transform="translate(703.816331 0)scale(0.996264)" xlink:href="#CMSS17-99"/>
     <use transform="translate(745.455154 0)scale(0.996264)" xlink:href="#CMSS17-104"/>
     <use transform="translate(793.660097 0)scale(0.996264)" xlink:href="#CMSS17-101"/>
     <use transform="translate(835.298919 0)scale(0.996264)" xlink:href="#CMSS17-100"/>
    </g>
   </g>
   <g id="text_13">
    <!-- tl14-D05-G005 -->
    <g transform="translate(165.854091 15.24)scale(0.18 -0.18)">
     <defs>
      <path d="M 26 19 
L 26 24.765625 
L 1 24.765625 
L 1 19 
z
" id="CMSS17-45"/>
      <path d="M 56.296875 29 
L 36.5 29 
L 36.5 22.921875 
L 48.703125 22.921875 
L 48.703125 6.28125 
C 46.59375 5.578125 41.90625 4.375 36.90625 4.375 
C 24 4.375 14.59375 18 14.59375 34.109375 
C 14.59375 50.3125 24 63.828125 36.90625 63.828125 
C 42.796875 63.828125 48.5 62.34375 54 57.390625 
L 54.09375 57.390625 
L 55.5 65.328125 
C 47.5 70 40.59375 70 36.90625 70 
C 19.40625 70 6.203125 53.640625 6.203125 34 
C 6.203125 14.0625 19.703125 -2 36.796875 -2 
C 43.59375 -2 50.203125 -0.203125 56.296875 2.875 
z
" id="CMSS17-71"/>
     </defs>
     <use transform="scale(0.996264)" xlink:href="#CMSS17-116"/>
     <use transform="translate(33.831567 0)scale(0.996264)" xlink:href="#CMSS17-108"/>
     <use transform="translate(56.01229 0)scale(0.996264)" xlink:href="#CMSS17-49"/>
     <use transform="translate(102.855913 0)scale(0.996264)" xlink:href="#CMSS17-52"/>
     <use transform="translate(149.699537 0)scale(0.996264)" xlink:href="#CMSS17-45"/>
     <use transform="translate(180.92865 0)scale(0.996264)" xlink:href="#CMSS17-68"/>
     <use transform="translate(248.471491 0)scale(0.996264)" xlink:href="#CMSS17-48"/>
     <use transform="translate(295.315115 0)scale(0.996264)" xlink:href="#CMSS17-53"/>
     <use transform="translate(342.158738 0)scale(0.996264)" xlink:href="#CMSS17-45"/>
     <use transform="translate(373.387851 0)scale(0.996264)" xlink:href="#CMSS17-71"/>
     <use transform="translate(435.846076 0)scale(0.996264)" xlink:href="#CMSS17-48"/>
     <use transform="translate(482.6897 0)scale(0.996264)" xlink:href="#CMSS17-48"/>
     <use transform="translate(529.533324 0)scale(0.996264)" xlink:href="#CMSS17-53"/>
    </g>
   </g>
   <g id="PathCollection_1">
    <path clip-path="url(#p87b9d61e57)" d="M 117.897722 163.429534 
C 118.835356 163.429534 119.734714 163.057008 120.397722 162.394 
C 121.060729 161.730992 121.433255 160.831635 121.433255 159.894 
C 121.433255 158.956365 121.060729 158.057008 120.397722 157.394 
C 119.734714 156.730992 118.835356 156.358466 117.897722 156.358466 
C 116.960087 156.358466 116.060729 156.730992 115.397722 157.394 
C 114.734714 158.057008 114.362188 158.956365 114.362188 159.894 
C 114.362188 160.831635 114.734714 161.730992 115.397722 162.394 
C 116.060729 163.057008 116.960087 163.429534 117.897722 163.429534 
z
" style="fill:none;stroke:#01ff6b;stroke-opacity:0.4;"/>
   </g>
   <g id="PathCollection_2">
    <path clip-path="url(#p87b9d61e57)" d="M 93.399494 155.7519 
C 94.337128 155.7519 95.236486 155.379374 95.899494 154.716366 
C 96.562501 154.053359 96.935028 153.154001 96.935028 152.216366 
C 96.935028 151.278732 96.562501 150.379374 95.899494 149.716366 
C 95.236486 149.053359 94.337128 148.680832 93.399494 148.680832 
C 92.461859 148.680832 91.562501 149.053359 90.899494 149.716366 
C 90.236486 150.379374 89.86396 151.278732 89.86396 152.216366 
C 89.86396 153.154001 90.236486 154.053359 90.899494 154.716366 
C 91.562501 155.379374 92.461859 155.7519 93.399494 155.7519 
z
" style="fill:none;stroke:#01ff6b;stroke-opacity:0.4;"/>
   </g>
   <g id="PathCollection_3">
    <path clip-path="url(#p87b9d61e57)" d="M 138.721215 119.135494 
C 139.65885 119.135494 140.558207 118.762968 141.221215 118.09996 
C 141.884223 117.436952 142.256749 116.537595 142.256749 115.59996 
C 142.256749 114.662325 141.884223 113.762968 141.221215 113.09996 
C 140.558207 112.436952 139.65885 112.064426 138.721215 112.064426 
C 137.783581 112.064426 136.884223 112.436952 136.221215 113.09996 
C 135.558207 113.762968 135.185681 114.662325 135.185681 115.59996 
C 135.185681 116.537595 135.558207 117.436952 136.221215 118.09996 
C 136.884223 118.762968 137.783581 119.135494 138.721215 119.135494 
z
" style="fill:none;stroke:#01ff6b;stroke-opacity:0.4;"/>
   </g>
   <g id="PathCollection_4">
    <path clip-path="url(#p87b9d61e57)" d="M 114.222987 150.895961 
C 115.160622 150.895961 116.05998 150.523435 116.722987 149.860427 
C 117.385995 149.197419 117.758521 148.298062 117.758521 147.360427 
C 117.758521 146.422793 117.385995 145.523435 116.722987 144.860427 
C 116.05998 144.197419 115.160622 143.824893 114.222987 143.824893 
C 113.285353 143.824893 112.385995 144.197419 111.722987 144.860427 
C 111.05998 145.523435 110.687453 146.422793 110.687453 147.360427 
C 110.687453 148.298062 111.05998 149.197419 111.722987 149.860427 
C 112.385995 150.523435 113.285353 150.895961 114.222987 150.895961 
z
" style="fill:none;stroke:#01ff6b;stroke-opacity:0.4;"/>
   </g>
   <g id="PathCollection_5">
    <path clip-path="url(#p87b9d61e57)" d="M 186.492759 154.636347 
C 187.430394 154.636347 188.329752 154.263821 188.992759 153.600813 
C 189.655767 152.937805 190.028293 152.038447 190.028293 151.100813 
C 190.028293 150.163178 189.655767 149.263821 188.992759 148.600813 
C 188.329752 147.937805 187.430394 147.565279 186.492759 147.565279 
C 185.555125 147.565279 184.655767 147.937805 183.992759 148.600813 
C 183.329752 149.263821 182.957226 150.163178 182.957226 151.100813 
C 182.957226 152.038447 183.329752 152.937805 183.992759 153.600813 
C 184.655767 154.263821 185.555125 154.636347 186.492759 154.636347 
z
" style="fill:none;stroke:#01ff6b;stroke-opacity:0.4;"/>
   </g>
   <g id="PathCollection_6">
    <path clip-path="url(#p87b9d61e57)" d="M 214.665722 132.259654 
C 215.603356 132.259654 216.502714 131.887128 217.165722 131.22412 
C 217.828729 130.561112 218.201255 129.661755 218.201255 128.72412 
C 218.201255 127.786485 217.828729 126.887128 217.165722 126.22412 
C 216.502714 125.561112 215.603356 125.188586 214.665722 125.188586 
C 213.728087 125.188586 212.828729 125.561112 212.165722 126.22412 
C 211.502714 126.887128 211.130188 127.786485 211.130188 128.72412 
C 211.130188 129.661755 211.502714 130.561112 212.165722 131.22412 
C 212.828729 131.887128 213.728087 132.259654 214.665722 132.259654 
z
" style="fill:none;stroke:#01ff6b;stroke-opacity:0.4;"/>
   </g>
   <g id="PathCollection_7">
    <path clip-path="url(#p87b9d61e57)" d="M 240.388861 175.635003 
C 241.326495 175.635003 242.225853 175.262477 242.888861 174.599469 
C 243.551869 173.936461 243.924395 173.037103 243.924395 172.099469 
C 243.924395 171.161834 243.551869 170.262477 242.888861 169.599469 
C 242.225853 168.936461 241.326495 168.563935 240.388861 168.563935 
C 239.451226 168.563935 238.551869 168.936461 237.888861 169.599469 
C 237.225853 170.262477 236.853327 171.161834 236.853327 172.099469 
C 236.853327 173.037103 237.225853 173.936461 237.888861 174.599469 
C 238.551869 175.262477 239.451226 175.635003 240.388861 175.635003 
z
" style="fill:none;stroke:#01ff6b;stroke-opacity:0.4;"/>
   </g>
   <g id="PathCollection_8">
    <path clip-path="url(#p87b9d61e57)" d="M 160.76962 137.837422 
C 161.707255 137.837422 162.606613 137.464896 163.26962 136.801888 
C 163.932628 136.13888 164.305154 135.239523 164.305154 134.301888 
C 164.305154 133.364253 163.932628 132.464896 163.26962 131.801888 
C 162.606613 131.13888 161.707255 130.766354 160.76962 130.766354 
C 159.831986 130.766354 158.932628 131.13888 158.26962 131.801888 
C 157.606613 132.464896 157.234086 133.364253 157.234086 134.301888 
C 157.234086 135.239523 157.606613 136.13888 158.26962 136.801888 
C 158.932628 137.464896 159.831986 137.837422 160.76962 137.837422 
z
" style="fill:none;stroke:#01ff6b;stroke-opacity:0.4;"/>
   </g>
   <g id="PathCollection_9">
    <path clip-path="url(#p87b9d61e57)" d="M 204.86643 200.734959 
C 205.804065 200.734959 206.703423 200.362433 207.36643 199.699425 
C 208.029438 199.036417 208.401964 198.137059 208.401964 197.199425 
C 208.401964 196.26179 208.029438 195.362433 207.36643 194.699425 
C 206.703423 194.036417 205.804065 193.663891 204.86643 193.663891 
C 203.928796 193.663891 203.029438 194.036417 202.36643 194.699425 
C 201.703423 195.362433 201.330896 196.26179 201.330896 197.199425 
C 201.330896 198.137059 201.703423 199.036417 202.36643 199.699425 
C 203.029438 200.362433 203.928796 200.734959 204.86643 200.734959 
z
" style="fill:none;stroke:#01ff6b;stroke-opacity:0.4;"/>
   </g>
   <g id="PathCollection_10">
    <path clip-path="url(#p87b9d61e57)" d="M 206.091342 124.746072 
C 207.028976 124.746072 207.928334 124.373546 208.591342 123.710538 
C 209.25435 123.047531 209.626876 122.148173 209.626876 121.210538 
C 209.626876 120.272904 209.25435 119.373546 208.591342 118.710538 
C 207.928334 118.047531 207.028976 117.675004 206.091342 117.675004 
C 205.153707 117.675004 204.25435 118.047531 203.591342 118.710538 
C 202.928334 119.373546 202.555808 120.272904 202.555808 121.210538 
C 202.555808 122.148173 202.928334 123.047531 203.591342 123.710538 
C 204.25435 124.373546 205.153707 124.746072 206.091342 124.746072 
z
" style="fill:none;stroke:#01ff6b;stroke-opacity:0.4;"/>
   </g>
   <g id="PathCollection_11">
    <path clip-path="url(#p87b9d61e57)" d="M 236.714127 157.720524 
C 237.651761 157.720524 238.551119 157.347998 239.214127 156.68499 
C 239.877134 156.021983 240.24966 155.122625 240.24966 154.18499 
C 240.24966 153.247356 239.877134 152.347998 239.214127 151.68499 
C 238.551119 151.021983 237.651761 150.649456 236.714127 150.649456 
C 235.776492 150.649456 234.877134 151.021983 234.214127 151.68499 
C 233.551119 152.347998 233.178593 153.247356 233.178593 154.18499 
C 233.178593 155.122625 233.551119 156.021983 234.214127 156.68499 
C 234.877134 157.347998 235.776492 157.720524 236.714127 157.720524 
z
" style="fill:none;stroke:#01ff6b;stroke-opacity:0.4;"/>
   </g>
   <g id="PathCollection_12">
    <path clip-path="url(#p87b9d61e57)" d="M 199.966785 145.252572 
C 200.904419 145.252572 201.803777 144.880046 202.466785 144.217038 
C 203.129793 143.554031 203.502319 142.654673 203.502319 141.717038 
C 203.502319 140.779404 203.129793 139.880046 202.466785 139.217038 
C 201.803777 138.554031 200.904419 138.181504 199.966785 138.181504 
C 199.02915 138.181504 198.129793 138.554031 197.466785 139.217038 
C 196.803777 139.880046 196.431251 140.779404 196.431251 141.717038 
C 196.431251 142.654673 196.803777 143.554031 197.466785 144.217038 
C 198.129793 144.880046 199.02915 145.252572 199.966785 145.252572 
z
" style="fill:none;stroke:#01ff6b;stroke-opacity:0.4;"/>
   </g>
   <g id="PathCollection_13">
    <path clip-path="url(#p87b9d61e57)" d="M 223.240101 183.673551 
C 224.177736 183.673551 225.077094 183.301025 225.740101 182.638017 
C 226.403109 181.975009 226.775635 181.075651 226.775635 180.138017 
C 226.775635 179.200382 226.403109 178.301025 225.740101 177.638017 
C 225.077094 176.975009 224.177736 176.602483 223.240101 176.602483 
C 222.302467 176.602483 221.403109 176.975009 220.740101 177.638017 
C 220.077094 178.301025 219.704567 179.200382 219.704567 180.138017 
C 219.704567 181.075651 220.077094 181.975009 220.740101 182.638017 
C 221.403109 183.301025 222.302467 183.673551 223.240101 183.673551 
z
" style="fill:none;stroke:#01ff6b;stroke-opacity:0.4;"/>
   </g>
   <g id="PathCollection_14">
    <path clip-path="url(#p87b9d61e57)" d="M 262.437266 192.401117 
C 263.3749 192.401117 264.274258 192.028591 264.937266 191.365583 
C 265.600274 190.702575 265.9728 189.803218 265.9728 188.865583 
C 265.9728 187.927949 265.600274 187.028591 264.937266 186.365583 
C 264.274258 185.702575 263.3749 185.330049 262.437266 185.330049 
C 261.499631 185.330049 260.600274 185.702575 259.937266 186.365583 
C 259.274258 187.028591 258.901732 187.927949 258.901732 188.865583 
C 258.901732 189.803218 259.274258 190.702575 259.937266 191.365583 
C 260.600274 192.028591 261.499631 192.401117 262.437266 192.401117 
z
" style="fill:none;stroke:#01ff6b;stroke-opacity:0.4;"/>
   </g>
   <g id="PathCollection_15">
    <path clip-path="url(#p87b9d61e57)" d="M 207.316253 184.625052 
C 208.253888 184.625052 209.153245 184.252526 209.816253 183.589518 
C 210.479261 182.926511 210.851787 182.027153 210.851787 181.089518 
C 210.851787 180.151884 210.479261 179.252526 209.816253 178.589518 
C 209.153245 177.926511 208.253888 177.553984 207.316253 177.553984 
C 206.378619 177.553984 205.479261 177.926511 204.816253 178.589518 
C 204.153245 179.252526 203.780719 180.151884 203.780719 181.089518 
C 203.780719 182.027153 204.153245 182.926511 204.816253 183.589518 
C 205.479261 184.252526 206.378619 184.625052 207.316253 184.625052 
z
" style="fill:none;stroke:#01ff6b;stroke-opacity:0.4;"/>
   </g>
   <g id="PathCollection_16">
    <path clip-path="url(#p87b9d61e57)" d="M 209.766076 193.549481 
C 210.703711 193.549481 211.603068 193.176955 212.266076 192.513947 
C 212.929084 191.850939 213.30161 190.951582 213.30161 190.013947 
C 213.30161 189.076313 212.929084 188.176955 212.266076 187.513947 
C 211.603068 186.850939 210.703711 186.478413 209.766076 186.478413 
C 208.828441 186.478413 207.929084 186.850939 207.266076 187.513947 
C 206.603068 188.176955 206.230542 189.076313 206.230542 190.013947 
C 206.230542 190.951582 206.603068 191.850939 207.266076 192.513947 
C 207.929084 193.176955 208.828441 193.549481 209.766076 193.549481 
z
" style="fill:none;stroke:#01ff6b;stroke-opacity:0.4;"/>
   </g>
   <g id="PathCollection_17">
    <path clip-path="url(#p87b9d61e57)" d="M 242.838684 194.894708 
C 243.776318 194.894708 244.675676 194.522181 245.338684 193.859174 
C 246.001691 193.196166 246.374217 192.296808 246.374217 191.359174 
C 246.374217 190.421539 246.001691 189.522181 245.338684 188.859174 
C 244.675676 188.196166 243.776318 187.82364 242.838684 187.82364 
C 241.901049 187.82364 241.001691 188.196166 240.338684 188.859174 
C 239.675676 189.522181 239.30315 190.421539 239.30315 191.359174 
C 239.30315 192.296808 239.675676 193.196166 240.338684 193.859174 
C 241.001691 194.522181 241.901049 194.894708 242.838684 194.894708 
z
" style="fill:none;stroke:#01ff6b;stroke-opacity:0.4;"/>
   </g>
   <g id="PathCollection_18">
    <path clip-path="url(#p87b9d61e57)" d="M 269.786734 190.924649 
C 270.724369 190.924649 271.623726 190.552123 272.286734 189.889115 
C 272.949742 189.226107 273.322268 188.32675 273.322268 187.389115 
C 273.322268 186.451481 272.949742 185.552123 272.286734 184.889115 
C 271.623726 184.226107 270.724369 183.853581 269.786734 183.853581 
C 268.8491 183.853581 267.949742 184.226107 267.286734 184.889115 
C 266.623726 185.552123 266.2512 186.451481 266.2512 187.389115 
C 266.2512 188.32675 266.623726 189.226107 267.286734 189.889115 
C 267.949742 190.552123 268.8491 190.924649 269.786734 190.924649 
z
" style="fill:none;stroke:#01ff6b;stroke-opacity:0.4;"/>
   </g>
   <g id="PathCollection_19">
    <path clip-path="url(#p87b9d61e57)" d="M 250.188152 166.152797 
C 251.125786 166.152797 252.025144 165.780271 252.688152 165.117263 
C 253.35116 164.454255 253.723686 163.554898 253.723686 162.617263 
C 253.723686 161.679629 253.35116 160.780271 252.688152 160.117263 
C 252.025144 159.454255 251.125786 159.081729 250.188152 159.081729 
C 249.250517 159.081729 248.35116 159.454255 247.688152 160.117263 
C 247.025144 160.780271 246.652618 161.679629 246.652618 162.617263 
C 246.652618 163.554898 247.025144 164.454255 247.688152 165.117263 
C 248.35116 165.780271 249.250517 166.152797 250.188152 166.152797 
z
" style="fill:none;stroke:#01ff6b;stroke-opacity:0.4;"/>
   </g>
   <g id="PathCollection_20">
    <path clip-path="url(#p87b9d61e57)" d="M 262.437266 148.828906 
C 263.3749 148.828906 264.274258 148.45638 264.937266 147.793372 
C 265.600274 147.130364 265.9728 146.231007 265.9728 145.293372 
C 265.9728 144.355737 265.600274 143.45638 264.937266 142.793372 
C 264.274258 142.130364 263.3749 141.757838 262.437266 141.757838 
C 261.499631 141.757838 260.600274 142.130364 259.937266 142.793372 
C 259.274258 143.45638 258.901732 144.355737 258.901732 145.293372 
C 258.901732 146.231007 259.274258 147.130364 259.937266 147.793372 
C 260.600274 148.45638 261.499631 148.828906 262.437266 148.828906 
z
" style="fill:none;stroke:#01ff6b;stroke-opacity:0.4;"/>
   </g>
   <g id="PathCollection_21">
    <path clip-path="url(#p87b9d61e57)" d="M 361.655089 201.916133 
C 362.592723 201.916133 363.492081 201.543607 364.155089 200.880599 
C 364.818096 200.217591 365.190623 199.318234 365.190623 198.380599 
C 365.190623 197.442965 364.818096 196.543607 364.155089 195.880599 
C 363.492081 195.217591 362.592723 194.845065 361.655089 194.845065 
C 360.717454 194.845065 359.818096 195.217591 359.155089 195.880599 
C 358.492081 196.543607 358.119555 197.442965 358.119555 198.380599 
C 358.119555 199.318234 358.492081 200.217591 359.155089 200.880599 
C 359.818096 201.543607 360.717454 201.916133 361.655089 201.916133 
z
" style="fill:none;stroke:#01ff6b;stroke-opacity:0.4;"/>
   </g>
   <g id="PathCollection_22">
    <path clip-path="url(#p87b9d61e57)" d="M 308.983899 141.348135 
C 309.921533 141.348135 310.820891 140.975609 311.483899 140.312601 
C 312.146906 139.649593 312.519433 138.750235 312.519433 137.812601 
C 312.519433 136.874966 312.146906 135.975609 311.483899 135.312601 
C 310.820891 134.649593 309.921533 134.277067 308.983899 134.277067 
C 308.046264 134.277067 307.146906 134.649593 306.483899 135.312601 
C 305.820891 135.975609 305.448365 136.874966 305.448365 137.812601 
C 305.448365 138.750235 305.820891 139.649593 306.483899 140.312601 
C 307.146906 140.975609 308.046264 141.348135 308.983899 141.348135 
z
" style="fill:none;stroke:#01ff6b;stroke-opacity:0.4;"/>
   </g>
   <g id="PathCollection_23">
    <path clip-path="url(#p87b9d61e57)" d="M 299.184608 131.505015 
C 300.122242 131.505015 301.0216 131.132489 301.684608 130.469481 
C 302.347615 129.806473 302.720142 128.907115 302.720142 127.969481 
C 302.720142 127.031846 302.347615 126.132489 301.684608 125.469481 
C 301.0216 124.806473 300.122242 124.433947 299.184608 124.433947 
C 298.246973 124.433947 297.347615 124.806473 296.684608 125.469481 
C 296.0216 126.132489 295.649074 127.031846 295.649074 127.969481 
C 295.649074 128.907115 296.0216 129.806473 296.684608 130.469481 
C 297.347615 131.132489 298.246973 131.505015 299.184608 131.505015 
z
" style="fill:none;stroke:#01ff6b;stroke-opacity:0.4;"/>
   </g>
   <g id="PathCollection_24">
    <path clip-path="url(#p87b9d61e57)" d="M 329.807392 130.25822 
C 330.745027 130.25822 331.644385 129.885693 332.307392 129.222686 
C 332.9704 128.559678 333.342926 127.66032 333.342926 126.722686 
C 333.342926 125.785051 332.9704 124.885693 332.307392 124.222686 
C 331.644385 123.559678 330.745027 123.187152 329.807392 123.187152 
C 328.869758 123.187152 327.9704 123.559678 327.307392 124.222686 
C 326.644385 124.885693 326.271858 125.785051 326.271858 126.722686 
C 326.271858 127.66032 326.644385 128.559678 327.307392 129.222686 
C 327.9704 129.885693 328.869758 130.25822 329.807392 130.25822 
z
" style="fill:none;stroke:#01ff6b;stroke-opacity:0.4;"/>
   </g>
   <g id="PathCollection_25">
    <path clip-path="url(#p87b9d61e57)" d="M 361.655089 155.7519 
C 362.592723 155.7519 363.492081 155.379374 364.155089 154.716366 
C 364.818096 154.053359 365.190623 153.154001 365.190623 152.216366 
C 365.190623 151.278732 364.818096 150.379374 364.155089 149.716366 
C 363.492081 149.053359 362.592723 148.680832 361.655089 148.680832 
C 360.717454 148.680832 359.818096 149.053359 359.155089 149.716366 
C 358.492081 150.379374 358.119555 151.278732 358.119555 152.216366 
C 358.119555 153.154001 358.492081 154.053359 359.155089 154.716366 
C 359.818096 155.379374 360.717454 155.7519 361.655089 155.7519 
z
" style="fill:none;stroke:#01ff6b;stroke-opacity:0.4;"/>
   </g>
   <g id="PathCollection_26">
    <path clip-path="url(#p87b9d61e57)" d="M 360.430177 166.776195 
C 361.367812 166.776195 362.267169 166.403669 362.930177 165.740661 
C 363.593185 165.077653 363.965711 164.178295 363.965711 163.240661 
C 363.965711 162.303026 363.593185 161.403669 362.930177 160.740661 
C 362.267169 160.077653 361.367812 159.705127 360.430177 159.705127 
C 359.492543 159.705127 358.593185 160.077653 357.930177 160.740661 
C 357.267169 161.403669 356.894643 162.303026 356.894643 163.240661 
C 356.894643 164.178295 357.267169 165.077653 357.930177 165.740661 
C 358.593185 166.403669 359.492543 166.776195 360.430177 166.776195 
z
" style="fill:none;stroke:#01ff6b;stroke-opacity:0.4;"/>
   </g>
   <g id="PathCollection_27">
    <path clip-path="url(#p87b9d61e57)" d="M 361.655089 147.811784 
C 362.592723 147.811784 363.492081 147.439257 364.155089 146.77625 
C 364.818096 146.113242 365.190623 145.213884 365.190623 144.27625 
C 365.190623 143.338615 364.818096 142.439257 364.155089 141.77625 
C 363.492081 141.113242 362.592723 140.740716 361.655089 140.740716 
C 360.717454 140.740716 359.818096 141.113242 359.155089 141.77625 
C 358.492081 142.439257 358.119555 143.338615 358.119555 144.27625 
C 358.119555 145.213884 358.492081 146.113242 359.155089 146.77625 
C 359.818096 147.439257 360.717454 147.811784 361.655089 147.811784 
z
" style="fill:none;stroke:#01ff6b;stroke-opacity:0.4;"/>
   </g>
  </g>
 </g>
 <defs>
  <clipPath id="p87b9d61e57">
   <rect height="211.68" width="290.304" x="72.576" y="30.24"/>
  </clipPath>
 </defs>
</svg>
