<?xml version="1.0" encoding="utf-8" standalone="no"?>
<!DOCTYPE svg PUBLIC "-//W3C//DTD SVG 1.1//EN"
  "http://www.w3.org/Graphics/SVG/1.1/DTD/svg11.dtd">
<!-- Created with matplotlib (https://matplotlib.org/) -->
<svg height="302.4pt" version="1.1" viewBox="0 0 403.2 302.4" width="403.2pt" xmlns="http://www.w3.org/2000/svg" xmlns:xlink="http://www.w3.org/1999/xlink">
 <metadata>
  <rdf:RDF xmlns:cc="http://creativecommons.org/ns#" xmlns:dc="http://purl.org/dc/elements/1.1/" xmlns:rdf="http://www.w3.org/1999/02/22-rdf-syntax-ns#">
   <cc:Work>
    <dc:type rdf:resource="http://purl.org/dc/dcmitype/StillImage"/>
    <dc:date>2021-12-15T21:52:39.143517</dc:date>
    <dc:format>image/svg+xml</dc:format>
    <dc:creator>
     <cc:Agent>
      <dc:title>Matplotlib v3.3.4, https://matplotlib.org/</dc:title>
     </cc:Agent>
    </dc:creator>
   </cc:Work>
  </rdf:RDF>
 </metadata>
 <defs>
  <style type="text/css">*{stroke-linecap:butt;stroke-linejoin:round;}</style>
 </defs>
 <g id="figure_1">
  <g id="patch_1">
   <path d="M 0 302.4 
L 403.2 302.4 
L 403.2 0 
L 0 0 
z
" style="fill:#ffffff;"/>
  </g>
  <g id="axes_1">
   <g id="patch_2">
    <path d="M 72.576 241.92 
L 362.88 241.92 
L 362.88 30.24 
L 72.576 30.24 
z
" style="fill:#ffffff;"/>
   </g>
   <g id="patch_3">
    <path clip-path="url(#pc438091e9a)" d="M 72.576 136.08 
L 362.88 136.08 
L 362.88 30.24 
L 72.576 30.24 
z
" style="fill:#c22121;opacity:0.06;stroke:#c22121;stroke-linejoin:miter;"/>
   </g>
   <g id="patch_4">
    <path clip-path="url(#pc438091e9a)" d="M 72.576 136.08 
L 362.88 136.08 
L 362.88 241.92 
L 72.576 241.92 
z
" style="fill:#01ff6b;opacity:0.06;stroke:#01ff6b;stroke-linejoin:miter;"/>
   </g>
   <g id="matplotlib.axis_1">
    <g id="xtick_1">
     <g id="line2d_1">
      <defs>
       <path d="M 0 0 
L 0 3.5 
" id="m5ad5063e1a" style="stroke:#000000;stroke-width:0.8;"/>
      </defs>
      <g>
       <use style="stroke:#000000;stroke-width:0.8;" x="72.576" xlink:href="#m5ad5063e1a" y="241.92"/>
      </g>
     </g>
     <g id="text_1">
      <!-- 1 -->
      <g transform="translate(69.039822 258.951808)scale(0.145 -0.145)">
       <defs>
        <path d="M 28.40625 67 
L 26.5 67 
C 21.09375 61.5625 14.796875 60.78125 8.40625 60.78125 
L 8.40625 55 
C 11.296875 55 16 55 20.703125 57.296875 
L 20.703125 5.765625 
L 8.90625 5.765625 
L 8.90625 0 
L 40.203125 0 
L 40.203125 5.765625 
L 28.40625 5.765625 
z
" id="CMSS17-49"/>
       </defs>
       <use transform="scale(0.996264)" xlink:href="#CMSS17-49"/>
      </g>
     </g>
    </g>
    <g id="xtick_2">
     <g id="line2d_2">
      <g>
       <use style="stroke:#000000;stroke-width:0.8;" x="109.323342" xlink:href="#m5ad5063e1a" y="241.92"/>
      </g>
     </g>
     <g id="text_2">
      <!-- 2 -->
      <g transform="translate(105.787164 258.951808)scale(0.145 -0.145)">
       <defs>
        <path d="M 25.796875 21.203125 
C 28.59375 24.078125 32.796875 27.5625 35.703125 31.046875 
C 38.5 34.4375 42.203125 39.234375 42.203125 46.203125 
C 42.203125 57.140625 34.796875 67 22.203125 67 
C 12.296875 67 6.59375 60.828125 3.90625 51.15625 
C 4.90625 49.765625 6.40625 47.765625 7.796875 45.765625 
C 10 54.84375 13.09375 60.625 20.90625 60.625 
C 29.5 60.625 34.296875 53.640625 34.296875 45.96875 
C 34.296875 36.796875 27.296875 29.703125 22 24.421875 
C 16.09375 18.546875 10.296875 12.5625 4.703125 6.375 
L 4.703125 0 
L 42.203125 0 
L 42.203125 6.765625 
L 25.203125 6.765625 
C 24 6.765625 22.796875 6.765625 21.59375 6.765625 
L 11.59375 6.765625 
L 11.59375 6.859375 
z
" id="CMSS17-50"/>
       </defs>
       <use transform="scale(0.996264)" xlink:href="#CMSS17-50"/>
      </g>
     </g>
    </g>
    <g id="xtick_3">
     <g id="line2d_3">
      <g>
       <use style="stroke:#000000;stroke-width:0.8;" x="164.444354" xlink:href="#m5ad5063e1a" y="241.92"/>
      </g>
     </g>
     <g id="text_3">
      <!-- 3 -->
      <g transform="translate(160.908177 258.951808)scale(0.145 -0.145)">
       <defs>
        <path d="M 15.703125 31.640625 
L 22.5 31.640625 
C 31.90625 31.640625 34.59375 23.546875 34.59375 17.90625 
C 34.59375 10.203125 30.203125 4.171875 23 4.171875 
C 17.40625 4.171875 9.5 6.9375 5 14.25 
C 4.296875 10.796875 4.296875 10.59375 3.90625 8.21875 
C 8.59375 1.375 16.203125 -2 23.203125 -2 
C 34.59375 -2 43 7.390625 43 17.78125 
C 43 25.59375 37.5 32.140625 30 34.609375 
C 36 37.875 40.40625 44 40.40625 51.140625 
C 40.40625 59.453125 32.703125 66.078125 23.296875 66.078125 
C 14.703125 66.078125 8 60.8125 5.203125 55.15625 
C 5.90625 54.1875 7.703125 51.3125 8.59375 49.828125 
C 10.796875 55.65625 16.5 60 23.203125 60 
C 28.796875 60 32.5 56.359375 32.5 51.109375 
C 32.5 45.671875 29 39.734375 23.09375 38.359375 
C 22.703125 38.359375 16.5 37.765625 15.703125 37.671875 
z
" id="CMSS17-51"/>
       </defs>
       <use transform="scale(0.996264)" xlink:href="#CMSS17-51"/>
      </g>
     </g>
    </g>
    <g id="xtick_4">
     <g id="line2d_4">
      <g>
       <use style="stroke:#000000;stroke-width:0.8;" x="219.565367" xlink:href="#m5ad5063e1a" y="241.92"/>
      </g>
     </g>
     <g id="text_4">
      <!-- 4 -->
      <g transform="translate(216.029189 258.951808)scale(0.145 -0.145)">
       <defs>
        <path d="M 35.203125 17 
L 44.296875 17 
L 44.296875 23.078125 
L 35.203125 23.078125 
L 35.203125 65.5 
L 26.40625 65.5 
L 2.59375 23.078125 
L 2.59375 17 
L 27.296875 17 
L 27.296875 0 
L 35.203125 0 
z
M 10.296875 23.078125 
C 16.09375 33.234375 27.59375 53.734375 27.59375 60.703125 
L 27.59375 23.078125 
z
" id="CMSS17-52"/>
       </defs>
       <use transform="scale(0.996264)" xlink:href="#CMSS17-52"/>
      </g>
     </g>
    </g>
    <g id="xtick_5">
     <g id="line2d_5">
      <g>
       <use style="stroke:#000000;stroke-width:0.8;" x="274.68638" xlink:href="#m5ad5063e1a" y="241.92"/>
      </g>
     </g>
     <g id="text_5">
      <!-- 5 -->
      <g transform="translate(271.150202 258.951808)scale(0.145 -0.145)">
       <defs>
        <path d="M 14.59375 58.625 
L 39.09375 58.625 
L 39.09375 65 
L 7.296875 65 
L 7.296875 27.828125 
L 14 27.828125 
C 15.796875 31.96875 19.5 35 24.296875 35 
C 28.796875 35 33.796875 31.078125 33.796875 19.78125 
C 33.796875 7.703125 26.703125 4.171875 21.5 4.171875 
C 15.09375 4.171875 9.203125 8 6.59375 13.296875 
L 3.40625 7.796875 
C 8 0.765625 15.5 -2 21.5 -2 
C 33.09375 -2 42.203125 7.765625 42.203125 19.578125 
C 42.203125 31.71875 34.09375 41.078125 24.40625 41.078125 
C 20.90625 41.078125 17.5 39.890625 14.59375 37.484375 
z
" id="CMSS17-53"/>
       </defs>
       <use transform="scale(0.996264)" xlink:href="#CMSS17-53"/>
      </g>
     </g>
    </g>
    <g id="xtick_6">
     <g id="line2d_6">
      <g>
       <use style="stroke:#000000;stroke-width:0.8;" x="329.807392" xlink:href="#m5ad5063e1a" y="241.92"/>
      </g>
     </g>
     <g id="text_6">
      <!-- 6 -->
      <g transform="translate(326.271215 258.951808)scale(0.145 -0.145)">
       <defs>
        <path d="M 39 64.078125 
C 34.796875 65.78125 31.796875 66.078125 29 66.078125 
C 16 66.078125 3.90625 52.625 3.90625 31.34375 
C 3.90625 4.140625 15.40625 -2 23.59375 -2 
C 28.09375 -2 32.59375 -0.609375 36.90625 4.375 
C 41.296875 9.640625 43 14.03125 43 21.703125 
C 43 34.046875 36.90625 45 27.796875 45 
C 21.203125 45 15.5 41.515625 12 37.125 
C 13 50.90625 19.59375 60 29.09375 60 
C 31.703125 60 35.09375 59.625 39 57.96875 
z
M 12.09375 21.390625 
C 12.09375 22.1875 12.09375 22.6875 12.203125 24.1875 
C 12.203125 31.953125 16.703125 38.921875 24 38.921875 
C 28.703125 38.921875 31.09375 36.4375 32.90625 33.359375 
C 35 29.46875 35.09375 25.78125 35.09375 21.6875 
C 35.09375 17.8125 35.09375 13.921875 32.796875 9.953125 
C 30.90625 6.859375 28.40625 4.171875 23.59375 4.171875 
C 14.09375 4.171875 12.5 17.40625 12.09375 21.390625 
z
" id="CMSS17-54"/>
       </defs>
       <use transform="scale(0.996264)" xlink:href="#CMSS17-54"/>
      </g>
     </g>
    </g>
    <g id="text_7">
     <!-- DIV -->
     <g transform="translate(203.72899 278.214002)scale(0.18 -0.18)">
      <defs>
       <path d="M 8.90625 69 
L 8.90625 0 
L 33.5 0 
C 49.90625 0 62.5 15.3125 62.5 33.90625 
C 62.5 53.09375 49.90625 69 33.5 69 
z
M 17.09375 5.578125 
L 17.09375 63.421875 
L 31.296875 63.421875 
C 44.703125 63.421875 54.296875 51.203125 54.296875 33.90625 
C 54.296875 17.296875 44.796875 5.578125 31.296875 5.578125 
z
" id="CMSS17-68"/>
       <path d="M 17.09375 69 
L 8.703125 69 
L 8.703125 0 
L 17.09375 0 
z
" id="CMSS17-73"/>
       <path d="M 61.09375 69 
L 53.296875 69 
L 36 21.28125 
C 35.5 19.890625 32.40625 10.75 31.796875 7.5625 
L 31.703125 7.5625 
C 30.90625 11.34375 27.703125 20.1875 26 25.0625 
L 14.40625 57.375 
L 10.09375 69 
L 1.296875 69 
L 26.796875 0 
L 35.59375 0 
z
" id="CMSS17-86"/>
      </defs>
      <use transform="scale(0.996264)" xlink:href="#CMSS17-68"/>
      <use transform="translate(67.542842 0)scale(0.996264)" xlink:href="#CMSS17-73"/>
      <use transform="translate(93.326767 0)scale(0.996264)" xlink:href="#CMSS17-86"/>
     </g>
    </g>
   </g>
   <g id="matplotlib.axis_2">
    <g id="ytick_1">
     <g id="line2d_7">
      <path clip-path="url(#pc438091e9a)" d="M 72.576 220.752 
L 362.88 220.752 
" style="fill:none;stroke:#b0b0b0;stroke-linecap:square;stroke-opacity:0.4;stroke-width:0.8;"/>
     </g>
     <g id="line2d_8">
      <defs>
       <path d="M 0 0 
L -3.5 0 
" id="me58c58a44e" style="stroke:#000000;stroke-width:0.8;"/>
      </defs>
      <g>
       <use style="stroke:#000000;stroke-width:0.8;" x="72.576" xlink:href="#me58c58a44e" y="220.752"/>
      </g>
     </g>
     <g id="text_8">
      <!-- -2000 -->
      <g transform="translate(32.571669 225.767904)scale(0.145 -0.145)">
       <defs>
        <path d="M 26 19 
L 26 24.765625 
L 1 24.765625 
L 1 19 
z
" id="CMSS17-45"/>
        <path d="M 43.09375 31.9375 
C 43.09375 37.578125 43 48.078125 38.90625 56.1875 
C 34.796875 64 28.203125 66.078125 23.5 66.078125 
C 16.703125 66.078125 10.90625 62.109375 7.90625 55.78125 
C 4.703125 49.15625 3.796875 42.328125 3.796875 31.9375 
C 3.796875 24.828125 4.09375 16.109375 7.703125 8.484375 
C 11.796875 0.078125 18.703125 -2 23.40625 -2 
C 29.59375 -2 35.59375 1.265625 39 8.09375 
C 42.5 15.21875 43.09375 23.03125 43.09375 31.9375 
z
M 23.40625 4.078125 
C 15.796875 4.078125 13.5 12.671875 12.796875 15.546875 
C 11.59375 20.46875 11.40625 25.21875 11.40625 33.03125 
C 11.40625 39.15625 11.40625 46.0625 13.296875 51.515625 
C 15.59375 57.828125 19.59375 60 23.40625 60 
C 30.796875 60 33.203125 52.6875 34 50.125 
C 35.5 44.890625 35.5 38.765625 35.5 33.03125 
C 35.5 23.84375 35.5 4.078125 23.40625 4.078125 
z
" id="CMSS17-48"/>
       </defs>
       <use transform="scale(0.996264)" xlink:href="#CMSS17-45"/>
       <use transform="translate(31.229113 0)scale(0.996264)" xlink:href="#CMSS17-50"/>
       <use transform="translate(78.072736 0)scale(0.996264)" xlink:href="#CMSS17-48"/>
       <use transform="translate(124.91636 0)scale(0.996264)" xlink:href="#CMSS17-48"/>
       <use transform="translate(171.759983 0)scale(0.996264)" xlink:href="#CMSS17-48"/>
      </g>
     </g>
    </g>
    <g id="ytick_2">
     <g id="line2d_9">
      <path clip-path="url(#pc438091e9a)" d="M 72.576 178.416 
L 362.88 178.416 
" style="fill:none;stroke:#b0b0b0;stroke-linecap:square;stroke-opacity:0.4;stroke-width:0.8;"/>
     </g>
     <g id="line2d_10">
      <g>
       <use style="stroke:#000000;stroke-width:0.8;" x="72.576" xlink:href="#me58c58a44e" y="178.416"/>
      </g>
     </g>
     <g id="text_9">
      <!-- -1000 -->
      <g transform="translate(32.571669 183.431904)scale(0.145 -0.145)">
       <use transform="scale(0.996264)" xlink:href="#CMSS17-45"/>
       <use transform="translate(31.229113 0)scale(0.996264)" xlink:href="#CMSS17-49"/>
       <use transform="translate(78.072736 0)scale(0.996264)" xlink:href="#CMSS17-48"/>
       <use transform="translate(124.91636 0)scale(0.996264)" xlink:href="#CMSS17-48"/>
       <use transform="translate(171.759983 0)scale(0.996264)" xlink:href="#CMSS17-48"/>
      </g>
     </g>
    </g>
    <g id="ytick_3">
     <g id="line2d_11">
      <path clip-path="url(#pc438091e9a)" d="M 72.576 136.08 
L 362.88 136.08 
" style="fill:none;stroke:#b0b0b0;stroke-linecap:square;stroke-opacity:0.4;stroke-width:0.8;"/>
     </g>
     <g id="line2d_12">
      <g>
       <use style="stroke:#000000;stroke-width:0.8;" x="72.576" xlink:href="#me58c58a44e" y="136.08"/>
      </g>
     </g>
     <g id="text_10">
      <!-- 0 -->
      <g transform="translate(58.503644 141.095904)scale(0.145 -0.145)">
       <use transform="scale(0.996264)" xlink:href="#CMSS17-48"/>
      </g>
     </g>
    </g>
    <g id="ytick_4">
     <g id="line2d_13">
      <path clip-path="url(#pc438091e9a)" d="M 72.576 93.744 
L 362.88 93.744 
" style="fill:none;stroke:#b0b0b0;stroke-linecap:square;stroke-opacity:0.4;stroke-width:0.8;"/>
     </g>
     <g id="line2d_14">
      <g>
       <use style="stroke:#000000;stroke-width:0.8;" x="72.576" xlink:href="#me58c58a44e" y="93.744"/>
      </g>
     </g>
     <g id="text_11">
      <!-- 1000 -->
      <g transform="translate(37.286578 98.759904)scale(0.145 -0.145)">
       <use transform="scale(0.996264)" xlink:href="#CMSS17-49"/>
       <use transform="translate(46.843624 0)scale(0.996264)" xlink:href="#CMSS17-48"/>
       <use transform="translate(93.687247 0)scale(0.996264)" xlink:href="#CMSS17-48"/>
       <use transform="translate(140.530871 0)scale(0.996264)" xlink:href="#CMSS17-48"/>
      </g>
     </g>
    </g>
    <g id="ytick_5">
     <g id="line2d_15">
      <path clip-path="url(#pc438091e9a)" d="M 72.576 51.408 
L 362.88 51.408 
" style="fill:none;stroke:#b0b0b0;stroke-linecap:square;stroke-opacity:0.4;stroke-width:0.8;"/>
     </g>
     <g id="line2d_16">
      <g>
       <use style="stroke:#000000;stroke-width:0.8;" x="72.576" xlink:href="#me58c58a44e" y="51.408"/>
      </g>
     </g>
     <g id="text_12">
      <!-- 2000 -->
      <g transform="translate(37.286578 56.423904)scale(0.145 -0.145)">
       <use transform="scale(0.996264)" xlink:href="#CMSS17-50"/>
       <use transform="translate(46.843624 0)scale(0.996264)" xlink:href="#CMSS17-48"/>
       <use transform="translate(93.687247 0)scale(0.996264)" xlink:href="#CMSS17-48"/>
       <use transform="translate(140.530871 0)scale(0.996264)" xlink:href="#CMSS17-48"/>
      </g>
     </g>
    </g>
    <g id="text_13">
     <!-- $\Delta$ dist. to output ch. [$\upmu$m] -->
     <g transform="translate(24.103485 232.005656)rotate(-90)scale(0.18 -0.18)">
      <defs>
       <path d="M 40.59375 68.796875 
C 39.796875 70.5 39.40625 70.5 38.59375 70.5 
C 37.40625 70.5 37.296875 70.296875 36.59375 68.890625 
L 4.203125 1.703125 
C 4.09375 1.5 3.703125 0.59375 3.703125 0.5 
C 3.703125 0.09375 3.796875 0 5.59375 0 
L 71.5 0 
C 73.296875 0 73.40625 0.09375 73.40625 0.5 
C 73.40625 0.59375 73 1.5 72.90625 1.703125 
z
M 36.09375 63.09375 
L 63.796875 5.59375 
L 8.296875 5.59375 
z
" id="CMR17-1"/>
       <path d="M 40.796875 69 
L 33.40625 69 
L 33.40625 38.09375 
C 30.296875 40.671875 25.203125 43.0625 19.59375 43.0625 
C 10.5 43.0625 3.296875 33.296875 3.296875 21.046875 
C 3.296875 8.78125 10.40625 -1 19.296875 -1 
C 26.203125 -1 30.796875 2.6875 33.203125 4.78125 
L 33.203125 -0.203125 
L 40.796875 -0.203125 
z
M 33.203125 13.0625 
C 33.203125 11.671875 33.203125 10.203125 30.09375 7.53125 
C 28.09375 5.859375 25.703125 5.078125 23.40625 5.078125 
C 18 5.078125 10.90625 9 10.90625 20.9375 
C 10.90625 33.34375 18.90625 37 24.40625 37 
C 28.09375 37 31.09375 35.21875 33.203125 32.265625 
z
" id="CMSS17-100"/>
       <path d="M 15.296875 65.359375 
L 6.90625 65.359375 
L 6.90625 57 
L 15.296875 57 
z
M 14.796875 42.796875 
L 7.40625 42.796875 
L 7.40625 0 
L 14.796875 0 
z
" id="CMSS17-105"/>
       <path d="M 32.203125 41.046875 
C 26.296875 43.859375 21.703125 43.859375 18.703125 43.859375 
C 11.59375 43.859375 3.09375 41.375 3.09375 31.296875 
C 3.09375 21.234375 14.09375 19.03125 17.09375 18.421875 
C 21.703125 17.53125 26.796875 16.53125 26.796875 11.5625 
C 26.796875 5.265625 19.59375 5.265625 18.296875 5.265625 
C 14.296875 5.265625 8.796875 6.359375 3.796875 9.96875 
L 2.59375 3.28125 
C 8.296875 0 13.796875 -1 18.40625 -1 
C 30.703125 -1 33.796875 6.5 33.796875 12.203125 
C 33.796875 17.09375 31 20.390625 29.09375 21.890625 
C 25.796875 24.5 24.59375 24.796875 16.40625 26.5 
C 15 26.703125 10.09375 27.796875 10.09375 32.28125 
C 10.09375 38 16.40625 38 17.796875 38 
C 24.296875 38 28.296875 35.984375 31 34.5 
z
" id="CMSS17-115"/>
       <path d="M 16.703125 37 
L 29.703125 37 
L 29.703125 42.765625 
L 16.703125 42.765625 
L 16.703125 55 
L 9.59375 55 
L 9.59375 42.765625 
L 1.703125 42.765625 
L 1.703125 37 
L 9.40625 37 
L 9.40625 11.703125 
C 9.40625 6 10.703125 -1 17.296875 -1 
C 22.296875 -1 26.90625 0.390625 31.296875 2.6875 
L 29.703125 8.5625 
C 27.296875 6.46875 24.40625 5.265625 21.296875 5.265625 
C 16.90625 5.265625 16.703125 10.875 16.703125 13.375 
z
" id="CMSS17-116"/>
       <path d="M 17 7.96875 
L 9 7.96875 
L 9 0 
L 17 0 
z
" id="CMSS17-46"/>
       <path d="M 44.203125 21.1875 
C 44.203125 34 34.703125 44 23.5 44 
C 12 44 2.703125 33.703125 2.703125 21.1875 
C 2.703125 8.5 12.296875 -1 23.40625 -1 
C 34.796875 -1 44.203125 8.796875 44.203125 21.1875 
z
M 23.5 5.265625 
C 16.40625 5.265625 10.296875 11.078125 10.296875 22 
C 10.296875 33.609375 17.40625 37.921875 23.40625 37.921875 
C 29.90625 37.921875 36.59375 33.21875 36.59375 22 
C 36.59375 10.671875 30.09375 5.265625 23.5 5.265625 
z
" id="CMSS17-111"/>
       <path d="M 40.90625 42.796875 
L 33.296875 42.796875 
L 33.296875 15.1875 
C 33.296875 7.78125 27.90625 4.78125 22.203125 4.78125 
C 15.59375 4.78125 15 6.984375 15 11.078125 
L 15 42.796875 
L 7.40625 42.796875 
L 7.40625 10.59375 
C 7.40625 2.796875 10.09375 -1 17 -1 
C 20.40625 -1 28.09375 -0.203125 33.5 4.78125 
L 33.5 0 
L 40.90625 0 
z
" id="CMSS17-117"/>
       <path d="M 15.09375 5.203125 
C 18.40625 2.015625 22.90625 -0.078125 27.703125 -0.078125 
C 37 -0.078125 45 9.421875 45 22.0625 
C 45 33.734375 39 44 30.40625 44 
C 25.40625 44 19.40625 42.21875 14.90625 38.625 
L 14.90625 43.203125 
L 7.5 43.203125 
L 7.5 -19 
L 15.09375 -19 
z
M 15.09375 32.8125 
C 15.90625 34 19.296875 37.734375 24.796875 37.734375 
C 31.796875 37.734375 37.40625 30.625 37.40625 22.0625 
C 37.40625 12.296875 30.59375 6 23.90625 6 
C 21.90625 6 19.796875 6.484375 17.796875 8.171875 
C 15.09375 10.53125 15.09375 12 15.09375 13.390625 
z
" id="CMSS17-112"/>
       <path d="M 38.5 39.703125 
C 38.5 40.390625 33.90625 42.40625 32.703125 42.796875 
C 29.40625 44 25.203125 44 24.09375 44 
C 11.09375 44 3.296875 32.703125 3.296875 21.296875 
C 3.296875 9.296875 12 -1 23.703125 -1 
C 30.40625 -1 35.203125 1.1875 39.09375 3.78125 
L 38.5 10.375 
C 34.203125 7.078125 29.203125 5.265625 23.796875 5.265625 
C 16 5.265625 10.90625 12.09375 10.90625 21.390625 
C 10.90625 28.609375 14.203125 37.71875 24.203125 37.71875 
C 29.703125 37.71875 32.796875 36.609375 37.40625 33.515625 
z
" id="CMSS17-99"/>
       <path d="M 40.90625 29.546875 
C 40.90625 35.8125 39.40625 44.0625 28.09375 44.0625 
C 21.796875 44.0625 17.703125 40.984375 14.796875 37.609375 
L 14.796875 69.5 
L 7.40625 69.5 
L 7.40625 0.5 
L 15 0.5 
L 15 24.578125 
C 15 30.828125 17.40625 38 24.203125 38 
C 33 38 33.296875 32.125 33.296875 28.734375 
L 33.296875 0.5 
L 40.90625 0.5 
z
" id="CMSS17-104"/>
       <path d="M 25.203125 -25 
L 25.203125 -18.9375 
L 16.59375 -18.9375 
L 16.59375 68 
L 25.203125 68 
L 25.203125 74.078125 
L 9.296875 74.078125 
L 9.296875 -25 
z
" id="CMSS17-91"/>
       <path d="M 48.5 46.75 
L 40.796875 43.5625 
C 41 37.90625 41.203125 32.234375 41.203125 26.46875 
C 41.203125 24.390625 41 17.125 40.90625 12.359375 
C 38.796875 10.625 36.59375 9.0625 34.09375 7.90625 
C 32.296875 6.9375 30.203125 6.265625 28.09375 6.265625 
C 26.09375 6.265625 23.796875 6.265625 22.296875 7.75 
C 19.296875 10.71875 18.796875 14.96875 18.796875 19.03125 
C 18.796875 27.921875 18.796875 36.84375 18.796875 45.65625 
L 17.90625 46.34375 
L 9.59375 43.765625 
C 9.59375 43.671875 11 32.9375 11.59375 27.46875 
C 11.59375 21.21875 11.59375 15 11.59375 8.75 
C 11.59375 -0.359375 11.40625 -9.46875 11.203125 -18.578125 
L 12.40625 -19.1875 
L 17.40625 -17.1875 
C 16 -10.71875 16 -3.65625 16 3.125 
C 17.5 1.375 19.59375 0 22.09375 0 
C 26.59375 0 34.5 4.28125 40.296875 7.5 
C 40.5 7.59375 40.703125 7.390625 40.90625 7.28125 
C 41.203125 7.171875 41.296875 6.96875 41.5 6.75 
C 41.796875 4.75 42.203125 2.640625 43.5 1.265625 
C 44.703125 0 46.59375 0 48.296875 0 
C 50.796875 0 53.09375 1.03125 55.203125 2.28125 
C 58.296875 3.921875 61 6.3125 63.5 8.6875 
L 62.09375 10.578125 
C 59.5 8.984375 56.40625 7 53.90625 7 
C 52.90625 7 51.796875 7.390625 51.09375 8.09375 
C 50.09375 8.984375 49.703125 10.28125 49.296875 11.46875 
C 48.90625 13.25 48.703125 15.046875 48.703125 16.828125 
C 48.703125 22.296875 48.703125 27.859375 48.703125 33.421875 
C 48.703125 36.515625 49 41.578125 49.296875 45.65625 
z
" id="EURM10-22"/>
       <path d="M 67 29.328125 
C 67 36.0625 65.296875 44 54.09375 44 
C 46.59375 44 42.09375 39.3125 40.09375 36.421875 
C 38.296875 41.71875 34.09375 44 28.09375 44 
C 21.296875 44 17 40.125 14.703125 37.328125 
L 14.703125 43.09375 
L 7.40625 43.09375 
L 7.40625 0 
L 15 0 
L 15 24.359375 
C 15 30.296875 17.203125 37.9375 24.296875 37.9375 
C 33.40625 37.9375 33.40625 31.5 33.40625 28.578125 
L 33.40625 0 
L 41 0 
L 41 24.359375 
C 41 30.296875 43.203125 37.9375 50.296875 37.9375 
C 59.40625 37.9375 59.40625 31.5 59.40625 28.578125 
L 59.40625 0 
L 67 0 
z
" id="CMSS17-109"/>
       <path d="M 17.90625 74.078125 
L 2 74.078125 
L 2 68 
L 10.59375 68 
L 10.59375 -18.9375 
L 2 -18.9375 
L 2 -25 
L 17.90625 -25 
z
" id="CMSS17-93"/>
      </defs>
      <use transform="scale(0.996264)" xlink:href="#CMR17-1"/>
      <use transform="translate(108.148703 0)scale(0.996264)" xlink:href="#CMSS17-100"/>
      <use transform="translate(156.353646 0)scale(0.996264)" xlink:href="#CMSS17-105"/>
      <use transform="translate(178.534369 0)scale(0.996264)" xlink:href="#CMSS17-115"/>
      <use transform="translate(214.447911 0)scale(0.996264)" xlink:href="#CMSS17-116"/>
      <use transform="translate(248.279477 0)scale(0.996264)" xlink:href="#CMSS17-46"/>
      <use transform="translate(315.942489 0)scale(0.996264)" xlink:href="#CMSS17-116"/>
      <use transform="translate(349.774056 0)scale(0.996264)" xlink:href="#CMSS17-111"/>
      <use transform="translate(427.846792 0)scale(0.996264)" xlink:href="#CMSS17-111"/>
      <use transform="translate(474.690416 0)scale(0.996264)" xlink:href="#CMSS17-117"/>
      <use transform="translate(522.895359 0)scale(0.996264)" xlink:href="#CMSS17-116"/>
      <use transform="translate(556.726926 0)scale(0.996264)" xlink:href="#CMSS17-112"/>
      <use transform="translate(604.931869 0)scale(0.996264)" xlink:href="#CMSS17-117"/>
      <use transform="translate(653.136812 0)scale(0.996264)" xlink:href="#CMSS17-116"/>
      <use transform="translate(718.197491 0)scale(0.996264)" xlink:href="#CMSS17-99"/>
      <use transform="translate(759.836313 0)scale(0.996264)" xlink:href="#CMSS17-104"/>
      <use transform="translate(808.041256 0)scale(0.996264)" xlink:href="#CMSS17-46"/>
      <use transform="translate(875.704268 0)scale(0.996264)" xlink:href="#CMSS17-91"/>
      <use transform="translate(902.889707 0)scale(0.996264)" xlink:href="#EURM10-22"/>
      <use transform="translate(964.426324 0)scale(0.996264)" xlink:href="#CMSS17-109"/>
      <use transform="translate(1038.655579 0)scale(0.996264)" xlink:href="#CMSS17-93"/>
     </g>
    </g>
   </g>
   <g id="line2d_17">
    <path clip-path="url(#pc438091e9a)" d="M 72.576 241.92 
L 72.576 30.24 
" style="fill:none;stroke:#000000;stroke-linecap:square;stroke-width:1.3;"/>
   </g>
   <g id="line2d_18">
    <path clip-path="url(#pc438091e9a)" d="M 72.576 136.08 
L 362.88 136.08 
" style="fill:none;stroke:#000000;stroke-linecap:square;stroke-width:1.3;"/>
   </g>
   <g id="line2d_19">
    <path clip-path="url(#pc438091e9a)" d="M 72.576 136.08 
L 73.800911 136.39498 
L 75.025823 136.526221 
L 77.475646 137.103684 
L 79.925468 138.967315 
L 81.15038 139.36104 
L 82.375291 140.384724 
L 83.600203 140.752201 
L 84.825114 141.69714 
L 90.949671 142.930812 
L 93.399494 143.403281 
L 95.849316 143.298288 
L 97.074228 143.508275 
L 99.524051 144.269476 
L 106.873519 145.240664 
L 111.773165 146.841811 
L 112.998076 147.156791 
L 114.222987 147.340529 
L 115.447899 147.366778 
L 116.67281 147.603012 
L 117.897722 147.708006 
L 117.897722 147.708006 
" style="fill:none;stroke:#6b6b6b;stroke-linecap:square;"/>
   </g>
   <g id="line2d_20">
    <path clip-path="url(#pc438091e9a)" d="M 78.700557 136.08 
L 79.925468 136.499973 
L 81.15038 137.523658 
L 82.375291 138.284859 
L 83.600203 138.88857 
L 86.050025 140.778449 
L 87.274937 141.460906 
L 88.499848 141.985872 
L 89.724759 142.983308 
L 92.174582 143.901999 
L 93.399494 144.321972 
L 93.399494 144.321972 
" style="fill:none;stroke:#6b6b6b;stroke-linecap:square;"/>
   </g>
   <g id="line2d_21">
    <path clip-path="url(#pc438091e9a)" d="M 93.399494 136.08 
L 95.849316 136.841201 
L 97.074228 136.473725 
L 98.299139 136.23749 
L 99.524051 137.287423 
L 100.748962 137.969879 
L 101.973873 137.891134 
L 103.198785 138.074872 
L 104.423696 137.943631 
L 106.873519 138.258611 
L 108.09843 138.074872 
L 110.548253 138.206114 
L 111.773165 138.127369 
L 112.998076 138.258611 
L 117.897722 138.127369 
L 122.797367 138.337356 
L 124.022278 138.993564 
L 125.24719 139.938503 
L 126.472101 141.69714 
L 127.697013 139.991 
L 128.921924 141.985872 
L 130.146835 143.062053 
L 131.371747 143.482026 
L 132.596658 143.455778 
L 133.82157 143.849503 
L 135.046481 144.505711 
L 136.271392 144.794442 
L 137.496304 144.899436 
L 138.721215 144.216979 
L 138.721215 144.216979 
" style="fill:none;stroke:#6b6b6b;stroke-linecap:square;"/>
   </g>
   <g id="line2d_22">
    <path clip-path="url(#pc438091e9a)" d="M 97.074228 136.08 
L 98.299139 137.812389 
L 99.524051 136.447476 
L 100.748962 137.444913 
L 101.973873 137.917382 
L 103.198785 139.51853 
L 106.873519 145.319409 
L 108.09843 141.907127 
L 110.548253 141.277167 
L 111.773165 142.405845 
L 112.998076 143.849503 
L 114.222987 144.873187 
L 114.222987 144.873187 
" style="fill:none;stroke:#6b6b6b;stroke-linecap:square;"/>
   </g>
   <g id="line2d_23">
    <path clip-path="url(#pc438091e9a)" d="M 99.524051 136.08 
L 100.748962 137.707396 
L 101.973873 138.993564 
L 103.198785 140.069745 
L 105.648608 140.647208 
L 106.873519 140.410973 
L 108.09843 140.384724 
L 109.323342 140.647208 
L 110.548253 140.437221 
L 111.773165 140.804698 
L 115.447899 140.253483 
L 116.67281 140.515966 
L 117.897722 140.463469 
L 119.122633 140.594711 
L 121.572456 140.463469 
L 122.797367 140.253483 
L 124.022278 140.253483 
L 125.24719 140.489718 
L 128.921924 140.489718 
L 131.371747 141.224671 
L 132.596658 141.172174 
L 133.82157 141.303416 
L 135.046481 141.198422 
L 137.496304 141.644644 
L 138.721215 141.644644 
L 139.946127 141.85463 
L 142.395949 141.880879 
L 143.620861 141.985872 
L 144.845772 142.248355 
L 148.520506 142.090865 
L 153.420152 142.143362 
L 154.645063 142.222107 
L 155.869975 142.16961 
L 157.094886 142.248355 
L 160.76962 142.090865 
L 165.669266 141.959624 
L 166.894177 141.775885 
L 168.119089 141.907127 
L 169.344 141.828382 
L 170.568911 141.907127 
L 173.018734 141.802134 
L 174.243646 141.880879 
L 177.91838 141.618396 
L 180.368203 141.880879 
L 181.593114 141.933375 
L 185.267848 141.618396 
L 186.492759 141.592147 
L 186.492759 141.592147 
" style="fill:none;stroke:#6b6b6b;stroke-linecap:square;"/>
   </g>
   <g id="line2d_24">
    <path clip-path="url(#pc438091e9a)" d="M 109.323342 136.08 
L 110.548253 136.106248 
L 111.773165 135.791268 
L 112.998076 136.053752 
L 115.447899 135.76502 
L 116.67281 136.106248 
L 117.897722 136.08 
L 119.122633 136.421228 
L 120.347544 136.342483 
L 121.572456 136.814953 
L 124.022278 136.473725 
L 125.24719 136.657463 
L 126.472101 136.70996 
L 127.697013 136.578718 
L 128.921924 136.657463 
L 130.146835 136.473725 
L 131.371747 136.421228 
L 133.82157 136.55247 
L 135.046481 136.473725 
L 136.271392 136.683711 
L 137.496304 136.473725 
L 139.946127 136.70996 
L 146.070684 136.421228 
L 147.295595 136.39498 
L 148.520506 136.631215 
L 149.745418 136.473725 
L 152.195241 136.499973 
L 159.544709 136.39498 
L 160.76962 136.55247 
L 161.994532 136.421228 
L 163.219443 136.55247 
L 164.444354 136.342483 
L 165.669266 136.526221 
L 168.119089 136.39498 
L 169.344 136.578718 
L 170.568911 136.421228 
L 171.793823 136.55247 
L 176.693468 136.368732 
L 177.91838 136.55247 
L 179.143291 136.39498 
L 182.818025 136.368732 
L 184.042937 135.791268 
L 186.492759 135.870013 
L 187.717671 136.158745 
L 188.942582 135.76502 
L 188.942582 135.76502 
" style="fill:none;stroke:#6b6b6b;stroke-linecap:square;"/>
   </g>
   <g id="line2d_25">
    <path clip-path="url(#pc438091e9a)" d="M 115.447899 136.08 
L 116.67281 136.289987 
L 121.572456 136.184993 
L 122.797367 136.447476 
L 128.921924 136.421228 
L 131.371747 136.263738 
L 142.395949 136.499973 
L 144.845772 136.289987 
L 146.070684 136.421228 
L 159.544709 136.499973 
L 160.76962 136.683711 
L 161.994532 136.368732 
L 165.669266 136.316235 
L 171.793823 136.421228 
L 174.243646 136.342483 
L 176.693468 137.129933 
L 177.91838 136.972443 
L 180.368203 137.602403 
L 181.593114 137.628651 
L 182.818025 138.101121 
L 184.042937 138.153617 
L 185.267848 138.363604 
L 187.717671 138.048624 
L 190.167494 138.311107 
L 191.392405 138.442349 
L 192.617316 138.862322 
L 193.842228 138.783577 
L 195.067139 138.862322 
L 196.292051 139.334792 
L 197.516962 139.597275 
L 198.741873 140.253483 
L 199.966785 140.227235 
L 201.191696 140.699704 
L 203.641519 140.778449 
L 204.86643 141.067181 
L 207.316253 141.250919 
L 208.541165 141.198422 
L 209.766076 140.962188 
L 210.990987 141.749637 
L 212.215899 142.064617 
L 213.44081 142.79957 
L 214.665722 142.405845 
L 214.665722 142.405845 
" style="fill:none;stroke:#6b6b6b;stroke-linecap:square;"/>
   </g>
   <g id="line2d_26">
    <path clip-path="url(#pc438091e9a)" d="M 121.572456 136.08 
L 122.797367 137.891134 
L 124.022278 141.224671 
L 125.24719 141.85463 
L 126.472101 136.70996 
L 126.472101 136.70996 
" style="fill:none;stroke:#6b6b6b;stroke-linecap:square;"/>
   </g>
   <g id="line2d_27">
    <path clip-path="url(#pc438091e9a)" d="M 121.572456 136.08 
L 122.797367 136.447476 
L 124.022278 136.132497 
L 125.24719 136.316235 
L 126.472101 136.657463 
L 127.697013 136.55247 
L 128.921924 136.604966 
L 131.371747 137.051188 
L 133.82157 137.681148 
L 138.721215 138.284859 
L 139.946127 138.57359 
L 146.070684 138.993564 
L 147.295595 138.914819 
L 153.420152 139.282295 
L 157.094886 140.043496 
L 161.994532 140.699704 
L 163.219443 140.699704 
L 164.444354 141.093429 
L 165.669266 141.355912 
L 166.894177 141.355912 
L 168.119089 141.565899 
L 170.568911 141.119677 
L 171.793823 142.064617 
L 173.018734 142.353348 
L 174.243646 142.458342 
L 175.468557 143.035805 
L 176.693468 143.193295 
L 177.91838 143.639516 
L 179.143291 143.744509 
L 180.368203 143.665764 
L 182.818025 144.033241 
L 185.267848 144.321972 
L 188.942582 144.453214 
L 190.167494 144.505711 
L 192.617316 144.846939 
L 193.842228 144.951932 
L 195.067139 145.214415 
L 196.292051 145.030677 
L 201.191696 145.634388 
L 202.416608 145.529395 
L 203.641519 145.660637 
L 208.541165 145.555644 
L 210.990987 145.555644 
L 213.44081 145.476899 
L 214.665722 145.60814 
L 215.890633 145.529395 
L 219.565367 145.739382 
L 220.790278 145.634388 
L 223.240101 145.713133 
L 225.689924 145.686885 
L 228.139747 145.870623 
L 233.039392 146.054362 
L 234.264304 145.92312 
L 236.714127 145.92312 
L 237.939038 145.844375 
L 239.163949 145.896872 
L 240.388861 145.791878 
L 240.388861 145.791878 
" style="fill:none;stroke:#6b6b6b;stroke-linecap:square;"/>
   </g>
   <g id="line2d_28">
    <path clip-path="url(#pc438091e9a)" d="M 142.395949 136.08 
L 143.620861 136.263738 
L 144.845772 137.339919 
L 147.295595 138.127369 
L 148.520506 137.864886 
L 149.745418 138.468597 
L 150.970329 139.413537 
L 152.195241 139.439785 
L 153.420152 138.652335 
L 154.645063 139.597275 
L 157.094886 140.043496 
L 158.319797 139.991 
L 159.544709 140.174738 
L 160.76962 140.489718 
L 160.76962 140.489718 
" style="fill:none;stroke:#6b6b6b;stroke-linecap:square;"/>
   </g>
   <g id="line2d_29">
    <path clip-path="url(#pc438091e9a)" d="M 149.745418 136.08 
L 150.970329 136.55247 
L 152.195241 137.339919 
L 153.420152 137.549906 
L 154.645063 138.389852 
L 155.869975 138.652335 
L 157.094886 139.439785 
L 158.319797 139.807261 
L 159.544709 139.964751 
L 160.76962 141.539651 
L 161.994532 142.878315 
L 163.219443 143.27204 
L 164.444354 144.059489 
L 168.119089 146.920556 
L 169.344 147.366778 
L 171.793823 148.5742 
L 173.018734 148.941677 
L 174.243646 150.096603 
L 175.468557 151.54026 
L 177.91838 153.955106 
L 179.143291 153.771368 
L 181.593114 154.138844 
L 182.818025 154.611314 
L 185.267848 156.947414 
L 186.492759 157.918602 
L 188.942582 160.648428 
L 190.167494 161.435877 
L 192.617316 165.13689 
L 193.842228 168.26044 
L 195.067139 170.281561 
L 196.292051 171.672722 
L 199.966785 173.956326 
L 201.191696 174.192561 
L 202.416608 174.218809 
L 204.86643 174.66503 
L 204.86643 174.66503 
" style="fill:none;stroke:#6b6b6b;stroke-linecap:square;"/>
   </g>
   <g id="line2d_30">
    <path clip-path="url(#pc438091e9a)" d="M 164.444354 136.08 
L 165.669266 136.578718 
L 166.894177 136.841201 
L 168.119089 137.234926 
L 169.344 137.366168 
L 170.568911 138.4161 
L 171.793823 139.04606 
L 173.018734 138.941067 
L 174.243646 139.151053 
L 175.468557 139.702268 
L 177.91838 139.912255 
L 179.143291 139.781013 
L 181.593114 139.912255 
L 184.042937 139.623523 
L 185.267848 139.623523 
L 187.717671 140.673456 
L 188.942582 140.725953 
L 190.167494 140.962188 
L 191.392405 141.880879 
L 192.617316 142.3271 
L 193.842228 142.432093 
L 195.067139 143.245791 
L 196.292051 144.531959 
L 197.516962 145.030677 
L 198.741873 145.870623 
L 199.966785 147.025549 
L 201.191696 147.156791 
L 202.416608 147.655509 
L 204.86643 147.891744 
L 206.091342 148.049234 
L 206.091342 148.049234 
" style="fill:none;stroke:#6b6b6b;stroke-linecap:square;"/>
   </g>
   <g id="line2d_31">
    <path clip-path="url(#pc438091e9a)" d="M 166.894177 136.08 
L 168.119089 137.339919 
L 169.344 136.211242 
L 170.568911 140.883443 
L 171.793823 139.151053 
L 174.243646 136.919946 
L 175.468557 137.234926 
L 176.693468 134.058879 
L 177.91838 138.284859 
L 177.91838 138.284859 
" style="fill:none;stroke:#6b6b6b;stroke-linecap:square;"/>
   </g>
   <g id="line2d_32">
    <path clip-path="url(#pc438091e9a)" d="M 168.119089 136.08 
L 169.344 136.39498 
L 173.018734 137.786141 
L 174.243646 137.523658 
L 175.468557 137.576154 
L 179.143291 137.418664 
L 187.717671 137.602403 
L 188.942582 137.838637 
L 190.167494 137.077436 
L 191.392405 136.027503 
L 192.617316 139.492282 
L 195.067139 140.804698 
L 196.292051 141.198422 
L 197.516962 143.508275 
L 198.741873 145.398154 
L 199.966785 145.791878 
L 201.191696 145.686885 
L 212.215899 145.844375 
L 213.44081 145.739382 
L 214.665722 145.949368 
L 217.115544 145.949368 
L 219.565367 146.211852 
L 220.790278 146.526831 
L 222.01519 146.316845 
L 223.240101 146.55308 
L 225.689924 146.55308 
L 226.914835 146.211852 
L 228.139747 147.235536 
L 230.58957 147.445523 
L 231.814481 147.261784 
L 233.039392 147.550516 
L 234.264304 147.261784 
L 235.489215 147.104294 
L 236.714127 147.288033 
L 236.714127 147.288033 
" style="fill:none;stroke:#6b6b6b;stroke-linecap:square;"/>
   </g>
   <g id="line2d_33">
    <path clip-path="url(#pc438091e9a)" d="M 169.344 136.08 
L 170.568911 136.604966 
L 171.793823 136.55247 
L 173.018734 136.70996 
L 175.468557 136.841201 
L 176.693468 137.02494 
L 177.91838 136.998691 
L 179.143291 137.103684 
L 182.818025 138.258611 
L 184.042937 138.363604 
L 185.267848 138.652335 
L 187.717671 139.51853 
L 188.942582 139.83351 
L 190.167494 140.279731 
L 197.516962 141.434657 
L 199.966785 141.408409 
L 199.966785 141.408409 
" style="fill:none;stroke:#6b6b6b;stroke-linecap:square;"/>
   </g>
   <g id="line2d_34">
    <path clip-path="url(#pc438091e9a)" d="M 182.818025 136.08 
L 184.042937 136.473725 
L 185.267848 136.657463 
L 186.492759 136.657463 
L 187.717671 136.447476 
L 193.842228 136.526221 
L 195.067139 137.077436 
L 196.292051 137.234926 
L 197.516962 137.549906 
L 198.741873 137.392416 
L 203.641519 137.602403 
L 204.86643 137.261174 
L 209.766076 137.471161 
L 212.215899 137.234926 
L 217.115544 137.234926 
L 218.340456 137.313671 
L 220.790278 137.313671 
L 226.914835 137.339919 
L 230.58957 137.182429 
L 231.814481 137.287423 
L 233.039392 136.998691 
L 234.264304 137.339919 
L 235.489215 137.182429 
L 236.714127 137.287423 
L 239.163949 137.234926 
L 246.513418 137.156181 
L 247.738329 137.208678 
L 248.963241 137.129933 
L 250.188152 137.261174 
L 253.862886 137.208678 
L 258.762532 137.261174 
L 259.987443 137.156181 
L 263.662177 137.287423 
L 266.112 137.208678 
L 269.786734 137.287423 
L 277.136203 137.234926 
L 278.361114 137.313671 
L 279.586025 137.234926 
L 280.810937 137.313671 
L 282.035848 137.234926 
L 284.485671 137.234926 
L 294.284962 137.182429 
L 294.284962 137.182429 
" style="fill:none;stroke:#6b6b6b;stroke-linecap:square;"/>
   </g>
   <g id="line2d_35">
    <path clip-path="url(#pc438091e9a)" d="M 192.617316 136.08 
L 193.842228 136.106248 
L 197.516962 140.279731 
L 198.741873 140.909691 
L 199.966785 137.077436 
L 201.191696 137.759892 
L 202.416608 139.019812 
L 204.86643 138.389852 
L 206.091342 137.418664 
L 207.316253 139.282295 
L 209.766076 140.752201 
L 210.990987 142.16961 
L 212.215899 146.658073 
L 213.44081 148.285469 
L 214.665722 150.280341 
L 215.890633 151.723999 
L 217.115544 152.80018 
L 218.340456 155.110032 
L 219.565367 156.55369 
L 222.01519 158.706052 
L 223.240101 160.149709 
L 223.240101 160.149709 
" style="fill:none;stroke:#6b6b6b;stroke-linecap:square;"/>
   </g>
   <g id="line2d_36">
    <path clip-path="url(#pc438091e9a)" d="M 193.842228 136.08 
L 195.067139 136.736208 
L 197.516962 138.652335 
L 198.741873 138.862322 
L 199.966785 139.649772 
L 201.191696 140.935939 
L 202.416608 140.962188 
L 203.641519 141.513402 
L 206.091342 142.983308 
L 207.316253 144.033241 
L 208.541165 144.269476 
L 209.766076 144.374469 
L 210.990987 144.794442 
L 212.215899 144.899436 
L 213.44081 145.214415 
L 214.665722 145.739382 
L 217.115544 146.421838 
L 218.340456 147.156791 
L 219.565367 147.734254 
L 220.790278 148.180476 
L 222.01519 148.364214 
L 223.240101 149.151663 
L 225.689924 150.017858 
L 226.914835 150.569073 
L 228.139747 150.779059 
L 229.364658 151.750247 
L 230.58957 152.196468 
L 231.814481 152.511448 
L 233.039392 152.95767 
L 237.939038 153.955106 
L 239.163949 154.427576 
L 240.388861 154.375079 
L 242.838684 155.267522 
L 244.063595 155.556253 
L 245.288506 155.60875 
L 246.513418 156.028723 
L 248.963241 156.23871 
L 252.637975 156.894918 
L 255.087797 156.921166 
L 256.312709 157.104904 
L 259.987443 156.947414 
L 261.212354 158.522314 
L 262.437266 157.262394 
L 262.437266 157.262394 
" style="fill:none;stroke:#6b6b6b;stroke-linecap:square;"/>
   </g>
   <g id="line2d_37">
    <path clip-path="url(#pc438091e9a)" d="M 199.966785 136.08 
L 204.86643 140.515966 
L 206.091342 141.565899 
L 207.316253 143.035805 
L 207.316253 143.035805 
" style="fill:none;stroke:#6b6b6b;stroke-linecap:square;"/>
   </g>
   <g id="line2d_38">
    <path clip-path="url(#pc438091e9a)" d="M 201.191696 136.08 
L 204.86643 139.702268 
L 207.316253 140.857194 
L 208.541165 142.274604 
L 209.766076 144.636952 
L 209.766076 144.636952 
" style="fill:none;stroke:#6b6b6b;stroke-linecap:square;"/>
   </g>
   <g id="line2d_39">
    <path clip-path="url(#pc438091e9a)" d="M 204.86643 136.08 
L 206.091342 137.313671 
L 207.316253 137.366168 
L 209.766076 138.468597 
L 210.990987 138.442349 
L 210.990987 138.442349 
" style="fill:none;stroke:#6b6b6b;stroke-linecap:square;"/>
   </g>
   <g id="line2d_40">
    <path clip-path="url(#pc438091e9a)" d="M 207.316253 136.08 
L 208.541165 136.289987 
L 212.215899 136.158745 
L 214.665722 136.657463 
L 215.890633 133.691403 
L 215.890633 133.691403 
" style="fill:none;stroke:#6b6b6b;stroke-linecap:square;"/>
   </g>
   <g id="line2d_41">
    <path clip-path="url(#pc438091e9a)" d="M 208.541165 136.08 
L 209.766076 132.48398 
L 210.990987 133.875141 
L 212.215899 139.413537 
L 213.44081 137.103684 
L 214.665722 139.387288 
L 215.890633 139.439785 
L 217.115544 139.886006 
L 219.565367 141.408409 
L 220.790278 143.009556 
L 222.01519 143.901999 
L 223.240101 145.319409 
L 224.465013 147.183039 
L 226.914835 150.017858 
L 228.139747 151.907737 
L 229.364658 152.458952 
L 230.58957 153.823864 
L 233.039392 155.871233 
L 235.489215 157.866106 
L 236.714127 158.706052 
L 239.163949 161.567119 
L 240.388861 163.430749 
L 241.613772 164.716917 
L 242.838684 164.900655 
L 242.838684 164.900655 
" style="fill:none;stroke:#6b6b6b;stroke-linecap:square;"/>
   </g>
   <g id="line2d_42">
    <path clip-path="url(#pc438091e9a)" d="M 218.340456 136.08 
L 223.240101 136.027503 
L 225.689924 136.027503 
L 226.914835 135.975007 
L 228.139747 136.106248 
L 230.58957 135.92251 
L 231.814481 136.132497 
L 234.264304 135.948758 
L 236.714127 136.08 
L 242.838684 135.870013 
L 248.963241 135.975007 
L 248.963241 135.975007 
" style="fill:none;stroke:#6b6b6b;stroke-linecap:square;"/>
   </g>
   <g id="line2d_43">
    <path clip-path="url(#pc438091e9a)" d="M 220.790278 136.08 
L 225.689924 136.526221 
L 226.914835 136.919946 
L 228.139747 137.156181 
L 229.364658 137.602403 
L 230.58957 137.444913 
L 231.814481 137.576154 
L 233.039392 138.206114 
L 234.264304 138.599839 
L 235.489215 138.442349 
L 236.714127 138.442349 
L 239.163949 136.972443 
L 240.388861 135.318799 
L 241.613772 138.809825 
L 242.838684 138.967315 
L 244.063595 138.704832 
L 245.288506 139.04606 
L 247.738329 138.73108 
L 248.963241 138.836074 
L 250.188152 139.334792 
L 251.413063 138.941067 
L 252.637975 138.967315 
L 253.862886 139.571027 
L 255.087797 139.544778 
L 255.087797 139.544778 
" style="fill:none;stroke:#6b6b6b;stroke-linecap:square;"/>
   </g>
   <g id="line2d_44">
    <path clip-path="url(#pc438091e9a)" d="M 224.465013 136.08 
L 225.689924 136.473725 
L 226.914835 137.864886 
L 229.364658 138.468597 
L 230.58957 139.177302 
L 231.814481 140.174738 
L 233.039392 141.644644 
L 234.264304 142.48459 
L 235.489215 143.954496 
L 237.939038 145.503147 
L 242.838684 150.805308 
L 244.063595 152.878925 
L 245.288506 154.637562 
L 247.738329 156.842421 
L 250.188152 160.307199 
L 252.637975 162.538307 
L 253.862886 163.456998 
L 255.087797 165.215635 
L 256.312709 165.084394 
L 257.53762 165.92434 
L 258.762532 167.630481 
L 262.437266 173.195124 
L 263.662177 174.612534 
L 266.112 176.476164 
L 267.336911 176.948634 
L 269.786734 176.791144 
L 269.786734 176.791144 
" style="fill:none;stroke:#6b6b6b;stroke-linecap:square;"/>
   </g>
   <g id="line2d_45">
    <path clip-path="url(#pc438091e9a)" d="M 224.465013 136.08 
L 225.689924 136.027503 
L 235.489215 137.051188 
L 236.714127 136.893698 
L 237.939038 137.103684 
L 242.838684 137.313671 
L 244.063595 136.39498 
L 245.288506 137.02494 
L 246.513418 137.077436 
L 247.738329 137.313671 
L 248.963241 137.287423 
L 250.188152 137.523658 
L 251.413063 137.261174 
L 257.53762 137.549906 
L 258.762532 137.602403 
L 259.987443 137.812389 
L 261.212354 137.654899 
L 263.662177 137.864886 
L 264.887089 137.759892 
L 267.336911 138.284859 
L 268.561823 138.022376 
L 268.561823 138.022376 
" style="fill:none;stroke:#6b6b6b;stroke-linecap:square;"/>
   </g>
   <g id="line2d_46">
    <path clip-path="url(#pc438091e9a)" d="M 237.939038 136.08 
L 239.163949 136.184993 
L 240.388861 136.001255 
L 242.838684 135.988131 
L 244.063595 136.027503 
L 245.288506 135.92251 
L 247.738329 136.08 
L 248.963241 135.948758 
L 248.963241 135.948758 
" style="fill:none;stroke:#6b6b6b;stroke-linecap:square;"/>
   </g>
   <g id="line2d_47">
    <path clip-path="url(#pc438091e9a)" d="M 240.388861 136.08 
L 246.513418 136.421228 
L 247.738329 136.368732 
L 250.188152 136.683711 
L 251.413063 136.762456 
L 255.087797 137.444913 
L 264.887089 137.392416 
L 266.112 137.287423 
L 267.336911 139.781013 
L 268.561823 137.366168 
L 275.911291 137.628651 
L 277.136203 138.153617 
L 278.361114 137.943631 
L 279.586025 138.127369 
L 280.810937 137.864886 
L 282.035848 138.258611 
L 284.485671 138.284859 
L 286.935494 138.337356 
L 288.160405 138.442349 
L 289.385316 138.337356 
L 291.835139 138.468597 
L 296.734785 138.468597 
L 297.959696 138.547342 
L 299.184608 138.442349 
L 305.309165 138.88857 
L 306.534076 139.67602 
L 307.758987 139.51853 
L 308.983899 139.492282 
L 311.433722 139.623523 
L 320.008101 139.702268 
L 322.457924 139.754765 
L 323.682835 139.807261 
L 324.907747 139.991 
L 329.807392 139.964751 
L 331.032304 140.017248 
L 332.257215 139.938503 
L 332.257215 139.938503 
" style="fill:none;stroke:#6b6b6b;stroke-linecap:square;"/>
   </g>
   <g id="line2d_48">
    <path clip-path="url(#pc438091e9a)" d="M 244.063595 136.08 
L 245.288506 135.948758 
L 246.513418 136.08 
L 251.413063 136.106248 
L 252.637975 136.342483 
L 253.862886 136.184993 
L 255.087797 136.23749 
L 255.087797 136.23749 
" style="fill:none;stroke:#6b6b6b;stroke-linecap:square;"/>
   </g>
   <g id="line2d_49">
    <path clip-path="url(#pc438091e9a)" d="M 245.288506 136.08 
L 246.513418 135.975007 
L 247.738329 136.08 
L 250.188152 135.870013 
L 250.188152 135.870013 
" style="fill:none;stroke:#6b6b6b;stroke-linecap:square;"/>
   </g>
   <g id="line2d_50">
    <path clip-path="url(#pc438091e9a)" d="M 245.288506 136.08 
L 246.513418 137.287423 
L 247.738329 138.836074 
L 248.963241 139.859758 
L 250.188152 141.565899 
L 250.188152 141.565899 
" style="fill:none;stroke:#6b6b6b;stroke-linecap:square;"/>
   </g>
   <g id="line2d_51">
    <path clip-path="url(#pc438091e9a)" d="M 251.413063 136.08 
L 252.637975 136.316235 
L 257.53762 139.571027 
L 258.762532 140.515966 
L 259.987443 141.040932 
L 261.212354 142.222107 
L 262.437266 143.11455 
L 262.437266 143.11455 
" style="fill:none;stroke:#6b6b6b;stroke-linecap:square;"/>
   </g>
   <g id="line2d_52">
    <path clip-path="url(#pc438091e9a)" d="M 251.413063 136.08 
L 252.637975 137.392416 
L 253.862886 135.397544 
L 255.087797 135.975007 
L 256.312709 136.08 
L 257.53762 135.45004 
L 258.762532 135.371295 
L 258.762532 135.371295 
" style="fill:none;stroke:#6b6b6b;stroke-linecap:square;"/>
   </g>
   <g id="line2d_53">
    <path clip-path="url(#pc438091e9a)" d="M 256.312709 136.08 
L 259.987443 142.01212 
L 261.212354 143.639516 
L 262.437266 145.056925 
L 264.887089 147.183039 
L 266.112 149.020422 
L 267.336911 150.227844 
L 268.561823 152.931421 
L 269.786734 153.088911 
L 271.011646 154.97879 
L 272.236557 154.8213 
L 274.68638 155.188777 
L 275.911291 155.818737 
L 277.136203 155.871233 
L 278.361114 155.792488 
L 284.485671 156.107468 
L 288.160405 156.3962 
L 289.385316 156.816173 
L 291.835139 156.999911 
L 295.509873 157.446132 
L 300.409519 157.839857 
L 301.63443 158.049844 
L 304.084253 158.207334 
L 305.309165 158.286079 
L 306.534076 158.207334 
L 308.983899 158.338575 
L 310.20881 159.099777 
L 311.433722 159.309763 
L 313.883544 159.309763 
L 316.333367 159.545998 
L 317.558278 159.441005 
L 318.78319 159.913475 
L 320.008101 159.860978 
L 322.457924 160.910911 
L 323.682835 160.937159 
L 324.907747 160.727172 
L 326.132658 161.147146 
L 328.582481 161.068401 
L 331.032304 161.330884 
L 332.257215 161.330884 
L 333.482127 161.750857 
L 335.931949 162.17083 
L 337.156861 162.354568 
L 340.831595 162.512058 
L 342.056506 162.80079 
L 344.506329 163.063273 
L 345.731241 162.853286 
L 346.956152 163.142018 
L 348.181063 162.80079 
L 350.630886 163.010776 
L 351.855797 162.932031 
L 353.080709 163.168266 
L 354.30562 163.168266 
L 355.530532 163.010776 
L 356.755443 163.483246 
L 360.430177 163.456998 
L 361.655089 163.509494 
L 361.655089 163.509494 
" style="fill:none;stroke:#6b6b6b;stroke-linecap:square;"/>
   </g>
   <g id="line2d_54">
    <path clip-path="url(#pc438091e9a)" d="M 258.762532 136.08 
L 259.987443 136.211242 
L 261.212354 136.106248 
L 263.662177 136.657463 
L 267.336911 136.55247 
L 268.561823 137.103684 
L 269.786734 137.917382 
L 271.011646 138.022376 
L 274.68638 137.838637 
L 275.911291 138.468597 
L 279.586025 138.284859 
L 280.810937 138.127369 
L 282.035848 138.941067 
L 282.035848 138.941067 
" style="fill:none;stroke:#6b6b6b;stroke-linecap:square;"/>
   </g>
   <g id="line2d_55">
    <path clip-path="url(#pc438091e9a)" d="M 259.987443 136.08 
L 261.212354 136.027503 
L 263.662177 136.211242 
L 264.887089 136.106248 
L 269.786734 136.211242 
L 274.68638 136.211242 
L 275.911291 136.132497 
L 278.361114 136.184993 
L 282.035848 136.211242 
L 283.260759 136.106248 
L 286.935494 136.342483 
L 288.160405 136.158745 
L 289.385316 136.289987 
L 293.060051 136.23749 
L 294.284962 136.342483 
L 297.959696 136.263738 
L 300.409519 136.342483 
L 301.63443 136.184993 
L 304.084253 136.39498 
L 305.309165 136.289987 
L 306.534076 136.447476 
L 307.758987 136.39498 
L 310.20881 136.447476 
L 313.883544 136.421228 
L 329.807392 136.342483 
L 331.032304 136.289987 
L 332.257215 136.368732 
L 333.482127 136.289987 
L 335.931949 136.499973 
L 337.156861 136.473725 
L 340.831595 136.972443 
L 357.980354 137.077436 
L 359.205266 137.129933 
L 361.655089 136.86745 
L 361.655089 136.86745 
" style="fill:none;stroke:#6b6b6b;stroke-linecap:square;"/>
   </g>
   <g id="line2d_56">
    <path clip-path="url(#pc438091e9a)" d="M 263.662177 136.08 
L 264.887089 136.23749 
L 266.112 136.70996 
L 269.786734 137.733644 
L 273.461468 137.838637 
L 274.68638 138.022376 
L 275.911291 136.001255 
L 277.136203 138.022376 
L 280.810937 137.838637 
L 282.035848 137.864886 
L 283.260759 138.022376 
L 286.935494 137.891134 
L 290.610228 137.838637 
L 293.060051 137.759892 
L 294.284962 137.707396 
L 295.509873 137.838637 
L 354.30562 137.812389 
L 355.530532 137.681148 
L 357.980354 137.759892 
L 361.655089 137.786141 
L 361.655089 137.786141 
" style="fill:none;stroke:#6b6b6b;stroke-linecap:square;"/>
   </g>
   <g id="line2d_57">
    <path clip-path="url(#pc438091e9a)" d="M 263.662177 136.08 
L 264.887089 136.762456 
L 266.112 137.103684 
L 267.336911 137.287423 
L 269.786734 137.208678 
L 271.011646 136.39498 
L 272.236557 136.762456 
L 275.911291 136.39498 
L 277.136203 136.788705 
L 277.136203 136.788705 
" style="fill:none;stroke:#6b6b6b;stroke-linecap:square;"/>
   </g>
   <g id="line2d_58">
    <path clip-path="url(#pc438091e9a)" d="M 273.461468 136.08 
L 274.68638 136.683711 
L 275.911291 136.841201 
L 277.136203 136.683711 
L 279.586025 136.893698 
L 280.810937 136.814953 
L 283.260759 137.077436 
L 284.485671 137.02494 
L 284.485671 137.02494 
" style="fill:none;stroke:#6b6b6b;stroke-linecap:square;"/>
   </g>
   <g id="line2d_59">
    <path clip-path="url(#pc438091e9a)" d="M 275.911291 136.08 
L 277.136203 136.158745 
L 278.361114 136.473725 
L 283.260759 136.919946 
L 283.260759 136.919946 
" style="fill:none;stroke:#6b6b6b;stroke-linecap:square;"/>
   </g>
   <g id="line2d_60">
    <path clip-path="url(#pc438091e9a)" d="M 282.035848 136.08 
L 283.260759 136.473725 
L 285.710582 136.683711 
L 286.935494 136.447476 
L 288.160405 137.786141 
L 289.385316 138.232362 
L 291.835139 138.258611 
L 293.060051 138.442349 
L 295.509873 138.206114 
L 296.734785 138.363604 
L 300.409519 138.179866 
L 301.63443 138.494845 
L 307.758987 138.914819 
L 318.78319 139.072308 
L 321.233013 139.019812 
L 322.457924 139.151053 
L 323.682835 139.072308 
L 328.582481 139.229798 
L 332.257215 139.151053 
L 333.482127 139.492282 
L 334.707038 139.439785 
L 337.156861 139.571027 
L 338.381772 139.51853 
L 340.831595 139.728516 
L 346.956152 139.807261 
L 346.956152 139.807261 
" style="fill:none;stroke:#6b6b6b;stroke-linecap:square;"/>
   </g>
   <g id="line2d_61">
    <path clip-path="url(#pc438091e9a)" d="M 285.710582 136.08 
L 286.935494 137.208678 
L 288.160405 138.57359 
L 291.835139 140.515966 
L 296.734785 144.846939 
L 297.959696 145.319409 
L 299.184608 146.211852 
L 300.409519 147.681757 
L 301.63443 147.681757 
L 302.859342 148.521704 
L 304.084253 148.626697 
L 305.309165 148.915428 
L 307.758987 149.230408 
L 308.983899 149.36165 
L 308.983899 149.36165 
" style="fill:none;stroke:#6b6b6b;stroke-linecap:square;"/>
   </g>
   <g id="line2d_62">
    <path clip-path="url(#pc438091e9a)" d="M 290.610228 136.08 
L 291.835139 137.759892 
L 293.060051 139.098557 
L 294.284962 139.308543 
L 295.509873 139.124805 
L 296.734785 139.912255 
L 297.959696 140.253483 
L 299.184608 140.358476 
L 299.184608 140.358476 
" style="fill:none;stroke:#6b6b6b;stroke-linecap:square;"/>
   </g>
   <g id="line2d_63">
    <path clip-path="url(#pc438091e9a)" d="M 297.959696 136.08 
L 300.409519 136.132497 
L 328.582481 136.08 
L 331.032304 135.975007 
L 337.156861 135.948758 
L 338.381772 135.975007 
L 338.381772 135.975007 
" style="fill:none;stroke:#6b6b6b;stroke-linecap:square;"/>
   </g>
   <g id="line2d_64">
    <path clip-path="url(#pc438091e9a)" d="M 302.859342 136.08 
L 304.084253 136.001255 
L 305.309165 136.342483 
L 306.534076 136.814953 
L 307.758987 136.657463 
L 310.20881 137.576154 
L 311.433722 137.917382 
L 312.658633 132.378987 
L 313.883544 134.242618 
L 315.108456 138.022376 
L 316.333367 137.366168 
L 317.558278 137.759892 
L 318.78319 137.628651 
L 320.008101 138.048624 
L 320.008101 138.048624 
" style="fill:none;stroke:#6b6b6b;stroke-linecap:square;"/>
   </g>
   <g id="line2d_65">
    <path clip-path="url(#pc438091e9a)" d="M 304.084253 136.08 
L 305.309165 136.736208 
L 306.534076 137.549906 
L 307.758987 138.547342 
L 308.983899 139.229798 
L 310.20881 140.122241 
L 311.433722 140.043496 
L 312.658633 141.355912 
L 313.883544 142.090865 
L 315.108456 142.248355 
L 317.558278 142.825818 
L 318.78319 143.350785 
L 321.233013 143.626392 
L 322.457924 143.718261 
L 323.682835 144.164483 
L 327.35757 144.873187 
L 328.582481 144.846939 
L 329.807392 144.531959 
L 329.807392 144.531959 
" style="fill:none;stroke:#6b6b6b;stroke-linecap:square;"/>
   </g>
   <g id="line2d_66">
    <path clip-path="url(#pc438091e9a)" d="M 304.084253 136.08 
L 306.534076 136.211242 
L 307.758987 136.132497 
L 310.20881 136.263738 
L 311.433722 136.053752 
L 312.658633 136.893698 
L 315.108456 137.051188 
L 316.333367 136.316235 
L 317.558278 136.23749 
L 318.78319 137.234926 
L 321.233013 137.523658 
L 322.457924 136.762456 
L 323.682835 136.998691 
L 323.682835 136.998691 
" style="fill:none;stroke:#6b6b6b;stroke-linecap:square;"/>
   </g>
   <g id="line2d_67">
    <path clip-path="url(#pc438091e9a)" d="M 307.758987 136.08 
L 308.983899 136.421228 
L 310.20881 136.132497 
L 311.433722 136.86745 
L 312.658633 136.86745 
L 312.658633 136.86745 
" style="fill:none;stroke:#6b6b6b;stroke-linecap:square;"/>
   </g>
   <g id="line2d_68">
    <path clip-path="url(#pc438091e9a)" d="M 312.658633 136.08 
L 315.108456 136.106248 
L 316.333367 136.368732 
L 317.558278 136.001255 
L 318.78319 135.975007 
L 320.008101 136.158745 
L 324.907747 136.39498 
L 324.907747 136.39498 
" style="fill:none;stroke:#6b6b6b;stroke-linecap:square;"/>
   </g>
   <g id="line2d_69">
    <path clip-path="url(#pc438091e9a)" d="M 315.108456 136.08 
L 316.333367 135.817517 
L 317.558278 136.027503 
L 318.78319 136.578718 
L 321.233013 136.027503 
L 322.457924 136.053752 
L 323.682835 136.526221 
L 324.907747 136.316235 
L 326.132658 136.70996 
L 329.807392 136.631215 
L 331.032304 136.736208 
L 333.482127 136.657463 
L 340.831595 136.657463 
L 342.056506 136.578718 
L 344.506329 136.683711 
L 345.731241 136.55247 
L 348.181063 136.762456 
L 353.080709 136.736208 
L 357.980354 136.736208 
L 361.655089 136.657463 
L 361.655089 136.657463 
" style="fill:none;stroke:#6b6b6b;stroke-linecap:square;"/>
   </g>
   <g id="line2d_70">
    <path clip-path="url(#pc438091e9a)" d="M 315.108456 136.08 
L 316.333367 136.578718 
L 318.78319 136.893698 
L 320.008101 137.156181 
L 321.233013 137.208678 
L 322.457924 137.077436 
L 326.132658 137.129933 
L 328.582481 136.998691 
L 329.807392 136.893698 
L 329.807392 136.893698 
" style="fill:none;stroke:#6b6b6b;stroke-linecap:square;"/>
   </g>
   <g id="line2d_71">
    <path clip-path="url(#pc438091e9a)" d="M 326.132658 136.08 
L 327.35757 136.316235 
L 333.482127 138.599839 
L 334.707038 138.862322 
L 335.931949 139.807261 
L 338.381772 142.720825 
L 339.606684 143.298288 
L 340.831595 143.324536 
L 342.056506 143.875751 
L 343.281418 144.97818 
L 344.506329 145.870623 
L 345.731241 146.474335 
L 346.956152 147.419274 
L 348.181063 148.521704 
L 350.630886 150.306589 
L 353.080709 150.962797 
L 354.30562 151.933985 
L 355.530532 152.668938 
L 356.755443 153.088911 
L 357.980354 153.088911 
L 360.430177 153.561381 
L 361.655089 153.508884 
L 361.655089 153.508884 
" style="fill:none;stroke:#6b6b6b;stroke-linecap:square;"/>
   </g>
   <g id="line2d_72">
    <path clip-path="url(#pc438091e9a)" d="M 339.606684 136.08 
L 342.056506 136.001255 
L 343.281418 136.23749 
L 345.731241 136.053752 
L 348.181063 136.263738 
L 349.405975 136.211242 
L 350.630886 136.368732 
L 353.080709 136.342483 
L 354.30562 136.499973 
L 357.980354 136.604966 
L 359.205266 136.841201 
L 360.430177 136.893698 
L 361.655089 137.103684 
L 361.655089 137.103684 
" style="fill:none;stroke:#6b6b6b;stroke-linecap:square;"/>
   </g>
   <g id="line2d_73">
    <path clip-path="url(#pc438091e9a)" d="M 342.056506 136.08 
L 344.506329 136.132497 
L 351.855797 136.184993 
L 354.30562 136.184993 
L 356.755443 136.289987 
L 359.205266 136.08 
L 361.655089 136.211242 
L 361.655089 136.211242 
" style="fill:none;stroke:#6b6b6b;stroke-linecap:square;"/>
   </g>
   <g id="line2d_74">
    <path clip-path="url(#pc438091e9a)" d="M 345.731241 136.08 
L 350.630886 138.967315 
L 351.855797 140.699704 
L 354.30562 141.802134 
L 357.980354 144.295724 
L 359.205266 145.319409 
L 360.430177 146.631825 
L 360.430177 146.631825 
" style="fill:none;stroke:#6b6b6b;stroke-linecap:square;"/>
   </g>
   <g id="line2d_75">
    <path clip-path="url(#pc438091e9a)" d="M 351.855797 136.08 
L 356.755443 136.263738 
L 359.205266 136.184993 
L 360.430177 136.447476 
L 361.655089 136.368732 
L 361.655089 136.368732 
" style="fill:none;stroke:#6b6b6b;stroke-linecap:square;"/>
   </g>
   <g id="line2d_76">
    <path clip-path="url(#pc438091e9a)" d="M 351.855797 136.08 
L 354.30562 138.311107 
L 355.530532 139.859758 
L 356.755443 140.279731 
L 357.980354 142.064617 
L 359.205266 142.720825 
L 360.430177 143.797006 
L 361.655089 145.056925 
L 361.655089 145.056925 
" style="fill:none;stroke:#6b6b6b;stroke-linecap:square;"/>
   </g>
   <g id="text_14">
    <!-- distance increases, -->
    <g transform="translate(251.753191 44.505408)scale(0.145 -0.145)">
     <defs>
      <path d="M 37.59375 27.984375 
C 37.59375 37.375 30.90625 43.875 21.90625 43.875 
C 17.5 43.875 12.703125 43.078125 7.203125 39.890625 
L 7.796875 33.359375 
C 10.296875 35.125 14.59375 38 21.796875 38 
C 26.90625 38 30 34.0625 30 27.84375 
L 30 24 
C 14 24 4 19.34375 4 11.34375 
C 4 7.203125 6.5 -1 14.796875 -1 
C 16.296875 -1 24.40625 -1 30.203125 3.390625 
L 30.203125 -0.296875 
L 37.59375 -0.296875 
z
M 30 12.75 
C 30 10.953125 30 8.5625 27 6.78125 
C 24.40625 5.078125 21.09375 5.078125 19.703125 5.078125 
C 14.703125 5.078125 11.296875 7.984375 11.296875 11.625 
C 11.296875 18.921875 26.90625 18.921875 30 18.921875 
z
" id="CMSS17-97"/>
      <path d="M 40.90625 29.328125 
C 40.90625 35.671875 39.40625 44 28.09375 44 
C 21.703125 44 17.5 40.71875 14.703125 37.328125 
L 14.703125 43.09375 
L 7.40625 43.09375 
L 7.40625 0 
L 15 0 
L 15 24.359375 
C 15 30.6875 17.40625 37.9375 24.203125 37.9375 
C 33 37.9375 33.296875 32 33.296875 28.578125 
L 33.296875 0 
L 40.90625 0 
z
" id="CMSS17-110"/>
      <path d="M 39.09375 21.515625 
C 39.09375 24.84375 38.90625 31.296875 35.703125 36.640625 
C 32.203125 42.390625 26.5 44 22.203125 44 
C 11.796875 44 3 34.1875 3 21.484375 
C 3 9.09375 12.09375 -1 23.59375 -1 
C 28.09375 -1 33.59375 0.296875 38.59375 3.875 
C 38.59375 4.28125 38.40625 6.46875 38.296875 6.5625 
C 38.296875 6.765625 38 9.84375 38 10.25 
C 33.203125 6.359375 27.703125 5.078125 23.703125 5.078125 
C 17.296875 5.078125 10.40625 10.421875 10.09375 21.515625 
z
M 10.90625 27 
C 12.203125 32.5625 16.59375 37.828125 22.203125 37.828125 
C 23.703125 37.828125 30.703125 37.828125 32.5 27 
z
" id="CMSS17-101"/>
      <path d="M 14.90625 21.296875 
C 14.90625 30.703125 21.796875 37 30.59375 37 
L 30.59375 43.578125 
C 24.203125 43.578125 18.203125 40.390625 14.59375 35.203125 
L 14.59375 43.09375 
L 7.5 43.09375 
L 7.5 0 
L 14.90625 0 
z
" id="CMSS17-114"/>
      <path d="M 17 0.09375 
L 17 7.96875 
L 9 7.96875 
L 9 0 
L 11.5 0 
L 8.90625 -12.5 
L 12.90625 -12.5 
z
" id="CMSS17-44"/>
     </defs>
     <use transform="scale(0.996264)" xlink:href="#CMSS17-100"/>
     <use transform="translate(48.204943 0)scale(0.996264)" xlink:href="#CMSS17-105"/>
     <use transform="translate(70.385666 0)scale(0.996264)" xlink:href="#CMSS17-115"/>
     <use transform="translate(106.299208 0)scale(0.996264)" xlink:href="#CMSS17-116"/>
     <use transform="translate(140.130775 0)scale(0.996264)" xlink:href="#CMSS17-97"/>
     <use transform="translate(185.052695 0)scale(0.996264)" xlink:href="#CMSS17-110"/>
     <use transform="translate(233.257639 0)scale(0.996264)" xlink:href="#CMSS17-99"/>
     <use transform="translate(274.896461 0)scale(0.996264)" xlink:href="#CMSS17-101"/>
     <use transform="translate(347.764395 0)scale(0.996264)" xlink:href="#CMSS17-105"/>
     <use transform="translate(369.945119 0)scale(0.996264)" xlink:href="#CMSS17-110"/>
     <use transform="translate(418.150062 0)scale(0.996264)" xlink:href="#CMSS17-99"/>
     <use transform="translate(459.788884 0)scale(0.996264)" xlink:href="#CMSS17-114"/>
     <use transform="translate(491.698656 0)scale(0.996264)" xlink:href="#CMSS17-101"/>
     <use transform="translate(533.337478 0)scale(0.996264)" xlink:href="#CMSS17-97"/>
     <use transform="translate(578.259399 0)scale(0.996264)" xlink:href="#CMSS17-115"/>
     <use transform="translate(614.172941 0)scale(0.996264)" xlink:href="#CMSS17-101"/>
     <use transform="translate(655.811763 0)scale(0.996264)" xlink:href="#CMSS17-115"/>
     <use transform="translate(691.725305 0)scale(0.996264)" xlink:href="#CMSS17-44"/>
    </g>
    <!-- n = 0 -->
    <g transform="translate(325.217066 59.352472)scale(0.145 -0.145)">
     <defs>
      <path d="M 64.796875 31.515625 
C 66.296875 31.515625 67.796875 31.515625 67.796875 33.203125 
C 67.796875 35 66.09375 35 64.40625 35 
L 8.59375 35 
C 6.90625 35 5.203125 35 5.203125 33.203125 
C 5.203125 31.515625 6.703125 31.515625 8.203125 31.515625 
z
M 64.40625 14 
C 66.09375 14 67.796875 14 67.796875 15.796875 
C 67.796875 17.484375 66.296875 17.484375 64.796875 17.484375 
L 8.203125 17.484375 
C 6.703125 17.484375 5.203125 17.484375 5.203125 15.796875 
C 5.203125 14 6.90625 14 8.59375 14 
z
" id="CMSS17-61"/>
     </defs>
     <use transform="scale(0.996264)" xlink:href="#CMSS17-110"/>
     <use transform="translate(79.434056 0)scale(0.996264)" xlink:href="#CMSS17-61"/>
     <use transform="translate(183.531103 0)scale(0.996264)" xlink:href="#CMSS17-48"/>
    </g>
   </g>
   <g id="text_15">
    <!-- distance decreases, -->
    <g transform="translate(248.793814 220.030442)scale(0.145 -0.145)">
     <use transform="scale(0.996264)" xlink:href="#CMSS17-100"/>
     <use transform="translate(48.204943 0)scale(0.996264)" xlink:href="#CMSS17-105"/>
     <use transform="translate(70.385666 0)scale(0.996264)" xlink:href="#CMSS17-115"/>
     <use transform="translate(106.299208 0)scale(0.996264)" xlink:href="#CMSS17-116"/>
     <use transform="translate(140.130775 0)scale(0.996264)" xlink:href="#CMSS17-97"/>
     <use transform="translate(185.052695 0)scale(0.996264)" xlink:href="#CMSS17-110"/>
     <use transform="translate(233.257639 0)scale(0.996264)" xlink:href="#CMSS17-99"/>
     <use transform="translate(274.896461 0)scale(0.996264)" xlink:href="#CMSS17-101"/>
     <use transform="translate(347.764395 0)scale(0.996264)" xlink:href="#CMSS17-100"/>
     <use transform="translate(395.969339 0)scale(0.996264)" xlink:href="#CMSS17-101"/>
     <use transform="translate(437.608161 0)scale(0.996264)" xlink:href="#CMSS17-99"/>
     <use transform="translate(479.246983 0)scale(0.996264)" xlink:href="#CMSS17-114"/>
     <use transform="translate(511.156755 0)scale(0.996264)" xlink:href="#CMSS17-101"/>
     <use transform="translate(552.795577 0)scale(0.996264)" xlink:href="#CMSS17-97"/>
     <use transform="translate(597.717498 0)scale(0.996264)" xlink:href="#CMSS17-115"/>
     <use transform="translate(633.63104 0)scale(0.996264)" xlink:href="#CMSS17-101"/>
     <use transform="translate(675.269862 0)scale(0.996264)" xlink:href="#CMSS17-115"/>
     <use transform="translate(711.183404 0)scale(0.996264)" xlink:href="#CMSS17-44"/>
    </g>
    <!-- n = 27 -->
    <g transform="translate(318.14471 234.877506)scale(0.145 -0.145)">
     <defs>
      <path d="M 21.703125 59 
C 22.90625 59 24.09375 59 25.296875 59 
L 36.796875 59 
C 22.5 42.359375 14.296875 21.328125 14.296875 -0.5 
L 22.296875 -0.5 
C 22.296875 20.671875 29.296875 42.125 43 59.296875 
L 43 65.765625 
L 3.90625 65.765625 
L 3.90625 59 
z
" id="CMSS17-55"/>
     </defs>
     <use transform="scale(0.996264)" xlink:href="#CMSS17-110"/>
     <use transform="translate(79.434056 0)scale(0.996264)" xlink:href="#CMSS17-61"/>
     <use transform="translate(183.531103 0)scale(0.996264)" xlink:href="#CMSS17-50"/>
     <use transform="translate(230.374727 0)scale(0.996264)" xlink:href="#CMSS17-55"/>
    </g>
   </g>
   <g id="text_16">
    <!-- tl14-D05-G005 -->
    <g transform="translate(165.854091 15.24)scale(0.18 -0.18)">
     <defs>
      <path d="M 14.796875 69 
L 7.40625 69 
L 7.40625 0 
L 14.796875 0 
z
" id="CMSS17-108"/>
      <path d="M 56.296875 29 
L 36.5 29 
L 36.5 22.921875 
L 48.703125 22.921875 
L 48.703125 6.28125 
C 46.59375 5.578125 41.90625 4.375 36.90625 4.375 
C 24 4.375 14.59375 18 14.59375 34.109375 
C 14.59375 50.3125 24 63.828125 36.90625 63.828125 
C 42.796875 63.828125 48.5 62.34375 54 57.390625 
L 54.09375 57.390625 
L 55.5 65.328125 
C 47.5 70 40.59375 70 36.90625 70 
C 19.40625 70 6.203125 53.640625 6.203125 34 
C 6.203125 14.0625 19.703125 -2 36.796875 -2 
C 43.59375 -2 50.203125 -0.203125 56.296875 2.875 
z
" id="CMSS17-71"/>
     </defs>
     <use transform="scale(0.996264)" xlink:href="#CMSS17-116"/>
     <use transform="translate(33.831567 0)scale(0.996264)" xlink:href="#CMSS17-108"/>
     <use transform="translate(56.01229 0)scale(0.996264)" xlink:href="#CMSS17-49"/>
     <use transform="translate(102.855913 0)scale(0.996264)" xlink:href="#CMSS17-52"/>
     <use transform="translate(149.699537 0)scale(0.996264)" xlink:href="#CMSS17-45"/>
     <use transform="translate(180.92865 0)scale(0.996264)" xlink:href="#CMSS17-68"/>
     <use transform="translate(248.471491 0)scale(0.996264)" xlink:href="#CMSS17-48"/>
     <use transform="translate(295.315115 0)scale(0.996264)" xlink:href="#CMSS17-53"/>
     <use transform="translate(342.158738 0)scale(0.996264)" xlink:href="#CMSS17-45"/>
     <use transform="translate(373.387851 0)scale(0.996264)" xlink:href="#CMSS17-71"/>
     <use transform="translate(435.846076 0)scale(0.996264)" xlink:href="#CMSS17-48"/>
     <use transform="translate(482.6897 0)scale(0.996264)" xlink:href="#CMSS17-48"/>
     <use transform="translate(529.533324 0)scale(0.996264)" xlink:href="#CMSS17-53"/>
    </g>
   </g>
   <g id="PathCollection_1">
    <path clip-path="url(#pc438091e9a)" d="M 117.897722 151.24354 
C 118.835356 151.24354 119.734714 150.871014 120.397722 150.208006 
C 121.060729 149.544998 121.433255 148.64564 121.433255 147.708006 
C 121.433255 146.770371 121.060729 145.871014 120.397722 145.208006 
C 119.734714 144.544998 118.835356 144.172472 117.897722 144.172472 
C 116.960087 144.172472 116.060729 144.544998 115.397722 145.208006 
C 114.734714 145.871014 114.362188 146.770371 114.362188 147.708006 
C 114.362188 148.64564 114.734714 149.544998 115.397722 150.208006 
C 116.060729 150.871014 116.960087 151.24354 117.897722 151.24354 
z
" style="fill:none;stroke:#01ff6b;stroke-opacity:0.4;"/>
   </g>
   <g id="PathCollection_2">
    <path clip-path="url(#pc438091e9a)" d="M 93.399494 147.857506 
C 94.337128 147.857506 95.236486 147.48498 95.899494 146.821972 
C 96.562501 146.158965 96.935028 145.259607 96.935028 144.321972 
C 96.935028 143.384338 96.562501 142.48498 95.899494 141.821972 
C 95.236486 141.158965 94.337128 140.786439 93.399494 140.786439 
C 92.461859 140.786439 91.562501 141.158965 90.899494 141.821972 
C 90.236486 142.48498 89.86396 143.384338 89.86396 144.321972 
C 89.86396 145.259607 90.236486 146.158965 90.899494 146.821972 
C 91.562501 147.48498 92.461859 147.857506 93.399494 147.857506 
z
" style="fill:none;stroke:#01ff6b;stroke-opacity:0.4;"/>
   </g>
   <g id="PathCollection_3">
    <path clip-path="url(#pc438091e9a)" d="M 138.721215 147.752513 
C 139.65885 147.752513 140.558207 147.379987 141.221215 146.716979 
C 141.884223 146.053971 142.256749 145.154614 142.256749 144.216979 
C 142.256749 143.279345 141.884223 142.379987 141.221215 141.716979 
C 140.558207 141.053971 139.65885 140.681445 138.721215 140.681445 
C 137.783581 140.681445 136.884223 141.053971 136.221215 141.716979 
C 135.558207 142.379987 135.185681 143.279345 135.185681 144.216979 
C 135.185681 145.154614 135.558207 146.053971 136.221215 146.716979 
C 136.884223 147.379987 137.783581 147.752513 138.721215 147.752513 
z
" style="fill:none;stroke:#01ff6b;stroke-opacity:0.4;"/>
   </g>
   <g id="PathCollection_4">
    <path clip-path="url(#pc438091e9a)" d="M 114.222987 148.408721 
C 115.160622 148.408721 116.05998 148.036195 116.722987 147.373187 
C 117.385995 146.710179 117.758521 145.810822 117.758521 144.873187 
C 117.758521 143.935553 117.385995 143.036195 116.722987 142.373187 
C 116.05998 141.710179 115.160622 141.337653 114.222987 141.337653 
C 113.285353 141.337653 112.385995 141.710179 111.722987 142.373187 
C 111.05998 143.036195 110.687453 143.935553 110.687453 144.873187 
C 110.687453 145.810822 111.05998 146.710179 111.722987 147.373187 
C 112.385995 148.036195 113.285353 148.408721 114.222987 148.408721 
z
" style="fill:none;stroke:#01ff6b;stroke-opacity:0.4;"/>
   </g>
   <g id="PathCollection_5">
    <path clip-path="url(#pc438091e9a)" d="M 186.492759 145.127681 
C 187.430394 145.127681 188.329752 144.755155 188.992759 144.092147 
C 189.655767 143.429139 190.028293 142.529782 190.028293 141.592147 
C 190.028293 140.654513 189.655767 139.755155 188.992759 139.092147 
C 188.329752 138.429139 187.430394 138.056613 186.492759 138.056613 
C 185.555125 138.056613 184.655767 138.429139 183.992759 139.092147 
C 183.329752 139.755155 182.957226 140.654513 182.957226 141.592147 
C 182.957226 142.529782 183.329752 143.429139 183.992759 144.092147 
C 184.655767 144.755155 185.555125 145.127681 186.492759 145.127681 
z
" style="fill:none;stroke:#01ff6b;stroke-opacity:0.4;"/>
   </g>
   <g id="PathCollection_6">
    <path clip-path="url(#pc438091e9a)" d="M 214.665722 145.941379 
C 215.603356 145.941379 216.502714 145.568853 217.165722 144.905845 
C 217.828729 144.242837 218.201255 143.34348 218.201255 142.405845 
C 218.201255 141.468211 217.828729 140.568853 217.165722 139.905845 
C 216.502714 139.242837 215.603356 138.870311 214.665722 138.870311 
C 213.728087 138.870311 212.828729 139.242837 212.165722 139.905845 
C 211.502714 140.568853 211.130188 141.468211 211.130188 142.405845 
C 211.130188 143.34348 211.502714 144.242837 212.165722 144.905845 
C 212.828729 145.568853 213.728087 145.941379 214.665722 145.941379 
z
" style="fill:none;stroke:#01ff6b;stroke-opacity:0.4;"/>
   </g>
   <g id="PathCollection_7">
    <path clip-path="url(#pc438091e9a)" d="M 240.388861 149.327412 
C 241.326495 149.327412 242.225853 148.954886 242.888861 148.291878 
C 243.551869 147.628871 243.924395 146.729513 243.924395 145.791878 
C 243.924395 144.854244 243.551869 143.954886 242.888861 143.291878 
C 242.225853 142.628871 241.326495 142.256344 240.388861 142.256344 
C 239.451226 142.256344 238.551869 142.628871 237.888861 143.291878 
C 237.225853 143.954886 236.853327 144.854244 236.853327 145.791878 
C 236.853327 146.729513 237.225853 147.628871 237.888861 148.291878 
C 238.551869 148.954886 239.451226 149.327412 240.388861 149.327412 
z
" style="fill:none;stroke:#01ff6b;stroke-opacity:0.4;"/>
   </g>
   <g id="PathCollection_8">
    <path clip-path="url(#pc438091e9a)" d="M 160.76962 144.025252 
C 161.707255 144.025252 162.606613 143.652726 163.26962 142.989718 
C 163.932628 142.32671 164.305154 141.427352 164.305154 140.489718 
C 164.305154 139.552083 163.932628 138.652726 163.26962 137.989718 
C 162.606613 137.32671 161.707255 136.954184 160.76962 136.954184 
C 159.831986 136.954184 158.932628 137.32671 158.26962 137.989718 
C 157.606613 138.652726 157.234086 139.552083 157.234086 140.489718 
C 157.234086 141.427352 157.606613 142.32671 158.26962 142.989718 
C 158.932628 143.652726 159.831986 144.025252 160.76962 144.025252 
z
" style="fill:none;stroke:#01ff6b;stroke-opacity:0.4;"/>
   </g>
   <g id="PathCollection_9">
    <path clip-path="url(#pc438091e9a)" d="M 204.86643 178.200564 
C 205.804065 178.200564 206.703423 177.828038 207.36643 177.16503 
C 208.029438 176.502023 208.401964 175.602665 208.401964 174.66503 
C 208.401964 173.727396 208.029438 172.828038 207.36643 172.16503 
C 206.703423 171.502023 205.804065 171.129496 204.86643 171.129496 
C 203.928796 171.129496 203.029438 171.502023 202.36643 172.16503 
C 201.703423 172.828038 201.330896 173.727396 201.330896 174.66503 
C 201.330896 175.602665 201.703423 176.502023 202.36643 177.16503 
C 203.029438 177.828038 203.928796 178.200564 204.86643 178.200564 
z
" style="fill:none;stroke:#01ff6b;stroke-opacity:0.4;"/>
   </g>
   <g id="PathCollection_10">
    <path clip-path="url(#pc438091e9a)" d="M 206.091342 151.584768 
C 207.028976 151.584768 207.928334 151.212242 208.591342 150.549234 
C 209.25435 149.886226 209.626876 148.986868 209.626876 148.049234 
C 209.626876 147.111599 209.25435 146.212242 208.591342 145.549234 
C 207.928334 144.886226 207.028976 144.5137 206.091342 144.5137 
C 205.153707 144.5137 204.25435 144.886226 203.591342 145.549234 
C 202.928334 146.212242 202.555808 147.111599 202.555808 148.049234 
C 202.555808 148.986868 202.928334 149.886226 203.591342 150.549234 
C 204.25435 151.212242 205.153707 151.584768 206.091342 151.584768 
z
" style="fill:none;stroke:#01ff6b;stroke-opacity:0.4;"/>
   </g>
   <g id="PathCollection_11">
    <path clip-path="url(#pc438091e9a)" d="M 236.714127 150.823567 
C 237.651761 150.823567 238.551119 150.45104 239.214127 149.788033 
C 239.877134 149.125025 240.24966 148.225667 240.24966 147.288033 
C 240.24966 146.350398 239.877134 145.45104 239.214127 144.788033 
C 238.551119 144.125025 237.651761 143.752499 236.714127 143.752499 
C 235.776492 143.752499 234.877134 144.125025 234.214127 144.788033 
C 233.551119 145.45104 233.178593 146.350398 233.178593 147.288033 
C 233.178593 148.225667 233.551119 149.125025 234.214127 149.788033 
C 234.877134 150.45104 235.776492 150.823567 236.714127 150.823567 
z
" style="fill:none;stroke:#01ff6b;stroke-opacity:0.4;"/>
   </g>
   <g id="PathCollection_12">
    <path clip-path="url(#pc438091e9a)" d="M 199.966785 144.943943 
C 200.904419 144.943943 201.803777 144.571417 202.466785 143.908409 
C 203.129793 143.245401 203.502319 142.346044 203.502319 141.408409 
C 203.502319 140.470774 203.129793 139.571417 202.466785 138.908409 
C 201.803777 138.245401 200.904419 137.872875 199.966785 137.872875 
C 199.02915 137.872875 198.129793 138.245401 197.466785 138.908409 
C 196.803777 139.571417 196.431251 140.470774 196.431251 141.408409 
C 196.431251 142.346044 196.803777 143.245401 197.466785 143.908409 
C 198.129793 144.571417 199.02915 144.943943 199.966785 144.943943 
z
" style="fill:none;stroke:#01ff6b;stroke-opacity:0.4;"/>
   </g>
   <g id="PathCollection_13">
    <path clip-path="url(#pc438091e9a)" d="M 223.240101 163.685243 
C 224.177736 163.685243 225.077094 163.312717 225.740101 162.649709 
C 226.403109 161.986702 226.775635 161.087344 226.775635 160.149709 
C 226.775635 159.212075 226.403109 158.312717 225.740101 157.649709 
C 225.077094 156.986702 224.177736 156.614176 223.240101 156.614176 
C 222.302467 156.614176 221.403109 156.986702 220.740101 157.649709 
C 220.077094 158.312717 219.704567 159.212075 219.704567 160.149709 
C 219.704567 161.087344 220.077094 161.986702 220.740101 162.649709 
C 221.403109 163.312717 222.302467 163.685243 223.240101 163.685243 
z
" style="fill:none;stroke:#01ff6b;stroke-opacity:0.4;"/>
   </g>
   <g id="PathCollection_14">
    <path clip-path="url(#pc438091e9a)" d="M 262.437266 160.797928 
C 263.3749 160.797928 264.274258 160.425402 264.937266 159.762394 
C 265.600274 159.099386 265.9728 158.200029 265.9728 157.262394 
C 265.9728 156.32476 265.600274 155.425402 264.937266 154.762394 
C 264.274258 154.099386 263.3749 153.72686 262.437266 153.72686 
C 261.499631 153.72686 260.600274 154.099386 259.937266 154.762394 
C 259.274258 155.425402 258.901732 156.32476 258.901732 157.262394 
C 258.901732 158.200029 259.274258 159.099386 259.937266 159.762394 
C 260.600274 160.425402 261.499631 160.797928 262.437266 160.797928 
z
" style="fill:none;stroke:#01ff6b;stroke-opacity:0.4;"/>
   </g>
   <g id="PathCollection_15">
    <path clip-path="url(#pc438091e9a)" d="M 207.316253 146.571339 
C 208.253888 146.571339 209.153245 146.198813 209.816253 145.535805 
C 210.479261 144.872797 210.851787 143.973439 210.851787 143.035805 
C 210.851787 142.09817 210.479261 141.198813 209.816253 140.535805 
C 209.153245 139.872797 208.253888 139.500271 207.316253 139.500271 
C 206.378619 139.500271 205.479261 139.872797 204.816253 140.535805 
C 204.153245 141.198813 203.780719 142.09817 203.780719 143.035805 
C 203.780719 143.973439 204.153245 144.872797 204.816253 145.535805 
C 205.479261 146.198813 206.378619 146.571339 207.316253 146.571339 
z
" style="fill:none;stroke:#01ff6b;stroke-opacity:0.4;"/>
   </g>
   <g id="PathCollection_16">
    <path clip-path="url(#pc438091e9a)" d="M 209.766076 148.172486 
C 210.703711 148.172486 211.603068 147.79996 212.266076 147.136952 
C 212.929084 146.473945 213.30161 145.574587 213.30161 144.636952 
C 213.30161 143.699318 212.929084 142.79996 212.266076 142.136952 
C 211.603068 141.473945 210.703711 141.101418 209.766076 141.101418 
C 208.828441 141.101418 207.929084 141.473945 207.266076 142.136952 
C 206.603068 142.79996 206.230542 143.699318 206.230542 144.636952 
C 206.230542 145.574587 206.603068 146.473945 207.266076 147.136952 
C 207.929084 147.79996 208.828441 148.172486 209.766076 148.172486 
z
" style="fill:none;stroke:#01ff6b;stroke-opacity:0.4;"/>
   </g>
   <g id="PathCollection_17">
    <path clip-path="url(#pc438091e9a)" d="M 242.838684 168.436189 
C 243.776318 168.436189 244.675676 168.063663 245.338684 167.400655 
C 246.001691 166.737648 246.374217 165.83829 246.374217 164.900655 
C 246.374217 163.963021 246.001691 163.063663 245.338684 162.400655 
C 244.675676 161.737648 243.776318 161.365121 242.838684 161.365121 
C 241.901049 161.365121 241.001691 161.737648 240.338684 162.400655 
C 239.675676 163.063663 239.30315 163.963021 239.30315 164.900655 
C 239.30315 165.83829 239.675676 166.737648 240.338684 167.400655 
C 241.001691 168.063663 241.901049 168.436189 242.838684 168.436189 
z
" style="fill:none;stroke:#01ff6b;stroke-opacity:0.4;"/>
   </g>
   <g id="PathCollection_18">
    <path clip-path="url(#pc438091e9a)" d="M 269.786734 180.326678 
C 270.724369 180.326678 271.623726 179.954152 272.286734 179.291144 
C 272.949742 178.628137 273.322268 177.728779 273.322268 176.791144 
C 273.322268 175.85351 272.949742 174.954152 272.286734 174.291144 
C 271.623726 173.628137 270.724369 173.25561 269.786734 173.25561 
C 268.8491 173.25561 267.949742 173.628137 267.286734 174.291144 
C 266.623726 174.954152 266.2512 175.85351 266.2512 176.791144 
C 266.2512 177.728779 266.623726 178.628137 267.286734 179.291144 
C 267.949742 179.954152 268.8491 180.326678 269.786734 180.326678 
z
" style="fill:none;stroke:#01ff6b;stroke-opacity:0.4;"/>
   </g>
   <g id="PathCollection_19">
    <path clip-path="url(#pc438091e9a)" d="M 250.188152 145.101433 
C 251.125786 145.101433 252.025144 144.728907 252.688152 144.065899 
C 253.35116 143.402891 253.723686 142.503533 253.723686 141.565899 
C 253.723686 140.628264 253.35116 139.728907 252.688152 139.065899 
C 252.025144 138.402891 251.125786 138.030365 250.188152 138.030365 
C 249.250517 138.030365 248.35116 138.402891 247.688152 139.065899 
C 247.025144 139.728907 246.652618 140.628264 246.652618 141.565899 
C 246.652618 142.503533 247.025144 143.402891 247.688152 144.065899 
C 248.35116 144.728907 249.250517 145.101433 250.188152 145.101433 
z
" style="fill:none;stroke:#01ff6b;stroke-opacity:0.4;"/>
   </g>
   <g id="PathCollection_20">
    <path clip-path="url(#pc438091e9a)" d="M 262.437266 146.650084 
C 263.3749 146.650084 264.274258 146.277558 264.937266 145.61455 
C 265.600274 144.951542 265.9728 144.052184 265.9728 143.11455 
C 265.9728 142.176915 265.600274 141.277558 264.937266 140.61455 
C 264.274258 139.951542 263.3749 139.579016 262.437266 139.579016 
C 261.499631 139.579016 260.600274 139.951542 259.937266 140.61455 
C 259.274258 141.277558 258.901732 142.176915 258.901732 143.11455 
C 258.901732 144.052184 259.274258 144.951542 259.937266 145.61455 
C 260.600274 146.277558 261.499631 146.650084 262.437266 146.650084 
z
" style="fill:none;stroke:#01ff6b;stroke-opacity:0.4;"/>
   </g>
   <g id="PathCollection_21">
    <path clip-path="url(#pc438091e9a)" d="M 361.655089 167.045028 
C 362.592723 167.045028 363.492081 166.672502 364.155089 166.009494 
C 364.818096 165.346487 365.190623 164.447129 365.190623 163.509494 
C 365.190623 162.57186 364.818096 161.672502 364.155089 161.009494 
C 363.492081 160.346487 362.592723 159.97396 361.655089 159.97396 
C 360.717454 159.97396 359.818096 160.346487 359.155089 161.009494 
C 358.492081 161.672502 358.119555 162.57186 358.119555 163.509494 
C 358.119555 164.447129 358.492081 165.346487 359.155089 166.009494 
C 359.818096 166.672502 360.717454 167.045028 361.655089 167.045028 
z
" style="fill:none;stroke:#01ff6b;stroke-opacity:0.4;"/>
   </g>
   <g id="PathCollection_22">
    <path clip-path="url(#pc438091e9a)" d="M 308.983899 152.897184 
C 309.921533 152.897184 310.820891 152.524658 311.483899 151.86165 
C 312.146906 151.198642 312.519433 150.299284 312.519433 149.36165 
C 312.519433 148.424015 312.146906 147.524658 311.483899 146.86165 
C 310.820891 146.198642 309.921533 145.826116 308.983899 145.826116 
C 308.046264 145.826116 307.146906 146.198642 306.483899 146.86165 
C 305.820891 147.524658 305.448365 148.424015 305.448365 149.36165 
C 305.448365 150.299284 305.820891 151.198642 306.483899 151.86165 
C 307.146906 152.524658 308.046264 152.897184 308.983899 152.897184 
z
" style="fill:none;stroke:#01ff6b;stroke-opacity:0.4;"/>
   </g>
   <g id="PathCollection_23">
    <path clip-path="url(#pc438091e9a)" d="M 299.184608 143.89401 
C 300.122242 143.89401 301.0216 143.521484 301.684608 142.858476 
C 302.347615 142.195468 302.720142 141.296111 302.720142 140.358476 
C 302.720142 139.420842 302.347615 138.521484 301.684608 137.858476 
C 301.0216 137.195468 300.122242 136.822942 299.184608 136.822942 
C 298.246973 136.822942 297.347615 137.195468 296.684608 137.858476 
C 296.0216 138.521484 295.649074 139.420842 295.649074 140.358476 
C 295.649074 141.296111 296.0216 142.195468 296.684608 142.858476 
C 297.347615 143.521484 298.246973 143.89401 299.184608 143.89401 
z
" style="fill:none;stroke:#01ff6b;stroke-opacity:0.4;"/>
   </g>
   <g id="PathCollection_24">
    <path clip-path="url(#pc438091e9a)" d="M 329.807392 148.067493 
C 330.745027 148.067493 331.644385 147.694967 332.307392 147.031959 
C 332.9704 146.368951 333.342926 145.469594 333.342926 144.531959 
C 333.342926 143.594324 332.9704 142.694967 332.307392 142.031959 
C 331.644385 141.368951 330.745027 140.996425 329.807392 140.996425 
C 328.869758 140.996425 327.9704 141.368951 327.307392 142.031959 
C 326.644385 142.694967 326.271858 143.594324 326.271858 144.531959 
C 326.271858 145.469594 326.644385 146.368951 327.307392 147.031959 
C 327.9704 147.694967 328.869758 148.067493 329.807392 148.067493 
z
" style="fill:none;stroke:#01ff6b;stroke-opacity:0.4;"/>
   </g>
   <g id="PathCollection_25">
    <path clip-path="url(#pc438091e9a)" d="M 361.655089 157.044418 
C 362.592723 157.044418 363.492081 156.671892 364.155089 156.008884 
C 364.818096 155.345877 365.190623 154.446519 365.190623 153.508884 
C 365.190623 152.57125 364.818096 151.671892 364.155089 151.008884 
C 363.492081 150.345877 362.592723 149.973351 361.655089 149.973351 
C 360.717454 149.973351 359.818096 150.345877 359.155089 151.008884 
C 358.492081 151.671892 358.119555 152.57125 358.119555 153.508884 
C 358.119555 154.446519 358.492081 155.345877 359.155089 156.008884 
C 359.818096 156.671892 360.717454 157.044418 361.655089 157.044418 
z
" style="fill:none;stroke:#01ff6b;stroke-opacity:0.4;"/>
   </g>
   <g id="PathCollection_26">
    <path clip-path="url(#pc438091e9a)" d="M 360.430177 150.167359 
C 361.367812 150.167359 362.267169 149.794832 362.930177 149.131825 
C 363.593185 148.468817 363.965711 147.569459 363.965711 146.631825 
C 363.965711 145.69419 363.593185 144.794832 362.930177 144.131825 
C 362.267169 143.468817 361.367812 143.096291 360.430177 143.096291 
C 359.492543 143.096291 358.593185 143.468817 357.930177 144.131825 
C 357.267169 144.794832 356.894643 145.69419 356.894643 146.631825 
C 356.894643 147.569459 357.267169 148.468817 357.930177 149.131825 
C 358.593185 149.794832 359.492543 150.167359 360.430177 150.167359 
z
" style="fill:none;stroke:#01ff6b;stroke-opacity:0.4;"/>
   </g>
   <g id="PathCollection_27">
    <path clip-path="url(#pc438091e9a)" d="M 361.655089 148.592459 
C 362.592723 148.592459 363.492081 148.219933 364.155089 147.556925 
C 364.818096 146.893918 365.190623 145.99456 365.190623 145.056925 
C 365.190623 144.119291 364.818096 143.219933 364.155089 142.556925 
C 363.492081 141.893918 362.592723 141.521392 361.655089 141.521392 
C 360.717454 141.521392 359.818096 141.893918 359.155089 142.556925 
C 358.492081 143.219933 358.119555 144.119291 358.119555 145.056925 
C 358.119555 145.99456 358.492081 146.893918 359.155089 147.556925 
C 359.818096 148.219933 360.717454 148.592459 361.655089 148.592459 
z
" style="fill:none;stroke:#01ff6b;stroke-opacity:0.4;"/>
   </g>
  </g>
 </g>
 <defs>
  <clipPath id="pc438091e9a">
   <rect height="211.68" width="290.304" x="72.576" y="30.24"/>
  </clipPath>
 </defs>
</svg>
