<?xml version="1.0" encoding="utf-8" standalone="no"?>
<!DOCTYPE svg PUBLIC "-//W3C//DTD SVG 1.1//EN"
  "http://www.w3.org/Graphics/SVG/1.1/DTD/svg11.dtd">
<!-- Created with matplotlib (https://matplotlib.org/) -->
<svg height="302.4pt" version="1.1" viewBox="0 0 295.2 302.4" width="295.2pt" xmlns="http://www.w3.org/2000/svg" xmlns:xlink="http://www.w3.org/1999/xlink">
 <metadata>
  <rdf:RDF xmlns:cc="http://creativecommons.org/ns#" xmlns:dc="http://purl.org/dc/elements/1.1/" xmlns:rdf="http://www.w3.org/1999/02/22-rdf-syntax-ns#">
   <cc:Work>
    <dc:type rdf:resource="http://purl.org/dc/dcmitype/StillImage"/>
    <dc:date>2021-12-23T23:52:46.487197</dc:date>
    <dc:format>image/svg+xml</dc:format>
    <dc:creator>
     <cc:Agent>
      <dc:title>Matplotlib v3.3.4, https://matplotlib.org/</dc:title>
     </cc:Agent>
    </dc:creator>
   </cc:Work>
  </rdf:RDF>
 </metadata>
 <defs>
  <style type="text/css">*{stroke-linecap:butt;stroke-linejoin:round;}</style>
 </defs>
 <g id="figure_1">
  <g id="patch_1">
   <path d="M 0 302.4 
L 295.2 302.4 
L 295.2 0 
L 0 0 
z
" style="fill:#ffffff;"/>
  </g>
  <g id="axes_1">
   <g id="patch_2">
    <path d="M 72 241.92 
L 223.2 241.92 
L 223.2 30.24 
L 72 30.24 
z
" style="fill:#ffffff;"/>
   </g>
   <g id="patch_3">
    <path clip-path="url(#p36c2cce45f)" d="M 72 161.28 
L 234 161.28 
L 234 30.24 
L 72 30.24 
z
" style="fill:#01ff6b;opacity:0.12;stroke:#01ff6b;stroke-linejoin:miter;"/>
   </g>
   <g id="patch_4">
    <path clip-path="url(#p36c2cce45f)" d="M 72 161.28 
L 234 161.28 
L 234 241.92 
L 72 241.92 
z
" style="fill:#c22121;opacity:0.12;stroke:#c22121;stroke-linejoin:miter;"/>
   </g>
   <g id="matplotlib.axis_1">
    <g id="xtick_1">
     <g id="text_1">
      <!-- 0 -->
      <g transform="translate(95.971347 263.688032)rotate(-45)scale(0.18 -0.18)">
       <defs>
        <path d="M 43.09375 31.9375 
C 43.09375 37.578125 43 48.078125 38.90625 56.1875 
C 34.796875 64 28.203125 66.078125 23.5 66.078125 
C 16.703125 66.078125 10.90625 62.109375 7.90625 55.78125 
C 4.703125 49.15625 3.796875 42.328125 3.796875 31.9375 
C 3.796875 24.828125 4.09375 16.109375 7.703125 8.484375 
C 11.796875 0.078125 18.703125 -2 23.40625 -2 
C 29.59375 -2 35.59375 1.265625 39 8.09375 
C 42.5 15.21875 43.09375 23.03125 43.09375 31.9375 
z
M 23.40625 4.078125 
C 15.796875 4.078125 13.5 12.671875 12.796875 15.546875 
C 11.59375 20.46875 11.40625 25.21875 11.40625 33.03125 
C 11.40625 39.15625 11.40625 46.0625 13.296875 51.515625 
C 15.59375 57.828125 19.59375 60 23.40625 60 
C 30.796875 60 33.203125 52.6875 34 50.125 
C 35.5 44.890625 35.5 38.765625 35.5 33.03125 
C 35.5 23.84375 35.5 4.078125 23.40625 4.078125 
z
" id="CMSS17-48"/>
       </defs>
       <use transform="scale(0.996264)" xlink:href="#CMSS17-48"/>
      </g>
     </g>
    </g>
    <g id="xtick_2">
     <g id="text_2">
      <!-- 1 -->
      <g transform="translate(139.171347 263.688032)rotate(-45)scale(0.18 -0.18)">
       <defs>
        <path d="M 28.40625 67 
L 26.5 67 
C 21.09375 61.5625 14.796875 60.78125 8.40625 60.78125 
L 8.40625 55 
C 11.296875 55 16 55 20.703125 57.296875 
L 20.703125 5.765625 
L 8.90625 5.765625 
L 8.90625 0 
L 40.203125 0 
L 40.203125 5.765625 
L 28.40625 5.765625 
z
" id="CMSS17-49"/>
       </defs>
       <use transform="scale(0.996264)" xlink:href="#CMSS17-49"/>
      </g>
     </g>
    </g>
    <g id="xtick_3">
     <g id="text_3">
      <!-- 3 -->
      <g transform="translate(182.371347 263.688032)rotate(-45)scale(0.18 -0.18)">
       <defs>
        <path d="M 15.703125 31.640625 
L 22.5 31.640625 
C 31.90625 31.640625 34.59375 23.546875 34.59375 17.90625 
C 34.59375 10.203125 30.203125 4.171875 23 4.171875 
C 17.40625 4.171875 9.5 6.9375 5 14.25 
C 4.296875 10.796875 4.296875 10.59375 3.90625 8.21875 
C 8.59375 1.375 16.203125 -2 23.203125 -2 
C 34.59375 -2 43 7.390625 43 17.78125 
C 43 25.59375 37.5 32.140625 30 34.609375 
C 36 37.875 40.40625 44 40.40625 51.140625 
C 40.40625 59.453125 32.703125 66.078125 23.296875 66.078125 
C 14.703125 66.078125 8 60.8125 5.203125 55.15625 
C 5.90625 54.1875 7.703125 51.3125 8.59375 49.828125 
C 10.796875 55.65625 16.5 60 23.203125 60 
C 28.796875 60 32.5 56.359375 32.5 51.109375 
C 32.5 45.671875 29 39.734375 23.09375 38.359375 
C 22.703125 38.359375 16.5 37.765625 15.703125 37.671875 
z
" id="CMSS17-51"/>
       </defs>
       <use transform="scale(0.996264)" xlink:href="#CMSS17-51"/>
      </g>
     </g>
    </g>
   </g>
   <g id="matplotlib.axis_2">
    <g id="ytick_1">
     <g id="line2d_1">
      <path clip-path="url(#p36c2cce45f)" d="M 72 221.76 
L 223.2 221.76 
" style="fill:none;stroke:#b0b0b0;stroke-linecap:square;stroke-opacity:0.6;stroke-width:0.7;"/>
     </g>
     <g id="line2d_2">
      <defs>
       <path d="M 0 0 
L -3.5 0 
" id="m572feb1665" style="stroke:#000000;stroke-width:0.8;"/>
      </defs>
      <g>
       <use style="stroke:#000000;stroke-width:0.8;" x="72" xlink:href="#m572feb1665" y="221.76"/>
      </g>
     </g>
     <g id="text_4">
      <!-- 0.6 -->
      <g transform="translate(46.926206 226.775904)scale(0.145 -0.145)">
       <defs>
        <path d="M 17 7.96875 
L 9 7.96875 
L 9 0 
L 17 0 
z
" id="CMSS17-46"/>
        <path d="M 39 64.078125 
C 34.796875 65.78125 31.796875 66.078125 29 66.078125 
C 16 66.078125 3.90625 52.625 3.90625 31.34375 
C 3.90625 4.140625 15.40625 -2 23.59375 -2 
C 28.09375 -2 32.59375 -0.609375 36.90625 4.375 
C 41.296875 9.640625 43 14.03125 43 21.703125 
C 43 34.046875 36.90625 45 27.796875 45 
C 21.203125 45 15.5 41.515625 12 37.125 
C 13 50.90625 19.59375 60 29.09375 60 
C 31.703125 60 35.09375 59.625 39 57.96875 
z
M 12.09375 21.390625 
C 12.09375 22.1875 12.09375 22.6875 12.203125 24.1875 
C 12.203125 31.953125 16.703125 38.921875 24 38.921875 
C 28.703125 38.921875 31.09375 36.4375 32.90625 33.359375 
C 35 29.46875 35.09375 25.78125 35.09375 21.6875 
C 35.09375 17.8125 35.09375 13.921875 32.796875 9.953125 
C 30.90625 6.859375 28.40625 4.171875 23.59375 4.171875 
C 14.09375 4.171875 12.5 17.40625 12.09375 21.390625 
z
" id="CMSS17-54"/>
       </defs>
       <use transform="scale(0.996264)" xlink:href="#CMSS17-48"/>
       <use transform="translate(46.843624 0)scale(0.996264)" xlink:href="#CMSS17-46"/>
       <use transform="translate(72.867828 0)scale(0.996264)" xlink:href="#CMSS17-54"/>
      </g>
     </g>
    </g>
    <g id="ytick_2">
     <g id="line2d_3">
      <path clip-path="url(#p36c2cce45f)" d="M 72 191.52 
L 223.2 191.52 
" style="fill:none;stroke:#b0b0b0;stroke-linecap:square;stroke-opacity:0.6;stroke-width:0.7;"/>
     </g>
     <g id="line2d_4">
      <g>
       <use style="stroke:#000000;stroke-width:0.8;" x="72" xlink:href="#m572feb1665" y="191.52"/>
      </g>
     </g>
     <g id="text_5">
      <!-- 0.3 -->
      <g transform="translate(46.926206 196.535904)scale(0.145 -0.145)">
       <use transform="scale(0.996264)" xlink:href="#CMSS17-48"/>
       <use transform="translate(46.843624 0)scale(0.996264)" xlink:href="#CMSS17-46"/>
       <use transform="translate(72.867828 0)scale(0.996264)" xlink:href="#CMSS17-51"/>
      </g>
     </g>
    </g>
    <g id="ytick_3">
     <g id="line2d_5">
      <path clip-path="url(#p36c2cce45f)" d="M 72 161.28 
L 223.2 161.28 
" style="fill:none;stroke:#b0b0b0;stroke-linecap:square;stroke-opacity:0.6;stroke-width:0.7;"/>
     </g>
     <g id="line2d_6">
      <g>
       <use style="stroke:#000000;stroke-width:0.8;" x="72" xlink:href="#m572feb1665" y="161.28"/>
      </g>
     </g>
     <g id="text_6">
      <!-- 0.0 -->
      <g transform="translate(46.926206 166.295904)scale(0.145 -0.145)">
       <use transform="scale(0.996264)" xlink:href="#CMSS17-48"/>
       <use transform="translate(46.843624 0)scale(0.996264)" xlink:href="#CMSS17-46"/>
       <use transform="translate(72.867828 0)scale(0.996264)" xlink:href="#CMSS17-48"/>
      </g>
     </g>
    </g>
    <g id="ytick_4">
     <g id="line2d_7">
      <path clip-path="url(#p36c2cce45f)" d="M 72 131.04 
L 223.2 131.04 
" style="fill:none;stroke:#b0b0b0;stroke-linecap:square;stroke-opacity:0.6;stroke-width:0.7;"/>
     </g>
     <g id="line2d_8">
      <g>
       <use style="stroke:#000000;stroke-width:0.8;" x="72" xlink:href="#m572feb1665" y="131.04"/>
      </g>
     </g>
     <g id="text_7">
      <!-- 0.3 -->
      <g transform="translate(46.926206 136.055904)scale(0.145 -0.145)">
       <use transform="scale(0.996264)" xlink:href="#CMSS17-48"/>
       <use transform="translate(46.843624 0)scale(0.996264)" xlink:href="#CMSS17-46"/>
       <use transform="translate(72.867828 0)scale(0.996264)" xlink:href="#CMSS17-51"/>
      </g>
     </g>
    </g>
    <g id="ytick_5">
     <g id="line2d_9">
      <path clip-path="url(#p36c2cce45f)" d="M 72 100.8 
L 223.2 100.8 
" style="fill:none;stroke:#b0b0b0;stroke-linecap:square;stroke-opacity:0.6;stroke-width:0.7;"/>
     </g>
     <g id="line2d_10">
      <g>
       <use style="stroke:#000000;stroke-width:0.8;" x="72" xlink:href="#m572feb1665" y="100.8"/>
      </g>
     </g>
     <g id="text_8">
      <!-- 0.6 -->
      <g transform="translate(46.926206 105.815904)scale(0.145 -0.145)">
       <use transform="scale(0.996264)" xlink:href="#CMSS17-48"/>
       <use transform="translate(46.843624 0)scale(0.996264)" xlink:href="#CMSS17-46"/>
       <use transform="translate(72.867828 0)scale(0.996264)" xlink:href="#CMSS17-54"/>
      </g>
     </g>
    </g>
    <g id="ytick_6">
     <g id="line2d_11">
      <path clip-path="url(#p36c2cce45f)" d="M 72 60.48 
L 223.2 60.48 
" style="fill:none;stroke:#b0b0b0;stroke-linecap:square;stroke-opacity:0.6;stroke-width:0.7;"/>
     </g>
     <g id="line2d_12">
      <g>
       <use style="stroke:#000000;stroke-width:0.8;" x="72" xlink:href="#m572feb1665" y="60.48"/>
      </g>
     </g>
     <g id="text_9">
      <!-- 1.0 -->
      <g transform="translate(46.926206 65.495904)scale(0.145 -0.145)">
       <use transform="scale(0.996264)" xlink:href="#CMSS17-49"/>
       <use transform="translate(46.843624 0)scale(0.996264)" xlink:href="#CMSS17-46"/>
       <use transform="translate(72.867828 0)scale(0.996264)" xlink:href="#CMSS17-48"/>
      </g>
     </g>
    </g>
    <g id="text_10">
     <!-- n axons -->
     <g transform="translate(39.438142 162.928628)rotate(-90)scale(0.18 -0.18)">
      <defs>
       <path d="M 40.90625 29.328125 
C 40.90625 35.671875 39.40625 44 28.09375 44 
C 21.703125 44 17.5 40.71875 14.703125 37.328125 
L 14.703125 43.09375 
L 7.40625 43.09375 
L 7.40625 0 
L 15 0 
L 15 24.359375 
C 15 30.6875 17.40625 37.9375 24.203125 37.9375 
C 33 37.9375 33.296875 32 33.296875 28.578125 
L 33.296875 0 
L 40.90625 0 
z
" id="CMSS17-110"/>
       <path d="M 37.59375 27.984375 
C 37.59375 37.375 30.90625 43.875 21.90625 43.875 
C 17.5 43.875 12.703125 43.078125 7.203125 39.890625 
L 7.796875 33.359375 
C 10.296875 35.125 14.59375 38 21.796875 38 
C 26.90625 38 30 34.0625 30 27.84375 
L 30 24 
C 14 24 4 19.34375 4 11.34375 
C 4 7.203125 6.5 -1 14.796875 -1 
C 16.296875 -1 24.40625 -1 30.203125 3.390625 
L 30.203125 -0.296875 
L 37.59375 -0.296875 
z
M 30 12.75 
C 30 10.953125 30 8.5625 27 6.78125 
C 24.40625 5.078125 21.09375 5.078125 19.703125 5.078125 
C 14.703125 5.078125 11.296875 7.984375 11.296875 11.625 
C 11.296875 18.921875 26.90625 18.921875 30 18.921875 
z
" id="CMSS17-97"/>
       <path d="M 24.796875 22.09375 
L 41.5 42.796875 
L 32.796875 42.796875 
L 21.296875 27.765625 
L 9.40625 42.796875 
L 0.5 42.796875 
L 17.796875 22.09375 
L 0 0 
L 8.796875 0 
L 21.296875 17.515625 
L 34.296875 0 
L 43.09375 0 
z
" id="CMSS17-120"/>
       <path d="M 44.203125 21.1875 
C 44.203125 34 34.703125 44 23.5 44 
C 12 44 2.703125 33.703125 2.703125 21.1875 
C 2.703125 8.5 12.296875 -1 23.40625 -1 
C 34.796875 -1 44.203125 8.796875 44.203125 21.1875 
z
M 23.5 5.265625 
C 16.40625 5.265625 10.296875 11.078125 10.296875 22 
C 10.296875 33.609375 17.40625 37.921875 23.40625 37.921875 
C 29.90625 37.921875 36.59375 33.21875 36.59375 22 
C 36.59375 10.671875 30.09375 5.265625 23.5 5.265625 
z
" id="CMSS17-111"/>
       <path d="M 32.203125 41.046875 
C 26.296875 43.859375 21.703125 43.859375 18.703125 43.859375 
C 11.59375 43.859375 3.09375 41.375 3.09375 31.296875 
C 3.09375 21.234375 14.09375 19.03125 17.09375 18.421875 
C 21.703125 17.53125 26.796875 16.53125 26.796875 11.5625 
C 26.796875 5.265625 19.59375 5.265625 18.296875 5.265625 
C 14.296875 5.265625 8.796875 6.359375 3.796875 9.96875 
L 2.59375 3.28125 
C 8.296875 0 13.796875 -1 18.40625 -1 
C 30.703125 -1 33.796875 6.5 33.796875 12.203125 
C 33.796875 17.09375 31 20.390625 29.09375 21.890625 
C 25.796875 24.5 24.59375 24.796875 16.40625 26.5 
C 15 26.703125 10.09375 27.796875 10.09375 32.28125 
C 10.09375 38 16.40625 38 17.796875 38 
C 24.296875 38 28.296875 35.984375 31 34.5 
z
" id="CMSS17-115"/>
      </defs>
      <use transform="scale(0.996264)" xlink:href="#CMSS17-110"/>
      <use transform="translate(79.434056 0)scale(0.996264)" xlink:href="#CMSS17-97"/>
      <use transform="translate(124.355976 0)scale(0.996264)" xlink:href="#CMSS17-120"/>
      <use transform="translate(167.356118 0)scale(0.996264)" xlink:href="#CMSS17-111"/>
      <use transform="translate(214.199742 0)scale(0.996264)" xlink:href="#CMSS17-110"/>
      <use transform="translate(262.404685 0)scale(0.996264)" xlink:href="#CMSS17-115"/>
     </g>
    </g>
   </g>
   <g id="line2d_13">
    <path clip-path="url(#p36c2cce45f)" d="M 106.56 186.114783 
L 106.56 200.225455 
" style="fill:none;stroke:#000000;stroke-linecap:square;stroke-opacity:0.7;"/>
   </g>
   <g id="line2d_14">
    <path clip-path="url(#p36c2cce45f)" d="M 106.56 173.93 
L 106.56 164.041644 
" style="fill:none;stroke:#000000;stroke-linecap:square;stroke-opacity:0.7;"/>
   </g>
   <g id="line2d_15">
    <path clip-path="url(#p36c2cce45f)" d="M 101.376 200.225455 
L 111.744 200.225455 
" style="fill:none;stroke:#000000;stroke-linecap:square;stroke-opacity:0.7;"/>
   </g>
   <g id="line2d_16">
    <path clip-path="url(#p36c2cce45f)" d="M 101.376 164.041644 
L 111.744 164.041644 
" style="fill:none;stroke:#000000;stroke-linecap:square;stroke-opacity:0.7;"/>
   </g>
   <g id="line2d_17">
    <path clip-path="url(#p36c2cce45f)" d="M 149.76 185.674617 
L 149.76 211.68 
" style="fill:none;stroke:#000000;stroke-linecap:square;stroke-opacity:0.7;"/>
   </g>
   <g id="line2d_18">
    <path clip-path="url(#p36c2cce45f)" d="M 149.76 167.417419 
L 149.76 161.28 
" style="fill:none;stroke:#000000;stroke-linecap:square;stroke-opacity:0.7;"/>
   </g>
   <g id="line2d_19">
    <path clip-path="url(#p36c2cce45f)" d="M 144.576 211.68 
L 154.944 211.68 
" style="fill:none;stroke:#000000;stroke-linecap:square;stroke-opacity:0.7;"/>
   </g>
   <g id="line2d_20">
    <path clip-path="url(#p36c2cce45f)" d="M 144.576 161.28 
L 154.944 161.28 
" style="fill:none;stroke:#000000;stroke-linecap:square;stroke-opacity:0.7;"/>
   </g>
   <g id="line2d_21">
    <path clip-path="url(#p36c2cce45f)" d="M 192.96 181.674915 
L 192.96 191.825455 
" style="fill:none;stroke:#000000;stroke-linecap:square;stroke-opacity:0.7;"/>
   </g>
   <g id="line2d_22">
    <path clip-path="url(#p36c2cce45f)" d="M 192.96 163.884108 
L 192.96 161.28 
" style="fill:none;stroke:#000000;stroke-linecap:square;stroke-opacity:0.7;"/>
   </g>
   <g id="line2d_23">
    <path clip-path="url(#p36c2cce45f)" d="M 187.776 191.825455 
L 198.144 191.825455 
" style="fill:none;stroke:#000000;stroke-linecap:square;stroke-opacity:0.7;"/>
   </g>
   <g id="line2d_24">
    <path clip-path="url(#p36c2cce45f)" d="M 187.776 161.28 
L 198.144 161.28 
" style="fill:none;stroke:#000000;stroke-linecap:square;stroke-opacity:0.7;"/>
   </g>
   <g id="line2d_25">
    <path clip-path="url(#p36c2cce45f)" d="M 106.56 110.064089 
L 106.56 130.849811 
" style="fill:none;stroke:#000000;stroke-linecap:square;stroke-opacity:0.7;"/>
   </g>
   <g id="line2d_26">
    <path clip-path="url(#p36c2cce45f)" d="M 106.56 96.076676 
L 106.56 93.207273 
" style="fill:none;stroke:#000000;stroke-linecap:square;stroke-opacity:0.7;"/>
   </g>
   <g id="line2d_27">
    <path clip-path="url(#p36c2cce45f)" d="M 101.376 130.849811 
L 111.744 130.849811 
" style="fill:none;stroke:#000000;stroke-linecap:square;stroke-opacity:0.7;"/>
   </g>
   <g id="line2d_28">
    <path clip-path="url(#p36c2cce45f)" d="M 101.376 93.207273 
L 111.744 93.207273 
" style="fill:none;stroke:#000000;stroke-linecap:square;stroke-opacity:0.7;"/>
   </g>
   <g id="line2d_29">
    <path clip-path="url(#p36c2cce45f)" d="M 149.76 110.88 
L 149.76 127.008 
" style="fill:none;stroke:#000000;stroke-linecap:square;stroke-opacity:0.7;"/>
   </g>
   <g id="line2d_30">
    <path clip-path="url(#p36c2cce45f)" d="M 149.76 96.790909 
L 149.76 84.584348 
" style="fill:none;stroke:#000000;stroke-linecap:square;stroke-opacity:0.7;"/>
   </g>
   <g id="line2d_31">
    <path clip-path="url(#p36c2cce45f)" d="M 144.576 127.008 
L 154.944 127.008 
" style="fill:none;stroke:#000000;stroke-linecap:square;stroke-opacity:0.7;"/>
   </g>
   <g id="line2d_32">
    <path clip-path="url(#p36c2cce45f)" d="M 144.576 84.584348 
L 154.944 84.584348 
" style="fill:none;stroke:#000000;stroke-linecap:square;stroke-opacity:0.7;"/>
   </g>
   <g id="line2d_33">
    <path clip-path="url(#p36c2cce45f)" d="M 192.96 112.125933 
L 192.96 123.48 
" style="fill:none;stroke:#000000;stroke-linecap:square;stroke-opacity:0.7;"/>
   </g>
   <g id="line2d_34">
    <path clip-path="url(#p36c2cce45f)" d="M 192.96 99.939512 
L 192.96 94.649492 
" style="fill:none;stroke:#000000;stroke-linecap:square;stroke-opacity:0.7;"/>
   </g>
   <g id="line2d_35">
    <path clip-path="url(#p36c2cce45f)" d="M 187.776 123.48 
L 198.144 123.48 
" style="fill:none;stroke:#000000;stroke-linecap:square;stroke-opacity:0.7;"/>
   </g>
   <g id="line2d_36">
    <path clip-path="url(#p36c2cce45f)" d="M 187.776 94.649492 
L 198.144 94.649492 
" style="fill:none;stroke:#000000;stroke-linecap:square;stroke-opacity:0.7;"/>
   </g>
   <g id="patch_5">
    <path d="M 72 241.92 
L 72 30.24 
" style="fill:none;stroke:#000000;stroke-linecap:square;stroke-linejoin:miter;stroke-width:0.8;"/>
   </g>
   <g id="patch_6">
    <path d="M 223.2 241.92 
L 223.2 30.24 
" style="fill:none;stroke:#000000;stroke-linecap:square;stroke-linejoin:miter;stroke-width:0.8;"/>
   </g>
   <g id="patch_7">
    <path d="M 72 241.92 
L 223.2 241.92 
" style="fill:none;stroke:#000000;stroke-linecap:square;stroke-linejoin:miter;stroke-width:0.8;"/>
   </g>
   <g id="patch_8">
    <path d="M 72 30.24 
L 223.2 30.24 
" style="fill:none;stroke:#000000;stroke-linecap:square;stroke-linejoin:miter;stroke-width:0.8;"/>
   </g>
   <g id="text_11">
    <!-- n 2-joints -->
    <g transform="translate(114.366228 24.24)scale(0.18 -0.18)">
     <defs>
      <path d="M 25.796875 21.203125 
C 28.59375 24.078125 32.796875 27.5625 35.703125 31.046875 
C 38.5 34.4375 42.203125 39.234375 42.203125 46.203125 
C 42.203125 57.140625 34.796875 67 22.203125 67 
C 12.296875 67 6.59375 60.828125 3.90625 51.15625 
C 4.90625 49.765625 6.40625 47.765625 7.796875 45.765625 
C 10 54.84375 13.09375 60.625 20.90625 60.625 
C 29.5 60.625 34.296875 53.640625 34.296875 45.96875 
C 34.296875 36.796875 27.296875 29.703125 22 24.421875 
C 16.09375 18.546875 10.296875 12.5625 4.703125 6.375 
L 4.703125 0 
L 42.203125 0 
L 42.203125 6.765625 
L 25.203125 6.765625 
C 24 6.765625 22.796875 6.765625 21.59375 6.765625 
L 11.59375 6.765625 
L 11.59375 6.859375 
z
" id="CMSS17-50"/>
      <path d="M 26 19 
L 26 24.765625 
L 1 24.765625 
L 1 19 
z
" id="CMSS17-45"/>
      <path d="M 17.40625 66 
L 9 66 
L 9 57.640625 
L 17.40625 57.640625 
z
M -5.796875 -16.625 
C -2.59375 -18.609375 1.296875 -20 5.5 -20 
C 11.796875 -20 17.40625 -14.609375 17.40625 -5.71875 
L 17.40625 43.234375 
L 10 43.234375 
L 10 -6.640625 
C 10 -12.734375 5.40625 -13.640625 2.796875 -13.640625 
C 0.59375 -13.640625 -2 -12.9375 -4.296875 -10.546875 
z
" id="CMSS17-106"/>
      <path d="M 15.296875 65.359375 
L 6.90625 65.359375 
L 6.90625 57 
L 15.296875 57 
z
M 14.796875 42.796875 
L 7.40625 42.796875 
L 7.40625 0 
L 14.796875 0 
z
" id="CMSS17-105"/>
      <path d="M 16.703125 37 
L 29.703125 37 
L 29.703125 42.765625 
L 16.703125 42.765625 
L 16.703125 55 
L 9.59375 55 
L 9.59375 42.765625 
L 1.703125 42.765625 
L 1.703125 37 
L 9.40625 37 
L 9.40625 11.703125 
C 9.40625 6 10.703125 -1 17.296875 -1 
C 22.296875 -1 26.90625 0.390625 31.296875 2.6875 
L 29.703125 8.5625 
C 27.296875 6.46875 24.40625 5.265625 21.296875 5.265625 
C 16.90625 5.265625 16.703125 10.875 16.703125 13.375 
z
" id="CMSS17-116"/>
     </defs>
     <use transform="scale(0.996264)" xlink:href="#CMSS17-110"/>
     <use transform="translate(79.434056 0)scale(0.996264)" xlink:href="#CMSS17-50"/>
     <use transform="translate(126.277679 0)scale(0.996264)" xlink:href="#CMSS17-45"/>
     <use transform="translate(157.506792 0)scale(0.996264)" xlink:href="#CMSS17-106"/>
     <use transform="translate(182.289878 0)scale(0.996264)" xlink:href="#CMSS17-111"/>
     <use transform="translate(229.133501 0)scale(0.996264)" xlink:href="#CMSS17-105"/>
     <use transform="translate(251.314224 0)scale(0.996264)" xlink:href="#CMSS17-110"/>
     <use transform="translate(299.519168 0)scale(0.996264)" xlink:href="#CMSS17-116"/>
     <use transform="translate(333.350734 0)scale(0.996264)" xlink:href="#CMSS17-115"/>
    </g>
   </g>
   <g id="patch_9">
    <path clip-path="url(#p36c2cce45f)" d="M 96.192 186.114783 
L 116.928 186.114783 
L 116.928 173.93 
L 96.192 173.93 
L 96.192 186.114783 
z
" style="fill:#8c6d31;stroke:#8c6d31;stroke-linejoin:miter;"/>
   </g>
   <g id="patch_10">
    <path clip-path="url(#p36c2cce45f)" d="M 139.392 185.674617 
L 160.128 185.674617 
L 160.128 167.417419 
L 139.392 167.417419 
L 139.392 185.674617 
z
" style="fill:#637939;stroke:#637939;stroke-linejoin:miter;"/>
   </g>
   <g id="patch_11">
    <path clip-path="url(#p36c2cce45f)" d="M 182.592 181.674915 
L 203.328 181.674915 
L 203.328 163.884108 
L 182.592 163.884108 
L 182.592 181.674915 
z
" style="fill:#8ca252;stroke:#8ca252;stroke-linejoin:miter;"/>
   </g>
   <g id="patch_12">
    <path clip-path="url(#p36c2cce45f)" d="M 96.192 110.064089 
L 116.928 110.064089 
L 116.928 96.076676 
L 96.192 96.076676 
L 96.192 110.064089 
z
" style="fill:#8c6d31;stroke:#8c6d31;stroke-linejoin:miter;"/>
   </g>
   <g id="patch_13">
    <path clip-path="url(#p36c2cce45f)" d="M 139.392 110.88 
L 160.128 110.88 
L 160.128 96.790909 
L 139.392 96.790909 
L 139.392 110.88 
z
" style="fill:#637939;stroke:#637939;stroke-linejoin:miter;"/>
   </g>
   <g id="patch_14">
    <path clip-path="url(#p36c2cce45f)" d="M 182.592 112.125933 
L 203.328 112.125933 
L 203.328 99.939512 
L 182.592 99.939512 
L 182.592 112.125933 
z
" style="fill:#8ca252;stroke:#8ca252;stroke-linejoin:miter;"/>
   </g>
   <g id="patch_15">
    <path clip-path="url(#p36c2cce45f)" d="M 139.392 185.674617 
L 139.392 172.828439 
L 160.128 171.134999 
L 160.128 185.674617 
z
" style="fill:#e7cb94;stroke:#e7cb94;stroke-linejoin:miter;"/>
   </g>
   <g id="patch_16">
    <path clip-path="url(#p36c2cce45f)" d="M 139.392 110.88 
L 139.392 101.159902 
L 160.128 99.466462 
L 160.128 110.88 
z
" style="fill:#e7cb94;stroke:#e7cb94;stroke-linejoin:miter;"/>
   </g>
   <g id="patch_17">
    <path clip-path="url(#p36c2cce45f)" d="M 139.392 185.674617 
L 139.392 177.392738 
L 160.128 175.699298 
L 160.128 185.674617 
z
" style="fill:#e7ba52;stroke:#e7ba52;stroke-linejoin:miter;"/>
   </g>
   <g id="patch_18">
    <path clip-path="url(#p36c2cce45f)" d="M 139.392 110.88 
L 139.392 104.682175 
L 160.128 102.988735 
L 160.128 110.88 
z
" style="fill:#e7ba52;stroke:#e7ba52;stroke-linejoin:miter;"/>
   </g>
   <g id="patch_19">
    <path clip-path="url(#p36c2cce45f)" d="M 96.192 186.114783 
L 96.192 180.869111 
L 116.928 179.175671 
L 116.928 186.114783 
z
" style="fill:#bd9e39;stroke:#bd9e39;stroke-linejoin:miter;"/>
   </g>
   <g id="patch_20">
    <path clip-path="url(#p36c2cce45f)" d="M 139.392 185.674617 
L 139.392 181.957038 
L 160.128 180.263598 
L 160.128 185.674617 
z
" style="fill:#b5cf6b;stroke:#b5cf6b;stroke-linejoin:miter;"/>
   </g>
   <g id="patch_21">
    <path clip-path="url(#p36c2cce45f)" d="M 182.592 181.674915 
L 182.592 173.626232 
L 203.328 171.932792 
L 203.328 181.674915 
z
" style="fill:#cedb9c;stroke:#cedb9c;stroke-linejoin:miter;"/>
   </g>
   <g id="patch_22">
    <path clip-path="url(#p36c2cce45f)" d="M 96.192 110.064089 
L 96.192 103.917102 
L 116.928 102.223662 
L 116.928 110.064089 
z
" style="fill:#bd9e39;stroke:#bd9e39;stroke-linejoin:miter;"/>
   </g>
   <g id="patch_23">
    <path clip-path="url(#p36c2cce45f)" d="M 139.392 110.88 
L 139.392 108.204447 
L 160.128 106.511007 
L 160.128 110.88 
z
" style="fill:#b5cf6b;stroke:#b5cf6b;stroke-linejoin:miter;"/>
   </g>
   <g id="patch_24">
    <path clip-path="url(#p36c2cce45f)" d="M 182.592 112.125933 
L 182.592 106.879443 
L 203.328 105.186003 
L 203.328 112.125933 
z
" style="fill:#cedb9c;stroke:#cedb9c;stroke-linejoin:miter;"/>
   </g>
   <g id="PathCollection_1">
    <defs>
     <path d="M 2.738613 0 
L -2.738613 -0 
" id="mbcb74c141e" style="stroke:#000000;stroke-opacity:0.15;stroke-width:1.4;"/>
    </defs>
    <g>
     <use style="fill-opacity:0.15;stroke:#000000;stroke-opacity:0.15;stroke-width:1.4;" x="107.357982" xlink:href="#mbcb74c141e" y="210.729057"/>
     <use style="fill-opacity:0.15;stroke:#000000;stroke-opacity:0.15;stroke-width:1.4;" x="106.156353" xlink:href="#mbcb74c141e" y="200.225455"/>
     <use style="fill-opacity:0.15;stroke:#000000;stroke-opacity:0.15;stroke-width:1.4;" x="107.708998" xlink:href="#mbcb74c141e" y="187.575652"/>
     <use style="fill-opacity:0.15;stroke:#000000;stroke-opacity:0.15;stroke-width:1.4;" x="107.51702" xlink:href="#mbcb74c141e" y="188.16"/>
     <use style="fill-opacity:0.15;stroke:#000000;stroke-opacity:0.15;stroke-width:1.4;" x="105.105206" xlink:href="#mbcb74c141e" y="173.88"/>
     <use style="fill-opacity:0.15;stroke:#000000;stroke-opacity:0.15;stroke-width:1.4;" x="108.248919" xlink:href="#mbcb74c141e" y="174.370909"/>
     <use style="fill-opacity:0.15;stroke:#000000;stroke-opacity:0.15;stroke-width:1.4;" x="105.72647" xlink:href="#mbcb74c141e" y="174.148085"/>
     <use style="fill-opacity:0.15;stroke:#000000;stroke-opacity:0.15;stroke-width:1.4;" x="107.816691" xlink:href="#mbcb74c141e" y="181.732174"/>
     <use style="fill-opacity:0.15;stroke:#000000;stroke-opacity:0.15;stroke-width:1.4;" x="107.131205" xlink:href="#mbcb74c141e" y="168.786383"/>
     <use style="fill-opacity:0.15;stroke:#000000;stroke-opacity:0.15;stroke-width:1.4;" x="109.418743" xlink:href="#mbcb74c141e" y="180.18"/>
     <use style="fill-opacity:0.15;stroke:#000000;stroke-opacity:0.15;stroke-width:1.4;" x="106.212466" xlink:href="#mbcb74c141e" y="170.73"/>
     <use style="fill-opacity:0.15;stroke:#000000;stroke-opacity:0.15;stroke-width:1.4;" x="106.016743" xlink:href="#mbcb74c141e" y="174.08"/>
     <use style="fill-opacity:0.15;stroke:#000000;stroke-opacity:0.15;stroke-width:1.4;" x="106.529799" xlink:href="#mbcb74c141e" y="178.437447"/>
     <use style="fill-opacity:0.15;stroke:#000000;stroke-opacity:0.15;stroke-width:1.4;" x="106.088495" xlink:href="#mbcb74c141e" y="164.041644"/>
    </g>
   </g>
   <g id="PathCollection_2">
    <g>
     <use style="fill-opacity:0.15;stroke:#000000;stroke-opacity:0.15;stroke-width:1.4;" x="151.00407" xlink:href="#mbcb74c141e" y="183.68"/>
     <use style="fill-opacity:0.15;stroke:#000000;stroke-opacity:0.15;stroke-width:1.4;" x="147.246314" xlink:href="#mbcb74c141e" y="182.032941"/>
     <use style="fill-opacity:0.15;stroke:#000000;stroke-opacity:0.15;stroke-width:1.4;" x="148.121313" xlink:href="#mbcb74c141e" y="182.761967"/>
     <use style="fill-opacity:0.15;stroke:#000000;stroke-opacity:0.15;stroke-width:1.4;" x="148.099353" xlink:href="#mbcb74c141e" y="185.611034"/>
     <use style="fill-opacity:0.15;stroke:#000000;stroke-opacity:0.15;stroke-width:1.4;" x="151.237918" xlink:href="#mbcb74c141e" y="183.68"/>
     <use style="fill-opacity:0.15;stroke:#000000;stroke-opacity:0.15;stroke-width:1.4;" x="152.420346" xlink:href="#mbcb74c141e" y="171.36"/>
     <use style="fill-opacity:0.15;stroke:#000000;stroke-opacity:0.15;stroke-width:1.4;" x="149.597561" xlink:href="#mbcb74c141e" y="172.236522"/>
     <use style="fill-opacity:0.15;stroke:#000000;stroke-opacity:0.15;stroke-width:1.4;" x="149.497448" xlink:href="#mbcb74c141e" y="210.691765"/>
     <use style="fill-opacity:0.15;stroke:#000000;stroke-opacity:0.15;stroke-width:1.4;" x="149.868945" xlink:href="#mbcb74c141e" y="184.189091"/>
     <use style="fill-opacity:0.15;stroke:#000000;stroke-opacity:0.15;stroke-width:1.4;" x="151.566953" xlink:href="#mbcb74c141e" y="200.88"/>
     <use style="fill-opacity:0.15;stroke:#000000;stroke-opacity:0.15;stroke-width:1.4;" x="148.31778" xlink:href="#mbcb74c141e" y="211.68"/>
     <use style="fill-opacity:0.15;stroke:#000000;stroke-opacity:0.15;stroke-width:1.4;" x="150.130711" xlink:href="#mbcb74c141e" y="186.856119"/>
     <use style="fill-opacity:0.15;stroke:#000000;stroke-opacity:0.15;stroke-width:1.4;" x="151.276627" xlink:href="#mbcb74c141e" y="187.515616"/>
     <use style="fill-opacity:0.15;stroke:#000000;stroke-opacity:0.15;stroke-width:1.4;" x="150.539302" xlink:href="#mbcb74c141e" y="181.851429"/>
     <use style="fill-opacity:0.15;stroke:#000000;stroke-opacity:0.15;stroke-width:1.4;" x="150.054837" xlink:href="#mbcb74c141e" y="195.764211"/>
     <use style="fill-opacity:0.15;stroke:#000000;stroke-opacity:0.15;stroke-width:1.4;" x="151.316827" xlink:href="#mbcb74c141e" y="171.618462"/>
     <use style="fill-opacity:0.15;stroke:#000000;stroke-opacity:0.15;stroke-width:1.4;" x="145.555933" xlink:href="#mbcb74c141e" y="161.28"/>
     <use style="fill-opacity:0.15;stroke:#000000;stroke-opacity:0.15;stroke-width:1.4;" x="150.814232" xlink:href="#mbcb74c141e" y="165.013333"/>
     <use style="fill-opacity:0.15;stroke:#000000;stroke-opacity:0.15;stroke-width:1.4;" x="148.742781" xlink:href="#mbcb74c141e" y="168"/>
     <use style="fill-opacity:0.15;stroke:#000000;stroke-opacity:0.15;stroke-width:1.4;" x="146.913" xlink:href="#mbcb74c141e" y="163.68"/>
     <use style="fill-opacity:0.15;stroke:#000000;stroke-opacity:0.15;stroke-width:1.4;" x="150.555022" xlink:href="#mbcb74c141e" y="167.783226"/>
     <use style="fill-opacity:0.15;stroke:#000000;stroke-opacity:0.15;stroke-width:1.4;" x="151.896314" xlink:href="#mbcb74c141e" y="189.371803"/>
     <use style="fill-opacity:0.15;stroke:#000000;stroke-opacity:0.15;stroke-width:1.4;" x="149.54624" xlink:href="#mbcb74c141e" y="163.738537"/>
     <use style="fill-opacity:0.15;stroke:#000000;stroke-opacity:0.15;stroke-width:1.4;" x="151.24191" xlink:href="#mbcb74c141e" y="171.36"/>
     <use style="fill-opacity:0.15;stroke:#000000;stroke-opacity:0.15;stroke-width:1.4;" x="152.267415" xlink:href="#mbcb74c141e" y="164.88"/>
     <use style="fill-opacity:0.15;stroke:#000000;stroke-opacity:0.15;stroke-width:1.4;" x="151.804955" xlink:href="#mbcb74c141e" y="185.865366"/>
     <use style="fill-opacity:0.15;stroke:#000000;stroke-opacity:0.15;stroke-width:1.4;" x="152.310473" xlink:href="#mbcb74c141e" y="173.00093"/>
     <use style="fill-opacity:0.15;stroke:#000000;stroke-opacity:0.15;stroke-width:1.4;" x="150.914157" xlink:href="#mbcb74c141e" y="173.498182"/>
     <use style="fill-opacity:0.15;stroke:#000000;stroke-opacity:0.15;stroke-width:1.4;" x="149.877314" xlink:href="#mbcb74c141e" y="170.789434"/>
     <use style="fill-opacity:0.15;stroke:#000000;stroke-opacity:0.15;stroke-width:1.4;" x="147.268623" xlink:href="#mbcb74c141e" y="161.28"/>
     <use style="fill-opacity:0.15;stroke:#000000;stroke-opacity:0.15;stroke-width:1.4;" x="149.377324" xlink:href="#mbcb74c141e" y="166.32"/>
     <use style="fill-opacity:0.15;stroke:#000000;stroke-opacity:0.15;stroke-width:1.4;" x="148.448583" xlink:href="#mbcb74c141e" y="161.28"/>
    </g>
   </g>
   <g id="PathCollection_3">
    <g>
     <use style="fill-opacity:0.15;stroke:#000000;stroke-opacity:0.15;stroke-width:1.4;" x="196.33625" xlink:href="#mbcb74c141e" y="180.07322"/>
     <use style="fill-opacity:0.15;stroke:#000000;stroke-opacity:0.15;stroke-width:1.4;" x="192.686462" xlink:href="#mbcb74c141e" y="186.48"/>
     <use style="fill-opacity:0.15;stroke:#000000;stroke-opacity:0.15;stroke-width:1.4;" x="193.151608" xlink:href="#mbcb74c141e" y="191.825455"/>
     <use style="fill-opacity:0.15;stroke:#000000;stroke-opacity:0.15;stroke-width:1.4;" x="193.81767" xlink:href="#mbcb74c141e" y="208.53"/>
     <use style="fill-opacity:0.15;stroke:#000000;stroke-opacity:0.15;stroke-width:1.4;" x="193.027811" xlink:href="#mbcb74c141e" y="163.048421"/>
     <use style="fill-opacity:0.15;stroke:#000000;stroke-opacity:0.15;stroke-width:1.4;" x="195.596143" xlink:href="#mbcb74c141e" y="163.738537"/>
     <use style="fill-opacity:0.15;stroke:#000000;stroke-opacity:0.15;stroke-width:1.4;" x="191.991656" xlink:href="#mbcb74c141e" y="169.858723"/>
     <use style="fill-opacity:0.15;stroke:#000000;stroke-opacity:0.15;stroke-width:1.4;" x="193.262654" xlink:href="#mbcb74c141e" y="173.376"/>
     <use style="fill-opacity:0.15;stroke:#000000;stroke-opacity:0.15;stroke-width:1.4;" x="191.80531" xlink:href="#mbcb74c141e" y="165.76"/>
     <use style="fill-opacity:0.15;stroke:#000000;stroke-opacity:0.15;stroke-width:1.4;" x="190.907101" xlink:href="#mbcb74c141e" y="163.932632"/>
     <use style="fill-opacity:0.15;stroke:#000000;stroke-opacity:0.15;stroke-width:1.4;" x="192.008577" xlink:href="#mbcb74c141e" y="161.28"/>
     <use style="fill-opacity:0.15;stroke:#000000;stroke-opacity:0.15;stroke-width:1.4;" x="192.9024" xlink:href="#mbcb74c141e" y="165.312"/>
    </g>
   </g>
   <g id="PathCollection_4">
    <defs>
     <path d="M -2.738613 0 
L 2.738613 0 
M 0 2.738613 
L 0 -2.738613 
" id="m5135c0b8c1" style="stroke:#000000;stroke-opacity:0.15;stroke-width:1.4;"/>
    </defs>
    <g>
     <use style="fill-opacity:0.15;stroke:#000000;stroke-opacity:0.15;stroke-width:1.4;" x="105.892349" xlink:href="#m5135c0b8c1" y="130.849811"/>
     <use style="fill-opacity:0.15;stroke:#000000;stroke-opacity:0.15;stroke-width:1.4;" x="105.483147" xlink:href="#m5135c0b8c1" y="122.334545"/>
     <use style="fill-opacity:0.15;stroke:#000000;stroke-opacity:0.15;stroke-width:1.4;" x="104.372895" xlink:href="#m5135c0b8c1" y="110.149565"/>
     <use style="fill-opacity:0.15;stroke:#000000;stroke-opacity:0.15;stroke-width:1.4;" x="106.430754" xlink:href="#m5135c0b8c1" y="103.488"/>
     <use style="fill-opacity:0.15;stroke:#000000;stroke-opacity:0.15;stroke-width:1.4;" x="104.219859" xlink:href="#m5135c0b8c1" y="104.58"/>
     <use style="fill-opacity:0.15;stroke:#000000;stroke-opacity:0.15;stroke-width:1.4;" x="107.742039" xlink:href="#m5135c0b8c1" y="93.207273"/>
     <use style="fill-opacity:0.15;stroke:#000000;stroke-opacity:0.15;stroke-width:1.4;" x="106.68821" xlink:href="#m5135c0b8c1" y="109.80766"/>
     <use style="fill-opacity:0.15;stroke:#000000;stroke-opacity:0.15;stroke-width:1.4;" x="104.293216" xlink:href="#m5135c0b8c1" y="107.227826"/>
     <use style="fill-opacity:0.15;stroke:#000000;stroke-opacity:0.15;stroke-width:1.4;" x="106.079118" xlink:href="#m5135c0b8c1" y="95.867234"/>
     <use style="fill-opacity:0.15;stroke:#000000;stroke-opacity:0.15;stroke-width:1.4;" x="105.390246" xlink:href="#m5135c0b8c1" y="110.88"/>
     <use style="fill-opacity:0.15;stroke:#000000;stroke-opacity:0.15;stroke-width:1.4;" x="107.05638" xlink:href="#m5135c0b8c1" y="96.705"/>
     <use style="fill-opacity:0.15;stroke:#000000;stroke-opacity:0.15;stroke-width:1.4;" x="108.644669" xlink:href="#m5135c0b8c1" y="94.08"/>
     <use style="fill-opacity:0.15;stroke:#000000;stroke-opacity:0.15;stroke-width:1.4;" x="103.643732" xlink:href="#m5135c0b8c1" y="109.80766"/>
     <use style="fill-opacity:0.15;stroke:#000000;stroke-opacity:0.15;stroke-width:1.4;" x="106.738889" xlink:href="#m5135c0b8c1" y="93.619726"/>
    </g>
   </g>
   <g id="PathCollection_5">
    <g>
     <use style="fill-opacity:0.15;stroke:#000000;stroke-opacity:0.15;stroke-width:1.4;" x="149.510961" xlink:href="#m5135c0b8c1" y="103.04"/>
     <use style="fill-opacity:0.15;stroke:#000000;stroke-opacity:0.15;stroke-width:1.4;" x="150.804068" xlink:href="#m5135c0b8c1" y="104.950588"/>
     <use style="fill-opacity:0.15;stroke:#000000;stroke-opacity:0.15;stroke-width:1.4;" x="150.091563" xlink:href="#m5135c0b8c1" y="111.70623"/>
     <use style="fill-opacity:0.15;stroke:#000000;stroke-opacity:0.15;stroke-width:1.4;" x="148.590537" xlink:href="#m5135c0b8c1" y="109.142069"/>
     <use style="fill-opacity:0.15;stroke:#000000;stroke-opacity:0.15;stroke-width:1.4;" x="149.263807" xlink:href="#m5135c0b8c1" y="101.546667"/>
     <use style="fill-opacity:0.15;stroke:#000000;stroke-opacity:0.15;stroke-width:1.4;" x="148.522021" xlink:href="#m5135c0b8c1" y="100.8"/>
     <use style="fill-opacity:0.15;stroke:#000000;stroke-opacity:0.15;stroke-width:1.4;" x="151.433406" xlink:href="#m5135c0b8c1" y="84.584348"/>
     <use style="fill-opacity:0.15;stroke:#000000;stroke-opacity:0.15;stroke-width:1.4;" x="149.793144" xlink:href="#m5135c0b8c1" y="121.750588"/>
     <use style="fill-opacity:0.15;stroke:#000000;stroke-opacity:0.15;stroke-width:1.4;" x="152.716732" xlink:href="#m5135c0b8c1" y="108.589091"/>
     <use style="fill-opacity:0.15;stroke:#000000;stroke-opacity:0.15;stroke-width:1.4;" x="149.66566" xlink:href="#m5135c0b8c1" y="110.88"/>
     <use style="fill-opacity:0.15;stroke:#000000;stroke-opacity:0.15;stroke-width:1.4;" x="148.658286" xlink:href="#m5135c0b8c1" y="127.008"/>
     <use style="fill-opacity:0.15;stroke:#000000;stroke-opacity:0.15;stroke-width:1.4;" x="147.405871" xlink:href="#m5135c0b8c1" y="102.605373"/>
     <use style="fill-opacity:0.15;stroke:#000000;stroke-opacity:0.15;stroke-width:1.4;" x="146.955757" xlink:href="#m5135c0b8c1" y="112.951233"/>
     <use style="fill-opacity:0.15;stroke:#000000;stroke-opacity:0.15;stroke-width:1.4;" x="147.296352" xlink:href="#m5135c0b8c1" y="105.737143"/>
     <use style="fill-opacity:0.15;stroke:#000000;stroke-opacity:0.15;stroke-width:1.4;" x="150.175435" xlink:href="#m5135c0b8c1" y="113.532632"/>
     <use style="fill-opacity:0.15;stroke:#000000;stroke-opacity:0.15;stroke-width:1.4;" x="150.551169" xlink:href="#m5135c0b8c1" y="94.08"/>
     <use style="fill-opacity:0.15;stroke:#000000;stroke-opacity:0.15;stroke-width:1.4;" x="147.300932" xlink:href="#m5135c0b8c1" y="120.043636"/>
     <use style="fill-opacity:0.15;stroke:#000000;stroke-opacity:0.15;stroke-width:1.4;" x="151.151964" xlink:href="#m5135c0b8c1" y="105.28"/>
     <use style="fill-opacity:0.15;stroke:#000000;stroke-opacity:0.15;stroke-width:1.4;" x="149.008743" xlink:href="#m5135c0b8c1" y="105.84"/>
     <use style="fill-opacity:0.15;stroke:#000000;stroke-opacity:0.15;stroke-width:1.4;" x="149.988292" xlink:href="#m5135c0b8c1" y="108.48"/>
     <use style="fill-opacity:0.15;stroke:#000000;stroke-opacity:0.15;stroke-width:1.4;" x="152.267326" xlink:href="#m5135c0b8c1" y="92.996129"/>
     <use style="fill-opacity:0.15;stroke:#000000;stroke-opacity:0.15;stroke-width:1.4;" x="151.154765" xlink:href="#m5135c0b8c1" y="110.05377"/>
     <use style="fill-opacity:0.15;stroke:#000000;stroke-opacity:0.15;stroke-width:1.4;" x="149.342381" xlink:href="#m5135c0b8c1" y="112.109268"/>
     <use style="fill-opacity:0.15;stroke:#000000;stroke-opacity:0.15;stroke-width:1.4;" x="148.374018" xlink:href="#m5135c0b8c1" y="110.88"/>
     <use style="fill-opacity:0.15;stroke:#000000;stroke-opacity:0.15;stroke-width:1.4;" x="146.413497" xlink:href="#m5135c0b8c1" y="85.68"/>
     <use style="fill-opacity:0.15;stroke:#000000;stroke-opacity:0.15;stroke-width:1.4;" x="148.641573" xlink:href="#m5135c0b8c1" y="107.192195"/>
     <use style="fill-opacity:0.15;stroke:#000000;stroke-opacity:0.15;stroke-width:1.4;" x="149.43165" xlink:href="#m5135c0b8c1" y="93.298605"/>
     <use style="fill-opacity:0.15;stroke:#000000;stroke-opacity:0.15;stroke-width:1.4;" x="148.224738" xlink:href="#m5135c0b8c1" y="97.134545"/>
     <use style="fill-opacity:0.15;stroke:#000000;stroke-opacity:0.15;stroke-width:1.4;" x="149.555869" xlink:href="#m5135c0b8c1" y="94.713962"/>
     <use style="fill-opacity:0.15;stroke:#000000;stroke-opacity:0.15;stroke-width:1.4;" x="149.87952" xlink:href="#m5135c0b8c1" y="110.88"/>
     <use style="fill-opacity:0.15;stroke:#000000;stroke-opacity:0.15;stroke-width:1.4;" x="149.410304" xlink:href="#m5135c0b8c1" y="95.76"/>
     <use style="fill-opacity:0.15;stroke:#000000;stroke-opacity:0.15;stroke-width:1.4;" x="148.749116" xlink:href="#m5135c0b8c1" y="91.495385"/>
    </g>
   </g>
   <g id="PathCollection_6">
    <g>
     <use style="fill-opacity:0.15;stroke:#000000;stroke-opacity:0.15;stroke-width:1.4;" x="193.222292" xlink:href="#m5135c0b8c1" y="94.649492"/>
     <use style="fill-opacity:0.15;stroke:#000000;stroke-opacity:0.15;stroke-width:1.4;" x="193.647306" xlink:href="#m5135c0b8c1" y="100.8"/>
     <use style="fill-opacity:0.15;stroke:#000000;stroke-opacity:0.15;stroke-width:1.4;" x="191.264211" xlink:href="#m5135c0b8c1" y="118.516364"/>
     <use style="fill-opacity:0.15;stroke:#000000;stroke-opacity:0.15;stroke-width:1.4;" x="195.154282" xlink:href="#m5135c0b8c1" y="123.48"/>
     <use style="fill-opacity:0.15;stroke:#000000;stroke-opacity:0.15;stroke-width:1.4;" x="192.806676" xlink:href="#m5135c0b8c1" y="109.995789"/>
     <use style="fill-opacity:0.15;stroke:#000000;stroke-opacity:0.15;stroke-width:1.4;" x="192.989315" xlink:href="#m5135c0b8c1" y="97.358049"/>
     <use style="fill-opacity:0.15;stroke:#000000;stroke-opacity:0.15;stroke-width:1.4;" x="194.061415" xlink:href="#m5135c0b8c1" y="103.373617"/>
     <use style="fill-opacity:0.15;stroke:#000000;stroke-opacity:0.15;stroke-width:1.4;" x="193.322698" xlink:href="#m5135c0b8c1" y="102.816"/>
     <use style="fill-opacity:0.15;stroke:#000000;stroke-opacity:0.15;stroke-width:1.4;" x="194.442318" xlink:href="#m5135c0b8c1" y="107.52"/>
     <use style="fill-opacity:0.15;stroke:#000000;stroke-opacity:0.15;stroke-width:1.4;" x="193.406536" xlink:href="#m5135c0b8c1" y="121.490526"/>
     <use style="fill-opacity:0.15;stroke:#000000;stroke-opacity:0.15;stroke-width:1.4;" x="192.007537" xlink:href="#m5135c0b8c1" y="94.843636"/>
     <use style="fill-opacity:0.15;stroke:#000000;stroke-opacity:0.15;stroke-width:1.4;" x="193.52221" xlink:href="#m5135c0b8c1" y="104.832"/>
    </g>
   </g>
   <g id="line2d_37">
    <path clip-path="url(#p36c2cce45f)" d="M 96.192 176.404178 
L 116.928 176.404178 
" style="fill:none;stroke:#000000;stroke-linecap:square;"/>
   </g>
   <g id="line2d_38">
    <path clip-path="url(#p36c2cce45f)" d="M 139.392 173.249556 
L 160.128 173.249556 
" style="fill:none;stroke:#000000;stroke-linecap:square;"/>
   </g>
   <g id="line2d_39">
    <path clip-path="url(#p36c2cce45f)" d="M 182.592 167.809362 
L 203.328 167.809362 
" style="fill:none;stroke:#000000;stroke-linecap:square;"/>
   </g>
   <g id="line2d_40">
    <path clip-path="url(#p36c2cce45f)" d="M 96.192 105.903913 
L 116.928 105.903913 
" style="fill:none;stroke:#000000;stroke-linecap:square;"/>
   </g>
   <g id="line2d_41">
    <path clip-path="url(#p36c2cce45f)" d="M 139.392 105.788571 
L 160.128 105.788571 
" style="fill:none;stroke:#000000;stroke-linecap:square;"/>
   </g>
   <g id="line2d_42">
    <path clip-path="url(#p36c2cce45f)" d="M 182.592 104.102809 
L 203.328 104.102809 
" style="fill:none;stroke:#000000;stroke-linecap:square;"/>
   </g>
  </g>
 </g>
 <defs>
  <clipPath id="p36c2cce45f">
   <rect height="211.68" width="151.2" x="72" y="30.24"/>
  </clipPath>
 </defs>
</svg>
