<?xml version="1.0" encoding="utf-8" standalone="no"?>
<!DOCTYPE svg PUBLIC "-//W3C//DTD SVG 1.1//EN"
  "http://www.w3.org/Graphics/SVG/1.1/DTD/svg11.dtd">
<!-- Created with matplotlib (https://matplotlib.org/) -->
<svg height="302.4pt" version="1.1" viewBox="0 0 381.6 302.4" width="381.6pt" xmlns="http://www.w3.org/2000/svg" xmlns:xlink="http://www.w3.org/1999/xlink">
 <metadata>
  <rdf:RDF xmlns:cc="http://creativecommons.org/ns#" xmlns:dc="http://purl.org/dc/elements/1.1/" xmlns:rdf="http://www.w3.org/1999/02/22-rdf-syntax-ns#">
   <cc:Work>
    <dc:type rdf:resource="http://purl.org/dc/dcmitype/StillImage"/>
    <dc:date>2021-12-23T23:51:46.531596</dc:date>
    <dc:format>image/svg+xml</dc:format>
    <dc:creator>
     <cc:Agent>
      <dc:title>Matplotlib v3.3.4, https://matplotlib.org/</dc:title>
     </cc:Agent>
    </dc:creator>
   </cc:Work>
  </rdf:RDF>
 </metadata>
 <defs>
  <style type="text/css">*{stroke-linecap:butt;stroke-linejoin:round;}</style>
 </defs>
 <g id="figure_1">
  <g id="patch_1">
   <path d="M 0 302.4 
L 381.6 302.4 
L 381.6 0 
L 0 0 
z
" style="fill:#ffffff;"/>
  </g>
  <g id="axes_1">
   <g id="patch_2">
    <path d="M 72 241.92 
L 309.6 241.92 
L 309.6 30.24 
L 72 30.24 
z
" style="fill:#ffffff;"/>
   </g>
   <g id="patch_3">
    <path clip-path="url(#p17dd429249)" d="M 72 161.28 
L 320.4 161.28 
L 320.4 30.24 
L 72 30.24 
z
" style="fill:#01ff6b;opacity:0.12;stroke:#01ff6b;stroke-linejoin:miter;"/>
   </g>
   <g id="patch_4">
    <path clip-path="url(#p17dd429249)" d="M 72 161.28 
L 320.4 161.28 
L 320.4 241.92 
L 72 241.92 
z
" style="fill:#c22121;opacity:0.12;stroke:#c22121;stroke-linejoin:miter;"/>
   </g>
   <g id="matplotlib.axis_1">
    <g id="xtick_1">
     <g id="text_1">
      <!-- D00 -->
      <g transform="translate(81.412335 278.247044)rotate(-45)scale(0.18 -0.18)">
       <defs>
        <path d="M 8.90625 69 
L 8.90625 0 
L 33.5 0 
C 49.90625 0 62.5 15.3125 62.5 33.90625 
C 62.5 53.09375 49.90625 69 33.5 69 
z
M 17.09375 5.578125 
L 17.09375 63.421875 
L 31.296875 63.421875 
C 44.703125 63.421875 54.296875 51.203125 54.296875 33.90625 
C 54.296875 17.296875 44.796875 5.578125 31.296875 5.578125 
z
" id="CMSS17-68"/>
        <path d="M 43.09375 31.9375 
C 43.09375 37.578125 43 48.078125 38.90625 56.1875 
C 34.796875 64 28.203125 66.078125 23.5 66.078125 
C 16.703125 66.078125 10.90625 62.109375 7.90625 55.78125 
C 4.703125 49.15625 3.796875 42.328125 3.796875 31.9375 
C 3.796875 24.828125 4.09375 16.109375 7.703125 8.484375 
C 11.796875 0.078125 18.703125 -2 23.40625 -2 
C 29.59375 -2 35.59375 1.265625 39 8.09375 
C 42.5 15.21875 43.09375 23.03125 43.09375 31.9375 
z
M 23.40625 4.078125 
C 15.796875 4.078125 13.5 12.671875 12.796875 15.546875 
C 11.59375 20.46875 11.40625 25.21875 11.40625 33.03125 
C 11.40625 39.15625 11.40625 46.0625 13.296875 51.515625 
C 15.59375 57.828125 19.59375 60 23.40625 60 
C 30.796875 60 33.203125 52.6875 34 50.125 
C 35.5 44.890625 35.5 38.765625 35.5 33.03125 
C 35.5 23.84375 35.5 4.078125 23.40625 4.078125 
z
" id="CMSS17-48"/>
       </defs>
       <use transform="scale(0.996264)" xlink:href="#CMSS17-68"/>
       <use transform="translate(67.542842 0)scale(0.996264)" xlink:href="#CMSS17-48"/>
       <use transform="translate(114.386465 0)scale(0.996264)" xlink:href="#CMSS17-48"/>
      </g>
     </g>
    </g>
    <g id="xtick_2">
     <g id="text_2">
      <!-- D01 -->
      <g transform="translate(124.612335 278.247044)rotate(-45)scale(0.18 -0.18)">
       <defs>
        <path d="M 28.40625 67 
L 26.5 67 
C 21.09375 61.5625 14.796875 60.78125 8.40625 60.78125 
L 8.40625 55 
C 11.296875 55 16 55 20.703125 57.296875 
L 20.703125 5.765625 
L 8.90625 5.765625 
L 8.90625 0 
L 40.203125 0 
L 40.203125 5.765625 
L 28.40625 5.765625 
z
" id="CMSS17-49"/>
       </defs>
       <use transform="scale(0.996264)" xlink:href="#CMSS17-68"/>
       <use transform="translate(67.542842 0)scale(0.996264)" xlink:href="#CMSS17-48"/>
       <use transform="translate(114.386465 0)scale(0.996264)" xlink:href="#CMSS17-49"/>
      </g>
     </g>
    </g>
    <g id="xtick_3">
     <g id="text_3">
      <!-- D02 -->
      <g transform="translate(167.812335 278.247044)rotate(-45)scale(0.18 -0.18)">
       <defs>
        <path d="M 25.796875 21.203125 
C 28.59375 24.078125 32.796875 27.5625 35.703125 31.046875 
C 38.5 34.4375 42.203125 39.234375 42.203125 46.203125 
C 42.203125 57.140625 34.796875 67 22.203125 67 
C 12.296875 67 6.59375 60.828125 3.90625 51.15625 
C 4.90625 49.765625 6.40625 47.765625 7.796875 45.765625 
C 10 54.84375 13.09375 60.625 20.90625 60.625 
C 29.5 60.625 34.296875 53.640625 34.296875 45.96875 
C 34.296875 36.796875 27.296875 29.703125 22 24.421875 
C 16.09375 18.546875 10.296875 12.5625 4.703125 6.375 
L 4.703125 0 
L 42.203125 0 
L 42.203125 6.765625 
L 25.203125 6.765625 
C 24 6.765625 22.796875 6.765625 21.59375 6.765625 
L 11.59375 6.765625 
L 11.59375 6.859375 
z
" id="CMSS17-50"/>
       </defs>
       <use transform="scale(0.996264)" xlink:href="#CMSS17-68"/>
       <use transform="translate(67.542842 0)scale(0.996264)" xlink:href="#CMSS17-48"/>
       <use transform="translate(114.386465 0)scale(0.996264)" xlink:href="#CMSS17-50"/>
      </g>
     </g>
    </g>
    <g id="xtick_4">
     <g id="text_4">
      <!-- D03 -->
      <g transform="translate(211.012335 278.247044)rotate(-45)scale(0.18 -0.18)">
       <defs>
        <path d="M 15.703125 31.640625 
L 22.5 31.640625 
C 31.90625 31.640625 34.59375 23.546875 34.59375 17.90625 
C 34.59375 10.203125 30.203125 4.171875 23 4.171875 
C 17.40625 4.171875 9.5 6.9375 5 14.25 
C 4.296875 10.796875 4.296875 10.59375 3.90625 8.21875 
C 8.59375 1.375 16.203125 -2 23.203125 -2 
C 34.59375 -2 43 7.390625 43 17.78125 
C 43 25.59375 37.5 32.140625 30 34.609375 
C 36 37.875 40.40625 44 40.40625 51.140625 
C 40.40625 59.453125 32.703125 66.078125 23.296875 66.078125 
C 14.703125 66.078125 8 60.8125 5.203125 55.15625 
C 5.90625 54.1875 7.703125 51.3125 8.59375 49.828125 
C 10.796875 55.65625 16.5 60 23.203125 60 
C 28.796875 60 32.5 56.359375 32.5 51.109375 
C 32.5 45.671875 29 39.734375 23.09375 38.359375 
C 22.703125 38.359375 16.5 37.765625 15.703125 37.671875 
z
" id="CMSS17-51"/>
       </defs>
       <use transform="scale(0.996264)" xlink:href="#CMSS17-68"/>
       <use transform="translate(67.542842 0)scale(0.996264)" xlink:href="#CMSS17-48"/>
       <use transform="translate(114.386465 0)scale(0.996264)" xlink:href="#CMSS17-51"/>
      </g>
     </g>
    </g>
    <g id="xtick_5">
     <g id="text_5">
      <!-- D04 -->
      <g transform="translate(254.212335 278.247044)rotate(-45)scale(0.18 -0.18)">
       <defs>
        <path d="M 35.203125 17 
L 44.296875 17 
L 44.296875 23.078125 
L 35.203125 23.078125 
L 35.203125 65.5 
L 26.40625 65.5 
L 2.59375 23.078125 
L 2.59375 17 
L 27.296875 17 
L 27.296875 0 
L 35.203125 0 
z
M 10.296875 23.078125 
C 16.09375 33.234375 27.59375 53.734375 27.59375 60.703125 
L 27.59375 23.078125 
z
" id="CMSS17-52"/>
       </defs>
       <use transform="scale(0.996264)" xlink:href="#CMSS17-68"/>
       <use transform="translate(67.542842 0)scale(0.996264)" xlink:href="#CMSS17-48"/>
       <use transform="translate(114.386465 0)scale(0.996264)" xlink:href="#CMSS17-52"/>
      </g>
     </g>
    </g>
   </g>
   <g id="matplotlib.axis_2">
    <g id="ytick_1">
     <g id="line2d_1">
      <path clip-path="url(#p17dd429249)" d="M 72 221.76 
L 309.6 221.76 
" style="fill:none;stroke:#b0b0b0;stroke-linecap:square;stroke-opacity:0.6;stroke-width:0.7;"/>
     </g>
     <g id="line2d_2">
      <defs>
       <path d="M 0 0 
L -3.5 0 
" id="mc6aa060e85" style="stroke:#000000;stroke-width:0.8;"/>
      </defs>
      <g>
       <use style="stroke:#000000;stroke-width:0.8;" x="72" xlink:href="#mc6aa060e85" y="221.76"/>
      </g>
     </g>
     <g id="text_6">
      <!-- 0.6 -->
      <g transform="translate(46.926206 226.775904)scale(0.145 -0.145)">
       <defs>
        <path d="M 17 7.96875 
L 9 7.96875 
L 9 0 
L 17 0 
z
" id="CMSS17-46"/>
        <path d="M 39 64.078125 
C 34.796875 65.78125 31.796875 66.078125 29 66.078125 
C 16 66.078125 3.90625 52.625 3.90625 31.34375 
C 3.90625 4.140625 15.40625 -2 23.59375 -2 
C 28.09375 -2 32.59375 -0.609375 36.90625 4.375 
C 41.296875 9.640625 43 14.03125 43 21.703125 
C 43 34.046875 36.90625 45 27.796875 45 
C 21.203125 45 15.5 41.515625 12 37.125 
C 13 50.90625 19.59375 60 29.09375 60 
C 31.703125 60 35.09375 59.625 39 57.96875 
z
M 12.09375 21.390625 
C 12.09375 22.1875 12.09375 22.6875 12.203125 24.1875 
C 12.203125 31.953125 16.703125 38.921875 24 38.921875 
C 28.703125 38.921875 31.09375 36.4375 32.90625 33.359375 
C 35 29.46875 35.09375 25.78125 35.09375 21.6875 
C 35.09375 17.8125 35.09375 13.921875 32.796875 9.953125 
C 30.90625 6.859375 28.40625 4.171875 23.59375 4.171875 
C 14.09375 4.171875 12.5 17.40625 12.09375 21.390625 
z
" id="CMSS17-54"/>
       </defs>
       <use transform="scale(0.996264)" xlink:href="#CMSS17-48"/>
       <use transform="translate(46.843624 0)scale(0.996264)" xlink:href="#CMSS17-46"/>
       <use transform="translate(72.867828 0)scale(0.996264)" xlink:href="#CMSS17-54"/>
      </g>
     </g>
    </g>
    <g id="ytick_2">
     <g id="line2d_3">
      <path clip-path="url(#p17dd429249)" d="M 72 191.52 
L 309.6 191.52 
" style="fill:none;stroke:#b0b0b0;stroke-linecap:square;stroke-opacity:0.6;stroke-width:0.7;"/>
     </g>
     <g id="line2d_4">
      <g>
       <use style="stroke:#000000;stroke-width:0.8;" x="72" xlink:href="#mc6aa060e85" y="191.52"/>
      </g>
     </g>
     <g id="text_7">
      <!-- 0.3 -->
      <g transform="translate(46.926206 196.535904)scale(0.145 -0.145)">
       <use transform="scale(0.996264)" xlink:href="#CMSS17-48"/>
       <use transform="translate(46.843624 0)scale(0.996264)" xlink:href="#CMSS17-46"/>
       <use transform="translate(72.867828 0)scale(0.996264)" xlink:href="#CMSS17-51"/>
      </g>
     </g>
    </g>
    <g id="ytick_3">
     <g id="line2d_5">
      <path clip-path="url(#p17dd429249)" d="M 72 161.28 
L 309.6 161.28 
" style="fill:none;stroke:#b0b0b0;stroke-linecap:square;stroke-opacity:0.6;stroke-width:0.7;"/>
     </g>
     <g id="line2d_6">
      <g>
       <use style="stroke:#000000;stroke-width:0.8;" x="72" xlink:href="#mc6aa060e85" y="161.28"/>
      </g>
     </g>
     <g id="text_8">
      <!-- 0.0 -->
      <g transform="translate(46.926206 166.295904)scale(0.145 -0.145)">
       <use transform="scale(0.996264)" xlink:href="#CMSS17-48"/>
       <use transform="translate(46.843624 0)scale(0.996264)" xlink:href="#CMSS17-46"/>
       <use transform="translate(72.867828 0)scale(0.996264)" xlink:href="#CMSS17-48"/>
      </g>
     </g>
    </g>
    <g id="ytick_4">
     <g id="line2d_7">
      <path clip-path="url(#p17dd429249)" d="M 72 131.04 
L 309.6 131.04 
" style="fill:none;stroke:#b0b0b0;stroke-linecap:square;stroke-opacity:0.6;stroke-width:0.7;"/>
     </g>
     <g id="line2d_8">
      <g>
       <use style="stroke:#000000;stroke-width:0.8;" x="72" xlink:href="#mc6aa060e85" y="131.04"/>
      </g>
     </g>
     <g id="text_9">
      <!-- 0.3 -->
      <g transform="translate(46.926206 136.055904)scale(0.145 -0.145)">
       <use transform="scale(0.996264)" xlink:href="#CMSS17-48"/>
       <use transform="translate(46.843624 0)scale(0.996264)" xlink:href="#CMSS17-46"/>
       <use transform="translate(72.867828 0)scale(0.996264)" xlink:href="#CMSS17-51"/>
      </g>
     </g>
    </g>
    <g id="ytick_5">
     <g id="line2d_9">
      <path clip-path="url(#p17dd429249)" d="M 72 100.8 
L 309.6 100.8 
" style="fill:none;stroke:#b0b0b0;stroke-linecap:square;stroke-opacity:0.6;stroke-width:0.7;"/>
     </g>
     <g id="line2d_10">
      <g>
       <use style="stroke:#000000;stroke-width:0.8;" x="72" xlink:href="#mc6aa060e85" y="100.8"/>
      </g>
     </g>
     <g id="text_10">
      <!-- 0.6 -->
      <g transform="translate(46.926206 105.815904)scale(0.145 -0.145)">
       <use transform="scale(0.996264)" xlink:href="#CMSS17-48"/>
       <use transform="translate(46.843624 0)scale(0.996264)" xlink:href="#CMSS17-46"/>
       <use transform="translate(72.867828 0)scale(0.996264)" xlink:href="#CMSS17-54"/>
      </g>
     </g>
    </g>
    <g id="ytick_6">
     <g id="line2d_11">
      <path clip-path="url(#p17dd429249)" d="M 72 60.48 
L 309.6 60.48 
" style="fill:none;stroke:#b0b0b0;stroke-linecap:square;stroke-opacity:0.6;stroke-width:0.7;"/>
     </g>
     <g id="line2d_12">
      <g>
       <use style="stroke:#000000;stroke-width:0.8;" x="72" xlink:href="#mc6aa060e85" y="60.48"/>
      </g>
     </g>
     <g id="text_11">
      <!-- 1.0 -->
      <g transform="translate(46.926206 65.495904)scale(0.145 -0.145)">
       <use transform="scale(0.996264)" xlink:href="#CMSS17-49"/>
       <use transform="translate(46.843624 0)scale(0.996264)" xlink:href="#CMSS17-46"/>
       <use transform="translate(72.867828 0)scale(0.996264)" xlink:href="#CMSS17-48"/>
      </g>
     </g>
    </g>
    <g id="text_12">
     <!-- n axons -->
     <g transform="translate(39.438142 162.928628)rotate(-90)scale(0.18 -0.18)">
      <defs>
       <path d="M 40.90625 29.328125 
C 40.90625 35.671875 39.40625 44 28.09375 44 
C 21.703125 44 17.5 40.71875 14.703125 37.328125 
L 14.703125 43.09375 
L 7.40625 43.09375 
L 7.40625 0 
L 15 0 
L 15 24.359375 
C 15 30.6875 17.40625 37.9375 24.203125 37.9375 
C 33 37.9375 33.296875 32 33.296875 28.578125 
L 33.296875 0 
L 40.90625 0 
z
" id="CMSS17-110"/>
       <path d="M 37.59375 27.984375 
C 37.59375 37.375 30.90625 43.875 21.90625 43.875 
C 17.5 43.875 12.703125 43.078125 7.203125 39.890625 
L 7.796875 33.359375 
C 10.296875 35.125 14.59375 38 21.796875 38 
C 26.90625 38 30 34.0625 30 27.84375 
L 30 24 
C 14 24 4 19.34375 4 11.34375 
C 4 7.203125 6.5 -1 14.796875 -1 
C 16.296875 -1 24.40625 -1 30.203125 3.390625 
L 30.203125 -0.296875 
L 37.59375 -0.296875 
z
M 30 12.75 
C 30 10.953125 30 8.5625 27 6.78125 
C 24.40625 5.078125 21.09375 5.078125 19.703125 5.078125 
C 14.703125 5.078125 11.296875 7.984375 11.296875 11.625 
C 11.296875 18.921875 26.90625 18.921875 30 18.921875 
z
" id="CMSS17-97"/>
       <path d="M 24.796875 22.09375 
L 41.5 42.796875 
L 32.796875 42.796875 
L 21.296875 27.765625 
L 9.40625 42.796875 
L 0.5 42.796875 
L 17.796875 22.09375 
L 0 0 
L 8.796875 0 
L 21.296875 17.515625 
L 34.296875 0 
L 43.09375 0 
z
" id="CMSS17-120"/>
       <path d="M 44.203125 21.1875 
C 44.203125 34 34.703125 44 23.5 44 
C 12 44 2.703125 33.703125 2.703125 21.1875 
C 2.703125 8.5 12.296875 -1 23.40625 -1 
C 34.796875 -1 44.203125 8.796875 44.203125 21.1875 
z
M 23.5 5.265625 
C 16.40625 5.265625 10.296875 11.078125 10.296875 22 
C 10.296875 33.609375 17.40625 37.921875 23.40625 37.921875 
C 29.90625 37.921875 36.59375 33.21875 36.59375 22 
C 36.59375 10.671875 30.09375 5.265625 23.5 5.265625 
z
" id="CMSS17-111"/>
       <path d="M 32.203125 41.046875 
C 26.296875 43.859375 21.703125 43.859375 18.703125 43.859375 
C 11.59375 43.859375 3.09375 41.375 3.09375 31.296875 
C 3.09375 21.234375 14.09375 19.03125 17.09375 18.421875 
C 21.703125 17.53125 26.796875 16.53125 26.796875 11.5625 
C 26.796875 5.265625 19.59375 5.265625 18.296875 5.265625 
C 14.296875 5.265625 8.796875 6.359375 3.796875 9.96875 
L 2.59375 3.28125 
C 8.296875 0 13.796875 -1 18.40625 -1 
C 30.703125 -1 33.796875 6.5 33.796875 12.203125 
C 33.796875 17.09375 31 20.390625 29.09375 21.890625 
C 25.796875 24.5 24.59375 24.796875 16.40625 26.5 
C 15 26.703125 10.09375 27.796875 10.09375 32.28125 
C 10.09375 38 16.40625 38 17.796875 38 
C 24.296875 38 28.296875 35.984375 31 34.5 
z
" id="CMSS17-115"/>
      </defs>
      <use transform="scale(0.996264)" xlink:href="#CMSS17-110"/>
      <use transform="translate(79.434056 0)scale(0.996264)" xlink:href="#CMSS17-97"/>
      <use transform="translate(124.355976 0)scale(0.996264)" xlink:href="#CMSS17-120"/>
      <use transform="translate(167.356118 0)scale(0.996264)" xlink:href="#CMSS17-111"/>
      <use transform="translate(214.199742 0)scale(0.996264)" xlink:href="#CMSS17-110"/>
      <use transform="translate(262.404685 0)scale(0.996264)" xlink:href="#CMSS17-115"/>
     </g>
    </g>
   </g>
   <g id="line2d_13">
    <path clip-path="url(#p17dd429249)" d="M 106.56 182.974436 
L 106.56 185.798919 
" style="fill:none;stroke:#000000;stroke-linecap:square;stroke-opacity:0.7;"/>
   </g>
   <g id="line2d_14">
    <path clip-path="url(#p17dd429249)" d="M 106.56 169.72058 
L 106.56 168.746667 
" style="fill:none;stroke:#000000;stroke-linecap:square;stroke-opacity:0.7;"/>
   </g>
   <g id="line2d_15">
    <path clip-path="url(#p17dd429249)" d="M 101.376 185.798919 
L 111.744 185.798919 
" style="fill:none;stroke:#000000;stroke-linecap:square;stroke-opacity:0.7;"/>
   </g>
   <g id="line2d_16">
    <path clip-path="url(#p17dd429249)" d="M 101.376 168.746667 
L 111.744 168.746667 
" style="fill:none;stroke:#000000;stroke-linecap:square;stroke-opacity:0.7;"/>
   </g>
   <g id="line2d_17">
    <path clip-path="url(#p17dd429249)" d="M 149.76 187.964407 
L 149.76 202.633846 
" style="fill:none;stroke:#000000;stroke-linecap:square;stroke-opacity:0.7;"/>
   </g>
   <g id="line2d_18">
    <path clip-path="url(#p17dd429249)" d="M 149.76 166.177059 
L 149.76 163.08 
" style="fill:none;stroke:#000000;stroke-linecap:square;stroke-opacity:0.7;"/>
   </g>
   <g id="line2d_19">
    <path clip-path="url(#p17dd429249)" d="M 144.576 202.633846 
L 154.944 202.633846 
" style="fill:none;stroke:#000000;stroke-linecap:square;stroke-opacity:0.7;"/>
   </g>
   <g id="line2d_20">
    <path clip-path="url(#p17dd429249)" d="M 144.576 163.08 
L 154.944 163.08 
" style="fill:none;stroke:#000000;stroke-linecap:square;stroke-opacity:0.7;"/>
   </g>
   <g id="line2d_21">
    <path clip-path="url(#p17dd429249)" d="M 192.96 177.615577 
L 192.96 179.372308 
" style="fill:none;stroke:#000000;stroke-linecap:square;stroke-opacity:0.7;"/>
   </g>
   <g id="line2d_22">
    <path clip-path="url(#p17dd429249)" d="M 192.96 174.264 
L 192.96 170.88 
" style="fill:none;stroke:#000000;stroke-linecap:square;stroke-opacity:0.7;"/>
   </g>
   <g id="line2d_23">
    <path clip-path="url(#p17dd429249)" d="M 187.776 179.372308 
L 198.144 179.372308 
" style="fill:none;stroke:#000000;stroke-linecap:square;stroke-opacity:0.7;"/>
   </g>
   <g id="line2d_24">
    <path clip-path="url(#p17dd429249)" d="M 187.776 170.88 
L 198.144 170.88 
" style="fill:none;stroke:#000000;stroke-linecap:square;stroke-opacity:0.7;"/>
   </g>
   <g id="line2d_25">
    <path clip-path="url(#p17dd429249)" d="M 236.16 190.254899 
L 236.16 195.764211 
" style="fill:none;stroke:#000000;stroke-linecap:square;stroke-opacity:0.7;"/>
   </g>
   <g id="line2d_26">
    <path clip-path="url(#p17dd429249)" d="M 236.16 185.724 
L 236.16 183.456 
" style="fill:none;stroke:#000000;stroke-linecap:square;stroke-opacity:0.7;"/>
   </g>
   <g id="line2d_27">
    <path clip-path="url(#p17dd429249)" d="M 230.976 195.764211 
L 241.344 195.764211 
" style="fill:none;stroke:#000000;stroke-linecap:square;stroke-opacity:0.7;"/>
   </g>
   <g id="line2d_28">
    <path clip-path="url(#p17dd429249)" d="M 230.976 183.456 
L 241.344 183.456 
" style="fill:none;stroke:#000000;stroke-linecap:square;stroke-opacity:0.7;"/>
   </g>
   <g id="line2d_29">
    <path clip-path="url(#p17dd429249)" d="M 279.36 190.703415 
L 279.36 190.703415 
" style="fill:none;stroke:#000000;stroke-linecap:square;stroke-opacity:0.7;"/>
   </g>
   <g id="line2d_30">
    <path clip-path="url(#p17dd429249)" d="M 279.36 182.331613 
L 279.36 182.08 
" style="fill:none;stroke:#000000;stroke-linecap:square;stroke-opacity:0.7;"/>
   </g>
   <g id="line2d_31">
    <path clip-path="url(#p17dd429249)" d="M 274.176 190.703415 
L 284.544 190.703415 
" style="fill:none;stroke:#000000;stroke-linecap:square;stroke-opacity:0.7;"/>
   </g>
   <g id="line2d_32">
    <path clip-path="url(#p17dd429249)" d="M 274.176 182.08 
L 284.544 182.08 
" style="fill:none;stroke:#000000;stroke-linecap:square;stroke-opacity:0.7;"/>
   </g>
   <g id="line2d_33">
    <path clip-path="url(#p17dd429249)" d="M 106.56 105.030715 
L 106.56 107.915294 
" style="fill:none;stroke:#000000;stroke-linecap:square;stroke-opacity:0.7;"/>
   </g>
   <g id="line2d_34">
    <path clip-path="url(#p17dd429249)" d="M 106.56 93.308986 
L 106.56 86.613333 
" style="fill:none;stroke:#000000;stroke-linecap:square;stroke-opacity:0.7;"/>
   </g>
   <g id="line2d_35">
    <path clip-path="url(#p17dd429249)" d="M 101.376 107.915294 
L 111.744 107.915294 
" style="fill:none;stroke:#000000;stroke-linecap:square;stroke-opacity:0.7;"/>
   </g>
   <g id="line2d_36">
    <path clip-path="url(#p17dd429249)" d="M 101.376 86.613333 
L 111.744 86.613333 
" style="fill:none;stroke:#000000;stroke-linecap:square;stroke-opacity:0.7;"/>
   </g>
   <g id="line2d_37">
    <path clip-path="url(#p17dd429249)" d="M 149.76 112.119917 
L 149.76 119.926154 
" style="fill:none;stroke:#000000;stroke-linecap:square;stroke-opacity:0.7;"/>
   </g>
   <g id="line2d_38">
    <path clip-path="url(#p17dd429249)" d="M 149.76 101.324118 
L 149.76 87.48 
" style="fill:none;stroke:#000000;stroke-linecap:square;stroke-opacity:0.7;"/>
   </g>
   <g id="line2d_39">
    <path clip-path="url(#p17dd429249)" d="M 144.576 119.926154 
L 154.944 119.926154 
" style="fill:none;stroke:#000000;stroke-linecap:square;stroke-opacity:0.7;"/>
   </g>
   <g id="line2d_40">
    <path clip-path="url(#p17dd429249)" d="M 144.576 87.48 
L 154.944 87.48 
" style="fill:none;stroke:#000000;stroke-linecap:square;stroke-opacity:0.7;"/>
   </g>
   <g id="line2d_41">
    <path clip-path="url(#p17dd429249)" d="M 192.96 108.840577 
L 192.96 115.235556 
" style="fill:none;stroke:#000000;stroke-linecap:square;stroke-opacity:0.7;"/>
   </g>
   <g id="line2d_42">
    <path clip-path="url(#p17dd429249)" d="M 192.96 93.961778 
L 192.96 86.08 
" style="fill:none;stroke:#000000;stroke-linecap:square;stroke-opacity:0.7;"/>
   </g>
   <g id="line2d_43">
    <path clip-path="url(#p17dd429249)" d="M 187.776 115.235556 
L 198.144 115.235556 
" style="fill:none;stroke:#000000;stroke-linecap:square;stroke-opacity:0.7;"/>
   </g>
   <g id="line2d_44">
    <path clip-path="url(#p17dd429249)" d="M 187.776 86.08 
L 198.144 86.08 
" style="fill:none;stroke:#000000;stroke-linecap:square;stroke-opacity:0.7;"/>
   </g>
   <g id="line2d_45">
    <path clip-path="url(#p17dd429249)" d="M 236.16 101.162186 
L 236.16 106.901053 
" style="fill:none;stroke:#000000;stroke-linecap:square;stroke-opacity:0.7;"/>
   </g>
   <g id="line2d_46">
    <path clip-path="url(#p17dd429249)" d="M 236.16 96.39 
L 236.16 90.72 
" style="fill:none;stroke:#000000;stroke-linecap:square;stroke-opacity:0.7;"/>
   </g>
   <g id="line2d_47">
    <path clip-path="url(#p17dd429249)" d="M 230.976 106.901053 
L 241.344 106.901053 
" style="fill:none;stroke:#000000;stroke-linecap:square;stroke-opacity:0.7;"/>
   </g>
   <g id="line2d_48">
    <path clip-path="url(#p17dd429249)" d="M 230.976 90.72 
L 241.344 90.72 
" style="fill:none;stroke:#000000;stroke-linecap:square;stroke-opacity:0.7;"/>
   </g>
   <g id="line2d_49">
    <path clip-path="url(#p17dd429249)" d="M 279.36 98.078049 
L 279.36 107.192195 
" style="fill:none;stroke:#000000;stroke-linecap:square;stroke-opacity:0.7;"/>
   </g>
   <g id="line2d_50">
    <path clip-path="url(#p17dd429249)" d="M 279.36 88.428387 
L 279.36 84.48 
" style="fill:none;stroke:#000000;stroke-linecap:square;stroke-opacity:0.7;"/>
   </g>
   <g id="line2d_51">
    <path clip-path="url(#p17dd429249)" d="M 274.176 107.192195 
L 284.544 107.192195 
" style="fill:none;stroke:#000000;stroke-linecap:square;stroke-opacity:0.7;"/>
   </g>
   <g id="line2d_52">
    <path clip-path="url(#p17dd429249)" d="M 274.176 84.48 
L 284.544 84.48 
" style="fill:none;stroke:#000000;stroke-linecap:square;stroke-opacity:0.7;"/>
   </g>
   <g id="patch_5">
    <path d="M 72 241.92 
L 72 30.24 
" style="fill:none;stroke:#000000;stroke-linecap:square;stroke-linejoin:miter;stroke-width:0.8;"/>
   </g>
   <g id="patch_6">
    <path d="M 309.6 241.92 
L 309.6 30.24 
" style="fill:none;stroke:#000000;stroke-linecap:square;stroke-linejoin:miter;stroke-width:0.8;"/>
   </g>
   <g id="patch_7">
    <path d="M 72 241.92 
L 309.6 241.92 
" style="fill:none;stroke:#000000;stroke-linecap:square;stroke-linejoin:miter;stroke-width:0.8;"/>
   </g>
   <g id="patch_8">
    <path d="M 72 30.24 
L 309.6 30.24 
" style="fill:none;stroke:#000000;stroke-linecap:square;stroke-linejoin:miter;stroke-width:0.8;"/>
   </g>
   <g id="text_13">
    <!-- design -->
    <g transform="translate(168.931218 24.24)scale(0.18 -0.18)">
     <defs>
      <path d="M 40.796875 69 
L 33.40625 69 
L 33.40625 38.09375 
C 30.296875 40.671875 25.203125 43.0625 19.59375 43.0625 
C 10.5 43.0625 3.296875 33.296875 3.296875 21.046875 
C 3.296875 8.78125 10.40625 -1 19.296875 -1 
C 26.203125 -1 30.796875 2.6875 33.203125 4.78125 
L 33.203125 -0.203125 
L 40.796875 -0.203125 
z
M 33.203125 13.0625 
C 33.203125 11.671875 33.203125 10.203125 30.09375 7.53125 
C 28.09375 5.859375 25.703125 5.078125 23.40625 5.078125 
C 18 5.078125 10.90625 9 10.90625 20.9375 
C 10.90625 33.34375 18.90625 37 24.40625 37 
C 28.09375 37 31.09375 35.21875 33.203125 32.265625 
z
" id="CMSS17-100"/>
      <path d="M 39.09375 21.515625 
C 39.09375 24.84375 38.90625 31.296875 35.703125 36.640625 
C 32.203125 42.390625 26.5 44 22.203125 44 
C 11.796875 44 3 34.1875 3 21.484375 
C 3 9.09375 12.09375 -1 23.59375 -1 
C 28.09375 -1 33.59375 0.296875 38.59375 3.875 
C 38.59375 4.28125 38.40625 6.46875 38.296875 6.5625 
C 38.296875 6.765625 38 9.84375 38 10.25 
C 33.203125 6.359375 27.703125 5.078125 23.703125 5.078125 
C 17.296875 5.078125 10.40625 10.421875 10.09375 21.515625 
z
M 10.90625 27 
C 12.203125 32.5625 16.59375 37.828125 22.203125 37.828125 
C 23.703125 37.828125 30.703125 37.828125 32.5 27 
z
" id="CMSS17-101"/>
      <path d="M 15.296875 65.359375 
L 6.90625 65.359375 
L 6.90625 57 
L 15.296875 57 
z
M 14.796875 42.796875 
L 7.40625 42.796875 
L 7.40625 0 
L 14.796875 0 
z
" id="CMSS17-105"/>
      <path d="M 44.5 43.875 
C 38.796875 43.875 33.90625 42.78125 29.90625 40.890625 
C 26.59375 43.390625 23.203125 43.875 20.90625 43.875 
C 12.203125 43.875 5.59375 36.703125 5.59375 28.34375 
C 5.59375 22.9375 8.59375 18.859375 8.796875 18.671875 
C 7 16.171875 6 13.484375 6 10.5 
C 6 7 7.40625 4.515625 8.5 3.125 
C 3.296875 -0.046875 2.59375 -4.90625 2.59375 -6.796875 
C 2.59375 -14.03125 11.703125 -20 23.40625 -20 
C 35.203125 -20 44.296875 -14.03125 44.296875 -6.6875 
C 44.296875 7 29 7 24.796875 7 
L 16.703125 7 
C 15.203125 7 11.203125 7 11.203125 12.359375 
C 11.203125 14.390625 12.09375 15.6875 12.203125 15.78125 
C 13.703125 14.6875 16.796875 13 20.90625 13 
C 29.203125 13 36.09375 19.96875 36.09375 28.546875 
C 36.09375 33.3125 33.90625 36.796875 33 38 
L 33.296875 38 
C 33.59375 38 37.796875 38 39.296875 38 
C 42.5 38 42.796875 37.953125 45.59375 37.796875 
z
M 20.90625 18.46875 
C 17.5 18.46875 12.703125 20.546875 12.703125 28.484375 
C 12.703125 37.109375 18.203125 38.5 20.796875 38.5 
C 24.203125 38.5 29 36.421875 29 28.484375 
C 29 19.859375 23.5 18.46875 20.90625 18.46875 
z
M 24.703125 -0.15625 
C 27.09375 -0.15625 37.203125 -0.15625 37.203125 -6.90625 
C 37.203125 -11.15625 31 -14.515625 23.5 -14.515625 
C 15.90625 -14.515625 9.703125 -11.25 9.703125 -6.796875 
C 9.703125 -6.296875 9.703125 -0.15625 16.59375 -0.15625 
z
" id="CMSS17-103"/>
     </defs>
     <use transform="scale(0.996264)" xlink:href="#CMSS17-100"/>
     <use transform="translate(48.204943 0)scale(0.996264)" xlink:href="#CMSS17-101"/>
     <use transform="translate(89.843765 0)scale(0.996264)" xlink:href="#CMSS17-115"/>
     <use transform="translate(125.757307 0)scale(0.996264)" xlink:href="#CMSS17-105"/>
     <use transform="translate(147.93803 0)scale(0.996264)" xlink:href="#CMSS17-103"/>
     <use transform="translate(194.781654 0)scale(0.996264)" xlink:href="#CMSS17-110"/>
    </g>
   </g>
   <g id="patch_9">
    <path clip-path="url(#p17dd429249)" d="M 96.192 182.974436 
L 116.928 182.974436 
L 116.928 169.72058 
L 96.192 169.72058 
L 96.192 182.974436 
z
" style="fill:#54aeb3;stroke:#54aeb3;stroke-linejoin:miter;"/>
   </g>
   <g id="patch_10">
    <path clip-path="url(#p17dd429249)" d="M 139.392 187.964407 
L 160.128 187.964407 
L 160.128 166.177059 
L 139.392 166.177059 
L 139.392 187.964407 
z
" style="fill:#393b79;stroke:#393b79;stroke-linejoin:miter;"/>
   </g>
   <g id="patch_11">
    <path clip-path="url(#p17dd429249)" d="M 182.592 177.615577 
L 203.328 177.615577 
L 203.328 174.264 
L 182.592 174.264 
L 182.592 177.615577 
z
" style="fill:#5254a3;stroke:#5254a3;stroke-linejoin:miter;"/>
   </g>
   <g id="patch_12">
    <path clip-path="url(#p17dd429249)" d="M 225.792 190.254899 
L 246.528 190.254899 
L 246.528 185.724 
L 225.792 185.724 
L 225.792 190.254899 
z
" style="fill:#6b6ecf;stroke:#6b6ecf;stroke-linejoin:miter;"/>
   </g>
   <g id="patch_13">
    <path clip-path="url(#p17dd429249)" d="M 268.992 190.703415 
L 289.728 190.703415 
L 289.728 182.331613 
L 268.992 182.331613 
L 268.992 190.703415 
z
" style="fill:#9c9ede;stroke:#9c9ede;stroke-linejoin:miter;"/>
   </g>
   <g id="patch_14">
    <path clip-path="url(#p17dd429249)" d="M 96.192 105.030715 
L 116.928 105.030715 
L 116.928 93.308986 
L 96.192 93.308986 
L 96.192 105.030715 
z
" style="fill:#54aeb3;stroke:#54aeb3;stroke-linejoin:miter;"/>
   </g>
   <g id="patch_15">
    <path clip-path="url(#p17dd429249)" d="M 139.392 112.119917 
L 160.128 112.119917 
L 160.128 101.324118 
L 139.392 101.324118 
L 139.392 112.119917 
z
" style="fill:#393b79;stroke:#393b79;stroke-linejoin:miter;"/>
   </g>
   <g id="patch_16">
    <path clip-path="url(#p17dd429249)" d="M 182.592 108.840577 
L 203.328 108.840577 
L 203.328 93.961778 
L 182.592 93.961778 
L 182.592 108.840577 
z
" style="fill:#5254a3;stroke:#5254a3;stroke-linejoin:miter;"/>
   </g>
   <g id="patch_17">
    <path clip-path="url(#p17dd429249)" d="M 225.792 101.162186 
L 246.528 101.162186 
L 246.528 96.39 
L 225.792 96.39 
L 225.792 101.162186 
z
" style="fill:#6b6ecf;stroke:#6b6ecf;stroke-linejoin:miter;"/>
   </g>
   <g id="patch_18">
    <path clip-path="url(#p17dd429249)" d="M 268.992 98.078049 
L 289.728 98.078049 
L 289.728 88.428387 
L 268.992 88.428387 
L 268.992 98.078049 
z
" style="fill:#9c9ede;stroke:#9c9ede;stroke-linejoin:miter;"/>
   </g>
   <g id="PathCollection_1">
    <defs>
     <path d="M 2.738613 0 
L -2.738613 -0 
" id="m023b5ce40b" style="stroke:#000000;stroke-opacity:0.15;stroke-width:1.4;"/>
    </defs>
    <g>
     <use style="fill-opacity:0.15;stroke:#000000;stroke-opacity:0.15;stroke-width:1.4;" x="107.33249" xlink:href="#m023b5ce40b" y="182.032941"/>
     <use style="fill-opacity:0.15;stroke:#000000;stroke-opacity:0.15;stroke-width:1.4;" x="106.344971" xlink:href="#m023b5ce40b" y="185.798919"/>
     <use style="fill-opacity:0.15;stroke:#000000;stroke-opacity:0.15;stroke-width:1.4;" x="107.567285" xlink:href="#m023b5ce40b" y="170.045217"/>
     <use style="fill-opacity:0.15;stroke:#000000;stroke-opacity:0.15;stroke-width:1.4;" x="108.928616" xlink:href="#m023b5ce40b" y="168.746667"/>
    </g>
   </g>
   <g id="PathCollection_2">
    <g>
     <use style="fill-opacity:0.15;stroke:#000000;stroke-opacity:0.15;stroke-width:1.4;" x="149.395845" xlink:href="#m023b5ce40b" y="167.209412"/>
     <use style="fill-opacity:0.15;stroke:#000000;stroke-opacity:0.15;stroke-width:1.4;" x="149.39587" xlink:href="#m023b5ce40b" y="183.074595"/>
     <use style="fill-opacity:0.15;stroke:#000000;stroke-opacity:0.15;stroke-width:1.4;" x="152.215992" xlink:href="#m023b5ce40b" y="202.633846"/>
     <use style="fill-opacity:0.15;stroke:#000000;stroke-opacity:0.15;stroke-width:1.4;" x="150.953514" xlink:href="#m023b5ce40b" y="163.08"/>
    </g>
   </g>
   <g id="PathCollection_3">
    <g>
     <use style="fill-opacity:0.15;stroke:#000000;stroke-opacity:0.15;stroke-width:1.4;" x="192.229873" xlink:href="#m023b5ce40b" y="177.03"/>
     <use style="fill-opacity:0.15;stroke:#000000;stroke-opacity:0.15;stroke-width:1.4;" x="193.803789" xlink:href="#m023b5ce40b" y="170.88"/>
     <use style="fill-opacity:0.15;stroke:#000000;stroke-opacity:0.15;stroke-width:1.4;" x="192.239293" xlink:href="#m023b5ce40b" y="197.368889"/>
     <use style="fill-opacity:0.15;stroke:#000000;stroke-opacity:0.15;stroke-width:1.4;" x="192.235697" xlink:href="#m023b5ce40b" y="176.213333"/>
     <use style="fill-opacity:0.15;stroke:#000000;stroke-opacity:0.15;stroke-width:1.4;" x="193.3363" xlink:href="#m023b5ce40b" y="176.495094"/>
     <use style="fill-opacity:0.15;stroke:#000000;stroke-opacity:0.15;stroke-width:1.4;" x="189.984467" xlink:href="#m023b5ce40b" y="175.392"/>
     <use style="fill-opacity:0.15;stroke:#000000;stroke-opacity:0.15;stroke-width:1.4;" x="190.277408" xlink:href="#m023b5ce40b" y="179.372308"/>
     <use style="fill-opacity:0.15;stroke:#000000;stroke-opacity:0.15;stroke-width:1.4;" x="192.08553" xlink:href="#m023b5ce40b" y="166.08"/>
    </g>
   </g>
   <g id="PathCollection_4">
    <g>
     <use style="fill-opacity:0.15;stroke:#000000;stroke-opacity:0.15;stroke-width:1.4;" x="234.584845" xlink:href="#m023b5ce40b" y="186.48"/>
     <use style="fill-opacity:0.15;stroke:#000000;stroke-opacity:0.15;stroke-width:1.4;" x="236.648717" xlink:href="#m023b5ce40b" y="188.418462"/>
     <use style="fill-opacity:0.15;stroke:#000000;stroke-opacity:0.15;stroke-width:1.4;" x="234.747841" xlink:href="#m023b5ce40b" y="183.456"/>
     <use style="fill-opacity:0.15;stroke:#000000;stroke-opacity:0.15;stroke-width:1.4;" x="233.963585" xlink:href="#m023b5ce40b" y="195.764211"/>
    </g>
   </g>
   <g id="PathCollection_5">
    <g>
     <use style="fill-opacity:0.15;stroke:#000000;stroke-opacity:0.15;stroke-width:1.4;" x="281.639377" xlink:href="#m023b5ce40b" y="182.08"/>
     <use style="fill-opacity:0.15;stroke:#000000;stroke-opacity:0.15;stroke-width:1.4;" x="279.008873" xlink:href="#m023b5ce40b" y="185.76"/>
     <use style="fill-opacity:0.15;stroke:#000000;stroke-opacity:0.15;stroke-width:1.4;" x="279.46502" xlink:href="#m023b5ce40b" y="205.533659"/>
     <use style="fill-opacity:0.15;stroke:#000000;stroke-opacity:0.15;stroke-width:1.4;" x="277.144232" xlink:href="#m023b5ce40b" y="182.415484"/>
    </g>
   </g>
   <g id="PathCollection_6">
    <defs>
     <path d="M -2.738613 0 
L 2.738613 0 
M 0 2.738613 
L 0 -2.738613 
" id="me9c4e6bc19" style="stroke:#000000;stroke-opacity:0.15;stroke-width:1.4;"/>
    </defs>
    <g>
     <use style="fill-opacity:0.15;stroke:#000000;stroke-opacity:0.15;stroke-width:1.4;" x="105.713376" xlink:href="#me9c4e6bc19" y="107.915294"/>
     <use style="fill-opacity:0.15;stroke:#000000;stroke-opacity:0.15;stroke-width:1.4;" x="106.732507" xlink:href="#me9c4e6bc19" y="104.069189"/>
     <use style="fill-opacity:0.15;stroke:#000000;stroke-opacity:0.15;stroke-width:1.4;" x="104.769975" xlink:href="#me9c4e6bc19" y="95.54087"/>
     <use style="fill-opacity:0.15;stroke:#000000;stroke-opacity:0.15;stroke-width:1.4;" x="107.144286" xlink:href="#me9c4e6bc19" y="86.613333"/>
    </g>
   </g>
   <g id="PathCollection_7">
    <g>
     <use style="fill-opacity:0.15;stroke:#000000;stroke-opacity:0.15;stroke-width:1.4;" x="148.825887" xlink:href="#me9c4e6bc19" y="105.938824"/>
     <use style="fill-opacity:0.15;stroke:#000000;stroke-opacity:0.15;stroke-width:1.4;" x="149.306358" xlink:href="#me9c4e6bc19" y="109.517838"/>
     <use style="fill-opacity:0.15;stroke:#000000;stroke-opacity:0.15;stroke-width:1.4;" x="148.824226" xlink:href="#me9c4e6bc19" y="119.926154"/>
     <use style="fill-opacity:0.15;stroke:#000000;stroke-opacity:0.15;stroke-width:1.4;" x="152.640663" xlink:href="#me9c4e6bc19" y="87.48"/>
    </g>
   </g>
   <g id="PathCollection_8">
    <g>
     <use style="fill-opacity:0.15;stroke:#000000;stroke-opacity:0.15;stroke-width:1.4;" x="192.939009" xlink:href="#me9c4e6bc19" y="107.73"/>
     <use style="fill-opacity:0.15;stroke:#000000;stroke-opacity:0.15;stroke-width:1.4;" x="191.315048" xlink:href="#me9c4e6bc19" y="96.48"/>
     <use style="fill-opacity:0.15;stroke:#000000;stroke-opacity:0.15;stroke-width:1.4;" x="194.239222" xlink:href="#me9c4e6bc19" y="115.235556"/>
     <use style="fill-opacity:0.15;stroke:#000000;stroke-opacity:0.15;stroke-width:1.4;" x="191.061344" xlink:href="#me9c4e6bc19" y="91.591111"/>
     <use style="fill-opacity:0.15;stroke:#000000;stroke-opacity:0.15;stroke-width:1.4;" x="193.284825" xlink:href="#me9c4e6bc19" y="102.321509"/>
     <use style="fill-opacity:0.15;stroke:#000000;stroke-opacity:0.15;stroke-width:1.4;" x="189.912321" xlink:href="#me9c4e6bc19" y="94.752"/>
     <use style="fill-opacity:0.15;stroke:#000000;stroke-opacity:0.15;stroke-width:1.4;" x="190.894405" xlink:href="#me9c4e6bc19" y="112.172308"/>
     <use style="fill-opacity:0.15;stroke:#000000;stroke-opacity:0.15;stroke-width:1.4;" x="193.266159" xlink:href="#me9c4e6bc19" y="86.08"/>
    </g>
   </g>
   <g id="PathCollection_9">
    <g>
     <use style="fill-opacity:0.15;stroke:#000000;stroke-opacity:0.15;stroke-width:1.4;" x="237.308463" xlink:href="#me9c4e6bc19" y="98.28"/>
     <use style="fill-opacity:0.15;stroke:#000000;stroke-opacity:0.15;stroke-width:1.4;" x="236.426512" xlink:href="#me9c4e6bc19" y="99.249231"/>
     <use style="fill-opacity:0.15;stroke:#000000;stroke-opacity:0.15;stroke-width:1.4;" x="235.980144" xlink:href="#me9c4e6bc19" y="90.72"/>
     <use style="fill-opacity:0.15;stroke:#000000;stroke-opacity:0.15;stroke-width:1.4;" x="235.691724" xlink:href="#me9c4e6bc19" y="106.901053"/>
    </g>
   </g>
   <g id="PathCollection_10">
    <g>
     <use style="fill-opacity:0.15;stroke:#000000;stroke-opacity:0.15;stroke-width:1.4;" x="277.060603" xlink:href="#me9c4e6bc19" y="84.48"/>
     <use style="fill-opacity:0.15;stroke:#000000;stroke-opacity:0.15;stroke-width:1.4;" x="278.240498" xlink:href="#me9c4e6bc19" y="95.04"/>
     <use style="fill-opacity:0.15;stroke:#000000;stroke-opacity:0.15;stroke-width:1.4;" x="278.643615" xlink:href="#me9c4e6bc19" y="107.192195"/>
     <use style="fill-opacity:0.15;stroke:#000000;stroke-opacity:0.15;stroke-width:1.4;" x="281.004036" xlink:href="#me9c4e6bc19" y="89.744516"/>
    </g>
   </g>
   <g id="line2d_53">
    <path clip-path="url(#p17dd429249)" d="M 96.192 176.039079 
L 116.928 176.039079 
" style="fill:none;stroke:#000000;stroke-linecap:square;"/>
   </g>
   <g id="line2d_54">
    <path clip-path="url(#p17dd429249)" d="M 139.392 175.142003 
L 160.128 175.142003 
" style="fill:none;stroke:#000000;stroke-linecap:square;"/>
   </g>
   <g id="line2d_55">
    <path clip-path="url(#p17dd429249)" d="M 182.592 176.354214 
L 203.328 176.354214 
" style="fill:none;stroke:#000000;stroke-linecap:square;"/>
   </g>
   <g id="line2d_56">
    <path clip-path="url(#p17dd429249)" d="M 225.792 187.449231 
L 246.528 187.449231 
" style="fill:none;stroke:#000000;stroke-linecap:square;"/>
   </g>
   <g id="line2d_57">
    <path clip-path="url(#p17dd429249)" d="M 268.992 184.087742 
L 289.728 184.087742 
" style="fill:none;stroke:#000000;stroke-linecap:square;"/>
   </g>
   <g id="line2d_58">
    <path clip-path="url(#p17dd429249)" d="M 96.192 99.805029 
L 116.928 99.805029 
" style="fill:none;stroke:#000000;stroke-linecap:square;"/>
   </g>
   <g id="line2d_59">
    <path clip-path="url(#p17dd429249)" d="M 139.392 107.728331 
L 160.128 107.728331 
" style="fill:none;stroke:#000000;stroke-linecap:square;"/>
   </g>
   <g id="line2d_60">
    <path clip-path="url(#p17dd429249)" d="M 182.592 99.400755 
L 203.328 99.400755 
" style="fill:none;stroke:#000000;stroke-linecap:square;"/>
   </g>
   <g id="line2d_61">
    <path clip-path="url(#p17dd429249)" d="M 225.792 98.764615 
L 246.528 98.764615 
" style="fill:none;stroke:#000000;stroke-linecap:square;"/>
   </g>
   <g id="line2d_62">
    <path clip-path="url(#p17dd429249)" d="M 268.992 92.392258 
L 289.728 92.392258 
" style="fill:none;stroke:#000000;stroke-linecap:square;"/>
   </g>
  </g>
 </g>
 <defs>
  <clipPath id="p17dd429249">
   <rect height="211.68" width="237.6" x="72" y="30.24"/>
  </clipPath>
 </defs>
</svg>
