<?xml version="1.0" encoding="utf-8" standalone="no"?>
<!DOCTYPE svg PUBLIC "-//W3C//DTD SVG 1.1//EN"
  "http://www.w3.org/Graphics/SVG/1.1/DTD/svg11.dtd">
<!-- Created with matplotlib (https://matplotlib.org/) -->
<svg height="302.4pt" version="1.1" viewBox="0 0 295.2 302.4" width="295.2pt" xmlns="http://www.w3.org/2000/svg" xmlns:xlink="http://www.w3.org/1999/xlink">
 <metadata>
  <rdf:RDF xmlns:cc="http://creativecommons.org/ns#" xmlns:dc="http://purl.org/dc/elements/1.1/" xmlns:rdf="http://www.w3.org/1999/02/22-rdf-syntax-ns#">
   <cc:Work>
    <dc:type rdf:resource="http://purl.org/dc/dcmitype/StillImage"/>
    <dc:date>2021-12-23T23:52:55.707008</dc:date>
    <dc:format>image/svg+xml</dc:format>
    <dc:creator>
     <cc:Agent>
      <dc:title>Matplotlib v3.3.4, https://matplotlib.org/</dc:title>
     </cc:Agent>
    </dc:creator>
   </cc:Work>
  </rdf:RDF>
 </metadata>
 <defs>
  <style type="text/css">*{stroke-linecap:butt;stroke-linejoin:round;}</style>
 </defs>
 <g id="figure_1">
  <g id="patch_1">
   <path d="M 0 302.4 
L 295.2 302.4 
L 295.2 0 
L 0 0 
z
" style="fill:#ffffff;"/>
  </g>
  <g id="axes_1">
   <g id="patch_2">
    <path d="M 72 241.92 
L 223.2 241.92 
L 223.2 30.24 
L 72 30.24 
z
" style="fill:#ffffff;"/>
   </g>
   <g id="patch_3">
    <path clip-path="url(#pf094265df7)" d="M 72 161.28 
L 234 161.28 
L 234 30.24 
L 72 30.24 
z
" style="fill:#01ff6b;opacity:0.12;stroke:#01ff6b;stroke-linejoin:miter;"/>
   </g>
   <g id="patch_4">
    <path clip-path="url(#pf094265df7)" d="M 72 161.28 
L 234 161.28 
L 234 241.92 
L 72 241.92 
z
" style="fill:#c22121;opacity:0.12;stroke:#c22121;stroke-linejoin:miter;"/>
   </g>
   <g id="matplotlib.axis_1">
    <g id="xtick_1">
     <g id="text_1">
      <!-- 0 -->
      <g transform="translate(95.971347 263.688032)rotate(-45)scale(0.18 -0.18)">
       <defs>
        <path d="M 43.09375 31.9375 
C 43.09375 37.578125 43 48.078125 38.90625 56.1875 
C 34.796875 64 28.203125 66.078125 23.5 66.078125 
C 16.703125 66.078125 10.90625 62.109375 7.90625 55.78125 
C 4.703125 49.15625 3.796875 42.328125 3.796875 31.9375 
C 3.796875 24.828125 4.09375 16.109375 7.703125 8.484375 
C 11.796875 0.078125 18.703125 -2 23.40625 -2 
C 29.59375 -2 35.59375 1.265625 39 8.09375 
C 42.5 15.21875 43.09375 23.03125 43.09375 31.9375 
z
M 23.40625 4.078125 
C 15.796875 4.078125 13.5 12.671875 12.796875 15.546875 
C 11.59375 20.46875 11.40625 25.21875 11.40625 33.03125 
C 11.40625 39.15625 11.40625 46.0625 13.296875 51.515625 
C 15.59375 57.828125 19.59375 60 23.40625 60 
C 30.796875 60 33.203125 52.6875 34 50.125 
C 35.5 44.890625 35.5 38.765625 35.5 33.03125 
C 35.5 23.84375 35.5 4.078125 23.40625 4.078125 
z
" id="CMSS17-48"/>
       </defs>
       <use transform="scale(0.996264)" xlink:href="#CMSS17-48"/>
      </g>
     </g>
    </g>
    <g id="xtick_2">
     <g id="text_2">
      <!-- 1 -->
      <g transform="translate(139.171347 263.688032)rotate(-45)scale(0.18 -0.18)">
       <defs>
        <path d="M 28.40625 67 
L 26.5 67 
C 21.09375 61.5625 14.796875 60.78125 8.40625 60.78125 
L 8.40625 55 
C 11.296875 55 16 55 20.703125 57.296875 
L 20.703125 5.765625 
L 8.90625 5.765625 
L 8.90625 0 
L 40.203125 0 
L 40.203125 5.765625 
L 28.40625 5.765625 
z
" id="CMSS17-49"/>
       </defs>
       <use transform="scale(0.996264)" xlink:href="#CMSS17-49"/>
      </g>
     </g>
    </g>
    <g id="xtick_3">
     <g id="text_3">
      <!-- 3 -->
      <g transform="translate(182.371347 263.688032)rotate(-45)scale(0.18 -0.18)">
       <defs>
        <path d="M 15.703125 31.640625 
L 22.5 31.640625 
C 31.90625 31.640625 34.59375 23.546875 34.59375 17.90625 
C 34.59375 10.203125 30.203125 4.171875 23 4.171875 
C 17.40625 4.171875 9.5 6.9375 5 14.25 
C 4.296875 10.796875 4.296875 10.59375 3.90625 8.21875 
C 8.59375 1.375 16.203125 -2 23.203125 -2 
C 34.59375 -2 43 7.390625 43 17.78125 
C 43 25.59375 37.5 32.140625 30 34.609375 
C 36 37.875 40.40625 44 40.40625 51.140625 
C 40.40625 59.453125 32.703125 66.078125 23.296875 66.078125 
C 14.703125 66.078125 8 60.8125 5.203125 55.15625 
C 5.90625 54.1875 7.703125 51.3125 8.59375 49.828125 
C 10.796875 55.65625 16.5 60 23.203125 60 
C 28.796875 60 32.5 56.359375 32.5 51.109375 
C 32.5 45.671875 29 39.734375 23.09375 38.359375 
C 22.703125 38.359375 16.5 37.765625 15.703125 37.671875 
z
" id="CMSS17-51"/>
       </defs>
       <use transform="scale(0.996264)" xlink:href="#CMSS17-51"/>
      </g>
     </g>
    </g>
   </g>
   <g id="matplotlib.axis_2">
    <g id="ytick_1">
     <g id="line2d_1">
      <path clip-path="url(#pf094265df7)" d="M 72 221.76 
L 223.2 221.76 
" style="fill:none;stroke:#b0b0b0;stroke-linecap:square;stroke-opacity:0.6;stroke-width:0.7;"/>
     </g>
     <g id="line2d_2">
      <defs>
       <path d="M 0 0 
L -3.5 0 
" id="m64dbce6af9" style="stroke:#000000;stroke-width:0.8;"/>
      </defs>
      <g>
       <use style="stroke:#000000;stroke-width:0.8;" x="72" xlink:href="#m64dbce6af9" y="221.76"/>
      </g>
     </g>
     <g id="text_4">
      <!-- 0.6 -->
      <g transform="translate(46.926206 226.775904)scale(0.145 -0.145)">
       <defs>
        <path d="M 17 7.96875 
L 9 7.96875 
L 9 0 
L 17 0 
z
" id="CMSS17-46"/>
        <path d="M 39 64.078125 
C 34.796875 65.78125 31.796875 66.078125 29 66.078125 
C 16 66.078125 3.90625 52.625 3.90625 31.34375 
C 3.90625 4.140625 15.40625 -2 23.59375 -2 
C 28.09375 -2 32.59375 -0.609375 36.90625 4.375 
C 41.296875 9.640625 43 14.03125 43 21.703125 
C 43 34.046875 36.90625 45 27.796875 45 
C 21.203125 45 15.5 41.515625 12 37.125 
C 13 50.90625 19.59375 60 29.09375 60 
C 31.703125 60 35.09375 59.625 39 57.96875 
z
M 12.09375 21.390625 
C 12.09375 22.1875 12.09375 22.6875 12.203125 24.1875 
C 12.203125 31.953125 16.703125 38.921875 24 38.921875 
C 28.703125 38.921875 31.09375 36.4375 32.90625 33.359375 
C 35 29.46875 35.09375 25.78125 35.09375 21.6875 
C 35.09375 17.8125 35.09375 13.921875 32.796875 9.953125 
C 30.90625 6.859375 28.40625 4.171875 23.59375 4.171875 
C 14.09375 4.171875 12.5 17.40625 12.09375 21.390625 
z
" id="CMSS17-54"/>
       </defs>
       <use transform="scale(0.996264)" xlink:href="#CMSS17-48"/>
       <use transform="translate(46.843624 0)scale(0.996264)" xlink:href="#CMSS17-46"/>
       <use transform="translate(72.867828 0)scale(0.996264)" xlink:href="#CMSS17-54"/>
      </g>
     </g>
    </g>
    <g id="ytick_2">
     <g id="line2d_3">
      <path clip-path="url(#pf094265df7)" d="M 72 191.52 
L 223.2 191.52 
" style="fill:none;stroke:#b0b0b0;stroke-linecap:square;stroke-opacity:0.6;stroke-width:0.7;"/>
     </g>
     <g id="line2d_4">
      <g>
       <use style="stroke:#000000;stroke-width:0.8;" x="72" xlink:href="#m64dbce6af9" y="191.52"/>
      </g>
     </g>
     <g id="text_5">
      <!-- 0.3 -->
      <g transform="translate(46.926206 196.535904)scale(0.145 -0.145)">
       <use transform="scale(0.996264)" xlink:href="#CMSS17-48"/>
       <use transform="translate(46.843624 0)scale(0.996264)" xlink:href="#CMSS17-46"/>
       <use transform="translate(72.867828 0)scale(0.996264)" xlink:href="#CMSS17-51"/>
      </g>
     </g>
    </g>
    <g id="ytick_3">
     <g id="line2d_5">
      <path clip-path="url(#pf094265df7)" d="M 72 161.28 
L 223.2 161.28 
" style="fill:none;stroke:#b0b0b0;stroke-linecap:square;stroke-opacity:0.6;stroke-width:0.7;"/>
     </g>
     <g id="line2d_6">
      <g>
       <use style="stroke:#000000;stroke-width:0.8;" x="72" xlink:href="#m64dbce6af9" y="161.28"/>
      </g>
     </g>
     <g id="text_6">
      <!-- 0.0 -->
      <g transform="translate(46.926206 166.295904)scale(0.145 -0.145)">
       <use transform="scale(0.996264)" xlink:href="#CMSS17-48"/>
       <use transform="translate(46.843624 0)scale(0.996264)" xlink:href="#CMSS17-46"/>
       <use transform="translate(72.867828 0)scale(0.996264)" xlink:href="#CMSS17-48"/>
      </g>
     </g>
    </g>
    <g id="ytick_4">
     <g id="line2d_7">
      <path clip-path="url(#pf094265df7)" d="M 72 131.04 
L 223.2 131.04 
" style="fill:none;stroke:#b0b0b0;stroke-linecap:square;stroke-opacity:0.6;stroke-width:0.7;"/>
     </g>
     <g id="line2d_8">
      <g>
       <use style="stroke:#000000;stroke-width:0.8;" x="72" xlink:href="#m64dbce6af9" y="131.04"/>
      </g>
     </g>
     <g id="text_7">
      <!-- 0.3 -->
      <g transform="translate(46.926206 136.055904)scale(0.145 -0.145)">
       <use transform="scale(0.996264)" xlink:href="#CMSS17-48"/>
       <use transform="translate(46.843624 0)scale(0.996264)" xlink:href="#CMSS17-46"/>
       <use transform="translate(72.867828 0)scale(0.996264)" xlink:href="#CMSS17-51"/>
      </g>
     </g>
    </g>
    <g id="ytick_5">
     <g id="line2d_9">
      <path clip-path="url(#pf094265df7)" d="M 72 100.8 
L 223.2 100.8 
" style="fill:none;stroke:#b0b0b0;stroke-linecap:square;stroke-opacity:0.6;stroke-width:0.7;"/>
     </g>
     <g id="line2d_10">
      <g>
       <use style="stroke:#000000;stroke-width:0.8;" x="72" xlink:href="#m64dbce6af9" y="100.8"/>
      </g>
     </g>
     <g id="text_8">
      <!-- 0.6 -->
      <g transform="translate(46.926206 105.815904)scale(0.145 -0.145)">
       <use transform="scale(0.996264)" xlink:href="#CMSS17-48"/>
       <use transform="translate(46.843624 0)scale(0.996264)" xlink:href="#CMSS17-46"/>
       <use transform="translate(72.867828 0)scale(0.996264)" xlink:href="#CMSS17-54"/>
      </g>
     </g>
    </g>
    <g id="ytick_6">
     <g id="line2d_11">
      <path clip-path="url(#pf094265df7)" d="M 72 60.48 
L 223.2 60.48 
" style="fill:none;stroke:#b0b0b0;stroke-linecap:square;stroke-opacity:0.6;stroke-width:0.7;"/>
     </g>
     <g id="line2d_12">
      <g>
       <use style="stroke:#000000;stroke-width:0.8;" x="72" xlink:href="#m64dbce6af9" y="60.48"/>
      </g>
     </g>
     <g id="text_9">
      <!-- 1.0 -->
      <g transform="translate(46.926206 65.495904)scale(0.145 -0.145)">
       <use transform="scale(0.996264)" xlink:href="#CMSS17-49"/>
       <use transform="translate(46.843624 0)scale(0.996264)" xlink:href="#CMSS17-46"/>
       <use transform="translate(72.867828 0)scale(0.996264)" xlink:href="#CMSS17-48"/>
      </g>
     </g>
    </g>
    <g id="text_10">
     <!-- n axons -->
     <g transform="translate(39.438142 162.928628)rotate(-90)scale(0.18 -0.18)">
      <defs>
       <path d="M 40.90625 29.328125 
C 40.90625 35.671875 39.40625 44 28.09375 44 
C 21.703125 44 17.5 40.71875 14.703125 37.328125 
L 14.703125 43.09375 
L 7.40625 43.09375 
L 7.40625 0 
L 15 0 
L 15 24.359375 
C 15 30.6875 17.40625 37.9375 24.203125 37.9375 
C 33 37.9375 33.296875 32 33.296875 28.578125 
L 33.296875 0 
L 40.90625 0 
z
" id="CMSS17-110"/>
       <path d="M 37.59375 27.984375 
C 37.59375 37.375 30.90625 43.875 21.90625 43.875 
C 17.5 43.875 12.703125 43.078125 7.203125 39.890625 
L 7.796875 33.359375 
C 10.296875 35.125 14.59375 38 21.796875 38 
C 26.90625 38 30 34.0625 30 27.84375 
L 30 24 
C 14 24 4 19.34375 4 11.34375 
C 4 7.203125 6.5 -1 14.796875 -1 
C 16.296875 -1 24.40625 -1 30.203125 3.390625 
L 30.203125 -0.296875 
L 37.59375 -0.296875 
z
M 30 12.75 
C 30 10.953125 30 8.5625 27 6.78125 
C 24.40625 5.078125 21.09375 5.078125 19.703125 5.078125 
C 14.703125 5.078125 11.296875 7.984375 11.296875 11.625 
C 11.296875 18.921875 26.90625 18.921875 30 18.921875 
z
" id="CMSS17-97"/>
       <path d="M 24.796875 22.09375 
L 41.5 42.796875 
L 32.796875 42.796875 
L 21.296875 27.765625 
L 9.40625 42.796875 
L 0.5 42.796875 
L 17.796875 22.09375 
L 0 0 
L 8.796875 0 
L 21.296875 17.515625 
L 34.296875 0 
L 43.09375 0 
z
" id="CMSS17-120"/>
       <path d="M 44.203125 21.1875 
C 44.203125 34 34.703125 44 23.5 44 
C 12 44 2.703125 33.703125 2.703125 21.1875 
C 2.703125 8.5 12.296875 -1 23.40625 -1 
C 34.796875 -1 44.203125 8.796875 44.203125 21.1875 
z
M 23.5 5.265625 
C 16.40625 5.265625 10.296875 11.078125 10.296875 22 
C 10.296875 33.609375 17.40625 37.921875 23.40625 37.921875 
C 29.90625 37.921875 36.59375 33.21875 36.59375 22 
C 36.59375 10.671875 30.09375 5.265625 23.5 5.265625 
z
" id="CMSS17-111"/>
       <path d="M 32.203125 41.046875 
C 26.296875 43.859375 21.703125 43.859375 18.703125 43.859375 
C 11.59375 43.859375 3.09375 41.375 3.09375 31.296875 
C 3.09375 21.234375 14.09375 19.03125 17.09375 18.421875 
C 21.703125 17.53125 26.796875 16.53125 26.796875 11.5625 
C 26.796875 5.265625 19.59375 5.265625 18.296875 5.265625 
C 14.296875 5.265625 8.796875 6.359375 3.796875 9.96875 
L 2.59375 3.28125 
C 8.296875 0 13.796875 -1 18.40625 -1 
C 30.703125 -1 33.796875 6.5 33.796875 12.203125 
C 33.796875 17.09375 31 20.390625 29.09375 21.890625 
C 25.796875 24.5 24.59375 24.796875 16.40625 26.5 
C 15 26.703125 10.09375 27.796875 10.09375 32.28125 
C 10.09375 38 16.40625 38 17.796875 38 
C 24.296875 38 28.296875 35.984375 31 34.5 
z
" id="CMSS17-115"/>
      </defs>
      <use transform="scale(0.996264)" xlink:href="#CMSS17-110"/>
      <use transform="translate(79.434056 0)scale(0.996264)" xlink:href="#CMSS17-97"/>
      <use transform="translate(124.355976 0)scale(0.996264)" xlink:href="#CMSS17-120"/>
      <use transform="translate(167.356118 0)scale(0.996264)" xlink:href="#CMSS17-111"/>
      <use transform="translate(214.199742 0)scale(0.996264)" xlink:href="#CMSS17-110"/>
      <use transform="translate(262.404685 0)scale(0.996264)" xlink:href="#CMSS17-115"/>
     </g>
    </g>
   </g>
   <g id="line2d_13">
    <path clip-path="url(#pf094265df7)" d="M 106.56 177.615577 
L 106.56 179.372308 
" style="fill:none;stroke:#000000;stroke-linecap:square;stroke-opacity:0.7;"/>
   </g>
   <g id="line2d_14">
    <path clip-path="url(#pf094265df7)" d="M 106.56 174.264 
L 106.56 170.88 
" style="fill:none;stroke:#000000;stroke-linecap:square;stroke-opacity:0.7;"/>
   </g>
   <g id="line2d_15">
    <path clip-path="url(#pf094265df7)" d="M 101.376 179.372308 
L 111.744 179.372308 
" style="fill:none;stroke:#000000;stroke-linecap:square;stroke-opacity:0.7;"/>
   </g>
   <g id="line2d_16">
    <path clip-path="url(#pf094265df7)" d="M 101.376 170.88 
L 111.744 170.88 
" style="fill:none;stroke:#000000;stroke-linecap:square;stroke-opacity:0.7;"/>
   </g>
   <g id="line2d_17">
    <path clip-path="url(#pf094265df7)" d="M 149.76 196.883121 
L 149.76 211.68 
" style="fill:none;stroke:#000000;stroke-linecap:square;stroke-opacity:0.7;"/>
   </g>
   <g id="line2d_18">
    <path clip-path="url(#pf094265df7)" d="M 149.76 173.660658 
L 149.76 164.88 
" style="fill:none;stroke:#000000;stroke-linecap:square;stroke-opacity:0.7;"/>
   </g>
   <g id="line2d_19">
    <path clip-path="url(#pf094265df7)" d="M 144.576 211.68 
L 154.944 211.68 
" style="fill:none;stroke:#000000;stroke-linecap:square;stroke-opacity:0.7;"/>
   </g>
   <g id="line2d_20">
    <path clip-path="url(#pf094265df7)" d="M 144.576 164.88 
L 154.944 164.88 
" style="fill:none;stroke:#000000;stroke-linecap:square;stroke-opacity:0.7;"/>
   </g>
   <g id="line2d_21">
    <path clip-path="url(#pf094265df7)" d="M 192.96 183.267476 
L 192.96 195.764211 
" style="fill:none;stroke:#000000;stroke-linecap:square;stroke-opacity:0.7;"/>
   </g>
   <g id="line2d_22">
    <path clip-path="url(#pf094265df7)" d="M 192.96 169.6275 
L 192.96 161.28 
" style="fill:none;stroke:#000000;stroke-linecap:square;stroke-opacity:0.7;"/>
   </g>
   <g id="line2d_23">
    <path clip-path="url(#pf094265df7)" d="M 187.776 195.764211 
L 198.144 195.764211 
" style="fill:none;stroke:#000000;stroke-linecap:square;stroke-opacity:0.7;"/>
   </g>
   <g id="line2d_24">
    <path clip-path="url(#pf094265df7)" d="M 187.776 161.28 
L 198.144 161.28 
" style="fill:none;stroke:#000000;stroke-linecap:square;stroke-opacity:0.7;"/>
   </g>
   <g id="line2d_25">
    <path clip-path="url(#pf094265df7)" d="M 106.56 108.840577 
L 106.56 115.235556 
" style="fill:none;stroke:#000000;stroke-linecap:square;stroke-opacity:0.7;"/>
   </g>
   <g id="line2d_26">
    <path clip-path="url(#pf094265df7)" d="M 106.56 93.961778 
L 106.56 86.08 
" style="fill:none;stroke:#000000;stroke-linecap:square;stroke-opacity:0.7;"/>
   </g>
   <g id="line2d_27">
    <path clip-path="url(#pf094265df7)" d="M 101.376 115.235556 
L 111.744 115.235556 
" style="fill:none;stroke:#000000;stroke-linecap:square;stroke-opacity:0.7;"/>
   </g>
   <g id="line2d_28">
    <path clip-path="url(#pf094265df7)" d="M 101.376 86.08 
L 111.744 86.08 
" style="fill:none;stroke:#000000;stroke-linecap:square;stroke-opacity:0.7;"/>
   </g>
   <g id="line2d_29">
    <path clip-path="url(#pf094265df7)" d="M 149.76 110.88 
L 149.76 127.008 
" style="fill:none;stroke:#000000;stroke-linecap:square;stroke-opacity:0.7;"/>
   </g>
   <g id="line2d_30">
    <path clip-path="url(#pf094265df7)" d="M 149.76 98.502252 
L 149.76 85.68 
" style="fill:none;stroke:#000000;stroke-linecap:square;stroke-opacity:0.7;"/>
   </g>
   <g id="line2d_31">
    <path clip-path="url(#pf094265df7)" d="M 144.576 127.008 
L 154.944 127.008 
" style="fill:none;stroke:#000000;stroke-linecap:square;stroke-opacity:0.7;"/>
   </g>
   <g id="line2d_32">
    <path clip-path="url(#pf094265df7)" d="M 144.576 85.68 
L 154.944 85.68 
" style="fill:none;stroke:#000000;stroke-linecap:square;stroke-opacity:0.7;"/>
   </g>
   <g id="line2d_33">
    <path clip-path="url(#pf094265df7)" d="M 192.96 109.893136 
L 192.96 113.532632 
" style="fill:none;stroke:#000000;stroke-linecap:square;stroke-opacity:0.7;"/>
   </g>
   <g id="line2d_34">
    <path clip-path="url(#pf094265df7)" d="M 192.96 94.08 
L 192.96 91.495385 
" style="fill:none;stroke:#000000;stroke-linecap:square;stroke-opacity:0.7;"/>
   </g>
   <g id="line2d_35">
    <path clip-path="url(#pf094265df7)" d="M 187.776 113.532632 
L 198.144 113.532632 
" style="fill:none;stroke:#000000;stroke-linecap:square;stroke-opacity:0.7;"/>
   </g>
   <g id="line2d_36">
    <path clip-path="url(#pf094265df7)" d="M 187.776 91.495385 
L 198.144 91.495385 
" style="fill:none;stroke:#000000;stroke-linecap:square;stroke-opacity:0.7;"/>
   </g>
   <g id="patch_5">
    <path d="M 72 241.92 
L 72 30.24 
" style="fill:none;stroke:#000000;stroke-linecap:square;stroke-linejoin:miter;stroke-width:0.8;"/>
   </g>
   <g id="patch_6">
    <path d="M 223.2 241.92 
L 223.2 30.24 
" style="fill:none;stroke:#000000;stroke-linecap:square;stroke-linejoin:miter;stroke-width:0.8;"/>
   </g>
   <g id="patch_7">
    <path d="M 72 241.92 
L 223.2 241.92 
" style="fill:none;stroke:#000000;stroke-linecap:square;stroke-linejoin:miter;stroke-width:0.8;"/>
   </g>
   <g id="patch_8">
    <path d="M 72 30.24 
L 223.2 30.24 
" style="fill:none;stroke:#000000;stroke-linecap:square;stroke-linejoin:miter;stroke-width:0.8;"/>
   </g>
   <g id="text_11">
    <!-- n rescue loops -->
    <g transform="translate(97.722321 24.24)scale(0.18 -0.18)">
     <defs>
      <path d="M 14.90625 21.296875 
C 14.90625 30.703125 21.796875 37 30.59375 37 
L 30.59375 43.578125 
C 24.203125 43.578125 18.203125 40.390625 14.59375 35.203125 
L 14.59375 43.09375 
L 7.5 43.09375 
L 7.5 0 
L 14.90625 0 
z
" id="CMSS17-114"/>
      <path d="M 39.09375 21.515625 
C 39.09375 24.84375 38.90625 31.296875 35.703125 36.640625 
C 32.203125 42.390625 26.5 44 22.203125 44 
C 11.796875 44 3 34.1875 3 21.484375 
C 3 9.09375 12.09375 -1 23.59375 -1 
C 28.09375 -1 33.59375 0.296875 38.59375 3.875 
C 38.59375 4.28125 38.40625 6.46875 38.296875 6.5625 
C 38.296875 6.765625 38 9.84375 38 10.25 
C 33.203125 6.359375 27.703125 5.078125 23.703125 5.078125 
C 17.296875 5.078125 10.40625 10.421875 10.09375 21.515625 
z
M 10.90625 27 
C 12.203125 32.5625 16.59375 37.828125 22.203125 37.828125 
C 23.703125 37.828125 30.703125 37.828125 32.5 27 
z
" id="CMSS17-101"/>
      <path d="M 38.5 39.703125 
C 38.5 40.390625 33.90625 42.40625 32.703125 42.796875 
C 29.40625 44 25.203125 44 24.09375 44 
C 11.09375 44 3.296875 32.703125 3.296875 21.296875 
C 3.296875 9.296875 12 -1 23.703125 -1 
C 30.40625 -1 35.203125 1.1875 39.09375 3.78125 
L 38.5 10.375 
C 34.203125 7.078125 29.203125 5.265625 23.796875 5.265625 
C 16 5.265625 10.90625 12.09375 10.90625 21.390625 
C 10.90625 28.609375 14.203125 37.71875 24.203125 37.71875 
C 29.703125 37.71875 32.796875 36.609375 37.40625 33.515625 
z
" id="CMSS17-99"/>
      <path d="M 40.90625 42.796875 
L 33.296875 42.796875 
L 33.296875 15.1875 
C 33.296875 7.78125 27.90625 4.78125 22.203125 4.78125 
C 15.59375 4.78125 15 6.984375 15 11.078125 
L 15 42.796875 
L 7.40625 42.796875 
L 7.40625 10.59375 
C 7.40625 2.796875 10.09375 -1 17 -1 
C 20.40625 -1 28.09375 -0.203125 33.5 4.78125 
L 33.5 0 
L 40.90625 0 
z
" id="CMSS17-117"/>
      <path d="M 14.796875 69 
L 7.40625 69 
L 7.40625 0 
L 14.796875 0 
z
" id="CMSS17-108"/>
      <path d="M 15.09375 5.203125 
C 18.40625 2.015625 22.90625 -0.078125 27.703125 -0.078125 
C 37 -0.078125 45 9.421875 45 22.0625 
C 45 33.734375 39 44 30.40625 44 
C 25.40625 44 19.40625 42.21875 14.90625 38.625 
L 14.90625 43.203125 
L 7.5 43.203125 
L 7.5 -19 
L 15.09375 -19 
z
M 15.09375 32.8125 
C 15.90625 34 19.296875 37.734375 24.796875 37.734375 
C 31.796875 37.734375 37.40625 30.625 37.40625 22.0625 
C 37.40625 12.296875 30.59375 6 23.90625 6 
C 21.90625 6 19.796875 6.484375 17.796875 8.171875 
C 15.09375 10.53125 15.09375 12 15.09375 13.390625 
z
" id="CMSS17-112"/>
     </defs>
     <use transform="scale(0.996264)" xlink:href="#CMSS17-110"/>
     <use transform="translate(79.434056 0)scale(0.996264)" xlink:href="#CMSS17-114"/>
     <use transform="translate(111.343828 0)scale(0.996264)" xlink:href="#CMSS17-101"/>
     <use transform="translate(152.982651 0)scale(0.996264)" xlink:href="#CMSS17-115"/>
     <use transform="translate(188.896193 0)scale(0.996264)" xlink:href="#CMSS17-99"/>
     <use transform="translate(230.535015 0)scale(0.996264)" xlink:href="#CMSS17-117"/>
     <use transform="translate(278.739958 0)scale(0.996264)" xlink:href="#CMSS17-101"/>
     <use transform="translate(351.607893 0)scale(0.996264)" xlink:href="#CMSS17-108"/>
     <use transform="translate(373.788616 0)scale(0.996264)" xlink:href="#CMSS17-111"/>
     <use transform="translate(423.234678 0)scale(0.996264)" xlink:href="#CMSS17-111"/>
     <use transform="translate(470.078301 0)scale(0.996264)" xlink:href="#CMSS17-112"/>
     <use transform="translate(518.283244 0)scale(0.996264)" xlink:href="#CMSS17-115"/>
    </g>
   </g>
   <g id="patch_9">
    <path clip-path="url(#pf094265df7)" d="M 96.192 177.615577 
L 116.928 177.615577 
L 116.928 174.264 
L 96.192 174.264 
L 96.192 177.615577 
z
" style="fill:#5254a3;stroke:#5254a3;stroke-linejoin:miter;"/>
   </g>
   <g id="patch_10">
    <path clip-path="url(#pf094265df7)" d="M 139.392 196.883121 
L 160.128 196.883121 
L 160.128 173.660658 
L 139.392 173.660658 
L 139.392 196.883121 
z
" style="fill:#8c6d31;stroke:#8c6d31;stroke-linejoin:miter;"/>
   </g>
   <g id="patch_11">
    <path clip-path="url(#pf094265df7)" d="M 182.592 183.267476 
L 203.328 183.267476 
L 203.328 169.6275 
L 182.592 169.6275 
L 182.592 183.267476 
z
" style="fill:#bd9e39;stroke:#bd9e39;stroke-linejoin:miter;"/>
   </g>
   <g id="patch_12">
    <path clip-path="url(#pf094265df7)" d="M 96.192 108.840577 
L 116.928 108.840577 
L 116.928 93.961778 
L 96.192 93.961778 
L 96.192 108.840577 
z
" style="fill:#5254a3;stroke:#5254a3;stroke-linejoin:miter;"/>
   </g>
   <g id="patch_13">
    <path clip-path="url(#pf094265df7)" d="M 139.392 110.88 
L 160.128 110.88 
L 160.128 98.502252 
L 139.392 98.502252 
L 139.392 110.88 
z
" style="fill:#8c6d31;stroke:#8c6d31;stroke-linejoin:miter;"/>
   </g>
   <g id="patch_14">
    <path clip-path="url(#pf094265df7)" d="M 182.592 109.893136 
L 203.328 109.893136 
L 203.328 94.08 
L 182.592 94.08 
L 182.592 109.893136 
z
" style="fill:#bd9e39;stroke:#bd9e39;stroke-linejoin:miter;"/>
   </g>
   <g id="patch_15">
    <path clip-path="url(#pf094265df7)" d="M 139.392 196.883121 
L 139.392 186.118609 
L 160.128 184.425169 
L 160.128 196.883121 
z
" style="fill:#e7ba52;stroke:#e7ba52;stroke-linejoin:miter;"/>
   </g>
   <g id="patch_16">
    <path clip-path="url(#pf094265df7)" d="M 182.592 183.267476 
L 182.592 177.294208 
L 203.328 175.600768 
L 203.328 183.267476 
z
" style="fill:#e7cb94;stroke:#e7cb94;stroke-linejoin:miter;"/>
   </g>
   <g id="patch_17">
    <path clip-path="url(#pf094265df7)" d="M 139.392 110.88 
L 139.392 105.537846 
L 160.128 103.844406 
L 160.128 110.88 
z
" style="fill:#e7ba52;stroke:#e7ba52;stroke-linejoin:miter;"/>
   </g>
   <g id="patch_18">
    <path clip-path="url(#pf094265df7)" d="M 182.592 109.893136 
L 182.592 102.833288 
L 203.328 101.139848 
L 203.328 109.893136 
z
" style="fill:#e7cb94;stroke:#e7cb94;stroke-linejoin:miter;"/>
   </g>
   <g id="PathCollection_1">
    <defs>
     <path d="M 2.738613 0 
L -2.738613 -0 
" id="m800b1793dc" style="stroke:#000000;stroke-opacity:0.15;stroke-width:1.4;"/>
    </defs>
    <g>
     <use style="fill-opacity:0.15;stroke:#000000;stroke-opacity:0.15;stroke-width:1.4;" x="104.710227" xlink:href="#m800b1793dc" y="177.03"/>
     <use style="fill-opacity:0.15;stroke:#000000;stroke-opacity:0.15;stroke-width:1.4;" x="109.114685" xlink:href="#m800b1793dc" y="170.88"/>
     <use style="fill-opacity:0.15;stroke:#000000;stroke-opacity:0.15;stroke-width:1.4;" x="105.159355" xlink:href="#m800b1793dc" y="197.368889"/>
     <use style="fill-opacity:0.15;stroke:#000000;stroke-opacity:0.15;stroke-width:1.4;" x="107.552827" xlink:href="#m800b1793dc" y="176.213333"/>
     <use style="fill-opacity:0.15;stroke:#000000;stroke-opacity:0.15;stroke-width:1.4;" x="106.048933" xlink:href="#m800b1793dc" y="176.495094"/>
     <use style="fill-opacity:0.15;stroke:#000000;stroke-opacity:0.15;stroke-width:1.4;" x="107.498077" xlink:href="#m800b1793dc" y="175.392"/>
     <use style="fill-opacity:0.15;stroke:#000000;stroke-opacity:0.15;stroke-width:1.4;" x="105.713794" xlink:href="#m800b1793dc" y="179.372308"/>
     <use style="fill-opacity:0.15;stroke:#000000;stroke-opacity:0.15;stroke-width:1.4;" x="106.306824" xlink:href="#m800b1793dc" y="166.08"/>
    </g>
   </g>
   <g id="PathCollection_2">
    <g>
     <use style="fill-opacity:0.15;stroke:#000000;stroke-opacity:0.15;stroke-width:1.4;" x="149.823638" xlink:href="#m800b1793dc" y="210.729057"/>
     <use style="fill-opacity:0.15;stroke:#000000;stroke-opacity:0.15;stroke-width:1.4;" x="148.201398" xlink:href="#m800b1793dc" y="200.225455"/>
     <use style="fill-opacity:0.15;stroke:#000000;stroke-opacity:0.15;stroke-width:1.4;" x="150.91213" xlink:href="#m800b1793dc" y="184.189091"/>
     <use style="fill-opacity:0.15;stroke:#000000;stroke-opacity:0.15;stroke-width:1.4;" x="148.96185" xlink:href="#m800b1793dc" y="200.88"/>
     <use style="fill-opacity:0.15;stroke:#000000;stroke-opacity:0.15;stroke-width:1.4;" x="149.404481" xlink:href="#m800b1793dc" y="211.68"/>
     <use style="fill-opacity:0.15;stroke:#000000;stroke-opacity:0.15;stroke-width:1.4;" x="148.213588" xlink:href="#m800b1793dc" y="186.856119"/>
     <use style="fill-opacity:0.15;stroke:#000000;stroke-opacity:0.15;stroke-width:1.4;" x="145.775059" xlink:href="#m800b1793dc" y="174.148085"/>
     <use style="fill-opacity:0.15;stroke:#000000;stroke-opacity:0.15;stroke-width:1.4;" x="149.462914" xlink:href="#m800b1793dc" y="181.732174"/>
     <use style="fill-opacity:0.15;stroke:#000000;stroke-opacity:0.15;stroke-width:1.4;" x="153.5121" xlink:href="#m800b1793dc" y="168.786383"/>
     <use style="fill-opacity:0.15;stroke:#000000;stroke-opacity:0.15;stroke-width:1.4;" x="150.980217" xlink:href="#m800b1793dc" y="180.18"/>
     <use style="fill-opacity:0.15;stroke:#000000;stroke-opacity:0.15;stroke-width:1.4;" x="149.730046" xlink:href="#m800b1793dc" y="164.88"/>
     <use style="fill-opacity:0.15;stroke:#000000;stroke-opacity:0.15;stroke-width:1.4;" x="149.351152" xlink:href="#m800b1793dc" y="185.865366"/>
     <use style="fill-opacity:0.15;stroke:#000000;stroke-opacity:0.15;stroke-width:1.4;" x="149.794939" xlink:href="#m800b1793dc" y="173.00093"/>
     <use style="fill-opacity:0.15;stroke:#000000;stroke-opacity:0.15;stroke-width:1.4;" x="150.61088" xlink:href="#m800b1793dc" y="173.498182"/>
    </g>
   </g>
   <g id="PathCollection_3">
    <g>
     <use style="fill-opacity:0.15;stroke:#000000;stroke-opacity:0.15;stroke-width:1.4;" x="191.1236" xlink:href="#m800b1793dc" y="187.575652"/>
     <use style="fill-opacity:0.15;stroke:#000000;stroke-opacity:0.15;stroke-width:1.4;" x="194.692993" xlink:href="#m800b1793dc" y="188.16"/>
     <use style="fill-opacity:0.15;stroke:#000000;stroke-opacity:0.15;stroke-width:1.4;" x="194.072561" xlink:href="#m800b1793dc" y="173.88"/>
     <use style="fill-opacity:0.15;stroke:#000000;stroke-opacity:0.15;stroke-width:1.4;" x="194.076922" xlink:href="#m800b1793dc" y="174.370909"/>
     <use style="fill-opacity:0.15;stroke:#000000;stroke-opacity:0.15;stroke-width:1.4;" x="193.641917" xlink:href="#m800b1793dc" y="187.515616"/>
     <use style="fill-opacity:0.15;stroke:#000000;stroke-opacity:0.15;stroke-width:1.4;" x="192.990508" xlink:href="#m800b1793dc" y="181.851429"/>
     <use style="fill-opacity:0.15;stroke:#000000;stroke-opacity:0.15;stroke-width:1.4;" x="194.006434" xlink:href="#m800b1793dc" y="195.764211"/>
     <use style="fill-opacity:0.15;stroke:#000000;stroke-opacity:0.15;stroke-width:1.4;" x="193.880389" xlink:href="#m800b1793dc" y="171.618462"/>
     <use style="fill-opacity:0.15;stroke:#000000;stroke-opacity:0.15;stroke-width:1.4;" x="192.409396" xlink:href="#m800b1793dc" y="170.73"/>
     <use style="fill-opacity:0.15;stroke:#000000;stroke-opacity:0.15;stroke-width:1.4;" x="192.067935" xlink:href="#m800b1793dc" y="174.08"/>
     <use style="fill-opacity:0.15;stroke:#000000;stroke-opacity:0.15;stroke-width:1.4;" x="193.118407" xlink:href="#m800b1793dc" y="178.437447"/>
     <use style="fill-opacity:0.15;stroke:#000000;stroke-opacity:0.15;stroke-width:1.4;" x="195.369036" xlink:href="#m800b1793dc" y="164.041644"/>
     <use style="fill-opacity:0.15;stroke:#000000;stroke-opacity:0.15;stroke-width:1.4;" x="191.032941" xlink:href="#m800b1793dc" y="170.789434"/>
     <use style="fill-opacity:0.15;stroke:#000000;stroke-opacity:0.15;stroke-width:1.4;" x="190.677705" xlink:href="#m800b1793dc" y="161.28"/>
     <use style="fill-opacity:0.15;stroke:#000000;stroke-opacity:0.15;stroke-width:1.4;" x="193.216236" xlink:href="#m800b1793dc" y="166.32"/>
     <use style="fill-opacity:0.15;stroke:#000000;stroke-opacity:0.15;stroke-width:1.4;" x="193.039141" xlink:href="#m800b1793dc" y="161.28"/>
    </g>
   </g>
   <g id="PathCollection_4">
    <defs>
     <path d="M -2.738613 0 
L 2.738613 0 
M 0 2.738613 
L 0 -2.738613 
" id="m0d7f2d088c" style="stroke:#000000;stroke-opacity:0.15;stroke-width:1.4;"/>
    </defs>
    <g>
     <use style="fill-opacity:0.15;stroke:#000000;stroke-opacity:0.15;stroke-width:1.4;" x="106.829581" xlink:href="#m0d7f2d088c" y="107.73"/>
     <use style="fill-opacity:0.15;stroke:#000000;stroke-opacity:0.15;stroke-width:1.4;" x="106.939396" xlink:href="#m0d7f2d088c" y="96.48"/>
     <use style="fill-opacity:0.15;stroke:#000000;stroke-opacity:0.15;stroke-width:1.4;" x="106.212876" xlink:href="#m0d7f2d088c" y="115.235556"/>
     <use style="fill-opacity:0.15;stroke:#000000;stroke-opacity:0.15;stroke-width:1.4;" x="108.877036" xlink:href="#m0d7f2d088c" y="91.591111"/>
     <use style="fill-opacity:0.15;stroke:#000000;stroke-opacity:0.15;stroke-width:1.4;" x="104.070274" xlink:href="#m0d7f2d088c" y="102.321509"/>
     <use style="fill-opacity:0.15;stroke:#000000;stroke-opacity:0.15;stroke-width:1.4;" x="105.271521" xlink:href="#m0d7f2d088c" y="94.752"/>
     <use style="fill-opacity:0.15;stroke:#000000;stroke-opacity:0.15;stroke-width:1.4;" x="106.399418" xlink:href="#m0d7f2d088c" y="112.172308"/>
     <use style="fill-opacity:0.15;stroke:#000000;stroke-opacity:0.15;stroke-width:1.4;" x="104.004513" xlink:href="#m0d7f2d088c" y="86.08"/>
    </g>
   </g>
   <g id="PathCollection_5">
    <g>
     <use style="fill-opacity:0.15;stroke:#000000;stroke-opacity:0.15;stroke-width:1.4;" x="149.486511" xlink:href="#m0d7f2d088c" y="130.849811"/>
     <use style="fill-opacity:0.15;stroke:#000000;stroke-opacity:0.15;stroke-width:1.4;" x="152.343918" xlink:href="#m0d7f2d088c" y="122.334545"/>
     <use style="fill-opacity:0.15;stroke:#000000;stroke-opacity:0.15;stroke-width:1.4;" x="149.792483" xlink:href="#m0d7f2d088c" y="108.589091"/>
     <use style="fill-opacity:0.15;stroke:#000000;stroke-opacity:0.15;stroke-width:1.4;" x="150.118786" xlink:href="#m0d7f2d088c" y="110.88"/>
     <use style="fill-opacity:0.15;stroke:#000000;stroke-opacity:0.15;stroke-width:1.4;" x="147.800192" xlink:href="#m0d7f2d088c" y="127.008"/>
     <use style="fill-opacity:0.15;stroke:#000000;stroke-opacity:0.15;stroke-width:1.4;" x="148.801435" xlink:href="#m0d7f2d088c" y="102.605373"/>
     <use style="fill-opacity:0.15;stroke:#000000;stroke-opacity:0.15;stroke-width:1.4;" x="149.176495" xlink:href="#m0d7f2d088c" y="109.80766"/>
     <use style="fill-opacity:0.15;stroke:#000000;stroke-opacity:0.15;stroke-width:1.4;" x="149.265889" xlink:href="#m0d7f2d088c" y="107.227826"/>
     <use style="fill-opacity:0.15;stroke:#000000;stroke-opacity:0.15;stroke-width:1.4;" x="151.753212" xlink:href="#m0d7f2d088c" y="95.867234"/>
     <use style="fill-opacity:0.15;stroke:#000000;stroke-opacity:0.15;stroke-width:1.4;" x="150.627321" xlink:href="#m0d7f2d088c" y="110.88"/>
     <use style="fill-opacity:0.15;stroke:#000000;stroke-opacity:0.15;stroke-width:1.4;" x="148.031461" xlink:href="#m0d7f2d088c" y="85.68"/>
     <use style="fill-opacity:0.15;stroke:#000000;stroke-opacity:0.15;stroke-width:1.4;" x="150.143364" xlink:href="#m0d7f2d088c" y="107.192195"/>
     <use style="fill-opacity:0.15;stroke:#000000;stroke-opacity:0.15;stroke-width:1.4;" x="150.534834" xlink:href="#m0d7f2d088c" y="93.298605"/>
     <use style="fill-opacity:0.15;stroke:#000000;stroke-opacity:0.15;stroke-width:1.4;" x="151.53316" xlink:href="#m0d7f2d088c" y="97.134545"/>
    </g>
   </g>
   <g id="PathCollection_6">
    <g>
     <use style="fill-opacity:0.15;stroke:#000000;stroke-opacity:0.15;stroke-width:1.4;" x="195.418057" xlink:href="#m0d7f2d088c" y="110.149565"/>
     <use style="fill-opacity:0.15;stroke:#000000;stroke-opacity:0.15;stroke-width:1.4;" x="191.381326" xlink:href="#m0d7f2d088c" y="103.488"/>
     <use style="fill-opacity:0.15;stroke:#000000;stroke-opacity:0.15;stroke-width:1.4;" x="191.698954" xlink:href="#m0d7f2d088c" y="104.58"/>
     <use style="fill-opacity:0.15;stroke:#000000;stroke-opacity:0.15;stroke-width:1.4;" x="191.004215" xlink:href="#m0d7f2d088c" y="93.207273"/>
     <use style="fill-opacity:0.15;stroke:#000000;stroke-opacity:0.15;stroke-width:1.4;" x="192.596052" xlink:href="#m0d7f2d088c" y="112.951233"/>
     <use style="fill-opacity:0.15;stroke:#000000;stroke-opacity:0.15;stroke-width:1.4;" x="193.685281" xlink:href="#m0d7f2d088c" y="105.737143"/>
     <use style="fill-opacity:0.15;stroke:#000000;stroke-opacity:0.15;stroke-width:1.4;" x="194.495503" xlink:href="#m0d7f2d088c" y="113.532632"/>
     <use style="fill-opacity:0.15;stroke:#000000;stroke-opacity:0.15;stroke-width:1.4;" x="192.841881" xlink:href="#m0d7f2d088c" y="94.08"/>
     <use style="fill-opacity:0.15;stroke:#000000;stroke-opacity:0.15;stroke-width:1.4;" x="192.462573" xlink:href="#m0d7f2d088c" y="96.705"/>
     <use style="fill-opacity:0.15;stroke:#000000;stroke-opacity:0.15;stroke-width:1.4;" x="193.196014" xlink:href="#m0d7f2d088c" y="94.08"/>
     <use style="fill-opacity:0.15;stroke:#000000;stroke-opacity:0.15;stroke-width:1.4;" x="191.661186" xlink:href="#m0d7f2d088c" y="109.80766"/>
     <use style="fill-opacity:0.15;stroke:#000000;stroke-opacity:0.15;stroke-width:1.4;" x="196.209651" xlink:href="#m0d7f2d088c" y="93.619726"/>
     <use style="fill-opacity:0.15;stroke:#000000;stroke-opacity:0.15;stroke-width:1.4;" x="190.459766" xlink:href="#m0d7f2d088c" y="94.713962"/>
     <use style="fill-opacity:0.15;stroke:#000000;stroke-opacity:0.15;stroke-width:1.4;" x="193.247309" xlink:href="#m0d7f2d088c" y="110.88"/>
     <use style="fill-opacity:0.15;stroke:#000000;stroke-opacity:0.15;stroke-width:1.4;" x="196.107112" xlink:href="#m0d7f2d088c" y="95.76"/>
     <use style="fill-opacity:0.15;stroke:#000000;stroke-opacity:0.15;stroke-width:1.4;" x="192.970575" xlink:href="#m0d7f2d088c" y="91.495385"/>
    </g>
   </g>
   <g id="line2d_37">
    <path clip-path="url(#pf094265df7)" d="M 96.192 176.354214 
L 116.928 176.354214 
" style="fill:none;stroke:#000000;stroke-linecap:square;"/>
   </g>
   <g id="line2d_38">
    <path clip-path="url(#pf094265df7)" d="M 139.392 182.960632 
L 160.128 182.960632 
" style="fill:none;stroke:#000000;stroke-linecap:square;"/>
   </g>
   <g id="line2d_39">
    <path clip-path="url(#pf094265df7)" d="M 182.592 173.98 
L 203.328 173.98 
" style="fill:none;stroke:#000000;stroke-linecap:square;"/>
   </g>
   <g id="line2d_40">
    <path clip-path="url(#pf094265df7)" d="M 96.192 99.400755 
L 116.928 99.400755 
" style="fill:none;stroke:#000000;stroke-linecap:square;"/>
   </g>
   <g id="line2d_41">
    <path clip-path="url(#pf094265df7)" d="M 139.392 107.908458 
L 160.128 107.908458 
" style="fill:none;stroke:#000000;stroke-linecap:square;"/>
   </g>
   <g id="line2d_42">
    <path clip-path="url(#pf094265df7)" d="M 182.592 100.0965 
L 203.328 100.0965 
" style="fill:none;stroke:#000000;stroke-linecap:square;"/>
   </g>
  </g>
 </g>
 <defs>
  <clipPath id="pf094265df7">
   <rect height="211.68" width="151.2" x="72" y="30.24"/>
  </clipPath>
 </defs>
</svg>
