<?xml version="1.0" encoding="utf-8" standalone="no"?>
<!DOCTYPE svg PUBLIC "-//W3C//DTD SVG 1.1//EN"
  "http://www.w3.org/Graphics/SVG/1.1/DTD/svg11.dtd">
<!-- Created with matplotlib (https://matplotlib.org/) -->
<svg height="302.4pt" version="1.1" viewBox="0 0 338.4 302.4" width="338.4pt" xmlns="http://www.w3.org/2000/svg" xmlns:xlink="http://www.w3.org/1999/xlink">
 <metadata>
  <rdf:RDF xmlns:cc="http://creativecommons.org/ns#" xmlns:dc="http://purl.org/dc/elements/1.1/" xmlns:rdf="http://www.w3.org/1999/02/22-rdf-syntax-ns#">
   <cc:Work>
    <dc:type rdf:resource="http://purl.org/dc/dcmitype/StillImage"/>
    <dc:date>2021-12-19T16:35:19.919204</dc:date>
    <dc:format>image/svg+xml</dc:format>
    <dc:creator>
     <cc:Agent>
      <dc:title>Matplotlib v3.3.4, https://matplotlib.org/</dc:title>
     </cc:Agent>
    </dc:creator>
   </cc:Work>
  </rdf:RDF>
 </metadata>
 <defs>
  <style type="text/css">*{stroke-linecap:butt;stroke-linejoin:round;}</style>
 </defs>
 <g id="figure_1">
  <g id="patch_1">
   <path d="M 0 302.4 
L 338.4 302.4 
L 338.4 0 
L 0 0 
z
" style="fill:#ffffff;"/>
  </g>
  <g id="axes_1">
   <g id="patch_2">
    <path d="M 72 241.92 
L 266.4 241.92 
L 266.4 30.24 
L 72 30.24 
z
" style="fill:#ffffff;"/>
   </g>
   <g id="patch_3">
    <path clip-path="url(#paef29475eb)" d="M 72 171.36 
L 277.2 171.36 
L 277.2 30.24 
L 72 30.24 
z
" style="fill:#01ff6b;opacity:0.12;stroke:#01ff6b;stroke-linejoin:miter;"/>
   </g>
   <g id="patch_4">
    <path clip-path="url(#paef29475eb)" d="M 72 171.36 
L 277.2 171.36 
L 277.2 241.92 
L 72 241.92 
z
" style="fill:#c22121;opacity:0.12;stroke:#c22121;stroke-linejoin:miter;"/>
   </g>
   <g id="matplotlib.axis_1">
    <g id="xtick_1">
     <g id="text_1">
      <!-- 1.5, wide -->
      <g transform="translate(57.028359 302.63102)rotate(-45)scale(0.18 -0.18)">
       <defs>
        <path d="M 28.40625 67 
L 26.5 67 
C 21.09375 61.5625 14.796875 60.78125 8.40625 60.78125 
L 8.40625 55 
C 11.296875 55 16 55 20.703125 57.296875 
L 20.703125 5.765625 
L 8.90625 5.765625 
L 8.90625 0 
L 40.203125 0 
L 40.203125 5.765625 
L 28.40625 5.765625 
z
" id="CMSS17-49"/>
        <path d="M 17 7.96875 
L 9 7.96875 
L 9 0 
L 17 0 
z
" id="CMSS17-46"/>
        <path d="M 14.59375 58.625 
L 39.09375 58.625 
L 39.09375 65 
L 7.296875 65 
L 7.296875 27.828125 
L 14 27.828125 
C 15.796875 31.96875 19.5 35 24.296875 35 
C 28.796875 35 33.796875 31.078125 33.796875 19.78125 
C 33.796875 7.703125 26.703125 4.171875 21.5 4.171875 
C 15.09375 4.171875 9.203125 8 6.59375 13.296875 
L 3.40625 7.796875 
C 8 0.765625 15.5 -2 21.5 -2 
C 33.09375 -2 42.203125 7.765625 42.203125 19.578125 
C 42.203125 31.71875 34.09375 41.078125 24.40625 41.078125 
C 20.90625 41.078125 17.5 39.890625 14.59375 37.484375 
z
" id="CMSS17-53"/>
        <path d="M 17 0.09375 
L 17 7.96875 
L 9 7.96875 
L 9 0 
L 11.5 0 
L 8.90625 -12.5 
L 12.90625 -12.5 
z
" id="CMSS17-44"/>
        <path d="M 62.703125 43 
L 55.09375 43 
L 49.796875 25.015625 
C 48.703125 21.21875 45.59375 10.703125 45.203125 5.796875 
L 45.09375 5.796875 
C 44.90625 8.8125 43.203125 16 40.40625 25.515625 
L 35.296875 43 
L 28.40625 43 
L 23.40625 25.90625 
C 20.90625 17.203125 19 9.796875 18.796875 5.796875 
L 18.703125 5.796875 
C 18.296875 11.703125 14.203125 25.515625 13.59375 27.703125 
L 9.09375 43 
L 1.296875 43 
L 14.296875 0 
L 21.90625 0 
C 27.09375 17.125 31.09375 30.359375 31.40625 37.03125 
C 31.59375 33.75 33.296875 26.671875 34.296875 23.1875 
L 40.90625 0 
L 49.703125 0 
z
" id="CMSS17-119"/>
        <path d="M 15.296875 65.359375 
L 6.90625 65.359375 
L 6.90625 57 
L 15.296875 57 
z
M 14.796875 42.796875 
L 7.40625 42.796875 
L 7.40625 0 
L 14.796875 0 
z
" id="CMSS17-105"/>
        <path d="M 40.796875 69 
L 33.40625 69 
L 33.40625 38.09375 
C 30.296875 40.671875 25.203125 43.0625 19.59375 43.0625 
C 10.5 43.0625 3.296875 33.296875 3.296875 21.046875 
C 3.296875 8.78125 10.40625 -1 19.296875 -1 
C 26.203125 -1 30.796875 2.6875 33.203125 4.78125 
L 33.203125 -0.203125 
L 40.796875 -0.203125 
z
M 33.203125 13.0625 
C 33.203125 11.671875 33.203125 10.203125 30.09375 7.53125 
C 28.09375 5.859375 25.703125 5.078125 23.40625 5.078125 
C 18 5.078125 10.90625 9 10.90625 20.9375 
C 10.90625 33.34375 18.90625 37 24.40625 37 
C 28.09375 37 31.09375 35.21875 33.203125 32.265625 
z
" id="CMSS17-100"/>
        <path d="M 39.09375 21.515625 
C 39.09375 24.84375 38.90625 31.296875 35.703125 36.640625 
C 32.203125 42.390625 26.5 44 22.203125 44 
C 11.796875 44 3 34.1875 3 21.484375 
C 3 9.09375 12.09375 -1 23.59375 -1 
C 28.09375 -1 33.59375 0.296875 38.59375 3.875 
C 38.59375 4.28125 38.40625 6.46875 38.296875 6.5625 
C 38.296875 6.765625 38 9.84375 38 10.25 
C 33.203125 6.359375 27.703125 5.078125 23.703125 5.078125 
C 17.296875 5.078125 10.40625 10.421875 10.09375 21.515625 
z
M 10.90625 27 
C 12.203125 32.5625 16.59375 37.828125 22.203125 37.828125 
C 23.703125 37.828125 30.703125 37.828125 32.5 27 
z
" id="CMSS17-101"/>
       </defs>
       <use transform="scale(0.996264)" xlink:href="#CMSS17-49"/>
       <use transform="translate(46.843624 0)scale(0.996264)" xlink:href="#CMSS17-46"/>
       <use transform="translate(72.867828 0)scale(0.996264)" xlink:href="#CMSS17-53"/>
       <use transform="translate(119.711452 0)scale(0.996264)" xlink:href="#CMSS17-44"/>
       <use transform="translate(176.96477 0)scale(0.996264)" xlink:href="#CMSS17-119"/>
       <use transform="translate(240.784315 0)scale(0.996264)" xlink:href="#CMSS17-105"/>
       <use transform="translate(262.965038 0)scale(0.996264)" xlink:href="#CMSS17-100"/>
       <use transform="translate(311.169981 0)scale(0.996264)" xlink:href="#CMSS17-101"/>
      </g>
     </g>
    </g>
    <g id="xtick_2">
     <g id="text_2">
      <!-- 3, wide -->
      <g transform="translate(109.502916 293.356463)rotate(-45)scale(0.18 -0.18)">
       <defs>
        <path d="M 15.703125 31.640625 
L 22.5 31.640625 
C 31.90625 31.640625 34.59375 23.546875 34.59375 17.90625 
C 34.59375 10.203125 30.203125 4.171875 23 4.171875 
C 17.40625 4.171875 9.5 6.9375 5 14.25 
C 4.296875 10.796875 4.296875 10.59375 3.90625 8.21875 
C 8.59375 1.375 16.203125 -2 23.203125 -2 
C 34.59375 -2 43 7.390625 43 17.78125 
C 43 25.59375 37.5 32.140625 30 34.609375 
C 36 37.875 40.40625 44 40.40625 51.140625 
C 40.40625 59.453125 32.703125 66.078125 23.296875 66.078125 
C 14.703125 66.078125 8 60.8125 5.203125 55.15625 
C 5.90625 54.1875 7.703125 51.3125 8.59375 49.828125 
C 10.796875 55.65625 16.5 60 23.203125 60 
C 28.796875 60 32.5 56.359375 32.5 51.109375 
C 32.5 45.671875 29 39.734375 23.09375 38.359375 
C 22.703125 38.359375 16.5 37.765625 15.703125 37.671875 
z
" id="CMSS17-51"/>
       </defs>
       <use transform="scale(0.996264)" xlink:href="#CMSS17-51"/>
       <use transform="translate(46.843624 0)scale(0.996264)" xlink:href="#CMSS17-44"/>
       <use transform="translate(104.096941 0)scale(0.996264)" xlink:href="#CMSS17-119"/>
       <use transform="translate(167.916486 0)scale(0.996264)" xlink:href="#CMSS17-105"/>
       <use transform="translate(190.097209 0)scale(0.996264)" xlink:href="#CMSS17-100"/>
       <use transform="translate(238.302152 0)scale(0.996264)" xlink:href="#CMSS17-101"/>
      </g>
     </g>
    </g>
    <g id="xtick_3">
     <g id="text_3">
      <!-- neg.Ctrl -->
      <g transform="translate(148.814739 297.24464)rotate(-45)scale(0.18 -0.18)">
       <defs>
        <path d="M 40.90625 29.328125 
C 40.90625 35.671875 39.40625 44 28.09375 44 
C 21.703125 44 17.5 40.71875 14.703125 37.328125 
L 14.703125 43.09375 
L 7.40625 43.09375 
L 7.40625 0 
L 15 0 
L 15 24.359375 
C 15 30.6875 17.40625 37.9375 24.203125 37.9375 
C 33 37.9375 33.296875 32 33.296875 28.578125 
L 33.296875 0 
L 40.90625 0 
z
" id="CMSS17-110"/>
        <path d="M 44.5 43.875 
C 38.796875 43.875 33.90625 42.78125 29.90625 40.890625 
C 26.59375 43.390625 23.203125 43.875 20.90625 43.875 
C 12.203125 43.875 5.59375 36.703125 5.59375 28.34375 
C 5.59375 22.9375 8.59375 18.859375 8.796875 18.671875 
C 7 16.171875 6 13.484375 6 10.5 
C 6 7 7.40625 4.515625 8.5 3.125 
C 3.296875 -0.046875 2.59375 -4.90625 2.59375 -6.796875 
C 2.59375 -14.03125 11.703125 -20 23.40625 -20 
C 35.203125 -20 44.296875 -14.03125 44.296875 -6.6875 
C 44.296875 7 29 7 24.796875 7 
L 16.703125 7 
C 15.203125 7 11.203125 7 11.203125 12.359375 
C 11.203125 14.390625 12.09375 15.6875 12.203125 15.78125 
C 13.703125 14.6875 16.796875 13 20.90625 13 
C 29.203125 13 36.09375 19.96875 36.09375 28.546875 
C 36.09375 33.3125 33.90625 36.796875 33 38 
L 33.296875 38 
C 33.59375 38 37.796875 38 39.296875 38 
C 42.5 38 42.796875 37.953125 45.59375 37.796875 
z
M 20.90625 18.46875 
C 17.5 18.46875 12.703125 20.546875 12.703125 28.484375 
C 12.703125 37.109375 18.203125 38.5 20.796875 38.5 
C 24.203125 38.5 29 36.421875 29 28.484375 
C 29 19.859375 23.5 18.46875 20.90625 18.46875 
z
M 24.703125 -0.15625 
C 27.09375 -0.15625 37.203125 -0.15625 37.203125 -6.90625 
C 37.203125 -11.15625 31 -14.515625 23.5 -14.515625 
C 15.90625 -14.515625 9.703125 -11.25 9.703125 -6.796875 
C 9.703125 -6.296875 9.703125 -0.15625 16.59375 -0.15625 
z
" id="CMSS17-103"/>
        <path d="M 54.296875 66.890625 
C 48.40625 69.28125 43.203125 70.375 37.09375 70.375 
C 19 70.375 6.203125 53.421875 6.203125 34.1875 
C 6.203125 15.15625 18.703125 -2 37.203125 -2 
C 45.203125 -2 48.90625 -0.609375 55.296875 3.578125 
L 55 6.875 
C 55 7.765625 54.703125 9.359375 54.59375 10.359375 
C 48.59375 5.671875 44.40625 4.375 37.296875 4.375 
C 22.90625 4.375 14.59375 19.234375 14.59375 34.1875 
C 14.59375 50.046875 23.796875 64 37 64 
C 41.5 64 46.703125 63.203125 52.90625 58.921875 
z
" id="CMSS17-67"/>
        <path d="M 16.703125 37 
L 29.703125 37 
L 29.703125 42.765625 
L 16.703125 42.765625 
L 16.703125 55 
L 9.59375 55 
L 9.59375 42.765625 
L 1.703125 42.765625 
L 1.703125 37 
L 9.40625 37 
L 9.40625 11.703125 
C 9.40625 6 10.703125 -1 17.296875 -1 
C 22.296875 -1 26.90625 0.390625 31.296875 2.6875 
L 29.703125 8.5625 
C 27.296875 6.46875 24.40625 5.265625 21.296875 5.265625 
C 16.90625 5.265625 16.703125 10.875 16.703125 13.375 
z
" id="CMSS17-116"/>
        <path d="M 14.90625 21.296875 
C 14.90625 30.703125 21.796875 37 30.59375 37 
L 30.59375 43.578125 
C 24.203125 43.578125 18.203125 40.390625 14.59375 35.203125 
L 14.59375 43.09375 
L 7.5 43.09375 
L 7.5 0 
L 14.90625 0 
z
" id="CMSS17-114"/>
        <path d="M 14.796875 69 
L 7.40625 69 
L 7.40625 0 
L 14.796875 0 
z
" id="CMSS17-108"/>
       </defs>
       <use transform="scale(0.996264)" xlink:href="#CMSS17-110"/>
       <use transform="translate(48.204943 0)scale(0.996264)" xlink:href="#CMSS17-101"/>
       <use transform="translate(89.843765 0)scale(0.996264)" xlink:href="#CMSS17-103"/>
       <use transform="translate(136.687389 0)scale(0.996264)" xlink:href="#CMSS17-46"/>
       <use transform="translate(162.711594 0)scale(0.996264)" xlink:href="#CMSS17-67"/>
       <use transform="translate(222.567365 0)scale(0.996264)" xlink:href="#CMSS17-116"/>
       <use transform="translate(256.398932 0)scale(0.996264)" xlink:href="#CMSS17-114"/>
       <use transform="translate(288.308704 0)scale(0.996264)" xlink:href="#CMSS17-108"/>
      </g>
     </g>
    </g>
    <g id="xtick_4">
     <g id="text_4">
      <!-- 3 -->
      <g transform="translate(225.571347 263.688032)rotate(-45)scale(0.18 -0.18)">
       <use transform="scale(0.996264)" xlink:href="#CMSS17-51"/>
      </g>
     </g>
    </g>
   </g>
   <g id="matplotlib.axis_2">
    <g id="ytick_1">
     <g id="line2d_1">
      <path clip-path="url(#paef29475eb)" d="M 72 65.52 
L 266.4 65.52 
" style="fill:none;stroke:#b0b0b0;stroke-linecap:square;stroke-opacity:0.6;stroke-width:0.7;"/>
     </g>
     <g id="line2d_2">
      <defs>
       <path d="M 0 0 
L -3.5 0 
" id="mfb095b330b" style="stroke:#000000;stroke-width:0.8;"/>
      </defs>
      <g>
       <use style="stroke:#000000;stroke-width:0.8;" x="72" xlink:href="#mfb095b330b" y="65.52"/>
      </g>
     </g>
     <g id="text_5">
      <!-- 9 -->
      <g transform="translate(57.927644 70.535904)scale(0.145 -0.145)">
       <defs>
        <path d="M 6.796875 2.71875 
C 9.59375 0.328125 13.203125 -2 19.296875 -2 
C 31.40625 -2 43 11.265625 43 32.734375 
C 43 61.4375 30.5 66.078125 23.796875 66.078125 
C 17.09375 66.078125 12.796875 63.140625 9.09375 58.453125 
C 4.703125 53.078125 3.90625 48.28125 3.90625 42.703125 
C 3.90625 36.046875 5.09375 31.953125 7.90625 27.265625 
C 11.703125 21.203125 15.203125 19.921875 19.09375 19.921875 
C 25 19.921875 30.90625 22.796875 34.90625 27.75 
C 34.203125 14.09375 28.09375 4.171875 19.296875 4.171875 
C 15.703125 4.171875 12.796875 5.296875 9.90625 8.0625 
z
M 34.59375 42.90625 
C 34.703125 42.234375 34.703125 40.96875 34.703125 40.5625 
C 34.703125 32.40625 29.90625 26 22.90625 26 
C 18.296875 26 15.90625 28.328125 14.09375 31.34375 
C 11.90625 35.140625 11.796875 38.828125 11.796875 42.703125 
C 11.796875 46.5 11.796875 50.6875 14.59375 54.859375 
C 16.703125 57.859375 19.296875 60 23.796875 60 
C 33 60 34.5 46.875 34.59375 42.90625 
z
" id="CMSS17-57"/>
       </defs>
       <use transform="scale(0.996264)" xlink:href="#CMSS17-57"/>
      </g>
     </g>
    </g>
    <g id="ytick_2">
     <g id="line2d_3">
      <path clip-path="url(#paef29475eb)" d="M 72 100.8 
L 266.4 100.8 
" style="fill:none;stroke:#b0b0b0;stroke-linecap:square;stroke-opacity:0.6;stroke-width:0.7;"/>
     </g>
     <g id="line2d_4">
      <g>
       <use style="stroke:#000000;stroke-width:0.8;" x="72" xlink:href="#mfb095b330b" y="100.8"/>
      </g>
     </g>
     <g id="text_6">
      <!-- 6 -->
      <g transform="translate(57.927644 105.815904)scale(0.145 -0.145)">
       <defs>
        <path d="M 39 64.078125 
C 34.796875 65.78125 31.796875 66.078125 29 66.078125 
C 16 66.078125 3.90625 52.625 3.90625 31.34375 
C 3.90625 4.140625 15.40625 -2 23.59375 -2 
C 28.09375 -2 32.59375 -0.609375 36.90625 4.375 
C 41.296875 9.640625 43 14.03125 43 21.703125 
C 43 34.046875 36.90625 45 27.796875 45 
C 21.203125 45 15.5 41.515625 12 37.125 
C 13 50.90625 19.59375 60 29.09375 60 
C 31.703125 60 35.09375 59.625 39 57.96875 
z
M 12.09375 21.390625 
C 12.09375 22.1875 12.09375 22.6875 12.203125 24.1875 
C 12.203125 31.953125 16.703125 38.921875 24 38.921875 
C 28.703125 38.921875 31.09375 36.4375 32.90625 33.359375 
C 35 29.46875 35.09375 25.78125 35.09375 21.6875 
C 35.09375 17.8125 35.09375 13.921875 32.796875 9.953125 
C 30.90625 6.859375 28.40625 4.171875 23.59375 4.171875 
C 14.09375 4.171875 12.5 17.40625 12.09375 21.390625 
z
" id="CMSS17-54"/>
       </defs>
       <use transform="scale(0.996264)" xlink:href="#CMSS17-54"/>
      </g>
     </g>
    </g>
    <g id="ytick_3">
     <g id="line2d_5">
      <path clip-path="url(#paef29475eb)" d="M 72 136.08 
L 266.4 136.08 
" style="fill:none;stroke:#b0b0b0;stroke-linecap:square;stroke-opacity:0.6;stroke-width:0.7;"/>
     </g>
     <g id="line2d_6">
      <g>
       <use style="stroke:#000000;stroke-width:0.8;" x="72" xlink:href="#mfb095b330b" y="136.08"/>
      </g>
     </g>
     <g id="text_7">
      <!-- 3 -->
      <g transform="translate(57.927644 141.095904)scale(0.145 -0.145)">
       <use transform="scale(0.996264)" xlink:href="#CMSS17-51"/>
      </g>
     </g>
    </g>
    <g id="ytick_4">
     <g id="line2d_7">
      <path clip-path="url(#paef29475eb)" d="M 72 171.36 
L 266.4 171.36 
" style="fill:none;stroke:#b0b0b0;stroke-linecap:square;stroke-opacity:0.6;stroke-width:0.7;"/>
     </g>
     <g id="line2d_8">
      <g>
       <use style="stroke:#000000;stroke-width:0.8;" x="72" xlink:href="#mfb095b330b" y="171.36"/>
      </g>
     </g>
     <g id="text_8">
      <!-- 0 -->
      <g transform="translate(57.927644 176.375904)scale(0.145 -0.145)">
       <defs>
        <path d="M 43.09375 31.9375 
C 43.09375 37.578125 43 48.078125 38.90625 56.1875 
C 34.796875 64 28.203125 66.078125 23.5 66.078125 
C 16.703125 66.078125 10.90625 62.109375 7.90625 55.78125 
C 4.703125 49.15625 3.796875 42.328125 3.796875 31.9375 
C 3.796875 24.828125 4.09375 16.109375 7.703125 8.484375 
C 11.796875 0.078125 18.703125 -2 23.40625 -2 
C 29.59375 -2 35.59375 1.265625 39 8.09375 
C 42.5 15.21875 43.09375 23.03125 43.09375 31.9375 
z
M 23.40625 4.078125 
C 15.796875 4.078125 13.5 12.671875 12.796875 15.546875 
C 11.59375 20.46875 11.40625 25.21875 11.40625 33.03125 
C 11.40625 39.15625 11.40625 46.0625 13.296875 51.515625 
C 15.59375 57.828125 19.59375 60 23.40625 60 
C 30.796875 60 33.203125 52.6875 34 50.125 
C 35.5 44.890625 35.5 38.765625 35.5 33.03125 
C 35.5 23.84375 35.5 4.078125 23.40625 4.078125 
z
" id="CMSS17-48"/>
       </defs>
       <use transform="scale(0.996264)" xlink:href="#CMSS17-48"/>
      </g>
     </g>
    </g>
    <g id="ytick_5">
     <g id="line2d_9">
      <path clip-path="url(#paef29475eb)" d="M 72 183.12 
L 266.4 183.12 
" style="fill:none;stroke:#b0b0b0;stroke-linecap:square;stroke-opacity:0.6;stroke-width:0.7;"/>
     </g>
     <g id="line2d_10">
      <g>
       <use style="stroke:#000000;stroke-width:0.8;" x="72" xlink:href="#mfb095b330b" y="183.12"/>
      </g>
     </g>
     <g id="text_9">
      <!-- 1 -->
      <g transform="translate(57.927644 188.135904)scale(0.145 -0.145)">
       <use transform="scale(0.996264)" xlink:href="#CMSS17-49"/>
      </g>
     </g>
    </g>
    <g id="ytick_6">
     <g id="line2d_11">
      <path clip-path="url(#paef29475eb)" d="M 72 206.64 
L 266.4 206.64 
" style="fill:none;stroke:#b0b0b0;stroke-linecap:square;stroke-opacity:0.6;stroke-width:0.7;"/>
     </g>
     <g id="line2d_12">
      <g>
       <use style="stroke:#000000;stroke-width:0.8;" x="72" xlink:href="#mfb095b330b" y="206.64"/>
      </g>
     </g>
     <g id="text_10">
      <!-- 3 -->
      <g transform="translate(57.927644 211.655904)scale(0.145 -0.145)">
       <use transform="scale(0.996264)" xlink:href="#CMSS17-51"/>
      </g>
     </g>
    </g>
    <g id="text_11">
     <!-- n axons -->
     <g transform="translate(50.43958 162.928628)rotate(-90)scale(0.18 -0.18)">
      <defs>
       <path d="M 37.59375 27.984375 
C 37.59375 37.375 30.90625 43.875 21.90625 43.875 
C 17.5 43.875 12.703125 43.078125 7.203125 39.890625 
L 7.796875 33.359375 
C 10.296875 35.125 14.59375 38 21.796875 38 
C 26.90625 38 30 34.0625 30 27.84375 
L 30 24 
C 14 24 4 19.34375 4 11.34375 
C 4 7.203125 6.5 -1 14.796875 -1 
C 16.296875 -1 24.40625 -1 30.203125 3.390625 
L 30.203125 -0.296875 
L 37.59375 -0.296875 
z
M 30 12.75 
C 30 10.953125 30 8.5625 27 6.78125 
C 24.40625 5.078125 21.09375 5.078125 19.703125 5.078125 
C 14.703125 5.078125 11.296875 7.984375 11.296875 11.625 
C 11.296875 18.921875 26.90625 18.921875 30 18.921875 
z
" id="CMSS17-97"/>
       <path d="M 24.796875 22.09375 
L 41.5 42.796875 
L 32.796875 42.796875 
L 21.296875 27.765625 
L 9.40625 42.796875 
L 0.5 42.796875 
L 17.796875 22.09375 
L 0 0 
L 8.796875 0 
L 21.296875 17.515625 
L 34.296875 0 
L 43.09375 0 
z
" id="CMSS17-120"/>
       <path d="M 44.203125 21.1875 
C 44.203125 34 34.703125 44 23.5 44 
C 12 44 2.703125 33.703125 2.703125 21.1875 
C 2.703125 8.5 12.296875 -1 23.40625 -1 
C 34.796875 -1 44.203125 8.796875 44.203125 21.1875 
z
M 23.5 5.265625 
C 16.40625 5.265625 10.296875 11.078125 10.296875 22 
C 10.296875 33.609375 17.40625 37.921875 23.40625 37.921875 
C 29.90625 37.921875 36.59375 33.21875 36.59375 22 
C 36.59375 10.671875 30.09375 5.265625 23.5 5.265625 
z
" id="CMSS17-111"/>
       <path d="M 32.203125 41.046875 
C 26.296875 43.859375 21.703125 43.859375 18.703125 43.859375 
C 11.59375 43.859375 3.09375 41.375 3.09375 31.296875 
C 3.09375 21.234375 14.09375 19.03125 17.09375 18.421875 
C 21.703125 17.53125 26.796875 16.53125 26.796875 11.5625 
C 26.796875 5.265625 19.59375 5.265625 18.296875 5.265625 
C 14.296875 5.265625 8.796875 6.359375 3.796875 9.96875 
L 2.59375 3.28125 
C 8.296875 0 13.796875 -1 18.40625 -1 
C 30.703125 -1 33.796875 6.5 33.796875 12.203125 
C 33.796875 17.09375 31 20.390625 29.09375 21.890625 
C 25.796875 24.5 24.59375 24.796875 16.40625 26.5 
C 15 26.703125 10.09375 27.796875 10.09375 32.28125 
C 10.09375 38 16.40625 38 17.796875 38 
C 24.296875 38 28.296875 35.984375 31 34.5 
z
" id="CMSS17-115"/>
      </defs>
      <use transform="scale(0.996264)" xlink:href="#CMSS17-110"/>
      <use transform="translate(79.434056 0)scale(0.996264)" xlink:href="#CMSS17-97"/>
      <use transform="translate(124.355976 0)scale(0.996264)" xlink:href="#CMSS17-120"/>
      <use transform="translate(167.356118 0)scale(0.996264)" xlink:href="#CMSS17-111"/>
      <use transform="translate(214.199742 0)scale(0.996264)" xlink:href="#CMSS17-110"/>
      <use transform="translate(262.404685 0)scale(0.996264)" xlink:href="#CMSS17-115"/>
     </g>
    </g>
   </g>
   <g id="patch_5">
    <path d="M 72 241.92 
L 72 30.24 
" style="fill:none;stroke:#000000;stroke-linecap:square;stroke-linejoin:miter;stroke-width:0.8;"/>
   </g>
   <g id="patch_6">
    <path d="M 266.4 241.92 
L 266.4 30.24 
" style="fill:none;stroke:#000000;stroke-linecap:square;stroke-linejoin:miter;stroke-width:0.8;"/>
   </g>
   <g id="patch_7">
    <path d="M 72 241.92 
L 266.4 241.92 
" style="fill:none;stroke:#000000;stroke-linecap:square;stroke-linejoin:miter;stroke-width:0.8;"/>
   </g>
   <g id="patch_8">
    <path d="M 72 30.24 
L 266.4 30.24 
" style="fill:none;stroke:#000000;stroke-linecap:square;stroke-linejoin:miter;stroke-width:0.8;"/>
   </g>
   <g id="text_12">
    <!-- reached target -->
    <g transform="translate(179.814773 44.505408)scale(0.145 -0.145)">
     <defs>
      <path d="M 38.5 39.703125 
C 38.5 40.390625 33.90625 42.40625 32.703125 42.796875 
C 29.40625 44 25.203125 44 24.09375 44 
C 11.09375 44 3.296875 32.703125 3.296875 21.296875 
C 3.296875 9.296875 12 -1 23.703125 -1 
C 30.40625 -1 35.203125 1.1875 39.09375 3.78125 
L 38.5 10.375 
C 34.203125 7.078125 29.203125 5.265625 23.796875 5.265625 
C 16 5.265625 10.90625 12.09375 10.90625 21.390625 
C 10.90625 28.609375 14.203125 37.71875 24.203125 37.71875 
C 29.703125 37.71875 32.796875 36.609375 37.40625 33.515625 
z
" id="CMSS17-99"/>
      <path d="M 40.90625 29.546875 
C 40.90625 35.8125 39.40625 44.0625 28.09375 44.0625 
C 21.796875 44.0625 17.703125 40.984375 14.796875 37.609375 
L 14.796875 69.5 
L 7.40625 69.5 
L 7.40625 0.5 
L 15 0.5 
L 15 24.578125 
C 15 30.828125 17.40625 38 24.203125 38 
C 33 38 33.296875 32.125 33.296875 28.734375 
L 33.296875 0.5 
L 40.90625 0.5 
z
" id="CMSS17-104"/>
     </defs>
     <use transform="scale(0.996264)" xlink:href="#CMSS17-114"/>
     <use transform="translate(31.909773 0)scale(0.996264)" xlink:href="#CMSS17-101"/>
     <use transform="translate(73.548595 0)scale(0.996264)" xlink:href="#CMSS17-97"/>
     <use transform="translate(118.470515 0)scale(0.996264)" xlink:href="#CMSS17-99"/>
     <use transform="translate(160.109337 0)scale(0.996264)" xlink:href="#CMSS17-104"/>
     <use transform="translate(208.31428 0)scale(0.996264)" xlink:href="#CMSS17-101"/>
     <use transform="translate(249.953103 0)scale(0.996264)" xlink:href="#CMSS17-100"/>
     <use transform="translate(329.387158 0)scale(0.996264)" xlink:href="#CMSS17-116"/>
     <use transform="translate(363.218725 0)scale(0.996264)" xlink:href="#CMSS17-97"/>
     <use transform="translate(405.538192 0)scale(0.996264)" xlink:href="#CMSS17-114"/>
     <use transform="translate(437.447964 0)scale(0.996264)" xlink:href="#CMSS17-103"/>
     <use transform="translate(484.291588 0)scale(0.996264)" xlink:href="#CMSS17-101"/>
     <use transform="translate(525.93041 0)scale(0.996264)" xlink:href="#CMSS17-116"/>
    </g>
   </g>
   <g id="text_13">
    <!-- reached neighbor -->
    <g transform="translate(164.240578 234.877506)scale(0.145 -0.145)">
     <defs>
      <path d="M 14.90625 69 
L 7.5 69 
L 7.5 -0.203125 
L 15.09375 -0.203125 
L 15.09375 4.28125 
C 18.90625 0.59375 23.5 -1 27.59375 -1 
C 37.203125 -1 45 8.578125 45 21.125 
C 45 32.59375 39 43.0625 30.09375 43.0625 
C 23.796875 43.0625 18.203125 40.484375 14.90625 37.796875 
z
M 15.09375 31.96875 
C 17.296875 34.71875 20.40625 37 24.796875 37 
C 30.703125 37 37.40625 32.765625 37.40625 21.125 
C 37.40625 8.71875 29.40625 5.078125 23.90625 5.078125 
C 21.90625 5.078125 19.796875 5.5625 17.796875 7.25 
C 15.09375 9.609375 15.09375 11.078125 15.09375 12.453125 
z
" id="CMSS17-98"/>
     </defs>
     <use transform="scale(0.996264)" xlink:href="#CMSS17-114"/>
     <use transform="translate(31.909773 0)scale(0.996264)" xlink:href="#CMSS17-101"/>
     <use transform="translate(73.548595 0)scale(0.996264)" xlink:href="#CMSS17-97"/>
     <use transform="translate(118.470515 0)scale(0.996264)" xlink:href="#CMSS17-99"/>
     <use transform="translate(160.109337 0)scale(0.996264)" xlink:href="#CMSS17-104"/>
     <use transform="translate(208.31428 0)scale(0.996264)" xlink:href="#CMSS17-101"/>
     <use transform="translate(249.953103 0)scale(0.996264)" xlink:href="#CMSS17-100"/>
     <use transform="translate(329.387158 0)scale(0.996264)" xlink:href="#CMSS17-110"/>
     <use transform="translate(377.592102 0)scale(0.996264)" xlink:href="#CMSS17-101"/>
     <use transform="translate(419.230924 0)scale(0.996264)" xlink:href="#CMSS17-105"/>
     <use transform="translate(441.411647 0)scale(0.996264)" xlink:href="#CMSS17-103"/>
     <use transform="translate(488.25527 0)scale(0.996264)" xlink:href="#CMSS17-104"/>
     <use transform="translate(536.460213 0)scale(0.996264)" xlink:href="#CMSS17-98"/>
     <use transform="translate(587.267595 0)scale(0.996264)" xlink:href="#CMSS17-111"/>
     <use transform="translate(631.508765 0)scale(0.996264)" xlink:href="#CMSS17-114"/>
    </g>
   </g>
   <g id="text_14">
    <!-- final lane design, opening diameter [$\upmu$m] -->
    <g transform="translate(26.914266 24.24)scale(0.18 -0.18)">
     <defs>
      <path d="M 43 69 
L 35 69 
L 35 61.03125 
L 43 61.03125 
z
M 42.703125 42.765625 
L 35.296875 42.765625 
L 35.296875 0 
L 42.703125 0 
z
M 16.796875 37 
L 27.703125 37 
L 27.703125 42.765625 
L 16.59375 42.765625 
L 16.59375 55.90625 
C 16.59375 61.234375 19 63.9375 22.203125 63.9375 
C 24.09375 63.9375 26 63.375 27.703125 62.375 
L 27.703125 68.90625 
C 26.90625 69.1875 24.59375 70 22.203125 70 
C 14.703125 70 9.40625 62.390625 9.40625 52.6875 
L 9.40625 42.765625 
L 2.5 42.765625 
L 2.5 37 
L 9.40625 37 
L 9.40625 0 
L 16.796875 0 
z
" id="CMSS17-12"/>
      <path d="M 15.09375 5.203125 
C 18.40625 2.015625 22.90625 -0.078125 27.703125 -0.078125 
C 37 -0.078125 45 9.421875 45 22.0625 
C 45 33.734375 39 44 30.40625 44 
C 25.40625 44 19.40625 42.21875 14.90625 38.625 
L 14.90625 43.203125 
L 7.5 43.203125 
L 7.5 -19 
L 15.09375 -19 
z
M 15.09375 32.8125 
C 15.90625 34 19.296875 37.734375 24.796875 37.734375 
C 31.796875 37.734375 37.40625 30.625 37.40625 22.0625 
C 37.40625 12.296875 30.59375 6 23.90625 6 
C 21.90625 6 19.796875 6.484375 17.796875 8.171875 
C 15.09375 10.53125 15.09375 12 15.09375 13.390625 
z
" id="CMSS17-112"/>
      <path d="M 67 29.328125 
C 67 36.0625 65.296875 44 54.09375 44 
C 46.59375 44 42.09375 39.3125 40.09375 36.421875 
C 38.296875 41.71875 34.09375 44 28.09375 44 
C 21.296875 44 17 40.125 14.703125 37.328125 
L 14.703125 43.09375 
L 7.40625 43.09375 
L 7.40625 0 
L 15 0 
L 15 24.359375 
C 15 30.296875 17.203125 37.9375 24.296875 37.9375 
C 33.40625 37.9375 33.40625 31.5 33.40625 28.578125 
L 33.40625 0 
L 41 0 
L 41 24.359375 
C 41 30.296875 43.203125 37.9375 50.296875 37.9375 
C 59.40625 37.9375 59.40625 31.5 59.40625 28.578125 
L 59.40625 0 
L 67 0 
z
" id="CMSS17-109"/>
      <path d="M 25.203125 -25 
L 25.203125 -18.9375 
L 16.59375 -18.9375 
L 16.59375 68 
L 25.203125 68 
L 25.203125 74.078125 
L 9.296875 74.078125 
L 9.296875 -25 
z
" id="CMSS17-91"/>
      <path d="M 48.5 46.75 
L 40.796875 43.5625 
C 41 37.90625 41.203125 32.234375 41.203125 26.46875 
C 41.203125 24.390625 41 17.125 40.90625 12.359375 
C 38.796875 10.625 36.59375 9.0625 34.09375 7.90625 
C 32.296875 6.9375 30.203125 6.265625 28.09375 6.265625 
C 26.09375 6.265625 23.796875 6.265625 22.296875 7.75 
C 19.296875 10.71875 18.796875 14.96875 18.796875 19.03125 
C 18.796875 27.921875 18.796875 36.84375 18.796875 45.65625 
L 17.90625 46.34375 
L 9.59375 43.765625 
C 9.59375 43.671875 11 32.9375 11.59375 27.46875 
C 11.59375 21.21875 11.59375 15 11.59375 8.75 
C 11.59375 -0.359375 11.40625 -9.46875 11.203125 -18.578125 
L 12.40625 -19.1875 
L 17.40625 -17.1875 
C 16 -10.71875 16 -3.65625 16 3.125 
C 17.5 1.375 19.59375 0 22.09375 0 
C 26.59375 0 34.5 4.28125 40.296875 7.5 
C 40.5 7.59375 40.703125 7.390625 40.90625 7.28125 
C 41.203125 7.171875 41.296875 6.96875 41.5 6.75 
C 41.796875 4.75 42.203125 2.640625 43.5 1.265625 
C 44.703125 0 46.59375 0 48.296875 0 
C 50.796875 0 53.09375 1.03125 55.203125 2.28125 
C 58.296875 3.921875 61 6.3125 63.5 8.6875 
L 62.09375 10.578125 
C 59.5 8.984375 56.40625 7 53.90625 7 
C 52.90625 7 51.796875 7.390625 51.09375 8.09375 
C 50.09375 8.984375 49.703125 10.28125 49.296875 11.46875 
C 48.90625 13.25 48.703125 15.046875 48.703125 16.828125 
C 48.703125 22.296875 48.703125 27.859375 48.703125 33.421875 
C 48.703125 36.515625 49 41.578125 49.296875 45.65625 
z
" id="EURM10-22"/>
      <path d="M 17.90625 74.078125 
L 2 74.078125 
L 2 68 
L 10.59375 68 
L 10.59375 -18.9375 
L 2 -18.9375 
L 2 -25 
L 17.90625 -25 
z
" id="CMSS17-93"/>
     </defs>
     <use transform="scale(0.996264)" xlink:href="#CMSS17-12"/>
     <use transform="translate(50.126737 0)scale(0.996264)" xlink:href="#CMSS17-110"/>
     <use transform="translate(98.33168 0)scale(0.996264)" xlink:href="#CMSS17-97"/>
     <use transform="translate(143.253601 0)scale(0.996264)" xlink:href="#CMSS17-108"/>
     <use transform="translate(196.663437 0)scale(0.996264)" xlink:href="#CMSS17-108"/>
     <use transform="translate(218.84416 0)scale(0.996264)" xlink:href="#CMSS17-97"/>
     <use transform="translate(263.76608 0)scale(0.996264)" xlink:href="#CMSS17-110"/>
     <use transform="translate(311.971024 0)scale(0.996264)" xlink:href="#CMSS17-101"/>
     <use transform="translate(384.838958 0)scale(0.996264)" xlink:href="#CMSS17-100"/>
     <use transform="translate(433.043902 0)scale(0.996264)" xlink:href="#CMSS17-101"/>
     <use transform="translate(474.682724 0)scale(0.996264)" xlink:href="#CMSS17-115"/>
     <use transform="translate(510.596266 0)scale(0.996264)" xlink:href="#CMSS17-105"/>
     <use transform="translate(532.776989 0)scale(0.996264)" xlink:href="#CMSS17-103"/>
     <use transform="translate(579.620612 0)scale(0.996264)" xlink:href="#CMSS17-110"/>
     <use transform="translate(627.825555 0)scale(0.996264)" xlink:href="#CMSS17-44"/>
     <use transform="translate(685.078873 0)scale(0.996264)" xlink:href="#CMSS17-111"/>
     <use transform="translate(731.922496 0)scale(0.996264)" xlink:href="#CMSS17-112"/>
     <use transform="translate(782.729878 0)scale(0.996264)" xlink:href="#CMSS17-101"/>
     <use transform="translate(824.3687 0)scale(0.996264)" xlink:href="#CMSS17-110"/>
     <use transform="translate(872.573644 0)scale(0.996264)" xlink:href="#CMSS17-105"/>
     <use transform="translate(894.754367 0)scale(0.996264)" xlink:href="#CMSS17-110"/>
     <use transform="translate(942.95931 0)scale(0.996264)" xlink:href="#CMSS17-103"/>
     <use transform="translate(1021.032046 0)scale(0.996264)" xlink:href="#CMSS17-100"/>
     <use transform="translate(1069.236989 0)scale(0.996264)" xlink:href="#CMSS17-105"/>
     <use transform="translate(1091.417712 0)scale(0.996264)" xlink:href="#CMSS17-97"/>
     <use transform="translate(1136.339633 0)scale(0.996264)" xlink:href="#CMSS17-109"/>
     <use transform="translate(1210.568887 0)scale(0.996264)" xlink:href="#CMSS17-101"/>
     <use transform="translate(1252.207709 0)scale(0.996264)" xlink:href="#CMSS17-116"/>
     <use transform="translate(1286.039276 0)scale(0.996264)" xlink:href="#CMSS17-101"/>
     <use transform="translate(1327.678098 0)scale(0.996264)" xlink:href="#CMSS17-114"/>
     <use transform="translate(1390.816983 0)scale(0.996264)" xlink:href="#CMSS17-91"/>
     <use transform="translate(1418.002422 0)scale(0.996264)" xlink:href="#EURM10-22"/>
     <use transform="translate(1479.539039 0)scale(0.996264)" xlink:href="#CMSS17-109"/>
     <use transform="translate(1553.768294 0)scale(0.996264)" xlink:href="#CMSS17-93"/>
    </g>
   </g>
   <g id="PathCollection_1">
    <defs>
     <path d="M 2.738613 0 
L -2.738613 -0 
" id="md7a7ca62b2" style="stroke:#000000;stroke-opacity:0.4;stroke-width:1.4;"/>
    </defs>
    <g>
     <use style="fill-opacity:0.4;stroke:#000000;stroke-opacity:0.4;stroke-width:1.4;" x="106.691422" xlink:href="#md7a7ca62b2" y="183.12"/>
     <use style="fill-opacity:0.4;stroke:#000000;stroke-opacity:0.4;stroke-width:1.4;" x="107.801041" xlink:href="#md7a7ca62b2" y="171.36"/>
    </g>
   </g>
   <g id="PathCollection_2">
    <g>
     <use style="fill-opacity:0.4;stroke:#000000;stroke-opacity:0.4;stroke-width:1.4;" x="151.196241" xlink:href="#md7a7ca62b2" y="194.88"/>
     <use style="fill-opacity:0.4;stroke:#000000;stroke-opacity:0.4;stroke-width:1.4;" x="148.126071" xlink:href="#md7a7ca62b2" y="194.88"/>
     <use style="fill-opacity:0.4;stroke:#000000;stroke-opacity:0.4;stroke-width:1.4;" x="150.674233" xlink:href="#md7a7ca62b2" y="171.36"/>
     <use style="fill-opacity:0.4;stroke:#000000;stroke-opacity:0.4;stroke-width:1.4;" x="150.723818" xlink:href="#md7a7ca62b2" y="171.36"/>
    </g>
   </g>
   <g id="PathCollection_3">
    <g>
     <use style="fill-opacity:0.4;stroke:#000000;stroke-opacity:0.4;stroke-width:1.4;" x="189.98752" xlink:href="#md7a7ca62b2" y="171.36"/>
     <use style="fill-opacity:0.4;stroke:#000000;stroke-opacity:0.4;stroke-width:1.4;" x="193.104601" xlink:href="#md7a7ca62b2" y="183.12"/>
     <use style="fill-opacity:0.4;stroke:#000000;stroke-opacity:0.4;stroke-width:1.4;" x="192.231395" xlink:href="#md7a7ca62b2" y="218.4"/>
     <use style="fill-opacity:0.4;stroke:#000000;stroke-opacity:0.4;stroke-width:1.4;" x="191.779968" xlink:href="#md7a7ca62b2" y="183.12"/>
    </g>
   </g>
   <g id="PathCollection_4">
    <g>
     <use style="fill-opacity:0.4;stroke:#000000;stroke-opacity:0.4;stroke-width:1.4;" x="235.143398" xlink:href="#md7a7ca62b2" y="171.36"/>
     <use style="fill-opacity:0.4;stroke:#000000;stroke-opacity:0.4;stroke-width:1.4;" x="234.905923" xlink:href="#md7a7ca62b2" y="183.12"/>
     <use style="fill-opacity:0.4;stroke:#000000;stroke-opacity:0.4;stroke-width:1.4;" x="236.277721" xlink:href="#md7a7ca62b2" y="171.36"/>
     <use style="fill-opacity:0.4;stroke:#000000;stroke-opacity:0.4;stroke-width:1.4;" x="237.226229" xlink:href="#md7a7ca62b2" y="194.88"/>
     <use style="fill-opacity:0.4;stroke:#000000;stroke-opacity:0.4;stroke-width:1.4;" x="237.973939" xlink:href="#md7a7ca62b2" y="194.88"/>
    </g>
   </g>
   <g id="PathCollection_5">
    <defs>
     <path d="M -2.738613 0 
L 2.738613 0 
M 0 2.738613 
L 0 -2.738613 
" id="m4b0816de7f" style="stroke:#000000;stroke-opacity:0.4;stroke-width:1.4;"/>
    </defs>
    <g>
     <use style="fill-opacity:0.4;stroke:#000000;stroke-opacity:0.4;stroke-width:1.4;" x="105.686223" xlink:href="#m4b0816de7f" y="171.36"/>
     <use style="fill-opacity:0.4;stroke:#000000;stroke-opacity:0.4;stroke-width:1.4;" x="107.305502" xlink:href="#m4b0816de7f" y="100.8"/>
    </g>
   </g>
   <g id="PathCollection_6">
    <g>
     <use style="fill-opacity:0.4;stroke:#000000;stroke-opacity:0.4;stroke-width:1.4;" x="145.677885" xlink:href="#m4b0816de7f" y="171.36"/>
     <use style="fill-opacity:0.4;stroke:#000000;stroke-opacity:0.4;stroke-width:1.4;" x="153.72422" xlink:href="#m4b0816de7f" y="65.52"/>
     <use style="fill-opacity:0.4;stroke:#000000;stroke-opacity:0.4;stroke-width:1.4;" x="151.597574" xlink:href="#m4b0816de7f" y="159.6"/>
     <use style="fill-opacity:0.4;stroke:#000000;stroke-opacity:0.4;stroke-width:1.4;" x="153.404851" xlink:href="#m4b0816de7f" y="147.84"/>
    </g>
   </g>
   <g id="PathCollection_7">
    <g>
     <use style="fill-opacity:0.4;stroke:#000000;stroke-opacity:0.4;stroke-width:1.4;" x="194.314185" xlink:href="#m4b0816de7f" y="159.6"/>
     <use style="fill-opacity:0.4;stroke:#000000;stroke-opacity:0.4;stroke-width:1.4;" x="194.435594" xlink:href="#m4b0816de7f" y="159.6"/>
     <use style="fill-opacity:0.4;stroke:#000000;stroke-opacity:0.4;stroke-width:1.4;" x="193.163249" xlink:href="#m4b0816de7f" y="171.36"/>
     <use style="fill-opacity:0.4;stroke:#000000;stroke-opacity:0.4;stroke-width:1.4;" x="192.739899" xlink:href="#m4b0816de7f" y="171.36"/>
    </g>
   </g>
   <g id="PathCollection_8">
    <g>
     <use style="fill-opacity:0.4;stroke:#000000;stroke-opacity:0.4;stroke-width:1.4;" x="234.875231" xlink:href="#m4b0816de7f" y="136.08"/>
     <use style="fill-opacity:0.4;stroke:#000000;stroke-opacity:0.4;stroke-width:1.4;" x="235.091556" xlink:href="#m4b0816de7f" y="171.36"/>
     <use style="fill-opacity:0.4;stroke:#000000;stroke-opacity:0.4;stroke-width:1.4;" x="234.059615" xlink:href="#m4b0816de7f" y="89.04"/>
     <use style="fill-opacity:0.4;stroke:#000000;stroke-opacity:0.4;stroke-width:1.4;" x="236.042005" xlink:href="#m4b0816de7f" y="171.36"/>
     <use style="fill-opacity:0.4;stroke:#000000;stroke-opacity:0.4;stroke-width:1.4;" x="236.456913" xlink:href="#m4b0816de7f" y="171.36"/>
    </g>
   </g>
  </g>
  <g id="axes_2">
   <g id="matplotlib.axis_3">
    <g id="ytick_7">
     <g id="line2d_13">
      <defs>
       <path d="M 0 0 
L 3.5 0 
" id="m30d11a321e" style="stroke:#000000;stroke-width:0.8;"/>
      </defs>
      <g>
       <use style="stroke:#000000;stroke-width:0.8;" x="266.4" xlink:href="#m30d11a321e" y="65.52"/>
      </g>
     </g>
     <g id="text_15">
      <!-- 10 -->
      <g style="fill:#6b6b6b;" transform="translate(273.4 70.535904)scale(0.145 -0.145)">
       <use transform="scale(0.996264)" xlink:href="#CMSS17-49"/>
       <use transform="translate(46.843624 0)scale(0.996264)" xlink:href="#CMSS17-48"/>
      </g>
     </g>
    </g>
    <g id="ytick_8">
     <g id="line2d_14">
      <g>
       <use style="stroke:#000000;stroke-width:0.8;" x="266.4" xlink:href="#m30d11a321e" y="100.8"/>
      </g>
     </g>
     <g id="text_16">
      <!-- 7 -->
      <g style="fill:#6b6b6b;" transform="translate(273.4 105.815904)scale(0.145 -0.145)">
       <defs>
        <path d="M 21.703125 59 
C 22.90625 59 24.09375 59 25.296875 59 
L 36.796875 59 
C 22.5 42.359375 14.296875 21.328125 14.296875 -0.5 
L 22.296875 -0.5 
C 22.296875 20.671875 29.296875 42.125 43 59.296875 
L 43 65.765625 
L 3.90625 65.765625 
L 3.90625 59 
z
" id="CMSS17-55"/>
       </defs>
       <use transform="scale(0.996264)" xlink:href="#CMSS17-55"/>
      </g>
     </g>
    </g>
    <g id="ytick_9">
     <g id="line2d_15">
      <g>
       <use style="stroke:#000000;stroke-width:0.8;" x="266.4" xlink:href="#m30d11a321e" y="136.08"/>
      </g>
     </g>
     <g id="text_17">
      <!-- 4 -->
      <g style="fill:#6b6b6b;" transform="translate(273.4 141.095904)scale(0.145 -0.145)">
       <defs>
        <path d="M 35.203125 17 
L 44.296875 17 
L 44.296875 23.078125 
L 35.203125 23.078125 
L 35.203125 65.5 
L 26.40625 65.5 
L 2.59375 23.078125 
L 2.59375 17 
L 27.296875 17 
L 27.296875 0 
L 35.203125 0 
z
M 10.296875 23.078125 
C 16.09375 33.234375 27.59375 53.734375 27.59375 60.703125 
L 27.59375 23.078125 
z
" id="CMSS17-52"/>
       </defs>
       <use transform="scale(0.996264)" xlink:href="#CMSS17-52"/>
      </g>
     </g>
    </g>
    <g id="ytick_10">
     <g id="line2d_16">
      <g>
       <use style="stroke:#000000;stroke-width:0.8;" x="266.4" xlink:href="#m30d11a321e" y="171.36"/>
      </g>
     </g>
     <g id="text_18">
      <!-- 1 -->
      <g style="fill:#6b6b6b;" transform="translate(273.4 176.375904)scale(0.145 -0.145)">
       <use transform="scale(0.996264)" xlink:href="#CMSS17-49"/>
      </g>
     </g>
    </g>
    <g id="ytick_11">
     <g id="line2d_17">
      <g>
       <use style="stroke:#000000;stroke-width:0.8;" x="266.4" xlink:href="#m30d11a321e" y="183.12"/>
      </g>
     </g>
     <g id="text_19">
      <!-- 0 -->
      <g style="fill:#6b6b6b;" transform="translate(273.4 188.135904)scale(0.145 -0.145)">
       <use transform="scale(0.996264)" xlink:href="#CMSS17-48"/>
      </g>
     </g>
    </g>
    <g id="ytick_12">
     <g id="line2d_18">
      <g>
       <use style="stroke:#000000;stroke-width:0.8;" x="266.4" xlink:href="#m30d11a321e" y="206.64"/>
      </g>
     </g>
    </g>
    <g id="text_20">
     <!-- circles, fold direct. -->
     <g style="fill:#6b6b6b;" transform="translate(303.998011 200.598105)rotate(-90)scale(0.18 -0.18)">
      <defs>
       <path d="M 16.796875 37 
L 26.90625 37 
L 26.90625 42.765625 
L 16.59375 42.765625 
L 16.59375 55.609375 
C 16.59375 62.71875 22 63.9375 25.09375 63.9375 
C 26.09375 63.9375 28.90625 63.9375 32.5 62.640625 
L 32.5 69.203125 
C 30.203125 69.703125 27.40625 70 25.203125 70 
C 15.90625 70 9.40625 62.390625 9.40625 52.484375 
L 9.40625 42.765625 
L 2.5 42.765625 
L 2.5 37 
L 9.40625 37 
L 9.40625 0 
L 16.796875 0 
z
" id="CMSS17-102"/>
      </defs>
      <use transform="scale(0.996264)" xlink:href="#CMSS17-99"/>
      <use transform="translate(41.638822 0)scale(0.996264)" xlink:href="#CMSS17-105"/>
      <use transform="translate(63.819545 0)scale(0.996264)" xlink:href="#CMSS17-114"/>
      <use transform="translate(95.729318 0)scale(0.996264)" xlink:href="#CMSS17-99"/>
      <use transform="translate(137.36814 0)scale(0.996264)" xlink:href="#CMSS17-108"/>
      <use transform="translate(159.548863 0)scale(0.996264)" xlink:href="#CMSS17-101"/>
      <use transform="translate(201.187685 0)scale(0.996264)" xlink:href="#CMSS17-115"/>
      <use transform="translate(237.101227 0)scale(0.996264)" xlink:href="#CMSS17-44"/>
      <use transform="translate(294.354544 0)scale(0.996264)" xlink:href="#CMSS17-102"/>
      <use transform="translate(322.981203 0)scale(0.996264)" xlink:href="#CMSS17-111"/>
      <use transform="translate(369.824827 0)scale(0.996264)" xlink:href="#CMSS17-108"/>
      <use transform="translate(392.00555 0)scale(0.996264)" xlink:href="#CMSS17-100"/>
      <use transform="translate(471.439606 0)scale(0.996264)" xlink:href="#CMSS17-100"/>
      <use transform="translate(519.644549 0)scale(0.996264)" xlink:href="#CMSS17-105"/>
      <use transform="translate(541.825272 0)scale(0.996264)" xlink:href="#CMSS17-114"/>
      <use transform="translate(573.735044 0)scale(0.996264)" xlink:href="#CMSS17-101"/>
      <use transform="translate(615.373867 0)scale(0.996264)" xlink:href="#CMSS17-99"/>
      <use transform="translate(657.012689 0)scale(0.996264)" xlink:href="#CMSS17-116"/>
      <use transform="translate(690.844255 0)scale(0.996264)" xlink:href="#CMSS17-46"/>
     </g>
    </g>
   </g>
   <g id="patch_9">
    <path d="M 72 241.92 
L 72 30.24 
" style="fill:none;stroke:#000000;stroke-linecap:square;stroke-linejoin:miter;stroke-width:0.8;"/>
   </g>
   <g id="patch_10">
    <path d="M 266.4 241.92 
L 266.4 30.24 
" style="fill:none;stroke:#000000;stroke-linecap:square;stroke-linejoin:miter;stroke-width:0.8;"/>
   </g>
   <g id="patch_11">
    <path d="M 72 241.92 
L 266.4 241.92 
" style="fill:none;stroke:#000000;stroke-linecap:square;stroke-linejoin:miter;stroke-width:0.8;"/>
   </g>
   <g id="patch_12">
    <path d="M 72 30.24 
L 266.4 30.24 
" style="fill:none;stroke:#000000;stroke-linecap:square;stroke-linejoin:miter;stroke-width:0.8;"/>
   </g>
   <g id="PathCollection_9">
    <defs>
     <path d="M 0 2.95804 
C 0.784481 2.95804 1.536938 2.646362 2.09165 2.09165 
C 2.646362 1.536938 2.95804 0.784481 2.95804 -0 
C 2.95804 -0.784481 2.646362 -1.536938 2.09165 -2.09165 
C 1.536938 -2.646362 0.784481 -2.95804 0 -2.95804 
C -0.784481 -2.95804 -1.536938 -2.646362 -2.09165 -2.09165 
C -2.646362 -1.536938 -2.95804 -0.784481 -2.95804 0 
C -2.95804 0.784481 -2.646362 1.536938 -2.09165 2.09165 
C -1.536938 2.646362 -0.784481 2.95804 0 2.95804 
z
" id="C0_0_ca7eab7a62"/>
    </defs>
    <use style="fill:#de9ed6;fill-opacity:0.75;stroke:#de9ed6;stroke-opacity:0.75;stroke-width:1.4;" x="114.535222" xlink:href="#C0_0_ca7eab7a62" y="177.24"/>
    <use style="fill:#de9ed6;fill-opacity:0.75;stroke:#de9ed6;stroke-opacity:0.75;stroke-width:1.4;" x="110.08542" xlink:href="#C0_0_ca7eab7a62" y="100.8"/>
   </g>
   <g id="PathCollection_10">
    <defs>
     <path d="M 0 2.95804 
C 0.784481 2.95804 1.536938 2.646362 2.09165 2.09165 
C 2.646362 1.536938 2.95804 0.784481 2.95804 -0 
C 2.95804 -0.784481 2.646362 -1.536938 2.09165 -2.09165 
C 1.536938 -2.646362 0.784481 -2.95804 0 -2.95804 
C -0.784481 -2.95804 -1.536938 -2.646362 -2.09165 -2.09165 
C -2.646362 -1.536938 -2.95804 -0.784481 -2.95804 0 
C -2.95804 0.784481 -2.646362 1.536938 -2.09165 2.09165 
C -1.536938 2.646362 -0.784481 2.95804 0 2.95804 
z
" id="C1_0_87213bbccf"/>
    </defs>
    <use style="fill:#ce6dbd;fill-opacity:0.75;stroke:#ce6dbd;stroke-opacity:0.75;stroke-width:1.4;" x="146.534146" xlink:href="#C1_0_87213bbccf" y="179.2"/>
    <use style="fill:#ce6dbd;fill-opacity:0.75;stroke:#ce6dbd;stroke-opacity:0.75;stroke-width:1.4;" x="150.363594" xlink:href="#C1_0_87213bbccf" y="143.92"/>
    <use style="fill:#ce6dbd;fill-opacity:0.75;stroke:#ce6dbd;stroke-opacity:0.75;stroke-width:1.4;" x="146.286533" xlink:href="#C1_0_87213bbccf" y="159.6"/>
    <use style="fill:#ce6dbd;fill-opacity:0.75;stroke:#ce6dbd;stroke-opacity:0.75;stroke-width:1.4;" x="150.880306" xlink:href="#C1_0_87213bbccf" y="147.84"/>
   </g>
   <g id="PathCollection_11">
    <defs>
     <path d="M 0 2.95804 
C 0.784481 2.95804 1.536938 2.646362 2.09165 2.09165 
C 2.646362 1.536938 2.95804 0.784481 2.95804 -0 
C 2.95804 -0.784481 2.646362 -1.536938 2.09165 -2.09165 
C 1.536938 -2.646362 0.784481 -2.95804 0 -2.95804 
C -0.784481 -2.95804 -1.536938 -2.646362 -2.09165 -2.09165 
C -2.646362 -1.536938 -2.95804 -0.784481 -2.95804 0 
C -2.95804 0.784481 -2.646362 1.536938 -2.09165 2.09165 
C -1.536938 2.646362 -0.784481 2.95804 0 2.95804 
z
" id="C2_0_a7d2a0e8f0"/>
    </defs>
    <use style="fill:#393b79;fill-opacity:0.75;stroke:#393b79;stroke-opacity:0.75;stroke-width:1.4;" x="191.193862" xlink:href="#C2_0_a7d2a0e8f0" y="159.6"/>
    <use style="fill:#393b79;fill-opacity:0.75;stroke:#393b79;stroke-opacity:0.75;stroke-width:1.4;" x="195.468605" xlink:href="#C2_0_a7d2a0e8f0" y="171.36"/>
    <use style="fill:#393b79;fill-opacity:0.75;stroke:#393b79;stroke-opacity:0.75;stroke-width:1.4;" x="195.535884" xlink:href="#C2_0_a7d2a0e8f0" y="180.768"/>
    <use style="fill:#393b79;fill-opacity:0.75;stroke:#393b79;stroke-opacity:0.75;stroke-width:1.4;" x="196.521186" xlink:href="#C2_0_a7d2a0e8f0" y="177.24"/>
   </g>
   <g id="PathCollection_12">
    <defs>
     <path d="M 0 2.95804 
C 0.784481 2.95804 1.536938 2.646362 2.09165 2.09165 
C 2.646362 1.536938 2.95804 0.784481 2.95804 -0 
C 2.95804 -0.784481 2.646362 -1.536938 2.09165 -2.09165 
C 1.536938 -2.646362 0.784481 -2.95804 0 -2.95804 
C -0.784481 -2.95804 -1.536938 -2.646362 -2.09165 -2.09165 
C -2.646362 -1.536938 -2.95804 -0.784481 -2.95804 0 
C -2.95804 0.784481 -2.646362 1.536938 -2.09165 2.09165 
C -1.536938 2.646362 -0.784481 2.95804 0 2.95804 
z
" id="C3_0_6e7f92f297"/>
    </defs>
    <use style="fill:#e7cb94;fill-opacity:0.75;stroke:#e7cb94;stroke-opacity:0.75;stroke-width:1.4;" x="237.392148" xlink:href="#C3_0_6e7f92f297" y="136.08"/>
    <use style="fill:#e7cb94;fill-opacity:0.75;stroke:#e7cb94;stroke-opacity:0.75;stroke-width:1.4;" x="237.799321" xlink:href="#C3_0_6e7f92f297" y="177.24"/>
    <use style="fill:#e7cb94;fill-opacity:0.75;stroke:#e7cb94;stroke-opacity:0.75;stroke-width:1.4;" x="234.93093" xlink:href="#C3_0_6e7f92f297" y="89.04"/>
    <use style="fill:#e7cb94;fill-opacity:0.75;stroke:#e7cb94;stroke-opacity:0.75;stroke-width:1.4;" x="234.159567" xlink:href="#C3_0_6e7f92f297" y="179.2"/>
    <use style="fill:#e7cb94;fill-opacity:0.75;stroke:#e7cb94;stroke-opacity:0.75;stroke-width:1.4;" x="236.749669" xlink:href="#C3_0_6e7f92f297" y="179.2"/>
   </g>
   <g id="PathCollection_13">
    <defs>
     <path id="m5fc1a982d1" style="stroke:#000000;stroke-opacity:0.5;stroke-width:1.4;"/>
    </defs>
    <g>
     <use style="fill-opacity:0.5;stroke:#000000;stroke-opacity:0.5;stroke-width:1.4;" x="114.535222" xlink:href="#m5fc1a982d1" y="177.24"/>
     <use style="fill-opacity:0.5;stroke:#000000;stroke-opacity:0.5;stroke-width:1.4;" x="110.08542" xlink:href="#m5fc1a982d1" y="100.8"/>
    </g>
   </g>
   <g id="PathCollection_14">
    <g>
     <use style="fill-opacity:0.5;stroke:#000000;stroke-opacity:0.5;stroke-width:1.4;" x="146.534146" xlink:href="#m5fc1a982d1" y="179.2"/>
     <use style="fill-opacity:0.5;stroke:#000000;stroke-opacity:0.5;stroke-width:1.4;" x="150.363594" xlink:href="#m5fc1a982d1" y="143.92"/>
     <use style="fill-opacity:0.5;stroke:#000000;stroke-opacity:0.5;stroke-width:1.4;" x="146.286533" xlink:href="#m5fc1a982d1" y="159.6"/>
     <use style="fill-opacity:0.5;stroke:#000000;stroke-opacity:0.5;stroke-width:1.4;" x="150.880306" xlink:href="#m5fc1a982d1" y="147.84"/>
    </g>
   </g>
   <g id="PathCollection_15">
    <g>
     <use style="fill-opacity:0.5;stroke:#000000;stroke-opacity:0.5;stroke-width:1.4;" x="191.193862" xlink:href="#m5fc1a982d1" y="159.6"/>
     <use style="fill-opacity:0.5;stroke:#000000;stroke-opacity:0.5;stroke-width:1.4;" x="195.468605" xlink:href="#m5fc1a982d1" y="171.36"/>
     <use style="fill-opacity:0.5;stroke:#000000;stroke-opacity:0.5;stroke-width:1.4;" x="195.535884" xlink:href="#m5fc1a982d1" y="180.768"/>
     <use style="fill-opacity:0.5;stroke:#000000;stroke-opacity:0.5;stroke-width:1.4;" x="196.521186" xlink:href="#m5fc1a982d1" y="177.24"/>
    </g>
   </g>
   <g id="PathCollection_16">
    <g>
     <use style="fill-opacity:0.5;stroke:#000000;stroke-opacity:0.5;stroke-width:1.4;" x="237.392148" xlink:href="#m5fc1a982d1" y="136.08"/>
     <use style="fill-opacity:0.5;stroke:#000000;stroke-opacity:0.5;stroke-width:1.4;" x="237.799321" xlink:href="#m5fc1a982d1" y="177.24"/>
     <use style="fill-opacity:0.5;stroke:#000000;stroke-opacity:0.5;stroke-width:1.4;" x="234.93093" xlink:href="#m5fc1a982d1" y="89.04"/>
     <use style="fill-opacity:0.5;stroke:#000000;stroke-opacity:0.5;stroke-width:1.4;" x="234.159567" xlink:href="#m5fc1a982d1" y="179.2"/>
     <use style="fill-opacity:0.5;stroke:#000000;stroke-opacity:0.5;stroke-width:1.4;" x="236.749669" xlink:href="#m5fc1a982d1" y="179.2"/>
    </g>
   </g>
   <g id="PathCollection_17">
    <defs>
     <path d="M 11.18034 0 
L -11.18034 -0 
" id="m09330cd80e" style="stroke:#000000;stroke-width:1.82;"/>
    </defs>
    <g clip-path="url(#paef29475eb)">
     <use style="stroke:#000000;stroke-width:1.82;" x="106.56" xlink:href="#m09330cd80e" y="139.02"/>
    </g>
   </g>
   <g id="PathCollection_18">
    <g clip-path="url(#paef29475eb)">
     <use style="stroke:#000000;stroke-width:1.82;" x="149.76" xlink:href="#m09330cd80e" y="153.72"/>
    </g>
   </g>
   <g id="PathCollection_19">
    <g clip-path="url(#paef29475eb)">
     <use style="stroke:#000000;stroke-width:1.82;" x="192.96" xlink:href="#m09330cd80e" y="174.3"/>
    </g>
   </g>
   <g id="PathCollection_20">
    <g clip-path="url(#paef29475eb)">
     <use style="stroke:#000000;stroke-width:1.82;" x="236.16" xlink:href="#m09330cd80e" y="177.24"/>
    </g>
   </g>
   <g id="PathCollection_21">
    <defs>
     <path d="M 0 3.535534 
C 0.937635 3.535534 1.836992 3.163008 2.5 2.5 
C 3.163008 1.836992 3.535534 0.937635 3.535534 0 
C 3.535534 -0.937635 3.163008 -1.836992 2.5 -2.5 
C 1.836992 -3.163008 0.937635 -3.535534 0 -3.535534 
C -0.937635 -3.535534 -1.836992 -3.163008 -2.5 -2.5 
C -3.163008 -1.836992 -3.535534 -0.937635 -3.535534 0 
C -3.535534 0.937635 -3.163008 1.836992 -2.5 2.5 
C -1.836992 3.163008 -0.937635 3.535534 0 3.535534 
z
" id="m59c6a0272b" style="stroke:#000000;stroke-width:1.4;"/>
    </defs>
    <g clip-path="url(#paef29475eb)">
     <use style="fill:#de9ed6;stroke:#000000;stroke-width:1.4;" x="106.56" xlink:href="#m59c6a0272b" y="139.02"/>
    </g>
   </g>
   <g id="PathCollection_22">
    <defs>
     <path d="M 0 3.535534 
C 0.937635 3.535534 1.836992 3.163008 2.5 2.5 
C 3.163008 1.836992 3.535534 0.937635 3.535534 0 
C 3.535534 -0.937635 3.163008 -1.836992 2.5 -2.5 
C 1.836992 -3.163008 0.937635 -3.535534 0 -3.535534 
C -0.937635 -3.535534 -1.836992 -3.163008 -2.5 -2.5 
C -3.163008 -1.836992 -3.535534 -0.937635 -3.535534 0 
C -3.535534 0.937635 -3.163008 1.836992 -2.5 2.5 
C -1.836992 3.163008 -0.937635 3.535534 0 3.535534 
z
" id="mb7d3c4feac" style="stroke:#000000;stroke-width:1.4;"/>
    </defs>
    <g clip-path="url(#paef29475eb)">
     <use style="fill:#ce6dbd;stroke:#000000;stroke-width:1.4;" x="149.76" xlink:href="#mb7d3c4feac" y="153.72"/>
    </g>
   </g>
   <g id="PathCollection_23">
    <defs>
     <path d="M 0 3.535534 
C 0.937635 3.535534 1.836992 3.163008 2.5 2.5 
C 3.163008 1.836992 3.535534 0.937635 3.535534 0 
C 3.535534 -0.937635 3.163008 -1.836992 2.5 -2.5 
C 1.836992 -3.163008 0.937635 -3.535534 0 -3.535534 
C -0.937635 -3.535534 -1.836992 -3.163008 -2.5 -2.5 
C -3.163008 -1.836992 -3.535534 -0.937635 -3.535534 0 
C -3.535534 0.937635 -3.163008 1.836992 -2.5 2.5 
C -1.836992 3.163008 -0.937635 3.535534 0 3.535534 
z
" id="m996acab3d3" style="stroke:#000000;stroke-width:1.4;"/>
    </defs>
    <g clip-path="url(#paef29475eb)">
     <use style="fill:#393b79;stroke:#000000;stroke-width:1.4;" x="192.96" xlink:href="#m996acab3d3" y="174.3"/>
    </g>
   </g>
   <g id="PathCollection_24">
    <defs>
     <path d="M 0 3.535534 
C 0.937635 3.535534 1.836992 3.163008 2.5 2.5 
C 3.163008 1.836992 3.535534 0.937635 3.535534 0 
C 3.535534 -0.937635 3.163008 -1.836992 2.5 -2.5 
C 1.836992 -3.163008 0.937635 -3.535534 0 -3.535534 
C -0.937635 -3.535534 -1.836992 -3.163008 -2.5 -2.5 
C -3.163008 -1.836992 -3.535534 -0.937635 -3.535534 0 
C -3.535534 0.937635 -3.163008 1.836992 -2.5 2.5 
C -1.836992 3.163008 -0.937635 3.535534 0 3.535534 
z
" id="m48b69707a3" style="stroke:#000000;stroke-width:1.4;"/>
    </defs>
    <g clip-path="url(#paef29475eb)">
     <use style="fill:#e7cb94;stroke:#000000;stroke-width:1.4;" x="236.16" xlink:href="#m48b69707a3" y="177.24"/>
    </g>
   </g>
  </g>
 </g>
 <defs>
  <clipPath id="paef29475eb">
   <rect height="211.68" width="194.4" x="72" y="30.24"/>
  </clipPath>
 </defs>
</svg>
