<?xml version="1.0" encoding="utf-8" standalone="no"?>
<!DOCTYPE svg PUBLIC "-//W3C//DTD SVG 1.1//EN"
  "http://www.w3.org/Graphics/SVG/1.1/DTD/svg11.dtd">
<!-- Created with matplotlib (https://matplotlib.org/) -->
<svg height="302.4pt" version="1.1" viewBox="0 0 252 302.4" width="252pt" xmlns="http://www.w3.org/2000/svg" xmlns:xlink="http://www.w3.org/1999/xlink">
 <metadata>
  <rdf:RDF xmlns:cc="http://creativecommons.org/ns#" xmlns:dc="http://purl.org/dc/elements/1.1/" xmlns:rdf="http://www.w3.org/1999/02/22-rdf-syntax-ns#">
   <cc:Work>
    <dc:type rdf:resource="http://purl.org/dc/dcmitype/StillImage"/>
    <dc:date>2021-11-21T08:37:07.629602</dc:date>
    <dc:format>image/svg+xml</dc:format>
    <dc:creator>
     <cc:Agent>
      <dc:title>Matplotlib v3.3.4, https://matplotlib.org/</dc:title>
     </cc:Agent>
    </dc:creator>
   </cc:Work>
  </rdf:RDF>
 </metadata>
 <defs>
  <style type="text/css">*{stroke-linecap:butt;stroke-linejoin:round;}</style>
 </defs>
 <g id="figure_1">
  <g id="patch_1">
   <path d="M 0 302.4 
L 252 302.4 
L 252 0 
L 0 0 
z
" style="fill:#ffffff;"/>
  </g>
  <g id="axes_1">
   <g id="patch_2">
    <path d="M 72 241.92 
L 180 241.92 
L 180 30.24 
L 72 30.24 
z
" style="fill:#ffffff;"/>
   </g>
   <g id="patch_3">
    <path clip-path="url(#p7c261045af)" d="M 61.2 241.92 
L 180 241.92 
L 180 30.24 
L 61.2 30.24 
z
" style="fill:#01ff6b;opacity:0.1;stroke:#01ff6b;stroke-linejoin:miter;"/>
   </g>
   <g id="matplotlib.axis_1">
    <g id="xtick_1">
     <g id="line2d_1">
      <defs>
       <path d="M 0 0 
L 0 3.5 
" id="mc0a5bbec2f" style="stroke:#000000;stroke-width:0.8;"/>
      </defs>
      <g>
       <use style="stroke:#000000;stroke-width:0.8;" x="104.4" xlink:href="#mc0a5bbec2f" y="241.92"/>
      </g>
     </g>
     <g id="text_1">
      <!-- tl13 -->
      <g transform="translate(82.879935 276.779445)rotate(-45)scale(0.18 -0.18)">
       <defs>
        <path d="M 16.703125 37.1875 
L 29.703125 37.1875 
L 29.703125 43 
L 16.703125 43 
L 16.703125 55 
L 9.59375 55 
L 9.59375 43 
L 1.703125 43 
L 1.703125 37.1875 
L 9.40625 37.1875 
L 9.40625 11.734375 
C 9.40625 6 10.703125 -1 17.296875 -1 
C 22.296875 -1 26.90625 0.390625 31.296875 2.6875 
L 29.703125 8.609375 
C 27.296875 6.5 24.40625 5.296875 21.296875 5.296875 
C 16.90625 5.296875 16.703125 10.921875 16.703125 13.4375 
z
" id="CMSS17-116"/>
        <path d="M 14.796875 69 
L 7.40625 69 
L 7.40625 0 
L 14.796875 0 
z
" id="CMSS17-108"/>
        <path d="M 28.40625 67 
L 26.5 67 
C 21.09375 61.703125 14.796875 60.96875 8.40625 60.796875 
L 8.40625 55 
C 11.296875 55.09375 16 55.296875 20.703125 57.390625 
L 20.703125 5.796875 
L 8.90625 5.796875 
L 8.90625 0 
L 40.203125 0 
L 40.203125 5.796875 
L 28.40625 5.796875 
z
" id="CMSS17-49"/>
        <path d="M 15.703125 32.1875 
L 22.5 32.1875 
C 31.90625 32.1875 34.59375 23.9375 34.59375 18.1875 
C 34.59375 10.34375 30.203125 4.1875 23 4.1875 
C 17.40625 4.1875 9.5 7.015625 5 14.46875 
C 4.296875 10.9375 4.296875 10.734375 3.90625 8.328125 
C 8.59375 1.390625 16.203125 -2 23.203125 -2 
C 34.59375 -2 43 7.515625 43 18.09375 
C 43 26.046875 37.5 32.6875 30 35.1875 
C 36 38.484375 40.40625 44.6875 40.40625 51.890625 
C 40.40625 60.296875 32.703125 67 23.296875 67 
C 14.703125 67 8 61.6875 5.203125 55.984375 
C 5.90625 54.984375 7.703125 52.09375 8.59375 50.59375 
C 10.796875 56.484375 16.5 60.890625 23.203125 60.890625 
C 28.796875 60.890625 32.5 57.1875 32.5 51.890625 
C 32.5 46.390625 29 40.390625 23.09375 39 
C 22.703125 39 16.5 38.390625 15.703125 38.296875 
z
" id="CMSS17-51"/>
       </defs>
       <use transform="scale(0.996264)" xlink:href="#CMSS17-116"/>
       <use transform="translate(33.831567 0)scale(0.996264)" xlink:href="#CMSS17-108"/>
       <use transform="translate(56.01229 0)scale(0.996264)" xlink:href="#CMSS17-49"/>
       <use transform="translate(102.855913 0)scale(0.996264)" xlink:href="#CMSS17-51"/>
      </g>
     </g>
    </g>
    <g id="xtick_2">
     <g id="line2d_2">
      <g>
       <use style="stroke:#000000;stroke-width:0.8;" x="147.6" xlink:href="#mc0a5bbec2f" y="241.92"/>
      </g>
     </g>
     <g id="text_2">
      <!-- tl14 -->
      <g transform="translate(126.079935 276.779445)rotate(-45)scale(0.18 -0.18)">
       <defs>
        <path d="M 35.203125 17 
L 44.296875 17 
L 44.296875 23.09375 
L 35.203125 23.09375 
L 35.203125 66 
L 26.40625 66 
L 2.59375 23.09375 
L 2.59375 17 
L 27.296875 17 
L 27.296875 0 
L 35.203125 0 
z
M 10.296875 23.09375 
C 16.09375 33.421875 27.59375 54.28125 27.59375 61.359375 
L 27.59375 23.09375 
z
" id="CMSS17-52"/>
       </defs>
       <use transform="scale(0.996264)" xlink:href="#CMSS17-116"/>
       <use transform="translate(33.831567 0)scale(0.996264)" xlink:href="#CMSS17-108"/>
       <use transform="translate(56.01229 0)scale(0.996264)" xlink:href="#CMSS17-49"/>
       <use transform="translate(102.855913 0)scale(0.996264)" xlink:href="#CMSS17-52"/>
      </g>
     </g>
    </g>
   </g>
   <g id="matplotlib.axis_2">
    <g id="ytick_1">
     <g id="line2d_3">
      <path clip-path="url(#p7c261045af)" d="M 72 241.92 
L 180 241.92 
" style="fill:none;stroke:#b0b0b0;stroke-linecap:square;stroke-opacity:0.6;stroke-width:0.7;"/>
     </g>
     <g id="line2d_4">
      <defs>
       <path d="M 0 0 
L 3.5 0 
" id="m34ba3f9666" style="stroke:#000000;stroke-width:0.8;"/>
      </defs>
      <g>
       <use style="stroke:#000000;stroke-width:0.8;" x="180" xlink:href="#m34ba3f9666" y="241.92"/>
      </g>
     </g>
     <g id="text_3">
      <!-- $\mathdefault{0}$ -->
      <g style="fill:#808080;" transform="translate(187 246.935904)scale(0.145 -0.145)">
       <defs>
        <path d="M 42 31.84375 
C 42 37.96875 41.90625 48.421875 37.703125 56.453125 
C 34 63.484375 28.09375 66 22.90625 66 
C 18.09375 66 12 63.78125 8.203125 56.5625 
C 4.203125 49.015625 3.796875 39.671875 3.796875 31.84375 
C 3.796875 26.109375 3.90625 17.375 7 9.734375 
C 11.296875 -0.609375 19 -2 22.90625 -2 
C 27.5 -2 34.5 -0.109375 38.59375 9.4375 
C 41.59375 16.375 42 24.5 42 31.84375 
z
M 22.90625 -0.40625 
C 16.5 -0.40625 12.703125 5.125 11.296875 12.75 
C 10.203125 18.6875 10.203125 27.328125 10.203125 32.953125 
C 10.203125 40.6875 10.203125 47.109375 11.5 53.234375 
C 13.40625 61.78125 19 64.390625 22.90625 64.390625 
C 27 64.390625 32.296875 61.671875 34.203125 53.4375 
C 35.5 47.71875 35.59375 40.984375 35.59375 32.953125 
C 35.59375 26.421875 35.59375 18.375 34.40625 12.453125 
C 32.296875 1.5 26.40625 -0.40625 22.90625 -0.40625 
z
" id="CMR17-48"/>
       </defs>
       <use transform="scale(0.996264)" xlink:href="#CMR17-48"/>
      </g>
     </g>
    </g>
    <g id="ytick_2">
     <g id="line2d_5">
      <path clip-path="url(#p7c261045af)" d="M 72 185.472 
L 180 185.472 
" style="fill:none;stroke:#b0b0b0;stroke-linecap:square;stroke-opacity:0.6;stroke-width:0.7;"/>
     </g>
     <g id="line2d_6">
      <g>
       <use style="stroke:#000000;stroke-width:0.8;" x="180" xlink:href="#m34ba3f9666" y="185.472"/>
      </g>
     </g>
     <g id="text_4">
      <!-- $\mathdefault{4}$ -->
      <g style="fill:#808080;" transform="translate(187 190.487904)scale(0.145 -0.145)">
       <defs>
        <path d="M 33.59375 64.796875 
C 33.59375 66.890625 33.5 67 31.703125 67 
L 2 19.59375 
L 2 17 
L 27.796875 17 
L 27.796875 7.1875 
C 27.796875 3.59375 27.59375 2.59375 20.59375 2.59375 
L 18.703125 2.59375 
L 18.703125 0 
C 21.90625 0.1875 27.296875 0.1875 30.703125 0.1875 
C 34.09375 0.1875 39.5 0.1875 42.703125 0 
L 42.703125 2.59375 
L 40.796875 2.59375 
C 33.796875 2.59375 33.59375 3.59375 33.59375 7.1875 
L 33.59375 17 
L 43.796875 17 
L 43.796875 19.59375 
L 33.59375 19.59375 
z
M 28.09375 58.171875 
L 28.09375 19.59375 
L 4 19.59375 
z
" id="CMR17-52"/>
       </defs>
       <use transform="scale(0.996264)" xlink:href="#CMR17-52"/>
      </g>
     </g>
    </g>
    <g id="ytick_3">
     <g id="line2d_7">
      <path clip-path="url(#p7c261045af)" d="M 72 129.024 
L 180 129.024 
" style="fill:none;stroke:#b0b0b0;stroke-linecap:square;stroke-opacity:0.6;stroke-width:0.7;"/>
     </g>
     <g id="line2d_8">
      <g>
       <use style="stroke:#000000;stroke-width:0.8;" x="180" xlink:href="#m34ba3f9666" y="129.024"/>
      </g>
     </g>
     <g id="text_5">
      <!-- $\mathdefault{8}$ -->
      <g style="fill:#808080;" transform="translate(187 134.039904)scale(0.145 -0.145)">
       <defs>
        <path d="M 27.203125 35.765625 
C 33.5 38.96875 39.90625 43.796875 39.90625 51.53125 
C 39.90625 60.6875 31.09375 66 23 66 
C 13.90625 66 5.90625 59.375 5.90625 50.234375 
C 5.90625 47.71875 6.5 43.390625 10.40625 39.578125 
C 11.40625 38.578125 15.59375 35.5625 18.296875 33.65625 
C 13.796875 31.34375 3.296875 25.8125 3.296875 14.765625 
C 3.296875 4.40625 13.09375 -2 22.796875 -2 
C 33.5 -2 42.5 5.71875 42.5 15.96875 
C 42.5 25.109375 36.40625 29.328125 32.40625 32.046875 
z
M 14.09375 44.609375 
C 13.296875 45.109375 9.296875 48.21875 9.296875 52.9375 
C 9.296875 59.078125 15.59375 63.6875 22.796875 63.6875 
C 30.703125 63.6875 36.5 58.0625 36.5 51.53125 
C 36.5 42.1875 26.09375 36.859375 25.59375 36.859375 
C 25.5 36.859375 25.40625 36.859375 24.59375 37.46875 
z
M 32.5 24 
C 34 22.90625 38.796875 19.578125 38.796875 13.453125 
C 38.796875 6.015625 31.40625 0.390625 23 0.390625 
C 13.90625 0.390625 7 6.921875 7 14.859375 
C 7 22.796875 13.09375 29.4375 20 32.546875 
z
" id="CMR17-56"/>
       </defs>
       <use transform="scale(0.996264)" xlink:href="#CMR17-56"/>
      </g>
     </g>
    </g>
    <g id="ytick_4">
     <g id="line2d_9">
      <path clip-path="url(#p7c261045af)" d="M 72 72.576 
L 180 72.576 
" style="fill:none;stroke:#b0b0b0;stroke-linecap:square;stroke-opacity:0.6;stroke-width:0.7;"/>
     </g>
     <g id="line2d_10">
      <g>
       <use style="stroke:#000000;stroke-width:0.8;" x="180" xlink:href="#m34ba3f9666" y="72.576"/>
      </g>
     </g>
     <g id="text_6">
      <!-- $\mathdefault{12}$ -->
      <g style="fill:#808080;" transform="translate(187 77.591904)scale(0.145 -0.145)">
       <defs>
        <path d="M 26.59375 63.796875 
C 26.59375 65.890625 26.5 66 25.09375 66 
C 21.203125 61.359375 15.296875 59.890625 9.703125 59.6875 
C 9.40625 59.6875 8.90625 59.6875 8.796875 59.5 
C 8.703125 59.296875 8.703125 59.09375 8.703125 57 
C 11.796875 57 17 57.59375 21 59.984375 
L 21 7.296875 
C 21 3.796875 20.796875 2.59375 12.203125 2.59375 
L 9.203125 2.59375 
L 9.203125 0 
C 14 0.09375 19 0.1875 23.796875 0.1875 
C 28.59375 0.1875 33.59375 0.09375 38.40625 0 
L 38.40625 2.59375 
L 35.40625 2.59375 
C 26.796875 2.59375 26.59375 3.6875 26.59375 7.296875 
z
" id="CMR17-49"/>
        <path d="M 41.703125 15.46875 
L 39.90625 15.46875 
C 38.90625 8.390625 38.09375 7.1875 37.703125 6.59375 
C 37.203125 5.796875 30 5.796875 28.59375 5.796875 
L 9.40625 5.796875 
C 13 9.6875 20 16.765625 28.5 24.9375 
C 34.59375 30.71875 41.703125 37.5 41.703125 47.390625 
C 41.703125 59.1875 32.296875 66 21.796875 66 
C 10.796875 66 4.09375 56.296875 4.09375 47.296875 
C 4.09375 43.390625 7 42.890625 8.203125 42.890625 
C 9.203125 42.890625 12.203125 43.484375 12.203125 46.984375 
C 12.203125 50.09375 9.59375 51 8.203125 51 
C 7.59375 51 7 50.890625 6.59375 50.6875 
C 8.5 59.1875 14.296875 63.390625 20.40625 63.390625 
C 29.09375 63.390625 34.796875 56.5 34.796875 47.390625 
C 34.796875 38.703125 29.703125 31.21875 24 24.734375 
L 4.09375 2.296875 
L 4.09375 0 
L 39.296875 0 
z
" id="CMR17-50"/>
       </defs>
       <use transform="scale(0.996264)" xlink:href="#CMR17-49"/>
       <use transform="translate(45.690477 0)scale(0.996264)" xlink:href="#CMR17-50"/>
      </g>
     </g>
    </g>
   </g>
   <g id="patch_4">
    <path d="M 72 241.92 
L 72 30.24 
" style="fill:none;stroke:#000000;stroke-linecap:square;stroke-linejoin:miter;stroke-width:0.8;"/>
   </g>
   <g id="patch_5">
    <path d="M 180 241.92 
L 180 30.24 
" style="fill:none;stroke:#000000;stroke-linecap:square;stroke-linejoin:miter;stroke-width:0.8;"/>
   </g>
   <g id="patch_6">
    <path d="M 72 241.92 
L 180 241.92 
" style="fill:none;stroke:#000000;stroke-linecap:square;stroke-linejoin:miter;stroke-width:0.8;"/>
   </g>
   <g id="patch_7">
    <path d="M 72 30.24 
L 180 30.24 
" style="fill:none;stroke:#000000;stroke-linecap:square;stroke-linejoin:miter;stroke-width:0.8;"/>
   </g>
   <g id="text_7">
    <!-- reached -->
    <g style="fill:#808080;" transform="translate(188.64 209.883925)scale(0.145 -0.145)">
     <defs>
      <path d="M 14.90625 21.390625 
C 14.90625 30.84375 21.796875 37.171875 30.59375 37.375 
L 30.59375 44 
C 24.203125 43.890625 18.203125 40.6875 14.59375 35.46875 
L 14.59375 43.484375 
L 7.5 43.484375 
L 7.5 0 
L 14.90625 0 
z
" id="CMSS17-114"/>
      <path d="M 39.09375 21.484375 
C 39.09375 24.796875 38.90625 31.265625 35.703125 36.671875 
C 32.203125 42.390625 26.5 44 22.203125 44 
C 11.796875 44 3 34.125 3 21.296875 
C 3 9.046875 12.09375 -1 23.59375 -1 
C 28.09375 -1 33.59375 0.296875 38.59375 3.890625 
C 38.59375 4.296875 38.40625 6.46875 38.296875 6.578125 
C 38.296875 6.765625 38 9.828125 38 10.234375 
C 33.203125 6.375 27.703125 5.09375 23.703125 5.09375 
C 17.296875 5.09375 10.40625 10.421875 10.09375 21.484375 
z
M 10.90625 27 
C 12.203125 32.59375 16.59375 37.890625 22.203125 37.890625 
C 23.703125 37.890625 30.703125 37.6875 32.5 27 
z
" id="CMSS17-101"/>
      <path d="M 37.59375 27.953125 
C 37.59375 37.484375 30.90625 44 21.90625 44 
C 17.5 44 12.703125 43.1875 7.203125 39.984375 
L 7.796875 33.328125 
C 10.296875 35.15625 14.59375 38.09375 21.796875 38.09375 
C 26.90625 38.09375 30 34.140625 30 27.84375 
L 30 24 
C 14 23.5 4 18.890625 4 11.109375 
C 4 7.0625 6.5 -1 14.796875 -1 
C 16.296875 -1 24.40625 -0.8125 30.203125 3.5 
L 30.203125 -0.203125 
L 37.59375 -0.203125 
z
M 30 12.875 
C 30 11.109375 30 8.734375 27 6.96875 
C 24.40625 5.296875 21.09375 5.09375 19.703125 5.09375 
C 14.703125 5.09375 11.296875 7.859375 11.296875 11.296875 
C 11.296875 18.203125 26.90625 18.890625 30 19 
z
" id="CMSS17-97"/>
      <path d="M 38.5 39.6875 
C 38.5 40.390625 33.90625 42.390625 32.703125 42.796875 
C 29.40625 44 25.203125 44 24.09375 44 
C 11.09375 44 3.296875 32.6875 3.296875 21.296875 
C 3.296875 9.296875 12 -1 23.703125 -1 
C 30.40625 -1 35.203125 1.1875 39.09375 3.796875 
L 38.5 10.390625 
C 34.203125 7.09375 29.203125 5.296875 23.796875 5.296875 
C 16 5.296875 10.90625 12.09375 10.90625 21.390625 
C 10.90625 28.59375 14.203125 37.6875 24.203125 37.6875 
C 29.703125 37.6875 32.796875 36.59375 37.40625 33.484375 
z
" id="CMSS17-99"/>
      <path d="M 40.90625 29.34375 
C 40.90625 35.671875 39.40625 44 28.09375 44 
C 21.796875 44 17.703125 40.890625 14.796875 37.484375 
L 14.796875 69 
L 7.40625 69 
L 7.40625 0 
L 15 0 
L 15 24.3125 
C 15 30.65625 17.40625 37.890625 24.203125 37.890625 
C 33 37.890625 33.296875 31.953125 33.296875 28.53125 
L 33.296875 0 
L 40.90625 0 
z
" id="CMSS17-104"/>
      <path d="M 40.796875 69 
L 33.40625 69 
L 33.40625 38.984375 
C 30.296875 41.59375 25.203125 44 19.59375 44 
C 10.5 44 3.296875 34.046875 3.296875 21.484375 
C 3.296875 8.9375 10.40625 -1 19.296875 -1 
C 26.203125 -1 30.796875 2.6875 33.203125 4.796875 
L 33.203125 -0.203125 
L 40.796875 -0.203125 
z
M 33.203125 13.296875 
C 33.203125 11.875 33.203125 10.359375 30.09375 7.625 
C 28.09375 5.90625 25.703125 5.09375 23.40625 5.09375 
C 18 5.09375 10.90625 9.140625 10.90625 21.390625 
C 10.90625 34.140625 18.90625 37.890625 24.40625 37.890625 
C 28.09375 37.890625 31.09375 36.0625 33.203125 33.03125 
z
" id="CMSS17-100"/>
     </defs>
     <use transform="scale(0.996264)" xlink:href="#CMSS17-114"/>
     <use transform="translate(31.909773 0)scale(0.996264)" xlink:href="#CMSS17-101"/>
     <use transform="translate(73.548595 0)scale(0.996264)" xlink:href="#CMSS17-97"/>
     <use transform="translate(118.470515 0)scale(0.996264)" xlink:href="#CMSS17-99"/>
     <use transform="translate(160.109337 0)scale(0.996264)" xlink:href="#CMSS17-104"/>
     <use transform="translate(208.31428 0)scale(0.996264)" xlink:href="#CMSS17-101"/>
     <use transform="translate(249.953103 0)scale(0.996264)" xlink:href="#CMSS17-100"/>
    </g>
    <!-- target -->
    <g style="fill:#808080;" transform="translate(188.64 224.730989)scale(0.145 -0.145)">
     <defs>
      <path d="M 44.5 44 
C 38.796875 43.890625 33.90625 42.796875 29.90625 40.890625 
C 26.59375 43.484375 23.203125 44 20.90625 44 
C 12.203125 44 5.59375 36.8125 5.59375 28.5 
C 5.59375 23.140625 8.59375 19.09375 8.796875 18.890625 
C 7 16.390625 6 13.6875 6 10.6875 
C 6 7.1875 7.40625 4.6875 8.5 3.296875 
C 3.296875 0.09375 2.59375 -4.8125 2.59375 -6.703125 
C 2.59375 -14 11.703125 -20 23.40625 -20 
C 35.203125 -20 44.296875 -14 44.296875 -6.609375 
C 44.296875 7.1875 29 7.296875 24.796875 7.296875 
L 16.703125 7.296875 
C 15.203125 7.296875 11.203125 7.296875 11.203125 12.390625 
C 11.203125 14.390625 12.09375 15.6875 12.203125 15.796875 
C 13.703125 14.6875 16.796875 13 20.90625 13 
C 29.203125 13 36.09375 19.984375 36.09375 28.5 
C 36.09375 33.25 33.90625 36.703125 33 37.890625 
L 33.296875 37.890625 
C 33.59375 37.890625 37.796875 38.1875 39.296875 38.1875 
C 42.5 38.1875 42.796875 38.09375 45.59375 37.796875 
z
M 20.90625 18.5 
C 17.5 18.5 12.703125 20.578125 12.703125 28.5 
C 12.703125 37.109375 18.203125 38.484375 20.796875 38.484375 
C 24.203125 38.484375 29 36.40625 29 28.5 
C 29 19.875 23.5 18.5 20.90625 18.5 
z
M 24.703125 0 
C 27.09375 0 37.203125 0 37.203125 -6.8125 
C 37.203125 -11.109375 31 -14.5 23.5 -14.5 
C 15.90625 -14.5 9.703125 -11.203125 9.703125 -6.703125 
C 9.703125 -6.203125 9.703125 0 16.59375 0 
z
" id="CMSS17-103"/>
     </defs>
     <use transform="scale(0.996264)" xlink:href="#CMSS17-116"/>
     <use transform="translate(33.831567 0)scale(0.996264)" xlink:href="#CMSS17-97"/>
     <use transform="translate(76.151033 0)scale(0.996264)" xlink:href="#CMSS17-114"/>
     <use transform="translate(108.060806 0)scale(0.996264)" xlink:href="#CMSS17-103"/>
     <use transform="translate(154.904429 0)scale(0.996264)" xlink:href="#CMSS17-101"/>
     <use transform="translate(196.543252 0)scale(0.996264)" xlink:href="#CMSS17-116"/>
    </g>
   </g>
   <g id="text_8">
    <!-- timelapse -->
    <g transform="translate(93.1734 24.24)scale(0.18 -0.18)">
     <defs>
      <path d="M 15.296875 66 
L 6.90625 66 
L 6.90625 57.59375 
L 15.296875 57.59375 
z
M 14.796875 43 
L 7.40625 43 
L 7.40625 0 
L 14.796875 0 
z
" id="CMSS17-105"/>
      <path d="M 67 29.34375 
C 67 36.078125 65.296875 44 54.09375 44 
C 46.59375 44 42.09375 39.296875 40.09375 36.375 
C 38.296875 41.6875 34.09375 44 28.09375 44 
C 21.296875 44 17 40.09375 14.703125 37.28125 
L 14.703125 43.484375 
L 7.40625 43.484375 
L 7.40625 0 
L 15 0 
L 15 24.3125 
C 15 30.25 17.203125 37.890625 24.296875 37.890625 
C 33.40625 37.890625 33.40625 31.453125 33.40625 28.53125 
L 33.40625 0 
L 41 0 
L 41 24.3125 
C 41 30.25 43.203125 37.890625 50.296875 37.890625 
C 59.40625 37.890625 59.40625 31.453125 59.40625 28.53125 
L 59.40625 0 
L 67 0 
z
" id="CMSS17-109"/>
      <path d="M 15.09375 4.296875 
C 18.40625 1.09375 22.90625 -1 27.703125 -1 
C 37 -1 45 8.640625 45 21.59375 
C 45 33.546875 39 44 30.40625 44 
C 25.40625 44 19.40625 42.1875 14.90625 38.59375 
L 14.90625 43.1875 
L 7.5 43.1875 
L 7.5 -20 
L 15.09375 -20 
z
M 15.09375 32.625 
C 15.90625 33.84375 19.296875 37.6875 24.796875 37.6875 
C 31.796875 37.6875 37.40625 30.40625 37.40625 21.59375 
C 37.40625 11.578125 30.59375 5.09375 23.90625 5.09375 
C 21.90625 5.09375 19.796875 5.59375 17.796875 7.3125 
C 15.09375 9.75 15.09375 11.265625 15.09375 12.6875 
z
" id="CMSS17-112"/>
      <path d="M 32.203125 40.984375 
C 26.296875 43.796875 21.703125 44 18.703125 44 
C 11.59375 44 3.09375 41.484375 3.09375 31.390625 
C 3.09375 21.296875 14.09375 19.09375 17.09375 18.484375 
C 21.703125 17.59375 26.796875 16.59375 26.796875 11.59375 
C 26.796875 5.296875 19.59375 5.296875 18.296875 5.296875 
C 14.296875 5.296875 8.796875 6.390625 3.796875 9.984375 
L 2.59375 3.296875 
C 8.296875 0 13.796875 -1 18.40625 -1 
C 30.703125 -1 33.796875 6.5 33.796875 12.1875 
C 33.796875 17.09375 31 20.390625 29.09375 21.890625 
C 25.796875 24.484375 24.59375 24.796875 16.40625 26.484375 
C 15 26.6875 10.09375 27.796875 10.09375 32.296875 
C 10.09375 37.984375 16.40625 37.984375 17.796875 37.984375 
C 24.296875 37.984375 28.296875 35.984375 31 34.484375 
z
" id="CMSS17-115"/>
     </defs>
     <use transform="scale(0.996264)" xlink:href="#CMSS17-116"/>
     <use transform="translate(33.831567 0)scale(0.996264)" xlink:href="#CMSS17-105"/>
     <use transform="translate(56.01229 0)scale(0.996264)" xlink:href="#CMSS17-109"/>
     <use transform="translate(130.241544 0)scale(0.996264)" xlink:href="#CMSS17-101"/>
     <use transform="translate(171.880366 0)scale(0.996264)" xlink:href="#CMSS17-108"/>
     <use transform="translate(194.061089 0)scale(0.996264)" xlink:href="#CMSS17-97"/>
     <use transform="translate(238.98301 0)scale(0.996264)" xlink:href="#CMSS17-112"/>
     <use transform="translate(287.187953 0)scale(0.996264)" xlink:href="#CMSS17-115"/>
     <use transform="translate(323.101495 0)scale(0.996264)" xlink:href="#CMSS17-101"/>
    </g>
   </g>
   <g id="patch_8">
    <path clip-path="url(#p7c261045af)" d="M 91.44 241.92 
L 117.36 241.92 
L 117.36 151.330065 
L 91.44 151.330065 
z
" style="fill:#5254a3;"/>
   </g>
   <g id="patch_9">
    <path clip-path="url(#p7c261045af)" d="M 134.64 241.92 
L 160.56 241.92 
L 160.56 220.009263 
L 134.64 220.009263 
z
" style="fill:#54aeb3;"/>
   </g>
   <g id="patch_10">
    <path clip-path="url(#p7c261045af)" d="M 134.64 241.92 
L 134.64 222.57366 
L 160.56 219.75126 
L 160.56 241.92 
z
" style="fill:#de9ed6;stroke:#de9ed6;stroke-linejoin:miter;"/>
   </g>
   <g id="patch_11">
    <path clip-path="url(#p7c261045af)" d="M 134.64 241.92 
L 134.64 223.726857 
L 160.56 220.904457 
L 160.56 241.92 
z
" style="fill:#ce6dbd;stroke:#ce6dbd;stroke-linejoin:miter;"/>
   </g>
   <g id="patch_12">
    <path clip-path="url(#p7c261045af)" d="M 91.44 241.92 
L 91.44 158.070084 
L 117.36 155.247684 
L 117.36 241.92 
z
" style="fill:#de9ed6;stroke:#de9ed6;stroke-linejoin:miter;"/>
   </g>
   <g id="patch_13">
    <path clip-path="url(#p7c261045af)" d="M 134.64 241.92 
L 134.64 224.880053 
L 160.56 222.057653 
L 160.56 241.92 
z
" style="fill:#a55194;stroke:#a55194;stroke-linejoin:miter;"/>
   </g>
   <g id="patch_14">
    <path clip-path="url(#p7c261045af)" d="M 91.44 241.92 
L 91.44 163.398904 
L 117.36 160.576504 
L 117.36 241.92 
z
" style="fill:#a55194;stroke:#a55194;stroke-linejoin:miter;"/>
   </g>
   <g id="patch_15">
    <path clip-path="url(#p7c261045af)" d="M 134.64 241.92 
L 134.64 226.03325 
L 160.56 223.21085 
L 160.56 241.92 
z
" style="fill:#7b4173;stroke:#7b4173;stroke-linejoin:miter;"/>
   </g>
   <g id="patch_16">
    <path clip-path="url(#p7c261045af)" d="M 91.44 241.92 
L 91.44 168.727724 
L 117.36 165.905324 
L 117.36 241.92 
z
" style="fill:#7b4173;stroke:#7b4173;stroke-linejoin:miter;"/>
   </g>
   <g id="patch_17">
    <path clip-path="url(#p7c261045af)" d="M 134.64 241.92 
L 134.64 227.186447 
L 160.56 224.364047 
L 160.56 241.92 
z
" style="fill:#e7969c;stroke:#e7969c;stroke-linejoin:miter;"/>
   </g>
   <g id="patch_18">
    <path clip-path="url(#p7c261045af)" d="M 91.44 241.92 
L 91.44 174.056543 
L 117.36 171.234143 
L 117.36 241.92 
z
" style="fill:#e7969c;stroke:#e7969c;stroke-linejoin:miter;"/>
   </g>
   <g id="patch_19">
    <path clip-path="url(#p7c261045af)" d="M 134.64 241.92 
L 134.64 228.339643 
L 160.56 225.517243 
L 160.56 241.92 
z
" style="fill:#d6616b;stroke:#d6616b;stroke-linejoin:miter;"/>
   </g>
   <g id="patch_20">
    <path clip-path="url(#p7c261045af)" d="M 91.44 241.92 
L 91.44 179.385363 
L 117.36 176.562963 
L 117.36 241.92 
z
" style="fill:#d6616b;stroke:#d6616b;stroke-linejoin:miter;"/>
   </g>
   <g id="patch_21">
    <path clip-path="url(#p7c261045af)" d="M 134.64 241.92 
L 134.64 229.49284 
L 160.56 226.67044 
L 160.56 241.92 
z
" style="fill:#ad494a;stroke:#ad494a;stroke-linejoin:miter;"/>
   </g>
   <g id="patch_22">
    <path clip-path="url(#p7c261045af)" d="M 91.44 241.92 
L 91.44 184.714183 
L 117.36 181.891783 
L 117.36 241.92 
z
" style="fill:#ad494a;stroke:#ad494a;stroke-linejoin:miter;"/>
   </g>
   <g id="patch_23">
    <path clip-path="url(#p7c261045af)" d="M 134.64 241.92 
L 134.64 230.646037 
L 160.56 227.823637 
L 160.56 241.92 
z
" style="fill:#843c39;stroke:#843c39;stroke-linejoin:miter;"/>
   </g>
   <g id="patch_24">
    <path clip-path="url(#p7c261045af)" d="M 91.44 241.92 
L 91.44 190.043003 
L 117.36 187.220603 
L 117.36 241.92 
z
" style="fill:#843c39;stroke:#843c39;stroke-linejoin:miter;"/>
   </g>
   <g id="patch_25">
    <path clip-path="url(#p7c261045af)" d="M 134.64 241.92 
L 134.64 231.799233 
L 160.56 228.976833 
L 160.56 241.92 
z
" style="fill:#e7cb94;stroke:#e7cb94;stroke-linejoin:miter;"/>
   </g>
   <g id="patch_26">
    <path clip-path="url(#p7c261045af)" d="M 91.44 241.92 
L 91.44 195.371822 
L 117.36 192.549422 
L 117.36 241.92 
z
" style="fill:#e7cb94;stroke:#e7cb94;stroke-linejoin:miter;"/>
   </g>
   <g id="patch_27">
    <path clip-path="url(#p7c261045af)" d="M 134.64 241.92 
L 134.64 232.95243 
L 160.56 230.13003 
L 160.56 241.92 
z
" style="fill:#e7ba52;stroke:#e7ba52;stroke-linejoin:miter;"/>
   </g>
   <g id="patch_28">
    <path clip-path="url(#p7c261045af)" d="M 91.44 241.92 
L 91.44 200.700642 
L 117.36 197.878242 
L 117.36 241.92 
z
" style="fill:#e7ba52;stroke:#e7ba52;stroke-linejoin:miter;"/>
   </g>
   <g id="patch_29">
    <path clip-path="url(#p7c261045af)" d="M 134.64 241.92 
L 134.64 234.105627 
L 160.56 231.283227 
L 160.56 241.92 
z
" style="fill:#bd9e39;stroke:#bd9e39;stroke-linejoin:miter;"/>
   </g>
   <g id="patch_30">
    <path clip-path="url(#p7c261045af)" d="M 91.44 241.92 
L 91.44 206.029462 
L 117.36 203.207062 
L 117.36 241.92 
z
" style="fill:#bd9e39;stroke:#bd9e39;stroke-linejoin:miter;"/>
   </g>
   <g id="patch_31">
    <path clip-path="url(#p7c261045af)" d="M 134.64 241.92 
L 134.64 235.258823 
L 160.56 232.436423 
L 160.56 241.92 
z
" style="fill:#8c6d31;stroke:#8c6d31;stroke-linejoin:miter;"/>
   </g>
   <g id="patch_32">
    <path clip-path="url(#p7c261045af)" d="M 91.44 241.92 
L 91.44 211.358282 
L 117.36 208.535882 
L 117.36 241.92 
z
" style="fill:#8c6d31;stroke:#8c6d31;stroke-linejoin:miter;"/>
   </g>
   <g id="patch_33">
    <path clip-path="url(#p7c261045af)" d="M 134.64 241.92 
L 134.64 236.41202 
L 160.56 233.58962 
L 160.56 241.92 
z
" style="fill:#cedb9c;stroke:#cedb9c;stroke-linejoin:miter;"/>
   </g>
   <g id="patch_34">
    <path clip-path="url(#p7c261045af)" d="M 91.44 241.92 
L 91.44 216.687101 
L 117.36 213.864701 
L 117.36 241.92 
z
" style="fill:#b5cf6b;stroke:#b5cf6b;stroke-linejoin:miter;"/>
   </g>
   <g id="patch_35">
    <path clip-path="url(#p7c261045af)" d="M 134.64 241.92 
L 134.64 237.565217 
L 160.56 234.742817 
L 160.56 241.92 
z
" style="fill:#b5cf6b;stroke:#b5cf6b;stroke-linejoin:miter;"/>
   </g>
   <g id="patch_36">
    <path clip-path="url(#p7c261045af)" d="M 91.44 241.92 
L 91.44 222.015921 
L 117.36 219.193521 
L 117.36 241.92 
z
" style="fill:#8ca252;stroke:#8ca252;stroke-linejoin:miter;"/>
   </g>
   <g id="patch_37">
    <path clip-path="url(#p7c261045af)" d="M 134.64 241.92 
L 134.64 238.718413 
L 160.56 235.896013 
L 160.56 241.92 
z
" style="fill:#8ca252;stroke:#8ca252;stroke-linejoin:miter;"/>
   </g>
   <g id="patch_38">
    <path clip-path="url(#p7c261045af)" d="M 91.44 241.92 
L 91.44 227.344741 
L 117.36 224.522341 
L 117.36 241.92 
z
" style="fill:#637939;stroke:#637939;stroke-linejoin:miter;"/>
   </g>
   <g id="patch_39">
    <path clip-path="url(#p7c261045af)" d="M 134.64 241.92 
L 134.64 239.87161 
L 160.56 237.04921 
L 160.56 241.92 
z
" style="fill:#637939;stroke:#637939;stroke-linejoin:miter;"/>
   </g>
   <g id="patch_40">
    <path clip-path="url(#p7c261045af)" d="M 91.44 241.92 
L 91.44 232.673561 
L 117.36 229.851161 
L 117.36 241.92 
z
" style="fill:#9c9ede;stroke:#9c9ede;stroke-linejoin:miter;"/>
   </g>
   <g id="patch_41">
    <path clip-path="url(#p7c261045af)" d="M 134.64 241.92 
L 134.64 241.024807 
L 160.56 238.202407 
L 160.56 241.92 
z
" style="fill:#5254a3;stroke:#5254a3;stroke-linejoin:miter;"/>
   </g>
   <g id="patch_42">
    <path clip-path="url(#p7c261045af)" d="M 91.44 241.92 
L 91.44 238.00238 
L 117.36 235.17998 
L 117.36 241.92 
z
" style="fill:#6b6ecf;stroke:#6b6ecf;stroke-linejoin:miter;"/>
   </g>
   <g id="patch_43">
    <path clip-path="url(#p7c261045af)" d="M 134.64 241.92 
L 134.64 242.178003 
L 160.56 239.355603 
L 160.56 241.92 
z
" style="fill:#393b79;stroke:#393b79;stroke-linejoin:miter;"/>
   </g>
   <g id="patch_44">
    <path d="M 108.925406 186.043536 
L 112.113566 186.043536 
L 112.113566 188.6472 
L 113.513246 188.6472 
L 113.513246 186.043536 
L 116.701406 186.043536 
L 116.701406 184.900464 
L 113.513246 184.900464 
L 113.513246 182.2968 
L 112.113566 182.2968 
L 112.113566 184.900464 
L 108.925406 184.900464 
z
" style="fill:#ffffff;opacity:0.8;stroke:#000000;stroke-linejoin:miter;stroke-width:0.9;"/>
   </g>
   <g id="patch_45">
    <path d="M 105.21639 73.147536 
L 108.40455 73.147536 
L 108.40455 75.7512 
L 109.80423 75.7512 
L 109.80423 73.147536 
L 112.99239 73.147536 
L 112.99239 72.004464 
L 109.80423 72.004464 
L 109.80423 69.4008 
L 108.40455 69.4008 
L 108.40455 72.004464 
L 105.21639 72.004464 
z
" style="fill:#ffffff;opacity:0.8;stroke:#000000;stroke-linejoin:miter;stroke-width:0.9;"/>
   </g>
   <g id="patch_46">
    <path d="M 95.305807 87.259536 
L 98.493967 87.259536 
L 98.493967 89.8632 
L 99.893647 89.8632 
L 99.893647 87.259536 
L 103.081807 87.259536 
L 103.081807 86.116464 
L 99.893647 86.116464 
L 99.893647 83.5128 
L 98.493967 83.5128 
L 98.493967 86.116464 
L 95.305807 86.116464 
z
" style="fill:#ffffff;opacity:0.8;stroke:#000000;stroke-linejoin:miter;stroke-width:0.9;"/>
   </g>
   <g id="patch_47">
    <path d="M 91.967422 186.043536 
L 95.155582 186.043536 
L 95.155582 188.6472 
L 96.555262 188.6472 
L 96.555262 186.043536 
L 99.743422 186.043536 
L 99.743422 184.900464 
L 96.555262 184.900464 
L 96.555262 182.2968 
L 95.155582 182.2968 
L 95.155582 184.900464 
L 91.967422 184.900464 
z
" style="fill:#ffffff;opacity:0.8;stroke:#000000;stroke-linejoin:miter;stroke-width:0.9;"/>
   </g>
   <g id="patch_48">
    <path d="M 105.963173 73.147536 
L 109.151333 73.147536 
L 109.151333 75.7512 
L 110.551013 75.7512 
L 110.551013 73.147536 
L 113.739173 73.147536 
L 113.739173 72.004464 
L 110.551013 72.004464 
L 110.551013 69.4008 
L 109.151333 69.4008 
L 109.151333 72.004464 
L 105.963173 72.004464 
z
" style="fill:#ffffff;opacity:0.8;stroke:#000000;stroke-linejoin:miter;stroke-width:0.9;"/>
   </g>
   <g id="patch_49">
    <path d="M 104.086495 115.483536 
L 107.274655 115.483536 
L 107.274655 118.0872 
L 108.674335 118.0872 
L 108.674335 115.483536 
L 111.862495 115.483536 
L 111.862495 114.340464 
L 108.674335 114.340464 
L 108.674335 111.7368 
L 107.274655 111.7368 
L 107.274655 114.340464 
L 104.086495 114.340464 
z
" style="fill:#ffffff;opacity:0.8;stroke:#000000;stroke-linejoin:miter;stroke-width:0.9;"/>
   </g>
   <g id="patch_50">
    <path d="M 104.469244 115.483536 
L 107.657404 115.483536 
L 107.657404 118.0872 
L 109.057084 118.0872 
L 109.057084 115.483536 
L 112.245244 115.483536 
L 112.245244 114.340464 
L 109.057084 114.340464 
L 109.057084 111.7368 
L 107.657404 111.7368 
L 107.657404 114.340464 
L 104.469244 114.340464 
z
" style="fill:#ffffff;opacity:0.8;stroke:#000000;stroke-linejoin:miter;stroke-width:0.9;"/>
   </g>
   <g id="patch_51">
    <path d="M 105.199552 186.043536 
L 108.387712 186.043536 
L 108.387712 188.6472 
L 109.787392 188.6472 
L 109.787392 186.043536 
L 112.975552 186.043536 
L 112.975552 184.900464 
L 109.787392 184.900464 
L 109.787392 182.2968 
L 108.387712 182.2968 
L 108.387712 184.900464 
L 105.199552 184.900464 
z
" style="fill:#ffffff;opacity:0.8;stroke:#000000;stroke-linejoin:miter;stroke-width:0.9;"/>
   </g>
   <g id="patch_52">
    <path d="M 93.151492 101.371536 
L 96.339652 101.371536 
L 96.339652 103.9752 
L 97.739332 103.9752 
L 97.739332 101.371536 
L 100.927492 101.371536 
L 100.927492 100.228464 
L 97.739332 100.228464 
L 97.739332 97.6248 
L 96.339652 97.6248 
L 96.339652 100.228464 
L 93.151492 100.228464 
z
" style="fill:#ffffff;opacity:0.8;stroke:#000000;stroke-linejoin:miter;stroke-width:0.9;"/>
   </g>
   <g id="patch_53">
    <path d="M 98.066288 186.043536 
L 101.254448 186.043536 
L 101.254448 188.6472 
L 102.654128 188.6472 
L 102.654128 186.043536 
L 105.842288 186.043536 
L 105.842288 184.900464 
L 102.654128 184.900464 
L 102.654128 182.2968 
L 101.254448 182.2968 
L 101.254448 184.900464 
L 98.066288 184.900464 
z
" style="fill:#ffffff;opacity:0.8;stroke:#000000;stroke-linejoin:miter;stroke-width:0.9;"/>
   </g>
   <g id="patch_54">
    <path d="M 93.874217 214.267536 
L 97.062377 214.267536 
L 97.062377 216.8712 
L 98.462057 216.8712 
L 98.462057 214.267536 
L 101.650217 214.267536 
L 101.650217 213.124464 
L 98.462057 213.124464 
L 98.462057 210.5208 
L 97.062377 210.5208 
L 97.062377 213.124464 
L 93.874217 213.124464 
z
" style="fill:#ffffff;opacity:0.8;stroke:#000000;stroke-linejoin:miter;stroke-width:0.9;"/>
   </g>
   <g id="patch_55">
    <path d="M 106.786427 143.707536 
L 109.974587 143.707536 
L 109.974587 146.3112 
L 111.374267 146.3112 
L 111.374267 143.707536 
L 114.562427 143.707536 
L 114.562427 142.564464 
L 111.374267 142.564464 
L 111.374267 139.9608 
L 109.974587 139.9608 
L 109.974587 142.564464 
L 106.786427 142.564464 
z
" style="fill:#ffffff;opacity:0.8;stroke:#000000;stroke-linejoin:miter;stroke-width:0.9;"/>
   </g>
   <g id="patch_56">
    <path d="M 102.642592 157.819536 
L 105.830752 157.819536 
L 105.830752 160.4232 
L 107.230432 160.4232 
L 107.230432 157.819536 
L 110.418592 157.819536 
L 110.418592 156.676464 
L 107.230432 156.676464 
L 107.230432 154.0728 
L 105.830752 154.0728 
L 105.830752 156.676464 
L 102.642592 156.676464 
z
" style="fill:#ffffff;opacity:0.8;stroke:#000000;stroke-linejoin:miter;stroke-width:0.9;"/>
   </g>
   <g id="patch_57">
    <path d="M 97.589918 115.483536 
L 100.778078 115.483536 
L 100.778078 118.0872 
L 102.177758 118.0872 
L 102.177758 115.483536 
L 105.365918 115.483536 
L 105.365918 114.340464 
L 102.177758 114.340464 
L 102.177758 111.7368 
L 100.778078 111.7368 
L 100.778078 114.340464 
L 97.589918 114.340464 
z
" style="fill:#ffffff;opacity:0.8;stroke:#000000;stroke-linejoin:miter;stroke-width:0.9;"/>
   </g>
   <g id="patch_58">
    <path d="M 92.970288 200.155536 
L 96.158448 200.155536 
L 96.158448 202.7592 
L 97.558128 202.7592 
L 97.558128 200.155536 
L 100.746288 200.155536 
L 100.746288 199.012464 
L 97.558128 199.012464 
L 97.558128 196.4088 
L 96.158448 196.4088 
L 96.158448 199.012464 
L 92.970288 199.012464 
z
" style="fill:#ffffff;opacity:0.8;stroke:#000000;stroke-linejoin:miter;stroke-width:0.9;"/>
   </g>
   <g id="patch_59">
    <path d="M 97.245775 129.595536 
L 100.433935 129.595536 
L 100.433935 132.1992 
L 101.833615 132.1992 
L 101.833615 129.595536 
L 105.021775 129.595536 
L 105.021775 128.452464 
L 101.833615 128.452464 
L 101.833615 125.8488 
L 100.433935 125.8488 
L 100.433935 128.452464 
L 97.245775 128.452464 
z
" style="fill:#ffffff;opacity:0.8;stroke:#000000;stroke-linejoin:miter;stroke-width:0.9;"/>
   </g>
   <g id="patch_60">
    <path d="M 97.491168 186.043536 
L 100.679328 186.043536 
L 100.679328 188.6472 
L 102.079008 188.6472 
L 102.079008 186.043536 
L 105.267168 186.043536 
L 105.267168 184.900464 
L 102.079008 184.900464 
L 102.079008 182.2968 
L 100.679328 182.2968 
L 100.679328 184.900464 
L 97.491168 184.900464 
z
" style="fill:#ffffff;opacity:0.8;stroke:#000000;stroke-linejoin:miter;stroke-width:0.9;"/>
   </g>
   <g id="patch_61">
    <path d="M 104.479595 200.155536 
L 107.667755 200.155536 
L 107.667755 202.7592 
L 109.067435 202.7592 
L 109.067435 200.155536 
L 112.255595 200.155536 
L 112.255595 199.012464 
L 109.067435 199.012464 
L 109.067435 196.4088 
L 107.667755 196.4088 
L 107.667755 199.012464 
L 104.479595 199.012464 
z
" style="fill:#ffffff;opacity:0.8;stroke:#000000;stroke-linejoin:miter;stroke-width:0.9;"/>
   </g>
   <g id="patch_62">
    <path d="M 102.888993 143.707536 
L 106.077153 143.707536 
L 106.077153 146.3112 
L 107.476833 146.3112 
L 107.476833 143.707536 
L 110.664993 143.707536 
L 110.664993 142.564464 
L 107.476833 142.564464 
L 107.476833 139.9608 
L 106.077153 139.9608 
L 106.077153 142.564464 
L 102.888993 142.564464 
z
" style="fill:#ffffff;opacity:0.8;stroke:#000000;stroke-linejoin:miter;stroke-width:0.9;"/>
   </g>
   <g id="patch_63">
    <path d="M 107.203036 214.267536 
L 110.391196 214.267536 
L 110.391196 216.8712 
L 111.790876 216.8712 
L 111.790876 214.267536 
L 114.979036 214.267536 
L 114.979036 213.124464 
L 111.790876 213.124464 
L 111.790876 210.5208 
L 110.391196 210.5208 
L 110.391196 213.124464 
L 107.203036 213.124464 
z
" style="fill:#ffffff;opacity:0.8;stroke:#000000;stroke-linejoin:miter;stroke-width:0.9;"/>
   </g>
   <g id="patch_64">
    <path d="M 100.031874 143.707536 
L 103.220034 143.707536 
L 103.220034 146.3112 
L 104.619714 146.3112 
L 104.619714 143.707536 
L 107.807874 143.707536 
L 107.807874 142.564464 
L 104.619714 142.564464 
L 104.619714 139.9608 
L 103.220034 139.9608 
L 103.220034 142.564464 
L 100.031874 142.564464 
z
" style="fill:#ffffff;opacity:0.8;stroke:#000000;stroke-linejoin:miter;stroke-width:0.9;"/>
   </g>
   <g id="patch_65">
    <path d="M 93.938589 186.043536 
L 97.126749 186.043536 
L 97.126749 188.6472 
L 98.526429 188.6472 
L 98.526429 186.043536 
L 101.714589 186.043536 
L 101.714589 184.900464 
L 98.526429 184.900464 
L 98.526429 182.2968 
L 97.126749 182.2968 
L 97.126749 184.900464 
L 93.938589 184.900464 
z
" style="fill:#ffffff;opacity:0.8;stroke:#000000;stroke-linejoin:miter;stroke-width:0.9;"/>
   </g>
   <g id="patch_66">
    <path d="M 104.19687 186.043536 
L 107.38503 186.043536 
L 107.38503 188.6472 
L 108.78471 188.6472 
L 108.78471 186.043536 
L 111.97287 186.043536 
L 111.97287 184.900464 
L 108.78471 184.900464 
L 108.78471 182.2968 
L 107.38503 182.2968 
L 107.38503 184.900464 
L 104.19687 184.900464 
z
" style="fill:#ffffff;opacity:0.8;stroke:#000000;stroke-linejoin:miter;stroke-width:0.9;"/>
   </g>
   <g id="patch_67">
    <path d="M 105.018366 157.819536 
L 108.206526 157.819536 
L 108.206526 160.4232 
L 109.606206 160.4232 
L 109.606206 157.819536 
L 112.794366 157.819536 
L 112.794366 156.676464 
L 109.606206 156.676464 
L 109.606206 154.0728 
L 108.206526 154.0728 
L 108.206526 156.676464 
L 105.018366 156.676464 
z
" style="fill:#ffffff;opacity:0.8;stroke:#000000;stroke-linejoin:miter;stroke-width:0.9;"/>
   </g>
   <g id="patch_68">
    <path d="M 101.57087 200.155536 
L 104.75903 200.155536 
L 104.75903 202.7592 
L 106.15871 202.7592 
L 106.15871 200.155536 
L 109.34687 200.155536 
L 109.34687 199.012464 
L 106.15871 199.012464 
L 106.15871 196.4088 
L 104.75903 196.4088 
L 104.75903 199.012464 
L 101.57087 199.012464 
z
" style="fill:#ffffff;opacity:0.8;stroke:#000000;stroke-linejoin:miter;stroke-width:0.9;"/>
   </g>
   <g id="patch_69">
    <path d="M 105.194313 200.155536 
L 108.382473 200.155536 
L 108.382473 202.7592 
L 109.782153 202.7592 
L 109.782153 200.155536 
L 112.970313 200.155536 
L 112.970313 199.012464 
L 109.782153 199.012464 
L 109.782153 196.4088 
L 108.382473 196.4088 
L 108.382473 199.012464 
L 105.194313 199.012464 
z
" style="fill:#ffffff;opacity:0.8;stroke:#000000;stroke-linejoin:miter;stroke-width:0.9;"/>
   </g>
   <g id="patch_70">
    <path d="M 100.404788 157.819536 
L 103.592948 157.819536 
L 103.592948 160.4232 
L 104.992628 160.4232 
L 104.992628 157.819536 
L 108.180788 157.819536 
L 108.180788 156.676464 
L 104.992628 156.676464 
L 104.992628 154.0728 
L 103.592948 154.0728 
L 103.592948 156.676464 
L 100.404788 156.676464 
z
" style="fill:#ffffff;opacity:0.8;stroke:#000000;stroke-linejoin:miter;stroke-width:0.9;"/>
   </g>
   <g id="patch_71">
    <path d="M 100.904823 87.259536 
L 104.092983 87.259536 
L 104.092983 89.8632 
L 105.492663 89.8632 
L 105.492663 87.259536 
L 108.680823 87.259536 
L 108.680823 86.116464 
L 105.492663 86.116464 
L 105.492663 83.5128 
L 104.092983 83.5128 
L 104.092983 86.116464 
L 100.904823 86.116464 
z
" style="fill:#ffffff;opacity:0.8;stroke:#000000;stroke-linejoin:miter;stroke-width:0.9;"/>
   </g>
   <g id="patch_72">
    <path d="M 99.259909 115.483536 
L 102.448069 115.483536 
L 102.448069 118.0872 
L 103.847749 118.0872 
L 103.847749 115.483536 
L 107.035909 115.483536 
L 107.035909 114.340464 
L 103.847749 114.340464 
L 103.847749 111.7368 
L 102.448069 111.7368 
L 102.448069 114.340464 
L 99.259909 114.340464 
z
" style="fill:#ffffff;opacity:0.8;stroke:#000000;stroke-linejoin:miter;stroke-width:0.9;"/>
   </g>
   <g id="patch_73">
    <path d="M 92.311243 115.483536 
L 95.499403 115.483536 
L 95.499403 118.0872 
L 96.899083 118.0872 
L 96.899083 115.483536 
L 100.087243 115.483536 
L 100.087243 114.340464 
L 96.899083 114.340464 
L 96.899083 111.7368 
L 95.499403 111.7368 
L 95.499403 114.340464 
L 92.311243 114.340464 
z
" style="fill:#ffffff;opacity:0.8;stroke:#000000;stroke-linejoin:miter;stroke-width:0.9;"/>
   </g>
   <g id="patch_74">
    <path d="M 93.736364 143.707536 
L 96.924524 143.707536 
L 96.924524 146.3112 
L 98.324204 146.3112 
L 98.324204 143.707536 
L 101.512364 143.707536 
L 101.512364 142.564464 
L 98.324204 142.564464 
L 98.324204 139.9608 
L 96.924524 139.9608 
L 96.924524 142.564464 
L 93.736364 142.564464 
z
" style="fill:#ffffff;opacity:0.8;stroke:#000000;stroke-linejoin:miter;stroke-width:0.9;"/>
   </g>
   <g id="patch_75">
    <path d="M 135.615096 242.491536 
L 138.803256 242.491536 
L 138.803256 245.0952 
L 140.202936 245.0952 
L 140.202936 242.491536 
L 143.391096 242.491536 
L 143.391096 241.348464 
L 140.202936 241.348464 
L 140.202936 238.7448 
L 138.803256 238.7448 
L 138.803256 241.348464 
L 135.615096 241.348464 
z
" style="fill:#ffffff;opacity:0.8;stroke:#000000;stroke-linejoin:miter;stroke-width:0.9;"/>
   </g>
   <g id="patch_76">
    <path d="M 146.069172 242.491536 
L 149.257332 242.491536 
L 149.257332 245.0952 
L 150.657012 245.0952 
L 150.657012 242.491536 
L 153.845172 242.491536 
L 153.845172 241.348464 
L 150.657012 241.348464 
L 150.657012 238.7448 
L 149.257332 238.7448 
L 149.257332 241.348464 
L 146.069172 241.348464 
z
" style="fill:#ffffff;opacity:0.8;stroke:#000000;stroke-linejoin:miter;stroke-width:0.9;"/>
   </g>
   <g id="patch_77">
    <path d="M 140.504071 214.267536 
L 143.692231 214.267536 
L 143.692231 216.8712 
L 145.091911 216.8712 
L 145.091911 214.267536 
L 148.280071 214.267536 
L 148.280071 213.124464 
L 145.091911 213.124464 
L 145.091911 210.5208 
L 143.692231 210.5208 
L 143.692231 213.124464 
L 140.504071 213.124464 
z
" style="fill:#ffffff;opacity:0.8;stroke:#000000;stroke-linejoin:miter;stroke-width:0.9;"/>
   </g>
   <g id="patch_78">
    <path d="M 143.860102 242.491536 
L 147.048262 242.491536 
L 147.048262 245.0952 
L 148.447942 245.0952 
L 148.447942 242.491536 
L 151.636102 242.491536 
L 151.636102 241.348464 
L 148.447942 241.348464 
L 148.447942 238.7448 
L 147.048262 238.7448 
L 147.048262 241.348464 
L 143.860102 241.348464 
z
" style="fill:#ffffff;opacity:0.8;stroke:#000000;stroke-linejoin:miter;stroke-width:0.9;"/>
   </g>
   <g id="patch_79">
    <path d="M 150.754749 129.595536 
L 153.942909 129.595536 
L 153.942909 132.1992 
L 155.342589 132.1992 
L 155.342589 129.595536 
L 158.530749 129.595536 
L 158.530749 128.452464 
L 155.342589 128.452464 
L 155.342589 125.8488 
L 153.942909 125.8488 
L 153.942909 128.452464 
L 150.754749 128.452464 
z
" style="fill:#ffffff;opacity:0.8;stroke:#000000;stroke-linejoin:miter;stroke-width:0.9;"/>
   </g>
   <g id="patch_80">
    <path d="M 139.37977 228.379536 
L 142.56793 228.379536 
L 142.56793 230.9832 
L 143.96761 230.9832 
L 143.96761 228.379536 
L 147.15577 228.379536 
L 147.15577 227.236464 
L 143.96761 227.236464 
L 143.96761 224.6328 
L 142.56793 224.6328 
L 142.56793 227.236464 
L 139.37977 227.236464 
z
" style="fill:#ffffff;opacity:0.8;stroke:#000000;stroke-linejoin:miter;stroke-width:0.9;"/>
   </g>
   <g id="patch_81">
    <path d="M 142.163417 242.491536 
L 145.351577 242.491536 
L 145.351577 245.0952 
L 146.751257 245.0952 
L 146.751257 242.491536 
L 149.939417 242.491536 
L 149.939417 241.348464 
L 146.751257 241.348464 
L 146.751257 238.7448 
L 145.351577 238.7448 
L 145.351577 241.348464 
L 142.163417 241.348464 
z
" style="fill:#ffffff;opacity:0.8;stroke:#000000;stroke-linejoin:miter;stroke-width:0.9;"/>
   </g>
   <g id="patch_82">
    <path d="M 148.127924 242.491536 
L 151.316084 242.491536 
L 151.316084 245.0952 
L 152.715764 245.0952 
L 152.715764 242.491536 
L 155.903924 242.491536 
L 155.903924 241.348464 
L 152.715764 241.348464 
L 152.715764 238.7448 
L 151.316084 238.7448 
L 151.316084 241.348464 
L 148.127924 241.348464 
z
" style="fill:#ffffff;opacity:0.8;stroke:#000000;stroke-linejoin:miter;stroke-width:0.9;"/>
   </g>
   <g id="patch_83">
    <path d="M 139.025632 228.379536 
L 142.213792 228.379536 
L 142.213792 230.9832 
L 143.613472 230.9832 
L 143.613472 228.379536 
L 146.801632 228.379536 
L 146.801632 227.236464 
L 143.613472 227.236464 
L 143.613472 224.6328 
L 142.213792 224.6328 
L 142.213792 227.236464 
L 139.025632 227.236464 
z
" style="fill:#ffffff;opacity:0.8;stroke:#000000;stroke-linejoin:miter;stroke-width:0.9;"/>
   </g>
   <g id="patch_84">
    <path d="M 136.402213 242.491536 
L 139.590373 242.491536 
L 139.590373 245.0952 
L 140.990053 245.0952 
L 140.990053 242.491536 
L 144.178213 242.491536 
L 144.178213 241.348464 
L 140.990053 241.348464 
L 140.990053 238.7448 
L 139.590373 238.7448 
L 139.590373 241.348464 
L 136.402213 241.348464 
z
" style="fill:#ffffff;opacity:0.8;stroke:#000000;stroke-linejoin:miter;stroke-width:0.9;"/>
   </g>
   <g id="patch_85">
    <path d="M 140.078905 242.491536 
L 143.267065 242.491536 
L 143.267065 245.0952 
L 144.666745 245.0952 
L 144.666745 242.491536 
L 147.854905 242.491536 
L 147.854905 241.348464 
L 144.666745 241.348464 
L 144.666745 238.7448 
L 143.267065 238.7448 
L 143.267065 241.348464 
L 140.078905 241.348464 
z
" style="fill:#ffffff;opacity:0.8;stroke:#000000;stroke-linejoin:miter;stroke-width:0.9;"/>
   </g>
   <g id="patch_86">
    <path d="M 137.857904 242.491536 
L 141.046064 242.491536 
L 141.046064 245.0952 
L 142.445744 245.0952 
L 142.445744 242.491536 
L 145.633904 242.491536 
L 145.633904 241.348464 
L 142.445744 241.348464 
L 142.445744 238.7448 
L 141.046064 238.7448 
L 141.046064 241.348464 
L 137.857904 241.348464 
z
" style="fill:#ffffff;opacity:0.8;stroke:#000000;stroke-linejoin:miter;stroke-width:0.9;"/>
   </g>
   <g id="patch_87">
    <path d="M 151.137175 242.491536 
L 154.325335 242.491536 
L 154.325335 245.0952 
L 155.725015 245.0952 
L 155.725015 242.491536 
L 158.913175 242.491536 
L 158.913175 241.348464 
L 155.725015 241.348464 
L 155.725015 238.7448 
L 154.325335 238.7448 
L 154.325335 241.348464 
L 151.137175 241.348464 
z
" style="fill:#ffffff;opacity:0.8;stroke:#000000;stroke-linejoin:miter;stroke-width:0.9;"/>
   </g>
   <g id="patch_88">
    <path d="M 149.03632 228.379536 
L 152.22448 228.379536 
L 152.22448 230.9832 
L 153.62416 230.9832 
L 153.62416 228.379536 
L 156.81232 228.379536 
L 156.81232 227.236464 
L 153.62416 227.236464 
L 153.62416 224.6328 
L 152.22448 224.6328 
L 152.22448 227.236464 
L 149.03632 227.236464 
z
" style="fill:#ffffff;opacity:0.8;stroke:#000000;stroke-linejoin:miter;stroke-width:0.9;"/>
   </g>
   <g id="patch_89">
    <path d="M 146.017217 157.819536 
L 149.205377 157.819536 
L 149.205377 160.4232 
L 150.605057 160.4232 
L 150.605057 157.819536 
L 153.793217 157.819536 
L 153.793217 156.676464 
L 150.605057 156.676464 
L 150.605057 154.0728 
L 149.205377 154.0728 
L 149.205377 156.676464 
L 146.017217 156.676464 
z
" style="fill:#ffffff;opacity:0.8;stroke:#000000;stroke-linejoin:miter;stroke-width:0.9;"/>
   </g>
   <g id="patch_90">
    <path d="M 150.130839 171.931536 
L 153.318999 171.931536 
L 153.318999 174.5352 
L 154.718679 174.5352 
L 154.718679 171.931536 
L 157.906839 171.931536 
L 157.906839 170.788464 
L 154.718679 170.788464 
L 154.718679 168.1848 
L 153.318999 168.1848 
L 153.318999 170.788464 
L 150.130839 170.788464 
z
" style="fill:#ffffff;opacity:0.8;stroke:#000000;stroke-linejoin:miter;stroke-width:0.9;"/>
   </g>
   <g id="patch_91">
    <path d="M 148.959453 200.155536 
L 152.147613 200.155536 
L 152.147613 202.7592 
L 153.547293 202.7592 
L 153.547293 200.155536 
L 156.735453 200.155536 
L 156.735453 199.012464 
L 153.547293 199.012464 
L 153.547293 196.4088 
L 152.147613 196.4088 
L 152.147613 199.012464 
L 148.959453 199.012464 
z
" style="fill:#ffffff;opacity:0.8;stroke:#000000;stroke-linejoin:miter;stroke-width:0.9;"/>
   </g>
   <g id="patch_92">
    <path d="M 138.295931 242.491536 
L 141.484091 242.491536 
L 141.484091 245.0952 
L 142.883771 245.0952 
L 142.883771 242.491536 
L 146.071931 242.491536 
L 146.071931 241.348464 
L 142.883771 241.348464 
L 142.883771 238.7448 
L 141.484091 238.7448 
L 141.484091 241.348464 
L 138.295931 241.348464 
z
" style="fill:#ffffff;opacity:0.8;stroke:#000000;stroke-linejoin:miter;stroke-width:0.9;"/>
   </g>
   <g id="patch_93">
    <path d="M 150.495419 214.267536 
L 153.683579 214.267536 
L 153.683579 216.8712 
L 155.083259 216.8712 
L 155.083259 214.267536 
L 158.271419 214.267536 
L 158.271419 213.124464 
L 155.083259 213.124464 
L 155.083259 210.5208 
L 153.683579 210.5208 
L 153.683579 213.124464 
L 150.495419 213.124464 
z
" style="fill:#ffffff;opacity:0.8;stroke:#000000;stroke-linejoin:miter;stroke-width:0.9;"/>
   </g>
   <g id="patch_94">
    <path d="M 144.391834 242.491536 
L 147.579994 242.491536 
L 147.579994 245.0952 
L 148.979674 245.0952 
L 148.979674 242.491536 
L 152.167834 242.491536 
L 152.167834 241.348464 
L 148.979674 241.348464 
L 148.979674 238.7448 
L 147.579994 238.7448 
L 147.579994 241.348464 
L 144.391834 241.348464 
z
" style="fill:#ffffff;opacity:0.8;stroke:#000000;stroke-linejoin:miter;stroke-width:0.9;"/>
   </g>
   <g id="patch_95">
    <path d="M 149.024566 242.491536 
L 152.212726 242.491536 
L 152.212726 245.0952 
L 153.612406 245.0952 
L 153.612406 242.491536 
L 156.800566 242.491536 
L 156.800566 241.348464 
L 153.612406 241.348464 
L 153.612406 238.7448 
L 152.212726 238.7448 
L 152.212726 241.348464 
L 149.024566 241.348464 
z
" style="fill:#ffffff;opacity:0.8;stroke:#000000;stroke-linejoin:miter;stroke-width:0.9;"/>
   </g>
   <g id="patch_96">
    <path d="M 150.556458 242.491536 
L 153.744618 242.491536 
L 153.744618 245.0952 
L 155.144298 245.0952 
L 155.144298 242.491536 
L 158.332458 242.491536 
L 158.332458 241.348464 
L 155.144298 241.348464 
L 155.144298 238.7448 
L 153.744618 238.7448 
L 153.744618 241.348464 
L 150.556458 241.348464 
z
" style="fill:#ffffff;opacity:0.8;stroke:#000000;stroke-linejoin:miter;stroke-width:0.9;"/>
   </g>
   <g id="patch_97">
    <path d="M 140.5671 242.491536 
L 143.75526 242.491536 
L 143.75526 245.0952 
L 145.15494 245.0952 
L 145.15494 242.491536 
L 148.3431 242.491536 
L 148.3431 241.348464 
L 145.15494 241.348464 
L 145.15494 238.7448 
L 143.75526 238.7448 
L 143.75526 241.348464 
L 140.5671 241.348464 
z
" style="fill:#ffffff;opacity:0.8;stroke:#000000;stroke-linejoin:miter;stroke-width:0.9;"/>
   </g>
   <g id="patch_98">
    <path d="M 136.973697 171.931536 
L 140.161857 171.931536 
L 140.161857 174.5352 
L 141.561537 174.5352 
L 141.561537 171.931536 
L 144.749697 171.931536 
L 144.749697 170.788464 
L 141.561537 170.788464 
L 141.561537 168.1848 
L 140.161857 168.1848 
L 140.161857 170.788464 
L 136.973697 170.788464 
z
" style="fill:#ffffff;opacity:0.8;stroke:#000000;stroke-linejoin:miter;stroke-width:0.9;"/>
   </g>
   <g id="patch_99">
    <path d="M 139.01072 242.491536 
L 142.19888 242.491536 
L 142.19888 245.0952 
L 143.59856 245.0952 
L 143.59856 242.491536 
L 146.78672 242.491536 
L 146.78672 241.348464 
L 143.59856 241.348464 
L 143.59856 238.7448 
L 142.19888 238.7448 
L 142.19888 241.348464 
L 139.01072 241.348464 
z
" style="fill:#ffffff;opacity:0.8;stroke:#000000;stroke-linejoin:miter;stroke-width:0.9;"/>
   </g>
   <g id="patch_100">
    <path d="M 142.452423 200.155536 
L 145.640583 200.155536 
L 145.640583 202.7592 
L 147.040263 202.7592 
L 147.040263 200.155536 
L 150.228423 200.155536 
L 150.228423 199.012464 
L 147.040263 199.012464 
L 147.040263 196.4088 
L 145.640583 196.4088 
L 145.640583 199.012464 
L 142.452423 199.012464 
z
" style="fill:#ffffff;opacity:0.8;stroke:#000000;stroke-linejoin:miter;stroke-width:0.9;"/>
   </g>
   <g id="patch_101">
    <path d="M 149.207295 242.491536 
L 152.395455 242.491536 
L 152.395455 245.0952 
L 153.795135 245.0952 
L 153.795135 242.491536 
L 156.983295 242.491536 
L 156.983295 241.348464 
L 153.795135 241.348464 
L 153.795135 238.7448 
L 152.395455 238.7448 
L 152.395455 241.348464 
L 149.207295 241.348464 
z
" style="fill:#ffffff;opacity:0.8;stroke:#000000;stroke-linejoin:miter;stroke-width:0.9;"/>
   </g>
   <g id="patch_102">
    <path d="M 149.945424 157.819536 
L 153.133584 157.819536 
L 153.133584 160.4232 
L 154.533264 160.4232 
L 154.533264 157.819536 
L 157.721424 157.819536 
L 157.721424 156.676464 
L 154.533264 156.676464 
L 154.533264 154.0728 
L 153.133584 154.0728 
L 153.133584 156.676464 
L 149.945424 156.676464 
z
" style="fill:#ffffff;opacity:0.8;stroke:#000000;stroke-linejoin:miter;stroke-width:0.9;"/>
   </g>
   <g id="patch_103">
    <path d="M 135.192133 214.267536 
L 138.380293 214.267536 
L 138.380293 216.8712 
L 139.779973 216.8712 
L 139.779973 214.267536 
L 142.968133 214.267536 
L 142.968133 213.124464 
L 139.779973 213.124464 
L 139.779973 210.5208 
L 138.380293 210.5208 
L 138.380293 213.124464 
L 135.192133 213.124464 
z
" style="fill:#ffffff;opacity:0.8;stroke:#000000;stroke-linejoin:miter;stroke-width:0.9;"/>
   </g>
   <g id="patch_104">
    <path d="M 143.897713 242.491536 
L 147.085873 242.491536 
L 147.085873 245.0952 
L 148.485553 245.0952 
L 148.485553 242.491536 
L 151.673713 242.491536 
L 151.673713 241.348464 
L 148.485553 241.348464 
L 148.485553 238.7448 
L 147.085873 238.7448 
L 147.085873 241.348464 
L 143.897713 241.348464 
z
" style="fill:#ffffff;opacity:0.8;stroke:#000000;stroke-linejoin:miter;stroke-width:0.9;"/>
   </g>
   <g id="patch_105">
    <path d="M 142.284862 200.155536 
L 145.473022 200.155536 
L 145.473022 202.7592 
L 146.872702 202.7592 
L 146.872702 200.155536 
L 150.060862 200.155536 
L 150.060862 199.012464 
L 146.872702 199.012464 
L 146.872702 196.4088 
L 145.473022 196.4088 
L 145.473022 199.012464 
L 142.284862 199.012464 
z
" style="fill:#ffffff;opacity:0.8;stroke:#000000;stroke-linejoin:miter;stroke-width:0.9;"/>
   </g>
   <g id="patch_106">
    <path d="M 138.910023 242.491536 
L 142.098183 242.491536 
L 142.098183 245.0952 
L 143.497863 245.0952 
L 143.497863 242.491536 
L 146.686023 242.491536 
L 146.686023 241.348464 
L 143.497863 241.348464 
L 143.497863 238.7448 
L 142.098183 238.7448 
L 142.098183 241.348464 
L 138.910023 241.348464 
z
" style="fill:#ffffff;opacity:0.8;stroke:#000000;stroke-linejoin:miter;stroke-width:0.9;"/>
   </g>
   <g id="patch_107">
    <path d="M 137.143274 242.491536 
L 140.331434 242.491536 
L 140.331434 245.0952 
L 141.731114 245.0952 
L 141.731114 242.491536 
L 144.919274 242.491536 
L 144.919274 241.348464 
L 141.731114 241.348464 
L 141.731114 238.7448 
L 140.331434 238.7448 
L 140.331434 241.348464 
L 137.143274 241.348464 
z
" style="fill:#ffffff;opacity:0.8;stroke:#000000;stroke-linejoin:miter;stroke-width:0.9;"/>
   </g>
   <g id="patch_108">
    <path d="M 140.90599 200.155536 
L 144.09415 200.155536 
L 144.09415 202.7592 
L 145.49383 202.7592 
L 145.49383 200.155536 
L 148.68199 200.155536 
L 148.68199 199.012464 
L 145.49383 199.012464 
L 145.49383 196.4088 
L 144.09415 196.4088 
L 144.09415 199.012464 
L 140.90599 199.012464 
z
" style="fill:#ffffff;opacity:0.8;stroke:#000000;stroke-linejoin:miter;stroke-width:0.9;"/>
   </g>
   <g id="patch_109">
    <path d="M 151.36548 242.491536 
L 154.55364 242.491536 
L 154.55364 245.0952 
L 155.95332 245.0952 
L 155.95332 242.491536 
L 159.14148 242.491536 
L 159.14148 241.348464 
L 155.95332 241.348464 
L 155.95332 238.7448 
L 154.55364 238.7448 
L 154.55364 241.348464 
L 151.36548 241.348464 
z
" style="fill:#ffffff;opacity:0.8;stroke:#000000;stroke-linejoin:miter;stroke-width:0.9;"/>
   </g>
   <g id="patch_110">
    <path d="M 140.656947 157.819536 
L 143.845107 157.819536 
L 143.845107 160.4232 
L 145.244787 160.4232 
L 145.244787 157.819536 
L 148.432947 157.819536 
L 148.432947 156.676464 
L 145.244787 156.676464 
L 145.244787 154.0728 
L 143.845107 154.0728 
L 143.845107 156.676464 
L 140.656947 156.676464 
z
" style="fill:#ffffff;opacity:0.8;stroke:#000000;stroke-linejoin:miter;stroke-width:0.9;"/>
   </g>
   <g id="patch_111">
    <path d="M 144.036702 242.491536 
L 147.224862 242.491536 
L 147.224862 245.0952 
L 148.624542 245.0952 
L 148.624542 242.491536 
L 151.812702 242.491536 
L 151.812702 241.348464 
L 148.624542 241.348464 
L 148.624542 238.7448 
L 147.224862 238.7448 
L 147.224862 241.348464 
L 144.036702 241.348464 
z
" style="fill:#ffffff;opacity:0.8;stroke:#000000;stroke-linejoin:miter;stroke-width:0.9;"/>
   </g>
   <g id="patch_112">
    <path d="M 147.220168 214.267536 
L 150.408328 214.267536 
L 150.408328 216.8712 
L 151.808008 216.8712 
L 151.808008 214.267536 
L 154.996168 214.267536 
L 154.996168 213.124464 
L 151.808008 213.124464 
L 151.808008 210.5208 
L 150.408328 210.5208 
L 150.408328 213.124464 
L 147.220168 213.124464 
z
" style="fill:#ffffff;opacity:0.8;stroke:#000000;stroke-linejoin:miter;stroke-width:0.9;"/>
   </g>
  </g>
 </g>
 <defs>
  <clipPath id="p7c261045af">
   <rect height="211.68" width="108" x="72" y="30.24"/>
  </clipPath>
 </defs>
</svg>
