<?xml version="1.0" encoding="utf-8" standalone="no"?>
<!DOCTYPE svg PUBLIC "-//W3C//DTD SVG 1.1//EN"
  "http://www.w3.org/Graphics/SVG/1.1/DTD/svg11.dtd">
<!-- Created with matplotlib (https://matplotlib.org/) -->
<svg height="302.4pt" version="1.1" viewBox="0 0 381.6 302.4" width="381.6pt" xmlns="http://www.w3.org/2000/svg" xmlns:xlink="http://www.w3.org/1999/xlink">
 <metadata>
  <rdf:RDF xmlns:cc="http://creativecommons.org/ns#" xmlns:dc="http://purl.org/dc/elements/1.1/" xmlns:rdf="http://www.w3.org/1999/02/22-rdf-syntax-ns#">
   <cc:Work>
    <dc:type rdf:resource="http://purl.org/dc/dcmitype/StillImage"/>
    <dc:date>2021-11-20T19:40:36.538260</dc:date>
    <dc:format>image/svg+xml</dc:format>
    <dc:creator>
     <cc:Agent>
      <dc:title>Matplotlib v3.3.4, https://matplotlib.org/</dc:title>
     </cc:Agent>
    </dc:creator>
   </cc:Work>
  </rdf:RDF>
 </metadata>
 <defs>
  <style type="text/css">*{stroke-linecap:butt;stroke-linejoin:round;}</style>
 </defs>
 <g id="figure_1">
  <g id="patch_1">
   <path d="M 0 302.4 
L 381.6 302.4 
L 381.6 0 
L 0 0 
z
" style="fill:#ffffff;"/>
  </g>
  <g id="axes_1">
   <g id="patch_2">
    <path d="M 72 241.92 
L 309.6 241.92 
L 309.6 30.24 
L 72 30.24 
z
" style="fill:#ffffff;"/>
   </g>
   <g id="patch_3">
    <path clip-path="url(#p41806c6897)" d="M 61.2 181.44 
L 309.6 181.44 
L 309.6 -30.24 
L 61.2 -30.24 
z
" style="fill:#01ff6b;opacity:0.1;stroke:#01ff6b;stroke-linejoin:miter;"/>
   </g>
   <g id="patch_4">
    <path clip-path="url(#p41806c6897)" d="M 61.2 181.44 
L 309.6 181.44 
L 309.6 241.92 
L 61.2 241.92 
z
" style="fill:#c22121;opacity:0.1;stroke:#c22121;stroke-linejoin:miter;"/>
   </g>
   <g id="matplotlib.axis_1">
    <g id="xtick_1">
     <g id="line2d_1">
      <defs>
       <path d="M 0 0 
L 0 3.5 
" id="m5bcfd3a4b6" style="stroke:#000000;stroke-width:0.8;"/>
      </defs>
      <g>
       <use style="stroke:#000000;stroke-width:0.8;" x="104.4" xlink:href="#m5bcfd3a4b6" y="241.92"/>
      </g>
     </g>
     <g id="text_1">
      <!-- D02 -->
      <g transform="translate(81.412335 278.247044)rotate(-45)scale(0.18 -0.18)">
       <defs>
        <path d="M 8.90625 69 
L 8.90625 0 
L 33.5 0 
C 49.90625 0 62.5 15.328125 62.5 33.890625 
C 62.5 53.0625 49.90625 69 33.5 69 
z
M 17.09375 5.59375 
L 17.09375 63.390625 
L 31.296875 63.390625 
C 44.703125 63.390625 54.296875 51.171875 54.296875 33.890625 
C 54.296875 17.3125 44.796875 5.59375 31.296875 5.59375 
z
" id="CMSS17-68"/>
        <path d="M 43.09375 32.390625 
C 43.09375 38.109375 43 48.75 38.90625 56.984375 
C 34.796875 64.890625 28.203125 67 23.5 67 
C 16.703125 67 10.90625 62.984375 7.90625 56.578125 
C 4.703125 49.859375 3.796875 42.9375 3.796875 32.390625 
C 3.796875 25.171875 4.09375 16.34375 7.703125 8.609375 
C 11.796875 0.09375 18.703125 -2 23.40625 -2 
C 29.59375 -2 35.59375 1.296875 39 8.203125 
C 42.5 15.4375 43.09375 23.359375 43.09375 32.390625 
z
M 23.40625 4.09375 
C 15.796875 4.09375 13.5 12.828125 12.796875 15.734375 
C 11.59375 20.75 11.40625 25.5625 11.40625 33.5 
C 11.40625 39.71875 11.40625 46.75 13.296875 52.265625 
C 15.59375 58.6875 19.59375 60.890625 23.40625 60.890625 
C 30.796875 60.890625 33.203125 53.46875 34 50.859375 
C 35.5 45.546875 35.5 39.3125 35.5 33.5 
C 35.5 24.15625 35.5 4.09375 23.40625 4.09375 
z
" id="CMSS17-48"/>
        <path d="M 25.796875 21.140625 
C 28.59375 24.03125 32.796875 27.515625 35.703125 31 
C 38.5 34.390625 42.203125 39.171875 42.203125 46.140625 
C 42.203125 57.109375 34.796875 67 22.203125 67 
C 12.296875 67 6.59375 60.796875 3.90625 51.125 
L 7.796875 45.75 
C 10 54.8125 13.09375 60.59375 20.90625 60.59375 
C 29.5 60.59375 34.296875 53.609375 34.296875 45.9375 
C 34.296875 36.78125 27.296875 29.703125 22 24.421875 
C 16.09375 18.546875 10.296875 12.578125 4.703125 6.390625 
L 4.703125 0 
L 42.203125 0 
L 42.203125 6.796875 
L 25.203125 6.796875 
C 24 6.796875 22.796875 6.6875 21.59375 6.6875 
L 11.59375 6.6875 
L 11.59375 6.796875 
z
" id="CMSS17-50"/>
       </defs>
       <use transform="scale(0.996264)" xlink:href="#CMSS17-68"/>
       <use transform="translate(67.542842 0)scale(0.996264)" xlink:href="#CMSS17-48"/>
       <use transform="translate(114.386465 0)scale(0.996264)" xlink:href="#CMSS17-50"/>
      </g>
     </g>
    </g>
    <g id="xtick_2">
     <g id="line2d_2">
      <g>
       <use style="stroke:#000000;stroke-width:0.8;" x="147.6" xlink:href="#m5bcfd3a4b6" y="241.92"/>
      </g>
     </g>
     <g id="text_2">
      <!-- D05 -->
      <g transform="translate(124.612335 278.247044)rotate(-45)scale(0.18 -0.18)">
       <defs>
        <path d="M 14.59375 59.59375 
L 39.09375 59.59375 
L 39.09375 66 
L 7.296875 66 
L 7.296875 28.59375 
L 14 28.59375 
C 15.796875 32.859375 19.5 36 24.296875 36 
C 28.796875 36 33.796875 31.9375 33.796875 20.296875 
C 33.796875 7.84375 26.703125 4.1875 21.5 4.1875 
C 15.09375 4.1875 9.203125 8.140625 6.59375 13.609375 
L 3.40625 7.9375 
C 8 0.796875 15.5 -2 21.5 -2 
C 33.09375 -2 42.203125 7.9375 42.203125 20.09375 
C 42.203125 32.546875 34.09375 42.09375 24.40625 42.09375 
C 20.90625 42.09375 17.5 40.890625 14.59375 38.5 
z
" id="CMSS17-53"/>
       </defs>
       <use transform="scale(0.996264)" xlink:href="#CMSS17-68"/>
       <use transform="translate(67.542842 0)scale(0.996264)" xlink:href="#CMSS17-48"/>
       <use transform="translate(114.386465 0)scale(0.996264)" xlink:href="#CMSS17-53"/>
      </g>
     </g>
    </g>
    <g id="xtick_3">
     <g id="line2d_3">
      <g>
       <use style="stroke:#000000;stroke-width:0.8;" x="190.8" xlink:href="#m5bcfd3a4b6" y="241.92"/>
      </g>
     </g>
     <g id="text_3">
      <!-- D06 -->
      <g transform="translate(167.812335 278.247044)rotate(-45)scale(0.18 -0.18)">
       <defs>
        <path d="M 39 64.984375 
C 34.796875 66.6875 31.796875 67 29 67 
C 16 67 3.90625 53.25 3.90625 31.609375 
C 3.90625 4.1875 15.40625 -2 23.59375 -2 
C 28.09375 -2 32.59375 -0.609375 36.90625 4.390625 
C 41.296875 9.671875 43 14.0625 43 21.75 
C 43 34.109375 36.90625 45.09375 27.796875 45.09375 
C 21.203125 45.09375 15.5 41.59375 12 37.203125 
C 13 51.40625 19.59375 60.890625 29.09375 60.890625 
C 31.703125 60.890625 35.09375 60.484375 39 58.75 
z
M 12.09375 21.4375 
C 12.09375 22.234375 12.09375 22.734375 12.203125 24.234375 
C 12.203125 32.015625 16.703125 39 24 39 
C 28.703125 39 31.09375 36.5 32.90625 33.40625 
C 35 29.515625 35.09375 25.828125 35.09375 21.75 
C 35.09375 17.859375 35.09375 13.96875 32.796875 9.96875 
C 30.90625 6.890625 28.40625 4.1875 23.59375 4.1875 
C 14.09375 4.1875 12.5 17.453125 12.09375 21.4375 
z
" id="CMSS17-54"/>
       </defs>
       <use transform="scale(0.996264)" xlink:href="#CMSS17-68"/>
       <use transform="translate(67.542842 0)scale(0.996264)" xlink:href="#CMSS17-48"/>
       <use transform="translate(114.386465 0)scale(0.996264)" xlink:href="#CMSS17-54"/>
      </g>
     </g>
    </g>
    <g id="xtick_4">
     <g id="line2d_4">
      <g>
       <use style="stroke:#000000;stroke-width:0.8;" x="234" xlink:href="#m5bcfd3a4b6" y="241.92"/>
      </g>
     </g>
     <g id="text_4">
      <!-- D07 -->
      <g transform="translate(211.012335 278.247044)rotate(-45)scale(0.18 -0.18)">
       <defs>
        <path d="M 21.703125 59.1875 
C 22.90625 59.1875 24.09375 59.296875 25.296875 59.296875 
L 36.796875 59.296875 
C 22.5 42.421875 14.296875 21.09375 14.296875 -1 
L 22.296875 -1 
C 22.296875 20.390625 29.296875 42.109375 43 59.484375 
L 43 66 
L 3.90625 66 
L 3.90625 59.1875 
z
" id="CMSS17-55"/>
       </defs>
       <use transform="scale(0.996264)" xlink:href="#CMSS17-68"/>
       <use transform="translate(67.542842 0)scale(0.996264)" xlink:href="#CMSS17-48"/>
       <use transform="translate(114.386465 0)scale(0.996264)" xlink:href="#CMSS17-55"/>
      </g>
     </g>
    </g>
    <g id="xtick_5">
     <g id="line2d_5">
      <g>
       <use style="stroke:#000000;stroke-width:0.8;" x="277.2" xlink:href="#m5bcfd3a4b6" y="241.92"/>
      </g>
     </g>
     <g id="text_5">
      <!-- D08 -->
      <g transform="translate(254.212335 278.247044)rotate(-45)scale(0.18 -0.18)">
       <defs>
        <path d="M 30.203125 35.09375 
C 37.796875 37.59375 41.703125 43.640625 41.703125 49.59375 
C 41.703125 58.96875 33.703125 67 23.5 67 
C 12.90625 67 5.203125 58.671875 5.203125 49.59375 
C 5.203125 43.734375 9 37.6875 16.703125 35.09375 
C 6.90625 31.296875 3.90625 23.6875 3.90625 18 
C 3.90625 7 12.796875 -2 23.40625 -2 
C 34.40625 -2 43 7.1875 43 18 
C 43 24.59375 39.09375 31.59375 30.203125 35.09375 
z
M 23.5 38.09375 
C 16.796875 38.09375 12.296875 42.625 12.296875 49.484375 
C 12.296875 56.453125 16.796875 60.890625 23.5 60.890625 
C 29.703125 60.890625 34.59375 56.859375 34.59375 49.484375 
C 34.59375 42.234375 29.796875 38.09375 23.5 38.09375 
z
M 23.5 4.1875 
C 17.796875 4.1875 11.703125 8.09375 11.703125 18.09375 
C 11.703125 28.390625 18.5 32 23.40625 32 
C 28.796875 32 35.203125 28.1875 35.203125 18.09375 
C 35.203125 7.6875 28.59375 4.1875 23.5 4.1875 
z
" id="CMSS17-56"/>
       </defs>
       <use transform="scale(0.996264)" xlink:href="#CMSS17-68"/>
       <use transform="translate(67.542842 0)scale(0.996264)" xlink:href="#CMSS17-48"/>
       <use transform="translate(114.386465 0)scale(0.996264)" xlink:href="#CMSS17-56"/>
      </g>
     </g>
    </g>
   </g>
   <g id="matplotlib.axis_2">
    <g id="ytick_1">
     <g id="line2d_6">
      <path clip-path="url(#p41806c6897)" d="M 72 241.92 
L 309.6 241.92 
" style="fill:none;stroke:#b0b0b0;stroke-linecap:square;stroke-opacity:0.6;stroke-width:0.7;"/>
     </g>
     <g id="line2d_7">
      <defs>
       <path d="M 0 0 
L -3.5 0 
" id="m396ff6a294" style="stroke:#000000;stroke-width:0.8;"/>
      </defs>
      <g>
       <use style="stroke:#000000;stroke-width:0.8;" x="72" xlink:href="#m396ff6a294" y="241.92"/>
      </g>
     </g>
     <g id="text_6">
      <!-- $\mathdefault{0}$ -->
      <g transform="translate(57.927644 246.935904)scale(0.145 -0.145)">
       <defs>
        <path d="M 42 31.84375 
C 42 37.96875 41.90625 48.421875 37.703125 56.453125 
C 34 63.484375 28.09375 66 22.90625 66 
C 18.09375 66 12 63.78125 8.203125 56.5625 
C 4.203125 49.015625 3.796875 39.671875 3.796875 31.84375 
C 3.796875 26.109375 3.90625 17.375 7 9.734375 
C 11.296875 -0.609375 19 -2 22.90625 -2 
C 27.5 -2 34.5 -0.109375 38.59375 9.4375 
C 41.59375 16.375 42 24.5 42 31.84375 
z
M 22.90625 -0.40625 
C 16.5 -0.40625 12.703125 5.125 11.296875 12.75 
C 10.203125 18.6875 10.203125 27.328125 10.203125 32.953125 
C 10.203125 40.6875 10.203125 47.109375 11.5 53.234375 
C 13.40625 61.78125 19 64.390625 22.90625 64.390625 
C 27 64.390625 32.296875 61.671875 34.203125 53.4375 
C 35.5 47.71875 35.59375 40.984375 35.59375 32.953125 
C 35.59375 26.421875 35.59375 18.375 34.40625 12.453125 
C 32.296875 1.5 26.40625 -0.40625 22.90625 -0.40625 
z
" id="CMR17-48"/>
       </defs>
       <use transform="scale(0.996264)" xlink:href="#CMR17-48"/>
      </g>
     </g>
    </g>
    <g id="ytick_2">
     <g id="line2d_8">
      <path clip-path="url(#p41806c6897)" d="M 72 181.44 
L 309.6 181.44 
" style="fill:none;stroke:#b0b0b0;stroke-linecap:square;stroke-opacity:0.6;stroke-width:0.7;"/>
     </g>
     <g id="line2d_9">
      <g>
       <use style="stroke:#000000;stroke-width:0.8;" x="72" xlink:href="#m396ff6a294" y="181.44"/>
      </g>
     </g>
     <g id="text_7">
      <!-- $\mathdefault{1}$ -->
      <g transform="translate(57.927644 186.455904)scale(0.145 -0.145)">
       <defs>
        <path d="M 26.59375 63.796875 
C 26.59375 65.890625 26.5 66 25.09375 66 
C 21.203125 61.359375 15.296875 59.890625 9.703125 59.6875 
C 9.40625 59.6875 8.90625 59.6875 8.796875 59.5 
C 8.703125 59.296875 8.703125 59.09375 8.703125 57 
C 11.796875 57 17 57.59375 21 59.984375 
L 21 7.296875 
C 21 3.796875 20.796875 2.59375 12.203125 2.59375 
L 9.203125 2.59375 
L 9.203125 0 
C 14 0.09375 19 0.1875 23.796875 0.1875 
C 28.59375 0.1875 33.59375 0.09375 38.40625 0 
L 38.40625 2.59375 
L 35.40625 2.59375 
C 26.796875 2.59375 26.59375 3.6875 26.59375 7.296875 
z
" id="CMR17-49"/>
       </defs>
       <use transform="scale(0.996264)" xlink:href="#CMR17-49"/>
      </g>
     </g>
    </g>
    <g id="ytick_3">
     <g id="line2d_10">
      <path clip-path="url(#p41806c6897)" d="M 72 120.96 
L 309.6 120.96 
" style="fill:none;stroke:#b0b0b0;stroke-linecap:square;stroke-opacity:0.6;stroke-width:0.7;"/>
     </g>
     <g id="line2d_11">
      <g>
       <use style="stroke:#000000;stroke-width:0.8;" x="72" xlink:href="#m396ff6a294" y="120.96"/>
      </g>
     </g>
     <g id="text_8">
      <!-- $\mathdefault{2}$ -->
      <g transform="translate(57.927644 125.975904)scale(0.145 -0.145)">
       <defs>
        <path d="M 41.703125 15.46875 
L 39.90625 15.46875 
C 38.90625 8.390625 38.09375 7.1875 37.703125 6.59375 
C 37.203125 5.796875 30 5.796875 28.59375 5.796875 
L 9.40625 5.796875 
C 13 9.6875 20 16.765625 28.5 24.9375 
C 34.59375 30.71875 41.703125 37.5 41.703125 47.390625 
C 41.703125 59.1875 32.296875 66 21.796875 66 
C 10.796875 66 4.09375 56.296875 4.09375 47.296875 
C 4.09375 43.390625 7 42.890625 8.203125 42.890625 
C 9.203125 42.890625 12.203125 43.484375 12.203125 46.984375 
C 12.203125 50.09375 9.59375 51 8.203125 51 
C 7.59375 51 7 50.890625 6.59375 50.6875 
C 8.5 59.1875 14.296875 63.390625 20.40625 63.390625 
C 29.09375 63.390625 34.796875 56.5 34.796875 47.390625 
C 34.796875 38.703125 29.703125 31.21875 24 24.734375 
L 4.09375 2.296875 
L 4.09375 0 
L 39.296875 0 
z
" id="CMR17-50"/>
       </defs>
       <use transform="scale(0.996264)" xlink:href="#CMR17-50"/>
      </g>
     </g>
    </g>
    <g id="ytick_4">
     <g id="line2d_12">
      <path clip-path="url(#p41806c6897)" d="M 72 60.48 
L 309.6 60.48 
" style="fill:none;stroke:#b0b0b0;stroke-linecap:square;stroke-opacity:0.6;stroke-width:0.7;"/>
     </g>
     <g id="line2d_13">
      <g>
       <use style="stroke:#000000;stroke-width:0.8;" x="72" xlink:href="#m396ff6a294" y="60.48"/>
      </g>
     </g>
     <g id="text_9">
      <!-- $\mathdefault{3}$ -->
      <g transform="translate(57.927644 65.495904)scale(0.145 -0.145)">
       <defs>
        <path d="M 22.09375 34 
C 31 34 34.90625 26.140625 34.90625 17.09375 
C 34.90625 5.03125 28.5 0.390625 22.703125 0.390625 
C 17.40625 0.390625 8.796875 3.015625 6.09375 10.796875 
C 6.59375 10.59375 7.09375 10.59375 7.59375 10.59375 
C 10 10.59375 11.796875 12.1875 11.796875 14.796875 
C 11.796875 17.6875 9.59375 19 7.59375 19 
C 5.90625 19 3.296875 18.1875 3.296875 14.484375 
C 3.296875 5.234375 12.296875 -2 22.90625 -2 
C 34 -2 42.5 6.75 42.5 16.984375 
C 42.5 26.84375 34.5 34 25 35.09375 
C 32.59375 36.671875 39.90625 43.375 39.90625 52.390625 
C 39.90625 60.25 32 66 23 66 
C 13.90625 66 5.90625 60.34375 5.90625 52.296875 
C 5.90625 48.796875 8.5 48.1875 9.796875 48.1875 
C 11.90625 48.1875 13.703125 49.484375 13.703125 52.09375 
C 13.703125 54.6875 11.90625 56 9.796875 56 
C 9.40625 56 8.90625 56 8.5 55.796875 
C 11.40625 62.484375 19.296875 63.6875 22.796875 63.6875 
C 26.296875 63.6875 32.90625 61.96875 32.90625 52.296875 
C 32.90625 49.484375 32.5 44.546875 29.09375 40.21875 
C 26.09375 36.390625 22.703125 36.1875 19.40625 35.890625 
C 18.90625 35.890625 16.59375 35.6875 16.203125 35.6875 
C 15.5 35.59375 15.09375 35.5 15.09375 34.796875 
C 15.09375 34.09375 15.203125 34 17.203125 34 
z
" id="CMR17-51"/>
       </defs>
       <use transform="scale(0.996264)" xlink:href="#CMR17-51"/>
      </g>
     </g>
    </g>
    <g id="text_10">
     <!-- directionality ratio -->
     <g transform="translate(50.43958 200.075635)rotate(-90)scale(0.18 -0.18)">
      <defs>
       <path d="M 40.796875 69 
L 33.40625 69 
L 33.40625 38.984375 
C 30.296875 41.59375 25.203125 44 19.59375 44 
C 10.5 44 3.296875 34.046875 3.296875 21.484375 
C 3.296875 8.9375 10.40625 -1 19.296875 -1 
C 26.203125 -1 30.796875 2.6875 33.203125 4.796875 
L 33.203125 -0.203125 
L 40.796875 -0.203125 
z
M 33.203125 13.296875 
C 33.203125 11.875 33.203125 10.359375 30.09375 7.625 
C 28.09375 5.90625 25.703125 5.09375 23.40625 5.09375 
C 18 5.09375 10.90625 9.140625 10.90625 21.390625 
C 10.90625 34.140625 18.90625 37.890625 24.40625 37.890625 
C 28.09375 37.890625 31.09375 36.0625 33.203125 33.03125 
z
" id="CMSS17-100"/>
       <path d="M 15.296875 66 
L 6.90625 66 
L 6.90625 57.59375 
L 15.296875 57.59375 
z
M 14.796875 43 
L 7.40625 43 
L 7.40625 0 
L 14.796875 0 
z
" id="CMSS17-105"/>
       <path d="M 14.90625 21.390625 
C 14.90625 30.84375 21.796875 37.171875 30.59375 37.375 
L 30.59375 44 
C 24.203125 43.890625 18.203125 40.6875 14.59375 35.46875 
L 14.59375 43.484375 
L 7.5 43.484375 
L 7.5 0 
L 14.90625 0 
z
" id="CMSS17-114"/>
       <path d="M 39.09375 21.484375 
C 39.09375 24.796875 38.90625 31.265625 35.703125 36.671875 
C 32.203125 42.390625 26.5 44 22.203125 44 
C 11.796875 44 3 34.125 3 21.296875 
C 3 9.046875 12.09375 -1 23.59375 -1 
C 28.09375 -1 33.59375 0.296875 38.59375 3.890625 
C 38.59375 4.296875 38.40625 6.46875 38.296875 6.578125 
C 38.296875 6.765625 38 9.828125 38 10.234375 
C 33.203125 6.375 27.703125 5.09375 23.703125 5.09375 
C 17.296875 5.09375 10.40625 10.421875 10.09375 21.484375 
z
M 10.90625 27 
C 12.203125 32.59375 16.59375 37.890625 22.203125 37.890625 
C 23.703125 37.890625 30.703125 37.6875 32.5 27 
z
" id="CMSS17-101"/>
       <path d="M 38.5 39.6875 
C 38.5 40.390625 33.90625 42.390625 32.703125 42.796875 
C 29.40625 44 25.203125 44 24.09375 44 
C 11.09375 44 3.296875 32.6875 3.296875 21.296875 
C 3.296875 9.296875 12 -1 23.703125 -1 
C 30.40625 -1 35.203125 1.1875 39.09375 3.796875 
L 38.5 10.390625 
C 34.203125 7.09375 29.203125 5.296875 23.796875 5.296875 
C 16 5.296875 10.90625 12.09375 10.90625 21.390625 
C 10.90625 28.59375 14.203125 37.6875 24.203125 37.6875 
C 29.703125 37.6875 32.796875 36.59375 37.40625 33.484375 
z
" id="CMSS17-99"/>
       <path d="M 16.703125 37.1875 
L 29.703125 37.1875 
L 29.703125 43 
L 16.703125 43 
L 16.703125 55 
L 9.59375 55 
L 9.59375 43 
L 1.703125 43 
L 1.703125 37.1875 
L 9.40625 37.1875 
L 9.40625 11.734375 
C 9.40625 6 10.703125 -1 17.296875 -1 
C 22.296875 -1 26.90625 0.390625 31.296875 2.6875 
L 29.703125 8.609375 
C 27.296875 6.5 24.40625 5.296875 21.296875 5.296875 
C 16.90625 5.296875 16.703125 10.921875 16.703125 13.4375 
z
" id="CMSS17-116"/>
       <path d="M 44.203125 21.1875 
C 44.203125 33.984375 34.703125 44 23.5 44 
C 12 44 2.703125 33.6875 2.703125 21.1875 
C 2.703125 8.5 12.296875 -1 23.40625 -1 
C 34.796875 -1 44.203125 8.796875 44.203125 21.1875 
z
M 23.5 5.296875 
C 16.40625 5.296875 10.296875 11.09375 10.296875 21.984375 
C 10.296875 33.59375 17.40625 37.890625 23.40625 37.890625 
C 29.90625 37.890625 36.59375 33.1875 36.59375 21.984375 
C 36.59375 10.6875 30.09375 5.296875 23.5 5.296875 
z
" id="CMSS17-111"/>
       <path d="M 40.90625 29.34375 
C 40.90625 35.671875 39.40625 44 28.09375 44 
C 21.703125 44 17.5 40.6875 14.703125 37.28125 
L 14.703125 43.484375 
L 7.40625 43.484375 
L 7.40625 0 
L 15 0 
L 15 24.3125 
C 15 30.65625 17.40625 37.890625 24.203125 37.890625 
C 33 37.890625 33.296875 31.953125 33.296875 28.53125 
L 33.296875 0 
L 40.90625 0 
z
" id="CMSS17-110"/>
       <path d="M 37.59375 27.953125 
C 37.59375 37.484375 30.90625 44 21.90625 44 
C 17.5 44 12.703125 43.1875 7.203125 39.984375 
L 7.796875 33.328125 
C 10.296875 35.15625 14.59375 38.09375 21.796875 38.09375 
C 26.90625 38.09375 30 34.140625 30 27.84375 
L 30 24 
C 14 23.5 4 18.890625 4 11.109375 
C 4 7.0625 6.5 -1 14.796875 -1 
C 16.296875 -1 24.40625 -0.8125 30.203125 3.5 
L 30.203125 -0.203125 
L 37.59375 -0.203125 
z
M 30 12.875 
C 30 11.109375 30 8.734375 27 6.96875 
C 24.40625 5.296875 21.09375 5.09375 19.703125 5.09375 
C 14.703125 5.09375 11.296875 7.859375 11.296875 11.296875 
C 11.296875 18.203125 26.90625 18.890625 30 19 
z
" id="CMSS17-97"/>
       <path d="M 14.796875 69 
L 7.40625 69 
L 7.40625 0 
L 14.796875 0 
z
" id="CMSS17-108"/>
       <path d="M 41.796875 43 
L 34 43 
C 25.5 20.203125 22.59375 10.953125 22.40625 5.984375 
L 22.296875 5.984375 
C 22 10.859375 17.59375 22.796875 14.09375 31.34375 
L 9.40625 43 
L 1.296875 43 
L 19 0.21875 
C 17.90625 -2.765625 16.296875 -7.25 15.796875 -8.234375 
C 13.59375 -13.8125 12.09375 -13.8125 10.5 -13.8125 
C 10.09375 -13.8125 6.90625 -13.703125 3.296875 -12.609375 
L 3.90625 -19.203125 
C 6.40625 -19.703125 8.90625 -20 10.703125 -20 
C 13.203125 -20 18.203125 -20 22.796875 -7.734375 
z
" id="CMSS17-121"/>
      </defs>
      <use transform="scale(0.996264)" xlink:href="#CMSS17-100"/>
      <use transform="translate(48.204943 0)scale(0.996264)" xlink:href="#CMSS17-105"/>
      <use transform="translate(70.385666 0)scale(0.996264)" xlink:href="#CMSS17-114"/>
      <use transform="translate(102.295439 0)scale(0.996264)" xlink:href="#CMSS17-101"/>
      <use transform="translate(143.934261 0)scale(0.996264)" xlink:href="#CMSS17-99"/>
      <use transform="translate(185.573083 0)scale(0.996264)" xlink:href="#CMSS17-116"/>
      <use transform="translate(219.40465 0)scale(0.996264)" xlink:href="#CMSS17-105"/>
      <use transform="translate(241.585373 0)scale(0.996264)" xlink:href="#CMSS17-111"/>
      <use transform="translate(288.428996 0)scale(0.996264)" xlink:href="#CMSS17-110"/>
      <use transform="translate(336.633939 0)scale(0.996264)" xlink:href="#CMSS17-97"/>
      <use transform="translate(381.55586 0)scale(0.996264)" xlink:href="#CMSS17-108"/>
      <use transform="translate(403.736583 0)scale(0.996264)" xlink:href="#CMSS17-105"/>
      <use transform="translate(425.917306 0)scale(0.996264)" xlink:href="#CMSS17-116"/>
      <use transform="translate(457.146419 0)scale(0.996264)" xlink:href="#CMSS17-121"/>
      <use transform="translate(531.375673 0)scale(0.996264)" xlink:href="#CMSS17-114"/>
      <use transform="translate(563.285446 0)scale(0.996264)" xlink:href="#CMSS17-97"/>
      <use transform="translate(608.207366 0)scale(0.996264)" xlink:href="#CMSS17-116"/>
      <use transform="translate(642.038933 0)scale(0.996264)" xlink:href="#CMSS17-105"/>
      <use transform="translate(664.219656 0)scale(0.996264)" xlink:href="#CMSS17-111"/>
     </g>
    </g>
   </g>
   <g id="patch_5">
    <path d="M 72 241.92 
L 72 30.24 
" style="fill:none;stroke:#000000;stroke-linecap:square;stroke-linejoin:miter;stroke-width:0.8;"/>
   </g>
   <g id="patch_6">
    <path d="M 309.6 241.92 
L 309.6 30.24 
" style="fill:none;stroke:#000000;stroke-linecap:square;stroke-linejoin:miter;stroke-width:0.8;"/>
   </g>
   <g id="patch_7">
    <path d="M 72 241.92 
L 309.6 241.92 
" style="fill:none;stroke:#000000;stroke-linecap:square;stroke-linejoin:miter;stroke-width:0.8;"/>
   </g>
   <g id="patch_8">
    <path d="M 72 30.24 
L 309.6 30.24 
" style="fill:none;stroke:#000000;stroke-linecap:square;stroke-linejoin:miter;stroke-width:0.8;"/>
   </g>
   <g id="LineCollection_1">
    <path clip-path="url(#p41806c6897)" d="M 72 141.5232 
L 309.6 141.5232 
" style="fill:none;stroke:#729c27;stroke-opacity:0.5;stroke-width:0.5;"/>
    <path clip-path="url(#p41806c6897)" d="M 72 161.4816 
L 309.6 161.4816 
" style="fill:none;stroke:#729c27;stroke-opacity:0.5;stroke-width:0.5;"/>
    <path clip-path="url(#p41806c6897)" d="M 72 221.9616 
L 309.6 221.9616 
" style="fill:none;stroke:#729c27;stroke-opacity:0.5;stroke-width:0.5;"/>
    <path clip-path="url(#p41806c6897)" d="M 72 202.0032 
L 309.6 202.0032 
" style="fill:none;stroke:#729c27;stroke-opacity:0.5;stroke-width:0.5;"/>
   </g>
   <g id="text_11">
    <!-- design -->
    <g transform="translate(168.931218 24.24)scale(0.18 -0.18)">
     <defs>
      <path d="M 32.203125 40.984375 
C 26.296875 43.796875 21.703125 44 18.703125 44 
C 11.59375 44 3.09375 41.484375 3.09375 31.390625 
C 3.09375 21.296875 14.09375 19.09375 17.09375 18.484375 
C 21.703125 17.59375 26.796875 16.59375 26.796875 11.59375 
C 26.796875 5.296875 19.59375 5.296875 18.296875 5.296875 
C 14.296875 5.296875 8.796875 6.390625 3.796875 9.984375 
L 2.59375 3.296875 
C 8.296875 0 13.796875 -1 18.40625 -1 
C 30.703125 -1 33.796875 6.5 33.796875 12.1875 
C 33.796875 17.09375 31 20.390625 29.09375 21.890625 
C 25.796875 24.484375 24.59375 24.796875 16.40625 26.484375 
C 15 26.6875 10.09375 27.796875 10.09375 32.296875 
C 10.09375 37.984375 16.40625 37.984375 17.796875 37.984375 
C 24.296875 37.984375 28.296875 35.984375 31 34.484375 
z
" id="CMSS17-115"/>
      <path d="M 44.5 44 
C 38.796875 43.890625 33.90625 42.796875 29.90625 40.890625 
C 26.59375 43.484375 23.203125 44 20.90625 44 
C 12.203125 44 5.59375 36.8125 5.59375 28.5 
C 5.59375 23.140625 8.59375 19.09375 8.796875 18.890625 
C 7 16.390625 6 13.6875 6 10.6875 
C 6 7.1875 7.40625 4.6875 8.5 3.296875 
C 3.296875 0.09375 2.59375 -4.8125 2.59375 -6.703125 
C 2.59375 -14 11.703125 -20 23.40625 -20 
C 35.203125 -20 44.296875 -14 44.296875 -6.609375 
C 44.296875 7.1875 29 7.296875 24.796875 7.296875 
L 16.703125 7.296875 
C 15.203125 7.296875 11.203125 7.296875 11.203125 12.390625 
C 11.203125 14.390625 12.09375 15.6875 12.203125 15.796875 
C 13.703125 14.6875 16.796875 13 20.90625 13 
C 29.203125 13 36.09375 19.984375 36.09375 28.5 
C 36.09375 33.25 33.90625 36.703125 33 37.890625 
L 33.296875 37.890625 
C 33.59375 37.890625 37.796875 38.1875 39.296875 38.1875 
C 42.5 38.1875 42.796875 38.09375 45.59375 37.796875 
z
M 20.90625 18.5 
C 17.5 18.5 12.703125 20.578125 12.703125 28.5 
C 12.703125 37.109375 18.203125 38.484375 20.796875 38.484375 
C 24.203125 38.484375 29 36.40625 29 28.5 
C 29 19.875 23.5 18.5 20.90625 18.5 
z
M 24.703125 0 
C 27.09375 0 37.203125 0 37.203125 -6.8125 
C 37.203125 -11.109375 31 -14.5 23.5 -14.5 
C 15.90625 -14.5 9.703125 -11.203125 9.703125 -6.703125 
C 9.703125 -6.203125 9.703125 0 16.59375 0 
z
" id="CMSS17-103"/>
     </defs>
     <use transform="scale(0.996264)" xlink:href="#CMSS17-100"/>
     <use transform="translate(48.204943 0)scale(0.996264)" xlink:href="#CMSS17-101"/>
     <use transform="translate(89.843765 0)scale(0.996264)" xlink:href="#CMSS17-115"/>
     <use transform="translate(125.757307 0)scale(0.996264)" xlink:href="#CMSS17-105"/>
     <use transform="translate(147.93803 0)scale(0.996264)" xlink:href="#CMSS17-103"/>
     <use transform="translate(194.781654 0)scale(0.996264)" xlink:href="#CMSS17-110"/>
    </g>
   </g>
   <g id="patch_9">
    <path clip-path="url(#p41806c6897)" d="M 91.44 241.92 
L 117.36 241.92 
L 117.36 129.550909 
L 91.44 129.550909 
z
" style="fill:#5254a3;"/>
   </g>
   <g id="patch_10">
    <path clip-path="url(#p41806c6897)" d="M 134.64 241.92 
L 160.56 241.92 
L 160.56 146.16 
L 134.64 146.16 
z
" style="fill:#637939;"/>
   </g>
   <g id="patch_11">
    <path clip-path="url(#p41806c6897)" d="M 177.84 241.92 
L 203.76 241.92 
L 203.76 36.96 
L 177.84 36.96 
z
" style="fill:#8ca252;"/>
   </g>
   <g id="patch_12">
    <path clip-path="url(#p41806c6897)" d="M 221.04 241.92 
L 246.96 241.92 
L 246.96 172.368 
L 221.04 172.368 
z
" style="fill:#b5cf6b;"/>
   </g>
   <g id="patch_13">
    <path clip-path="url(#p41806c6897)" d="M 264.24 241.92 
L 290.16 241.92 
L 290.16 151.2 
L 264.24 151.2 
z
" style="fill:#cedb9c;"/>
   </g>
  </g>
  <g id="axes_2">
   <g id="matplotlib.axis_3">
    <g id="ytick_5">
     <g id="line2d_14">
      <defs>
       <path d="M 0 0 
L 3.5 0 
" id="m37bf09c81a" style="stroke:#000000;stroke-width:0.8;"/>
      </defs>
      <g>
       <use style="stroke:#000000;stroke-width:0.8;" x="309.6" xlink:href="#m37bf09c81a" y="241.92"/>
      </g>
     </g>
     <g id="text_12">
      <!-- 15 -->
      <g style="fill:#808080;" transform="translate(316.6 246.935904)scale(0.145 -0.145)">
       <defs>
        <path d="M 28.40625 67 
L 26.5 67 
C 21.09375 61.703125 14.796875 60.96875 8.40625 60.796875 
L 8.40625 55 
C 11.296875 55.09375 16 55.296875 20.703125 57.390625 
L 20.703125 5.796875 
L 8.90625 5.796875 
L 8.90625 0 
L 40.203125 0 
L 40.203125 5.796875 
L 28.40625 5.796875 
z
" id="CMSS17-49"/>
       </defs>
       <use transform="scale(0.996264)" xlink:href="#CMSS17-49"/>
       <use transform="translate(46.843624 0)scale(0.996264)" xlink:href="#CMSS17-53"/>
      </g>
     </g>
    </g>
    <g id="ytick_6">
     <g id="line2d_15">
      <g>
       <use style="stroke:#000000;stroke-width:0.8;" x="309.6" xlink:href="#m37bf09c81a" y="181.44"/>
      </g>
     </g>
     <g id="text_13">
      <!-- 0 -->
      <g style="fill:#808080;" transform="translate(316.6 186.455904)scale(0.145 -0.145)">
       <use transform="scale(0.996264)" xlink:href="#CMSS17-48"/>
      </g>
     </g>
    </g>
    <g id="ytick_7">
     <g id="line2d_16">
      <g>
       <use style="stroke:#000000;stroke-width:0.8;" x="309.6" xlink:href="#m37bf09c81a" y="120.96"/>
      </g>
     </g>
     <g id="text_14">
      <!-- 15 -->
      <g style="fill:#808080;" transform="translate(316.6 125.975904)scale(0.145 -0.145)">
       <use transform="scale(0.996264)" xlink:href="#CMSS17-49"/>
       <use transform="translate(46.843624 0)scale(0.996264)" xlink:href="#CMSS17-53"/>
      </g>
     </g>
    </g>
    <g id="ytick_8">
     <g id="line2d_17">
      <g>
       <use style="stroke:#000000;stroke-width:0.8;" x="309.6" xlink:href="#m37bf09c81a" y="60.48"/>
      </g>
     </g>
     <g id="text_15">
      <!-- 30 -->
      <g style="fill:#808080;" transform="translate(316.6 65.495904)scale(0.145 -0.145)">
       <defs>
        <path d="M 15.703125 32.1875 
L 22.5 32.1875 
C 31.90625 32.1875 34.59375 23.9375 34.59375 18.1875 
C 34.59375 10.34375 30.203125 4.1875 23 4.1875 
C 17.40625 4.1875 9.5 7.015625 5 14.46875 
C 4.296875 10.9375 4.296875 10.734375 3.90625 8.328125 
C 8.59375 1.390625 16.203125 -2 23.203125 -2 
C 34.59375 -2 43 7.515625 43 18.09375 
C 43 26.046875 37.5 32.6875 30 35.1875 
C 36 38.484375 40.40625 44.6875 40.40625 51.890625 
C 40.40625 60.296875 32.703125 67 23.296875 67 
C 14.703125 67 8 61.6875 5.203125 55.984375 
C 5.90625 54.984375 7.703125 52.09375 8.59375 50.59375 
C 10.796875 56.484375 16.5 60.890625 23.203125 60.890625 
C 28.796875 60.890625 32.5 57.1875 32.5 51.890625 
C 32.5 46.390625 29 40.390625 23.09375 39 
C 22.703125 39 16.5 38.390625 15.703125 38.296875 
z
" id="CMSS17-51"/>
       </defs>
       <use transform="scale(0.996264)" xlink:href="#CMSS17-51"/>
       <use transform="translate(46.843624 0)scale(0.996264)" xlink:href="#CMSS17-48"/>
      </g>
     </g>
    </g>
   </g>
   <g id="patch_14">
    <path d="M 72 241.92 
L 72 30.24 
" style="fill:none;stroke:#000000;stroke-linecap:square;stroke-linejoin:miter;stroke-width:0.8;"/>
   </g>
   <g id="patch_15">
    <path d="M 309.6 241.92 
L 309.6 30.24 
" style="fill:none;stroke:#000000;stroke-linecap:square;stroke-linejoin:miter;stroke-width:0.8;"/>
   </g>
   <g id="patch_16">
    <path d="M 72 241.92 
L 309.6 241.92 
" style="fill:none;stroke:#000000;stroke-linecap:square;stroke-linejoin:miter;stroke-width:0.8;"/>
   </g>
   <g id="patch_17">
    <path d="M 72 30.24 
L 309.6 30.24 
" style="fill:none;stroke:#000000;stroke-linecap:square;stroke-linejoin:miter;stroke-width:0.8;"/>
   </g>
   <g id="text_16">
    <!-- reached -->
    <g style="fill:#808080;" transform="translate(318.24 207.867925)scale(0.145 -0.145)">
     <defs>
      <path d="M 40.90625 29.34375 
C 40.90625 35.671875 39.40625 44 28.09375 44 
C 21.796875 44 17.703125 40.890625 14.796875 37.484375 
L 14.796875 69 
L 7.40625 69 
L 7.40625 0 
L 15 0 
L 15 24.3125 
C 15 30.65625 17.40625 37.890625 24.203125 37.890625 
C 33 37.890625 33.296875 31.953125 33.296875 28.53125 
L 33.296875 0 
L 40.90625 0 
z
" id="CMSS17-104"/>
     </defs>
     <use transform="scale(0.996264)" xlink:href="#CMSS17-114"/>
     <use transform="translate(31.909773 0)scale(0.996264)" xlink:href="#CMSS17-101"/>
     <use transform="translate(73.548595 0)scale(0.996264)" xlink:href="#CMSS17-97"/>
     <use transform="translate(118.470515 0)scale(0.996264)" xlink:href="#CMSS17-99"/>
     <use transform="translate(160.109337 0)scale(0.996264)" xlink:href="#CMSS17-104"/>
     <use transform="translate(208.31428 0)scale(0.996264)" xlink:href="#CMSS17-101"/>
     <use transform="translate(249.953103 0)scale(0.996264)" xlink:href="#CMSS17-100"/>
    </g>
    <!-- neighbour -->
    <g style="fill:#808080;" transform="translate(318.24 222.714989)scale(0.145 -0.145)">
     <defs>
      <path d="M 14.90625 69 
L 7.5 69 
L 7.5 -0.203125 
L 15.09375 -0.203125 
L 15.09375 4.296875 
C 18.90625 0.59375 23.5 -1 27.59375 -1 
C 37.203125 -1 45 8.734375 45 21.59375 
C 45 33.328125 39 44 30.09375 44 
C 23.796875 44 18.203125 41.390625 14.90625 38.6875 
z
M 15.09375 32.734375 
C 17.296875 35.5625 20.40625 37.890625 24.796875 37.890625 
C 30.703125 37.890625 37.40625 33.53125 37.40625 21.59375 
C 37.40625 8.84375 29.40625 5.09375 23.90625 5.09375 
C 21.90625 5.09375 19.796875 5.59375 17.796875 7.3125 
C 15.09375 9.75 15.09375 11.265625 15.09375 12.6875 
z
" id="CMSS17-98"/>
      <path d="M 40.90625 43 
L 33.296875 43 
L 33.296875 15.25 
C 33.296875 7.8125 27.90625 4.796875 22.203125 4.796875 
C 15.59375 4.796875 15 7 15 11.125 
L 15 43 
L 7.40625 43 
L 7.40625 10.625 
C 7.40625 2.796875 10.09375 -1 17 -1 
C 20.40625 -1 28.09375 -0.203125 33.5 4.796875 
L 33.5 -0.203125 
L 40.90625 -0.203125 
z
" id="CMSS17-117"/>
     </defs>
     <use transform="scale(0.996264)" xlink:href="#CMSS17-110"/>
     <use transform="translate(48.204943 0)scale(0.996264)" xlink:href="#CMSS17-101"/>
     <use transform="translate(89.843765 0)scale(0.996264)" xlink:href="#CMSS17-105"/>
     <use transform="translate(112.024488 0)scale(0.996264)" xlink:href="#CMSS17-103"/>
     <use transform="translate(158.868112 0)scale(0.996264)" xlink:href="#CMSS17-104"/>
     <use transform="translate(207.073055 0)scale(0.996264)" xlink:href="#CMSS17-98"/>
     <use transform="translate(257.880437 0)scale(0.996264)" xlink:href="#CMSS17-111"/>
     <use transform="translate(304.72406 0)scale(0.996264)" xlink:href="#CMSS17-117"/>
     <use transform="translate(352.929003 0)scale(0.996264)" xlink:href="#CMSS17-114"/>
    </g>
   </g>
   <g id="text_17">
    <!-- reached -->
    <g style="fill:#808080;" transform="translate(318.24 147.387925)scale(0.145 -0.145)">
     <use transform="scale(0.996264)" xlink:href="#CMSS17-114"/>
     <use transform="translate(31.909773 0)scale(0.996264)" xlink:href="#CMSS17-101"/>
     <use transform="translate(73.548595 0)scale(0.996264)" xlink:href="#CMSS17-97"/>
     <use transform="translate(118.470515 0)scale(0.996264)" xlink:href="#CMSS17-99"/>
     <use transform="translate(160.109337 0)scale(0.996264)" xlink:href="#CMSS17-104"/>
     <use transform="translate(208.31428 0)scale(0.996264)" xlink:href="#CMSS17-101"/>
     <use transform="translate(249.953103 0)scale(0.996264)" xlink:href="#CMSS17-100"/>
    </g>
    <!-- target -->
    <g style="fill:#808080;" transform="translate(318.24 162.234989)scale(0.145 -0.145)">
     <use transform="scale(0.996264)" xlink:href="#CMSS17-116"/>
     <use transform="translate(33.831567 0)scale(0.996264)" xlink:href="#CMSS17-97"/>
     <use transform="translate(76.151033 0)scale(0.996264)" xlink:href="#CMSS17-114"/>
     <use transform="translate(108.060806 0)scale(0.996264)" xlink:href="#CMSS17-103"/>
     <use transform="translate(154.904429 0)scale(0.996264)" xlink:href="#CMSS17-101"/>
     <use transform="translate(196.543252 0)scale(0.996264)" xlink:href="#CMSS17-116"/>
    </g>
   </g>
   <g id="PathCollection_1">
    <defs>
     <path d="M -4.743416 0 
L 4.743416 0 
M 0 4.743416 
L 0 -4.743416 
" id="me8dfec255f" style="stroke:#000000;stroke-opacity:0.75;stroke-width:1.4;"/>
    </defs>
    <g clip-path="url(#p41806c6897)">
     <use style="fill-opacity:0.75;stroke:#000000;stroke-opacity:0.75;stroke-width:1.4;" x="104.4" xlink:href="#me8dfec255f" y="165.312"/>
     <use style="fill-opacity:0.75;stroke:#000000;stroke-opacity:0.75;stroke-width:1.4;" x="104.4" xlink:href="#me8dfec255f" y="133.056"/>
     <use style="fill-opacity:0.75;stroke:#000000;stroke-opacity:0.75;stroke-width:1.4;" x="104.4" xlink:href="#me8dfec255f" y="149.184"/>
     <use style="fill-opacity:0.75;stroke:#000000;stroke-opacity:0.75;stroke-width:1.4;" x="104.4" xlink:href="#me8dfec255f" y="177.408"/>
     <use style="fill-opacity:0.75;stroke:#000000;stroke-opacity:0.75;stroke-width:1.4;" x="147.6" xlink:href="#me8dfec255f" y="145.152"/>
     <use style="fill-opacity:0.75;stroke:#000000;stroke-opacity:0.75;stroke-width:1.4;" x="147.6" xlink:href="#me8dfec255f" y="165.312"/>
     <use style="fill-opacity:0.75;stroke:#000000;stroke-opacity:0.75;stroke-width:1.4;" x="147.6" xlink:href="#me8dfec255f" y="181.44"/>
     <use style="fill-opacity:0.75;stroke:#000000;stroke-opacity:0.75;stroke-width:1.4;" x="147.6" xlink:href="#me8dfec255f" y="181.44"/>
     <use style="fill-opacity:0.75;stroke:#000000;stroke-opacity:0.75;stroke-width:1.4;" x="190.8" xlink:href="#me8dfec255f" y="141.12"/>
     <use style="fill-opacity:0.75;stroke:#000000;stroke-opacity:0.75;stroke-width:1.4;" x="190.8" xlink:href="#me8dfec255f" y="165.312"/>
     <use style="fill-opacity:0.75;stroke:#000000;stroke-opacity:0.75;stroke-width:1.4;" x="190.8" xlink:href="#me8dfec255f" y="177.408"/>
     <use style="fill-opacity:0.75;stroke:#000000;stroke-opacity:0.75;stroke-width:1.4;" x="190.8" xlink:href="#me8dfec255f" y="181.44"/>
     <use style="fill-opacity:0.75;stroke:#000000;stroke-opacity:0.75;stroke-width:1.4;" x="234" xlink:href="#me8dfec255f" y="173.376"/>
     <use style="fill-opacity:0.75;stroke:#000000;stroke-opacity:0.75;stroke-width:1.4;" x="234" xlink:href="#me8dfec255f" y="153.216"/>
     <use style="fill-opacity:0.75;stroke:#000000;stroke-opacity:0.75;stroke-width:1.4;" x="234" xlink:href="#me8dfec255f" y="181.44"/>
     <use style="fill-opacity:0.75;stroke:#000000;stroke-opacity:0.75;stroke-width:1.4;" x="234" xlink:href="#me8dfec255f" y="181.44"/>
     <use style="fill-opacity:0.75;stroke:#000000;stroke-opacity:0.75;stroke-width:1.4;" x="277.2" xlink:href="#me8dfec255f" y="181.44"/>
     <use style="fill-opacity:0.75;stroke:#000000;stroke-opacity:0.75;stroke-width:1.4;" x="277.2" xlink:href="#me8dfec255f" y="177.408"/>
    </g>
   </g>
   <g id="PathCollection_2">
    <defs>
     <path d="M 4.743416 0 
L -4.743416 -0 
" id="m14b03fc447" style="stroke:#000000;stroke-opacity:0.75;stroke-width:1.4;"/>
    </defs>
    <g clip-path="url(#p41806c6897)">
     <use style="fill-opacity:0.75;stroke:#000000;stroke-opacity:0.75;stroke-width:1.4;" x="104.4" xlink:href="#m14b03fc447" y="193.536"/>
     <use style="fill-opacity:0.75;stroke:#000000;stroke-opacity:0.75;stroke-width:1.4;" x="104.4" xlink:href="#m14b03fc447" y="221.76"/>
     <use style="fill-opacity:0.75;stroke:#000000;stroke-opacity:0.75;stroke-width:1.4;" x="104.4" xlink:href="#m14b03fc447" y="189.504"/>
     <use style="fill-opacity:0.75;stroke:#000000;stroke-opacity:0.75;stroke-width:1.4;" x="104.4" xlink:href="#m14b03fc447" y="181.44"/>
     <use style="fill-opacity:0.75;stroke:#000000;stroke-opacity:0.75;stroke-width:1.4;" x="147.6" xlink:href="#m14b03fc447" y="193.536"/>
     <use style="fill-opacity:0.75;stroke:#000000;stroke-opacity:0.75;stroke-width:1.4;" x="147.6" xlink:href="#m14b03fc447" y="185.472"/>
     <use style="fill-opacity:0.75;stroke:#000000;stroke-opacity:0.75;stroke-width:1.4;" x="147.6" xlink:href="#m14b03fc447" y="181.44"/>
     <use style="fill-opacity:0.75;stroke:#000000;stroke-opacity:0.75;stroke-width:1.4;" x="147.6" xlink:href="#m14b03fc447" y="189.504"/>
     <use style="fill-opacity:0.75;stroke:#000000;stroke-opacity:0.75;stroke-width:1.4;" x="190.8" xlink:href="#m14b03fc447" y="181.44"/>
     <use style="fill-opacity:0.75;stroke:#000000;stroke-opacity:0.75;stroke-width:1.4;" x="190.8" xlink:href="#m14b03fc447" y="213.696"/>
     <use style="fill-opacity:0.75;stroke:#000000;stroke-opacity:0.75;stroke-width:1.4;" x="190.8" xlink:href="#m14b03fc447" y="185.472"/>
     <use style="fill-opacity:0.75;stroke:#000000;stroke-opacity:0.75;stroke-width:1.4;" x="190.8" xlink:href="#m14b03fc447" y="181.44"/>
     <use style="fill-opacity:0.75;stroke:#000000;stroke-opacity:0.75;stroke-width:1.4;" x="234" xlink:href="#m14b03fc447" y="189.504"/>
     <use style="fill-opacity:0.75;stroke:#000000;stroke-opacity:0.75;stroke-width:1.4;" x="234" xlink:href="#m14b03fc447" y="197.568"/>
     <use style="fill-opacity:0.75;stroke:#000000;stroke-opacity:0.75;stroke-width:1.4;" x="234" xlink:href="#m14b03fc447" y="181.44"/>
     <use style="fill-opacity:0.75;stroke:#000000;stroke-opacity:0.75;stroke-width:1.4;" x="234" xlink:href="#m14b03fc447" y="181.44"/>
     <use style="fill-opacity:0.75;stroke:#000000;stroke-opacity:0.75;stroke-width:1.4;" x="277.2" xlink:href="#m14b03fc447" y="181.44"/>
     <use style="fill-opacity:0.75;stroke:#000000;stroke-opacity:0.75;stroke-width:1.4;" x="277.2" xlink:href="#m14b03fc447" y="181.44"/>
    </g>
   </g>
  </g>
 </g>
 <defs>
  <clipPath id="p41806c6897">
   <rect height="211.68" width="237.6" x="72" y="30.24"/>
  </clipPath>
 </defs>
</svg>
