<?xml version="1.0" encoding="utf-8" standalone="no"?>
<!DOCTYPE svg PUBLIC "-//W3C//DTD SVG 1.1//EN"
  "http://www.w3.org/Graphics/SVG/1.1/DTD/svg11.dtd">
<!-- Created with matplotlib (https://matplotlib.org/) -->
<svg height="302.4pt" version="1.1" viewBox="0 0 295.2 302.4" width="295.2pt" xmlns="http://www.w3.org/2000/svg" xmlns:xlink="http://www.w3.org/1999/xlink">
 <metadata>
  <rdf:RDF xmlns:cc="http://creativecommons.org/ns#" xmlns:dc="http://purl.org/dc/elements/1.1/" xmlns:rdf="http://www.w3.org/1999/02/22-rdf-syntax-ns#">
   <cc:Work>
    <dc:type rdf:resource="http://purl.org/dc/dcmitype/StillImage"/>
    <dc:date>2021-11-20T19:40:52.013868</dc:date>
    <dc:format>image/svg+xml</dc:format>
    <dc:creator>
     <cc:Agent>
      <dc:title>Matplotlib v3.3.4, https://matplotlib.org/</dc:title>
     </cc:Agent>
    </dc:creator>
   </cc:Work>
  </rdf:RDF>
 </metadata>
 <defs>
  <style type="text/css">*{stroke-linecap:butt;stroke-linejoin:round;}</style>
 </defs>
 <g id="figure_1">
  <g id="patch_1">
   <path d="M 0 302.4 
L 295.2 302.4 
L 295.2 0 
L 0 0 
z
" style="fill:#ffffff;"/>
  </g>
  <g id="axes_1">
   <g id="patch_2">
    <path d="M 72 241.92 
L 223.2 241.92 
L 223.2 30.24 
L 72 30.24 
z
" style="fill:#ffffff;"/>
   </g>
   <g id="patch_3">
    <path clip-path="url(#p30b517b204)" d="M 61.2 241.92 
L 223.2 241.92 
L 223.2 30.24 
L 61.2 30.24 
z
" style="fill:#01ff6b;opacity:0.1;stroke:#01ff6b;stroke-linejoin:miter;"/>
   </g>
   <g id="matplotlib.axis_1">
    <g id="xtick_1">
     <g id="line2d_1">
      <defs>
       <path d="M 0 0 
L 0 3.5 
" id="mf41181e712" style="stroke:#000000;stroke-width:0.8;"/>
      </defs>
      <g>
       <use style="stroke:#000000;stroke-width:0.8;" x="104.4" xlink:href="#mf41181e712" y="241.92"/>
      </g>
     </g>
     <g id="text_1">
      <!-- 0 -->
      <g transform="translate(95.971347 263.688032)rotate(-45)scale(0.18 -0.18)">
       <defs>
        <path d="M 43.09375 32.390625 
C 43.09375 38.109375 43 48.75 38.90625 56.984375 
C 34.796875 64.890625 28.203125 67 23.5 67 
C 16.703125 67 10.90625 62.984375 7.90625 56.578125 
C 4.703125 49.859375 3.796875 42.9375 3.796875 32.390625 
C 3.796875 25.171875 4.09375 16.34375 7.703125 8.609375 
C 11.796875 0.09375 18.703125 -2 23.40625 -2 
C 29.59375 -2 35.59375 1.296875 39 8.203125 
C 42.5 15.4375 43.09375 23.359375 43.09375 32.390625 
z
M 23.40625 4.09375 
C 15.796875 4.09375 13.5 12.828125 12.796875 15.734375 
C 11.59375 20.75 11.40625 25.5625 11.40625 33.5 
C 11.40625 39.71875 11.40625 46.75 13.296875 52.265625 
C 15.59375 58.6875 19.59375 60.890625 23.40625 60.890625 
C 30.796875 60.890625 33.203125 53.46875 34 50.859375 
C 35.5 45.546875 35.5 39.3125 35.5 33.5 
C 35.5 24.15625 35.5 4.09375 23.40625 4.09375 
z
" id="CMSS17-48"/>
       </defs>
       <use transform="scale(0.996264)" xlink:href="#CMSS17-48"/>
      </g>
     </g>
    </g>
    <g id="xtick_2">
     <g id="line2d_2">
      <g>
       <use style="stroke:#000000;stroke-width:0.8;" x="147.6" xlink:href="#mf41181e712" y="241.92"/>
      </g>
     </g>
     <g id="text_2">
      <!-- 1 -->
      <g transform="translate(139.171347 263.688032)rotate(-45)scale(0.18 -0.18)">
       <defs>
        <path d="M 28.40625 67 
L 26.5 67 
C 21.09375 61.703125 14.796875 60.96875 8.40625 60.796875 
L 8.40625 55 
C 11.296875 55.09375 16 55.296875 20.703125 57.390625 
L 20.703125 5.796875 
L 8.90625 5.796875 
L 8.90625 0 
L 40.203125 0 
L 40.203125 5.796875 
L 28.40625 5.796875 
z
" id="CMSS17-49"/>
       </defs>
       <use transform="scale(0.996264)" xlink:href="#CMSS17-49"/>
      </g>
     </g>
    </g>
    <g id="xtick_3">
     <g id="line2d_3">
      <g>
       <use style="stroke:#000000;stroke-width:0.8;" x="190.8" xlink:href="#mf41181e712" y="241.92"/>
      </g>
     </g>
     <g id="text_3">
      <!-- 3 -->
      <g transform="translate(182.371347 263.688032)rotate(-45)scale(0.18 -0.18)">
       <defs>
        <path d="M 15.703125 32.1875 
L 22.5 32.1875 
C 31.90625 32.1875 34.59375 23.9375 34.59375 18.1875 
C 34.59375 10.34375 30.203125 4.1875 23 4.1875 
C 17.40625 4.1875 9.5 7.015625 5 14.46875 
C 4.296875 10.9375 4.296875 10.734375 3.90625 8.328125 
C 8.59375 1.390625 16.203125 -2 23.203125 -2 
C 34.59375 -2 43 7.515625 43 18.09375 
C 43 26.046875 37.5 32.6875 30 35.1875 
C 36 38.484375 40.40625 44.6875 40.40625 51.890625 
C 40.40625 60.296875 32.703125 67 23.296875 67 
C 14.703125 67 8 61.6875 5.203125 55.984375 
C 5.90625 54.984375 7.703125 52.09375 8.59375 50.59375 
C 10.796875 56.484375 16.5 60.890625 23.203125 60.890625 
C 28.796875 60.890625 32.5 57.1875 32.5 51.890625 
C 32.5 46.390625 29 40.390625 23.09375 39 
C 22.703125 39 16.5 38.390625 15.703125 38.296875 
z
" id="CMSS17-51"/>
       </defs>
       <use transform="scale(0.996264)" xlink:href="#CMSS17-51"/>
      </g>
     </g>
    </g>
   </g>
   <g id="matplotlib.axis_2">
    <g id="ytick_1">
     <g id="line2d_4">
      <path clip-path="url(#p30b517b204)" d="M 72 241.92 
L 223.2 241.92 
" style="fill:none;stroke:#b0b0b0;stroke-linecap:square;stroke-opacity:0.6;stroke-width:0.7;"/>
     </g>
     <g id="line2d_5">
      <defs>
       <path d="M 0 0 
L 3.5 0 
" id="ma78779dfd9" style="stroke:#000000;stroke-width:0.8;"/>
      </defs>
      <g>
       <use style="stroke:#000000;stroke-width:0.8;" x="223.2" xlink:href="#ma78779dfd9" y="241.92"/>
      </g>
     </g>
     <g id="text_4">
      <!-- $\mathdefault{0}$ -->
      <g style="fill:#808080;" transform="translate(230.2 246.935904)scale(0.145 -0.145)">
       <defs>
        <path d="M 42 31.84375 
C 42 37.96875 41.90625 48.421875 37.703125 56.453125 
C 34 63.484375 28.09375 66 22.90625 66 
C 18.09375 66 12 63.78125 8.203125 56.5625 
C 4.203125 49.015625 3.796875 39.671875 3.796875 31.84375 
C 3.796875 26.109375 3.90625 17.375 7 9.734375 
C 11.296875 -0.609375 19 -2 22.90625 -2 
C 27.5 -2 34.5 -0.109375 38.59375 9.4375 
C 41.59375 16.375 42 24.5 42 31.84375 
z
M 22.90625 -0.40625 
C 16.5 -0.40625 12.703125 5.125 11.296875 12.75 
C 10.203125 18.6875 10.203125 27.328125 10.203125 32.953125 
C 10.203125 40.6875 10.203125 47.109375 11.5 53.234375 
C 13.40625 61.78125 19 64.390625 22.90625 64.390625 
C 27 64.390625 32.296875 61.671875 34.203125 53.4375 
C 35.5 47.71875 35.59375 40.984375 35.59375 32.953125 
C 35.59375 26.421875 35.59375 18.375 34.40625 12.453125 
C 32.296875 1.5 26.40625 -0.40625 22.90625 -0.40625 
z
" id="CMR17-48"/>
       </defs>
       <use transform="scale(0.996264)" xlink:href="#CMR17-48"/>
      </g>
     </g>
    </g>
    <g id="ytick_2">
     <g id="line2d_6">
      <path clip-path="url(#p30b517b204)" d="M 72 185.472 
L 223.2 185.472 
" style="fill:none;stroke:#b0b0b0;stroke-linecap:square;stroke-opacity:0.6;stroke-width:0.7;"/>
     </g>
     <g id="line2d_7">
      <g>
       <use style="stroke:#000000;stroke-width:0.8;" x="223.2" xlink:href="#ma78779dfd9" y="185.472"/>
      </g>
     </g>
     <g id="text_5">
      <!-- $\mathdefault{4}$ -->
      <g style="fill:#808080;" transform="translate(230.2 190.487904)scale(0.145 -0.145)">
       <defs>
        <path d="M 33.59375 64.796875 
C 33.59375 66.890625 33.5 67 31.703125 67 
L 2 19.59375 
L 2 17 
L 27.796875 17 
L 27.796875 7.1875 
C 27.796875 3.59375 27.59375 2.59375 20.59375 2.59375 
L 18.703125 2.59375 
L 18.703125 0 
C 21.90625 0.1875 27.296875 0.1875 30.703125 0.1875 
C 34.09375 0.1875 39.5 0.1875 42.703125 0 
L 42.703125 2.59375 
L 40.796875 2.59375 
C 33.796875 2.59375 33.59375 3.59375 33.59375 7.1875 
L 33.59375 17 
L 43.796875 17 
L 43.796875 19.59375 
L 33.59375 19.59375 
z
M 28.09375 58.171875 
L 28.09375 19.59375 
L 4 19.59375 
z
" id="CMR17-52"/>
       </defs>
       <use transform="scale(0.996264)" xlink:href="#CMR17-52"/>
      </g>
     </g>
    </g>
    <g id="ytick_3">
     <g id="line2d_8">
      <path clip-path="url(#p30b517b204)" d="M 72 129.024 
L 223.2 129.024 
" style="fill:none;stroke:#b0b0b0;stroke-linecap:square;stroke-opacity:0.6;stroke-width:0.7;"/>
     </g>
     <g id="line2d_9">
      <g>
       <use style="stroke:#000000;stroke-width:0.8;" x="223.2" xlink:href="#ma78779dfd9" y="129.024"/>
      </g>
     </g>
     <g id="text_6">
      <!-- $\mathdefault{8}$ -->
      <g style="fill:#808080;" transform="translate(230.2 134.039904)scale(0.145 -0.145)">
       <defs>
        <path d="M 27.203125 35.765625 
C 33.5 38.96875 39.90625 43.796875 39.90625 51.53125 
C 39.90625 60.6875 31.09375 66 23 66 
C 13.90625 66 5.90625 59.375 5.90625 50.234375 
C 5.90625 47.71875 6.5 43.390625 10.40625 39.578125 
C 11.40625 38.578125 15.59375 35.5625 18.296875 33.65625 
C 13.796875 31.34375 3.296875 25.8125 3.296875 14.765625 
C 3.296875 4.40625 13.09375 -2 22.796875 -2 
C 33.5 -2 42.5 5.71875 42.5 15.96875 
C 42.5 25.109375 36.40625 29.328125 32.40625 32.046875 
z
M 14.09375 44.609375 
C 13.296875 45.109375 9.296875 48.21875 9.296875 52.9375 
C 9.296875 59.078125 15.59375 63.6875 22.796875 63.6875 
C 30.703125 63.6875 36.5 58.0625 36.5 51.53125 
C 36.5 42.1875 26.09375 36.859375 25.59375 36.859375 
C 25.5 36.859375 25.40625 36.859375 24.59375 37.46875 
z
M 32.5 24 
C 34 22.90625 38.796875 19.578125 38.796875 13.453125 
C 38.796875 6.015625 31.40625 0.390625 23 0.390625 
C 13.90625 0.390625 7 6.921875 7 14.859375 
C 7 22.796875 13.09375 29.4375 20 32.546875 
z
" id="CMR17-56"/>
       </defs>
       <use transform="scale(0.996264)" xlink:href="#CMR17-56"/>
      </g>
     </g>
    </g>
    <g id="ytick_4">
     <g id="line2d_10">
      <path clip-path="url(#p30b517b204)" d="M 72 72.576 
L 223.2 72.576 
" style="fill:none;stroke:#b0b0b0;stroke-linecap:square;stroke-opacity:0.6;stroke-width:0.7;"/>
     </g>
     <g id="line2d_11">
      <g>
       <use style="stroke:#000000;stroke-width:0.8;" x="223.2" xlink:href="#ma78779dfd9" y="72.576"/>
      </g>
     </g>
     <g id="text_7">
      <!-- $\mathdefault{12}$ -->
      <g style="fill:#808080;" transform="translate(230.2 77.591904)scale(0.145 -0.145)">
       <defs>
        <path d="M 26.59375 63.796875 
C 26.59375 65.890625 26.5 66 25.09375 66 
C 21.203125 61.359375 15.296875 59.890625 9.703125 59.6875 
C 9.40625 59.6875 8.90625 59.6875 8.796875 59.5 
C 8.703125 59.296875 8.703125 59.09375 8.703125 57 
C 11.796875 57 17 57.59375 21 59.984375 
L 21 7.296875 
C 21 3.796875 20.796875 2.59375 12.203125 2.59375 
L 9.203125 2.59375 
L 9.203125 0 
C 14 0.09375 19 0.1875 23.796875 0.1875 
C 28.59375 0.1875 33.59375 0.09375 38.40625 0 
L 38.40625 2.59375 
L 35.40625 2.59375 
C 26.796875 2.59375 26.59375 3.6875 26.59375 7.296875 
z
" id="CMR17-49"/>
        <path d="M 41.703125 15.46875 
L 39.90625 15.46875 
C 38.90625 8.390625 38.09375 7.1875 37.703125 6.59375 
C 37.203125 5.796875 30 5.796875 28.59375 5.796875 
L 9.40625 5.796875 
C 13 9.6875 20 16.765625 28.5 24.9375 
C 34.59375 30.71875 41.703125 37.5 41.703125 47.390625 
C 41.703125 59.1875 32.296875 66 21.796875 66 
C 10.796875 66 4.09375 56.296875 4.09375 47.296875 
C 4.09375 43.390625 7 42.890625 8.203125 42.890625 
C 9.203125 42.890625 12.203125 43.484375 12.203125 46.984375 
C 12.203125 50.09375 9.59375 51 8.203125 51 
C 7.59375 51 7 50.890625 6.59375 50.6875 
C 8.5 59.1875 14.296875 63.390625 20.40625 63.390625 
C 29.09375 63.390625 34.796875 56.5 34.796875 47.390625 
C 34.796875 38.703125 29.703125 31.21875 24 24.734375 
L 4.09375 2.296875 
L 4.09375 0 
L 39.296875 0 
z
" id="CMR17-50"/>
       </defs>
       <use transform="scale(0.996264)" xlink:href="#CMR17-49"/>
       <use transform="translate(45.690477 0)scale(0.996264)" xlink:href="#CMR17-50"/>
      </g>
     </g>
    </g>
   </g>
   <g id="patch_4">
    <path d="M 72 241.92 
L 72 30.24 
" style="fill:none;stroke:#000000;stroke-linecap:square;stroke-linejoin:miter;stroke-width:0.8;"/>
   </g>
   <g id="patch_5">
    <path d="M 223.2 241.92 
L 223.2 30.24 
" style="fill:none;stroke:#000000;stroke-linecap:square;stroke-linejoin:miter;stroke-width:0.8;"/>
   </g>
   <g id="patch_6">
    <path d="M 72 241.92 
L 223.2 241.92 
" style="fill:none;stroke:#000000;stroke-linecap:square;stroke-linejoin:miter;stroke-width:0.8;"/>
   </g>
   <g id="patch_7">
    <path d="M 72 30.24 
L 223.2 30.24 
" style="fill:none;stroke:#000000;stroke-linecap:square;stroke-linejoin:miter;stroke-width:0.8;"/>
   </g>
   <g id="text_8">
    <!-- reached -->
    <g style="fill:#808080;" transform="translate(231.84 209.883925)scale(0.145 -0.145)">
     <defs>
      <path d="M 14.90625 21.390625 
C 14.90625 30.84375 21.796875 37.171875 30.59375 37.375 
L 30.59375 44 
C 24.203125 43.890625 18.203125 40.6875 14.59375 35.46875 
L 14.59375 43.484375 
L 7.5 43.484375 
L 7.5 0 
L 14.90625 0 
z
" id="CMSS17-114"/>
      <path d="M 39.09375 21.484375 
C 39.09375 24.796875 38.90625 31.265625 35.703125 36.671875 
C 32.203125 42.390625 26.5 44 22.203125 44 
C 11.796875 44 3 34.125 3 21.296875 
C 3 9.046875 12.09375 -1 23.59375 -1 
C 28.09375 -1 33.59375 0.296875 38.59375 3.890625 
C 38.59375 4.296875 38.40625 6.46875 38.296875 6.578125 
C 38.296875 6.765625 38 9.828125 38 10.234375 
C 33.203125 6.375 27.703125 5.09375 23.703125 5.09375 
C 17.296875 5.09375 10.40625 10.421875 10.09375 21.484375 
z
M 10.90625 27 
C 12.203125 32.59375 16.59375 37.890625 22.203125 37.890625 
C 23.703125 37.890625 30.703125 37.6875 32.5 27 
z
" id="CMSS17-101"/>
      <path d="M 37.59375 27.953125 
C 37.59375 37.484375 30.90625 44 21.90625 44 
C 17.5 44 12.703125 43.1875 7.203125 39.984375 
L 7.796875 33.328125 
C 10.296875 35.15625 14.59375 38.09375 21.796875 38.09375 
C 26.90625 38.09375 30 34.140625 30 27.84375 
L 30 24 
C 14 23.5 4 18.890625 4 11.109375 
C 4 7.0625 6.5 -1 14.796875 -1 
C 16.296875 -1 24.40625 -0.8125 30.203125 3.5 
L 30.203125 -0.203125 
L 37.59375 -0.203125 
z
M 30 12.875 
C 30 11.109375 30 8.734375 27 6.96875 
C 24.40625 5.296875 21.09375 5.09375 19.703125 5.09375 
C 14.703125 5.09375 11.296875 7.859375 11.296875 11.296875 
C 11.296875 18.203125 26.90625 18.890625 30 19 
z
" id="CMSS17-97"/>
      <path d="M 38.5 39.6875 
C 38.5 40.390625 33.90625 42.390625 32.703125 42.796875 
C 29.40625 44 25.203125 44 24.09375 44 
C 11.09375 44 3.296875 32.6875 3.296875 21.296875 
C 3.296875 9.296875 12 -1 23.703125 -1 
C 30.40625 -1 35.203125 1.1875 39.09375 3.796875 
L 38.5 10.390625 
C 34.203125 7.09375 29.203125 5.296875 23.796875 5.296875 
C 16 5.296875 10.90625 12.09375 10.90625 21.390625 
C 10.90625 28.59375 14.203125 37.6875 24.203125 37.6875 
C 29.703125 37.6875 32.796875 36.59375 37.40625 33.484375 
z
" id="CMSS17-99"/>
      <path d="M 40.90625 29.34375 
C 40.90625 35.671875 39.40625 44 28.09375 44 
C 21.796875 44 17.703125 40.890625 14.796875 37.484375 
L 14.796875 69 
L 7.40625 69 
L 7.40625 0 
L 15 0 
L 15 24.3125 
C 15 30.65625 17.40625 37.890625 24.203125 37.890625 
C 33 37.890625 33.296875 31.953125 33.296875 28.53125 
L 33.296875 0 
L 40.90625 0 
z
" id="CMSS17-104"/>
      <path d="M 40.796875 69 
L 33.40625 69 
L 33.40625 38.984375 
C 30.296875 41.59375 25.203125 44 19.59375 44 
C 10.5 44 3.296875 34.046875 3.296875 21.484375 
C 3.296875 8.9375 10.40625 -1 19.296875 -1 
C 26.203125 -1 30.796875 2.6875 33.203125 4.796875 
L 33.203125 -0.203125 
L 40.796875 -0.203125 
z
M 33.203125 13.296875 
C 33.203125 11.875 33.203125 10.359375 30.09375 7.625 
C 28.09375 5.90625 25.703125 5.09375 23.40625 5.09375 
C 18 5.09375 10.90625 9.140625 10.90625 21.390625 
C 10.90625 34.140625 18.90625 37.890625 24.40625 37.890625 
C 28.09375 37.890625 31.09375 36.0625 33.203125 33.03125 
z
" id="CMSS17-100"/>
     </defs>
     <use transform="scale(0.996264)" xlink:href="#CMSS17-114"/>
     <use transform="translate(31.909773 0)scale(0.996264)" xlink:href="#CMSS17-101"/>
     <use transform="translate(73.548595 0)scale(0.996264)" xlink:href="#CMSS17-97"/>
     <use transform="translate(118.470515 0)scale(0.996264)" xlink:href="#CMSS17-99"/>
     <use transform="translate(160.109337 0)scale(0.996264)" xlink:href="#CMSS17-104"/>
     <use transform="translate(208.31428 0)scale(0.996264)" xlink:href="#CMSS17-101"/>
     <use transform="translate(249.953103 0)scale(0.996264)" xlink:href="#CMSS17-100"/>
    </g>
    <!-- target -->
    <g style="fill:#808080;" transform="translate(231.84 224.730989)scale(0.145 -0.145)">
     <defs>
      <path d="M 16.703125 37.1875 
L 29.703125 37.1875 
L 29.703125 43 
L 16.703125 43 
L 16.703125 55 
L 9.59375 55 
L 9.59375 43 
L 1.703125 43 
L 1.703125 37.1875 
L 9.40625 37.1875 
L 9.40625 11.734375 
C 9.40625 6 10.703125 -1 17.296875 -1 
C 22.296875 -1 26.90625 0.390625 31.296875 2.6875 
L 29.703125 8.609375 
C 27.296875 6.5 24.40625 5.296875 21.296875 5.296875 
C 16.90625 5.296875 16.703125 10.921875 16.703125 13.4375 
z
" id="CMSS17-116"/>
      <path d="M 44.5 44 
C 38.796875 43.890625 33.90625 42.796875 29.90625 40.890625 
C 26.59375 43.484375 23.203125 44 20.90625 44 
C 12.203125 44 5.59375 36.8125 5.59375 28.5 
C 5.59375 23.140625 8.59375 19.09375 8.796875 18.890625 
C 7 16.390625 6 13.6875 6 10.6875 
C 6 7.1875 7.40625 4.6875 8.5 3.296875 
C 3.296875 0.09375 2.59375 -4.8125 2.59375 -6.703125 
C 2.59375 -14 11.703125 -20 23.40625 -20 
C 35.203125 -20 44.296875 -14 44.296875 -6.609375 
C 44.296875 7.1875 29 7.296875 24.796875 7.296875 
L 16.703125 7.296875 
C 15.203125 7.296875 11.203125 7.296875 11.203125 12.390625 
C 11.203125 14.390625 12.09375 15.6875 12.203125 15.796875 
C 13.703125 14.6875 16.796875 13 20.90625 13 
C 29.203125 13 36.09375 19.984375 36.09375 28.5 
C 36.09375 33.25 33.90625 36.703125 33 37.890625 
L 33.296875 37.890625 
C 33.59375 37.890625 37.796875 38.1875 39.296875 38.1875 
C 42.5 38.1875 42.796875 38.09375 45.59375 37.796875 
z
M 20.90625 18.5 
C 17.5 18.5 12.703125 20.578125 12.703125 28.5 
C 12.703125 37.109375 18.203125 38.484375 20.796875 38.484375 
C 24.203125 38.484375 29 36.40625 29 28.5 
C 29 19.875 23.5 18.5 20.90625 18.5 
z
M 24.703125 0 
C 27.09375 0 37.203125 0 37.203125 -6.8125 
C 37.203125 -11.109375 31 -14.5 23.5 -14.5 
C 15.90625 -14.5 9.703125 -11.203125 9.703125 -6.703125 
C 9.703125 -6.203125 9.703125 0 16.59375 0 
z
" id="CMSS17-103"/>
     </defs>
     <use transform="scale(0.996264)" xlink:href="#CMSS17-116"/>
     <use transform="translate(33.831567 0)scale(0.996264)" xlink:href="#CMSS17-97"/>
     <use transform="translate(76.151033 0)scale(0.996264)" xlink:href="#CMSS17-114"/>
     <use transform="translate(108.060806 0)scale(0.996264)" xlink:href="#CMSS17-103"/>
     <use transform="translate(154.904429 0)scale(0.996264)" xlink:href="#CMSS17-101"/>
     <use transform="translate(196.543252 0)scale(0.996264)" xlink:href="#CMSS17-116"/>
    </g>
   </g>
   <g id="text_9">
    <!-- n 2-joints -->
    <g transform="translate(114.366228 24.24)scale(0.18 -0.18)">
     <defs>
      <path d="M 40.90625 29.34375 
C 40.90625 35.671875 39.40625 44 28.09375 44 
C 21.703125 44 17.5 40.6875 14.703125 37.28125 
L 14.703125 43.484375 
L 7.40625 43.484375 
L 7.40625 0 
L 15 0 
L 15 24.3125 
C 15 30.65625 17.40625 37.890625 24.203125 37.890625 
C 33 37.890625 33.296875 31.953125 33.296875 28.53125 
L 33.296875 0 
L 40.90625 0 
z
" id="CMSS17-110"/>
      <path d="M 25.796875 21.140625 
C 28.59375 24.03125 32.796875 27.515625 35.703125 31 
C 38.5 34.390625 42.203125 39.171875 42.203125 46.140625 
C 42.203125 57.109375 34.796875 67 22.203125 67 
C 12.296875 67 6.59375 60.796875 3.90625 51.125 
L 7.796875 45.75 
C 10 54.8125 13.09375 60.59375 20.90625 60.59375 
C 29.5 60.59375 34.296875 53.609375 34.296875 45.9375 
C 34.296875 36.78125 27.296875 29.703125 22 24.421875 
C 16.09375 18.546875 10.296875 12.578125 4.703125 6.390625 
L 4.703125 0 
L 42.203125 0 
L 42.203125 6.796875 
L 25.203125 6.796875 
C 24 6.796875 22.796875 6.6875 21.59375 6.6875 
L 11.59375 6.6875 
L 11.59375 6.796875 
z
" id="CMSS17-50"/>
      <path d="M 26 19 
L 26 24.796875 
L 1 24.796875 
L 1 19 
z
" id="CMSS17-45"/>
      <path d="M 17.40625 66 
L 9 66 
L 9 57.59375 
L 17.40625 57.59375 
z
M -5.796875 -16.609375 
C -2.609375 -18.609375 1.296875 -20 5.5 -20 
C 11.796875 -20 17.40625 -14.609375 17.40625 -5.75 
L 17.40625 43 
L 10 43 
L 10 -6.640625 
C 10 -12.71875 5.40625 -13.609375 2.796875 -13.609375 
C 0.59375 -13.609375 -2 -12.90625 -4.296875 -10.53125 
z
" id="CMSS17-106"/>
      <path d="M 44.203125 21.1875 
C 44.203125 33.984375 34.703125 44 23.5 44 
C 12 44 2.703125 33.6875 2.703125 21.1875 
C 2.703125 8.5 12.296875 -1 23.40625 -1 
C 34.796875 -1 44.203125 8.796875 44.203125 21.1875 
z
M 23.5 5.296875 
C 16.40625 5.296875 10.296875 11.09375 10.296875 21.984375 
C 10.296875 33.59375 17.40625 37.890625 23.40625 37.890625 
C 29.90625 37.890625 36.59375 33.1875 36.59375 21.984375 
C 36.59375 10.6875 30.09375 5.296875 23.5 5.296875 
z
" id="CMSS17-111"/>
      <path d="M 15.296875 66 
L 6.90625 66 
L 6.90625 57.59375 
L 15.296875 57.59375 
z
M 14.796875 43 
L 7.40625 43 
L 7.40625 0 
L 14.796875 0 
z
" id="CMSS17-105"/>
      <path d="M 32.203125 40.984375 
C 26.296875 43.796875 21.703125 44 18.703125 44 
C 11.59375 44 3.09375 41.484375 3.09375 31.390625 
C 3.09375 21.296875 14.09375 19.09375 17.09375 18.484375 
C 21.703125 17.59375 26.796875 16.59375 26.796875 11.59375 
C 26.796875 5.296875 19.59375 5.296875 18.296875 5.296875 
C 14.296875 5.296875 8.796875 6.390625 3.796875 9.984375 
L 2.59375 3.296875 
C 8.296875 0 13.796875 -1 18.40625 -1 
C 30.703125 -1 33.796875 6.5 33.796875 12.1875 
C 33.796875 17.09375 31 20.390625 29.09375 21.890625 
C 25.796875 24.484375 24.59375 24.796875 16.40625 26.484375 
C 15 26.6875 10.09375 27.796875 10.09375 32.296875 
C 10.09375 37.984375 16.40625 37.984375 17.796875 37.984375 
C 24.296875 37.984375 28.296875 35.984375 31 34.484375 
z
" id="CMSS17-115"/>
     </defs>
     <use transform="scale(0.996264)" xlink:href="#CMSS17-110"/>
     <use transform="translate(79.434056 0)scale(0.996264)" xlink:href="#CMSS17-50"/>
     <use transform="translate(126.277679 0)scale(0.996264)" xlink:href="#CMSS17-45"/>
     <use transform="translate(157.506792 0)scale(0.996264)" xlink:href="#CMSS17-106"/>
     <use transform="translate(182.289878 0)scale(0.996264)" xlink:href="#CMSS17-111"/>
     <use transform="translate(229.133501 0)scale(0.996264)" xlink:href="#CMSS17-105"/>
     <use transform="translate(251.314224 0)scale(0.996264)" xlink:href="#CMSS17-110"/>
     <use transform="translate(299.519168 0)scale(0.996264)" xlink:href="#CMSS17-116"/>
     <use transform="translate(333.350734 0)scale(0.996264)" xlink:href="#CMSS17-115"/>
    </g>
   </g>
   <g id="patch_8">
    <path clip-path="url(#p30b517b204)" d="M 91.44 241.92 
L 117.36 241.92 
L 117.36 179.424 
L 91.44 179.424 
z
" style="fill:#8c6d31;"/>
   </g>
   <g id="patch_9">
    <path clip-path="url(#p30b517b204)" d="M 134.64 241.92 
L 160.56 241.92 
L 160.56 200.466 
L 134.64 200.466 
z
" style="fill:#637939;"/>
   </g>
   <g id="patch_10">
    <path clip-path="url(#p30b517b204)" d="M 177.84 241.92 
L 203.76 241.92 
L 203.76 204.288 
L 177.84 204.288 
z
" style="fill:#8ca252;"/>
   </g>
   <g id="patch_11">
    <path clip-path="url(#p30b517b204)" d="M 134.64 241.92 
L 134.64 213.6519 
L 160.56 208.0071 
L 160.56 241.92 
z
" style="fill:#e7cb94;stroke:#e7cb94;stroke-linejoin:miter;"/>
   </g>
   <g id="patch_12">
    <path clip-path="url(#p30b517b204)" d="M 134.64 241.92 
L 134.64 224.0154 
L 160.56 218.3706 
L 160.56 241.92 
z
" style="fill:#bd9e39;stroke:#bd9e39;stroke-linejoin:miter;"/>
   </g>
   <g id="patch_13">
    <path clip-path="url(#p30b517b204)" d="M 91.44 241.92 
L 91.44 213.4944 
L 117.36 207.8496 
L 117.36 241.92 
z
" style="fill:#e7ba52;stroke:#e7ba52;stroke-linejoin:miter;"/>
   </g>
   <g id="patch_14">
    <path clip-path="url(#p30b517b204)" d="M 134.64 241.92 
L 134.64 234.3789 
L 160.56 228.7341 
L 160.56 241.92 
z
" style="fill:#b5cf6b;stroke:#b5cf6b;stroke-linejoin:miter;"/>
   </g>
   <g id="patch_15">
    <path clip-path="url(#p30b517b204)" d="M 177.84 241.92 
L 177.84 225.9264 
L 203.76 220.2816 
L 203.76 241.92 
z
" style="fill:#cedb9c;stroke:#cedb9c;stroke-linejoin:miter;"/>
   </g>
   <g id="patch_16">
    <path d="M 92.674663 157.819536 
L 95.862823 157.819536 
L 95.862823 160.4232 
L 97.262503 160.4232 
L 97.262503 157.819536 
L 100.450663 157.819536 
L 100.450663 156.676464 
L 97.262503 156.676464 
L 97.262503 154.0728 
L 95.862823 154.0728 
L 95.862823 156.676464 
L 92.674663 156.676464 
z
" style="fill:#ffffff;opacity:0.8;stroke:#000000;stroke-linejoin:miter;stroke-width:0.9;"/>
   </g>
   <g id="patch_17">
    <path d="M 102.370375 129.595536 
L 105.558535 129.595536 
L 105.558535 132.1992 
L 106.958215 132.1992 
L 106.958215 129.595536 
L 110.146375 129.595536 
L 110.146375 128.452464 
L 106.958215 128.452464 
L 106.958215 125.8488 
L 105.558535 125.8488 
L 105.558535 128.452464 
L 102.370375 128.452464 
z
" style="fill:#ffffff;opacity:0.8;stroke:#000000;stroke-linejoin:miter;stroke-width:0.9;"/>
   </g>
   <g id="patch_18">
    <path d="M 94.818657 186.043536 
L 98.006817 186.043536 
L 98.006817 188.6472 
L 99.406497 188.6472 
L 99.406497 186.043536 
L 102.594657 186.043536 
L 102.594657 184.900464 
L 99.406497 184.900464 
L 99.406497 182.2968 
L 98.006817 182.2968 
L 98.006817 184.900464 
L 94.818657 184.900464 
z
" style="fill:#ffffff;opacity:0.8;stroke:#000000;stroke-linejoin:miter;stroke-width:0.9;"/>
   </g>
   <g id="patch_19">
    <path d="M 92.996092 157.819536 
L 96.184252 157.819536 
L 96.184252 160.4232 
L 97.583932 160.4232 
L 97.583932 157.819536 
L 100.772092 157.819536 
L 100.772092 156.676464 
L 97.583932 156.676464 
L 97.583932 154.0728 
L 96.184252 154.0728 
L 96.184252 156.676464 
L 92.996092 156.676464 
z
" style="fill:#ffffff;opacity:0.8;stroke:#000000;stroke-linejoin:miter;stroke-width:0.9;"/>
   </g>
   <g id="patch_20">
    <path d="M 108.268742 171.931536 
L 111.456902 171.931536 
L 111.456902 174.5352 
L 112.856582 174.5352 
L 112.856582 171.931536 
L 116.044742 171.931536 
L 116.044742 170.788464 
L 112.856582 170.788464 
L 112.856582 168.1848 
L 111.456902 168.1848 
L 111.456902 170.788464 
L 108.268742 170.788464 
z
" style="fill:#ffffff;opacity:0.8;stroke:#000000;stroke-linejoin:miter;stroke-width:0.9;"/>
   </g>
   <g id="patch_21">
    <path d="M 108.558122 214.267536 
L 111.746282 214.267536 
L 111.746282 216.8712 
L 113.145962 216.8712 
L 113.145962 214.267536 
L 116.334122 214.267536 
L 116.334122 213.124464 
L 113.145962 213.124464 
L 113.145962 210.5208 
L 111.746282 210.5208 
L 111.746282 213.124464 
L 108.558122 213.124464 
z
" style="fill:#ffffff;opacity:0.8;stroke:#000000;stroke-linejoin:miter;stroke-width:0.9;"/>
   </g>
   <g id="patch_22">
    <path d="M 105.841106 242.491536 
L 109.029266 242.491536 
L 109.029266 245.0952 
L 110.428946 245.0952 
L 110.428946 242.491536 
L 113.617106 242.491536 
L 113.617106 241.348464 
L 110.428946 241.348464 
L 110.428946 238.7448 
L 109.029266 238.7448 
L 109.029266 241.348464 
L 105.841106 241.348464 
z
" style="fill:#ffffff;opacity:0.8;stroke:#000000;stroke-linejoin:miter;stroke-width:0.9;"/>
   </g>
   <g id="patch_23">
    <path d="M 140.335726 115.483536 
L 143.523886 115.483536 
L 143.523886 118.0872 
L 144.923566 118.0872 
L 144.923566 115.483536 
L 148.111726 115.483536 
L 148.111726 114.340464 
L 144.923566 114.340464 
L 144.923566 111.7368 
L 143.523886 111.7368 
L 143.523886 114.340464 
L 140.335726 114.340464 
z
" style="fill:#ffffff;opacity:0.8;stroke:#000000;stroke-linejoin:miter;stroke-width:0.9;"/>
   </g>
   <g id="patch_24">
    <path d="M 136.759774 186.043536 
L 139.947934 186.043536 
L 139.947934 188.6472 
L 141.347614 188.6472 
L 141.347614 186.043536 
L 144.535774 186.043536 
L 144.535774 184.900464 
L 141.347614 184.900464 
L 141.347614 182.2968 
L 139.947934 182.2968 
L 139.947934 184.900464 
L 136.759774 184.900464 
z
" style="fill:#ffffff;opacity:0.8;stroke:#000000;stroke-linejoin:miter;stroke-width:0.9;"/>
   </g>
   <g id="patch_25">
    <path d="M 146.895547 214.267536 
L 150.083707 214.267536 
L 150.083707 216.8712 
L 151.483387 216.8712 
L 151.483387 214.267536 
L 154.671547 214.267536 
L 154.671547 213.124464 
L 151.483387 213.124464 
L 151.483387 210.5208 
L 150.083707 210.5208 
L 150.083707 213.124464 
L 146.895547 213.124464 
z
" style="fill:#ffffff;opacity:0.8;stroke:#000000;stroke-linejoin:miter;stroke-width:0.9;"/>
   </g>
   <g id="patch_26">
    <path d="M 142.677835 143.707536 
L 145.865995 143.707536 
L 145.865995 146.3112 
L 147.265675 146.3112 
L 147.265675 143.707536 
L 150.453835 143.707536 
L 150.453835 142.564464 
L 147.265675 142.564464 
L 147.265675 139.9608 
L 145.865995 139.9608 
L 145.865995 142.564464 
L 142.677835 142.564464 
z
" style="fill:#ffffff;opacity:0.8;stroke:#000000;stroke-linejoin:miter;stroke-width:0.9;"/>
   </g>
   <g id="patch_27">
    <path d="M 137.180821 115.483536 
L 140.368981 115.483536 
L 140.368981 118.0872 
L 141.768661 118.0872 
L 141.768661 115.483536 
L 144.956821 115.483536 
L 144.956821 114.340464 
L 141.768661 114.340464 
L 141.768661 111.7368 
L 140.368981 111.7368 
L 140.368981 114.340464 
L 137.180821 114.340464 
z
" style="fill:#ffffff;opacity:0.8;stroke:#000000;stroke-linejoin:miter;stroke-width:0.9;"/>
   </g>
   <g id="patch_28">
    <path d="M 143.628657 200.155536 
L 146.816817 200.155536 
L 146.816817 202.7592 
L 148.216497 202.7592 
L 148.216497 200.155536 
L 151.404657 200.155536 
L 151.404657 199.012464 
L 148.216497 199.012464 
L 148.216497 196.4088 
L 146.816817 196.4088 
L 146.816817 199.012464 
L 143.628657 199.012464 
z
" style="fill:#ffffff;opacity:0.8;stroke:#000000;stroke-linejoin:miter;stroke-width:0.9;"/>
   </g>
   <g id="patch_29">
    <path d="M 135.666234 200.155536 
L 138.854394 200.155536 
L 138.854394 202.7592 
L 140.254074 202.7592 
L 140.254074 200.155536 
L 143.442234 200.155536 
L 143.442234 199.012464 
L 140.254074 199.012464 
L 140.254074 196.4088 
L 138.854394 196.4088 
L 138.854394 199.012464 
L 135.666234 199.012464 
z
" style="fill:#ffffff;opacity:0.8;stroke:#000000;stroke-linejoin:miter;stroke-width:0.9;"/>
   </g>
   <g id="patch_30">
    <path d="M 150.785057 143.707536 
L 153.973217 143.707536 
L 153.973217 146.3112 
L 155.372897 146.3112 
L 155.372897 143.707536 
L 158.561057 143.707536 
L 158.561057 142.564464 
L 155.372897 142.564464 
L 155.372897 139.9608 
L 153.973217 139.9608 
L 153.973217 142.564464 
L 150.785057 142.564464 
z
" style="fill:#ffffff;opacity:0.8;stroke:#000000;stroke-linejoin:miter;stroke-width:0.9;"/>
   </g>
   <g id="patch_31">
    <path d="M 139.543718 242.491536 
L 142.731878 242.491536 
L 142.731878 245.0952 
L 144.131558 245.0952 
L 144.131558 242.491536 
L 147.319718 242.491536 
L 147.319718 241.348464 
L 144.131558 241.348464 
L 144.131558 238.7448 
L 142.731878 238.7448 
L 142.731878 241.348464 
L 139.543718 241.348464 
z
" style="fill:#ffffff;opacity:0.8;stroke:#000000;stroke-linejoin:miter;stroke-width:0.9;"/>
   </g>
   <g id="patch_32">
    <path d="M 146.520385 242.491536 
L 149.708545 242.491536 
L 149.708545 245.0952 
L 151.108225 245.0952 
L 151.108225 242.491536 
L 154.296385 242.491536 
L 154.296385 241.348464 
L 151.108225 241.348464 
L 151.108225 238.7448 
L 149.708545 238.7448 
L 149.708545 241.348464 
L 146.520385 241.348464 
z
" style="fill:#ffffff;opacity:0.8;stroke:#000000;stroke-linejoin:miter;stroke-width:0.9;"/>
   </g>
   <g id="patch_33">
    <path d="M 140.458367 242.491536 
L 143.646527 242.491536 
L 143.646527 245.0952 
L 145.046207 245.0952 
L 145.046207 242.491536 
L 148.234367 242.491536 
L 148.234367 241.348464 
L 145.046207 241.348464 
L 145.046207 238.7448 
L 143.646527 238.7448 
L 143.646527 241.348464 
L 140.458367 241.348464 
z
" style="fill:#ffffff;opacity:0.8;stroke:#000000;stroke-linejoin:miter;stroke-width:0.9;"/>
   </g>
   <g id="patch_34">
    <path d="M 144.058775 242.491536 
L 147.246935 242.491536 
L 147.246935 245.0952 
L 148.646615 245.0952 
L 148.646615 242.491536 
L 151.834775 242.491536 
L 151.834775 241.348464 
L 148.646615 241.348464 
L 148.646615 238.7448 
L 147.246935 238.7448 
L 147.246935 241.348464 
L 144.058775 241.348464 
z
" style="fill:#ffffff;opacity:0.8;stroke:#000000;stroke-linejoin:miter;stroke-width:0.9;"/>
   </g>
   <g id="patch_35">
    <path d="M 144.519154 200.155536 
L 147.707314 200.155536 
L 147.707314 202.7592 
L 149.106994 202.7592 
L 149.106994 200.155536 
L 152.295154 200.155536 
L 152.295154 199.012464 
L 149.106994 199.012464 
L 149.106994 196.4088 
L 147.707314 196.4088 
L 147.707314 199.012464 
L 144.519154 199.012464 
z
" style="fill:#ffffff;opacity:0.8;stroke:#000000;stroke-linejoin:miter;stroke-width:0.9;"/>
   </g>
   <g id="patch_36">
    <path d="M 138.266285 242.491536 
L 141.454445 242.491536 
L 141.454445 245.0952 
L 142.854125 245.0952 
L 142.854125 242.491536 
L 146.042285 242.491536 
L 146.042285 241.348464 
L 142.854125 241.348464 
L 142.854125 238.7448 
L 141.454445 238.7448 
L 141.454445 241.348464 
L 138.266285 241.348464 
z
" style="fill:#ffffff;opacity:0.8;stroke:#000000;stroke-linejoin:miter;stroke-width:0.9;"/>
   </g>
   <g id="patch_37">
    <path d="M 151.826422 242.491536 
L 155.014582 242.491536 
L 155.014582 245.0952 
L 156.414262 245.0952 
L 156.414262 242.491536 
L 159.602422 242.491536 
L 159.602422 241.348464 
L 156.414262 241.348464 
L 156.414262 238.7448 
L 155.014582 238.7448 
L 155.014582 241.348464 
L 151.826422 241.348464 
z
" style="fill:#ffffff;opacity:0.8;stroke:#000000;stroke-linejoin:miter;stroke-width:0.9;"/>
   </g>
   <g id="patch_38">
    <path d="M 148.466295 242.491536 
L 151.654455 242.491536 
L 151.654455 245.0952 
L 153.054135 245.0952 
L 153.054135 242.491536 
L 156.242295 242.491536 
L 156.242295 241.348464 
L 153.054135 241.348464 
L 153.054135 238.7448 
L 151.654455 238.7448 
L 151.654455 241.348464 
L 148.466295 241.348464 
z
" style="fill:#ffffff;opacity:0.8;stroke:#000000;stroke-linejoin:miter;stroke-width:0.9;"/>
   </g>
   <g id="patch_39">
    <path d="M 194.506542 101.371536 
L 197.694702 101.371536 
L 197.694702 103.9752 
L 199.094382 103.9752 
L 199.094382 101.371536 
L 202.282542 101.371536 
L 202.282542 100.228464 
L 199.094382 100.228464 
L 199.094382 97.6248 
L 197.694702 97.6248 
L 197.694702 100.228464 
L 194.506542 100.228464 
z
" style="fill:#ffffff;opacity:0.8;stroke:#000000;stroke-linejoin:miter;stroke-width:0.9;"/>
   </g>
   <g id="patch_40">
    <path d="M 193.734617 186.043536 
L 196.922777 186.043536 
L 196.922777 188.6472 
L 198.322457 188.6472 
L 198.322457 186.043536 
L 201.510617 186.043536 
L 201.510617 184.900464 
L 198.322457 184.900464 
L 198.322457 182.2968 
L 196.922777 182.2968 
L 196.922777 184.900464 
L 193.734617 184.900464 
z
" style="fill:#ffffff;opacity:0.8;stroke:#000000;stroke-linejoin:miter;stroke-width:0.9;"/>
   </g>
   <g id="patch_41">
    <path d="M 188.603712 228.379536 
L 191.791872 228.379536 
L 191.791872 230.9832 
L 193.191552 230.9832 
L 193.191552 228.379536 
L 196.379712 228.379536 
L 196.379712 227.236464 
L 193.191552 227.236464 
L 193.191552 224.6328 
L 191.791872 224.6328 
L 191.791872 227.236464 
L 188.603712 227.236464 
z
" style="fill:#ffffff;opacity:0.8;stroke:#000000;stroke-linejoin:miter;stroke-width:0.9;"/>
   </g>
   <g id="patch_42">
    <path d="M 194.201987 242.491536 
L 197.390147 242.491536 
L 197.390147 245.0952 
L 198.789827 245.0952 
L 198.789827 242.491536 
L 201.977987 242.491536 
L 201.977987 241.348464 
L 198.789827 241.348464 
L 198.789827 238.7448 
L 197.390147 238.7448 
L 197.390147 241.348464 
L 194.201987 241.348464 
z
" style="fill:#ffffff;opacity:0.8;stroke:#000000;stroke-linejoin:miter;stroke-width:0.9;"/>
   </g>
   <g id="patch_43">
    <path d="M 179.80115 242.491536 
L 182.98931 242.491536 
L 182.98931 245.0952 
L 184.38899 245.0952 
L 184.38899 242.491536 
L 187.57715 242.491536 
L 187.57715 241.348464 
L 184.38899 241.348464 
L 184.38899 238.7448 
L 182.98931 238.7448 
L 182.98931 241.348464 
L 179.80115 241.348464 
z
" style="fill:#ffffff;opacity:0.8;stroke:#000000;stroke-linejoin:miter;stroke-width:0.9;"/>
   </g>
   <g id="patch_44">
    <path d="M 181.658584 228.379536 
L 184.846744 228.379536 
L 184.846744 230.9832 
L 186.246424 230.9832 
L 186.246424 228.379536 
L 189.434584 228.379536 
L 189.434584 227.236464 
L 186.246424 227.236464 
L 186.246424 224.6328 
L 184.846744 224.6328 
L 184.846744 227.236464 
L 181.658584 227.236464 
z
" style="fill:#ffffff;opacity:0.8;stroke:#000000;stroke-linejoin:miter;stroke-width:0.9;"/>
   </g>
  </g>
 </g>
 <defs>
  <clipPath id="p30b517b204">
   <rect height="211.68" width="151.2" x="72" y="30.24"/>
  </clipPath>
 </defs>
</svg>
