<?xml version="1.0" encoding="utf-8" standalone="no"?>
<!DOCTYPE svg PUBLIC "-//W3C//DTD SVG 1.1//EN"
  "http://www.w3.org/Graphics/SVG/1.1/DTD/svg11.dtd">
<!-- Created with matplotlib (https://matplotlib.org/) -->
<svg height="302.4pt" version="1.1" viewBox="0 0 252 302.4" width="252pt" xmlns="http://www.w3.org/2000/svg" xmlns:xlink="http://www.w3.org/1999/xlink">
 <metadata>
  <rdf:RDF xmlns:cc="http://creativecommons.org/ns#" xmlns:dc="http://purl.org/dc/elements/1.1/" xmlns:rdf="http://www.w3.org/1999/02/22-rdf-syntax-ns#">
   <cc:Work>
    <dc:type rdf:resource="http://purl.org/dc/dcmitype/StillImage"/>
    <dc:date>2021-11-21T08:36:57.411385</dc:date>
    <dc:format>image/svg+xml</dc:format>
    <dc:creator>
     <cc:Agent>
      <dc:title>Matplotlib v3.3.4, https://matplotlib.org/</dc:title>
     </cc:Agent>
    </dc:creator>
   </cc:Work>
  </rdf:RDF>
 </metadata>
 <defs>
  <style type="text/css">*{stroke-linecap:butt;stroke-linejoin:round;}</style>
 </defs>
 <g id="figure_1">
  <g id="patch_1">
   <path d="M 0 302.4 
L 252 302.4 
L 252 0 
L 0 0 
z
" style="fill:#ffffff;"/>
  </g>
  <g id="axes_1">
   <g id="patch_2">
    <path d="M 72 241.92 
L 180 241.92 
L 180 30.24 
L 72 30.24 
z
" style="fill:#ffffff;"/>
   </g>
   <g id="patch_3">
    <path clip-path="url(#p845c009b80)" d="M 61.2 224.28 
L 180 224.28 
L 180 12.6 
L 61.2 12.6 
z
" style="fill:#01ff6b;opacity:0.1;stroke:#01ff6b;stroke-linejoin:miter;"/>
   </g>
   <g id="patch_4">
    <path clip-path="url(#p845c009b80)" d="M 61.2 224.28 
L 180 224.28 
L 180 241.92 
L 61.2 241.92 
z
" style="fill:#c22121;opacity:0.1;stroke:#c22121;stroke-linejoin:miter;"/>
   </g>
   <g id="matplotlib.axis_1">
    <g id="xtick_1">
     <g id="line2d_1">
      <defs>
       <path d="M 0 0 
L 0 3.5 
" id="m1dc73bf2e5" style="stroke:#000000;stroke-width:0.8;"/>
      </defs>
      <g>
       <use style="stroke:#000000;stroke-width:0.8;" x="104.4" xlink:href="#m1dc73bf2e5" y="241.92"/>
      </g>
     </g>
     <g id="text_1">
      <!-- tl13 -->
      <g transform="translate(82.879935 276.779445)rotate(-45)scale(0.18 -0.18)">
       <defs>
        <path d="M 16.703125 37.1875 
L 29.703125 37.1875 
L 29.703125 43 
L 16.703125 43 
L 16.703125 55 
L 9.59375 55 
L 9.59375 43 
L 1.703125 43 
L 1.703125 37.1875 
L 9.40625 37.1875 
L 9.40625 11.734375 
C 9.40625 6 10.703125 -1 17.296875 -1 
C 22.296875 -1 26.90625 0.390625 31.296875 2.6875 
L 29.703125 8.609375 
C 27.296875 6.5 24.40625 5.296875 21.296875 5.296875 
C 16.90625 5.296875 16.703125 10.921875 16.703125 13.4375 
z
" id="CMSS17-116"/>
        <path d="M 14.796875 69 
L 7.40625 69 
L 7.40625 0 
L 14.796875 0 
z
" id="CMSS17-108"/>
        <path d="M 28.40625 67 
L 26.5 67 
C 21.09375 61.703125 14.796875 60.96875 8.40625 60.796875 
L 8.40625 55 
C 11.296875 55.09375 16 55.296875 20.703125 57.390625 
L 20.703125 5.796875 
L 8.90625 5.796875 
L 8.90625 0 
L 40.203125 0 
L 40.203125 5.796875 
L 28.40625 5.796875 
z
" id="CMSS17-49"/>
        <path d="M 15.703125 32.1875 
L 22.5 32.1875 
C 31.90625 32.1875 34.59375 23.9375 34.59375 18.1875 
C 34.59375 10.34375 30.203125 4.1875 23 4.1875 
C 17.40625 4.1875 9.5 7.015625 5 14.46875 
C 4.296875 10.9375 4.296875 10.734375 3.90625 8.328125 
C 8.59375 1.390625 16.203125 -2 23.203125 -2 
C 34.59375 -2 43 7.515625 43 18.09375 
C 43 26.046875 37.5 32.6875 30 35.1875 
C 36 38.484375 40.40625 44.6875 40.40625 51.890625 
C 40.40625 60.296875 32.703125 67 23.296875 67 
C 14.703125 67 8 61.6875 5.203125 55.984375 
C 5.90625 54.984375 7.703125 52.09375 8.59375 50.59375 
C 10.796875 56.484375 16.5 60.890625 23.203125 60.890625 
C 28.796875 60.890625 32.5 57.1875 32.5 51.890625 
C 32.5 46.390625 29 40.390625 23.09375 39 
C 22.703125 39 16.5 38.390625 15.703125 38.296875 
z
" id="CMSS17-51"/>
       </defs>
       <use transform="scale(0.996264)" xlink:href="#CMSS17-116"/>
       <use transform="translate(33.831567 0)scale(0.996264)" xlink:href="#CMSS17-108"/>
       <use transform="translate(56.01229 0)scale(0.996264)" xlink:href="#CMSS17-49"/>
       <use transform="translate(102.855913 0)scale(0.996264)" xlink:href="#CMSS17-51"/>
      </g>
     </g>
    </g>
    <g id="xtick_2">
     <g id="line2d_2">
      <g>
       <use style="stroke:#000000;stroke-width:0.8;" x="147.6" xlink:href="#m1dc73bf2e5" y="241.92"/>
      </g>
     </g>
     <g id="text_2">
      <!-- tl14 -->
      <g transform="translate(126.079935 276.779445)rotate(-45)scale(0.18 -0.18)">
       <defs>
        <path d="M 35.203125 17 
L 44.296875 17 
L 44.296875 23.09375 
L 35.203125 23.09375 
L 35.203125 66 
L 26.40625 66 
L 2.59375 23.09375 
L 2.59375 17 
L 27.296875 17 
L 27.296875 0 
L 35.203125 0 
z
M 10.296875 23.09375 
C 16.09375 33.421875 27.59375 54.28125 27.59375 61.359375 
L 27.59375 23.09375 
z
" id="CMSS17-52"/>
       </defs>
       <use transform="scale(0.996264)" xlink:href="#CMSS17-116"/>
       <use transform="translate(33.831567 0)scale(0.996264)" xlink:href="#CMSS17-108"/>
       <use transform="translate(56.01229 0)scale(0.996264)" xlink:href="#CMSS17-49"/>
       <use transform="translate(102.855913 0)scale(0.996264)" xlink:href="#CMSS17-52"/>
      </g>
     </g>
    </g>
   </g>
   <g id="matplotlib.axis_2">
    <g id="ytick_1">
     <g id="line2d_3">
      <path clip-path="url(#p845c009b80)" d="M 72 241.92 
L 180 241.92 
" style="fill:none;stroke:#b0b0b0;stroke-linecap:square;stroke-opacity:0.6;stroke-width:0.7;"/>
     </g>
     <g id="line2d_4">
      <defs>
       <path d="M 0 0 
L -3.5 0 
" id="m8a1af51f40" style="stroke:#000000;stroke-width:0.8;"/>
      </defs>
      <g>
       <use style="stroke:#000000;stroke-width:0.8;" x="72" xlink:href="#m8a1af51f40" y="241.92"/>
      </g>
     </g>
     <g id="text_3">
      <!-- $\mathdefault{0}$ -->
      <g transform="translate(57.927644 246.935904)scale(0.145 -0.145)">
       <defs>
        <path d="M 42 31.84375 
C 42 37.96875 41.90625 48.421875 37.703125 56.453125 
C 34 63.484375 28.09375 66 22.90625 66 
C 18.09375 66 12 63.78125 8.203125 56.5625 
C 4.203125 49.015625 3.796875 39.671875 3.796875 31.84375 
C 3.796875 26.109375 3.90625 17.375 7 9.734375 
C 11.296875 -0.609375 19 -2 22.90625 -2 
C 27.5 -2 34.5 -0.109375 38.59375 9.4375 
C 41.59375 16.375 42 24.5 42 31.84375 
z
M 22.90625 -0.40625 
C 16.5 -0.40625 12.703125 5.125 11.296875 12.75 
C 10.203125 18.6875 10.203125 27.328125 10.203125 32.953125 
C 10.203125 40.6875 10.203125 47.109375 11.5 53.234375 
C 13.40625 61.78125 19 64.390625 22.90625 64.390625 
C 27 64.390625 32.296875 61.671875 34.203125 53.4375 
C 35.5 47.71875 35.59375 40.984375 35.59375 32.953125 
C 35.59375 26.421875 35.59375 18.375 34.40625 12.453125 
C 32.296875 1.5 26.40625 -0.40625 22.90625 -0.40625 
z
" id="CMR17-48"/>
       </defs>
       <use transform="scale(0.996264)" xlink:href="#CMR17-48"/>
      </g>
     </g>
    </g>
    <g id="ytick_2">
     <g id="line2d_5">
      <path clip-path="url(#p845c009b80)" d="M 72 224.28 
L 180 224.28 
" style="fill:none;stroke:#b0b0b0;stroke-linecap:square;stroke-opacity:0.6;stroke-width:0.7;"/>
     </g>
     <g id="line2d_6">
      <g>
       <use style="stroke:#000000;stroke-width:0.8;" x="72" xlink:href="#m8a1af51f40" y="224.28"/>
      </g>
     </g>
     <g id="text_4">
      <!-- $\mathdefault{1}$ -->
      <g transform="translate(57.927644 229.295904)scale(0.145 -0.145)">
       <defs>
        <path d="M 26.59375 63.796875 
C 26.59375 65.890625 26.5 66 25.09375 66 
C 21.203125 61.359375 15.296875 59.890625 9.703125 59.6875 
C 9.40625 59.6875 8.90625 59.6875 8.796875 59.5 
C 8.703125 59.296875 8.703125 59.09375 8.703125 57 
C 11.796875 57 17 57.59375 21 59.984375 
L 21 7.296875 
C 21 3.796875 20.796875 2.59375 12.203125 2.59375 
L 9.203125 2.59375 
L 9.203125 0 
C 14 0.09375 19 0.1875 23.796875 0.1875 
C 28.59375 0.1875 33.59375 0.09375 38.40625 0 
L 38.40625 2.59375 
L 35.40625 2.59375 
C 26.796875 2.59375 26.59375 3.6875 26.59375 7.296875 
z
" id="CMR17-49"/>
       </defs>
       <use transform="scale(0.996264)" xlink:href="#CMR17-49"/>
      </g>
     </g>
    </g>
    <g id="ytick_3">
     <g id="line2d_7">
      <path clip-path="url(#p845c009b80)" d="M 72 171.36 
L 180 171.36 
" style="fill:none;stroke:#b0b0b0;stroke-linecap:square;stroke-opacity:0.6;stroke-width:0.7;"/>
     </g>
     <g id="line2d_8">
      <g>
       <use style="stroke:#000000;stroke-width:0.8;" x="72" xlink:href="#m8a1af51f40" y="171.36"/>
      </g>
     </g>
     <g id="text_5">
      <!-- $\mathdefault{4}$ -->
      <g transform="translate(57.927644 176.375904)scale(0.145 -0.145)">
       <defs>
        <path d="M 33.59375 64.796875 
C 33.59375 66.890625 33.5 67 31.703125 67 
L 2 19.59375 
L 2 17 
L 27.796875 17 
L 27.796875 7.1875 
C 27.796875 3.59375 27.59375 2.59375 20.59375 2.59375 
L 18.703125 2.59375 
L 18.703125 0 
C 21.90625 0.1875 27.296875 0.1875 30.703125 0.1875 
C 34.09375 0.1875 39.5 0.1875 42.703125 0 
L 42.703125 2.59375 
L 40.796875 2.59375 
C 33.796875 2.59375 33.59375 3.59375 33.59375 7.1875 
L 33.59375 17 
L 43.796875 17 
L 43.796875 19.59375 
L 33.59375 19.59375 
z
M 28.09375 58.171875 
L 28.09375 19.59375 
L 4 19.59375 
z
" id="CMR17-52"/>
       </defs>
       <use transform="scale(0.996264)" xlink:href="#CMR17-52"/>
      </g>
     </g>
    </g>
    <g id="ytick_4">
     <g id="line2d_9">
      <path clip-path="url(#p845c009b80)" d="M 72 100.8 
L 180 100.8 
" style="fill:none;stroke:#b0b0b0;stroke-linecap:square;stroke-opacity:0.6;stroke-width:0.7;"/>
     </g>
     <g id="line2d_10">
      <g>
       <use style="stroke:#000000;stroke-width:0.8;" x="72" xlink:href="#m8a1af51f40" y="100.8"/>
      </g>
     </g>
     <g id="text_6">
      <!-- $\mathdefault{8}$ -->
      <g transform="translate(57.927644 105.815904)scale(0.145 -0.145)">
       <defs>
        <path d="M 27.203125 35.765625 
C 33.5 38.96875 39.90625 43.796875 39.90625 51.53125 
C 39.90625 60.6875 31.09375 66 23 66 
C 13.90625 66 5.90625 59.375 5.90625 50.234375 
C 5.90625 47.71875 6.5 43.390625 10.40625 39.578125 
C 11.40625 38.578125 15.59375 35.5625 18.296875 33.65625 
C 13.796875 31.34375 3.296875 25.8125 3.296875 14.765625 
C 3.296875 4.40625 13.09375 -2 22.796875 -2 
C 33.5 -2 42.5 5.71875 42.5 15.96875 
C 42.5 25.109375 36.40625 29.328125 32.40625 32.046875 
z
M 14.09375 44.609375 
C 13.296875 45.109375 9.296875 48.21875 9.296875 52.9375 
C 9.296875 59.078125 15.59375 63.6875 22.796875 63.6875 
C 30.703125 63.6875 36.5 58.0625 36.5 51.53125 
C 36.5 42.1875 26.09375 36.859375 25.59375 36.859375 
C 25.5 36.859375 25.40625 36.859375 24.59375 37.46875 
z
M 32.5 24 
C 34 22.90625 38.796875 19.578125 38.796875 13.453125 
C 38.796875 6.015625 31.40625 0.390625 23 0.390625 
C 13.90625 0.390625 7 6.921875 7 14.859375 
C 7 22.796875 13.09375 29.4375 20 32.546875 
z
" id="CMR17-56"/>
       </defs>
       <use transform="scale(0.996264)" xlink:href="#CMR17-56"/>
      </g>
     </g>
    </g>
    <g id="text_7">
     <!-- directionality ratio -->
     <g transform="translate(50.43958 200.075635)rotate(-90)scale(0.18 -0.18)">
      <defs>
       <path d="M 40.796875 69 
L 33.40625 69 
L 33.40625 38.984375 
C 30.296875 41.59375 25.203125 44 19.59375 44 
C 10.5 44 3.296875 34.046875 3.296875 21.484375 
C 3.296875 8.9375 10.40625 -1 19.296875 -1 
C 26.203125 -1 30.796875 2.6875 33.203125 4.796875 
L 33.203125 -0.203125 
L 40.796875 -0.203125 
z
M 33.203125 13.296875 
C 33.203125 11.875 33.203125 10.359375 30.09375 7.625 
C 28.09375 5.90625 25.703125 5.09375 23.40625 5.09375 
C 18 5.09375 10.90625 9.140625 10.90625 21.390625 
C 10.90625 34.140625 18.90625 37.890625 24.40625 37.890625 
C 28.09375 37.890625 31.09375 36.0625 33.203125 33.03125 
z
" id="CMSS17-100"/>
       <path d="M 15.296875 66 
L 6.90625 66 
L 6.90625 57.59375 
L 15.296875 57.59375 
z
M 14.796875 43 
L 7.40625 43 
L 7.40625 0 
L 14.796875 0 
z
" id="CMSS17-105"/>
       <path d="M 14.90625 21.390625 
C 14.90625 30.84375 21.796875 37.171875 30.59375 37.375 
L 30.59375 44 
C 24.203125 43.890625 18.203125 40.6875 14.59375 35.46875 
L 14.59375 43.484375 
L 7.5 43.484375 
L 7.5 0 
L 14.90625 0 
z
" id="CMSS17-114"/>
       <path d="M 39.09375 21.484375 
C 39.09375 24.796875 38.90625 31.265625 35.703125 36.671875 
C 32.203125 42.390625 26.5 44 22.203125 44 
C 11.796875 44 3 34.125 3 21.296875 
C 3 9.046875 12.09375 -1 23.59375 -1 
C 28.09375 -1 33.59375 0.296875 38.59375 3.890625 
C 38.59375 4.296875 38.40625 6.46875 38.296875 6.578125 
C 38.296875 6.765625 38 9.828125 38 10.234375 
C 33.203125 6.375 27.703125 5.09375 23.703125 5.09375 
C 17.296875 5.09375 10.40625 10.421875 10.09375 21.484375 
z
M 10.90625 27 
C 12.203125 32.59375 16.59375 37.890625 22.203125 37.890625 
C 23.703125 37.890625 30.703125 37.6875 32.5 27 
z
" id="CMSS17-101"/>
       <path d="M 38.5 39.6875 
C 38.5 40.390625 33.90625 42.390625 32.703125 42.796875 
C 29.40625 44 25.203125 44 24.09375 44 
C 11.09375 44 3.296875 32.6875 3.296875 21.296875 
C 3.296875 9.296875 12 -1 23.703125 -1 
C 30.40625 -1 35.203125 1.1875 39.09375 3.796875 
L 38.5 10.390625 
C 34.203125 7.09375 29.203125 5.296875 23.796875 5.296875 
C 16 5.296875 10.90625 12.09375 10.90625 21.390625 
C 10.90625 28.59375 14.203125 37.6875 24.203125 37.6875 
C 29.703125 37.6875 32.796875 36.59375 37.40625 33.484375 
z
" id="CMSS17-99"/>
       <path d="M 44.203125 21.1875 
C 44.203125 33.984375 34.703125 44 23.5 44 
C 12 44 2.703125 33.6875 2.703125 21.1875 
C 2.703125 8.5 12.296875 -1 23.40625 -1 
C 34.796875 -1 44.203125 8.796875 44.203125 21.1875 
z
M 23.5 5.296875 
C 16.40625 5.296875 10.296875 11.09375 10.296875 21.984375 
C 10.296875 33.59375 17.40625 37.890625 23.40625 37.890625 
C 29.90625 37.890625 36.59375 33.1875 36.59375 21.984375 
C 36.59375 10.6875 30.09375 5.296875 23.5 5.296875 
z
" id="CMSS17-111"/>
       <path d="M 40.90625 29.34375 
C 40.90625 35.671875 39.40625 44 28.09375 44 
C 21.703125 44 17.5 40.6875 14.703125 37.28125 
L 14.703125 43.484375 
L 7.40625 43.484375 
L 7.40625 0 
L 15 0 
L 15 24.3125 
C 15 30.65625 17.40625 37.890625 24.203125 37.890625 
C 33 37.890625 33.296875 31.953125 33.296875 28.53125 
L 33.296875 0 
L 40.90625 0 
z
" id="CMSS17-110"/>
       <path d="M 37.59375 27.953125 
C 37.59375 37.484375 30.90625 44 21.90625 44 
C 17.5 44 12.703125 43.1875 7.203125 39.984375 
L 7.796875 33.328125 
C 10.296875 35.15625 14.59375 38.09375 21.796875 38.09375 
C 26.90625 38.09375 30 34.140625 30 27.84375 
L 30 24 
C 14 23.5 4 18.890625 4 11.109375 
C 4 7.0625 6.5 -1 14.796875 -1 
C 16.296875 -1 24.40625 -0.8125 30.203125 3.5 
L 30.203125 -0.203125 
L 37.59375 -0.203125 
z
M 30 12.875 
C 30 11.109375 30 8.734375 27 6.96875 
C 24.40625 5.296875 21.09375 5.09375 19.703125 5.09375 
C 14.703125 5.09375 11.296875 7.859375 11.296875 11.296875 
C 11.296875 18.203125 26.90625 18.890625 30 19 
z
" id="CMSS17-97"/>
       <path d="M 41.796875 43 
L 34 43 
C 25.5 20.203125 22.59375 10.953125 22.40625 5.984375 
L 22.296875 5.984375 
C 22 10.859375 17.59375 22.796875 14.09375 31.34375 
L 9.40625 43 
L 1.296875 43 
L 19 0.21875 
C 17.90625 -2.765625 16.296875 -7.25 15.796875 -8.234375 
C 13.59375 -13.8125 12.09375 -13.8125 10.5 -13.8125 
C 10.09375 -13.8125 6.90625 -13.703125 3.296875 -12.609375 
L 3.90625 -19.203125 
C 6.40625 -19.703125 8.90625 -20 10.703125 -20 
C 13.203125 -20 18.203125 -20 22.796875 -7.734375 
z
" id="CMSS17-121"/>
      </defs>
      <use transform="scale(0.996264)" xlink:href="#CMSS17-100"/>
      <use transform="translate(48.204943 0)scale(0.996264)" xlink:href="#CMSS17-105"/>
      <use transform="translate(70.385666 0)scale(0.996264)" xlink:href="#CMSS17-114"/>
      <use transform="translate(102.295439 0)scale(0.996264)" xlink:href="#CMSS17-101"/>
      <use transform="translate(143.934261 0)scale(0.996264)" xlink:href="#CMSS17-99"/>
      <use transform="translate(185.573083 0)scale(0.996264)" xlink:href="#CMSS17-116"/>
      <use transform="translate(219.40465 0)scale(0.996264)" xlink:href="#CMSS17-105"/>
      <use transform="translate(241.585373 0)scale(0.996264)" xlink:href="#CMSS17-111"/>
      <use transform="translate(288.428996 0)scale(0.996264)" xlink:href="#CMSS17-110"/>
      <use transform="translate(336.633939 0)scale(0.996264)" xlink:href="#CMSS17-97"/>
      <use transform="translate(381.55586 0)scale(0.996264)" xlink:href="#CMSS17-108"/>
      <use transform="translate(403.736583 0)scale(0.996264)" xlink:href="#CMSS17-105"/>
      <use transform="translate(425.917306 0)scale(0.996264)" xlink:href="#CMSS17-116"/>
      <use transform="translate(457.146419 0)scale(0.996264)" xlink:href="#CMSS17-121"/>
      <use transform="translate(531.375673 0)scale(0.996264)" xlink:href="#CMSS17-114"/>
      <use transform="translate(563.285446 0)scale(0.996264)" xlink:href="#CMSS17-97"/>
      <use transform="translate(608.207366 0)scale(0.996264)" xlink:href="#CMSS17-116"/>
      <use transform="translate(642.038933 0)scale(0.996264)" xlink:href="#CMSS17-105"/>
      <use transform="translate(664.219656 0)scale(0.996264)" xlink:href="#CMSS17-111"/>
     </g>
    </g>
   </g>
   <g id="patch_5">
    <path d="M 72 241.92 
L 72 30.24 
" style="fill:none;stroke:#000000;stroke-linecap:square;stroke-linejoin:miter;stroke-width:0.8;"/>
   </g>
   <g id="patch_6">
    <path d="M 180 241.92 
L 180 30.24 
" style="fill:none;stroke:#000000;stroke-linecap:square;stroke-linejoin:miter;stroke-width:0.8;"/>
   </g>
   <g id="patch_7">
    <path d="M 72 241.92 
L 180 241.92 
" style="fill:none;stroke:#000000;stroke-linecap:square;stroke-linejoin:miter;stroke-width:0.8;"/>
   </g>
   <g id="patch_8">
    <path d="M 72 30.24 
L 180 30.24 
" style="fill:none;stroke:#000000;stroke-linecap:square;stroke-linejoin:miter;stroke-width:0.8;"/>
   </g>
   <g id="LineCollection_1">
    <path clip-path="url(#p845c009b80)" d="M 72 212.6376 
L 180 212.6376 
" style="fill:none;stroke:#729c27;stroke-opacity:0.5;stroke-width:0.5;"/>
    <path clip-path="url(#p845c009b80)" d="M 72 218.4588 
L 180 218.4588 
" style="fill:none;stroke:#729c27;stroke-opacity:0.5;stroke-width:0.5;"/>
    <path clip-path="url(#p845c009b80)" d="M 72 236.0988 
L 180 236.0988 
" style="fill:none;stroke:#729c27;stroke-opacity:0.5;stroke-width:0.5;"/>
    <path clip-path="url(#p845c009b80)" d="M 72 230.2776 
L 180 230.2776 
" style="fill:none;stroke:#729c27;stroke-opacity:0.5;stroke-width:0.5;"/>
   </g>
   <g id="text_8">
    <!-- timelapse -->
    <g transform="translate(93.1734 24.24)scale(0.18 -0.18)">
     <defs>
      <path d="M 67 29.34375 
C 67 36.078125 65.296875 44 54.09375 44 
C 46.59375 44 42.09375 39.296875 40.09375 36.375 
C 38.296875 41.6875 34.09375 44 28.09375 44 
C 21.296875 44 17 40.09375 14.703125 37.28125 
L 14.703125 43.484375 
L 7.40625 43.484375 
L 7.40625 0 
L 15 0 
L 15 24.3125 
C 15 30.25 17.203125 37.890625 24.296875 37.890625 
C 33.40625 37.890625 33.40625 31.453125 33.40625 28.53125 
L 33.40625 0 
L 41 0 
L 41 24.3125 
C 41 30.25 43.203125 37.890625 50.296875 37.890625 
C 59.40625 37.890625 59.40625 31.453125 59.40625 28.53125 
L 59.40625 0 
L 67 0 
z
" id="CMSS17-109"/>
      <path d="M 15.09375 4.296875 
C 18.40625 1.09375 22.90625 -1 27.703125 -1 
C 37 -1 45 8.640625 45 21.59375 
C 45 33.546875 39 44 30.40625 44 
C 25.40625 44 19.40625 42.1875 14.90625 38.59375 
L 14.90625 43.1875 
L 7.5 43.1875 
L 7.5 -20 
L 15.09375 -20 
z
M 15.09375 32.625 
C 15.90625 33.84375 19.296875 37.6875 24.796875 37.6875 
C 31.796875 37.6875 37.40625 30.40625 37.40625 21.59375 
C 37.40625 11.578125 30.59375 5.09375 23.90625 5.09375 
C 21.90625 5.09375 19.796875 5.59375 17.796875 7.3125 
C 15.09375 9.75 15.09375 11.265625 15.09375 12.6875 
z
" id="CMSS17-112"/>
      <path d="M 32.203125 40.984375 
C 26.296875 43.796875 21.703125 44 18.703125 44 
C 11.59375 44 3.09375 41.484375 3.09375 31.390625 
C 3.09375 21.296875 14.09375 19.09375 17.09375 18.484375 
C 21.703125 17.59375 26.796875 16.59375 26.796875 11.59375 
C 26.796875 5.296875 19.59375 5.296875 18.296875 5.296875 
C 14.296875 5.296875 8.796875 6.390625 3.796875 9.984375 
L 2.59375 3.296875 
C 8.296875 0 13.796875 -1 18.40625 -1 
C 30.703125 -1 33.796875 6.5 33.796875 12.1875 
C 33.796875 17.09375 31 20.390625 29.09375 21.890625 
C 25.796875 24.484375 24.59375 24.796875 16.40625 26.484375 
C 15 26.6875 10.09375 27.796875 10.09375 32.296875 
C 10.09375 37.984375 16.40625 37.984375 17.796875 37.984375 
C 24.296875 37.984375 28.296875 35.984375 31 34.484375 
z
" id="CMSS17-115"/>
     </defs>
     <use transform="scale(0.996264)" xlink:href="#CMSS17-116"/>
     <use transform="translate(33.831567 0)scale(0.996264)" xlink:href="#CMSS17-105"/>
     <use transform="translate(56.01229 0)scale(0.996264)" xlink:href="#CMSS17-109"/>
     <use transform="translate(130.241544 0)scale(0.996264)" xlink:href="#CMSS17-101"/>
     <use transform="translate(171.880366 0)scale(0.996264)" xlink:href="#CMSS17-108"/>
     <use transform="translate(194.061089 0)scale(0.996264)" xlink:href="#CMSS17-97"/>
     <use transform="translate(238.98301 0)scale(0.996264)" xlink:href="#CMSS17-112"/>
     <use transform="translate(287.187953 0)scale(0.996264)" xlink:href="#CMSS17-115"/>
     <use transform="translate(323.101495 0)scale(0.996264)" xlink:href="#CMSS17-101"/>
    </g>
   </g>
   <g id="patch_9">
    <path clip-path="url(#p845c009b80)" d="M 91.44 241.92 
L 117.36 241.92 
L 117.36 192.288604 
L 91.44 192.288604 
z
" style="fill:#5254a3;"/>
   </g>
   <g id="patch_10">
    <path clip-path="url(#p845c009b80)" d="M 134.64 241.92 
L 160.56 241.92 
L 160.56 212.895237 
L 134.64 212.895237 
z
" style="fill:#54aeb3;"/>
   </g>
   <g id="patch_11">
    <path clip-path="url(#p845c009b80)" d="M 134.64 241.92 
L 134.64 216.186856 
L 160.56 212.658856 
L 160.56 241.92 
z
" style="fill:#de9ed6;stroke:#de9ed6;stroke-linejoin:miter;"/>
   </g>
   <g id="patch_12">
    <path clip-path="url(#p845c009b80)" d="M 134.64 241.92 
L 134.64 217.714475 
L 160.56 214.186475 
L 160.56 241.92 
z
" style="fill:#ce6dbd;stroke:#ce6dbd;stroke-linejoin:miter;"/>
   </g>
   <g id="patch_13">
    <path clip-path="url(#p845c009b80)" d="M 91.44 241.92 
L 91.44 196.972098 
L 117.36 193.444098 
L 117.36 241.92 
z
" style="fill:#de9ed6;stroke:#de9ed6;stroke-linejoin:miter;"/>
   </g>
   <g id="patch_14">
    <path clip-path="url(#p845c009b80)" d="M 134.64 241.92 
L 134.64 219.242094 
L 160.56 215.714094 
L 160.56 241.92 
z
" style="fill:#a55194;stroke:#a55194;stroke-linejoin:miter;"/>
   </g>
   <g id="patch_15">
    <path clip-path="url(#p845c009b80)" d="M 91.44 241.92 
L 91.44 199.891592 
L 117.36 196.363592 
L 117.36 241.92 
z
" style="fill:#a55194;stroke:#a55194;stroke-linejoin:miter;"/>
   </g>
   <g id="patch_16">
    <path clip-path="url(#p845c009b80)" d="M 134.64 241.92 
L 134.64 220.769713 
L 160.56 217.241713 
L 160.56 241.92 
z
" style="fill:#7b4173;stroke:#7b4173;stroke-linejoin:miter;"/>
   </g>
   <g id="patch_17">
    <path clip-path="url(#p845c009b80)" d="M 91.44 241.92 
L 91.44 202.811086 
L 117.36 199.283086 
L 117.36 241.92 
z
" style="fill:#7b4173;stroke:#7b4173;stroke-linejoin:miter;"/>
   </g>
   <g id="patch_18">
    <path clip-path="url(#p845c009b80)" d="M 134.64 241.92 
L 134.64 222.297332 
L 160.56 218.769332 
L 160.56 241.92 
z
" style="fill:#e7969c;stroke:#e7969c;stroke-linejoin:miter;"/>
   </g>
   <g id="patch_19">
    <path clip-path="url(#p845c009b80)" d="M 91.44 241.92 
L 91.44 205.73058 
L 117.36 202.20258 
L 117.36 241.92 
z
" style="fill:#e7969c;stroke:#e7969c;stroke-linejoin:miter;"/>
   </g>
   <g id="patch_20">
    <path clip-path="url(#p845c009b80)" d="M 134.64 241.92 
L 134.64 223.824952 
L 160.56 220.296952 
L 160.56 241.92 
z
" style="fill:#d6616b;stroke:#d6616b;stroke-linejoin:miter;"/>
   </g>
   <g id="patch_21">
    <path clip-path="url(#p845c009b80)" d="M 91.44 241.92 
L 91.44 208.650073 
L 117.36 205.122073 
L 117.36 241.92 
z
" style="fill:#d6616b;stroke:#d6616b;stroke-linejoin:miter;"/>
   </g>
   <g id="patch_22">
    <path clip-path="url(#p845c009b80)" d="M 134.64 241.92 
L 134.64 225.352571 
L 160.56 221.824571 
L 160.56 241.92 
z
" style="fill:#ad494a;stroke:#ad494a;stroke-linejoin:miter;"/>
   </g>
   <g id="patch_23">
    <path clip-path="url(#p845c009b80)" d="M 91.44 241.92 
L 91.44 211.569567 
L 117.36 208.041567 
L 117.36 241.92 
z
" style="fill:#ad494a;stroke:#ad494a;stroke-linejoin:miter;"/>
   </g>
   <g id="patch_24">
    <path clip-path="url(#p845c009b80)" d="M 134.64 241.92 
L 134.64 226.88019 
L 160.56 223.35219 
L 160.56 241.92 
z
" style="fill:#843c39;stroke:#843c39;stroke-linejoin:miter;"/>
   </g>
   <g id="patch_25">
    <path clip-path="url(#p845c009b80)" d="M 91.44 241.92 
L 91.44 214.489061 
L 117.36 210.961061 
L 117.36 241.92 
z
" style="fill:#843c39;stroke:#843c39;stroke-linejoin:miter;"/>
   </g>
   <g id="patch_26">
    <path clip-path="url(#p845c009b80)" d="M 134.64 241.92 
L 134.64 228.407809 
L 160.56 224.879809 
L 160.56 241.92 
z
" style="fill:#e7cb94;stroke:#e7cb94;stroke-linejoin:miter;"/>
   </g>
   <g id="patch_27">
    <path clip-path="url(#p845c009b80)" d="M 91.44 241.92 
L 91.44 217.408555 
L 117.36 213.880555 
L 117.36 241.92 
z
" style="fill:#e7cb94;stroke:#e7cb94;stroke-linejoin:miter;"/>
   </g>
   <g id="patch_28">
    <path clip-path="url(#p845c009b80)" d="M 134.64 241.92 
L 134.64 229.935428 
L 160.56 226.407428 
L 160.56 241.92 
z
" style="fill:#e7ba52;stroke:#e7ba52;stroke-linejoin:miter;"/>
   </g>
   <g id="patch_29">
    <path clip-path="url(#p845c009b80)" d="M 91.44 241.92 
L 91.44 220.328049 
L 117.36 216.800049 
L 117.36 241.92 
z
" style="fill:#e7ba52;stroke:#e7ba52;stroke-linejoin:miter;"/>
   </g>
   <g id="patch_30">
    <path clip-path="url(#p845c009b80)" d="M 134.64 241.92 
L 134.64 231.463047 
L 160.56 227.935047 
L 160.56 241.92 
z
" style="fill:#bd9e39;stroke:#bd9e39;stroke-linejoin:miter;"/>
   </g>
   <g id="patch_31">
    <path clip-path="url(#p845c009b80)" d="M 91.44 241.92 
L 91.44 223.247543 
L 117.36 219.719543 
L 117.36 241.92 
z
" style="fill:#bd9e39;stroke:#bd9e39;stroke-linejoin:miter;"/>
   </g>
   <g id="patch_32">
    <path clip-path="url(#p845c009b80)" d="M 134.64 241.92 
L 134.64 232.990666 
L 160.56 229.462666 
L 160.56 241.92 
z
" style="fill:#8c6d31;stroke:#8c6d31;stroke-linejoin:miter;"/>
   </g>
   <g id="patch_33">
    <path clip-path="url(#p845c009b80)" d="M 91.44 241.92 
L 91.44 226.167037 
L 117.36 222.639037 
L 117.36 241.92 
z
" style="fill:#8c6d31;stroke:#8c6d31;stroke-linejoin:miter;"/>
   </g>
   <g id="patch_34">
    <path clip-path="url(#p845c009b80)" d="M 134.64 241.92 
L 134.64 234.518285 
L 160.56 230.990285 
L 160.56 241.92 
z
" style="fill:#cedb9c;stroke:#cedb9c;stroke-linejoin:miter;"/>
   </g>
   <g id="patch_35">
    <path clip-path="url(#p845c009b80)" d="M 91.44 241.92 
L 91.44 229.086531 
L 117.36 225.558531 
L 117.36 241.92 
z
" style="fill:#b5cf6b;stroke:#b5cf6b;stroke-linejoin:miter;"/>
   </g>
   <g id="patch_36">
    <path clip-path="url(#p845c009b80)" d="M 134.64 241.92 
L 134.64 236.045904 
L 160.56 232.517904 
L 160.56 241.92 
z
" style="fill:#b5cf6b;stroke:#b5cf6b;stroke-linejoin:miter;"/>
   </g>
   <g id="patch_37">
    <path clip-path="url(#p845c009b80)" d="M 91.44 241.92 
L 91.44 232.006024 
L 117.36 228.478024 
L 117.36 241.92 
z
" style="fill:#8ca252;stroke:#8ca252;stroke-linejoin:miter;"/>
   </g>
   <g id="patch_38">
    <path clip-path="url(#p845c009b80)" d="M 134.64 241.92 
L 134.64 237.573524 
L 160.56 234.045524 
L 160.56 241.92 
z
" style="fill:#8ca252;stroke:#8ca252;stroke-linejoin:miter;"/>
   </g>
   <g id="patch_39">
    <path clip-path="url(#p845c009b80)" d="M 91.44 241.92 
L 91.44 234.925518 
L 117.36 231.397518 
L 117.36 241.92 
z
" style="fill:#637939;stroke:#637939;stroke-linejoin:miter;"/>
   </g>
   <g id="patch_40">
    <path clip-path="url(#p845c009b80)" d="M 134.64 241.92 
L 134.64 239.101143 
L 160.56 235.573143 
L 160.56 241.92 
z
" style="fill:#637939;stroke:#637939;stroke-linejoin:miter;"/>
   </g>
   <g id="patch_41">
    <path clip-path="url(#p845c009b80)" d="M 91.44 241.92 
L 91.44 237.845012 
L 117.36 234.317012 
L 117.36 241.92 
z
" style="fill:#9c9ede;stroke:#9c9ede;stroke-linejoin:miter;"/>
   </g>
   <g id="patch_42">
    <path clip-path="url(#p845c009b80)" d="M 134.64 241.92 
L 134.64 240.628762 
L 160.56 237.100762 
L 160.56 241.92 
z
" style="fill:#5254a3;stroke:#5254a3;stroke-linejoin:miter;"/>
   </g>
   <g id="patch_43">
    <path clip-path="url(#p845c009b80)" d="M 91.44 241.92 
L 91.44 240.764506 
L 117.36 237.236506 
L 117.36 241.92 
z
" style="fill:#6b6ecf;stroke:#6b6ecf;stroke-linejoin:miter;"/>
   </g>
   <g id="patch_44">
    <path clip-path="url(#p845c009b80)" d="M 134.64 241.92 
L 134.64 242.156381 
L 160.56 238.628381 
L 160.56 241.92 
z
" style="fill:#393b79;stroke:#393b79;stroke-linejoin:miter;"/>
   </g>
   <g id="PathCollection_1">
    <defs>
     <path d="M 0 2.5 
C 0.663008 2.5 1.29895 2.236584 1.767767 1.767767 
C 2.236584 1.29895 2.5 0.663008 2.5 0 
C 2.5 -0.663008 2.236584 -1.29895 1.767767 -1.767767 
C 1.29895 -2.236584 0.663008 -2.5 0 -2.5 
C -0.663008 -2.5 -1.29895 -2.236584 -1.767767 -1.767767 
C -2.236584 -1.29895 -2.5 -0.663008 -2.5 0 
C -2.5 0.663008 -2.236584 1.29895 -1.767767 1.767767 
C -1.29895 2.236584 -0.663008 2.5 0 2.5 
z
" id="me9e7e0bf35" style="stroke:#000000;stroke-opacity:0.7;stroke-width:1.2;"/>
    </defs>
    <g>
     <use style="fill:#ffffff;fill-opacity:0.7;stroke:#000000;stroke-opacity:0.7;stroke-width:1.2;" x="102.232053" xlink:href="#me9e7e0bf35" y="219.87"/>
     <use style="fill:#ffffff;fill-opacity:0.7;stroke:#000000;stroke-opacity:0.7;stroke-width:1.2;" x="112.188343" xlink:href="#me9e7e0bf35" y="221.072727"/>
     <use style="fill:#ffffff;fill-opacity:0.7;stroke:#000000;stroke-opacity:0.7;stroke-width:1.2;" x="108.408855" xlink:href="#me9e7e0bf35" y="199.584"/>
     <use style="fill:#ffffff;fill-opacity:0.7;stroke:#000000;stroke-opacity:0.7;stroke-width:1.2;" x="106.104819" xlink:href="#me9e7e0bf35" y="230.895"/>
     <use style="fill:#ffffff;fill-opacity:0.7;stroke:#000000;stroke-opacity:0.7;stroke-width:1.2;" x="98.456002" xlink:href="#me9e7e0bf35" y="184.59"/>
     <use style="fill:#ffffff;fill-opacity:0.7;stroke:#000000;stroke-opacity:0.7;stroke-width:1.2;" x="98.455585" xlink:href="#me9e7e0bf35" y="197.82"/>
     <use style="fill:#ffffff;fill-opacity:0.7;stroke:#000000;stroke-opacity:0.7;stroke-width:1.2;" x="96.763685" xlink:href="#me9e7e0bf35" y="197.82"/>
     <use style="fill:#ffffff;fill-opacity:0.7;stroke:#000000;stroke-opacity:0.7;stroke-width:1.2;" x="110.727524" xlink:href="#me9e7e0bf35" y="197.82"/>
     <use style="fill:#ffffff;fill-opacity:0.7;stroke:#000000;stroke-opacity:0.7;stroke-width:1.2;" x="106.147267" xlink:href="#me9e7e0bf35" y="47.88"/>
     <use style="fill:#ffffff;fill-opacity:0.7;stroke:#000000;stroke-opacity:0.7;stroke-width:1.2;" x="107.995494" xlink:href="#me9e7e0bf35" y="232.12"/>
     <use style="fill:#ffffff;fill-opacity:0.7;stroke:#000000;stroke-opacity:0.7;stroke-width:1.2;" x="96.1157" xlink:href="#me9e7e0bf35" y="224.28"/>
     <use style="fill:#ffffff;fill-opacity:0.7;stroke:#000000;stroke-opacity:0.7;stroke-width:1.2;" x="112.520042" xlink:href="#me9e7e0bf35" y="213.696"/>
     <use style="fill:#ffffff;fill-opacity:0.7;stroke:#000000;stroke-opacity:0.7;stroke-width:1.2;" x="110.144609" xlink:href="#me9e7e0bf35" y="226.485"/>
     <use style="fill:#ffffff;fill-opacity:0.7;stroke:#000000;stroke-opacity:0.7;stroke-width:1.2;" x="99.42922" xlink:href="#me9e7e0bf35" y="65.52"/>
     <use style="fill:#ffffff;fill-opacity:0.7;stroke:#000000;stroke-opacity:0.7;stroke-width:1.2;" x="98.901935" xlink:href="#me9e7e0bf35" y="233.1"/>
     <use style="fill:#ffffff;fill-opacity:0.7;stroke:#000000;stroke-opacity:0.7;stroke-width:1.2;" x="98.92923" xlink:href="#me9e7e0bf35" y="202.23"/>
     <use style="fill:#ffffff;fill-opacity:0.7;stroke:#000000;stroke-opacity:0.7;stroke-width:1.2;" x="101.017306" xlink:href="#me9e7e0bf35" y="153.72"/>
     <use style="fill:#ffffff;fill-opacity:0.7;stroke:#000000;stroke-opacity:0.7;stroke-width:1.2;" x="104.827791" xlink:href="#me9e7e0bf35" y="171.36"/>
     <use style="fill:#ffffff;fill-opacity:0.7;stroke:#000000;stroke-opacity:0.7;stroke-width:1.2;" x="103.22401" xlink:href="#me9e7e0bf35" y="171.36"/>
     <use style="fill:#ffffff;fill-opacity:0.7;stroke:#000000;stroke-opacity:0.7;stroke-width:1.2;" x="100.79244" xlink:href="#me9e7e0bf35" y="189"/>
     <use style="fill:#ffffff;fill-opacity:0.7;stroke:#000000;stroke-opacity:0.7;stroke-width:1.2;" x="106.332818" xlink:href="#me9e7e0bf35" y="171.36"/>
     <use style="fill:#ffffff;fill-opacity:0.7;stroke:#000000;stroke-opacity:0.7;stroke-width:1.2;" x="98.170454" xlink:href="#me9e7e0bf35" y="153.72"/>
     <use style="fill:#ffffff;fill-opacity:0.7;stroke:#000000;stroke-opacity:0.7;stroke-width:1.2;" x="100.80826" xlink:href="#me9e7e0bf35" y="197.82"/>
     <use style="fill:#ffffff;fill-opacity:0.7;stroke:#000000;stroke-opacity:0.7;stroke-width:1.2;" x="102.090733" xlink:href="#me9e7e0bf35" y="217.224"/>
     <use style="fill:#ffffff;fill-opacity:0.7;stroke:#000000;stroke-opacity:0.7;stroke-width:1.2;" x="103.640889" xlink:href="#me9e7e0bf35" y="224.28"/>
     <use style="fill:#ffffff;fill-opacity:0.7;stroke:#000000;stroke-opacity:0.7;stroke-width:1.2;" x="109.327841" xlink:href="#me9e7e0bf35" y="233.1"/>
     <use style="fill:#ffffff;fill-opacity:0.7;stroke:#000000;stroke-opacity:0.7;stroke-width:1.2;" x="99.210363" xlink:href="#me9e7e0bf35" y="180.18"/>
     <use style="fill:#ffffff;fill-opacity:0.7;stroke:#000000;stroke-opacity:0.7;stroke-width:1.2;" x="104.645971" xlink:href="#me9e7e0bf35" y="206.64"/>
     <use style="fill:#ffffff;fill-opacity:0.7;stroke:#000000;stroke-opacity:0.7;stroke-width:1.2;" x="105.996924" xlink:href="#me9e7e0bf35" y="206.64"/>
     <use style="fill:#ffffff;fill-opacity:0.7;stroke:#000000;stroke-opacity:0.7;stroke-width:1.2;" x="96.562663" xlink:href="#me9e7e0bf35" y="183.12"/>
     <use style="fill:#ffffff;fill-opacity:0.7;stroke:#000000;stroke-opacity:0.7;stroke-width:1.2;" x="106.258375" xlink:href="#me9e7e0bf35" y="206.64"/>
     <use style="fill:#ffffff;fill-opacity:0.7;stroke:#000000;stroke-opacity:0.7;stroke-width:1.2;" x="141.906657" xlink:href="#me9e7e0bf35" y="239.715"/>
     <use style="fill:#ffffff;fill-opacity:0.7;stroke:#000000;stroke-opacity:0.7;stroke-width:1.2;" x="140.084092" xlink:href="#me9e7e0bf35" y="233.1"/>
     <use style="fill:#ffffff;fill-opacity:0.7;stroke:#000000;stroke-opacity:0.7;stroke-width:1.2;" x="155.356742" xlink:href="#me9e7e0bf35" y="215.46"/>
     <use style="fill:#ffffff;fill-opacity:0.7;stroke:#000000;stroke-opacity:0.7;stroke-width:1.2;" x="155.646122" xlink:href="#me9e7e0bf35" y="238.98"/>
     <use style="fill:#ffffff;fill-opacity:0.7;stroke:#000000;stroke-opacity:0.7;stroke-width:1.2;" x="152.929106" xlink:href="#me9e7e0bf35" y="189"/>
     <use style="fill:#ffffff;fill-opacity:0.7;stroke:#000000;stroke-opacity:0.7;stroke-width:1.2;" x="144.223726" xlink:href="#me9e7e0bf35" y="206.64"/>
     <use style="fill:#ffffff;fill-opacity:0.7;stroke:#000000;stroke-opacity:0.7;stroke-width:1.2;" x="140.647774" xlink:href="#me9e7e0bf35" y="224.28"/>
     <use style="fill:#ffffff;fill-opacity:0.7;stroke:#000000;stroke-opacity:0.7;stroke-width:1.2;" x="150.783547" xlink:href="#me9e7e0bf35" y="236.04"/>
     <use style="fill:#ffffff;fill-opacity:0.7;stroke:#000000;stroke-opacity:0.7;stroke-width:1.2;" x="146.565835" xlink:href="#me9e7e0bf35" y="224.28"/>
     <use style="fill:#ffffff;fill-opacity:0.7;stroke:#000000;stroke-opacity:0.7;stroke-width:1.2;" x="141.068821" xlink:href="#me9e7e0bf35" y="224.28"/>
     <use style="fill:#ffffff;fill-opacity:0.7;stroke:#000000;stroke-opacity:0.7;stroke-width:1.2;" x="147.516657" xlink:href="#me9e7e0bf35" y="224.28"/>
     <use style="fill:#ffffff;fill-opacity:0.7;stroke:#000000;stroke-opacity:0.7;stroke-width:1.2;" x="139.554234" xlink:href="#me9e7e0bf35" y="224.28"/>
     <use style="fill:#ffffff;fill-opacity:0.7;stroke:#000000;stroke-opacity:0.7;stroke-width:1.2;" x="154.673057" xlink:href="#me9e7e0bf35" y="224.28"/>
     <use style="fill:#ffffff;fill-opacity:0.7;stroke:#000000;stroke-opacity:0.7;stroke-width:1.2;" x="143.431718" xlink:href="#me9e7e0bf35" y="206.64"/>
     <use style="fill:#ffffff;fill-opacity:0.7;stroke:#000000;stroke-opacity:0.7;stroke-width:1.2;" x="150.408385" xlink:href="#me9e7e0bf35" y="200.76"/>
     <use style="fill:#ffffff;fill-opacity:0.7;stroke:#000000;stroke-opacity:0.7;stroke-width:1.2;" x="144.346367" xlink:href="#me9e7e0bf35" y="136.08"/>
     <use style="fill:#ffffff;fill-opacity:0.7;stroke:#000000;stroke-opacity:0.7;stroke-width:1.2;" x="147.946775" xlink:href="#me9e7e0bf35" y="206.64"/>
     <use style="fill:#ffffff;fill-opacity:0.7;stroke:#000000;stroke-opacity:0.7;stroke-width:1.2;" x="148.407154" xlink:href="#me9e7e0bf35" y="233.1"/>
     <use style="fill:#ffffff;fill-opacity:0.7;stroke:#000000;stroke-opacity:0.7;stroke-width:1.2;" x="142.154285" xlink:href="#me9e7e0bf35" y="215.46"/>
     <use style="fill:#ffffff;fill-opacity:0.7;stroke:#000000;stroke-opacity:0.7;stroke-width:1.2;" x="155.714422" xlink:href="#me9e7e0bf35" y="233.1"/>
     <use style="fill:#ffffff;fill-opacity:0.7;stroke:#000000;stroke-opacity:0.7;stroke-width:1.2;" x="152.354295" xlink:href="#me9e7e0bf35" y="236.04"/>
     <use style="fill:#ffffff;fill-opacity:0.7;stroke:#000000;stroke-opacity:0.7;stroke-width:1.2;" x="155.194542" xlink:href="#me9e7e0bf35" y="236.04"/>
     <use style="fill:#ffffff;fill-opacity:0.7;stroke:#000000;stroke-opacity:0.7;stroke-width:1.2;" x="154.422617" xlink:href="#me9e7e0bf35" y="233.1"/>
     <use style="fill:#ffffff;fill-opacity:0.7;stroke:#000000;stroke-opacity:0.7;stroke-width:1.2;" x="149.291712" xlink:href="#me9e7e0bf35" y="136.08"/>
     <use style="fill:#ffffff;fill-opacity:0.7;stroke:#000000;stroke-opacity:0.7;stroke-width:1.2;" x="154.889987" xlink:href="#me9e7e0bf35" y="224.28"/>
     <use style="fill:#ffffff;fill-opacity:0.7;stroke:#000000;stroke-opacity:0.7;stroke-width:1.2;" x="140.48915" xlink:href="#me9e7e0bf35" y="171.36"/>
     <use style="fill:#ffffff;fill-opacity:0.7;stroke:#000000;stroke-opacity:0.7;stroke-width:1.2;" x="142.346584" xlink:href="#me9e7e0bf35" y="233.1"/>
     <use style="fill:#ffffff;fill-opacity:0.7;stroke:#000000;stroke-opacity:0.7;stroke-width:1.2;" x="139.741528" xlink:href="#me9e7e0bf35" y="217.224"/>
     <use style="fill:#ffffff;fill-opacity:0.7;stroke:#000000;stroke-opacity:0.7;stroke-width:1.2;" x="144.581708" xlink:href="#me9e7e0bf35" y="215.46"/>
     <use style="fill:#ffffff;fill-opacity:0.7;stroke:#000000;stroke-opacity:0.7;stroke-width:1.2;" x="145.676344" xlink:href="#me9e7e0bf35" y="224.28"/>
     <use style="fill:#ffffff;fill-opacity:0.7;stroke:#000000;stroke-opacity:0.7;stroke-width:1.2;" x="143.648911" xlink:href="#me9e7e0bf35" y="171.36"/>
     <use style="fill:#ffffff;fill-opacity:0.7;stroke:#000000;stroke-opacity:0.7;stroke-width:1.2;" x="153.280584" xlink:href="#me9e7e0bf35" y="233.1"/>
     <use style="fill:#ffffff;fill-opacity:0.7;stroke:#000000;stroke-opacity:0.7;stroke-width:1.2;" x="145.124697" xlink:href="#me9e7e0bf35" y="224.28"/>
     <use style="fill:#ffffff;fill-opacity:0.7;stroke:#000000;stroke-opacity:0.7;stroke-width:1.2;" x="143.814548" xlink:href="#me9e7e0bf35" y="171.36"/>
     <use style="fill:#ffffff;fill-opacity:0.7;stroke:#000000;stroke-opacity:0.7;stroke-width:1.2;" x="148.337788" xlink:href="#me9e7e0bf35" y="224.28"/>
     <use style="fill:#ffffff;fill-opacity:0.7;stroke:#000000;stroke-opacity:0.7;stroke-width:1.2;" x="141.395171" xlink:href="#me9e7e0bf35" y="180.18"/>
     <use style="fill:#ffffff;fill-opacity:0.7;stroke:#000000;stroke-opacity:0.7;stroke-width:1.2;" x="152.821964" xlink:href="#me9e7e0bf35" y="233.1"/>
     <use style="fill:#ffffff;fill-opacity:0.7;stroke:#000000;stroke-opacity:0.7;stroke-width:1.2;" x="140.248235" xlink:href="#me9e7e0bf35" y="189"/>
    </g>
   </g>
  </g>
 </g>
 <defs>
  <clipPath id="p845c009b80">
   <rect height="211.68" width="108" x="72" y="30.24"/>
  </clipPath>
 </defs>
</svg>
