<?xml version="1.0" encoding="utf-8" standalone="no"?>
<!DOCTYPE svg PUBLIC "-//W3C//DTD SVG 1.1//EN"
  "http://www.w3.org/Graphics/SVG/1.1/DTD/svg11.dtd">
<!-- Created with matplotlib (https://matplotlib.org/) -->
<svg height="302.4pt" version="1.1" viewBox="0 0 554.4 302.4" width="554.4pt" xmlns="http://www.w3.org/2000/svg" xmlns:xlink="http://www.w3.org/1999/xlink">
 <metadata>
  <rdf:RDF xmlns:cc="http://creativecommons.org/ns#" xmlns:dc="http://purl.org/dc/elements/1.1/" xmlns:rdf="http://www.w3.org/1999/02/22-rdf-syntax-ns#">
   <cc:Work>
    <dc:type rdf:resource="http://purl.org/dc/dcmitype/StillImage"/>
    <dc:date>2021-12-19T16:28:13.741705</dc:date>
    <dc:format>image/svg+xml</dc:format>
    <dc:creator>
     <cc:Agent>
      <dc:title>Matplotlib v3.3.4, https://matplotlib.org/</dc:title>
     </cc:Agent>
    </dc:creator>
   </cc:Work>
  </rdf:RDF>
 </metadata>
 <defs>
  <style type="text/css">*{stroke-linecap:butt;stroke-linejoin:round;}</style>
 </defs>
 <g id="figure_1">
  <g id="patch_1">
   <path d="M 0 302.4 
L 554.4 302.4 
L 554.4 0 
L 0 0 
z
" style="fill:#ffffff;"/>
  </g>
  <g id="axes_1">
   <g id="patch_2">
    <path d="M 72 241.92 
L 482.4 241.92 
L 482.4 30.24 
L 72 30.24 
z
" style="fill:#ffffff;"/>
   </g>
   <g id="patch_3">
    <path clip-path="url(#p6f1252fa44)" d="M 72 171.36 
L 493.2 171.36 
L 493.2 30.24 
L 72 30.24 
z
" style="fill:#01ff6b;opacity:0.12;stroke:#01ff6b;stroke-linejoin:miter;"/>
   </g>
   <g id="patch_4">
    <path clip-path="url(#p6f1252fa44)" d="M 72 171.36 
L 493.2 171.36 
L 493.2 241.92 
L 72 241.92 
z
" style="fill:#c22121;opacity:0.12;stroke:#c22121;stroke-linejoin:miter;"/>
   </g>
   <g id="matplotlib.axis_1">
    <g id="xtick_1">
     <g id="text_1">
      <!-- D20 -->
      <g transform="translate(81.412335 278.247044)rotate(-45)scale(0.18 -0.18)">
       <defs>
        <path d="M 8.90625 69 
L 8.90625 0 
L 33.5 0 
C 49.90625 0 62.5 15.3125 62.5 33.90625 
C 62.5 53.09375 49.90625 69 33.5 69 
z
M 17.09375 5.578125 
L 17.09375 63.421875 
L 31.296875 63.421875 
C 44.703125 63.421875 54.296875 51.203125 54.296875 33.90625 
C 54.296875 17.296875 44.796875 5.578125 31.296875 5.578125 
z
" id="CMSS17-68"/>
        <path d="M 25.796875 21.203125 
C 28.59375 24.078125 32.796875 27.5625 35.703125 31.046875 
C 38.5 34.4375 42.203125 39.234375 42.203125 46.203125 
C 42.203125 57.140625 34.796875 67 22.203125 67 
C 12.296875 67 6.59375 60.828125 3.90625 51.15625 
C 4.90625 49.765625 6.40625 47.765625 7.796875 45.765625 
C 10 54.84375 13.09375 60.625 20.90625 60.625 
C 29.5 60.625 34.296875 53.640625 34.296875 45.96875 
C 34.296875 36.796875 27.296875 29.703125 22 24.421875 
C 16.09375 18.546875 10.296875 12.5625 4.703125 6.375 
L 4.703125 0 
L 42.203125 0 
L 42.203125 6.765625 
L 25.203125 6.765625 
C 24 6.765625 22.796875 6.765625 21.59375 6.765625 
L 11.59375 6.765625 
L 11.59375 6.859375 
z
" id="CMSS17-50"/>
        <path d="M 43.09375 31.9375 
C 43.09375 37.578125 43 48.078125 38.90625 56.1875 
C 34.796875 64 28.203125 66.078125 23.5 66.078125 
C 16.703125 66.078125 10.90625 62.109375 7.90625 55.78125 
C 4.703125 49.15625 3.796875 42.328125 3.796875 31.9375 
C 3.796875 24.828125 4.09375 16.109375 7.703125 8.484375 
C 11.796875 0.078125 18.703125 -2 23.40625 -2 
C 29.59375 -2 35.59375 1.265625 39 8.09375 
C 42.5 15.21875 43.09375 23.03125 43.09375 31.9375 
z
M 23.40625 4.078125 
C 15.796875 4.078125 13.5 12.671875 12.796875 15.546875 
C 11.59375 20.46875 11.40625 25.21875 11.40625 33.03125 
C 11.40625 39.15625 11.40625 46.0625 13.296875 51.515625 
C 15.59375 57.828125 19.59375 60 23.40625 60 
C 30.796875 60 33.203125 52.6875 34 50.125 
C 35.5 44.890625 35.5 38.765625 35.5 33.03125 
C 35.5 23.84375 35.5 4.078125 23.40625 4.078125 
z
" id="CMSS17-48"/>
       </defs>
       <use transform="scale(0.996264)" xlink:href="#CMSS17-68"/>
       <use transform="translate(67.542842 0)scale(0.996264)" xlink:href="#CMSS17-50"/>
       <use transform="translate(114.386465 0)scale(0.996264)" xlink:href="#CMSS17-48"/>
      </g>
     </g>
    </g>
    <g id="xtick_2">
     <g id="text_2">
      <!-- D14 -->
      <g transform="translate(124.612335 278.247044)rotate(-45)scale(0.18 -0.18)">
       <defs>
        <path d="M 28.40625 67 
L 26.5 67 
C 21.09375 61.5625 14.796875 60.78125 8.40625 60.78125 
L 8.40625 55 
C 11.296875 55 16 55 20.703125 57.296875 
L 20.703125 5.765625 
L 8.90625 5.765625 
L 8.90625 0 
L 40.203125 0 
L 40.203125 5.765625 
L 28.40625 5.765625 
z
" id="CMSS17-49"/>
        <path d="M 35.203125 17 
L 44.296875 17 
L 44.296875 23.078125 
L 35.203125 23.078125 
L 35.203125 65.5 
L 26.40625 65.5 
L 2.59375 23.078125 
L 2.59375 17 
L 27.296875 17 
L 27.296875 0 
L 35.203125 0 
z
M 10.296875 23.078125 
C 16.09375 33.234375 27.59375 53.734375 27.59375 60.703125 
L 27.59375 23.078125 
z
" id="CMSS17-52"/>
       </defs>
       <use transform="scale(0.996264)" xlink:href="#CMSS17-68"/>
       <use transform="translate(67.542842 0)scale(0.996264)" xlink:href="#CMSS17-49"/>
       <use transform="translate(114.386465 0)scale(0.996264)" xlink:href="#CMSS17-52"/>
      </g>
     </g>
    </g>
    <g id="xtick_3">
     <g id="text_3">
      <!-- D13 -->
      <g transform="translate(167.812335 278.247044)rotate(-45)scale(0.18 -0.18)">
       <defs>
        <path d="M 15.703125 31.640625 
L 22.5 31.640625 
C 31.90625 31.640625 34.59375 23.546875 34.59375 17.90625 
C 34.59375 10.203125 30.203125 4.171875 23 4.171875 
C 17.40625 4.171875 9.5 6.9375 5 14.25 
C 4.296875 10.796875 4.296875 10.59375 3.90625 8.21875 
C 8.59375 1.375 16.203125 -2 23.203125 -2 
C 34.59375 -2 43 7.390625 43 17.78125 
C 43 25.59375 37.5 32.140625 30 34.609375 
C 36 37.875 40.40625 44 40.40625 51.140625 
C 40.40625 59.453125 32.703125 66.078125 23.296875 66.078125 
C 14.703125 66.078125 8 60.8125 5.203125 55.15625 
C 5.90625 54.1875 7.703125 51.3125 8.59375 49.828125 
C 10.796875 55.65625 16.5 60 23.203125 60 
C 28.796875 60 32.5 56.359375 32.5 51.109375 
C 32.5 45.671875 29 39.734375 23.09375 38.359375 
C 22.703125 38.359375 16.5 37.765625 15.703125 37.671875 
z
" id="CMSS17-51"/>
       </defs>
       <use transform="scale(0.996264)" xlink:href="#CMSS17-68"/>
       <use transform="translate(67.542842 0)scale(0.996264)" xlink:href="#CMSS17-49"/>
       <use transform="translate(114.386465 0)scale(0.996264)" xlink:href="#CMSS17-51"/>
      </g>
     </g>
    </g>
    <g id="xtick_4">
     <g id="text_4">
      <!-- D19 -->
      <g transform="translate(211.012335 278.247044)rotate(-45)scale(0.18 -0.18)">
       <defs>
        <path d="M 6.796875 2.71875 
C 9.59375 0.328125 13.203125 -2 19.296875 -2 
C 31.40625 -2 43 11.265625 43 32.734375 
C 43 61.4375 30.5 66.078125 23.796875 66.078125 
C 17.09375 66.078125 12.796875 63.140625 9.09375 58.453125 
C 4.703125 53.078125 3.90625 48.28125 3.90625 42.703125 
C 3.90625 36.046875 5.09375 31.953125 7.90625 27.265625 
C 11.703125 21.203125 15.203125 19.921875 19.09375 19.921875 
C 25 19.921875 30.90625 22.796875 34.90625 27.75 
C 34.203125 14.09375 28.09375 4.171875 19.296875 4.171875 
C 15.703125 4.171875 12.796875 5.296875 9.90625 8.0625 
z
M 34.59375 42.90625 
C 34.703125 42.234375 34.703125 40.96875 34.703125 40.5625 
C 34.703125 32.40625 29.90625 26 22.90625 26 
C 18.296875 26 15.90625 28.328125 14.09375 31.34375 
C 11.90625 35.140625 11.796875 38.828125 11.796875 42.703125 
C 11.796875 46.5 11.796875 50.6875 14.59375 54.859375 
C 16.703125 57.859375 19.296875 60 23.796875 60 
C 33 60 34.5 46.875 34.59375 42.90625 
z
" id="CMSS17-57"/>
       </defs>
       <use transform="scale(0.996264)" xlink:href="#CMSS17-68"/>
       <use transform="translate(67.542842 0)scale(0.996264)" xlink:href="#CMSS17-49"/>
       <use transform="translate(114.386465 0)scale(0.996264)" xlink:href="#CMSS17-57"/>
      </g>
     </g>
    </g>
    <g id="xtick_5">
     <g id="text_5">
      <!-- D18 -->
      <g transform="translate(254.212335 278.247044)rotate(-45)scale(0.18 -0.18)">
       <defs>
        <path d="M 30.203125 34.71875 
C 37.796875 37.1875 41.703125 43.125 41.703125 48.96875 
C 41.703125 58.15625 33.703125 66.078125 23.5 66.078125 
C 12.90625 66.078125 5.203125 57.9375 5.203125 49.125 
C 5.203125 43.4375 9 37.546875 16.703125 35.015625 
C 6.90625 31.203125 3.90625 23.625 3.90625 17.953125 
C 3.90625 6.96875 12.796875 -2 23.40625 -2 
C 34.40625 -2 43 7.109375 43 17.78125 
C 43 24.328125 39.09375 31.25 30.203125 34.71875 
z
M 23.5 38 
C 16.796875 38 12.296875 42.375 12.296875 49 
C 12.296875 55.71875 16.796875 60 23.5 60 
C 29.703125 60 34.59375 56.109375 34.59375 49 
C 34.59375 41.984375 29.796875 38 23.5 38 
z
M 23.5 4.171875 
C 17.796875 4.171875 11.703125 8.078125 11.703125 18.0625 
C 11.703125 28.328125 18.5 31.921875 23.40625 31.921875 
C 28.796875 31.921875 35.203125 28.125 35.203125 18.0625 
C 35.203125 7.671875 28.59375 4.171875 23.5 4.171875 
z
" id="CMSS17-56"/>
       </defs>
       <use transform="scale(0.996264)" xlink:href="#CMSS17-68"/>
       <use transform="translate(67.542842 0)scale(0.996264)" xlink:href="#CMSS17-49"/>
       <use transform="translate(114.386465 0)scale(0.996264)" xlink:href="#CMSS17-56"/>
      </g>
     </g>
    </g>
    <g id="xtick_6">
     <g id="text_6">
      <!-- D17 -->
      <g transform="translate(297.412335 278.247044)rotate(-45)scale(0.18 -0.18)">
       <defs>
        <path d="M 21.703125 59 
C 22.90625 59 24.09375 59 25.296875 59 
L 36.796875 59 
C 22.5 42.359375 14.296875 21.328125 14.296875 -0.5 
L 22.296875 -0.5 
C 22.296875 20.671875 29.296875 42.125 43 59.296875 
L 43 65.765625 
L 3.90625 65.765625 
L 3.90625 59 
z
" id="CMSS17-55"/>
       </defs>
       <use transform="scale(0.996264)" xlink:href="#CMSS17-68"/>
       <use transform="translate(67.542842 0)scale(0.996264)" xlink:href="#CMSS17-49"/>
       <use transform="translate(114.386465 0)scale(0.996264)" xlink:href="#CMSS17-55"/>
      </g>
     </g>
    </g>
    <g id="xtick_7">
     <g id="text_7">
      <!-- D16 -->
      <g transform="translate(340.612335 278.247044)rotate(-45)scale(0.18 -0.18)">
       <defs>
        <path d="M 39 64.078125 
C 34.796875 65.78125 31.796875 66.078125 29 66.078125 
C 16 66.078125 3.90625 52.625 3.90625 31.34375 
C 3.90625 4.140625 15.40625 -2 23.59375 -2 
C 28.09375 -2 32.59375 -0.609375 36.90625 4.375 
C 41.296875 9.640625 43 14.03125 43 21.703125 
C 43 34.046875 36.90625 45 27.796875 45 
C 21.203125 45 15.5 41.515625 12 37.125 
C 13 50.90625 19.59375 60 29.09375 60 
C 31.703125 60 35.09375 59.625 39 57.96875 
z
M 12.09375 21.390625 
C 12.09375 22.1875 12.09375 22.6875 12.203125 24.1875 
C 12.203125 31.953125 16.703125 38.921875 24 38.921875 
C 28.703125 38.921875 31.09375 36.4375 32.90625 33.359375 
C 35 29.46875 35.09375 25.78125 35.09375 21.6875 
C 35.09375 17.8125 35.09375 13.921875 32.796875 9.953125 
C 30.90625 6.859375 28.40625 4.171875 23.59375 4.171875 
C 14.09375 4.171875 12.5 17.40625 12.09375 21.390625 
z
" id="CMSS17-54"/>
       </defs>
       <use transform="scale(0.996264)" xlink:href="#CMSS17-68"/>
       <use transform="translate(67.542842 0)scale(0.996264)" xlink:href="#CMSS17-49"/>
       <use transform="translate(114.386465 0)scale(0.996264)" xlink:href="#CMSS17-54"/>
      </g>
     </g>
    </g>
    <g id="xtick_8">
     <g id="text_8">
      <!-- D15 -->
      <g transform="translate(383.812335 278.247044)rotate(-45)scale(0.18 -0.18)">
       <defs>
        <path d="M 14.59375 58.625 
L 39.09375 58.625 
L 39.09375 65 
L 7.296875 65 
L 7.296875 27.828125 
L 14 27.828125 
C 15.796875 31.96875 19.5 35 24.296875 35 
C 28.796875 35 33.796875 31.078125 33.796875 19.78125 
C 33.796875 7.703125 26.703125 4.171875 21.5 4.171875 
C 15.09375 4.171875 9.203125 8 6.59375 13.296875 
L 3.40625 7.796875 
C 8 0.765625 15.5 -2 21.5 -2 
C 33.09375 -2 42.203125 7.765625 42.203125 19.578125 
C 42.203125 31.71875 34.09375 41.078125 24.40625 41.078125 
C 20.90625 41.078125 17.5 39.890625 14.59375 37.484375 
z
" id="CMSS17-53"/>
       </defs>
       <use transform="scale(0.996264)" xlink:href="#CMSS17-68"/>
       <use transform="translate(67.542842 0)scale(0.996264)" xlink:href="#CMSS17-49"/>
       <use transform="translate(114.386465 0)scale(0.996264)" xlink:href="#CMSS17-53"/>
      </g>
     </g>
    </g>
    <g id="xtick_9">
     <g id="text_9">
      <!-- D12 -->
      <g transform="translate(427.012335 278.247044)rotate(-45)scale(0.18 -0.18)">
       <use transform="scale(0.996264)" xlink:href="#CMSS17-68"/>
       <use transform="translate(67.542842 0)scale(0.996264)" xlink:href="#CMSS17-49"/>
       <use transform="translate(114.386465 0)scale(0.996264)" xlink:href="#CMSS17-50"/>
      </g>
     </g>
    </g>
   </g>
   <g id="matplotlib.axis_2">
    <g id="ytick_1">
     <g id="line2d_1">
      <path clip-path="url(#p6f1252fa44)" d="M 72 65.52 
L 482.4 65.52 
" style="fill:none;stroke:#b0b0b0;stroke-linecap:square;stroke-opacity:0.6;stroke-width:0.7;"/>
     </g>
     <g id="line2d_2">
      <defs>
       <path d="M 0 0 
L -3.5 0 
" id="meece35f23b" style="stroke:#000000;stroke-width:0.8;"/>
      </defs>
      <g>
       <use style="stroke:#000000;stroke-width:0.8;" x="72" xlink:href="#meece35f23b" y="65.52"/>
      </g>
     </g>
     <g id="text_10">
      <!-- 9 -->
      <g transform="translate(57.927644 70.535904)scale(0.145 -0.145)">
       <use transform="scale(0.996264)" xlink:href="#CMSS17-57"/>
      </g>
     </g>
    </g>
    <g id="ytick_2">
     <g id="line2d_3">
      <path clip-path="url(#p6f1252fa44)" d="M 72 100.8 
L 482.4 100.8 
" style="fill:none;stroke:#b0b0b0;stroke-linecap:square;stroke-opacity:0.6;stroke-width:0.7;"/>
     </g>
     <g id="line2d_4">
      <g>
       <use style="stroke:#000000;stroke-width:0.8;" x="72" xlink:href="#meece35f23b" y="100.8"/>
      </g>
     </g>
     <g id="text_11">
      <!-- 6 -->
      <g transform="translate(57.927644 105.815904)scale(0.145 -0.145)">
       <use transform="scale(0.996264)" xlink:href="#CMSS17-54"/>
      </g>
     </g>
    </g>
    <g id="ytick_3">
     <g id="line2d_5">
      <path clip-path="url(#p6f1252fa44)" d="M 72 136.08 
L 482.4 136.08 
" style="fill:none;stroke:#b0b0b0;stroke-linecap:square;stroke-opacity:0.6;stroke-width:0.7;"/>
     </g>
     <g id="line2d_6">
      <g>
       <use style="stroke:#000000;stroke-width:0.8;" x="72" xlink:href="#meece35f23b" y="136.08"/>
      </g>
     </g>
     <g id="text_12">
      <!-- 3 -->
      <g transform="translate(57.927644 141.095904)scale(0.145 -0.145)">
       <use transform="scale(0.996264)" xlink:href="#CMSS17-51"/>
      </g>
     </g>
    </g>
    <g id="ytick_4">
     <g id="line2d_7">
      <path clip-path="url(#p6f1252fa44)" d="M 72 171.36 
L 482.4 171.36 
" style="fill:none;stroke:#b0b0b0;stroke-linecap:square;stroke-opacity:0.6;stroke-width:0.7;"/>
     </g>
     <g id="line2d_8">
      <g>
       <use style="stroke:#000000;stroke-width:0.8;" x="72" xlink:href="#meece35f23b" y="171.36"/>
      </g>
     </g>
     <g id="text_13">
      <!-- 0 -->
      <g transform="translate(57.927644 176.375904)scale(0.145 -0.145)">
       <use transform="scale(0.996264)" xlink:href="#CMSS17-48"/>
      </g>
     </g>
    </g>
    <g id="ytick_5">
     <g id="line2d_9">
      <path clip-path="url(#p6f1252fa44)" d="M 72 183.12 
L 482.4 183.12 
" style="fill:none;stroke:#b0b0b0;stroke-linecap:square;stroke-opacity:0.6;stroke-width:0.7;"/>
     </g>
     <g id="line2d_10">
      <g>
       <use style="stroke:#000000;stroke-width:0.8;" x="72" xlink:href="#meece35f23b" y="183.12"/>
      </g>
     </g>
     <g id="text_14">
      <!-- 1 -->
      <g transform="translate(57.927644 188.135904)scale(0.145 -0.145)">
       <use transform="scale(0.996264)" xlink:href="#CMSS17-49"/>
      </g>
     </g>
    </g>
    <g id="ytick_6">
     <g id="line2d_11">
      <path clip-path="url(#p6f1252fa44)" d="M 72 206.64 
L 482.4 206.64 
" style="fill:none;stroke:#b0b0b0;stroke-linecap:square;stroke-opacity:0.6;stroke-width:0.7;"/>
     </g>
     <g id="line2d_12">
      <g>
       <use style="stroke:#000000;stroke-width:0.8;" x="72" xlink:href="#meece35f23b" y="206.64"/>
      </g>
     </g>
     <g id="text_15">
      <!-- 3 -->
      <g transform="translate(57.927644 211.655904)scale(0.145 -0.145)">
       <use transform="scale(0.996264)" xlink:href="#CMSS17-51"/>
      </g>
     </g>
    </g>
    <g id="text_16">
     <!-- n axons -->
     <g transform="translate(50.43958 162.928628)rotate(-90)scale(0.18 -0.18)">
      <defs>
       <path d="M 40.90625 29.328125 
C 40.90625 35.671875 39.40625 44 28.09375 44 
C 21.703125 44 17.5 40.71875 14.703125 37.328125 
L 14.703125 43.09375 
L 7.40625 43.09375 
L 7.40625 0 
L 15 0 
L 15 24.359375 
C 15 30.6875 17.40625 37.9375 24.203125 37.9375 
C 33 37.9375 33.296875 32 33.296875 28.578125 
L 33.296875 0 
L 40.90625 0 
z
" id="CMSS17-110"/>
       <path d="M 37.59375 27.984375 
C 37.59375 37.375 30.90625 43.875 21.90625 43.875 
C 17.5 43.875 12.703125 43.078125 7.203125 39.890625 
L 7.796875 33.359375 
C 10.296875 35.125 14.59375 38 21.796875 38 
C 26.90625 38 30 34.0625 30 27.84375 
L 30 24 
C 14 24 4 19.34375 4 11.34375 
C 4 7.203125 6.5 -1 14.796875 -1 
C 16.296875 -1 24.40625 -1 30.203125 3.390625 
L 30.203125 -0.296875 
L 37.59375 -0.296875 
z
M 30 12.75 
C 30 10.953125 30 8.5625 27 6.78125 
C 24.40625 5.078125 21.09375 5.078125 19.703125 5.078125 
C 14.703125 5.078125 11.296875 7.984375 11.296875 11.625 
C 11.296875 18.921875 26.90625 18.921875 30 18.921875 
z
" id="CMSS17-97"/>
       <path d="M 24.796875 22.09375 
L 41.5 42.796875 
L 32.796875 42.796875 
L 21.296875 27.765625 
L 9.40625 42.796875 
L 0.5 42.796875 
L 17.796875 22.09375 
L 0 0 
L 8.796875 0 
L 21.296875 17.515625 
L 34.296875 0 
L 43.09375 0 
z
" id="CMSS17-120"/>
       <path d="M 44.203125 21.1875 
C 44.203125 34 34.703125 44 23.5 44 
C 12 44 2.703125 33.703125 2.703125 21.1875 
C 2.703125 8.5 12.296875 -1 23.40625 -1 
C 34.796875 -1 44.203125 8.796875 44.203125 21.1875 
z
M 23.5 5.265625 
C 16.40625 5.265625 10.296875 11.078125 10.296875 22 
C 10.296875 33.609375 17.40625 37.921875 23.40625 37.921875 
C 29.90625 37.921875 36.59375 33.21875 36.59375 22 
C 36.59375 10.671875 30.09375 5.265625 23.5 5.265625 
z
" id="CMSS17-111"/>
       <path d="M 32.203125 41.046875 
C 26.296875 43.859375 21.703125 43.859375 18.703125 43.859375 
C 11.59375 43.859375 3.09375 41.375 3.09375 31.296875 
C 3.09375 21.234375 14.09375 19.03125 17.09375 18.421875 
C 21.703125 17.53125 26.796875 16.53125 26.796875 11.5625 
C 26.796875 5.265625 19.59375 5.265625 18.296875 5.265625 
C 14.296875 5.265625 8.796875 6.359375 3.796875 9.96875 
L 2.59375 3.28125 
C 8.296875 0 13.796875 -1 18.40625 -1 
C 30.703125 -1 33.796875 6.5 33.796875 12.203125 
C 33.796875 17.09375 31 20.390625 29.09375 21.890625 
C 25.796875 24.5 24.59375 24.796875 16.40625 26.5 
C 15 26.703125 10.09375 27.796875 10.09375 32.28125 
C 10.09375 38 16.40625 38 17.796875 38 
C 24.296875 38 28.296875 35.984375 31 34.5 
z
" id="CMSS17-115"/>
      </defs>
      <use transform="scale(0.996264)" xlink:href="#CMSS17-110"/>
      <use transform="translate(79.434056 0)scale(0.996264)" xlink:href="#CMSS17-97"/>
      <use transform="translate(124.355976 0)scale(0.996264)" xlink:href="#CMSS17-120"/>
      <use transform="translate(167.356118 0)scale(0.996264)" xlink:href="#CMSS17-111"/>
      <use transform="translate(214.199742 0)scale(0.996264)" xlink:href="#CMSS17-110"/>
      <use transform="translate(262.404685 0)scale(0.996264)" xlink:href="#CMSS17-115"/>
     </g>
    </g>
   </g>
   <g id="patch_5">
    <path d="M 72 241.92 
L 72 30.24 
" style="fill:none;stroke:#000000;stroke-linecap:square;stroke-linejoin:miter;stroke-width:0.8;"/>
   </g>
   <g id="patch_6">
    <path d="M 482.4 241.92 
L 482.4 30.24 
" style="fill:none;stroke:#000000;stroke-linecap:square;stroke-linejoin:miter;stroke-width:0.8;"/>
   </g>
   <g id="patch_7">
    <path d="M 72 241.92 
L 482.4 241.92 
" style="fill:none;stroke:#000000;stroke-linecap:square;stroke-linejoin:miter;stroke-width:0.8;"/>
   </g>
   <g id="patch_8">
    <path d="M 72 30.24 
L 482.4 30.24 
" style="fill:none;stroke:#000000;stroke-linecap:square;stroke-linejoin:miter;stroke-width:0.8;"/>
   </g>
   <g id="text_17">
    <!-- reached target -->
    <g transform="translate(393.654773 44.505408)scale(0.145 -0.145)">
     <defs>
      <path d="M 14.90625 21.296875 
C 14.90625 30.703125 21.796875 37 30.59375 37 
L 30.59375 43.578125 
C 24.203125 43.578125 18.203125 40.390625 14.59375 35.203125 
L 14.59375 43.09375 
L 7.5 43.09375 
L 7.5 0 
L 14.90625 0 
z
" id="CMSS17-114"/>
      <path d="M 39.09375 21.515625 
C 39.09375 24.84375 38.90625 31.296875 35.703125 36.640625 
C 32.203125 42.390625 26.5 44 22.203125 44 
C 11.796875 44 3 34.1875 3 21.484375 
C 3 9.09375 12.09375 -1 23.59375 -1 
C 28.09375 -1 33.59375 0.296875 38.59375 3.875 
C 38.59375 4.28125 38.40625 6.46875 38.296875 6.5625 
C 38.296875 6.765625 38 9.84375 38 10.25 
C 33.203125 6.359375 27.703125 5.078125 23.703125 5.078125 
C 17.296875 5.078125 10.40625 10.421875 10.09375 21.515625 
z
M 10.90625 27 
C 12.203125 32.5625 16.59375 37.828125 22.203125 37.828125 
C 23.703125 37.828125 30.703125 37.828125 32.5 27 
z
" id="CMSS17-101"/>
      <path d="M 38.5 39.703125 
C 38.5 40.390625 33.90625 42.40625 32.703125 42.796875 
C 29.40625 44 25.203125 44 24.09375 44 
C 11.09375 44 3.296875 32.703125 3.296875 21.296875 
C 3.296875 9.296875 12 -1 23.703125 -1 
C 30.40625 -1 35.203125 1.1875 39.09375 3.78125 
L 38.5 10.375 
C 34.203125 7.078125 29.203125 5.265625 23.796875 5.265625 
C 16 5.265625 10.90625 12.09375 10.90625 21.390625 
C 10.90625 28.609375 14.203125 37.71875 24.203125 37.71875 
C 29.703125 37.71875 32.796875 36.609375 37.40625 33.515625 
z
" id="CMSS17-99"/>
      <path d="M 40.90625 29.546875 
C 40.90625 35.8125 39.40625 44.0625 28.09375 44.0625 
C 21.796875 44.0625 17.703125 40.984375 14.796875 37.609375 
L 14.796875 69.5 
L 7.40625 69.5 
L 7.40625 0.5 
L 15 0.5 
L 15 24.578125 
C 15 30.828125 17.40625 38 24.203125 38 
C 33 38 33.296875 32.125 33.296875 28.734375 
L 33.296875 0.5 
L 40.90625 0.5 
z
" id="CMSS17-104"/>
      <path d="M 40.796875 69 
L 33.40625 69 
L 33.40625 38.09375 
C 30.296875 40.671875 25.203125 43.0625 19.59375 43.0625 
C 10.5 43.0625 3.296875 33.296875 3.296875 21.046875 
C 3.296875 8.78125 10.40625 -1 19.296875 -1 
C 26.203125 -1 30.796875 2.6875 33.203125 4.78125 
L 33.203125 -0.203125 
L 40.796875 -0.203125 
z
M 33.203125 13.0625 
C 33.203125 11.671875 33.203125 10.203125 30.09375 7.53125 
C 28.09375 5.859375 25.703125 5.078125 23.40625 5.078125 
C 18 5.078125 10.90625 9 10.90625 20.9375 
C 10.90625 33.34375 18.90625 37 24.40625 37 
C 28.09375 37 31.09375 35.21875 33.203125 32.265625 
z
" id="CMSS17-100"/>
      <path d="M 16.703125 37 
L 29.703125 37 
L 29.703125 42.765625 
L 16.703125 42.765625 
L 16.703125 55 
L 9.59375 55 
L 9.59375 42.765625 
L 1.703125 42.765625 
L 1.703125 37 
L 9.40625 37 
L 9.40625 11.703125 
C 9.40625 6 10.703125 -1 17.296875 -1 
C 22.296875 -1 26.90625 0.390625 31.296875 2.6875 
L 29.703125 8.5625 
C 27.296875 6.46875 24.40625 5.265625 21.296875 5.265625 
C 16.90625 5.265625 16.703125 10.875 16.703125 13.375 
z
" id="CMSS17-116"/>
      <path d="M 44.5 43.875 
C 38.796875 43.875 33.90625 42.78125 29.90625 40.890625 
C 26.59375 43.390625 23.203125 43.875 20.90625 43.875 
C 12.203125 43.875 5.59375 36.703125 5.59375 28.34375 
C 5.59375 22.9375 8.59375 18.859375 8.796875 18.671875 
C 7 16.171875 6 13.484375 6 10.5 
C 6 7 7.40625 4.515625 8.5 3.125 
C 3.296875 -0.046875 2.59375 -4.90625 2.59375 -6.796875 
C 2.59375 -14.03125 11.703125 -20 23.40625 -20 
C 35.203125 -20 44.296875 -14.03125 44.296875 -6.6875 
C 44.296875 7 29 7 24.796875 7 
L 16.703125 7 
C 15.203125 7 11.203125 7 11.203125 12.359375 
C 11.203125 14.390625 12.09375 15.6875 12.203125 15.78125 
C 13.703125 14.6875 16.796875 13 20.90625 13 
C 29.203125 13 36.09375 19.96875 36.09375 28.546875 
C 36.09375 33.3125 33.90625 36.796875 33 38 
L 33.296875 38 
C 33.59375 38 37.796875 38 39.296875 38 
C 42.5 38 42.796875 37.953125 45.59375 37.796875 
z
M 20.90625 18.46875 
C 17.5 18.46875 12.703125 20.546875 12.703125 28.484375 
C 12.703125 37.109375 18.203125 38.5 20.796875 38.5 
C 24.203125 38.5 29 36.421875 29 28.484375 
C 29 19.859375 23.5 18.46875 20.90625 18.46875 
z
M 24.703125 -0.15625 
C 27.09375 -0.15625 37.203125 -0.15625 37.203125 -6.90625 
C 37.203125 -11.15625 31 -14.515625 23.5 -14.515625 
C 15.90625 -14.515625 9.703125 -11.25 9.703125 -6.796875 
C 9.703125 -6.296875 9.703125 -0.15625 16.59375 -0.15625 
z
" id="CMSS17-103"/>
     </defs>
     <use transform="scale(0.996264)" xlink:href="#CMSS17-114"/>
     <use transform="translate(31.909773 0)scale(0.996264)" xlink:href="#CMSS17-101"/>
     <use transform="translate(73.548595 0)scale(0.996264)" xlink:href="#CMSS17-97"/>
     <use transform="translate(118.470515 0)scale(0.996264)" xlink:href="#CMSS17-99"/>
     <use transform="translate(160.109337 0)scale(0.996264)" xlink:href="#CMSS17-104"/>
     <use transform="translate(208.31428 0)scale(0.996264)" xlink:href="#CMSS17-101"/>
     <use transform="translate(249.953103 0)scale(0.996264)" xlink:href="#CMSS17-100"/>
     <use transform="translate(329.387158 0)scale(0.996264)" xlink:href="#CMSS17-116"/>
     <use transform="translate(363.218725 0)scale(0.996264)" xlink:href="#CMSS17-97"/>
     <use transform="translate(405.538192 0)scale(0.996264)" xlink:href="#CMSS17-114"/>
     <use transform="translate(437.447964 0)scale(0.996264)" xlink:href="#CMSS17-103"/>
     <use transform="translate(484.291588 0)scale(0.996264)" xlink:href="#CMSS17-101"/>
     <use transform="translate(525.93041 0)scale(0.996264)" xlink:href="#CMSS17-116"/>
    </g>
   </g>
   <g id="text_18">
    <!-- reached neighbor -->
    <g transform="translate(378.080578 234.877506)scale(0.145 -0.145)">
     <defs>
      <path d="M 15.296875 65.359375 
L 6.90625 65.359375 
L 6.90625 57 
L 15.296875 57 
z
M 14.796875 42.796875 
L 7.40625 42.796875 
L 7.40625 0 
L 14.796875 0 
z
" id="CMSS17-105"/>
      <path d="M 14.90625 69 
L 7.5 69 
L 7.5 -0.203125 
L 15.09375 -0.203125 
L 15.09375 4.28125 
C 18.90625 0.59375 23.5 -1 27.59375 -1 
C 37.203125 -1 45 8.578125 45 21.125 
C 45 32.59375 39 43.0625 30.09375 43.0625 
C 23.796875 43.0625 18.203125 40.484375 14.90625 37.796875 
z
M 15.09375 31.96875 
C 17.296875 34.71875 20.40625 37 24.796875 37 
C 30.703125 37 37.40625 32.765625 37.40625 21.125 
C 37.40625 8.71875 29.40625 5.078125 23.90625 5.078125 
C 21.90625 5.078125 19.796875 5.5625 17.796875 7.25 
C 15.09375 9.609375 15.09375 11.078125 15.09375 12.453125 
z
" id="CMSS17-98"/>
     </defs>
     <use transform="scale(0.996264)" xlink:href="#CMSS17-114"/>
     <use transform="translate(31.909773 0)scale(0.996264)" xlink:href="#CMSS17-101"/>
     <use transform="translate(73.548595 0)scale(0.996264)" xlink:href="#CMSS17-97"/>
     <use transform="translate(118.470515 0)scale(0.996264)" xlink:href="#CMSS17-99"/>
     <use transform="translate(160.109337 0)scale(0.996264)" xlink:href="#CMSS17-104"/>
     <use transform="translate(208.31428 0)scale(0.996264)" xlink:href="#CMSS17-101"/>
     <use transform="translate(249.953103 0)scale(0.996264)" xlink:href="#CMSS17-100"/>
     <use transform="translate(329.387158 0)scale(0.996264)" xlink:href="#CMSS17-110"/>
     <use transform="translate(377.592102 0)scale(0.996264)" xlink:href="#CMSS17-101"/>
     <use transform="translate(419.230924 0)scale(0.996264)" xlink:href="#CMSS17-105"/>
     <use transform="translate(441.411647 0)scale(0.996264)" xlink:href="#CMSS17-103"/>
     <use transform="translate(488.25527 0)scale(0.996264)" xlink:href="#CMSS17-104"/>
     <use transform="translate(536.460213 0)scale(0.996264)" xlink:href="#CMSS17-98"/>
     <use transform="translate(587.267595 0)scale(0.996264)" xlink:href="#CMSS17-111"/>
     <use transform="translate(631.508765 0)scale(0.996264)" xlink:href="#CMSS17-114"/>
    </g>
   </g>
   <g id="text_19">
    <!-- design -->
    <g transform="translate(255.331218 24.24)scale(0.18 -0.18)">
     <use transform="scale(0.996264)" xlink:href="#CMSS17-100"/>
     <use transform="translate(48.204943 0)scale(0.996264)" xlink:href="#CMSS17-101"/>
     <use transform="translate(89.843765 0)scale(0.996264)" xlink:href="#CMSS17-115"/>
     <use transform="translate(125.757307 0)scale(0.996264)" xlink:href="#CMSS17-105"/>
     <use transform="translate(147.93803 0)scale(0.996264)" xlink:href="#CMSS17-103"/>
     <use transform="translate(194.781654 0)scale(0.996264)" xlink:href="#CMSS17-110"/>
    </g>
   </g>
   <g id="PathCollection_1">
    <defs>
     <path d="M 2.738613 0 
L -2.738613 -0 
" id="mcd862c9a3b" style="stroke:#000000;stroke-opacity:0.4;stroke-width:1.4;"/>
    </defs>
    <g>
     <use style="fill-opacity:0.4;stroke:#000000;stroke-opacity:0.4;stroke-width:1.4;" x="107.959058" xlink:href="#mcd862c9a3b" y="183.12"/>
     <use style="fill-opacity:0.4;stroke:#000000;stroke-opacity:0.4;stroke-width:1.4;" x="107.037912" xlink:href="#mcd862c9a3b" y="171.36"/>
    </g>
   </g>
   <g id="PathCollection_2">
    <g>
     <use style="fill-opacity:0.4;stroke:#000000;stroke-opacity:0.4;stroke-width:1.4;" x="151.024163" xlink:href="#mcd862c9a3b" y="171.36"/>
     <use style="fill-opacity:0.4;stroke:#000000;stroke-opacity:0.4;stroke-width:1.4;" x="150.739199" xlink:href="#mcd862c9a3b" y="171.36"/>
     <use style="fill-opacity:0.4;stroke:#000000;stroke-opacity:0.4;stroke-width:1.4;" x="148.470747" xlink:href="#mcd862c9a3b" y="183.12"/>
     <use style="fill-opacity:0.4;stroke:#000000;stroke-opacity:0.4;stroke-width:1.4;" x="148.888806" xlink:href="#mcd862c9a3b" y="171.36"/>
     <use style="fill-opacity:0.4;stroke:#000000;stroke-opacity:0.4;stroke-width:1.4;" x="149.727494" xlink:href="#mcd862c9a3b" y="171.36"/>
    </g>
   </g>
   <g id="PathCollection_3">
    <g>
     <use style="fill-opacity:0.4;stroke:#000000;stroke-opacity:0.4;stroke-width:1.4;" x="192.039988" xlink:href="#mcd862c9a3b" y="171.36"/>
     <use style="fill-opacity:0.4;stroke:#000000;stroke-opacity:0.4;stroke-width:1.4;" x="193.810846" xlink:href="#mcd862c9a3b" y="183.12"/>
     <use style="fill-opacity:0.4;stroke:#000000;stroke-opacity:0.4;stroke-width:1.4;" x="192.64555" xlink:href="#mcd862c9a3b" y="171.36"/>
     <use style="fill-opacity:0.4;stroke:#000000;stroke-opacity:0.4;stroke-width:1.4;" x="194.668818" xlink:href="#mcd862c9a3b" y="183.12"/>
     <use style="fill-opacity:0.4;stroke:#000000;stroke-opacity:0.4;stroke-width:1.4;" x="194.243688" xlink:href="#mcd862c9a3b" y="171.36"/>
     <use style="fill-opacity:0.4;stroke:#000000;stroke-opacity:0.4;stroke-width:1.4;" x="194.22517" xlink:href="#mcd862c9a3b" y="171.36"/>
    </g>
   </g>
   <g id="PathCollection_4">
    <g>
     <use style="fill-opacity:0.4;stroke:#000000;stroke-opacity:0.4;stroke-width:1.4;" x="238.190281" xlink:href="#mcd862c9a3b" y="194.88"/>
     <use style="fill-opacity:0.4;stroke:#000000;stroke-opacity:0.4;stroke-width:1.4;" x="236.192665" xlink:href="#mcd862c9a3b" y="194.88"/>
     <use style="fill-opacity:0.4;stroke:#000000;stroke-opacity:0.4;stroke-width:1.4;" x="236.664144" xlink:href="#mcd862c9a3b" y="171.36"/>
     <use style="fill-opacity:0.4;stroke:#000000;stroke-opacity:0.4;stroke-width:1.4;" x="235.957602" xlink:href="#mcd862c9a3b" y="171.36"/>
    </g>
   </g>
   <g id="PathCollection_5">
    <g>
     <use style="fill-opacity:0.4;stroke:#000000;stroke-opacity:0.4;stroke-width:1.4;" x="279.510848" xlink:href="#mcd862c9a3b" y="194.88"/>
     <use style="fill-opacity:0.4;stroke:#000000;stroke-opacity:0.4;stroke-width:1.4;" x="280.285588" xlink:href="#mcd862c9a3b" y="171.36"/>
     <use style="fill-opacity:0.4;stroke:#000000;stroke-opacity:0.4;stroke-width:1.4;" x="278.087503" xlink:href="#mcd862c9a3b" y="206.64"/>
     <use style="fill-opacity:0.4;stroke:#000000;stroke-opacity:0.4;stroke-width:1.4;" x="282.614081" xlink:href="#mcd862c9a3b" y="171.36"/>
     <use style="fill-opacity:0.4;stroke:#000000;stroke-opacity:0.4;stroke-width:1.4;" x="277.471694" xlink:href="#mcd862c9a3b" y="183.12"/>
     <use style="fill-opacity:0.4;stroke:#000000;stroke-opacity:0.4;stroke-width:1.4;" x="280.591194" xlink:href="#mcd862c9a3b" y="171.36"/>
    </g>
   </g>
   <g id="PathCollection_6">
    <g>
     <use style="fill-opacity:0.4;stroke:#000000;stroke-opacity:0.4;stroke-width:1.4;" x="323.530631" xlink:href="#mcd862c9a3b" y="183.12"/>
     <use style="fill-opacity:0.4;stroke:#000000;stroke-opacity:0.4;stroke-width:1.4;" x="323.537203" xlink:href="#mcd862c9a3b" y="171.36"/>
     <use style="fill-opacity:0.4;stroke:#000000;stroke-opacity:0.4;stroke-width:1.4;" x="322.540954" xlink:href="#mcd862c9a3b" y="194.88"/>
     <use style="fill-opacity:0.4;stroke:#000000;stroke-opacity:0.4;stroke-width:1.4;" x="321.16459" xlink:href="#mcd862c9a3b" y="206.64"/>
     <use style="fill-opacity:0.4;stroke:#000000;stroke-opacity:0.4;stroke-width:1.4;" x="321.506878" xlink:href="#mcd862c9a3b" y="171.36"/>
     <use style="fill-opacity:0.4;stroke:#000000;stroke-opacity:0.4;stroke-width:1.4;" x="324.076506" xlink:href="#mcd862c9a3b" y="183.12"/>
    </g>
   </g>
   <g id="PathCollection_7">
    <g>
     <use style="fill-opacity:0.4;stroke:#000000;stroke-opacity:0.4;stroke-width:1.4;" x="364.476187" xlink:href="#mcd862c9a3b" y="218.4"/>
     <use style="fill-opacity:0.4;stroke:#000000;stroke-opacity:0.4;stroke-width:1.4;" x="365.260181" xlink:href="#mcd862c9a3b" y="206.64"/>
     <use style="fill-opacity:0.4;stroke:#000000;stroke-opacity:0.4;stroke-width:1.4;" x="364.883296" xlink:href="#mcd862c9a3b" y="183.12"/>
    </g>
   </g>
   <g id="PathCollection_8">
    <g>
     <use style="fill-opacity:0.4;stroke:#000000;stroke-opacity:0.4;stroke-width:1.4;" x="409.340972" xlink:href="#mcd862c9a3b" y="206.64"/>
     <use style="fill-opacity:0.4;stroke:#000000;stroke-opacity:0.4;stroke-width:1.4;" x="408.171602" xlink:href="#mcd862c9a3b" y="183.12"/>
     <use style="fill-opacity:0.4;stroke:#000000;stroke-opacity:0.4;stroke-width:1.4;" x="408.227441" xlink:href="#mcd862c9a3b" y="194.88"/>
     <use style="fill-opacity:0.4;stroke:#000000;stroke-opacity:0.4;stroke-width:1.4;" x="409.320884" xlink:href="#mcd862c9a3b" y="183.12"/>
     <use style="fill-opacity:0.4;stroke:#000000;stroke-opacity:0.4;stroke-width:1.4;" x="406.771112" xlink:href="#mcd862c9a3b" y="183.12"/>
     <use style="fill-opacity:0.4;stroke:#000000;stroke-opacity:0.4;stroke-width:1.4;" x="407.842676" xlink:href="#mcd862c9a3b" y="171.36"/>
     <use style="fill-opacity:0.4;stroke:#000000;stroke-opacity:0.4;stroke-width:1.4;" x="408.628047" xlink:href="#mcd862c9a3b" y="218.4"/>
    </g>
   </g>
   <g id="PathCollection_9">
    <g>
     <use style="fill-opacity:0.4;stroke:#000000;stroke-opacity:0.4;stroke-width:1.4;" x="454.454474" xlink:href="#mcd862c9a3b" y="171.36"/>
     <use style="fill-opacity:0.4;stroke:#000000;stroke-opacity:0.4;stroke-width:1.4;" x="453.493832" xlink:href="#mcd862c9a3b" y="183.12"/>
     <use style="fill-opacity:0.4;stroke:#000000;stroke-opacity:0.4;stroke-width:1.4;" x="451.911264" xlink:href="#mcd862c9a3b" y="171.36"/>
     <use style="fill-opacity:0.4;stroke:#000000;stroke-opacity:0.4;stroke-width:1.4;" x="452.130426" xlink:href="#mcd862c9a3b" y="194.88"/>
     <use style="fill-opacity:0.4;stroke:#000000;stroke-opacity:0.4;stroke-width:1.4;" x="452.131208" xlink:href="#mcd862c9a3b" y="194.88"/>
    </g>
   </g>
   <g id="PathCollection_10">
    <defs>
     <path d="M -2.738613 0 
L 2.738613 0 
M 0 2.738613 
L 0 -2.738613 
" id="mf8e09ba555" style="stroke:#000000;stroke-opacity:0.4;stroke-width:1.4;"/>
    </defs>
    <g>
     <use style="fill-opacity:0.4;stroke:#000000;stroke-opacity:0.4;stroke-width:1.4;" x="107.367688" xlink:href="#mf8e09ba555" y="171.36"/>
     <use style="fill-opacity:0.4;stroke:#000000;stroke-opacity:0.4;stroke-width:1.4;" x="108.943716" xlink:href="#mf8e09ba555" y="100.8"/>
    </g>
   </g>
   <g id="PathCollection_11">
    <g>
     <use style="fill-opacity:0.4;stroke:#000000;stroke-opacity:0.4;stroke-width:1.4;" x="149.590856" xlink:href="#mf8e09ba555" y="147.84"/>
     <use style="fill-opacity:0.4;stroke:#000000;stroke-opacity:0.4;stroke-width:1.4;" x="150.384742" xlink:href="#mf8e09ba555" y="147.84"/>
     <use style="fill-opacity:0.4;stroke:#000000;stroke-opacity:0.4;stroke-width:1.4;" x="150.833312" xlink:href="#mf8e09ba555" y="147.84"/>
     <use style="fill-opacity:0.4;stroke:#000000;stroke-opacity:0.4;stroke-width:1.4;" x="149.136022" xlink:href="#mf8e09ba555" y="147.84"/>
     <use style="fill-opacity:0.4;stroke:#000000;stroke-opacity:0.4;stroke-width:1.4;" x="149.911906" xlink:href="#mf8e09ba555" y="136.08"/>
    </g>
   </g>
   <g id="PathCollection_12">
    <g>
     <use style="fill-opacity:0.4;stroke:#000000;stroke-opacity:0.4;stroke-width:1.4;" x="193.734487" xlink:href="#mf8e09ba555" y="147.84"/>
     <use style="fill-opacity:0.4;stroke:#000000;stroke-opacity:0.4;stroke-width:1.4;" x="195.216819" xlink:href="#mf8e09ba555" y="171.36"/>
     <use style="fill-opacity:0.4;stroke:#000000;stroke-opacity:0.4;stroke-width:1.4;" x="194.451858" xlink:href="#mf8e09ba555" y="89.04"/>
     <use style="fill-opacity:0.4;stroke:#000000;stroke-opacity:0.4;stroke-width:1.4;" x="191.766621" xlink:href="#mf8e09ba555" y="171.36"/>
     <use style="fill-opacity:0.4;stroke:#000000;stroke-opacity:0.4;stroke-width:1.4;" x="194.316633" xlink:href="#mf8e09ba555" y="147.84"/>
     <use style="fill-opacity:0.4;stroke:#000000;stroke-opacity:0.4;stroke-width:1.4;" x="193.245133" xlink:href="#mf8e09ba555" y="136.08"/>
    </g>
   </g>
   <g id="PathCollection_13">
    <g>
     <use style="fill-opacity:0.4;stroke:#000000;stroke-opacity:0.4;stroke-width:1.4;" x="239.565582" xlink:href="#mf8e09ba555" y="171.36"/>
     <use style="fill-opacity:0.4;stroke:#000000;stroke-opacity:0.4;stroke-width:1.4;" x="234.902935" xlink:href="#mf8e09ba555" y="65.52"/>
     <use style="fill-opacity:0.4;stroke:#000000;stroke-opacity:0.4;stroke-width:1.4;" x="232.856917" xlink:href="#mf8e09ba555" y="159.6"/>
     <use style="fill-opacity:0.4;stroke:#000000;stroke-opacity:0.4;stroke-width:1.4;" x="235.342346" xlink:href="#mf8e09ba555" y="147.84"/>
    </g>
   </g>
   <g id="PathCollection_14">
    <g>
     <use style="fill-opacity:0.4;stroke:#000000;stroke-opacity:0.4;stroke-width:1.4;" x="278.179397" xlink:href="#mf8e09ba555" y="112.56"/>
     <use style="fill-opacity:0.4;stroke:#000000;stroke-opacity:0.4;stroke-width:1.4;" x="279.593892" xlink:href="#mf8e09ba555" y="124.32"/>
     <use style="fill-opacity:0.4;stroke:#000000;stroke-opacity:0.4;stroke-width:1.4;" x="279.891499" xlink:href="#mf8e09ba555" y="171.36"/>
     <use style="fill-opacity:0.4;stroke:#000000;stroke-opacity:0.4;stroke-width:1.4;" x="282.277821" xlink:href="#mf8e09ba555" y="89.04"/>
     <use style="fill-opacity:0.4;stroke:#000000;stroke-opacity:0.4;stroke-width:1.4;" x="278.462799" xlink:href="#mf8e09ba555" y="171.36"/>
     <use style="fill-opacity:0.4;stroke:#000000;stroke-opacity:0.4;stroke-width:1.4;" x="280.125033" xlink:href="#mf8e09ba555" y="147.84"/>
    </g>
   </g>
   <g id="PathCollection_15">
    <g>
     <use style="fill-opacity:0.4;stroke:#000000;stroke-opacity:0.4;stroke-width:1.4;" x="320.506773" xlink:href="#mf8e09ba555" y="159.6"/>
     <use style="fill-opacity:0.4;stroke:#000000;stroke-opacity:0.4;stroke-width:1.4;" x="325.408285" xlink:href="#mf8e09ba555" y="112.56"/>
     <use style="fill-opacity:0.4;stroke:#000000;stroke-opacity:0.4;stroke-width:1.4;" x="324.394265" xlink:href="#mf8e09ba555" y="112.56"/>
     <use style="fill-opacity:0.4;stroke:#000000;stroke-opacity:0.4;stroke-width:1.4;" x="321.830338" xlink:href="#mf8e09ba555" y="100.8"/>
     <use style="fill-opacity:0.4;stroke:#000000;stroke-opacity:0.4;stroke-width:1.4;" x="324.665542" xlink:href="#mf8e09ba555" y="136.08"/>
     <use style="fill-opacity:0.4;stroke:#000000;stroke-opacity:0.4;stroke-width:1.4;" x="322.381868" xlink:href="#mf8e09ba555" y="171.36"/>
    </g>
   </g>
   <g id="PathCollection_16">
    <g>
     <use style="fill-opacity:0.4;stroke:#000000;stroke-opacity:0.4;stroke-width:1.4;" x="363.280346" xlink:href="#mf8e09ba555" y="159.6"/>
     <use style="fill-opacity:0.4;stroke:#000000;stroke-opacity:0.4;stroke-width:1.4;" x="364.827852" xlink:href="#mf8e09ba555" y="147.84"/>
     <use style="fill-opacity:0.4;stroke:#000000;stroke-opacity:0.4;stroke-width:1.4;" x="365.833064" xlink:href="#mf8e09ba555" y="147.84"/>
    </g>
   </g>
   <g id="PathCollection_17">
    <g>
     <use style="fill-opacity:0.4;stroke:#000000;stroke-opacity:0.4;stroke-width:1.4;" x="407.299637" xlink:href="#mf8e09ba555" y="171.36"/>
     <use style="fill-opacity:0.4;stroke:#000000;stroke-opacity:0.4;stroke-width:1.4;" x="408.738571" xlink:href="#mf8e09ba555" y="100.8"/>
     <use style="fill-opacity:0.4;stroke:#000000;stroke-opacity:0.4;stroke-width:1.4;" x="409.147084" xlink:href="#mf8e09ba555" y="136.08"/>
     <use style="fill-opacity:0.4;stroke:#000000;stroke-opacity:0.4;stroke-width:1.4;" x="409.760055" xlink:href="#mf8e09ba555" y="171.36"/>
     <use style="fill-opacity:0.4;stroke:#000000;stroke-opacity:0.4;stroke-width:1.4;" x="407.210957" xlink:href="#mf8e09ba555" y="171.36"/>
     <use style="fill-opacity:0.4;stroke:#000000;stroke-opacity:0.4;stroke-width:1.4;" x="406.574146" xlink:href="#mf8e09ba555" y="100.8"/>
     <use style="fill-opacity:0.4;stroke:#000000;stroke-opacity:0.4;stroke-width:1.4;" x="410.947043" xlink:href="#mf8e09ba555" y="171.36"/>
    </g>
   </g>
   <g id="PathCollection_18">
    <g>
     <use style="fill-opacity:0.4;stroke:#000000;stroke-opacity:0.4;stroke-width:1.4;" x="450.995954" xlink:href="#mf8e09ba555" y="136.08"/>
     <use style="fill-opacity:0.4;stroke:#000000;stroke-opacity:0.4;stroke-width:1.4;" x="454.572352" xlink:href="#mf8e09ba555" y="171.36"/>
     <use style="fill-opacity:0.4;stroke:#000000;stroke-opacity:0.4;stroke-width:1.4;" x="452.339897" xlink:href="#mf8e09ba555" y="89.04"/>
     <use style="fill-opacity:0.4;stroke:#000000;stroke-opacity:0.4;stroke-width:1.4;" x="453.994043" xlink:href="#mf8e09ba555" y="171.36"/>
     <use style="fill-opacity:0.4;stroke:#000000;stroke-opacity:0.4;stroke-width:1.4;" x="455.364875" xlink:href="#mf8e09ba555" y="171.36"/>
    </g>
   </g>
  </g>
  <g id="axes_2">
   <g id="matplotlib.axis_3">
    <g id="ytick_7">
     <g id="line2d_13">
      <defs>
       <path d="M 0 0 
L 3.5 0 
" id="m818efb5676" style="stroke:#000000;stroke-width:0.8;"/>
      </defs>
      <g>
       <use style="stroke:#000000;stroke-width:0.8;" x="482.4" xlink:href="#m818efb5676" y="65.52"/>
      </g>
     </g>
     <g id="text_20">
      <!-- 10 -->
      <g style="fill:#6b6b6b;" transform="translate(489.4 70.535904)scale(0.145 -0.145)">
       <use transform="scale(0.996264)" xlink:href="#CMSS17-49"/>
       <use transform="translate(46.843624 0)scale(0.996264)" xlink:href="#CMSS17-48"/>
      </g>
     </g>
    </g>
    <g id="ytick_8">
     <g id="line2d_14">
      <g>
       <use style="stroke:#000000;stroke-width:0.8;" x="482.4" xlink:href="#m818efb5676" y="100.8"/>
      </g>
     </g>
     <g id="text_21">
      <!-- 7 -->
      <g style="fill:#6b6b6b;" transform="translate(489.4 105.815904)scale(0.145 -0.145)">
       <use transform="scale(0.996264)" xlink:href="#CMSS17-55"/>
      </g>
     </g>
    </g>
    <g id="ytick_9">
     <g id="line2d_15">
      <g>
       <use style="stroke:#000000;stroke-width:0.8;" x="482.4" xlink:href="#m818efb5676" y="136.08"/>
      </g>
     </g>
     <g id="text_22">
      <!-- 4 -->
      <g style="fill:#6b6b6b;" transform="translate(489.4 141.095904)scale(0.145 -0.145)">
       <use transform="scale(0.996264)" xlink:href="#CMSS17-52"/>
      </g>
     </g>
    </g>
    <g id="ytick_10">
     <g id="line2d_16">
      <g>
       <use style="stroke:#000000;stroke-width:0.8;" x="482.4" xlink:href="#m818efb5676" y="171.36"/>
      </g>
     </g>
     <g id="text_23">
      <!-- 1 -->
      <g style="fill:#6b6b6b;" transform="translate(489.4 176.375904)scale(0.145 -0.145)">
       <use transform="scale(0.996264)" xlink:href="#CMSS17-49"/>
      </g>
     </g>
    </g>
    <g id="ytick_11">
     <g id="line2d_17">
      <g>
       <use style="stroke:#000000;stroke-width:0.8;" x="482.4" xlink:href="#m818efb5676" y="183.12"/>
      </g>
     </g>
     <g id="text_24">
      <!-- 0 -->
      <g style="fill:#6b6b6b;" transform="translate(489.4 188.135904)scale(0.145 -0.145)">
       <use transform="scale(0.996264)" xlink:href="#CMSS17-48"/>
      </g>
     </g>
    </g>
    <g id="ytick_12">
     <g id="line2d_18">
      <g>
       <use style="stroke:#000000;stroke-width:0.8;" x="482.4" xlink:href="#m818efb5676" y="206.64"/>
      </g>
     </g>
    </g>
    <g id="text_25">
     <!-- circles, fold direct. -->
     <g style="fill:#6b6b6b;" transform="translate(519.998011 200.598105)rotate(-90)scale(0.18 -0.18)">
      <defs>
       <path d="M 14.796875 69 
L 7.40625 69 
L 7.40625 0 
L 14.796875 0 
z
" id="CMSS17-108"/>
       <path d="M 17 0.09375 
L 17 7.96875 
L 9 7.96875 
L 9 0 
L 11.5 0 
L 8.90625 -12.5 
L 12.90625 -12.5 
z
" id="CMSS17-44"/>
       <path d="M 16.796875 37 
L 26.90625 37 
L 26.90625 42.765625 
L 16.59375 42.765625 
L 16.59375 55.609375 
C 16.59375 62.71875 22 63.9375 25.09375 63.9375 
C 26.09375 63.9375 28.90625 63.9375 32.5 62.640625 
L 32.5 69.203125 
C 30.203125 69.703125 27.40625 70 25.203125 70 
C 15.90625 70 9.40625 62.390625 9.40625 52.484375 
L 9.40625 42.765625 
L 2.5 42.765625 
L 2.5 37 
L 9.40625 37 
L 9.40625 0 
L 16.796875 0 
z
" id="CMSS17-102"/>
       <path d="M 17 7.96875 
L 9 7.96875 
L 9 0 
L 17 0 
z
" id="CMSS17-46"/>
      </defs>
      <use transform="scale(0.996264)" xlink:href="#CMSS17-99"/>
      <use transform="translate(41.638822 0)scale(0.996264)" xlink:href="#CMSS17-105"/>
      <use transform="translate(63.819545 0)scale(0.996264)" xlink:href="#CMSS17-114"/>
      <use transform="translate(95.729318 0)scale(0.996264)" xlink:href="#CMSS17-99"/>
      <use transform="translate(137.36814 0)scale(0.996264)" xlink:href="#CMSS17-108"/>
      <use transform="translate(159.548863 0)scale(0.996264)" xlink:href="#CMSS17-101"/>
      <use transform="translate(201.187685 0)scale(0.996264)" xlink:href="#CMSS17-115"/>
      <use transform="translate(237.101227 0)scale(0.996264)" xlink:href="#CMSS17-44"/>
      <use transform="translate(294.354544 0)scale(0.996264)" xlink:href="#CMSS17-102"/>
      <use transform="translate(322.981203 0)scale(0.996264)" xlink:href="#CMSS17-111"/>
      <use transform="translate(369.824827 0)scale(0.996264)" xlink:href="#CMSS17-108"/>
      <use transform="translate(392.00555 0)scale(0.996264)" xlink:href="#CMSS17-100"/>
      <use transform="translate(471.439606 0)scale(0.996264)" xlink:href="#CMSS17-100"/>
      <use transform="translate(519.644549 0)scale(0.996264)" xlink:href="#CMSS17-105"/>
      <use transform="translate(541.825272 0)scale(0.996264)" xlink:href="#CMSS17-114"/>
      <use transform="translate(573.735044 0)scale(0.996264)" xlink:href="#CMSS17-101"/>
      <use transform="translate(615.373867 0)scale(0.996264)" xlink:href="#CMSS17-99"/>
      <use transform="translate(657.012689 0)scale(0.996264)" xlink:href="#CMSS17-116"/>
      <use transform="translate(690.844255 0)scale(0.996264)" xlink:href="#CMSS17-46"/>
     </g>
    </g>
   </g>
   <g id="patch_9">
    <path d="M 72 241.92 
L 72 30.24 
" style="fill:none;stroke:#000000;stroke-linecap:square;stroke-linejoin:miter;stroke-width:0.8;"/>
   </g>
   <g id="patch_10">
    <path d="M 482.4 241.92 
L 482.4 30.24 
" style="fill:none;stroke:#000000;stroke-linecap:square;stroke-linejoin:miter;stroke-width:0.8;"/>
   </g>
   <g id="patch_11">
    <path d="M 72 241.92 
L 482.4 241.92 
" style="fill:none;stroke:#000000;stroke-linecap:square;stroke-linejoin:miter;stroke-width:0.8;"/>
   </g>
   <g id="patch_12">
    <path d="M 72 30.24 
L 482.4 30.24 
" style="fill:none;stroke:#000000;stroke-linecap:square;stroke-linejoin:miter;stroke-width:0.8;"/>
   </g>
   <g id="PathCollection_19">
    <defs>
     <path d="M 0 2.95804 
C 0.784481 2.95804 1.536938 2.646362 2.09165 2.09165 
C 2.646362 1.536938 2.95804 0.784481 2.95804 -0 
C 2.95804 -0.784481 2.646362 -1.536938 2.09165 -2.09165 
C 1.536938 -2.646362 0.784481 -2.95804 0 -2.95804 
C -0.784481 -2.95804 -1.536938 -2.646362 -2.09165 -2.09165 
C -2.646362 -1.536938 -2.95804 -0.784481 -2.95804 0 
C -2.95804 0.784481 -2.646362 1.536938 -2.09165 2.09165 
C -1.536938 2.646362 -0.784481 2.95804 0 2.95804 
z
" id="C0_0_d7fa8639c1"/>
    </defs>
    <use style="fill:#de9ed6;fill-opacity:0.75;stroke:#de9ed6;stroke-opacity:0.75;stroke-width:1.4;" x="108.232814" xlink:href="#C0_0_d7fa8639c1" y="177.24"/>
    <use style="fill:#de9ed6;fill-opacity:0.75;stroke:#de9ed6;stroke-opacity:0.75;stroke-width:1.4;" x="110.107493" xlink:href="#C0_0_d7fa8639c1" y="100.8"/>
   </g>
   <g id="PathCollection_20">
    <defs>
     <path d="M 0 2.95804 
C 0.784481 2.95804 1.536938 2.646362 2.09165 2.09165 
C 2.646362 1.536938 2.95804 0.784481 2.95804 -0 
C 2.95804 -0.784481 2.646362 -1.536938 2.09165 -2.09165 
C 1.536938 -2.646362 0.784481 -2.95804 0 -2.95804 
C -0.784481 -2.95804 -1.536938 -2.646362 -2.09165 -2.09165 
C -2.646362 -1.536938 -2.95804 -0.784481 -2.95804 0 
C -2.95804 0.784481 -2.646362 1.536938 -2.09165 2.09165 
C -1.536938 2.646362 -0.784481 2.95804 0 2.95804 
z
" id="C1_0_25907ab4e0"/>
    </defs>
    <use style="fill:#ad494a;fill-opacity:0.75;stroke:#ad494a;stroke-opacity:0.75;stroke-width:1.4;" x="147.258918" xlink:href="#C1_0_25907ab4e0" y="147.84"/>
    <use style="fill:#ad494a;fill-opacity:0.75;stroke:#ad494a;stroke-opacity:0.75;stroke-width:1.4;" x="151.538245" xlink:href="#C1_0_25907ab4e0" y="147.84"/>
    <use style="fill:#ad494a;fill-opacity:0.75;stroke:#ad494a;stroke-opacity:0.75;stroke-width:1.4;" x="152.503436" xlink:href="#C1_0_25907ab4e0" y="165.48"/>
    <use style="fill:#ad494a;fill-opacity:0.75;stroke:#ad494a;stroke-opacity:0.75;stroke-width:1.4;" x="145.201347" xlink:href="#C1_0_25907ab4e0" y="147.84"/>
    <use style="fill:#ad494a;fill-opacity:0.75;stroke:#ad494a;stroke-opacity:0.75;stroke-width:1.4;" x="149.061697" xlink:href="#C1_0_25907ab4e0" y="136.08"/>
   </g>
   <g id="PathCollection_21">
    <defs>
     <path d="M 0 2.95804 
C 0.784481 2.95804 1.536938 2.646362 2.09165 2.09165 
C 2.646362 1.536938 2.95804 0.784481 2.95804 -0 
C 2.95804 -0.784481 2.646362 -1.536938 2.09165 -2.09165 
C 1.536938 -2.646362 0.784481 -2.95804 0 -2.95804 
C -0.784481 -2.95804 -1.536938 -2.646362 -2.09165 -2.09165 
C -2.646362 -1.536938 -2.95804 -0.784481 -2.95804 0 
C -2.95804 0.784481 -2.646362 1.536938 -2.09165 2.09165 
C -1.536938 2.646362 -0.784481 2.95804 0 2.95804 
z
" id="C2_0_a8af67bde2"/>
    </defs>
    <use style="fill:#843c39;fill-opacity:0.75;stroke:#843c39;stroke-opacity:0.75;stroke-width:1.4;" x="193.152054" xlink:href="#C2_0_a8af67bde2" y="147.84"/>
    <use style="fill:#843c39;fill-opacity:0.75;stroke:#843c39;stroke-opacity:0.75;stroke-width:1.4;" x="197.181371" xlink:href="#C2_0_a8af67bde2" y="177.24"/>
    <use style="fill:#843c39;fill-opacity:0.75;stroke:#843c39;stroke-opacity:0.75;stroke-width:1.4;" x="189.382777" xlink:href="#C2_0_a8af67bde2" y="89.04"/>
    <use style="fill:#843c39;fill-opacity:0.75;stroke:#843c39;stroke-opacity:0.75;stroke-width:1.4;" x="192.81602" xlink:href="#C2_0_a8af67bde2" y="177.24"/>
    <use style="fill:#843c39;fill-opacity:0.75;stroke:#843c39;stroke-opacity:0.75;stroke-width:1.4;" x="193.955498" xlink:href="#C2_0_a8af67bde2" y="147.84"/>
    <use style="fill:#843c39;fill-opacity:0.75;stroke:#843c39;stroke-opacity:0.75;stroke-width:1.4;" x="192.875255" xlink:href="#C2_0_a8af67bde2" y="136.08"/>
   </g>
   <g id="PathCollection_22">
    <defs>
     <path d="M 0 2.95804 
C 0.784481 2.95804 1.536938 2.646362 2.09165 2.09165 
C 2.646362 1.536938 2.95804 0.784481 2.95804 -0 
C 2.95804 -0.784481 2.646362 -1.536938 2.09165 -2.09165 
C 1.536938 -2.646362 0.784481 -2.95804 0 -2.95804 
C -0.784481 -2.95804 -1.536938 -2.646362 -2.09165 -2.09165 
C -2.646362 -1.536938 -2.95804 -0.784481 -2.95804 0 
C -2.95804 0.784481 -2.646362 1.536938 -2.09165 2.09165 
C -1.536938 2.646362 -0.784481 2.95804 0 2.95804 
z
" id="C3_0_a98c2c8ca4"/>
    </defs>
    <use style="fill:#ce6dbd;fill-opacity:0.75;stroke:#ce6dbd;stroke-opacity:0.75;stroke-width:1.4;" x="230.80119" xlink:href="#C3_0_a98c2c8ca4" y="179.2"/>
    <use style="fill:#ce6dbd;fill-opacity:0.75;stroke:#ce6dbd;stroke-opacity:0.75;stroke-width:1.4;" x="235.929001" xlink:href="#C3_0_a98c2c8ca4" y="143.92"/>
    <use style="fill:#ce6dbd;fill-opacity:0.75;stroke:#ce6dbd;stroke-opacity:0.75;stroke-width:1.4;" x="237.110223" xlink:href="#C3_0_a98c2c8ca4" y="159.6"/>
    <use style="fill:#ce6dbd;fill-opacity:0.75;stroke:#ce6dbd;stroke-opacity:0.75;stroke-width:1.4;" x="233.723832" xlink:href="#C3_0_a98c2c8ca4" y="147.84"/>
   </g>
   <g id="PathCollection_23">
    <defs>
     <path d="M 0 2.95804 
C 0.784481 2.95804 1.536938 2.646362 2.09165 2.09165 
C 2.646362 1.536938 2.95804 0.784481 2.95804 -0 
C 2.95804 -0.784481 2.646362 -1.536938 2.09165 -2.09165 
C 1.536938 -2.646362 0.784481 -2.95804 0 -2.95804 
C -0.784481 -2.95804 -1.536938 -2.646362 -2.09165 -2.09165 
C -2.646362 -1.536938 -2.95804 -0.784481 -2.95804 0 
C -2.95804 0.784481 -2.646362 1.536938 -2.09165 2.09165 
C -1.536938 2.646362 -0.784481 2.95804 0 2.95804 
z
" id="C4_0_428eddcfac"/>
    </defs>
    <use style="fill:#a55194;fill-opacity:0.75;stroke:#a55194;stroke-opacity:0.75;stroke-width:1.4;" x="278.028057" xlink:href="#C4_0_428eddcfac" y="159.6"/>
    <use style="fill:#a55194;fill-opacity:0.75;stroke:#a55194;stroke-opacity:0.75;stroke-width:1.4;" x="276.614519" xlink:href="#C4_0_428eddcfac" y="124.32"/>
    <use style="fill:#a55194;fill-opacity:0.75;stroke:#a55194;stroke-opacity:0.75;stroke-width:1.4;" x="279.197536" xlink:href="#C4_0_428eddcfac" y="180.18"/>
    <use style="fill:#a55194;fill-opacity:0.75;stroke:#a55194;stroke-opacity:0.75;stroke-width:1.4;" x="281.835729" xlink:href="#C4_0_428eddcfac" y="89.04"/>
    <use style="fill:#a55194;fill-opacity:0.75;stroke:#a55194;stroke-opacity:0.75;stroke-width:1.4;" x="280.666489" xlink:href="#C4_0_428eddcfac" y="177.24"/>
    <use style="fill:#a55194;fill-opacity:0.75;stroke:#a55194;stroke-opacity:0.75;stroke-width:1.4;" x="277.304874" xlink:href="#C4_0_428eddcfac" y="147.84"/>
   </g>
   <g id="PathCollection_24">
    <defs>
     <path d="M 0 2.95804 
C 0.784481 2.95804 1.536938 2.646362 2.09165 2.09165 
C 2.646362 1.536938 2.95804 0.784481 2.95804 -0 
C 2.95804 -0.784481 2.646362 -1.536938 2.09165 -2.09165 
C 1.536938 -2.646362 0.784481 -2.95804 0 -2.95804 
C -0.784481 -2.95804 -1.536938 -2.646362 -2.09165 -2.09165 
C -2.646362 -1.536938 -2.95804 -0.784481 -2.95804 0 
C -2.95804 0.784481 -2.646362 1.536938 -2.09165 2.09165 
C -1.536938 2.646362 -0.784481 2.95804 0 2.95804 
z
" id="C5_0_6bc79a836c"/>
    </defs>
    <use style="fill:#7b4173;fill-opacity:0.75;stroke:#7b4173;stroke-opacity:0.75;stroke-width:1.4;" x="322.282577" xlink:href="#C5_0_6bc79a836c" y="171.36"/>
    <use style="fill:#7b4173;fill-opacity:0.75;stroke:#7b4173;stroke-opacity:0.75;stroke-width:1.4;" x="319.876652" xlink:href="#C5_0_6bc79a836c" y="112.56"/>
    <use style="fill:#7b4173;fill-opacity:0.75;stroke:#7b4173;stroke-opacity:0.75;stroke-width:1.4;" x="321.124941" xlink:href="#C5_0_6bc79a836c" y="159.6"/>
    <use style="fill:#7b4173;fill-opacity:0.75;stroke:#7b4173;stroke-opacity:0.75;stroke-width:1.4;" x="319.455101" xlink:href="#C5_0_6bc79a836c" y="162.54"/>
    <use style="fill:#7b4173;fill-opacity:0.75;stroke:#7b4173;stroke-opacity:0.75;stroke-width:1.4;" x="322.651403" xlink:href="#C5_0_6bc79a836c" y="136.08"/>
    <use style="fill:#7b4173;fill-opacity:0.75;stroke:#7b4173;stroke-opacity:0.75;stroke-width:1.4;" x="320.746311" xlink:href="#C5_0_6bc79a836c" y="177.24"/>
   </g>
   <g id="PathCollection_25">
    <defs>
     <path d="M 0 2.95804 
C 0.784481 2.95804 1.536938 2.646362 2.09165 2.09165 
C 2.646362 1.536938 2.95804 0.784481 2.95804 -0 
C 2.95804 -0.784481 2.646362 -1.536938 2.09165 -2.09165 
C 1.536938 -2.646362 0.784481 -2.95804 0 -2.95804 
C -0.784481 -2.95804 -1.536938 -2.646362 -2.09165 -2.09165 
C -2.646362 -1.536938 -2.95804 -0.784481 -2.95804 0 
C -2.95804 0.784481 -2.646362 1.536938 -2.09165 2.09165 
C -1.536938 2.646362 -0.784481 2.95804 0 2.95804 
z
" id="C6_0_ed6657a495"/>
    </defs>
    <use style="fill:#e7969c;fill-opacity:0.75;stroke:#e7969c;stroke-opacity:0.75;stroke-width:1.4;" x="365.468846" xlink:href="#C6_0_ed6657a495" y="178.416"/>
    <use style="fill:#e7969c;fill-opacity:0.75;stroke:#e7969c;stroke-opacity:0.75;stroke-width:1.4;" x="365.187247" xlink:href="#C6_0_ed6657a495" y="174.3"/>
    <use style="fill:#e7969c;fill-opacity:0.75;stroke:#e7969c;stroke-opacity:0.75;stroke-width:1.4;" x="367.72346" xlink:href="#C6_0_ed6657a495" y="165.48"/>
   </g>
   <g id="PathCollection_26">
    <defs>
     <path d="M 0 2.95804 
C 0.784481 2.95804 1.536938 2.646362 2.09165 2.09165 
C 2.646362 1.536938 2.95804 0.784481 2.95804 -0 
C 2.95804 -0.784481 2.646362 -1.536938 2.09165 -2.09165 
C 1.536938 -2.646362 0.784481 -2.95804 0 -2.95804 
C -0.784481 -2.95804 -1.536938 -2.646362 -2.09165 -2.09165 
C -2.646362 -1.536938 -2.95804 -0.784481 -2.95804 0 
C -2.95804 0.784481 -2.646362 1.536938 -2.09165 2.09165 
C -1.536938 2.646362 -0.784481 2.95804 0 2.95804 
z
" id="C7_0_32e0e74078"/>
    </defs>
    <use style="fill:#d6616b;fill-opacity:0.75;stroke:#d6616b;stroke-opacity:0.75;stroke-width:1.4;" x="408.247066" xlink:href="#C7_0_32e0e74078" y="180.18"/>
    <use style="fill:#d6616b;fill-opacity:0.75;stroke:#d6616b;stroke-opacity:0.75;stroke-width:1.4;" x="402.99342" xlink:href="#C7_0_32e0e74078" y="141.96"/>
    <use style="fill:#d6616b;fill-opacity:0.75;stroke:#d6616b;stroke-opacity:0.75;stroke-width:1.4;" x="405.032625" xlink:href="#C7_0_32e0e74078" y="167.44"/>
    <use style="fill:#d6616b;fill-opacity:0.75;stroke:#d6616b;stroke-opacity:0.75;stroke-width:1.4;" x="412.502938" xlink:href="#C7_0_32e0e74078" y="177.24"/>
    <use style="fill:#d6616b;fill-opacity:0.75;stroke:#d6616b;stroke-opacity:0.75;stroke-width:1.4;" x="408.314499" xlink:href="#C7_0_32e0e74078" y="177.24"/>
    <use style="fill:#d6616b;fill-opacity:0.75;stroke:#d6616b;stroke-opacity:0.75;stroke-width:1.4;" x="410.454436" xlink:href="#C7_0_32e0e74078" y="100.8"/>
    <use style="fill:#d6616b;fill-opacity:0.75;stroke:#d6616b;stroke-opacity:0.75;stroke-width:1.4;" x="409.76676" xlink:href="#C7_0_32e0e74078" y="180.768"/>
   </g>
   <g id="PathCollection_27">
    <defs>
     <path d="M 0 2.95804 
C 0.784481 2.95804 1.536938 2.646362 2.09165 2.09165 
C 2.646362 1.536938 2.95804 0.784481 2.95804 -0 
C 2.95804 -0.784481 2.646362 -1.536938 2.09165 -2.09165 
C 1.536938 -2.646362 0.784481 -2.95804 0 -2.95804 
C -0.784481 -2.95804 -1.536938 -2.646362 -2.09165 -2.09165 
C -2.646362 -1.536938 -2.95804 -0.784481 -2.95804 0 
C -2.95804 0.784481 -2.646362 1.536938 -2.09165 2.09165 
C -1.536938 2.646362 -0.784481 2.95804 0 2.95804 
z
" id="C8_0_56ef9a5b2f"/>
    </defs>
    <use style="fill:#e7cb94;fill-opacity:0.75;stroke:#e7cb94;stroke-opacity:0.75;stroke-width:1.4;" x="455.061938" xlink:href="#C8_0_56ef9a5b2f" y="136.08"/>
    <use style="fill:#e7cb94;fill-opacity:0.75;stroke:#e7cb94;stroke-opacity:0.75;stroke-width:1.4;" x="451.828438" xlink:href="#C8_0_56ef9a5b2f" y="177.24"/>
    <use style="fill:#e7cb94;fill-opacity:0.75;stroke:#e7cb94;stroke-opacity:0.75;stroke-width:1.4;" x="449.683239" xlink:href="#C8_0_56ef9a5b2f" y="89.04"/>
    <use style="fill:#e7cb94;fill-opacity:0.75;stroke:#e7cb94;stroke-opacity:0.75;stroke-width:1.4;" x="447.996091" xlink:href="#C8_0_56ef9a5b2f" y="179.2"/>
    <use style="fill:#e7cb94;fill-opacity:0.75;stroke:#e7cb94;stroke-opacity:0.75;stroke-width:1.4;" x="450.199539" xlink:href="#C8_0_56ef9a5b2f" y="179.2"/>
   </g>
   <g id="PathCollection_28">
    <defs>
     <path id="mcd169e78d5" style="stroke:#000000;stroke-opacity:0.5;stroke-width:1.4;"/>
    </defs>
    <g>
     <use style="fill-opacity:0.5;stroke:#000000;stroke-opacity:0.5;stroke-width:1.4;" x="108.232814" xlink:href="#mcd169e78d5" y="177.24"/>
     <use style="fill-opacity:0.5;stroke:#000000;stroke-opacity:0.5;stroke-width:1.4;" x="110.107493" xlink:href="#mcd169e78d5" y="100.8"/>
    </g>
   </g>
   <g id="PathCollection_29">
    <g>
     <use style="fill-opacity:0.5;stroke:#000000;stroke-opacity:0.5;stroke-width:1.4;" x="147.258918" xlink:href="#mcd169e78d5" y="147.84"/>
     <use style="fill-opacity:0.5;stroke:#000000;stroke-opacity:0.5;stroke-width:1.4;" x="151.538245" xlink:href="#mcd169e78d5" y="147.84"/>
     <use style="fill-opacity:0.5;stroke:#000000;stroke-opacity:0.5;stroke-width:1.4;" x="152.503436" xlink:href="#mcd169e78d5" y="165.48"/>
     <use style="fill-opacity:0.5;stroke:#000000;stroke-opacity:0.5;stroke-width:1.4;" x="145.201347" xlink:href="#mcd169e78d5" y="147.84"/>
     <use style="fill-opacity:0.5;stroke:#000000;stroke-opacity:0.5;stroke-width:1.4;" x="149.061697" xlink:href="#mcd169e78d5" y="136.08"/>
    </g>
   </g>
   <g id="PathCollection_30">
    <g>
     <use style="fill-opacity:0.5;stroke:#000000;stroke-opacity:0.5;stroke-width:1.4;" x="193.152054" xlink:href="#mcd169e78d5" y="147.84"/>
     <use style="fill-opacity:0.5;stroke:#000000;stroke-opacity:0.5;stroke-width:1.4;" x="197.181371" xlink:href="#mcd169e78d5" y="177.24"/>
     <use style="fill-opacity:0.5;stroke:#000000;stroke-opacity:0.5;stroke-width:1.4;" x="189.382777" xlink:href="#mcd169e78d5" y="89.04"/>
     <use style="fill-opacity:0.5;stroke:#000000;stroke-opacity:0.5;stroke-width:1.4;" x="192.81602" xlink:href="#mcd169e78d5" y="177.24"/>
     <use style="fill-opacity:0.5;stroke:#000000;stroke-opacity:0.5;stroke-width:1.4;" x="193.955498" xlink:href="#mcd169e78d5" y="147.84"/>
     <use style="fill-opacity:0.5;stroke:#000000;stroke-opacity:0.5;stroke-width:1.4;" x="192.875255" xlink:href="#mcd169e78d5" y="136.08"/>
    </g>
   </g>
   <g id="PathCollection_31">
    <g>
     <use style="fill-opacity:0.5;stroke:#000000;stroke-opacity:0.5;stroke-width:1.4;" x="230.80119" xlink:href="#mcd169e78d5" y="179.2"/>
     <use style="fill-opacity:0.5;stroke:#000000;stroke-opacity:0.5;stroke-width:1.4;" x="235.929001" xlink:href="#mcd169e78d5" y="143.92"/>
     <use style="fill-opacity:0.5;stroke:#000000;stroke-opacity:0.5;stroke-width:1.4;" x="237.110223" xlink:href="#mcd169e78d5" y="159.6"/>
     <use style="fill-opacity:0.5;stroke:#000000;stroke-opacity:0.5;stroke-width:1.4;" x="233.723832" xlink:href="#mcd169e78d5" y="147.84"/>
    </g>
   </g>
   <g id="PathCollection_32">
    <g>
     <use style="fill-opacity:0.5;stroke:#000000;stroke-opacity:0.5;stroke-width:1.4;" x="278.028057" xlink:href="#mcd169e78d5" y="159.6"/>
     <use style="fill-opacity:0.5;stroke:#000000;stroke-opacity:0.5;stroke-width:1.4;" x="276.614519" xlink:href="#mcd169e78d5" y="124.32"/>
     <use style="fill-opacity:0.5;stroke:#000000;stroke-opacity:0.5;stroke-width:1.4;" x="279.197536" xlink:href="#mcd169e78d5" y="180.18"/>
     <use style="fill-opacity:0.5;stroke:#000000;stroke-opacity:0.5;stroke-width:1.4;" x="281.835729" xlink:href="#mcd169e78d5" y="89.04"/>
     <use style="fill-opacity:0.5;stroke:#000000;stroke-opacity:0.5;stroke-width:1.4;" x="280.666489" xlink:href="#mcd169e78d5" y="177.24"/>
     <use style="fill-opacity:0.5;stroke:#000000;stroke-opacity:0.5;stroke-width:1.4;" x="277.304874" xlink:href="#mcd169e78d5" y="147.84"/>
    </g>
   </g>
   <g id="PathCollection_33">
    <g>
     <use style="fill-opacity:0.5;stroke:#000000;stroke-opacity:0.5;stroke-width:1.4;" x="322.282577" xlink:href="#mcd169e78d5" y="171.36"/>
     <use style="fill-opacity:0.5;stroke:#000000;stroke-opacity:0.5;stroke-width:1.4;" x="319.876652" xlink:href="#mcd169e78d5" y="112.56"/>
     <use style="fill-opacity:0.5;stroke:#000000;stroke-opacity:0.5;stroke-width:1.4;" x="321.124941" xlink:href="#mcd169e78d5" y="159.6"/>
     <use style="fill-opacity:0.5;stroke:#000000;stroke-opacity:0.5;stroke-width:1.4;" x="319.455101" xlink:href="#mcd169e78d5" y="162.54"/>
     <use style="fill-opacity:0.5;stroke:#000000;stroke-opacity:0.5;stroke-width:1.4;" x="322.651403" xlink:href="#mcd169e78d5" y="136.08"/>
     <use style="fill-opacity:0.5;stroke:#000000;stroke-opacity:0.5;stroke-width:1.4;" x="320.746311" xlink:href="#mcd169e78d5" y="177.24"/>
    </g>
   </g>
   <g id="PathCollection_34">
    <g>
     <use style="fill-opacity:0.5;stroke:#000000;stroke-opacity:0.5;stroke-width:1.4;" x="365.468846" xlink:href="#mcd169e78d5" y="178.416"/>
     <use style="fill-opacity:0.5;stroke:#000000;stroke-opacity:0.5;stroke-width:1.4;" x="365.187247" xlink:href="#mcd169e78d5" y="174.3"/>
     <use style="fill-opacity:0.5;stroke:#000000;stroke-opacity:0.5;stroke-width:1.4;" x="367.72346" xlink:href="#mcd169e78d5" y="165.48"/>
    </g>
   </g>
   <g id="PathCollection_35">
    <g>
     <use style="fill-opacity:0.5;stroke:#000000;stroke-opacity:0.5;stroke-width:1.4;" x="408.247066" xlink:href="#mcd169e78d5" y="180.18"/>
     <use style="fill-opacity:0.5;stroke:#000000;stroke-opacity:0.5;stroke-width:1.4;" x="402.99342" xlink:href="#mcd169e78d5" y="141.96"/>
     <use style="fill-opacity:0.5;stroke:#000000;stroke-opacity:0.5;stroke-width:1.4;" x="405.032625" xlink:href="#mcd169e78d5" y="167.44"/>
     <use style="fill-opacity:0.5;stroke:#000000;stroke-opacity:0.5;stroke-width:1.4;" x="412.502938" xlink:href="#mcd169e78d5" y="177.24"/>
     <use style="fill-opacity:0.5;stroke:#000000;stroke-opacity:0.5;stroke-width:1.4;" x="408.314499" xlink:href="#mcd169e78d5" y="177.24"/>
     <use style="fill-opacity:0.5;stroke:#000000;stroke-opacity:0.5;stroke-width:1.4;" x="410.454436" xlink:href="#mcd169e78d5" y="100.8"/>
     <use style="fill-opacity:0.5;stroke:#000000;stroke-opacity:0.5;stroke-width:1.4;" x="409.76676" xlink:href="#mcd169e78d5" y="180.768"/>
    </g>
   </g>
   <g id="PathCollection_36">
    <g>
     <use style="fill-opacity:0.5;stroke:#000000;stroke-opacity:0.5;stroke-width:1.4;" x="455.061938" xlink:href="#mcd169e78d5" y="136.08"/>
     <use style="fill-opacity:0.5;stroke:#000000;stroke-opacity:0.5;stroke-width:1.4;" x="451.828438" xlink:href="#mcd169e78d5" y="177.24"/>
     <use style="fill-opacity:0.5;stroke:#000000;stroke-opacity:0.5;stroke-width:1.4;" x="449.683239" xlink:href="#mcd169e78d5" y="89.04"/>
     <use style="fill-opacity:0.5;stroke:#000000;stroke-opacity:0.5;stroke-width:1.4;" x="447.996091" xlink:href="#mcd169e78d5" y="179.2"/>
     <use style="fill-opacity:0.5;stroke:#000000;stroke-opacity:0.5;stroke-width:1.4;" x="450.199539" xlink:href="#mcd169e78d5" y="179.2"/>
    </g>
   </g>
   <g id="PathCollection_37">
    <defs>
     <path d="M 11.18034 0 
L -11.18034 -0 
" id="m52542be046" style="stroke:#000000;stroke-width:1.82;"/>
    </defs>
    <g clip-path="url(#p6f1252fa44)">
     <use style="stroke:#000000;stroke-width:1.82;" x="106.56" xlink:href="#m52542be046" y="139.02"/>
    </g>
   </g>
   <g id="PathCollection_38">
    <g clip-path="url(#p6f1252fa44)">
     <use style="stroke:#000000;stroke-width:1.82;" x="149.76" xlink:href="#m52542be046" y="147.84"/>
    </g>
   </g>
   <g id="PathCollection_39">
    <g clip-path="url(#p6f1252fa44)">
     <use style="stroke:#000000;stroke-width:1.82;" x="192.96" xlink:href="#m52542be046" y="147.84"/>
    </g>
   </g>
   <g id="PathCollection_40">
    <g clip-path="url(#p6f1252fa44)">
     <use style="stroke:#000000;stroke-width:1.82;" x="236.16" xlink:href="#m52542be046" y="153.72"/>
    </g>
   </g>
   <g id="PathCollection_41">
    <g clip-path="url(#p6f1252fa44)">
     <use style="stroke:#000000;stroke-width:1.82;" x="279.36" xlink:href="#m52542be046" y="153.72"/>
    </g>
   </g>
   <g id="PathCollection_42">
    <g clip-path="url(#p6f1252fa44)">
     <use style="stroke:#000000;stroke-width:1.82;" x="322.56" xlink:href="#m52542be046" y="161.07"/>
    </g>
   </g>
   <g id="PathCollection_43">
    <g clip-path="url(#p6f1252fa44)">
     <use style="stroke:#000000;stroke-width:1.82;" x="365.76" xlink:href="#m52542be046" y="174.3"/>
    </g>
   </g>
   <g id="PathCollection_44">
    <g clip-path="url(#p6f1252fa44)">
     <use style="stroke:#000000;stroke-width:1.82;" x="408.96" xlink:href="#m52542be046" y="177.24"/>
    </g>
   </g>
   <g id="PathCollection_45">
    <g clip-path="url(#p6f1252fa44)">
     <use style="stroke:#000000;stroke-width:1.82;" x="452.16" xlink:href="#m52542be046" y="177.24"/>
    </g>
   </g>
   <g id="PathCollection_46">
    <defs>
     <path d="M 0 3.535534 
C 0.937635 3.535534 1.836992 3.163008 2.5 2.5 
C 3.163008 1.836992 3.535534 0.937635 3.535534 0 
C 3.535534 -0.937635 3.163008 -1.836992 2.5 -2.5 
C 1.836992 -3.163008 0.937635 -3.535534 0 -3.535534 
C -0.937635 -3.535534 -1.836992 -3.163008 -2.5 -2.5 
C -3.163008 -1.836992 -3.535534 -0.937635 -3.535534 0 
C -3.535534 0.937635 -3.163008 1.836992 -2.5 2.5 
C -1.836992 3.163008 -0.937635 3.535534 0 3.535534 
z
" id="m8c38f58b32" style="stroke:#000000;stroke-width:1.4;"/>
    </defs>
    <g clip-path="url(#p6f1252fa44)">
     <use style="fill:#de9ed6;stroke:#000000;stroke-width:1.4;" x="106.56" xlink:href="#m8c38f58b32" y="139.02"/>
    </g>
   </g>
   <g id="PathCollection_47">
    <defs>
     <path d="M 0 3.535534 
C 0.937635 3.535534 1.836992 3.163008 2.5 2.5 
C 3.163008 1.836992 3.535534 0.937635 3.535534 0 
C 3.535534 -0.937635 3.163008 -1.836992 2.5 -2.5 
C 1.836992 -3.163008 0.937635 -3.535534 0 -3.535534 
C -0.937635 -3.535534 -1.836992 -3.163008 -2.5 -2.5 
C -3.163008 -1.836992 -3.535534 -0.937635 -3.535534 0 
C -3.535534 0.937635 -3.163008 1.836992 -2.5 2.5 
C -1.836992 3.163008 -0.937635 3.535534 0 3.535534 
z
" id="mce1969c251" style="stroke:#000000;stroke-width:1.4;"/>
    </defs>
    <g clip-path="url(#p6f1252fa44)">
     <use style="fill:#ad494a;stroke:#000000;stroke-width:1.4;" x="149.76" xlink:href="#mce1969c251" y="147.84"/>
    </g>
   </g>
   <g id="PathCollection_48">
    <defs>
     <path d="M 0 3.535534 
C 0.937635 3.535534 1.836992 3.163008 2.5 2.5 
C 3.163008 1.836992 3.535534 0.937635 3.535534 0 
C 3.535534 -0.937635 3.163008 -1.836992 2.5 -2.5 
C 1.836992 -3.163008 0.937635 -3.535534 0 -3.535534 
C -0.937635 -3.535534 -1.836992 -3.163008 -2.5 -2.5 
C -3.163008 -1.836992 -3.535534 -0.937635 -3.535534 0 
C -3.535534 0.937635 -3.163008 1.836992 -2.5 2.5 
C -1.836992 3.163008 -0.937635 3.535534 0 3.535534 
z
" id="macac86b5be" style="stroke:#000000;stroke-width:1.4;"/>
    </defs>
    <g clip-path="url(#p6f1252fa44)">
     <use style="fill:#843c39;stroke:#000000;stroke-width:1.4;" x="192.96" xlink:href="#macac86b5be" y="147.84"/>
    </g>
   </g>
   <g id="PathCollection_49">
    <defs>
     <path d="M 0 3.535534 
C 0.937635 3.535534 1.836992 3.163008 2.5 2.5 
C 3.163008 1.836992 3.535534 0.937635 3.535534 0 
C 3.535534 -0.937635 3.163008 -1.836992 2.5 -2.5 
C 1.836992 -3.163008 0.937635 -3.535534 0 -3.535534 
C -0.937635 -3.535534 -1.836992 -3.163008 -2.5 -2.5 
C -3.163008 -1.836992 -3.535534 -0.937635 -3.535534 0 
C -3.535534 0.937635 -3.163008 1.836992 -2.5 2.5 
C -1.836992 3.163008 -0.937635 3.535534 0 3.535534 
z
" id="mf97f05ff0d" style="stroke:#000000;stroke-width:1.4;"/>
    </defs>
    <g clip-path="url(#p6f1252fa44)">
     <use style="fill:#ce6dbd;stroke:#000000;stroke-width:1.4;" x="236.16" xlink:href="#mf97f05ff0d" y="153.72"/>
    </g>
   </g>
   <g id="PathCollection_50">
    <defs>
     <path d="M 0 3.535534 
C 0.937635 3.535534 1.836992 3.163008 2.5 2.5 
C 3.163008 1.836992 3.535534 0.937635 3.535534 0 
C 3.535534 -0.937635 3.163008 -1.836992 2.5 -2.5 
C 1.836992 -3.163008 0.937635 -3.535534 0 -3.535534 
C -0.937635 -3.535534 -1.836992 -3.163008 -2.5 -2.5 
C -3.163008 -1.836992 -3.535534 -0.937635 -3.535534 0 
C -3.535534 0.937635 -3.163008 1.836992 -2.5 2.5 
C -1.836992 3.163008 -0.937635 3.535534 0 3.535534 
z
" id="m89714258ba" style="stroke:#000000;stroke-width:1.4;"/>
    </defs>
    <g clip-path="url(#p6f1252fa44)">
     <use style="fill:#a55194;stroke:#000000;stroke-width:1.4;" x="279.36" xlink:href="#m89714258ba" y="153.72"/>
    </g>
   </g>
   <g id="PathCollection_51">
    <defs>
     <path d="M 0 3.535534 
C 0.937635 3.535534 1.836992 3.163008 2.5 2.5 
C 3.163008 1.836992 3.535534 0.937635 3.535534 0 
C 3.535534 -0.937635 3.163008 -1.836992 2.5 -2.5 
C 1.836992 -3.163008 0.937635 -3.535534 0 -3.535534 
C -0.937635 -3.535534 -1.836992 -3.163008 -2.5 -2.5 
C -3.163008 -1.836992 -3.535534 -0.937635 -3.535534 0 
C -3.535534 0.937635 -3.163008 1.836992 -2.5 2.5 
C -1.836992 3.163008 -0.937635 3.535534 0 3.535534 
z
" id="m64d9c4171a" style="stroke:#000000;stroke-width:1.4;"/>
    </defs>
    <g clip-path="url(#p6f1252fa44)">
     <use style="fill:#7b4173;stroke:#000000;stroke-width:1.4;" x="322.56" xlink:href="#m64d9c4171a" y="161.07"/>
    </g>
   </g>
   <g id="PathCollection_52">
    <defs>
     <path d="M 0 3.535534 
C 0.937635 3.535534 1.836992 3.163008 2.5 2.5 
C 3.163008 1.836992 3.535534 0.937635 3.535534 0 
C 3.535534 -0.937635 3.163008 -1.836992 2.5 -2.5 
C 1.836992 -3.163008 0.937635 -3.535534 0 -3.535534 
C -0.937635 -3.535534 -1.836992 -3.163008 -2.5 -2.5 
C -3.163008 -1.836992 -3.535534 -0.937635 -3.535534 0 
C -3.535534 0.937635 -3.163008 1.836992 -2.5 2.5 
C -1.836992 3.163008 -0.937635 3.535534 0 3.535534 
z
" id="m31e8df3399" style="stroke:#000000;stroke-width:1.4;"/>
    </defs>
    <g clip-path="url(#p6f1252fa44)">
     <use style="fill:#e7969c;stroke:#000000;stroke-width:1.4;" x="365.76" xlink:href="#m31e8df3399" y="174.3"/>
    </g>
   </g>
   <g id="PathCollection_53">
    <defs>
     <path d="M 0 3.535534 
C 0.937635 3.535534 1.836992 3.163008 2.5 2.5 
C 3.163008 1.836992 3.535534 0.937635 3.535534 0 
C 3.535534 -0.937635 3.163008 -1.836992 2.5 -2.5 
C 1.836992 -3.163008 0.937635 -3.535534 0 -3.535534 
C -0.937635 -3.535534 -1.836992 -3.163008 -2.5 -2.5 
C -3.163008 -1.836992 -3.535534 -0.937635 -3.535534 0 
C -3.535534 0.937635 -3.163008 1.836992 -2.5 2.5 
C -1.836992 3.163008 -0.937635 3.535534 0 3.535534 
z
" id="mb3dcf723ff" style="stroke:#000000;stroke-width:1.4;"/>
    </defs>
    <g clip-path="url(#p6f1252fa44)">
     <use style="fill:#d6616b;stroke:#000000;stroke-width:1.4;" x="408.96" xlink:href="#mb3dcf723ff" y="177.24"/>
    </g>
   </g>
   <g id="PathCollection_54">
    <defs>
     <path d="M 0 3.535534 
C 0.937635 3.535534 1.836992 3.163008 2.5 2.5 
C 3.163008 1.836992 3.535534 0.937635 3.535534 0 
C 3.535534 -0.937635 3.163008 -1.836992 2.5 -2.5 
C 1.836992 -3.163008 0.937635 -3.535534 0 -3.535534 
C -0.937635 -3.535534 -1.836992 -3.163008 -2.5 -2.5 
C -3.163008 -1.836992 -3.535534 -0.937635 -3.535534 0 
C -3.535534 0.937635 -3.163008 1.836992 -2.5 2.5 
C -1.836992 3.163008 -0.937635 3.535534 0 3.535534 
z
" id="m2dc2fcb17b" style="stroke:#000000;stroke-width:1.4;"/>
    </defs>
    <g clip-path="url(#p6f1252fa44)">
     <use style="fill:#e7cb94;stroke:#000000;stroke-width:1.4;" x="452.16" xlink:href="#m2dc2fcb17b" y="177.24"/>
    </g>
   </g>
  </g>
 </g>
 <defs>
  <clipPath id="p6f1252fa44">
   <rect height="211.68" width="410.4" x="72" y="30.24"/>
  </clipPath>
 </defs>
</svg>
